<?xml version="1.0" encoding="UTF-8" standalone="no"?>
<!-- Created with Inkscape (http://www.inkscape.org/) -->
<svg
   xmlns:dc="http://purl.org/dc/elements/1.1/"
   xmlns:cc="http://creativecommons.org/ns#"
   xmlns:rdf="http://www.w3.org/1999/02/22-rdf-syntax-ns#"
   xmlns:svg="http://www.w3.org/2000/svg"
   xmlns="http://www.w3.org/2000/svg"
   xmlns:xlink="http://www.w3.org/1999/xlink"
   xmlns:sodipodi="http://sodipodi.sourceforge.net/DTD/sodipodi-0.dtd"
   xmlns:inkscape="http://www.inkscape.org/namespaces/inkscape"
   width="32"
   height="32"
   id="svg2383"
   sodipodi:version="0.32"
   inkscape:version="0.46"
   inkscape:export-filename="/Users/tparscal/Sites/wiki/extensions/DataCenter/Resources/Icons/Object-FormFactor-Desktop.png"
   inkscape:export-xdpi="90"
   inkscape:export-ydpi="90"
   sodipodi:docname="Port-Conductor.svg"
   inkscape:output_extension="org.inkscape.output.svg.inkscape"
   version="1.0"
   style="display:inline">
  <defs
     id="defs2385">
    <linearGradient
       id="linearGradient2440">
      <stop
         style="stop-color:#808080;stop-opacity:0.50196081;"
         offset="0"
         id="stop2442" />
      <stop
         style="stop-color:#ffffff;stop-opacity:0;"
         offset="1"
         id="stop2444" />
    </linearGradient>
    <inkscape:perspective
       sodipodi:type="inkscape:persp3d"
       inkscape:vp_x="0 : 16 : 1"
       inkscape:vp_y="0 : 1000 : 0"
       inkscape:vp_z="32 : 16 : 1"
       inkscape:persp3d-origin="16 : 10.666667 : 1"
       id="perspective2391" />
    <linearGradient
       inkscape:collect="always"
       xlink:href="#linearGradient2440"
       id="linearGradient2446"
       x1="16.789009"
       y1="17.800785"
       x2="20.539745"
       y2="21.730127"
       gradientUnits="userSpaceOnUse" />
    <inkscape:perspective
       id="perspective2666"
       inkscape:persp3d-origin="372.04724 : 350.78739 : 1"
       inkscape:vp_z="744.09448 : 526.18109 : 1"
       inkscape:vp_y="0 : 1000 : 0"
       inkscape:vp_x="0 : 526.18109 : 1"
       sodipodi:type="inkscape:persp3d" />
    <inkscape:perspective
       id="perspective3531"
       inkscape:persp3d-origin="372.04724 : 350.78739 : 1"
       inkscape:vp_z="744.09448 : 526.18109 : 1"
       inkscape:vp_y="0 : 1000 : 0"
       inkscape:vp_x="0 : 526.18109 : 1"
       sodipodi:type="inkscape:persp3d" />
    <inkscape:perspective
       id="perspective3595"
       inkscape:persp3d-origin="372.04724 : 350.78739 : 1"
       inkscape:vp_z="744.09448 : 526.18109 : 1"
       inkscape:vp_y="0 : 1000 : 0"
       inkscape:vp_x="0 : 526.18109 : 1"
       sodipodi:type="inkscape:persp3d" />
    <inkscape:perspective
       id="perspective3649"
       inkscape:persp3d-origin="372.04724 : 350.78739 : 1"
       inkscape:vp_z="744.09448 : 526.18109 : 1"
       inkscape:vp_y="0 : 1000 : 0"
       inkscape:vp_x="0 : 526.18109 : 1"
       sodipodi:type="inkscape:persp3d" />
    <inkscape:perspective
       id="perspective3701"
       inkscape:persp3d-origin="372.04724 : 350.78739 : 1"
       inkscape:vp_z="744.09448 : 526.18109 : 1"
       inkscape:vp_y="0 : 1000 : 0"
       inkscape:vp_x="0 : 526.18109 : 1"
       sodipodi:type="inkscape:persp3d" />
    <inkscape:perspective
       id="perspective3753"
       inkscape:persp3d-origin="372.04724 : 350.78739 : 1"
       inkscape:vp_z="744.09448 : 526.18109 : 1"
       inkscape:vp_y="0 : 1000 : 0"
       inkscape:vp_x="0 : 526.18109 : 1"
       sodipodi:type="inkscape:persp3d" />
    <inkscape:perspective
       id="perspective4152"
       inkscape:persp3d-origin="372.04724 : 350.78739 : 1"
       inkscape:vp_z="744.09448 : 526.18109 : 1"
       inkscape:vp_y="0 : 1000 : 0"
       inkscape:vp_x="0 : 526.18109 : 1"
       sodipodi:type="inkscape:persp3d" />
    <inkscape:perspective
       id="perspective4204"
       inkscape:persp3d-origin="372.04724 : 350.78739 : 1"
       inkscape:vp_z="744.09448 : 526.18109 : 1"
       inkscape:vp_y="0 : 1000 : 0"
       inkscape:vp_x="0 : 526.18109 : 1"
       sodipodi:type="inkscape:persp3d" />
  </defs>
  <sodipodi:namedview
     id="base"
     pagecolor="#ffffff"
     bordercolor="#666666"
     borderopacity="1.0"
     inkscape:pageopacity="0.0"
     inkscape:pageshadow="2"
     inkscape:zoom="4.421875"
     inkscape:cx="10.34457"
     inkscape:cy="25.547488"
     inkscape:current-layer="layer5"
     showgrid="true"
     inkscape:grid-bbox="true"
     inkscape:document-units="px"
     inkscape:snap-global="true"
     inkscape:window-width="1187"
     inkscape:window-height="769"
     inkscape:window-x="1503"
     inkscape:window-y="22"
     showguides="true"
     inkscape:guide-bbox="true">
    <inkscape:grid
       type="xygrid"
       id="grid2393"
       visible="true"
       enabled="true" />
  </sodipodi:namedview>
  <metadata
     id="metadata2388">
    <rdf:RDF>
      <cc:Work
         rdf:about="">
        <dc:format>image/svg+xml</dc:format>
        <dc:type
           rdf:resource="http://purl.org/dc/dcmitype/StillImage" />
      </cc:Work>
    </rdf:RDF>
  </metadata>
  <g
     id="layer1"
     inkscape:label="Base"
     inkscape:groupmode="layer"
     style="display:inline">
    <path
       style="fill:url(#linearGradient2446);fill-opacity:1;fill-rule:evenodd;stroke:#000000;stroke-width:1.02255452;stroke-linecap:butt;stroke-linejoin:miter;stroke-miterlimit:4;stroke-dasharray:none;stroke-opacity:0.5;display:inline"
       d="M 32.662807,32.779378 L 1.382546,32.779378 L 32.749939,1.411985 L 32.662807,32.779378 z"
       id="path2395" />
  </g>
  <g
     inkscape:groupmode="layer"
     id="layer3"
     inkscape:label="Module"
     style="display:none">
    <path
       style="opacity:1;fill:#000000;fill-opacity:0.5;stroke:none;stroke-width:1;stroke-linejoin:miter;stroke-miterlimit:4;stroke-dasharray:none;stroke-opacity:1;display:inline"
       d="M 17.65625,17.177672 L 17.65625,21.6875 L 22.0625,21.6875 L 22.09375,19 L 29.46875,24.8125 L 22.09375,30.65625 L 22.0625,27.84375 L 17.65625,27.84375 L 17.65625,32.12787 L 32,32.12787 L 32,2.8172482 L 17.65625,17.177672 z"
       id="rect4037"
       sodipodi:nodetypes="cccccccccccc" />
  </g>
  <g
     inkscape:groupmode="layer"
     id="layer4"
     inkscape:label="Portable"
     style="display:none">
    <path
       style="fill:#15130a;fill-opacity:0.5;display:inline"
       d="M 27.697563,30.699135 C 27.655704,30.597568 27.125395,29.280755 26.519097,27.772884 C 25.912796,26.265012 25.399088,25.031299 25.377517,25.031299 C 25.355946,25.031299 25.168317,25.248985 24.960563,25.515044 L 24.582828,25.998788 L 23.84205,28.313448 C 23.43462,29.586512 23.077411,30.672854 23.048252,30.727545 C 23.01909,30.782234 22.964171,30.826839 22.926205,30.826664 C 22.813787,30.82615 21.670139,30.370927 21.593523,30.296199 C 21.53769,30.241741 21.682281,29.666233 22.291318,27.518772 L 23.059537,24.810039 L 23.740598,23.508291 L 24.421662,22.206543 L 24.043806,21.36031 C 23.835988,20.894882 23.646405,20.492405 23.622511,20.465916 C 23.598619,20.439427 23.422026,20.686435 23.230083,21.014822 C 23.038138,21.34321 22.850143,21.636322 22.812315,21.66618 C 22.734234,21.727813 20.337137,22.531202 20.231321,22.531202 C 20.130291,22.531202 19.688842,21.856251 19.726202,21.758896 C 19.743719,21.713243 20.289157,21.328469 20.938284,20.903842 C 21.58741,20.479216 22.138045,20.113897 22.161918,20.092024 C 22.18579,20.070151 22.367765,19.504151 22.566311,18.834246 C 22.78109,18.109559 23.010905,17.459223 23.133725,17.228571 C 23.247259,17.015353 23.340151,16.80644 23.340151,16.764317 C 23.340151,16.722194 23.257052,16.669793 23.155486,16.647871 C 21.97489,16.393046 21.697366,14.917569 22.715081,14.306449 C 23.822666,13.641364 25.09666,14.881391 24.46339,16.008143 C 24.388548,16.141305 24.361998,16.244436 24.394748,16.274792 C 24.42412,16.302018 25.368641,16.802267 26.493684,17.386459 C 27.618729,17.97065 28.573185,18.481593 28.6147,18.52189 C 28.676432,18.581808 28.681606,18.96145 28.64311,20.605794 L 28.596039,22.616432 L 28.328594,22.607442 C 28.181499,22.602499 27.973191,22.569425 27.865687,22.533945 C 27.630653,22.456377 27.651312,22.55055 27.480983,20.780386 C 27.379371,19.724371 27.335472,19.446507 27.264525,19.410281 C 27.113163,19.332995 26.692557,19.286406 26.692557,19.346926 C 26.692557,19.377633 26.806401,19.793434 26.945548,20.270929 C 27.344558,21.640181 27.339567,21.601676 27.231142,22.474382 L 27.135842,23.241457 L 28.135838,26.687309 C 28.685836,28.582526 29.135833,30.175447 29.135833,30.227134 C 29.135833,30.290955 28.942509,30.411379 28.533319,30.602453 C 28.201937,30.757195 27.895449,30.883801 27.852237,30.883801 C 27.809025,30.883801 27.739422,30.800701 27.697563,30.699135 z"
       id="path4210"
       sodipodi:nodetypes="csscccssscccccsssssssssssssssscccssssscccsssc"
       inkscape:export-xdpi="90"
       inkscape:export-ydpi="90" />
  </g>
  <g
     inkscape:groupmode="layer"
     id="layer5"
     inkscape:label="Desktop"
     style="display:inline">
    <g
       id="g4226"
       transform="matrix(0.5778563,0,0,0.5778563,36.764562,23.711913)">
      <rect
         transform="scale(1,-1)"
         y="-2.1484098"
         x="-40"
         height="3.3922262"
         width="29.999998"
         id="rect4214"
         style="opacity:1;fill:#15130a;fill-opacity:0.5;stroke:none;stroke-width:1.89999998;stroke-linecap:round;stroke-linejoin:miter;stroke-miterlimit:4;stroke-dasharray:none;stroke-opacity:1" />
      <g
         transform="translate(-0.2367487,0)"
         id="g4222">
        <rect
           style="opacity:1;fill:#15130a;fill-opacity:0.5;stroke:none;stroke-width:1.89999998;stroke-linecap:round;stroke-linejoin:miter;stroke-miterlimit:4;stroke-dasharray:none;stroke-opacity:1;display:inline"
           id="rect4216"
           width="10.777383"
           height="3.3922262"
           x="1.8480577"
           y="-37.427567"
           transform="matrix(0,1,1,0,0,0)" />
        <rect
           style="opacity:1;fill:#15130a;fill-opacity:0.5;stroke:none;stroke-width:1.89999998;stroke-linecap:round;stroke-linejoin:miter;stroke-miterlimit:4;stroke-dasharray:none;stroke-opacity:1;display:inline"
           id="rect4220"
           width="10.777383"
           height="3.3922262"
           x="2"
           y="-15.491164"
           transform="matrix(0,1,1,0,0,0)" />
      </g>
    </g>
    <rect
       style="opacity:1;fill:#15130a;fill-opacity:0.5;stroke:none;stroke-width:1.89999998;stroke-linecap:round;stroke-linejoin:miter;stroke-miterlimit:4;stroke-dasharray:none;stroke-opacity:1"
       id="rect4232"
       width="6.7844524"
       height="5.2014136"
       x="18.925926"
       y="16.39576" />
  </g>
  <g
     inkscape:groupmode="layer"
     id="layer2"
     inkscape:label="RackUnit"
     style="display:none">
    <path
       sodipodi:type="arc"
       style="opacity:1;fill:#808080;fill-opacity:0.50196078;stroke:#000000;stroke-width:1;stroke-linejoin:miter;stroke-miterlimit:4;stroke-dasharray:none;stroke-opacity:0.5;display:inline"
       id="path2571"
       sodipodi:cx="26.924927"
       sodipodi:cy="23.828754"
       sodipodi:rx="5.7600589"
       sodipodi:ry="5.7600589"
       d="M 32.684986,23.828754 A 5.7600589,5.7600589 0 1 1 21.164868,23.828754 A 5.7600589,5.7600589 0 1 1 32.684986,23.828754 z"
       transform="matrix(1,0,0,-1,-2.8577037,47.836116)" />
    <path
       style="opacity:1;fill:#808080;fill-opacity:0.50196078;stroke:#000000;stroke-width:1;stroke-linejoin:miter;stroke-miterlimit:4;stroke-dasharray:none;stroke-opacity:0.5;display:inline"
       d="M 24.52298,20.061023 L 23.75372,23.347186 L 20.467558,22.577926 L 20.239629,23.551604 L 23.525792,24.320864 L 22.756532,27.607026 L 23.73021,27.834955 L 24.49947,24.548792 L 27.785632,25.318052 L 28.013561,24.344374 L 24.727398,23.575114 L 25.496658,20.288952 L 24.52298,20.061023 z"
       id="rect2573" />
    <path
       style="opacity:1;fill:#000000;fill-opacity:0.50196078;stroke:none;stroke-width:1;stroke-linejoin:miter;stroke-miterlimit:4;stroke-dasharray:none;stroke-opacity:0.5;display:inline"
       d="M 25.625,9.1919468 L 22.5625,12.285697 C 22.962191,12.716762 23.522487,12.973197 24.15625,12.973197 C 25.363987,12.973197 26.34375,11.993434 26.34375,10.785697 C 26.34375,10.143713 26.065873,9.5922989 25.625,9.1919468 z"
       id="path2578" />
    <path
       style="opacity:1;fill:#000000;fill-opacity:0.50196078;stroke:none;stroke-width:1;stroke-linejoin:miter;stroke-miterlimit:4;stroke-dasharray:none;stroke-opacity:0.5;display:inline"
       d="M 16,18.15625 L 1.375,32.78125 L 16,32.78125 L 16,18.15625 z"
       id="rect2583" />
  </g>
</svg>
