<?xml version="1.0" encoding="UTF-8" standalone="no"?>
<!-- Created with Inkscape (http://www.inkscape.org/) -->
<svg
   xmlns:dc="http://purl.org/dc/elements/1.1/"
   xmlns:cc="http://creativecommons.org/ns#"
   xmlns:rdf="http://www.w3.org/1999/02/22-rdf-syntax-ns#"
   xmlns:svg="http://www.w3.org/2000/svg"
   xmlns="http://www.w3.org/2000/svg"
   xmlns:xlink="http://www.w3.org/1999/xlink"
   xmlns:sodipodi="http://sodipodi.sourceforge.net/DTD/sodipodi-0.dtd"
   xmlns:inkscape="http://www.inkscape.org/namespaces/inkscape"
   width="32px"
   height="32px"
   id="svg2383"
   sodipodi:version="0.32"
   inkscape:version="0.46"
   inkscape:export-filename="/Users/tparscal/Sites/wiki/extensions/DataCenter/Resources/Icons/Port-Format-Analog.png"
   inkscape:export-xdpi="90"
   inkscape:export-ydpi="90"
   sodipodi:docname="Port-Format.svg"
   inkscape:output_extension="org.inkscape.output.svg.inkscape">
  <defs
     id="defs2385">
    <linearGradient
       id="linearGradient2440">
      <stop
         style="stop-color:#808080;stop-opacity:0.50196081;"
         offset="0"
         id="stop2442" />
      <stop
         style="stop-color:#ffffff;stop-opacity:0;"
         offset="1"
         id="stop2444" />
    </linearGradient>
    <inkscape:perspective
       sodipodi:type="inkscape:persp3d"
       inkscape:vp_x="0 : 16 : 1"
       inkscape:vp_y="0 : 1000 : 0"
       inkscape:vp_z="32 : 16 : 1"
       inkscape:persp3d-origin="16 : 10.666667 : 1"
       id="perspective2391" />
    <linearGradient
       inkscape:collect="always"
       xlink:href="#linearGradient2440"
       id="linearGradient2446"
       x1="16.789009"
       y1="17.800785"
       x2="20.539745"
       y2="21.730127"
       gradientUnits="userSpaceOnUse" />
  </defs>
  <sodipodi:namedview
     id="base"
     pagecolor="#ffffff"
     bordercolor="#666666"
     borderopacity="1.0"
     inkscape:pageopacity="0.0"
     inkscape:pageshadow="2"
     inkscape:zoom="11.197802"
     inkscape:cx="19.213842"
     inkscape:cy="16"
     inkscape:current-layer="layer1"
     showgrid="true"
     inkscape:grid-bbox="true"
     inkscape:document-units="px"
     inkscape:snap-global="false"
     inkscape:window-width="1068"
     inkscape:window-height="778"
     inkscape:window-x="1479"
     inkscape:window-y="38">
    <inkscape:grid
       type="xygrid"
       id="grid2393" />
  </sodipodi:namedview>
  <metadata
     id="metadata2388">
    <rdf:RDF>
      <cc:Work
         rdf:about="">
        <dc:format>image/svg+xml</dc:format>
        <dc:type
           rdf:resource="http://purl.org/dc/dcmitype/StillImage" />
      </cc:Work>
    </rdf:RDF>
  </metadata>
  <g
     id="layer1"
     inkscape:label="Base"
     inkscape:groupmode="layer"
     style="display:inline">
    <path
       style="fill:url(#linearGradient2446);fill-opacity:1;fill-rule:evenodd;stroke:#000000;stroke-width:1.02255451999999991;stroke-linecap:butt;stroke-linejoin:miter;stroke-miterlimit:4;stroke-dasharray:none;stroke-opacity:0.50000000000000000;display:inline"
       d="M 32.662807,32.779378 L 1.382546,32.779378 L 32.749939,1.411985 L 32.662807,32.779378 z"
       id="path2395" />
  </g>
  <g
     inkscape:groupmode="layer"
     id="layer2"
     inkscape:label="Analog"
     style="display:inline">
    <path
       style="fill:#000000;fill-opacity:0.50196078;fill-rule:evenodd;stroke:none;stroke-width:1px;stroke-linecap:butt;stroke-linejoin:miter;stroke-opacity:1;display:inline"
       d="M 15.167813,24.351692 C 15.889443,24.320317 16.446055,23.870306 16.886563,23.320442 C 17.327071,22.770577 17.707049,22.096059 18.074063,21.445442 C 18.441077,20.794825 18.794746,20.157819 19.167813,19.726692 C 19.54088,19.295565 19.865501,19.101692 20.230313,19.101692 C 20.595124,19.101692 20.917791,19.300953 21.261563,19.726692 C 21.605335,20.152431 21.92057,20.765747 22.261563,21.414192 C 22.602556,22.062637 22.96409,22.742841 23.417813,23.289192 C 23.871536,23.835543 24.495194,24.257942 25.261563,24.257942 C 26.021521,24.257942 26.625982,23.850566 27.074063,23.320442 C 27.522144,22.790318 27.864176,22.133065 28.199063,21.507942 C 28.53395,20.882819 28.854578,20.290502 29.199063,19.882942 C 29.543548,19.475382 29.860579,19.257942 30.261563,19.257942 C 30.662547,19.257942 30.930865,19.478621 31.261563,19.882942 C 31.592261,20.287263 31.905211,20.854514 32.230313,21.476692 C 32.382177,21.767329 32.530492,22.06065 32.699063,22.351692 L 32.699063,20.226692 C 32.500593,19.873516 32.288324,19.52686 32.042813,19.226692 C 31.608852,18.69612 31.021521,18.257942 30.261563,18.257942 C 29.501605,18.257942 28.865894,18.696568 28.417813,19.226692 C 27.969732,19.756816 27.6277,20.414069 27.292813,21.039192 C 26.957926,21.664315 26.637298,22.256632 26.292813,22.664192 C 25.948328,23.071752 25.662547,23.257942 25.261563,23.257942 C 24.866989,23.257942 24.55186,23.057763 24.199063,22.632942 C 23.846266,22.208121 23.507758,21.591894 23.167813,20.945442 C 22.827868,20.29899 22.483235,19.647125 22.042813,19.101692 C 21.602391,18.556259 20.981791,18.101692 20.230313,18.101692 C 19.478834,18.101692 18.887546,18.527605 18.417813,19.070442 C 17.94808,19.613279 17.5688,20.289999 17.199063,20.945442 C 16.829326,21.600885 16.462953,22.249017 16.105313,22.695442 C 15.747673,23.141867 15.44192,23.338416 15.136563,23.351692 C 14.837175,23.364709 14.559354,23.211196 14.230313,22.789192 C 13.966169,22.45042 13.688575,21.960739 13.417813,21.445442 L 12.699063,22.164192 C 12.932718,22.597549 13.163511,23.016715 13.449063,23.382942 C 13.870728,23.923738 14.440213,24.383326 15.167813,24.351692 z"
       id="path2405" />
  </g>
  <g
     inkscape:groupmode="layer"
     id="layer3"
     inkscape:label="Digital"
     style="display:none">
    <path
       style="fill:#000000;fill-opacity:0.50196078;fill-rule:evenodd;stroke:none;stroke-width:1px;stroke-linecap:butt;stroke-linejoin:miter;stroke-opacity:1;display:inline"
       d="M 32.699063,24.320442 L 32.699063,23.320442 L 30.886563,23.320442 L 30.886563,18.820442 L 30.886563,18.320442 L 30.386563,18.320442 L 25.199063,18.320442 L 24.699063,18.320442 L 24.699063,18.820442 L 24.699063,23.226692 L 20.792813,23.226692 L 20.792813,18.820442 L 20.792813,18.320442 L 20.292813,18.320442 L 16.542813,18.320442 L 14.792813,20.070442 L 14.792813,23.320442 L 11.542813,23.320442 L 10.542813,24.320442 L 15.292813,24.320442 L 15.792813,24.320442 L 15.792813,23.820442 L 15.792813,19.320442 L 19.792813,19.320442 L 19.792813,23.726692 L 19.792813,24.226692 L 20.292813,24.226692 L 25.199063,24.226692 L 25.699063,24.226692 L 25.699063,23.726692 L 25.699063,19.320442 L 29.886563,19.320442 L 29.886563,23.820442 L 29.886563,24.320442 L 30.386563,24.320442 L 32.699063,24.320442 z"
       id="path2407" />
  </g>
  <g
     inkscape:groupmode="layer"
     id="layer4"
     inkscape:label="Mixed"
     style="display:none">
    <path
       style="fill:#000000;fill-opacity:0.50196078;fill-rule:evenodd;stroke:none;stroke-width:1px;stroke-linecap:butt;stroke-linejoin:miter;stroke-opacity:1;display:inline"
       d="M 15.136563,27.570442 C 15.858193,27.539067 16.414805,27.057806 16.855313,26.507942 C 17.295821,25.958078 17.644549,25.283558 18.011563,24.632942 C 18.378577,23.982326 18.763496,23.376569 19.136563,22.945442 C 19.50963,22.514315 19.834251,22.289192 20.199063,22.289192 C 20.563874,22.289192 20.855291,22.488453 21.199063,22.914192 C 21.542835,23.339931 21.88932,23.953247 22.230313,24.601692 C 22.571306,25.250137 22.90159,25.930341 23.355313,26.476692 C 23.809036,27.023043 24.432694,27.476692 25.199063,27.476692 C 25.959021,27.476692 26.563482,27.038066 27.011563,26.507942 C 27.459644,25.977818 27.801676,25.320565 28.136563,24.695442 C 28.47145,24.070319 28.792078,23.478002 29.136563,23.070442 C 29.481048,22.662882 29.798079,22.476692 30.199063,22.476692 C 30.600047,22.476692 30.899615,22.666121 31.230313,23.070442 C 31.561011,23.474763 31.873961,24.073264 32.199063,24.695442 C 32.357396,24.998458 32.522021,25.306736 32.699063,25.601692 L 32.699063,23.507942 C 32.494356,23.129227 32.279973,22.773607 32.011563,22.445442 C 31.577602,21.91487 30.959021,21.476692 30.199063,21.476692 C 29.439105,21.476692 28.834644,21.915318 28.386563,22.445442 C 27.938482,22.975566 27.59645,23.601569 27.261563,24.226692 C 26.926676,24.851815 26.606048,25.475382 26.261563,25.882942 C 25.917078,26.290502 25.600047,26.476692 25.199063,26.476692 C 24.804489,26.476692 24.48936,26.276513 24.136563,25.851692 C 23.783766,25.426871 23.445258,24.810644 23.105313,24.164192 C 22.765368,23.51774 22.420735,22.834625 21.980313,22.289192 C 21.539891,21.743759 20.950541,21.289192 20.199063,21.289192 C 19.447584,21.289192 18.856296,21.746355 18.386563,22.289192 C 17.91683,22.832029 17.53755,23.477499 17.167813,24.132942 C 16.798076,24.788385 16.431703,25.436517 16.074063,25.882942 C 15.716423,26.329367 15.37942,26.557166 15.074063,26.570442 C 14.774675,26.583459 14.528104,26.398696 14.199063,25.976692 C 13.870022,25.554688 13.540815,24.944684 13.199063,24.289192 C 12.906957,23.728924 12.598498,23.138117 12.230313,22.632942 L 11.511563,23.351692 C 11.790469,23.750353 12.061139,24.222395 12.324063,24.726692 C 12.663248,25.37726 12.996148,26.060896 13.417813,26.601692 C 13.839478,27.142488 14.408963,27.602077 15.136563,27.570442 z M 32.699063,19.570442 L 32.699063,18.570442 L 30.824063,18.570442 L 30.824063,14.070442 L 30.824063,13.570442 L 30.324063,13.570442 L 25.167813,13.570442 L 24.667813,13.570442 L 24.667813,14.070442 L 24.667813,18.476692 L 20.730313,18.476692 L 20.730313,14.132942 L 19.730313,15.132942 L 19.730313,18.976692 L 19.730313,19.476692 L 20.230313,19.476692 L 25.167813,19.476692 L 25.667813,19.476692 L 25.667813,18.976692 L 25.667813,14.570442 L 29.824063,14.570442 L 29.824063,19.070442 L 29.824063,19.570442 L 30.324063,19.570442 L 32.699063,19.570442 z M 15.730313,19.570442 L 15.730313,19.132942 L 15.292813,19.570442 L 15.730313,19.570442 z"
       id="path2449" />
  </g>
  <g
     inkscape:groupmode="layer"
     id="layer5"
     inkscape:label="None"
     style="display:none">
    <path
       style="fill:#000000;fill-opacity:0.50196078;fill-rule:evenodd;stroke:none;stroke-width:1px;stroke-linecap:butt;stroke-linejoin:miter;stroke-opacity:1;display:inline"
       d="M 32.699063,21.101692 L 32.699063,20.101692 L 14.761563,20.101692 L 13.761563,21.101692 L 32.699063,21.101692 z"
       id="path2455" />
  </g>
  <g
     inkscape:groupmode="layer"
     id="layer6"
     inkscape:label="Virtual"
     style="display:none">
    <path
       style="fill:#000000;fill-opacity:0.50196078;stroke:none;stroke-opacity:1"
       d="M 31.449063,22.132942 C 31.959323,22.132942 32.420174,21.865287 32.699063,21.476692 L 32.699063,19.726692 C 32.420174,19.338097 31.959323,19.070442 31.449063,19.070442 C 30.609128,19.070442 29.949063,19.780132 29.949063,20.601692 C 29.949063,21.423252 30.609128,22.132942 31.449063,22.132942 z M 27.449063,22.132942 C 28.288998,22.132942 28.980313,21.441627 28.980313,20.601692 C 28.980313,19.761757 28.288998,19.070442 27.449063,19.070442 C 26.609128,19.070442 25.917813,19.761757 25.917813,20.601692 C 25.917813,21.441627 26.609128,22.132942 27.449063,22.132942 z M 23.449063,22.132942 C 24.288998,22.132942 24.980313,21.441627 24.980313,20.601692 C 24.980313,19.761757 24.288998,19.070442 23.449063,19.070442 C 22.609128,19.070442 21.917813,19.761757 21.917813,20.601692 C 21.917813,21.441627 22.609128,22.132942 23.449063,22.132942 z M 19.417813,22.132942 C 20.257748,22.132942 20.949063,21.441627 20.949063,20.601692 C 20.949063,19.761757 20.257748,19.070442 19.417813,19.070442 C 18.577878,19.070442 17.886563,19.761757 17.886563,20.601692 C 17.886563,21.441627 18.577878,22.132942 19.417813,22.132942 z M 15.417813,22.132942 C 16.257748,22.132942 16.949063,21.441627 16.949063,20.601692 C 16.949063,19.877249 16.441907,19.256814 15.761563,19.101692 C 15.751703,19.099444 15.740242,19.103746 15.730313,19.101692 L 13.917813,20.914192 C 13.919867,20.924121 13.915565,20.935582 13.917813,20.945442 C 14.072935,21.625786 14.69337,22.132942 15.417813,22.132942 z M 31.449063,21.132942 C 31.155204,21.132942 30.949063,20.913926 30.949063,20.601692 C 30.949063,20.289458 31.155204,20.070442 31.449063,20.070442 C 31.742922,20.070442 31.980313,20.307833 31.980313,20.601692 C 31.980313,20.895551 31.742922,21.132942 31.449063,21.132942 z M 27.449063,21.132942 C 27.155204,21.132942 26.917813,20.895551 26.917813,20.601692 C 26.917813,20.307833 27.155204,20.070442 27.449063,20.070442 C 27.742922,20.070442 27.980313,20.307833 27.980313,20.601692 C 27.980313,20.895551 27.742922,21.132942 27.449063,21.132942 z M 23.449063,21.132942 C 23.155204,21.132942 22.917813,20.895551 22.917813,20.601692 C 22.917813,20.307833 23.155204,20.070442 23.449063,20.070442 C 23.742923,20.070442 23.980313,20.307833 23.980313,20.601692 C 23.980313,20.895551 23.742922,21.132942 23.449063,21.132942 z M 19.417813,21.132942 C 19.123954,21.132942 18.886563,20.895551 18.886563,20.601692 C 18.886563,20.307833 19.123954,20.070442 19.417813,20.070442 C 19.711672,20.070442 19.949063,20.307833 19.949063,20.601692 C 19.949063,20.895551 19.711672,21.132942 19.417813,21.132942 z M 15.417813,21.132942 C 15.123955,21.132942 14.886563,20.895551 14.886563,20.601692 C 14.886564,20.307832 15.123954,20.070442 15.417813,20.070442 C 15.711674,20.070442 15.949063,20.307832 15.949063,20.601692 C 15.949063,20.895551 15.711672,21.132942 15.417813,21.132942 z"
       id="path2459" />
  </g>
</svg>
