<svg version="1.0" xmlns="http://www.w3.org/2000/svg" xmlns:xlink="http://www.w3.org/1999/xlink" x="0px" y="0px"
	 viewBox="0 0 34 34" style="enable-background:new 0 0 34 34;" xml:space="preserve">
<g>
	<path d="M16.3,10c-0.3-0.2-0.7-0.4-1.2-0.4c-0.6,0-1.1,0.2-1.4,0.7c-0.3,0.5-0.5,1-0.5,1.6c0,0.8,0.2,1.6,0.7,2.4
		c0.2,0.4,0.5,0.7,0.8,1c0.3,0.3,0.7,0.4,1.2,0.4c0.6,0,1-0.2,1.4-0.6c0.2-0.3,0.3-0.6,0.3-0.8c0-0.3,0-0.5,0-0.7
		c0-0.8-0.2-1.7-0.6-2.6C16.9,10.6,16.6,10.2,16.3,10z"/>
	<path d="M16.1,19.2c-0.1,0-0.4,0-0.8,0c-0.4,0.1-0.9,0.2-1.4,0.3c-0.1,0-0.3,0.1-0.5,0.2c-0.2,0.1-0.4,0.2-0.6,0.4
		c-0.2,0.2-0.4,0.4-0.5,0.6c-0.2,0.3-0.2,0.6-0.2,1c0,0.8,0.3,1.4,1,1.9c0.6,0.5,1.5,0.7,2.7,0.8c1,0,1.8-0.2,2.3-0.7
		c0.5-0.4,0.8-1,0.8-1.6c0-0.5-0.2-1-0.5-1.4c-0.4-0.4-1-0.9-1.8-1.4C16.5,19.2,16.3,19.2,16.1,19.2z"/>
	<path d="M17,1C8.2,1,1,8.2,1,17s7.2,16,16,16s16-7.2,16-16S25.8,1,17,1z M18.5,10c0.2,0.2,0.4,0.4,0.5,0.6c0.1,0.2,0.3,0.5,0.4,0.8
		c0.1,0.3,0.1,0.7,0.1,1.1c0,0.8-0.2,1.4-0.5,1.8c-0.2,0.2-0.3,0.4-0.5,0.6c-0.2,0.2-0.4,0.4-0.6,0.6c-0.1,0.1-0.2,0.3-0.4,0.5
		c-0.1,0.2-0.2,0.4-0.2,0.6c0,0.2,0.1,0.4,0.2,0.6c0.1,0.1,0.2,0.3,0.3,0.4l0.7,0.6c0.5,0.4,0.8,0.8,1.2,1.2c0.3,0.5,0.5,1,0.5,1.8
		c0,1-0.5,2-1.4,2.8c-0.9,0.8-2.3,1.3-4.1,1.3c-1.5,0-2.6-0.3-3.4-1c-0.7-0.6-1.1-1.3-1.1-2.1c0-0.4,0.1-0.8,0.4-1.3
		c0.2-0.5,0.7-0.9,1.3-1.3c0.7-0.4,1.4-0.7,2.2-0.8c0.8-0.1,1.4-0.2,1.9-0.2c-0.2-0.2-0.3-0.4-0.4-0.7c-0.1-0.2-0.2-0.5-0.2-0.8
		c0-0.2,0-0.3,0.1-0.5c0-0.1,0.1-0.3,0.1-0.4c-0.2,0-0.5,0-0.7,0c-1.1,0-2-0.4-2.6-1.1c-0.6-0.7-0.9-1.4-0.9-2.3
		c0-1.1,0.4-2,1.3-2.9c0.6-0.5,1.2-0.8,1.9-1c0.6-0.1,1.3-0.2,1.8-0.2l4.2,0l-1.3,0.8l-1.3,0C18.2,9.6,18.3,9.8,18.5,10z M27.3,16.9
		h-2.2v2.2h-1.3v-2.2h-2.2v0h0v-1.2h2.2v-2.2h1.3v2.2h2.2v0h0.1V16.9z"/>
</g>
</svg>
