<svg version="1.1" xmlns="http://www.w3.org/2000/svg" xmlns:xlink="http://www.w3.org/1999/xlink" x="0px" y="0px"
	 viewBox="0 0 34 34" style="enable-background:new 0 0 34 34;" xml:space="preserve">
<g>
	<path d="M17,1C8.2,1,1,8.2,1,17s7.2,16,16,16s16-7.2,16-16S25.8,1,17,1z M11.1,20.7H8.2c-0.4,0-0.8-0.3-0.8-0.8v-5.8
		c0-0.4,0.3-0.8,0.8-0.8c0.4,0,0.8,0.3,0.8,0.8v5h2.1c0.4,0,0.8,0.3,0.8,0.8C11.9,20.3,11.5,20.7,11.1,20.7z M14.1,19.9
		c0,0.4-0.3,0.8-0.8,0.8c-0.4,0-0.8-0.3-0.8-0.8v-5.8c0-0.4,0.3-0.8,0.8-0.8c0.4,0,0.8,0.3,0.8,0.8V19.9z M21.1,19.9
		c0,0.3-0.2,0.6-0.5,0.7c-0.1,0-0.2,0-0.2,0c-0.2,0-0.5-0.1-0.6-0.3l-3-4v3.6c0,0.4-0.3,0.8-0.8,0.8c-0.4,0-0.8-0.3-0.8-0.8v-5.8
		c0-0.3,0.2-0.6,0.5-0.7c0.1,0,0.2,0,0.2,0c0.2,0,0.5,0.1,0.6,0.3l3,4v-3.6c0-0.4,0.3-0.8,0.8-0.8s0.8,0.3,0.8,0.8V19.9z M25.8,16.2
		c0.4,0,0.8,0.3,0.8,0.8c0,0.4-0.3,0.8-0.8,0.8h-2.1v1.4h2.1c0.4,0,0.8,0.3,0.8,0.8c0,0.4-0.3,0.8-0.8,0.8h-2.9
		c-0.4,0-0.8-0.3-0.8-0.8v-5.8c0-0.4,0.3-0.8,0.8-0.8h2.9c0.4,0,0.8,0.3,0.8,0.8c0,0.4-0.3,0.8-0.8,0.8h-2.1v1.4H25.8z"/>
</g>
</svg>
