<svg version="1.0" xmlns="http://www.w3.org/2000/svg" xmlns:xlink="http://www.w3.org/1999/xlink" x="0px" y="0px"
	 viewBox="0 0 34 34" style="enable-background:new 0 0 34 34;" xml:space="preserve">
<g>
	<path d="M17,1C8.2,1,1,8.2,1,17s7.2,16,16,16s16-7.2,16-16S25.8,1,17,1z M26.6,14.5c-1.4,1.3-2.8,2.6-4.2,4
		c-0.2,0.2-0.3,0.4-0.2,0.7c0,0.2,0.1,0.4,0.1,0.5c-0.8,0-1.5,0-2.2-0.1c-0.8,0-1.6-0.1-2.4-0.1c-0.5,0-1-0.1-1.5-0.1
		c-0.1,0-0.2,0-0.2-0.1c0.2-0.2,0.4-0.3,0.6-0.5c1.9-1.3,3.7-2.6,5.6-3.9c0,0,0.1,0,0.1-0.1c0,0-0.1,0-0.1,0
		c-1.2-0.2-2.4-0.4-3.7-0.4c-1.4-0.1-2.7,0-4.1,0.1c-1.1,0.1-2.1,0.2-3.1,0.5c-0.2,0-0.3,0.1-0.5,0.1c0,0,0.1,0,0.1,0
		c1,0,2.1,0.1,3.1,0.1c1.2,0.1,2.3,0.1,3.5,0.3c0.4,0,0.8,0.1,1.2,0.2c0,0,0.1,0,0.1,0c0,0,0,0.1,0,0.1c-0.1,0-0.1,0.1-0.2,0.1
		c-2,1.4-4,2.9-6,4.3c0,0,0,0,0,0c0,0,0,0.1,0,0.1c0.1,0,0.1,0,0.2,0c1.2,0.1,2.5,0.2,3.7,0.2c1.3,0,2.6,0,3.9-0.2
		c0.9-0.1,1.8-0.2,2.7-0.4c0.1,0,0.8-0.1,0.9-0.1c0.1,0,0.9-0.1,0.9-0.1c0,0,0,0,0,0c0,0-0.6,0-0.6,0c-0.3,0.2-0.9,0.4-1.3,0.5
		c-0.3,0.1-0.4,0.1-0.3,0.4c0,0-0.1,0-0.1,0c0,0,0,0.1,0,0.1c0.1,0.5,0.2,0.9,0.2,1.4c0.1,0.3,0.1,0.6,0.2,1c0,0.2,0.1,0.5,0.1,0.7
		c0.1,0.4,0.2,0.9,0.2,1.3c0,0.1,0,0.1,0,0.2c0,0.2-0.2,0.3-0.4,0.2c-0.1,0-0.2-0.1-0.3-0.1c-1.7-1-3.3-1.9-5-2.9
		c-0.3-0.2-0.7-0.2-1,0c-1.7,1-3.3,1.9-5,2.9c-0.1,0-0.2,0.1-0.2,0.1c-0.3,0.1-0.5-0.2-0.5-0.5c0.1-0.3,0.1-0.7,0.2-1
		c0-0.3,0.1-0.5,0.2-0.8c0-0.1,0-0.2,0.1-0.3c0.1-0.3,0.1-0.7,0.2-1c0.1-0.4,0.1-0.8,0.2-1.3c0.1-0.4,0.2-0.8,0.2-1.2
		c0-0.2,0.1-0.3,0.1-0.5c0.1-0.2,0.1-0.4-0.2-0.6c-1.5-1.3-2.9-2.7-4.4-4c-0.1-0.1-0.2-0.2-0.3-0.4c0-0.2,0.1-0.4,0.4-0.4
		c0.4-0.1,0.8-0.1,1.2-0.1c0.5-0.1,1.1-0.1,1.6-0.2c0.5-0.1,1-0.1,1.6-0.2c0.5-0.1,1-0.1,1.5-0.2c0.3,0,0.5-0.2,0.6-0.5
		c0.4-0.8,0.8-1.7,1.2-2.5c0.5-1,0.9-1.9,1.4-2.9c0-0.1,0.1-0.2,0.2-0.3c0.2-0.2,0.3-0.2,0.5,0c0.1,0.1,0.1,0.2,0.2,0.3
		c0.8,1.9,1.7,3.7,2.5,5.6c0.1,0.3,0.4,0.4,0.6,0.4c0.7,0.1,1.4,0.1,2.1,0.2c0.7,0.1,1.3,0.1,2,0.2c0.6,0.1,1.2,0.1,1.8,0.2
		c0.2,0,0.4,0.1,0.4,0.3C26.8,14.2,26.7,14.3,26.6,14.5z"/>
</g>
</svg>
