<svg version="1.0" xmlns="http://www.w3.org/2000/svg" xmlns:xlink="http://www.w3.org/1999/xlink" x="0px" y="0px"
	 viewBox="0 0 34 34" style="enable-background:new 0 0 34 34;" xml:space="preserve">
<g>
	<path d="M8.8,16.6c0,0.5,0.3,0.9,0.7,1.1c0.3-0.7,0.8-1.3,1.4-1.9c-0.2-0.3-0.5-0.4-0.9-0.4C9.3,15.3,8.8,15.9,8.8,16.6z"/>
	<circle cx="23.1" cy="11.4" r="0.8"/>
	<path d="M15.5,17.9c0-0.7-0.6-1.3-1.3-1.3c-0.7,0-1.3,0.6-1.3,1.3s0.6,1.3,1.3,1.3C15,19.2,15.5,18.6,15.5,17.9z"/>
	<path d="M17,1C8.2,1,1,8.2,1,17s7.2,16,16,16c8.8,0,16-7.2,16-16S25.8,1,17,1z M24.7,18.7c0,0.1,0,0.2,0,0.3c0,2.8-3.5,5.1-7.8,5.1
		c-4.3,0-7.8-2.3-7.8-5.1c0-0.1,0-0.2,0-0.3c-0.8-0.3-1.5-1.1-1.5-2.1c0-1.2,1-2.2,2.2-2.2c0.7,0,1.3,0.3,1.7,0.9
		c1.3-0.8,3-1.3,4.9-1.3l1.2-3.7c0.1-0.3,0.3-0.4,0.6-0.3l3.1,0.7c0.3-0.6,0.9-1,1.6-1c1,0,1.9,0.8,1.9,1.9c0,1-0.8,1.9-1.9,1.9
		c-1,0-1.8-0.8-1.9-1.7l-2.6-0.6l-0.9,3c1.8,0.1,3.4,0.6,4.6,1.3c0.4-0.5,1-0.9,1.8-0.9c1.2,0,2.2,1,2.2,2.2
		C26.3,17.5,25.6,18.4,24.7,18.7z"/>
	<path d="M24,15.3c-0.4,0-0.7,0.2-0.9,0.5c0.6,0.5,1.1,1.2,1.4,1.9c0.4-0.2,0.7-0.6,0.7-1.1C25.2,15.9,24.7,15.3,24,15.3z"/>
	<path d="M19.5,21c-0.5,0.5-1.3,0.7-2.4,0.7c0,0,0,0,0,0c0,0,0,0,0,0c-1.2,0-2-0.2-2.4-0.7c-0.1-0.1-0.3-0.1-0.5,0
		c-0.1,0.1-0.1,0.3,0,0.5c0.6,0.6,1.6,0.9,2.9,0.9c0,0,0,0,0,0c0,0,0,0,0,0c1.4,0,2.3-0.3,2.9-0.9c0.1-0.1,0.1-0.3,0-0.5
		C19.8,20.9,19.6,20.9,19.5,21z"/>
	<path d="M19.8,16.7c-0.7,0-1.3,0.6-1.3,1.3s0.6,1.3,1.3,1.3c0.7,0,1.3-0.6,1.3-1.3S20.4,16.7,19.8,16.7z"/>
</g>
</svg>
