<svg version="1.0" xmlns="http://www.w3.org/2000/svg" xmlns:xlink="http://www.w3.org/1999/xlink" x="0px" y="0px"
	 viewBox="0 0 34 34" style="enable-background:new 0 0 34 34;" xml:space="preserve">
<g>
	<path d="M17,1C8.2,1,1,8.2,1,17s7.2,16,16,16s16-7.2,16-16S25.8,1,17,1z M18.5,24.5c-3.3,0.1-4.6-2.4-4.6-4.1v-5h-1.5v-2
		c2.3-0.8,2.9-2.9,3-4.1c0-0.1,0.1-0.1,0.1-0.1c0,0,2.2,0,2.2,0v3.9h3.1v2.3h-3.1v4.7c0,0.6,0.2,1.5,1.5,1.5c0.4,0,0.9-0.1,1.2-0.3
		l0.7,2.2C20.8,24,19.6,24.5,18.5,24.5z"/>
</g>
</svg>
