<svg width="34" height="34" viewBox="0 0 34 34" xmlns="http://www.w3.org/2000/svg" xmlns:xlink="http://www.w3.org/1999/xlink"><title>C6C895C9-2DB6-4B95-B7C1-E93E3B124BCA</title><defs><path id="a" d="M0 0h507v220H0z"/><mask id="b" x="0" y="0" width="507" height="220" fill="#fff"><use xlink:href="#a"/></mask></defs><g transform="translate(-237 -48)" fill="none" fill-rule="evenodd"><use stroke="#CCC" mask="url(#b)" stroke-width="2" stroke-dasharray="4" xlink:href="#a"/><path d="M252.455 66.545v13.91c0 .854.69 1.545 1.545 1.545s1.545-.69 1.545-1.545v-13.91h13.91c.854 0 1.545-.69 1.545-1.545s-.69-1.545-1.545-1.545h-13.91v-13.91c0-.854-.69-1.545-1.545-1.545s-1.545.69-1.545 1.545v13.91h-13.91c-.854 0-1.545.69-1.545 1.545s.69 1.545 1.545 1.545h13.91z" fill="#999"/></g></svg>