<svg width="16" height="18" viewBox="0 0 16 18" xmlns="http://www.w3.org/2000/svg"><title>623CB2EC-0E07-4A9F-954A-4C4F893BBA74</title><path d="M2.91 12c.815 0 1.55-.35 2.08-.91l5.305 3.126c-.066.252-.113.51-.113.784 0 1.654 1.305 3 2.91 3C14.694 18 16 16.654 16 15s-1.305-3-2.91-3c-.815 0-1.55.35-2.08.91L5.705 9.784c.066-.252.113-.51.113-.784 0-.273-.047-.532-.113-.784L11.01 5.09c.53.56 1.265.91 2.08.91C14.696 6 16 4.654 16 3c0-1.655-1.305-3-2.91-3-1.603 0-2.908 1.345-2.908 3 0 .273.047.532.113.784L4.99 6.91C4.46 6.35 3.725 6 2.91 6 1.304 6 0 7.346 0 9s1.305 3 2.91 3" fill="#999" fill-rule="evenodd"/></svg>