<svg width="18" height="18" viewBox="0 0 18 18" xmlns="http://www.w3.org/2000/svg"><title>21CBA0AC-F070-4BBB-A032-D918FE92D37B</title><path d="M12.53 8.78c-.146.147-.338.22-.53.22s-.384-.073-.53-.22L9.75 7.06v6.44c0 .414-.336.75-.75.75s-.75-.336-.75-.75V7.06L6.53 8.78c-.293.293-.767.293-1.06 0-.293-.293-.293-.767 0-1.06l3-3c.07-.07.15-.124.243-.162.184-.076.39-.076.574 0 .09.038.174.093.243.162l3 3c.293.293.293.767 0 1.06M9 0C4.037 0 0 4.037 0 9s4.037 9 9 9 9-4.037 9-9-4.037-9-9-9" fill="#E3BD00" fill-rule="evenodd"/></svg>