<svg width="14" height="14" viewBox="0 0 14 14" xmlns="http://www.w3.org/2000/svg"><title>2FC58EE5-DD9F-4D0F-90FE-11DF8813F936</title><path d="M9.746 6.83c-.114.113-.263.17-.413.17-.15 0-.298-.057-.412-.17L7.584 5.49V10.5c0 .322-.26.583-.583.583-.322 0-.583-.26-.583-.583V5.492L5.08 6.829c-.23.227-.598.227-.826 0-.228-.23-.228-.598 0-.826L6.588 3.67c.053-.053.117-.095.19-.125.142-.06.303-.06.445 0 .07.03.136.072.19.126l2.333 2.334c.228.228.228.597 0 .825M7 0C3.14 0 0 3.14 0 7s3.14 7 7 7 7-3.14 7-7-3.14-7-7-7" fill="#999" fill-rule="evenodd"/></svg>