<?xml version="1.0" encoding="iso-8859-1"?>
<!DOCTYPE svg PUBLIC "-//W3C//DTD SVG 1.1//EN" "http://www.w3.org/Graphics/SVG/1.1/DTD/svg11.dtd">
<svg version="1.1" xmlns="http://www.w3.org/2000/svg" xmlns:xlink="http://www.w3.org/1999/xlink" x="0px" y="0px" width="24px"
   height="24px" viewBox="0 0 24 24" style="enable-background:new 0 0 24 24;" xml:space="preserve">
<g id="bold-arab-dad" style="opacity:0.75;">
  <path id="arab-dad" style="fill-rule:evenodd;clip-rule:evenodd;" d="m 16.411344,8.2323345 -1.675748,-0.6653477 0.69406,-1.566987 1.688254,0.6404748 -0.706566,1.5918599 m 0.775346,3.0780105 c -0.508572,-0.286035 -1.000458,-0.42698 -1.475659,-0.422838 -0.471054,3e-6 -0.981698,0.205203 -1.531933,0.615602 -0.14174,0.107784 -0.310565,0.234221 -0.506477,0.379311 l 0.0062,0.02487 c 1.083807,0.06632 1.934186,0.09949 2.551139,0.09949 l 0.312639,0 c 0.566907,-0.02072 0.992097,-0.06425 1.27557,-0.130582 -0.06672,-0.169962 -0.275136,-0.358581 -0.625279,-0.565856 l -0.0062,0 m -6.803036,3.295647 c -0.01668,-0.903713 -0.32932,-1.869606 -0.9379194,-2.897684 l 1.2943284,-1.7286595 0.118803,0.1492365 c 0.266779,0.335786 0.504384,0.924442 0.712817,1.765969 l 0.06253,0.04974 c 0.496047,-0.0083 0.94208,-0.169962 1.338098,-0.48502 l 0,-0.0062 1.732023,-1.5296776 c 0.679459,-0.6010884 1.281811,-0.9016345 1.807057,-0.9016393 0.383492,0.00415 0.848282,0.1948416 1.394372,0.5720746 0.550232,0.3772415 0.883713,0.6964423 1.000447,0.9576033 0.06251,0.14924 0.09378,0.385532 0.09379,0.708875 -1.4e-5,0.69644 -0.11048,1.229133 -0.331397,1.598078 -0.191767,0.310911 -0.473142,0.555493 -0.844127,0.733748 -0.437709,0.207274 -1.54862,0.31091 -3.332738,0.31091 -0.800367,0 -1.79456,-0.02073 -2.982581,-0.06218 -0.0417,0.149237 -0.08963,0.292255 -0.143814,0.429056 -0.254288,0.671565 -0.462714,1.113056 -0.625279,1.324477 -0.72533,0.936873 -1.7862192,1.405311 -3.1826713,1.405314 -1.7049293,-0.0083 -2.5573923,-0.922369 -2.5573917,-2.742228 0.00417,-0.94102 0.2792905,-1.81364 0.8253685,-2.617863 0.1500654,-0.215562 0.298048,-0.366871 0.4439482,-0.453928 0.2250983,-0.132653 0.2876262,-0.0912 0.1875837,0.124364 -0.3960118,0.862259 -0.5961009,1.548333 -0.6002679,2.058225 0.00833,1.177312 0.7524169,1.76804 2.2322464,1.772187 1.0379586,-0.0042 1.8028827,-0.182401 2.2947751,-0.534765"/>
</g>
</svg>
