<?xml version="1.0" encoding="iso-8859-1"?>
<!DOCTYPE svg PUBLIC "-//W3C//DTD SVG 1.1//EN" "http://www.w3.org/Graphics/SVG/1.1/DTD/svg11.dtd">
<svg version="1.1" xmlns="http://www.w3.org/2000/svg" xmlns:xlink="http://www.w3.org/1999/xlink" x="0px" y="0px" width="24px"
    height="24px" viewBox="0 0 24 24" style="enable-background:new 0 0 24 24;" xml:space="preserve">
<g id="bold-cyrl-be" style="opacity:0.75;">
   <path id="cyrl-be" style="fill-rule:evenodd;clip-rule:evenodd;" d="M 7,6 16,6 l 0,2 -6,0 0,3 2.6489803,0 c 0.892509,0 1.632644,0.109148 2.220408,0.327422 0.587746,0.218288 1.088425,0.622107 1.502041,1.21146 0.419037,0.589364 0.62856,1.187161 0.628571,1.978426 0,0.8131 -0.209534,1.398385 -0.628571,1.976827 -0.419058,0.578446 -0.897969,0.97408 -1.436735,1.186903 C 14.401352,17.893588 13.639448,18 12.64898,18 L 7,18 m 4.767,-2 c 0.751014,0 1.279251,-0.04911 1.584021,-0.120054 0.304753,-0.07639 0.568698,-0.245564 0.791836,-0.507503 0.228563,-0.261935 0.342849,-0.473414 0.342858,-0.855409 0,-0.556612 -0.198648,-0.867917 -0.595919,-1.118945 C 13.497951,13.141614 12.825844,13 11.873469,13 l -1.8734693,0 0,3"/>
</g>
</svg>
