<?xml version="1.0" encoding="iso-8859-1"?>
<!DOCTYPE svg PUBLIC "-//W3C//DTD SVG 1.1//EN" "http://www.w3.org/Graphics/SVG/1.1/DTD/svg11.dtd">
<svg version="1.1" xmlns="http://www.w3.org/2000/svg" xmlns:xlink="http://www.w3.org/1999/xlink" x="0px" y="0px" width="24px"
    height="24px" viewBox="0 0 24 24" style="enable-background:new 0 0 24 24;" xml:space="preserve">
<g id="italic-c" style="opacity:0.75;">
   <path id="c" style="fill-rule:evenodd;clip-rule:evenodd;" d="m 15.007634,13.717678 1.480916,0.21372 C 16.020346,15.27177 15.338413,16.284961 14.442749,16.970976 13.547066,17.656992 12.541978,18 11.427481,18 10.068698,18 8.9898185,17.569921 8.1908397,16.709762 7.3969447,15.849606 7,14.617417 7,13.013192 7,10.923489 7.605596,9.1952585 8.8167939,7.8284953 9.8956698,6.609509 11.236636,6 12.839695,6 14.025437,6 14.984724,6.3298259 15.717558,6.9894451 16.455461,7.6490859 16.882941,8.5356286 17,9.6490758 L 15.603053,9.78364 C 15.455462,8.9445992 15.150118,8.31927 14.687024,7.907651 14.229,7.4907746 13.636125,7.2823316 12.908398,7.282321 11.539435,7.2823316 10.432566,7.9129379 9.5877863,9.1741418 8.8549586,10.26122 8.4885468,11.551457 8.4885496,13.044854 c 0,1.192616 0.2824397,2.102905 0.8473284,2.730872 0.5648816,0.627969 1.30025,0.941953 2.206107,0.941952 0.773531,0 1.473275,-0.261212 2.099237,-0.783641 0.625945,-0.522426 1.081416,-1.261211 1.366412,-2.216359"/>
</g>
</svg>
