<?xml version="1.0" encoding="iso-8859-1"?>
<!DOCTYPE svg PUBLIC "-//W3C//DTD SVG 1.1//EN" "http://www.w3.org/Graphics/SVG/1.1/DTD/svg11.dtd">
<svg version="1.1" xmlns="http://www.w3.org/2000/svg" xmlns:xlink="http://www.w3.org/1999/xlink" x="0px" y="0px" width="24px"
   height="24px" viewBox="0 0 24 24" style="enable-background:new 0 0 24 24;" xml:space="preserve">
<g id="italic-arab-keheh-jeem" style="opacity:0.75;fill:white;">
  <path id="arab-keheh-jeem" d="m 18.125,5.84375 c -1.695218,0.555157 -3.2974,1.1620619 -4.59375,1.9375 -0.490196,0.2989015 -0.773582,0.7118649 -0.875,1.125 -0.06446,0.2625913 -0.03549,0.5716161 0.0625,0.78125 0.189099,0.404564 0.539223,0.573818 0.84375,0.8125 0.02035,-0.04877 0.06549,-0.08732 0.09375,-0.125 L 14.1875,11 c 0.139731,0.164389 0.343437,0.513298 0.46875,0.9375 0.136699,0.462755 0.08006,0.724803 0,1.125 0,0 -2.291667,0 -3.4375,0 -0.337828,0 -0.592048,0.0074 -0.765625,-0.01953 -0.339449,-0.05265 -0.255884,-0.207677 -0.234375,-0.339844 0.332199,-0.127369 0.564348,-0.172843 0.9375,-0.140625 0.289963,-0.494105 0.593198,-0.884636 0.90625,-1.3125 -0.979573,0.03654 -1.878035,0.01539 -2.6875,-0.09375 C 9.0289195,11.109586 8.6772523,10.97071 8.28125,11 7.9240917,11.026417 7.5132179,11.239255 7.25,11.71875 7.0041176,12.166666 6.8160818,12.557731 6.59375,13 c 0.2529311,-0.153447 0.4977169,-0.313316 0.75,-0.46875 0.2299308,-0.141662 0.4841317,-0.226702 0.71875,-0.21875 0.1565009,0.0053 0.2745897,0.05354 0.40625,0.09375 -0.2306516,0.205128 -0.5086432,0.401916 -0.71875,0.5625 -0.3014592,0.260369 -0.7018291,0.688036 -0.90625,1 -0.402908,0.61487 -0.6938579,1.08411 -0.875,1.78125 -0.1789911,0.688863 0.00405,1.339182 0.46875,1.75 0.4258156,0.376439 0.8464652,0.519039 1.28125,0.5625 0.6496363,0.06494 1.2050665,0.09256 2,-0.1875 0.656794,-0.231393 1.020953,-0.553112 1.5,-0.96875 C 10.335277,17.016072 9.4014295,16.99521 8.6875,16.9375 7.8166378,16.867105 7.4196444,16.553505 7.21875,16.34375 6.947784,16.060832 6.9121985,15.704241 7.0625,15.125 7.0989628,14.984477 7.1591991,14.801558 7.3125,14.59375 7.4805794,14.36591 7.6768201,14.15912 7.90625,13.9375 8.3573635,13.501743 8.9172522,13.200401 9.3671875,13 9.3226625,13.206025 9.2599514,13.442826 9.3125,13.6875 c 0.049279,0.229452 0.2480574,0.379481 0.4375,0.46875 0.259257,0.122165 0.505745,0.154839 0.6875,0.15625 1.420985,0.01103 2.862255,0 4.28125,0 0.24749,0 0.451987,-0.163471 0.59375,-0.375 0.139357,-0.207938 0.248642,-0.480831 0.34375,-0.84375 0.130805,-0.499134 0.09437,-1.062282 -0.09375,-1.625 -0.181528,-0.542995 -0.418144,-1.00905 -0.71875,-1.40625 -0.335212,-0.4429273 -0.673943,-0.8291552 -1,-1.21875 1.256543,-0.8151572 2.716327,-1.2386794 3.96875,-1.6875 0.12094,-0.4516358 0.224358,-0.9258103 0.3125,-1.3125 z m -9.46875,8.4375 c -0.2620758,0.393832 -0.5837699,0.690915 -0.875,1 0.3752545,0.286034 0.747606,0.556055 1.09375,0.8125 C 9.2097048,15.790963 9.5006353,15.419721 9.75,15.125 9.3601724,14.857016 8.9785289,14.537408 8.65625,14.28125 z"/>
</g>
</svg>
