<?xml version="1.0" encoding="iso-8859-1"?>
<!DOCTYPE svg PUBLIC "-//W3C//DTD SVG 1.1//EN" "http://www.w3.org/Graphics/SVG/1.1/DTD/svg11.dtd">
<svg version="1.1" id="Layer_1" xmlns="http://www.w3.org/2000/svg" xmlns:xlink="http://www.w3.org/1999/xlink" x="0px" y="0px"
	 width="24px" height="24px" viewBox="0 0 24 24" xml:space="preserve">
<g id="strikethrough-s" style="opacity:0.75;">
	<path id="strikethrough" d="m 6,12 h 12 v 1 H 6 v -1 z"/>
	<path id="s" d="m 12.094,6 c -1.133,0 -2.076,0.287 -2.75,0.9 -0.67,0.613 -1,1.49 -1,2.52 0,0.889 0.221,1.602 0.719,2.13 0.498,0.528 1.279,0.91 2.312,1.14 l 0.812,0.182 v -0.03 c 0.656,0.147 1.128,0.375 1.375,0.63 0.252,0.256 0.375,0.607 0.375,1.11 0,0.573 -0.172,0.97 -0.531,1.26 -0.358,0.291 -0.894,0.45 -1.625,0.45 -0.477,0 -0.969,-0.074 -1.469,-0.24 C 9.81,15.886 9.281,15.635 8.75,15.302 L 8.375,15.064 v 0.448 1.53 0.18 l 0.156,0.062 c 0.58,0.237 1.143,0.417 1.688,0.54 0.549,0.121 1.07,0.18 1.562,0.18 1.286,0 2.297,-0.293 3,-0.9 0.709,-0.605 1.062,-1.486 1.062,-2.608 0,-0.943 -0.256,-1.726 -0.781,-2.312 -0.521,-0.592 -1.305,-1 -2.344,-1.229 L 11.906,10.774 C 11.19,10.626 10.702,10.422 10.5,10.235 10.295,10.032 10.188,9.75 10.188,9.3 c 0,-0.533 0.162,-0.899 0.5,-1.17 0.342,-0.271 0.836,-0.42 1.531,-0.42 0.395,0 0.818,0.052 1.25,0.181 0.433,0.127 0.908,0.333 1.406,0.6 l 0.375,0.18 V 6.63 c 0,0 -1.188,-0.383 -1.688,-0.479 C 13.063,6.053 12.578,6 12.094,6 z"/>
</g>
</svg>
