<?xml version="1.0" encoding="utf-8"?>
<!-- Generator: Adobe Illustrator 16.0.0, SVG Export Plug-In . SVG Version: 6.00 Build 0)  -->
<!DOCTYPE svg PUBLIC "-//W3C//DTD SVG 1.1//EN" "http://www.w3.org/Graphics/SVG/1.1/DTD/svg11.dtd">
<svg version="1.1" id="Layer_1" xmlns="http://www.w3.org/2000/svg" xmlns:xlink="http://www.w3.org/1999/xlink" x="0px" y="0px"
	 width="401.638px" height="100.087px" viewBox="0 0 401.638 100.087" enable-background="new 0 0 401.638 100.087"
	 xml:space="preserve">
<g>
	<g>
		<path fill="#FFFFFF" d="M127.209,60.942c3.679,0,5.438-1.2,5.519-4.759l7.519,0.919c-0.08,6.52-4.479,10.438-13.037,10.438
			c-10.279,0-14.118-6.519-14.118-16.237c0-9.718,3.839-16.237,14.118-16.237c8.559,0,12.957,3.92,13.037,10.438l-7.519,0.92
			c-0.08-3.56-1.84-4.759-5.519-4.759c-5.76,0-6.639,4.599-6.639,9.638S121.45,60.942,127.209,60.942z"/>
		<path fill="#FFFFFF" d="M158.289,64.622c-1.44,1.64-3.56,2.919-6.719,2.919c-5.599,0-8.719-2.52-8.719-8.838V45.705h7.198v12.078
			c0,2.439,1.2,3.279,3.12,3.239c2.319-0.04,3.919-1.16,4.599-2V45.705h7.199v15.037l0.4,6.159h-6.6L158.289,64.622z"/>
		<path fill="#FFFFFF" d="M184.008,45.585l-0.52,6.719c-0.561-0.16-1.24-0.32-2-0.32c-1.68,0-4.119,0.48-5.319,2v12.918h-7.198
			V51.864l-0.4-6.159h6.6l0.479,2.279c1.159-1.8,3.279-2.919,5.399-2.919C182.369,45.065,183.208,45.225,184.008,45.585z"/>
		<path fill="#FFFFFF" d="M192.049,54.384l6.999-1v-0.6c0-0.92-0.479-1.92-3.04-1.92c-2.52,0-3.238,0.76-3.318,1.999l-7.279-0.88
			c0-4.039,1.959-6.918,10.598-6.918c7.199,0,10.238,2.6,10.238,8.398v7.278l0.4,6.159h-6.6l-0.479-2.279
			c-1.521,1.6-4.4,2.919-8.159,2.919c-4.399,0-6.999-2.919-6.999-6.438C184.411,56.224,187.571,55.023,192.049,54.384z
			 M194.209,61.742c1.84,0,3.879-1,4.839-1.96v-2.199l-4.359,0.64c-1.52,0.28-2.28,0.76-2.28,1.88
			C192.409,61.063,193.089,61.742,194.209,61.742z"/>
		<path fill="#FFFFFF" d="M208.691,45.705h3.88v-6.399h7.198v6.399h6.399v5.999h-6.399v7.118c0,1.681,0.84,2.24,2.2,2.4
			c1.439,0.159,3.079-0.521,3.759-0.96l0.521,6.479c-0.84,0.36-2.36,0.8-4.52,0.8c-7.159,0-9.158-4.039-9.158-7.719v-8.118h-3.88
			V45.705z"/>
		<path fill="#FFFFFF" d="M250.847,56.303v2.04H235.81c0,2.12,1.479,3.319,4.119,3.319c2.479,0,3.279-0.56,3.359-1.359l7.279,0.88
			c-0.08,3.479-2.92,6.358-10.358,6.358c-7.479,0-11.798-3.919-11.798-11.238c0-7.318,4.319-11.237,11.357-11.237
			C246.848,45.065,250.847,48.944,250.847,56.303z M235.93,54.104h7.238c0.12-2.12-1.319-3.159-3.359-3.159
			C237.53,50.944,236.01,52.224,235.93,54.104z"/>
		<path fill="#FFFFFF" d="M268.489,34.907h7.198v25.835l0.4,6.159h-6.6l-0.479-2.279c-1.52,1.6-3.399,2.919-6.719,2.919
			c-5.999,0-9.278-3.879-9.278-11.238c0-7.358,3.279-11.237,9.278-11.237c2.919,0,4.759,0.999,6.199,2.479V34.907z M264.25,61.022
			c1.879,0,3.319-0.8,4.239-2v-5.438c-0.92-1.2-2.36-2-4.239-2c-2.16,0-3.88,1.399-3.88,4.719
			C260.37,59.623,262.089,61.022,264.25,61.022z"/>
		<path fill="#FFFFFF" d="M302.008,66.901h-7.398V42.306h-8.559v-6.599h24.516v6.599h-8.559V66.901z"/>
		<path fill="#FFFFFF" d="M306.771,56.303c0-7.479,4.319-11.237,11.277-11.237c6.959,0,11.278,3.759,11.278,11.237
			c0,7.479-4.319,11.238-11.278,11.238C311.09,67.541,306.771,63.782,306.771,56.303z M314.049,56.303c0,3.76,1.6,4.76,3.999,4.76
			c2.4,0,4-1,4-4.76c0-3.759-1.6-4.759-4-4.759C315.649,51.544,314.049,52.544,314.049,56.303z"/>
		<path fill="#FFFFFF" d="M347.568,64.622c-1.439,1.64-3.56,2.919-6.719,2.919c-5.6,0-8.719-2.52-8.719-8.838V45.705h7.199v12.078
			c0,2.439,1.199,3.279,3.119,3.239c2.319-0.04,3.919-1.16,4.6-2V45.705h7.198v15.037l0.4,6.159h-6.6L347.568,64.622z"/>
		<path fill="#FFFFFF" d="M373.288,45.585l-0.52,6.719c-0.561-0.16-1.24-0.32-2-0.32c-1.68,0-4.119,0.48-5.319,2v12.918h-7.198
			V51.864l-0.4-6.159h6.599l0.48,2.279c1.159-1.8,3.279-2.919,5.399-2.919C371.648,45.065,372.488,45.225,373.288,45.585z"/>
	</g>
	<path fill="#FFFFFF" d="M81.75,37.622c-2.067-3.749-6.242-6.785-9.928-7.218c-3.08-0.363-5.406,1.124-6.986,2.967
		c-0.965-0.579-2.044-1.072-3.247-1.457c-0.202-1.513-0.715-3.444-1.993-4.798c-1.021-1.08-2.396-1.651-3.979-1.651
		c-1.599,0-2.948,0.551-4.01,1.637c-1.317,1.347-1.895,3.272-2.147,4.78c-1.324,0.396-2.497,0.912-3.525,1.52
		c-1.58-1.856-3.914-3.36-7.012-2.998c-3.686,0.434-7.861,3.469-9.928,7.218c-1.689,3.066-1.854,6.358-0.462,9.269
		c1.229,2.568,3.328,5.962,5.358,9.244c1.398,2.26,3.245,5.246,4.465,7.523c-0.006,3.278-0.012,5.92-0.013,6.678
		c-0.005,2.477,2.936,5.242,5.021,5.309l24.244-0.029c3.389,0,4.953-2.998,5.214-5.475c0.095-0.906,0.148-3.971,0.174-7.582
		c1.174-2.084,2.675-4.512,3.858-6.424c2.03-3.281,4.13-6.675,5.358-9.244C83.603,43.98,83.439,40.688,81.75,37.622z M38.345,46.027
		c0.02-0.287,0.024,3.096,0.021,7.433c-0.014-0.023-0.027-0.045-0.043-0.068c-1.957-3.165-3.981-6.437-5.088-8.75
		c-0.665-1.391-0.557-2.905,0.324-4.502c1.358-2.466,4.185-4.347,5.971-4.557c1.023-0.124,1.852,0.503,2.459,1.239
		C38.46,41.219,38.316,46.451,38.345,46.027z M53.473,28.92c0.561-0.571,1.262-0.849,2.143-0.849c0.87,0,1.551,0.271,2.081,0.83
		c0.574,0.606,0.925,1.492,1.134,2.377c-1.003-0.151-2.067-0.242-3.215-0.242c-1.205,0-2.317,0.088-3.36,0.237
		C52.499,30.396,52.881,29.523,53.473,28.92z M61.976,59.71l-0.918,1.775l-5.344-2.762l-5.344,2.762l-0.918-1.775l4.085-2.112
		l-4.085-2.112l0.918-1.775l5.344,2.762l5.344-2.762l0.918,1.775l-4.085,2.112L61.976,59.71z M61.976,48.709l-0.918,1.776
		l-5.344-2.763l-5.344,2.763l-0.918-1.776l4.085-2.112l-4.085-2.112l0.918-1.776l5.344,2.763l5.344-2.763l0.918,1.776l-4.085,2.112
		L61.976,48.709z M77.507,44.641c-0.996,2.083-2.736,4.942-4.501,7.799c-0.012-2.646-0.032-4.685-0.056-5.246
		c-0.044-1.08-0.746-6.209-4.178-10.404c0.604-0.723,1.425-1.331,2.439-1.209c1.786,0.21,4.611,2.091,5.971,4.557
		C78.064,41.736,78.172,43.25,77.507,44.641z"/>
</g>
</svg>
