<?xml version="1.0" encoding="UTF-8" standalone="no"?>
<!-- Created with Inkscape (http://www.inkscape.org/) -->

<svg
   xmlns:dc="http://purl.org/dc/elements/1.1/"
   xmlns:cc="http://creativecommons.org/ns#"
   xmlns:rdf="http://www.w3.org/1999/02/22-rdf-syntax-ns#"
   xmlns:svg="http://www.w3.org/2000/svg"
   xmlns="http://www.w3.org/2000/svg"
   xmlns:sodipodi="http://sodipodi.sourceforge.net/DTD/sodipodi-0.dtd"
   xmlns:inkscape="http://www.inkscape.org/namespaces/inkscape"
   width="345.69135"
   height="50.18"
   id="svg2"
   version="1.1"
   inkscape:version="0.48.3.1 r9886"
   sodipodi:docname="drawing.svg">
  <defs
     id="defs4" />
  <sodipodi:namedview
     id="base"
     pagecolor="#ffffff"
     bordercolor="#666666"
     borderopacity="1.0"
     inkscape:pageopacity="0.0"
     inkscape:pageshadow="2"
     inkscape:zoom="0.98994949"
     inkscape:cx="153.12538"
     inkscape:cy="80.405769"
     inkscape:document-units="px"
     inkscape:current-layer="g2986"
     showgrid="false"
     inkscape:window-width="475"
     inkscape:window-height="383"
     inkscape:window-x="889"
     inkscape:window-y="24"
     inkscape:window-maximized="0"
     fit-margin-top="0"
     fit-margin-left="0"
     fit-margin-right="0"
     fit-margin-bottom="0" />
  <metadata
     id="metadata7">
    <rdf:RDF>
      <cc:Work
         rdf:about="">
        <dc:format>image/svg+xml</dc:format>
        <dc:type
           rdf:resource="http://purl.org/dc/dcmitype/StillImage" />
        <dc:title></dc:title>
      </cc:Work>
    </rdf:RDF>
  </metadata>
  <g
     inkscape:label="Layer 1"
     inkscape:groupmode="layer"
     id="layer1"
     transform="translate(-119.91931,-377.55653)">
    <g
       id="g2986"
       transform="translate(95.462684,288.61573)">
	
	
<g
   id="g3054"
   transform="translate(-3.1400403,63.475797)">
	<g
   id="g3056">
		<path
   id="path3058"
   d="m 127.209,60.942 c 3.679,0 5.438,-1.2 5.519,-4.759 l 7.519,0.919 c -0.08,6.52 -4.479,10.438 -13.037,10.438 -10.279,0 -14.118,-6.519 -14.118,-16.237 0,-9.718 3.839,-16.237 14.118,-16.237 8.559,0 12.957,3.92 13.037,10.438 l -7.519,0.92 c -0.08,-3.56 -1.84,-4.759 -5.519,-4.759 -5.76,0 -6.639,4.599 -6.639,9.638 0,5.039 0.88,9.639 6.639,9.639 z"
   inkscape:connector-curvature="0"
   style="fill:#3a3a3a" />

		<path
   id="path3060"
   d="m 158.289,64.622 c -1.44,1.64 -3.56,2.919 -6.719,2.919 -5.599,0 -8.719,-2.52 -8.719,-8.838 V 45.705 h 7.198 v 12.078 c 0,2.439 1.2,3.279 3.12,3.239 2.319,-0.04 3.919,-1.16 4.599,-2 V 45.705 h 7.199 v 15.037 l 0.4,6.159 h -6.6 l -0.478,-2.279 z"
   inkscape:connector-curvature="0"
   style="fill:#3a3a3a" />

		<path
   id="path3062"
   d="m 184.008,45.585 -0.52,6.719 c -0.561,-0.16 -1.24,-0.32 -2,-0.32 -1.68,0 -4.119,0.48 -5.319,2 v 12.918 h -7.198 V 51.864 l -0.4,-6.159 h 6.6 l 0.479,2.279 c 1.159,-1.8 3.279,-2.919 5.399,-2.919 1.32,0 2.159,0.16 2.959,0.52 z"
   inkscape:connector-curvature="0"
   style="fill:#3a3a3a" />

		<path
   id="path3064"
   d="m 192.049,54.384 6.999,-1 v -0.6 c 0,-0.92 -0.479,-1.92 -3.04,-1.92 -2.52,0 -3.238,0.76 -3.318,1.999 l -7.279,-0.88 c 0,-4.039 1.959,-6.918 10.598,-6.918 7.199,0 10.238,2.6 10.238,8.398 v 7.278 l 0.4,6.159 h -6.6 l -0.479,-2.279 c -1.521,1.6 -4.4,2.919 -8.159,2.919 -4.399,0 -6.999,-2.919 -6.999,-6.438 0.001,-4.878 3.161,-6.079 7.639,-6.718 z m 2.16,7.358 c 1.84,0 3.879,-1 4.839,-1.96 v -2.199 l -4.359,0.64 c -1.52,0.28 -2.28,0.76 -2.28,1.88 0,0.96 0.68,1.639 1.8,1.639 z"
   inkscape:connector-curvature="0"
   style="fill:#3a3a3a" />

		<path
   id="path3066"
   d="m 208.691,45.705 h 3.88 v -6.399 h 7.198 v 6.399 h 6.399 v 5.999 h -6.399 v 7.118 c 0,1.681 0.84,2.24 2.2,2.4 1.439,0.159 3.079,-0.521 3.759,-0.96 l 0.521,6.479 c -0.84,0.36 -2.36,0.8 -4.52,0.8 -7.159,0 -9.158,-4.039 -9.158,-7.719 v -8.118 h -3.88 v -5.999 z"
   inkscape:connector-curvature="0"
   style="fill:#3a3a3a" />

		<path
   id="path3068"
   d="m 250.847,56.303 v 2.04 H 235.81 c 0,2.12 1.479,3.319 4.119,3.319 2.479,0 3.279,-0.56 3.359,-1.359 l 7.279,0.88 c -0.08,3.479 -2.92,6.358 -10.358,6.358 -7.479,0 -11.798,-3.919 -11.798,-11.238 0,-7.318 4.319,-11.237 11.357,-11.237 7.08,-0.001 11.079,3.878 11.079,11.237 z M 235.93,54.104 h 7.238 c 0.12,-2.12 -1.319,-3.159 -3.359,-3.159 -2.279,-10e-4 -3.799,1.279 -3.879,3.159 z"
   inkscape:connector-curvature="0"
   style="fill:#3a3a3a" />

		<path
   id="path3070"
   d="m 268.489,34.907 h 7.198 v 25.835 l 0.4,6.159 h -6.6 l -0.479,-2.279 c -1.52,1.6 -3.399,2.919 -6.719,2.919 -5.999,0 -9.278,-3.879 -9.278,-11.238 0,-7.358 3.279,-11.237 9.278,-11.237 2.919,0 4.759,0.999 6.199,2.479 V 34.907 z m -4.239,26.115 c 1.879,0 3.319,-0.8 4.239,-2 v -5.438 c -0.92,-1.2 -2.36,-2 -4.239,-2 -2.16,0 -3.88,1.399 -3.88,4.719 0,3.32 1.719,4.719 3.88,4.719 z"
   inkscape:connector-curvature="0"
   style="fill:#3a3a3a" />

		<path
   id="path3072"
   d="M 302.008,66.901 H 294.61 V 42.306 h -8.559 v -6.599 h 24.516 v 6.599 h -8.559 v 24.595 z"
   inkscape:connector-curvature="0"
   style="fill:#3a3a3a" />

		<path
   id="path3074"
   d="m 306.771,56.303 c 0,-7.479 4.319,-11.237 11.277,-11.237 6.959,0 11.278,3.759 11.278,11.237 0,7.479 -4.319,11.238 -11.278,11.238 -6.958,0 -11.277,-3.759 -11.277,-11.238 z m 7.278,0 c 0,3.76 1.6,4.76 3.999,4.76 2.4,0 4,-1 4,-4.76 0,-3.759 -1.6,-4.759 -4,-4.759 -2.399,0 -3.999,1 -3.999,4.759 z"
   inkscape:connector-curvature="0"
   style="fill:#3a3a3a" />

		<path
   id="path3076"
   d="m 347.568,64.622 c -1.439,1.64 -3.56,2.919 -6.719,2.919 -5.6,0 -8.719,-2.52 -8.719,-8.838 V 45.705 h 7.199 v 12.078 c 0,2.439 1.199,3.279 3.119,3.239 2.319,-0.04 3.919,-1.16 4.6,-2 V 45.705 h 7.198 v 15.037 l 0.4,6.159 h -6.6 l -0.478,-2.279 z"
   inkscape:connector-curvature="0"
   style="fill:#3a3a3a" />

		<path
   id="path3078"
   d="m 373.288,45.585 -0.52,6.719 c -0.561,-0.16 -1.24,-0.32 -2,-0.32 -1.68,0 -4.119,0.48 -5.319,2 v 12.918 h -7.198 V 51.864 l -0.4,-6.159 h 6.599 l 0.48,2.279 c 1.159,-1.8 3.279,-2.919 5.399,-2.919 1.319,0 2.159,0.16 2.959,0.52 z"
   inkscape:connector-curvature="0"
   style="fill:#3a3a3a" />

	</g>

	<path
   id="path3080"
   d="m 81.75,37.622 c -2.067,-3.749 -6.242,-6.785 -9.928,-7.218 -3.08,-0.363 -5.406,1.124 -6.986,2.967 -0.965,-0.579 -2.044,-1.072 -3.247,-1.457 -0.202,-1.513 -0.715,-3.444 -1.993,-4.798 -1.021,-1.08 -2.396,-1.651 -3.979,-1.651 -1.599,0 -2.948,0.551 -4.01,1.637 -1.317,1.347 -1.895,3.272 -2.147,4.78 -1.324,0.396 -2.497,0.912 -3.525,1.52 -1.58,-1.856 -3.914,-3.36 -7.012,-2.998 -3.686,0.434 -7.861,3.469 -9.928,7.218 -1.689,3.066 -1.854,6.358 -0.462,9.269 1.229,2.568 3.328,5.962 5.358,9.244 1.398,2.26 3.245,5.246 4.465,7.523 -0.006,3.278 -0.012,5.92 -0.013,6.678 -0.005,2.477 2.936,5.242 5.021,5.309 l 24.244,-0.029 c 3.389,0 4.953,-2.998 5.214,-5.475 0.095,-0.906 0.148,-3.971 0.174,-7.582 1.174,-2.084 2.675,-4.512 3.858,-6.424 2.03,-3.281 4.13,-6.675 5.358,-9.244 1.391,-2.911 1.227,-6.203 -0.462,-9.269 z m -43.405,8.405 c 0.02,-0.287 0.024,3.096 0.021,7.433 -0.014,-0.023 -0.027,-0.045 -0.043,-0.068 -1.957,-3.165 -3.981,-6.437 -5.088,-8.75 -0.665,-1.391 -0.557,-2.905 0.324,-4.502 1.358,-2.466 4.185,-4.347 5.971,-4.557 1.023,-0.124 1.852,0.503 2.459,1.239 -3.529,4.397 -3.673,9.629 -3.644,9.205 z M 53.473,28.92 c 0.561,-0.571 1.262,-0.849 2.143,-0.849 0.87,0 1.551,0.271 2.081,0.83 0.574,0.606 0.925,1.492 1.134,2.377 -1.003,-0.151 -2.067,-0.242 -3.215,-0.242 -1.205,0 -2.317,0.088 -3.36,0.237 0.243,-0.877 0.625,-1.75 1.217,-2.353 z m 8.503,30.79 -0.918,1.775 -5.344,-2.762 -5.344,2.762 -0.918,-1.775 4.085,-2.112 -4.085,-2.112 0.918,-1.775 5.344,2.762 5.344,-2.762 0.918,1.775 -4.085,2.112 4.085,2.112 z m 0,-11.001 -0.918,1.776 -5.344,-2.763 -5.344,2.763 -0.918,-1.776 4.085,-2.112 -4.085,-2.112 0.918,-1.776 5.344,2.763 5.344,-2.763 0.918,1.776 -4.085,2.112 4.085,2.112 z m 15.531,-4.068 c -0.996,2.083 -2.736,4.942 -4.501,7.799 -0.012,-2.646 -0.032,-4.685 -0.056,-5.246 -0.044,-1.08 -0.746,-6.209 -4.178,-10.404 0.604,-0.723 1.425,-1.331 2.439,-1.209 1.786,0.21 4.611,2.091 5.971,4.557 0.882,1.598 0.99,3.112 0.325,4.503 z"
   inkscape:connector-curvature="0"
   style="fill:#3a3a3a" />

</g>
</g>
  </g>
</svg>
