<?xml version="1.0" standalone="no"?>
<!DOCTYPE svg PUBLIC "-//W3C//DTD SVG 1.1//EN" "http://www.w3.org/Graphics/SVG/1.1/DTD/svg11.dtd" >
<svg>
<metadata>
Created by FontForge 20100429 at Sat Apr 30 10:39:01 2011
 By Santhosh Thottingal,,,
KhmerOS - font for the Khmer language of Cambodia
Copyright 2007 Danh Hong
 
This font is free software; you can redistribute it and/or modify it under the terms of the GNU Lesser General Public License as published by the Free Software Foundation; either version 2.1 of the License, or (at your option) any later version.

This library is distributed in the hope that it will be useful, but WITHOUT ANY WARRANTY; without even the implied warranty of MERCHANTABILITY or FITNESS FOR A PARTICULAR PURPOSE.? See the GNU Lesser General Public License for more details.

You should have received a copy of the GNU Lesser General Public License along with this font; if not, write to the Free Software Foundation, Inc., 51 Franklin Street, Fifth Floor, Boston, MA 02110-1301  USA or visit http://www.gnu.org/licenses/lgpl.html
</metadata>
<defs>
<font id="KhmerOSfasthand" horiz-adv-x="0" >
  <font-face 
    font-family="Khmer OS Fasthand"
    font-weight="400"
    font-stretch="normal"
    units-per-em="2048"
    panose-1="2 0 5 0 0 0 0 2 0 4"
    ascent="1638"
    descent="-410"
    x-height="1073"
    cap-height="1493"
    bbox="-3082 -1651 5163 3004"
    underline-thickness="48"
    underline-position="-140"
    unicode-range="U+0020-FB02"
  />
<missing-glyph 
 />
    <glyph glyph-name=".notdef" 
 />
    <glyph glyph-name="space" unicode=" " horiz-adv-x="600" 
 />
    <glyph glyph-name="space" unicode="&#xa0;" horiz-adv-x="600" 
 />
    <glyph glyph-name="exclam" unicode="!" horiz-adv-x="569" 
d="M425 1493v-692l-45 -457h-80l-45 457v692h170zM425 213v-213h-172v213h172z" />
    <glyph glyph-name="quotedbl" unicode="&#x22;" horiz-adv-x="727" 
d="M106 1452h190v-227l-55 -275h-80l-55 275v227zM434 1452h190v-227l-55 -275h-80l-55 275v227z" />
    <glyph glyph-name="numbersign" unicode="#" horiz-adv-x="1138" 
d="M993 1427l-74 -401h190v-139h-217l-63 -357h215v-139h-240l-80 -431h-155l77 431h-253l-80 -431h-156l78 431h-207v139h233l64 357h-221v139h248l73 401h156l-74 -401h256l72 401h158zM737 887h-254l-66 -357h256z" />
    <glyph glyph-name="dollar" unicode="$" horiz-adv-x="1138" 
d="M501 1577h121v-111q258 -18 354 -209q39 -77 43 -174v-20h-161q-2 158 -119 227q-41 23 -90 31q-13 2 -27 2v-510q205 -63 268 -98q174 -99 174 -316q0 -213 -139 -338q-22 -20 -49 -36q-100 -59 -254 -72v-211h-121v211q-315 21 -403 260q-33 94 -27 213h162
q14 -152 43 -201q4 -6 8 -14q72 -98 217 -117v557q-190 58 -258 107q-145 104 -145 299q0 299 286 385q54 16 117 24v111zM501 829v492q-196 -27 -231 -182q-6 -29 -6 -62q0 -184 237 -248zM622 633v-539q125 15 188 76q86 82 86 205q0 125 -96 186q-59 37 -178 72z" />
    <glyph glyph-name="percent" unicode="%" horiz-adv-x="1820" 
d="M407 1403q172 0 277 -135l37 -58q36 -75 36 -161q0 -162 -129 -267q-96 -80 -219 -80q-166 0 -272 129q-78 99 -78 222q0 166 129 272q96 78 219 78zM407 1260q-110 0 -172 -95l-24 -47q-11 -33 -11 -65q0 -109 92 -172q54 -35 117 -35q111 0 172 92q35 51 35 113
q0 116 -98 178q-49 31 -111 31zM1247 1452h135l-809 -1492h-135zM1409 659q174 0 278 -135q72 -94 72 -217q0 -162 -129 -266q-96 -79 -219 -79q-166 0 -273 128q-78 98 -78 221q0 166 132 271q96 77 217 77zM1409 516q-111 0 -172 -92q-35 -51 -35 -113q0 -112 96 -174
q51 -33 113 -33q110 0 172 93q35 51 35 110q0 117 -99 178l-47 21q-31 10 -63 10z" />
    <glyph glyph-name="ampersand" unicode="&#x26;" horiz-adv-x="1366" 
d="M1009 684h164q0 -192 -119 -375l250 -309h-223l-127 160q-100 -99 -158 -133q-115 -74 -270 -74q-238 0 -352 168q-68 100 -68 239q0 166 106 275q74 74 226 162q-144 180 -162 278q-4 27 -4 55q0 158 133 254q94 68 217 68q184 0 279 -135l30 -57q19 -43 23 -93
q2 -18 2 -37q0 -141 -113 -241q-59 -53 -170 -115l273 -334q65 115 63 244zM583 883q166 104 197 180q14 31 14 72q0 106 -92 153q-39 21 -86 21q-123 0 -164 -103q-12 -32 -12 -73q0 -68 51 -140zM856 281l-328 409q-193 -123 -234 -225q-16 -41 -16 -90q0 -133 111 -211
q71 -51 157 -51q138 0 277 133q16 16 33 35z" />
    <glyph glyph-name="quotesingle" unicode="'" horiz-adv-x="391" 
d="M98 1452h193v-227l-56 -275h-82l-55 275v227z" />
    <glyph glyph-name="parenleft" unicode="(" horiz-adv-x="681" 
d="M483 1493h112q-253 -410 -278 -879q-2 -43 -2 -84q0 -477 250 -912q14 -27 30 -52h-112q-232 303 -307 696q-27 139 -27 268q0 367 190 734q64 125 144 229z" />
    <glyph glyph-name="parenright" unicode=")" horiz-adv-x="681" 
d="M190 -434h-113q254 410 279 878q2 43 2 84q0 478 -250 914q-15 26 -31 51h113q231 -303 307 -696q26 -140 26 -269q0 -366 -190 -732q-63 -125 -143 -230z" />
    <glyph glyph-name="asterisk" unicode="*" horiz-adv-x="796" 
d="M327 1493h129l-10 -229l217 77l39 -120l-222 -62l144 -182l-105 -74l-127 191l-129 -191l-102 74l141 182l-221 62l39 120l217 -77z" />
    <glyph glyph-name="plus" unicode="+" horiz-adv-x="1196" 
d="M1093 547v-144h-424v-423h-143v423h-424v144h424v424h143v-424h424z" />
    <glyph glyph-name="comma" unicode="," horiz-adv-x="569" 
d="M178 213h215v-245q0 -269 -215 -269v78q88 4 109 68q14 39 14 119v36h-123v213z" />
    <glyph glyph-name="hyphen" unicode="-" horiz-adv-x="681" 
d="M581 639v-147h-487v147h487z" />
    <glyph glyph-name="period" unicode="." horiz-adv-x="569" 
d="M391 213v-213h-213v213h213z" />
    <glyph glyph-name="slash" unicode="/" horiz-adv-x="569" 
d="M469 1493h113l-485 -1533h-113z" />
    <glyph glyph-name="zero" unicode="0" horiz-adv-x="1138" 
d="M563 1452q224 0 342 -168q118 -169 131 -506q2 -43 2 -88q0 -277 -70 -451q-71 -174 -212 -245q-86 -41 -193 -41q-180 0 -292 111q-112 110 -156 331q-27 135 -27 307q0 400 141 590q111 146 305 160h29zM563 1292q-145 0 -218 -148t-73 -444q0 -299 72 -448
q72 -150 215 -150q121 0 192 99q72 98 93 295q10 94 10 211q0 293 -73 439q-72 146 -218 146z" />
    <glyph glyph-name="one" unicode="1" horiz-adv-x="1138" 
d="M530 1034h-322v129q209 27 270 74q62 45 105 190l8 25h119v-1452h-180v1034z" />
    <glyph glyph-name="two" unicode="2" horiz-adv-x="1138" 
d="M581 1452q248 0 379 -164l39 -61q47 -90 47 -201q0 -270 -307 -438l-205 -111q-186 -108 -236 -209q-18 -41 -26 -90h764v-178h-967q14 262 117 399q86 113 291 230l188 106q197 113 197 287q0 147 -123 227q-72 45 -164 45q-154 0 -236 -116l-14 -25q-35 -66 -43 -205
h-180q6 205 78 316q122 188 401 188z" />
    <glyph glyph-name="three" unicode="3" horiz-adv-x="1138" 
d="M544 -47q-201 0 -319 94q-117 95 -150 283q-6 43 -10 92h180q9 -135 67 -211q58 -75 165 -92q34 -6 73 -6q107 0 176 40q70 41 103 121q22 58 22 129q0 133 -75 199t-226 66l-75 -2h-23v153q231 4 301 68q55 51 55 160q0 174 -143 229q-49 18 -113 18q-159 0 -231 -108
l-12 -21q-31 -59 -33 -182h-180q4 215 101 332q98 117 288 135q31 2 65 2q144 0 242 -48q99 -48 152 -144q49 -89 49 -207q0 -222 -203 -301q190 -66 231 -222q15 -53 15 -124q0 -252 -193 -375q-123 -78 -299 -78z" />
    <glyph glyph-name="four" unicode="4" horiz-adv-x="1138" 
d="M669 348h-612v191l659 913h134v-942h215v-162h-215v-348h-181v348zM669 510v635l-454 -635h454z" />
    <glyph glyph-name="five" unicode="5" horiz-adv-x="1138" 
d="M974 1452v-178h-604l-57 -406q120 88 268 88q246 0 377 -178q92 -125 92 -305q0 -264 -178 -412q-131 -108 -320 -108q-229 0 -362 137q-17 19 -31 37q-55 68 -88 229h180q32 -121 106 -182q75 -61 191 -61q207 0 285 166q33 73 33 170q0 223 -156 309q-70 39 -162 39
q-131 0 -223 -88q-21 -21 -43 -47h-166l109 790h749z" />
    <glyph glyph-name="six" unicode="6" horiz-adv-x="1138" 
d="M575 -47q-243 0 -365 177q-122 178 -122 532q0 378 131 583q115 172 320 203q34 4 69 4q236 0 348 -190q47 -82 64 -189h-180q-37 180 -187 213q-26 6 -57 6q-113 0 -188 -74q-74 -73 -109 -221q-27 -110 -27 -256q119 162 334 162q227 0 354 -170q91 -121 91 -291
q0 -243 -168 -383q-127 -106 -308 -106zM584 743q-174 0 -256 -135q-45 -73 -45 -170q0 -176 124 -270q74 -55 170 -55q156 0 238 129q51 82 51 186q0 209 -145 285q-60 30 -137 30z" />
    <glyph glyph-name="seven" unicode="7" horiz-adv-x="1138" 
d="M1065 1452v-152q-207 -274 -344 -550q-137 -275 -205 -553q-25 -97 -41 -197h-193q103 446 293 797q113 207 303 477h-784v178h971z" />
    <glyph glyph-name="eight" unicode="8" horiz-adv-x="1138" 
d="M800 764q250 -119 250 -363q0 -229 -176 -354q-129 -94 -312 -94q-254 0 -391 168q-96 119 -96 282q0 242 248 361q-148 92 -180 190q-17 47 -17 111q0 203 166 311q113 76 270 76q238 0 359 -156q78 -98 78 -231q0 -139 -93 -223l-65 -54q-18 -12 -41 -24zM562 1292
q-163 0 -225 -118l-20 -54l-6 -57q0 -143 124 -201q56 -26 127 -26q164 0 226 116q26 49 26 109q0 153 -133 209q-51 22 -119 22zM562 684q-182 0 -262 -131q-41 -68 -41 -154q0 -168 135 -245q70 -41 164 -41q187 0 267 133q41 67 41 153q0 168 -138 246q-71 39 -166 39z
" />
    <glyph glyph-name="nine" unicode="9" horiz-adv-x="1138" 
d="M552 1452q244 0 367 -177q122 -177 123 -532q0 -378 -134 -583q-108 -166 -307 -200q-41 -7 -82 -7q-235 0 -348 190q-47 82 -63 189h180q19 -90 65 -143q47 -53 121 -70q27 -6 58 -6q114 0 188 74t109 221q26 110 26 256q-143 -158 -332 -162q-229 0 -356 170
q-90 121 -90 291q0 243 168 383q127 106 307 106zM550 1294q-156 0 -237 -131l-31 -61l-17 -72q-4 -26 -4 -53q0 -104 37 -176q36 -71 109 -109q59 -30 137 -30q170 0 254 133q47 73 47 172q0 178 -125 272q-76 55 -170 55z" />
    <glyph glyph-name="colon" unicode=":" horiz-adv-x="569" 
d="M438 213v-213h-213v213h213zM438 1073v-213h-213v213h213z" />
    <glyph glyph-name="semicolon" unicode=";" horiz-adv-x="569" 
d="M440 1073v-213h-213v213h213zM225 213h215v-245q0 -269 -215 -269v78q88 4 109 68q14 39 14 119v36h-123v213z" />
    <glyph glyph-name="less" unicode="&#x3c;" horiz-adv-x="1196" 
d="M92 406v141l1001 424v-162l-806 -330l806 -336v-161z" />
    <glyph glyph-name="equal" unicode="=" horiz-adv-x="1196" 
d="M1093 723v-143h-991v143h991zM1093 371v-144h-991v144h991z" />
    <glyph glyph-name="greater" unicode="&#x3e;" horiz-adv-x="1196" 
d="M1103 547v-141l-1001 -424v161l807 330l-807 336v162z" />
    <glyph glyph-name="question" unicode="?" horiz-adv-x="1138" 
d="M675 408h-184v112q0 103 57 178q35 45 107 113l49 43q151 135 153 270q0 144 -125 205l-63 21q-35 8 -74 8q-168 0 -229 -119q-35 -70 -35 -201h-174q0 216 92 335q93 119 277 140q39 5 80 5q258 0 372 -170l33 -62q31 -74 31 -162q0 -143 -105 -264q-39 -47 -100 -102
q-129 -119 -150 -174q-12 -31 -12 -80v-96zM675 213v-213h-184v213h184z" />
    <glyph glyph-name="at" unicode="@" horiz-adv-x="2078" 
d="M1361 1026h170l-184 -573q-25 -72 -25 -103q0 -55 60 -82q20 -8 43 -8q131 0 239 148q105 145 105 323q0 246 -199 428q-203 189 -491 201h-31q-301 0 -533 -209l-69 -70q-203 -231 -203 -522q0 -289 215 -487q221 -205 553 -205q162 0 395 66l58 -137q-230 -86 -463 -86
q-369 0 -637 219q-250 204 -289 505q-6 47 -6 94q0 316 195 582q57 80 129 143q221 201 530 252q76 13 152 13q340 0 591 -207q238 -193 275 -469q6 -43 6 -86q0 -248 -176 -457q-156 -182 -381 -182q-197 0 -225 157q-135 -147 -291 -147q-168 0 -264 141q-70 101 -70 234
q0 223 162 395q158 170 364 172q172 0 250 -178zM1054 938q-135 0 -237 -145q-93 -129 -93 -293q0 -138 97 -207q49 -35 106 -35q119 0 209 133q68 98 100 271q9 45 11 79q6 111 -84 168q-50 29 -109 29z" />
    <glyph glyph-name="A" unicode="A" horiz-adv-x="1366" 
d="M970 449h-576l-157 -449h-203l532 1493h246l525 -1493h-213zM917 608l-230 680l-245 -680h475z" />
    <glyph glyph-name="B" unicode="B" horiz-adv-x="1366" 
d="M161 0v1493h606q211 0 324 -104q119 -107 119 -275q0 -229 -207 -326q215 -83 258 -247q12 -41 14 -88v-27q0 -180 -115 -301q-116 -125 -325 -125h-674zM351 850h369q148 0 217 53q82 64 82 185q0 120 -82 184q-69 53 -217 53h-369v-475zM1085 424q0 178 -146 235
q-53 23 -123 23h-465v-514h465q133 0 199 72q70 73 70 184z" />
    <glyph glyph-name="C" unicode="C" horiz-adv-x="1478" 
d="M1355 1030h-194q-31 154 -109 225q-110 91 -295 95q-262 0 -387 -236q-82 -153 -82 -383q0 -348 195 -510q121 -100 291 -100q223 0 328 158q12 16 20 34q45 86 68 232h196q-67 -592 -614 -592q-289 0 -457 174q-217 223 -217 602q0 375 209 602q168 187 473 187
q487 0 575 -488z" />
    <glyph glyph-name="D" unicode="D" horiz-adv-x="1478" 
d="M182 0v1493h575q334 0 496 -270l45 -88q68 -166 68 -387q0 -429 -238 -623q-149 -125 -371 -125h-575zM372 168h353q356 0 432 371q18 92 18 206q0 504 -344 570q-51 10 -106 10h-353v-1157z" />
    <glyph glyph-name="E" unicode="E" horiz-adv-x="1366" 
d="M374 680v-512h881v-168h-1071v1493h1034v-168h-844v-477h814v-168h-814z" />
    <glyph glyph-name="F" unicode="F" horiz-adv-x="1251" 
d="M374 680v-680h-190v1493h1001v-168h-811v-477h713v-168h-713z" />
    <glyph glyph-name="G" unicode="G" horiz-adv-x="1593" 
d="M1452 788v-796h-121l-47 198q-213 -237 -510 -237q-313 0 -506 233q-178 213 -178 545q0 361 209 586q29 31 61 57q174 144 447 144q366 0 532 -242q68 -100 92 -236h-194q-43 201 -238 275q-86 35 -194 35q-271 0 -416 -213q-109 -160 -109 -396q0 -258 125 -430l33 -39
q148 -147 377 -151q233 0 369 164q100 123 100 295v41h-455v167h623z" />
    <glyph glyph-name="H" unicode="H" horiz-adv-x="1478" 
d="M1127 680h-765v-680h-193v1493h190v-645h768v645h191v-1493h-191v680z" />
    <glyph glyph-name="I" unicode="I" horiz-adv-x="569" 
d="M397 1493v-1493h-193v1493h193z" />
    <glyph glyph-name="J" unicode="J" horiz-adv-x="1024" 
d="M681 1493h191v-1120q0 -254 -185 -363q-100 -57 -237 -57q-254 0 -361 176q-55 94 -55 219v131h195v-96q0 -227 165 -264q27 -6 58 -6q119 0 182 92q47 69 47 237v1051z" />
    <glyph glyph-name="K" unicode="K" horiz-adv-x="1366" 
d="M351 522v-522h-190v1493h190v-756l744 756h246l-609 -608l615 -885h-225l-527 766z" />
    <glyph glyph-name="L" unicode="L" horiz-adv-x="1138" 
d="M353 1493v-1325h738v-168h-928v1493h190z" />
    <glyph glyph-name="M" unicode="M" horiz-adv-x="1705" 
d="M958 0h-201l-424 1251v-1251h-180v1493h264l443 -1300l434 1300h264v-1493h-180v1251z" />
    <glyph glyph-name="N" unicode="N" horiz-adv-x="1478" 
d="M1322 1493v-1493h-215l-772 1210v-1210h-180v1493h207l780 -1221v1221h180z" />
    <glyph glyph-name="O" unicode="O" horiz-adv-x="1593" 
d="M796 1518q356 0 555 -252l53 -78q115 -197 115 -465q0 -303 -168 -518q-41 -53 -90 -94q-187 -158 -463 -158q-342 0 -543 240q-178 213 -178 542q0 377 227 596q195 187 492 187zM796 1350q-266 0 -414 -209q-115 -164 -115 -406q0 -323 195 -493q137 -121 336 -121
q264 0 412 205q118 161 118 401q0 338 -200 508q-136 115 -332 115z" />
    <glyph glyph-name="P" unicode="P" horiz-adv-x="1366" 
d="M376 633v-633h-190v1493h616q330 0 426 -242q35 -84 35 -196q0 -199 -129 -316q-119 -106 -289 -106h-469zM376 801h398q209 0 270 151q21 49 21 111q0 184 -162 242l-70 16q-29 4 -59 4h-398v-524z" />
    <glyph glyph-name="Q" unicode="Q" horiz-adv-x="1593" 
d="M1500 -2l-96 -118l-215 177q-176 -104 -391 -104q-342 0 -543 240q-178 213 -178 542q0 377 227 596q197 187 494 187q340 0 541 -238q180 -213 180 -541q0 -352 -211 -583zM984 420l183 -150q161 183 161 467q0 322 -192 492q-139 121 -338 121q-268 0 -416 -209
q-115 -164 -115 -406q0 -325 195 -495q137 -119 334 -119q123 0 246 57l-152 127z" />
    <glyph glyph-name="R" unicode="R" horiz-adv-x="1478" 
d="M380 643v-643h-190v1493h688q348 0 432 -246q23 -67 23 -153q0 -201 -148 -306q-39 -26 -88 -51q127 -55 166 -137q35 -76 37 -252q4 -196 39 -252q18 -26 51 -49v-47h-231q-43 98 -43 244l2 133q0 223 -164 258q-37 8 -82 8h-492zM380 811h461q248 0 285 176q8 35 8 80
q0 135 -78 201q-65 57 -215 57h-461v-514z" />
    <glyph glyph-name="S" unicode="S" horiz-adv-x="1366" 
d="M1220 1055h-180q-2 227 -225 286q-66 17 -148 17q-213 0 -297 -127l-24 -49q-12 -35 -12 -76q0 -115 110 -172q51 -27 135 -49l375 -101q246 -67 303 -266q15 -51 15 -108q0 -172 -119 -301q-23 -23 -45 -41q-150 -115 -420 -115q-346 0 -502 213q-86 117 -88 309h180
q-2 -92 33 -162q18 -34 45 -67q104 -125 344 -125q182 0 275 63q90 64 104 178q2 15 2 29q0 156 -225 227l-49 15l-371 98q-293 76 -293 348q0 254 213 369q131 70 317 70q361 0 490 -228q57 -100 57 -235z" />
    <glyph glyph-name="T" unicode="T" horiz-adv-x="1251" 
d="M725 1325v-1325h-190v1325h-492v168h1171v-168h-489z" />
    <glyph glyph-name="U" unicode="U" horiz-adv-x="1478" 
d="M1130 1493h191v-1049q0 -266 -213 -399q-148 -92 -363 -92q-338 0 -487 207q-84 119 -84 284v1049h190v-1049q0 -239 226 -303q69 -20 155 -20q254 0 347 164q38 69 38 159v1049z" />
    <glyph glyph-name="V" unicode="V" horiz-adv-x="1366" 
d="M802 0h-204l-537 1493h205l438 -1264l414 1264h203z" />
    <glyph glyph-name="W" unicode="W" horiz-adv-x="1933" 
d="M1524 0h-209l-344 1227l-334 -1227h-209l-383 1493h213l281 -1212l331 1212h205l340 -1212l275 1212h213z" />
    <glyph glyph-name="X" unicode="X" horiz-adv-x="1366" 
d="M801 766l528 -766h-235l-408 623l-410 -623h-231l528 766l-495 727h231l383 -586l385 586h228z" />
    <glyph glyph-name="Y" unicode="Y" horiz-adv-x="1366" 
d="M792 586v-586h-191v586l-575 907h236l438 -727l426 727h227z" />
    <glyph glyph-name="Z" unicode="Z" horiz-adv-x="1251" 
d="M1190 1493v-172l-893 -1153h897v-168h-1137v168l897 1157h-840v168h1076z" />
    <glyph glyph-name="bracketleft" unicode="[" horiz-adv-x="569" 
d="M512 1493v-147h-211v-1632h211v-148h-381v1927h381z" />
    <glyph glyph-name="backslash" unicode="\" horiz-adv-x="569" 
d="M97 1493l485 -1533h-113l-485 1533h113z" />
    <glyph glyph-name="bracketright" unicode="]" horiz-adv-x="569" 
d="M47 -434v148h211v1632h-211v147h381v-1927h-381z" />
    <glyph glyph-name="asciicircum" unicode="^" horiz-adv-x="960" 
d="M403 1452h150l317 -778h-141l-250 614l-248 -614h-141z" />
    <glyph glyph-name="underscore" unicode="_" horiz-adv-x="1138" 
d="M1184 -258v-102h-1229v102h1229z" />
    <glyph glyph-name="glyph65" unicode="`" horiz-adv-x="681" 
d="M276 1516l197 -304h-123l-305 304h231z" />
    <glyph glyph-name="a" unicode="a" horiz-adv-x="1138" 
d="M1096 100v-128q-72 -19 -117 -19q-145 0 -172 129l-4 29q-178 -156 -365 -158q-225 0 -313 153q-39 72 -39 164q0 209 188 287q74 31 267 55q32 4 77 11q150 18 173 77q6 17 6 41v45q0 132 -166 156q-35 4 -74 4q-211 0 -246 -153q-4 -19 -6 -37h-172q6 147 74 223
q112 125 356 125q361 0 400 -238q4 -26 4 -55v-631q0 -84 92 -84q18 0 37 4zM797 338v192q-66 -30 -234 -53q-18 -2 -41 -6q-217 -31 -250 -141q-8 -25 -8 -56q0 -133 137 -163q33 -9 74 -9q148 0 254 97q66 59 68 139z" />
    <glyph glyph-name="b" unicode="b" horiz-adv-x="1138" 
d="M110 1493h170v-565q117 176 332 176q262 0 383 -221q76 -140 76 -342q0 -330 -187 -488q-117 -100 -280 -100q-220 0 -340 184v-137h-154v1493zM579 944q-170 0 -250 -172q-49 -102 -49 -244q0 -256 141 -362q68 -53 158 -53q172 0 258 161q55 105 55 248q0 260 -147 369
q-76 51 -166 53z" />
    <glyph glyph-name="c" unicode="c" horiz-adv-x="1024" 
d="M964 713h-172q-27 198 -199 229l-55 4q-192 0 -264 -205q-33 -94 -33 -223q0 -280 162 -373q59 -34 139 -34q219 0 262 258h172q-22 -281 -235 -375q-88 -41 -203 -41q-264 0 -391 215q-84 143 -84 350q0 328 188 486q121 100 289 100q217 0 336 -139l16 -21
q60 -88 72 -231z" />
    <glyph glyph-name="d" unicode="d" horiz-adv-x="1138" 
d="M1014 1493v-1493h-152v141q-119 -169 -295 -186q-22 -2 -47 -2q-266 0 -389 229q-78 146 -78 357q0 315 182 469q117 96 279 96q221 0 330 -166v555h170zM542 944q-174 0 -258 -168q-41 -78 -51 -182q-2 -33 -2 -66q0 -249 144 -360q73 -55 170 -55q170 0 249 168
q50 102 50 243q0 269 -148 373q-68 47 -154 47z" />
    <glyph glyph-name="e" unicode="e" horiz-adv-x="1138" 
d="M1050 479h-791q2 -147 58 -229q88 -139 258 -139q208 0 280 215h172q-45 -248 -258 -336q-90 -37 -201 -37q-278 0 -407 225q-80 139 -80 344q0 324 193 482q122 100 299 100q235 0 368 -168q41 -51 66 -115q43 -112 43 -342zM263 618h602q2 5 2 13q0 164 -120 256
q-78 59 -177 59q-174 0 -258 -153q-41 -74 -49 -175z" />
    <glyph glyph-name="f" unicode="f" horiz-adv-x="569" 
d="M528 1073v-139h-179v-934h-170v934h-143v139h143v182q0 181 152 230q45 14 100 14q47 0 97 -10v-141q-39 2 -60 2q-119 0 -119 -109v-168h179z" />
    <glyph glyph-name="g" unicode="g" horiz-adv-x="1138" 
d="M843 1073h158v-897q0 -315 -84 -446q-14 -20 -29 -39q-98 -123 -321 -135q-23 -2 -45 -2q-283 0 -385 180q-35 64 -43 144h174q12 -80 65 -123q74 -58 195 -58q166 0 238 101q61 84 61 292v55q-121 -167 -270 -188l-56 -4q-170 0 -295 131l-12 12q-135 158 -135 422
q0 313 174 475q117 111 283 111q200 0 327 -186v155zM534 946q-180 0 -256 -184q-41 -98 -41 -234q0 -284 160 -381q59 -36 139 -36q182 0 254 188q37 94 37 223q0 307 -168 396q-55 28 -125 28z" />
    <glyph glyph-name="h" unicode="h" horiz-adv-x="1138" 
d="M143 1493h170v-567q111 143 246 170q43 8 98 8q225 0 305 -152q33 -61 33 -141v-811h-170v743q0 113 -70 162q-65 49 -151 49q-172 0 -248 -157q-43 -86 -43 -205v-592h-170v1493z" />
    <glyph glyph-name="i" unicode="i" horiz-adv-x="426" 
d="M307 1073v-1073h-170v1073h170zM307 1493v-215h-172v215h172z" />
    <glyph glyph-name="j" unicode="j" horiz-adv-x="433" 
d="M144 1073h170v-1296q0 -211 -262 -223h-31q-26 0 -57 6v146q35 -2 41 -2q106 0 129 65q10 29 10 76v1228zM314 1493v-215h-170v215h170z" />
    <glyph glyph-name="k" unicode="k" horiz-adv-x="1024" 
d="M288 1493v-875l455 455h219l-373 -371l438 -702h-211l-362 582l-166 -164v-418h-170v1493h170z" />
    <glyph glyph-name="l" unicode="l" horiz-adv-x="433" 
d="M311 1493v-1493h-172v1493h172z" />
    <glyph glyph-name="m" unicode="m" horiz-adv-x="1651" 
d="M143 1073h158v-151q110 155 262 178q31 4 67 4q183 0 271 -133q10 -15 18 -31q111 133 240 156q41 8 90 8q250 0 301 -201q10 -45 10 -98v-805h-172v739q0 166 -129 205q-33 10 -69 10q-125 0 -201 -110q-51 -76 -51 -170v-674h-172v739q0 179 -146 209q-24 6 -53 6
q-127 0 -203 -114q-49 -74 -49 -166v-674h-172v1073z" />
    <glyph glyph-name="n" unicode="n" horiz-adv-x="1097" 
d="M143 1073h158v-180q110 174 266 203q41 8 90 8q215 0 301 -143q39 -66 39 -150v-811h-170v743q0 144 -121 193q-43 18 -100 18q-172 0 -248 -157q-43 -86 -43 -205v-592h-172v1073z" />
    <glyph glyph-name="o" unicode="o" horiz-adv-x="1097" 
d="M556 1104q312 0 428 -264q60 -133 60 -320q0 -342 -209 -487q-115 -80 -277 -80q-295 0 -417 244q-68 137 -68 331q0 357 215 500q113 76 268 76zM558 946q-190 0 -268 -188q-39 -99 -39 -230q0 -280 160 -378q63 -39 147 -39q185 0 265 180q43 96 43 231q0 297 -168 391
q-62 33 -140 33z" />
    <glyph glyph-name="p" unicode="p" horiz-adv-x="1138" 
d="M110 -446v1519h158v-162q121 193 342 193q260 0 383 -227q78 -146 78 -359q0 -315 -183 -469q-80 -67 -186 -87q-43 -9 -90 -9q-199 0 -330 160v-559h-172zM581 944q-170 0 -250 -172q-49 -102 -49 -244q0 -256 141 -362q68 -53 158 -53q172 0 258 166q53 102 53 243
q0 260 -145 369q-72 53 -166 53z" />
    <glyph glyph-name="q" unicode="q" horiz-adv-x="1138" 
d="M1014 -446h-170v569q-117 -170 -332 -170q-262 0 -383 221q-76 139 -76 342q0 330 186 488q117 100 281 100q219 0 342 -174v143h152v-1519zM545 944q-173 0 -259 -166q-55 -104 -55 -250q0 -249 144 -360q73 -55 170 -55q167 0 249 166q50 102 50 243q0 269 -146 373
q-67 49 -153 49z" />
    <glyph glyph-name="r" unicode="r" horiz-adv-x="730" 
d="M141 1073h158v-194q118 190 237 219q27 6 56 6q22 0 65 -6v-174q-147 -2 -211 -45q-6 -5 -12 -9q-121 -88 -121 -313v-557h-172v1073z" />
    <glyph glyph-name="s" unicode="s" horiz-adv-x="1024" 
d="M896 774h-180q-6 172 -215 172q-168 0 -215 -100q-12 -29 -12 -62q0 -92 135 -137q29 -8 63 -16l164 -39q242 -57 289 -201q14 -43 14 -98q0 -197 -184 -287q-106 -53 -258 -53q-397 0 -426 332q-2 16 -2 34h180q13 -96 49 -137q68 -71 213 -71q172 0 230 96q20 33 20 72
q0 94 -110 133l-56 16l-159 39q-244 59 -308 164q-32 57 -32 145q0 191 172 277q100 51 239 51q297 0 369 -207q20 -55 20 -123z" />
    <glyph glyph-name="t" unicode="t" horiz-adv-x="569" 
d="M520 1073v-139h-177v-735q0 -78 45 -90q19 -7 50 -7q51 0 82 9v-143q-80 -15 -140 -15q-182 0 -205 137q-2 14 -2 33v811h-145v139h145v295h170v-295h177z" />
    <glyph glyph-name="u" unicode="u" horiz-adv-x="1138" 
d="M987 0h-154v150q-114 -162 -266 -188q-41 -9 -92 -9q-219 0 -303 143q-39 66 -39 150v827h170v-760q0 -143 121 -192q45 -19 100 -19q174 0 252 160q41 86 41 203v608h170v-1073z" />
    <glyph glyph-name="v" unicode="v" horiz-adv-x="1024" 
d="M583 0h-186l-377 1073h193l286 -870l303 870h193z" />
    <glyph glyph-name="w" unicode="w" horiz-adv-x="1478" 
d="M1134 0h-194l-217 842l-207 -842h-193l-311 1073h188l220 -835l204 835h209l211 -835l213 835h193z" />
    <glyph glyph-name="x" unicode="x" horiz-adv-x="1024" 
d="M597 555l371 -555h-199l-268 412l-272 -412h-195l379 547l-359 526h195l258 -389l258 389h193z" />
    <glyph glyph-name="y" unicode="y" horiz-adv-x="1024" 
d="M794 1073h184l-477 -1298q-45 -117 -117 -170q-70 -51 -160 -51q-63 0 -114 27v153q55 -12 90 -12q92 0 129 82q4 10 8 22l65 170l-362 1077h182l275 -835z" />
    <glyph glyph-name="z" unicode="z" horiz-adv-x="1024" 
d="M907 1073v-151l-637 -772h665v-150h-872v154l641 770h-598v149h801z" />
    <glyph glyph-name="braceleft" unicode="{" horiz-adv-x="1000" 
d="M451 200q0 250 -76 275l-225 76v99l226 76q75 25 75 274q0 450 349 451h101v-151h-103q-198 0 -198 -299q0 -301 -199 -401q199 -101 200 -400q0 -300 200 -300h100v-150h-101q-349 0 -349 450z" />
    <glyph glyph-name="bar" unicode="|" horiz-adv-x="450" 
d="M150 -100v1400h150v-1400h-150z" />
    <glyph glyph-name="braceright" unicode="}" horiz-adv-x="1000" 
d="M550 1000q0 -250 76 -275l225 -76v-99l-226 -76q-75 -26 -75 -274q0 -450 -349 -451h-101v151h103q198 0 198 299q0 301 199 401q-200 101 -200 400q0 300 -200 300h-100v150h101q349 0 349 -450z" />
    <glyph glyph-name="asciitilde" unicode="~" horiz-adv-x="1200" 
d="M800 250q-149 0 -224 125l-38 63q-38 62 -138 62q-99 0 -99 -100v-150h-151v151q0 249 247 249h3q149 0 226 -125l37 -62q37 -63 138 -63q99 0 99 100v150h150v-150q0 -249 -250 -250z" />
    <glyph glyph-name="Adieresis" unicode="&#xc4;" horiz-adv-x="1100" 
d="M1062 0h-157l-127 400h-451l-123 -400h-156l402 1300h200zM731 550l-181 574l-176 -574h357zM450 1476q0 -75 -74 -75q-75 -1 -75 74t75 75q74 1 74 -74zM651 1476q0 75 75 75q74 -1 74 -75q0 -75 -75 -75t-74 75z" />
    <glyph glyph-name="Aring" unicode="&#xc5;" horiz-adv-x="1100" 
d="M350 1500q0 200 200 200t200 -200q0 -195 -190 -200h90l412 -1300h-157l-127 400h-451l-123 -400h-156l402 1300h90q-190 5 -190 200zM731 550l-181 574l-176 -574h357zM650 1500q0 100 -100 100t-100 -100t100 -100t100 100z" />
    <glyph glyph-name="Ccedilla" unicode="&#xc7;" horiz-adv-x="1150" 
d="M150 651q0 650 500 650q249 0 401 -101v-200q-99 150 -401 150q-350 0 -350 -500t350 -500q301 0 400 150v-199q-152 -101 -400 -101h-2l-48 -100q200 0 200 -175q1 -175 -249 -175q-100 0 -150 99l150 1q149 0 149 75q0 74 -99 74l-150 1l100 207q-401 61 -401 644z" />
    <glyph glyph-name="Eacute" unicode="&#xc9;" horiz-adv-x="1049" 
d="M950 1300v-150h-650v-350h600v-150h-600v-500h650v-150h-800v1300h800zM550 1400h-100l200 400h150z" />
    <glyph glyph-name="Ntilde" unicode="&#xd1;" horiz-adv-x="1100" 
d="M300 976v-976h-150v1300h151l499 -972v972h150v-1300h-151zM706 1400q-98 0 -175 50t-125 50q-49 0 -49 -100h-101q0 200 150 200q98 0 175 -50t125 -50q50 0 50 100h100q0 -200 -150 -200z" />
    <glyph glyph-name="Odieresis" unicode="&#xd6;" horiz-adv-x="1300" 
d="M150 650q0 650 500 650t500 -650t-500 -650t-500 650zM300 650q0 -500 350 -500t350 500t-350 500t-350 -500zM550 1476q0 -75 -74 -75q-75 -1 -75 74t75 75q74 1 74 -74zM751 1476q0 75 75 75q74 -1 74 -75q0 -75 -75 -75t-74 75z" />
    <glyph glyph-name="Udieresis" unicode="&#xdc;" horiz-adv-x="1200" 
d="M600 0q-450 0 -450 400v900h150v-900q0 -250 300 -250t300 250v900h150v-900q0 -400 -450 -400zM500 1476q0 -75 -74 -75q-75 -1 -75 74t75 75q74 1 74 -74zM701 1476q0 75 75 75q74 -1 74 -75q0 -75 -75 -75t-74 75z" />
    <glyph glyph-name="aacute" unicode="&#xe1;" horiz-adv-x="1050" 
d="M100 300q0 350 550 350h101v51q0 150 -251 150q-163 0 -349 -50v150q188 50 350 50q400 0 400 -300v-700h-150v159l-13 -10q-188 -150 -338 -150q-300 0 -300 300zM251 300q0 -149 150 -149q99 0 224 99l125 100v150h-100q-399 0 -399 -200zM500 1150h-100l200 400h150z
" />
    <glyph glyph-name="agrave" unicode="&#xe0;" horiz-adv-x="1050" 
d="M100 300q0 350 550 350h101v51q0 150 -251 150q-163 0 -349 -50v150q188 50 350 50q400 0 400 -300v-700h-150v159l-13 -10q-188 -150 -338 -150q-300 0 -300 300zM251 300q0 -149 150 -149q99 0 224 99l125 100v150h-100q-399 0 -399 -200zM700 1150h-100l-300 350h150z
" />
    <glyph glyph-name="acircumflex" unicode="&#xe2;" horiz-adv-x="1050" 
d="M100 300q0 350 550 350h101v51q0 150 -251 150q-161 0 -349 -50v150q189 50 350 50q400 0 400 -300v-700h-150v159l-13 -10q-188 -150 -338 -150q-300 0 -300 300zM651 500q-400 0 -400 -200q0 -149 150 -149q99 0 224 99l125 100l1 -3v153h-100zM751 1151l-200 199
l-201 -199h-100l301 399l300 -399h-100z" />
    <glyph glyph-name="adieresis" unicode="&#xe4;" horiz-adv-x="1050" 
d="M100 300q0 350 550 350h101v51q0 150 -251 150q-161 0 -349 -50v150q189 50 350 50q400 0 400 -300v-700h-150v159l-13 -10q-188 -150 -338 -150q-300 0 -300 300zM651 500q-400 0 -400 -200q0 -149 150 -149q99 0 224 99l125 100l1 -3v153h-100zM450 1226q0 -75 -74 -75
q-75 -1 -75 74t75 75q74 1 74 -74zM651 1226q0 75 75 75q74 -1 74 -75q0 -75 -75 -75t-74 75z" />
    <glyph glyph-name="atilde" unicode="&#xe3;" horiz-adv-x="1050" 
d="M100 300q0 350 550 350h101v51q0 150 -251 150q-161 0 -349 -50v150q189 50 350 50q400 0 400 -300v-700h-150v159l-13 -10q-188 -150 -338 -150q-300 0 -300 300zM651 500q-400 0 -400 -200q0 -149 150 -149q99 0 224 99l125 100l1 -3v153h-100zM676 1150q-98 0 -175 50
t-125 50q-49 0 -49 -100h-101q0 200 150 200q98 0 175 -50t125 -50q50 0 50 100h100q0 -200 -150 -200z" />
    <glyph glyph-name="aring" unicode="&#xe5;" horiz-adv-x="1050" 
d="M100 300q0 350 550 350h101v51q0 150 -251 150q-161 0 -349 -50v150q189 50 350 50q400 0 400 -300v-700h-150v159l-13 -10q-188 -150 -338 -150q-300 0 -300 300zM651 500q-400 0 -400 -200q0 -149 150 -149q99 0 224 99l125 100l1 -3v153h-100zM650 1250
q0 100 -100 100t-100 -100t100 -100t100 100zM350 1250q0 200 200 200t200 -200t-200 -200t-200 200z" />
    <glyph glyph-name="ccedilla" unicode="&#xe7;" horiz-adv-x="1050" 
d="M150 500q0 500 451 500q202 0 350 -100v-200q-99 150 -351 150q-299 0 -299 -350q0 -349 300 -350q251 0 350 150v-199q-134 -89 -303 -100l-48 -101q200 0 200 -175q1 -175 -249 -175q-100 0 -150 99l150 1q149 0 149 75q0 74 -99 74l-150 1l97 202q-398 28 -398 498z
" />
    <glyph glyph-name="eacute" unicode="&#xe9;" horiz-adv-x="1050" 
d="M501 1001q400 0 400 -400v-151h-650q18 -300 249 -300q249 0 401 150v-199q-151 -100 -401 -100h-2q-397 0 -397 496v4q0 500 400 500zM501 851q-210 0 -245 -251h494v3q0 246 -249 248zM500 1150h-100l200 400h150z" />
    <glyph glyph-name="egrave" unicode="&#xe8;" horiz-adv-x="1050" 
d="M501 1001q400 0 400 -400v-151h-650q18 -300 249 -300q249 0 401 150v-199q-151 -100 -401 -100h-2q-397 0 -397 496v4q0 500 400 500zM501 851q-210 0 -245 -251h494v3q0 246 -249 248zM700 1150h-100l-300 350h150z" />
    <glyph glyph-name="ecircumflex" unicode="&#xea;" horiz-adv-x="1050" 
d="M501 1001q400 0 400 -400v-151h-650q18 -300 249 -300q249 0 401 150v-199q-151 -100 -401 -100h-2q-397 0 -397 496v4q0 500 400 500zM501 851q-210 0 -245 -251h494v3q0 246 -249 248zM751 1151l-200 199l-201 -199h-100l301 399l300 -399h-100z" />
    <glyph glyph-name="edieresis" unicode="&#xeb;" horiz-adv-x="1050" 
d="M501 1001q400 0 400 -400v-151h-650q18 -300 249 -300q249 0 401 150v-199q-151 -100 -401 -100h-2q-397 0 -397 496v4q0 500 400 500zM501 851q-210 0 -245 -251h494v3q0 246 -249 248zM450 1226q0 -75 -74 -75q-75 -1 -75 74t75 75q74 1 74 -74zM651 1226q0 75 75 75
q74 -1 74 -75q0 -75 -75 -75t-74 75z" />
    <glyph glyph-name="iacute" unicode="&#xed;" horiz-adv-x="450" 
d="M150 1000h150v-1000h-150v1000zM250 1150h-100l200 400h150z" />
    <glyph glyph-name="igrave" unicode="&#xec;" horiz-adv-x="450" 
d="M150 1000h150v-1000h-150v1000zM300 1150h-100l-300 350h150z" />
    <glyph glyph-name="icircumflex" unicode="&#xee;" horiz-adv-x="450" 
d="M150 1000h150v-1000h-150v1000zM424 1101l-200 199l-201 -199h-100l301 399l300 -399h-100z" />
    <glyph glyph-name="idieresis" unicode="&#xef;" horiz-adv-x="450" 
d="M150 1000h150v-1000h-150v1000zM375 1300q75 0 75 -75t-75 -75t-75 75t75 75zM75 1300q75 0 75 -75t-75 -75t-75 75t75 75z" />
    <glyph glyph-name="ntilde" unicode="&#xf1;" horiz-adv-x="1100" 
d="M300 900q100 100 250 100q400 0 400 -400v-600h-150v600q0 250 -250 250t-250 -250v-600h-150v1000h150v-100zM706 1150q-98 0 -175 50t-125 50q-49 0 -49 -100h-101q0 200 150 200q98 0 175 -50t125 -50q50 0 50 100h100q0 -200 -150 -200z" />
    <glyph glyph-name="oacute" unicode="&#xf3;" horiz-adv-x="1100" 
d="M551 1001q400 0 400 -500q-2 -500 -401 -500h-2q-397 0 -397 496v4q0 500 400 500zM550 150q250 0 250 350v4q0 346 -250 346t-250 -350t250 -350zM500 1150h-100l200 400h150z" />
    <glyph glyph-name="ograve" unicode="&#xf2;" horiz-adv-x="1100" 
d="M551 1001q400 0 400 -500q-2 -500 -401 -500h-2q-397 0 -397 496v4q0 500 400 500zM550 150q250 0 250 350v4q0 346 -250 346t-250 -350t250 -350zM700 1150h-100l-300 350h150z" />
    <glyph glyph-name="ocircumflex" unicode="&#xf4;" horiz-adv-x="1100" 
d="M551 1001q400 0 400 -500q-2 -500 -401 -500h-2q-397 0 -397 496v4q0 500 400 500zM550 150q250 0 250 350v4q0 346 -250 346t-250 -350t250 -350zM751 1151l-200 199l-201 -199h-100l301 399l300 -399h-100z" />
    <glyph glyph-name="odieresis" unicode="&#xf6;" horiz-adv-x="1100" 
d="M551 1001q400 0 400 -500q-2 -500 -401 -500h-2q-397 0 -397 496v4q0 500 400 500zM550 150q250 0 250 350v4q0 346 -250 346t-250 -350t250 -350zM450 1226q0 -75 -74 -75q-75 -1 -75 74t75 75q74 1 74 -74zM651 1226q0 75 75 75q74 -1 74 -75q0 -75 -75 -75t-74 75z
" />
    <glyph glyph-name="otilde" unicode="&#xf5;" horiz-adv-x="1100" 
d="M551 1001q400 0 400 -500q-2 -500 -401 -500h-2q-397 0 -397 496v4q0 500 400 500zM550 150q250 0 250 350v4q0 346 -250 346t-250 -350t250 -350zM700 1150q-98 0 -175 50t-125 50q-49 0 -49 -100h-101q0 200 150 200q98 0 175 -50t125 -50q50 0 50 100h100
q0 -200 -150 -200z" />
    <glyph glyph-name="uacute" unicode="&#xfa;" horiz-adv-x="1100" 
d="M550 150q250 0 250 250v600h150v-1000h-150v100q-100 -100 -250 -100q-400 0 -400 400v600h150v-600q0 -250 250 -250zM500 1150h-100l200 400h150z" />
    <glyph glyph-name="ugrave" unicode="&#xf9;" horiz-adv-x="1100" 
d="M550 150q250 0 250 250v600h150v-1000h-150v100q-100 -100 -250 -100q-400 0 -400 400v600h150v-600q0 -250 250 -250zM700 1150h-100l-300 350h150z" />
    <glyph glyph-name="ucircumflex" unicode="&#xfb;" horiz-adv-x="1100" 
d="M550 150q250 0 250 250v600h150v-1000h-150v100q-100 -100 -250 -100q-400 0 -400 400v600h150v-600q0 -250 250 -250zM751 1151l-200 199l-201 -199h-100l301 399l300 -399h-100z" />
    <glyph glyph-name="udieresis" unicode="&#xfc;" horiz-adv-x="1100" 
d="M550 150q250 0 250 250v600h150v-1000h-150v100q-100 -100 -250 -100q-400 0 -400 400v600h150v-600q0 -250 250 -250zM450 1226q0 -75 -74 -75q-75 -1 -75 74t75 75q74 1 74 -74zM651 1226q0 75 75 75q74 -1 74 -75q0 -75 -75 -75t-74 75z" />
    <glyph glyph-name="dagger" unicode="&#x2020;" horiz-adv-x="1050" 
d="M50 850v150h400v400h150v-400h400v-150h-400v-850h-150v850h-400z" />
    <glyph glyph-name="degree" unicode="&#xb0;" horiz-adv-x="1100" 
d="M800 950q0 250 -250 250t-250 -250t250 -250t250 250zM201 950q0 350 349 350q350 0 350 -350t-350 -350q-349 0 -349 350z" />
    <glyph glyph-name="cent" unicode="&#xa2;" horiz-adv-x="1051" 
d="M903 1134l-69 -174q62 -23 117 -60v-200q-59 88 -170 125l-262 -667q37 -8 82 -8q251 0 350 150v-199q-152 -101 -350 -101q-76 0 -139 14l-72 -184l-92 37l70 179q-217 106 -217 454q0 500 450 500q72 0 137 -13l72 183zM601 850q-300 0 -300 -350q0 -227 125 -306
l256 651q-38 5 -81 5z" />
    <glyph glyph-name="sterling" unicode="&#xa3;" horiz-adv-x="600" 
d="M300 700v-450l300 -100v100h100v-100q0 -150 -100 -150l-300 100l-150 -100q-150 0 -150 125t150 125v450h-121v150h121v200q0 350 300 350h150v-150h-150q-150 0 -150 -199v-201h250v-150h-250z" />
    <glyph glyph-name="section" unicode="&#xa7;" horiz-adv-x="1050" 
d="M551 151q249 0 249 135q0 134 -249 134q-401 0 -401 290q0 142 96 215q-96 73 -96 215q0 291 400 291q251 0 351 -100v-201q-101 150 -350 150q-250 0 -250 -140q0 -131 219 -139h30v-1h1q399 0 399 -285q0 -145 -96 -219q96 -71 96 -211q0 -285 -399 -285
q-253 0 -401 100v200q152 -149 401 -149zM301 710q0 -140 250 -140h12q237 3 237 146q0 134 -249 134h-14q-236 -4 -236 -140z" />
    <glyph glyph-name="bullet" unicode="&#x2022;" horiz-adv-x="1100" 
d="M200 550q0 350 349 350q350 0 350 -350t-350 -350q-349 0 -349 350z" />
    <glyph glyph-name="paragraph" unicode="&#xb6;" horiz-adv-x="1050" 
d="M600 1800h450v-100h-100v-1700h-100v1700h-150v-1700h-100v800q-499 1 -499 497v4q0 500 499 499z" />
    <glyph glyph-name="germandbls" unicode="&#xdf;" horiz-adv-x="1050" 
d="M700 975q0 175 -200 175t-200 -150v-750q0 -250 -250 -250v150q100 0 100 100v750q0 300 350 300t350 -325q0 -151 -75 -232q175 -94 175 -343q0 -400 -450 -400h-100v150h100q300 0 300 250q0 128 -68.5 189t-231.5 61h-100v150h100q200 0 200 175z" />
    <glyph glyph-name="registered" unicode="&#xae;" horiz-adv-x="1500" 
d="M750 1300q650 0 650 -650t-650 -650t-650 650t650 650zM750 100q550 0 550 550t-550 550t-550 -550t550 -550zM688 1094q309 0 309 -275q0 -198 -162 -254l266 -364h-128l-250 344q-1 -1 -9 -1h-163v-343h-103v893h240zM894 819q0 172 -206 172h-137v-343h137
q206 0 206 171z" />
    <glyph glyph-name="copyright" unicode="&#xa9;" horiz-adv-x="1500" 
d="M750 1300q650 0 650 -650t-650 -650t-650 650t650 650zM750 100q550 0 550 550t-550 550t-550 -550t550 -550zM397 651q0 450 346 450q173 0 278 -70v-138q-69 103 -278 103q-242 0 -242 -346t242 -346q209 0 277 104v-138q-105 -70 -277 -70q-346 0 -346 451z" />
    <glyph glyph-name="trademark" unicode="&#x2122;" horiz-adv-x="1550" 
d="M50 1196v104h657v-104h-277v-795h-103v795h-277zM1364 1095l-242 -417l-242 417v-694h-104v899h104l242 -416l242 416h104v-899h-104v694z" />
    <glyph glyph-name="glyph139" unicode="&#xb4;" 
d="M50 1300h-100l200 400h150z" />
    <glyph glyph-name="dieresis" unicode="&#xa8;" 
d="M-100 1376q0 -75 -74 -75q-75 -1 -75 74t75 75q74 1 74 -74zM101 1376q0 75 75 75q74 -1 74 -75q0 -75 -75 -75t-74 75z" />
    <glyph glyph-name="AE" unicode="&#xc6;" horiz-adv-x="1400" 
d="M1350 1300v-150h-650v-350h600v-150h-600v-500h650v-150h-800v400h-223l-123 -400h-156l402 1300h900zM550 550v574l-176 -574h176z" />
    <glyph glyph-name="Oslash" unicode="&#xd8;" horiz-adv-x="1300" 
d="M1069 1392l-97 -198q178 -157 178 -544q0 -650 -500 -650q-138 0 -238 49l-91 -186l-89 44l97 198q-179 156 -179 545q0 650 500 650q138 0 238 -50l91 186zM300 650q0 -271 102 -395l417 855q-71 40 -169 40q-350 0 -350 -500zM650 150q350 0 350 500q0 269 -102 393
l-417 -853q70 -40 169 -40z" />
    <glyph glyph-name="plusminus" unicode="&#xb1;" horiz-adv-x="1250" 
d="M700 699v-399h-150v400h-400v150h400v400h150v-400h400v-151h-400zM150 0v150h950v-151z" />
    <glyph glyph-name="yen" unicode="&#xa5;" horiz-adv-x="1101" 
d="M100 250v100h376v200h-376v100h363l-398 650h176l309 -509l322 509h176l-411 -650h363v-100h-375v-200h375v-100h-375v-250h-149v250h-376z" />
    <glyph glyph-name="mu" unicode="&#xb5;" horiz-adv-x="1100" 
d="M550 150q250 0 250 250v600h150v-1000h-150v100q-100 -100 -250 -100q-155 0 -250 60v-410h-150v1350h150v-600q0 -250 250 -250z" />
    <glyph glyph-name="ordfeminine" unicode="&#xaa;" horiz-adv-x="1050" 
d="M100 915q0 193 303 193h56v28q0 82 -138 82q-90 0 -193 -27v82q104 28 193 28q221 0 221 -165v-385h-83v87l-7 -5q-104 -83 -186 -83q-166 0 -166 165zM183 915q0 -82 83 -82q55 0 124 55l69 55v82h-56q-220 0 -220 -110zM100 700h450v-50h-450v50z" />
    <glyph glyph-name="ordmasculine" unicode="&#xba;" horiz-adv-x="1050" 
d="M100 700h450v-50h-450v50zM325 1300q225 0 225 -275q-1 -275 -226 -275h-1q-223 0 -223 273v2q0 275 225 275zM324 832q141 0 141 192v3q0 190 -141 190q-140 0 -140 -193q0 -192 140 -192z" />
    <glyph glyph-name="ae" unicode="&#xe6;" horiz-adv-x="1650" 
d="M1151 1001q400 0 400 -400v-151h-650q18 -300 249 -300q249 0 401 150v-199q-151 -100 -401 -100h-2q-252 0 -344 199l-66 -50q-188 -150 -338 -150q-300 0 -300 300q0 350 550 350h101v51q0 150 -251 150q-163 0 -349 -50v150q188 50 350 50q258 0 350 -125
q100 125 300 125zM251 300q0 -149 150 -149q99 0 224 99l125 100v150h-100q-399 0 -399 -200zM1151 851q-210 0 -245 -251h494v3q0 246 -249 248z" />
    <glyph glyph-name="oslash" unicode="&#xf8;" horiz-adv-x="1100" 
d="M853 1134l-76 -192q174 -112 174 -441q-2 -500 -401 -500h-2q-74 0 -134 17l-74 -188l-92 37l75 191q-172 112 -172 439v4q0 500 400 500q75 0 135 -18l74 187zM550 850q-250 0 -250 -350q0 -203 83 -288l247 627q-37 11 -80 11zM550 150q250 0 250 350v4q0 199 -83 284
l-247 -628q36 -10 80 -10z" />
    <glyph glyph-name="questiondown" unicode="&#xbf;" horiz-adv-x="1100" 
d="M151 400q0 350 350 350v250h150v-400h-150q-200 0 -200 -201q0 -250 250 -250t250 151h150q0 -300 -400 -300h-3q-397 0 -397 400zM576 1300q75 0 75 -75t-75 -75t-75 75t75 75z" />
    <glyph glyph-name="exclamdown" unicode="&#xa1;" horiz-adv-x="450" 
d="M301 100q0 -100 -50 -100h-50q-50 0 -50 100t12.5 324t37.5 576h50q25 -352 37.5 -576t12.5 -324zM150 1224q0 32 22 54t53 22q32 0 54 -22t22 -54t-22 -54t-54 -22q-31 0 -53 22t-22 54z" />
    <glyph glyph-name="logicalnot" unicode="&#xac;" horiz-adv-x="1001" 
d="M1 850v150h1000v-500h-150v350h-850z" />
    <glyph glyph-name="florin" unicode="&#x192;" horiz-adv-x="600" 
d="M300 850v-500q0 -350 -300 -350h-150v150h150q150 0 150 199v501h-121v150h121v50q0 350 300 350h150v-150h-150q-150 0 -150 -199v-51h250v-150h-250z" />
    <glyph glyph-name="guillemotleft" unicode="&#xab;" horiz-adv-x="950" 
d="M499 601l-199 -200l199 -201v-100l-399 301l399 300v-100zM849 601l-199 -200l199 -201v-100l-399 301l399 300v-100z" />
    <glyph glyph-name="guillemotright" unicode="&#xbb;" horiz-adv-x="950" 
d="M451 199l199 200l-199 201v100l399 -301l-399 -300v100zM101 199l199 200l-199 201v100l399 -301l-399 -300v100z" />
    <glyph glyph-name="ellipsis" unicode="&#x2026;" horiz-adv-x="1750" 
d="M1600 75q0 -31 -22 -53t-53 -22t-53 22t-22 53t22 53t53 22t53 -22t22 -53zM952 75q0 -31 -22 -53t-53 -22t-53 22t-22 53t22 53t53 22t53 -22t22 -53zM300 75q0 -31 -22 -53t-53 -22t-53 22t-22 53t22 53t53 22t53 -22t22 -53z" />
    <glyph glyph-name="zerowidthspace" unicode="&#x200b;" 
 />
    <glyph glyph-name="Agrave" unicode="&#xc0;" horiz-adv-x="1100" 
d="M1062 0h-157l-127 400h-451l-123 -400h-156l402 1300h200zM731 550l-181 574l-176 -574h357zM700 1400h-100l-300 350h150z" />
    <glyph glyph-name="Atilde" unicode="&#xc3;" horiz-adv-x="1100" 
d="M1062 0h-157l-127 400h-451l-123 -400h-156l402 1300h200zM731 550l-181 574l-176 -574h357zM706 1400q-98 0 -175 50t-125 50q-49 0 -49 -100h-101q0 200 150 200q98 0 175 -50t125 -50q50 0 50 100h100q0 -200 -150 -200z" />
    <glyph glyph-name="Otilde" unicode="&#xd5;" horiz-adv-x="1300" 
d="M150 650q0 650 500 650t500 -650t-500 -650t-500 650zM300 650q0 -500 350 -500t350 500t-350 500t-350 -500zM796 1400q-98 0 -175 50t-125 50q-49 0 -49 -100h-101q0 200 150 200q98 0 175 -50t125 -50q50 0 50 100h100q0 -200 -150 -200z" />
    <glyph glyph-name="OE" unicode="&#x152;" horiz-adv-x="1600" 
d="M1500 1300v-150h-650v-350h600v-150h-600v-500h650v-150h-850q-500 0 -500 651q0 649 500 649h850zM300 650q0 -500 350 -500h50v1000h-50q-350 0 -350 -500z" />
    <glyph glyph-name="oe" unicode="&#x153;" horiz-adv-x="1700" 
d="M1200 1001q400 0 400 -400v-151h-650q18 -300 249 -300q249 0 401 150v-199q-151 -100 -401 -100h-2q-226 0 -323 160q-98 -160 -324 -160h-2q-397 0 -397 496v4q0 500 400 500q226 0 324 -161q98 161 325 161zM550 150q249 0 250 347v4v3q0 346 -250 346t-250 -350
t250 -350zM1200 851q-210 0 -245 -251h494v3q0 246 -249 248z" />
    <glyph glyph-name="endash" unicode="&#x2013;" horiz-adv-x="1100" 
d="M0 550v150h1100v-150h-1100z" />
    <glyph glyph-name="emdash" unicode="&#x2014;" horiz-adv-x="1800" 
d="M0 850h1800v-150h-1800v150z" />
    <glyph glyph-name="quotedblleft" unicode="&#x201c;" horiz-adv-x="650" 
d="M333 939l-47 -21q-160 228 -182 276q-31 66 38 98q67 31 98 -36l1 -3q16 -34 39 -112t53 -202zM593 939l-47 -21q-160 228 -182 276q-31 66 38 98q67 31 98 -36l1 -3q16 -34 39 -112t53 -202z" />
    <glyph glyph-name="quotedblright" unicode="&#x201d;" horiz-adv-x="650" 
d="M133 954l-39 33q137 242 171 283q47 56 105 7q57 -47 10 -104l-3 -2q-24 -29 -84.5 -83t-159.5 -134zM411 953l-39 33q137 243 171 283q47 56 105 8q57 -48 9 -104l-2 -3q-24 -29 -84.5 -83t-159.5 -134z" />
    <glyph glyph-name="quoteleft" unicode="&#x2018;" horiz-adv-x="448" 
d="M332 939l-47 -21q-160 228 -182 276q-31 66 38 98q67 31 98 -36l1 -3q16 -34 39 -112t53 -202z" />
    <glyph glyph-name="quoteright" unicode="&#x2019;" horiz-adv-x="495" 
d="M132 954l-39 33q137 242 171 283q47 56 105 7q57 -47 10 -104l-3 -2q-24 -29 -84.5 -83t-159.5 -134z" />
    <glyph glyph-name="divide" unicode="&#xf7;" horiz-adv-x="1150" 
d="M1000 450h-850v150h850v-150zM650 225q0 -31 -22 -53t-53 -22t-53 22t-22 53t22 53t53 22t53 -22t22 -53zM650 825q0 -31 -22 -53t-53 -22t-53 22t-22 53t22 53t53 22t53 -22t22 -53z" />
    <glyph glyph-name="ydieresis" unicode="&#xff;" horiz-adv-x="1100" 
d="M258 -400l209 489l-377 911h162l298 -716l306 716h163l-598 -1400h-163zM450 1226q0 -75 -74 -75q-75 -1 -75 74t75 75q74 1 74 -74zM651 1226q0 75 75 75q74 -1 74 -75q0 -75 -75 -75t-74 75z" />
    <glyph glyph-name="Ydieresis" unicode="&#x178;" horiz-adv-x="1101" 
d="M65 1300h176l309 -509l322 509h176l-423 -670v-630h-149v629zM450 1476q0 -75 -74 -75q-75 -1 -75 74t75 75q74 1 74 -74zM651 1476q0 75 75 75q74 -1 74 -75q0 -75 -75 -75t-74 75z" />
    <glyph glyph-name="currency" unicode="&#xa4;" horiz-adv-x="1100" 
d="M266 905l60 -61q84 56 223 56q140 0 224 -56l60 59l71 -70l-61 -60q56 -84 56 -223t-55 -223l59 -59l-71 -71l-59 59q-84 -56 -224 -56q-139 0 -223 55l-59 -59l-71 71l59 59q-56 84 -56 224t56 224l-59 60zM799 550q0 250 -250 250t-250 -250t250 -250t250 250z" />
    <glyph glyph-name="guilsinglleft" unicode="&#x2039;" horiz-adv-x="600" 
d="M500 600l-200 -200l200 -200v-100l-400 300l400 300v-100z" />
    <glyph glyph-name="guilsinglright" unicode="&#x203a;" horiz-adv-x="600" 
d="M100 200l199 200l-199 200v100l400 -300l-400 -300v100z" />
    <glyph glyph-name="daggerdbl" unicode="&#x2021;" horiz-adv-x="1250" 
d="M700 -1v-399h-150v400h-400v150h400v450h-400v150h400v400h150v-400h400v-151h-400v-449h400v-151h-400z" />
    <glyph glyph-name="periodcentered" unicode="&#xb7;" horiz-adv-x="600" 
d="M500 500q0 -200 -200 -200t-200 200t200 200t200 -200z" />
    <glyph glyph-name="quotesinglbase" unicode="&#x201a;" horiz-adv-x="450" 
d="M344 10q0 -21 -13 -43l-135 -234l-88 29l50 280q6 25 27.5 41t47.5 16q39 0 73 -25q38 -27 38 -64z" />
    <glyph glyph-name="quotedblbase" unicode="&#x201e;" horiz-adv-x="800" 
d="M344 10q0 -21 -13 -43l-135 -234l-88 29l50 280q6 25 27.5 41t47.5 16q39 0 73 -25q38 -27 38 -64zM686 10q0 -21 -13 -43l-135 -234l-88 29l50 280q6 25 27.5 41t47.5 16q39 0 73 -25q38 -27 38 -64z" />
    <glyph glyph-name="perthousand" unicode="&#x2030;" horiz-adv-x="2050" 
d="M294 -204l-144 80l895 1616l145 -79zM975 451q225 0 225 -225t-224 -225q-225 0 -225 225v3q0 222 224 222zM1050 225q0 75 -75 75t-75 -75t75 -75t75 75zM375 1301q225 0 225 -225t-224 -225q-225 0 -225 225v3q0 222 224 222zM450 1075q0 75 -75 75t-75 -75t75 -75
t75 75zM1675 451q225 0 225 -225t-224 -225q-225 0 -225 225v3q0 222 224 222zM1750 225q0 75 -75 75t-75 -75t75 -75t75 75z" />
    <glyph glyph-name="Acircumflex" unicode="&#xc2;" horiz-adv-x="1100" 
d="M1062 0h-157l-127 400h-451l-123 -400h-156l402 1300h200zM731 550l-181 574l-176 -574h357zM751 1401l-200 199l-201 -199h-100l301 399l300 -399h-100z" />
    <glyph glyph-name="Ecircumflex" unicode="&#xca;" horiz-adv-x="1049" 
d="M950 1300v-150h-650v-350h600v-150h-600v-500h650v-150h-800v1300h800zM751 1401l-200 199l-201 -199h-100l301 399l300 -399h-100z" />
    <glyph glyph-name="Aacute" unicode="&#xc1;" horiz-adv-x="1100" 
d="M1062 0h-157l-127 400h-451l-123 -400h-156l402 1300h200zM731 550l-181 574l-176 -574h357zM550 1400h-100l200 400h150z" />
    <glyph glyph-name="Edieresis" unicode="&#xcb;" horiz-adv-x="1049" 
d="M950 1300v-150h-650v-350h600v-150h-600v-500h650v-150h-800v1300h800zM450 1476q0 -75 -74 -75q-75 -1 -75 74t75 75q74 1 74 -74zM651 1476q0 75 75 75q74 -1 74 -75q0 -75 -75 -75t-74 75z" />
    <glyph glyph-name="Egrave" unicode="&#xc8;" horiz-adv-x="1049" 
d="M950 1300v-150h-650v-350h600v-150h-600v-500h650v-150h-800v1300h800zM700 1400h-100l-300 350h150z" />
    <glyph glyph-name="Iacute" unicode="&#xcd;" horiz-adv-x="650" 
d="M100 150h150v1000h-150v150h450v-150h-150v-1000h150v-150h-450v150zM350 1400h-100l200 400h150z" />
    <glyph glyph-name="Icircumflex" unicode="&#xce;" horiz-adv-x="650" 
d="M100 150h150v1000h-150v150h450v-150h-150v-1000h150v-150h-450v150zM526 1399l-200 199l-201 -199h-100l301 399l300 -399h-100z" />
    <glyph glyph-name="Idieresis" unicode="&#xcf;" horiz-adv-x="650" 
d="M100 150h150v1000h-150v150h450v-150h-150v-1000h150v-150h-450v150zM250 1476q0 -75 -74 -75q-75 -1 -75 74t75 75q74 1 74 -74zM401 1476q0 75 75 75q74 -1 74 -75q0 -75 -75 -75t-74 75z" />
    <glyph glyph-name="Igrave" unicode="&#xcc;" horiz-adv-x="650" 
d="M100 150h150v1000h-150v150h450v-150h-150v-1000h150v-150h-450v150zM400 1400h-100l-300 350h150z" />
    <glyph glyph-name="Oacute" unicode="&#xd3;" horiz-adv-x="1300" 
d="M150 650q0 650 500 650t500 -650t-500 -650t-500 650zM300 650q0 -500 350 -500t350 500t-350 500t-350 -500zM600 1400h-100l200 400h150z" />
    <glyph glyph-name="Ocircumflex" unicode="&#xd4;" horiz-adv-x="1300" 
d="M150 650q0 650 500 650t500 -650t-500 -650t-500 650zM300 650q0 -500 350 -500t350 500t-350 500t-350 -500zM850 1401l-200 199l-201 -199h-100l301 399l300 -399h-100z" />
    <glyph glyph-name="Ograve" unicode="&#xd2;" horiz-adv-x="1300" 
d="M150 650q0 650 500 650t500 -650t-500 -650t-500 650zM300 650q0 -500 350 -500t350 500t-350 500t-350 -500zM750 1400h-100l-300 350h150z" />
    <glyph glyph-name="Uacute" unicode="&#xda;" horiz-adv-x="1200" 
d="M600 0q-450 0 -450 400v900h150v-900q0 -250 300 -250t300 250v900h150v-900q0 -400 -450 -400zM600 1400h-100l200 400h150z" />
    <glyph glyph-name="Ucircumflex" unicode="&#xdb;" horiz-adv-x="1200" 
d="M600 0q-450 0 -450 400v900h150v-900q0 -250 300 -250t300 250v900h150v-900q0 -400 -450 -400zM801 1401l-200 199l-201 -199h-100l301 399l300 -399h-100z" />
    <glyph glyph-name="Ugrave" unicode="&#xd9;" horiz-adv-x="1200" 
d="M600 0q-450 0 -450 400v900h150v-900q0 -250 300 -250t300 250v900h150v-900q0 -400 -450 -400zM750 1400h-100l-300 350h150z" />
    <glyph glyph-name="circumflex" unicode="&#x2c6;" 
d="M200 1400l-200 200l-200 -200h-100l300 400l300 -400h-100z" />
    <glyph glyph-name="glyph196" unicode="&#x2dc;" 
d="M150 1400q-98 0 -175 50t-125 50q-49 0 -49 -100h-101q0 200 150 200q98 0 175 -50t125 -50q50 0 50 100h100q0 -200 -150 -200z" />
    <glyph glyph-name="macron" unicode="&#xaf;" 
d="M-400 1300v150h800v-150h-800z" />
    <glyph glyph-name="cedilla" unicode="&#xb8;" 
d="M150 100l-100 -200q200 0 200 -175t-250 -175q-100 0 -150 100h150q150 0 150 75t-100 75h-150l150 300h100z" />
    <glyph glyph-name="notequal" unicode="&#x2260;" horiz-adv-x="1100" 
d="M821 1185l-100 -236h230v-149h-294l-105 -249h399v-151h-463l-116 -274l-91 39l99 235h-230v151h294l106 249h-400v149h463l117 275z" />
    <glyph glyph-name="infinity" unicode="&#x221e;" horiz-adv-x="1700" 
d="M200 350q0 350 350 350q218 0 300 -136q82 136 300 136q350 0 350 -350t-350 -350q-218 0 -300 135q-82 -135 -300 -135q-350 0 -350 350zM1400 350q0 250 -250 250t-250 -250t250 -250t250 250zM800 350v12q-7 238 -250 238q-250 0 -250 -250t250 -250t250 250z" />
    <glyph glyph-name="lessequal" unicode="&#x2264;" horiz-adv-x="1250" 
d="M1101 249l-951 455v100l951 452l35 -145l-753 -357l753 -357zM150 1v149l1001 1v-150h-1001z" />
    <glyph glyph-name="greaterequal" unicode="&#x2265;" horiz-adv-x="1250" 
d="M150 0v150h1000v-150h-1000zM201 242l-35 147l765 362l-765 352l35 145l949 -452v-100z" />
    <glyph glyph-name="partialdiff" unicode="&#x2202;" horiz-adv-x="1100" 
d="M630 847q153 -27 235 -107l29 163q43 246 -104 272q-197 34 -183 108.5t210 39.5q295 -54 226 -446l-92 -518h-1q-73 -418 -467 -349q-394 70 -320 489q73 418 467 348zM509 158q246 -43 294 227q48 271 -199 315q-246 43 -294 -228q-47 -271 199 -314z" />
    <glyph glyph-name="summation" unicode="&#x2211;" horiz-adv-x="1100" 
d="M150 1500h800v-150h-650l400 -700l-400 -700h650v-150h-800v150l400 700l-400 700v150z" />
    <glyph glyph-name="product" unicode="&#x220f;" horiz-adv-x="1150" 
d="M150 1300h850v-1300h-150v1150h-550v-1150h-150v1300z" />
    <glyph glyph-name="pi" unicode="&#x3c0;" horiz-adv-x="1150" 
d="M150 1300h850v-1300h-150v1150h-550v-1150h-150v1300z" />
    <glyph glyph-name="integral" unicode="&#x222b;" horiz-adv-x="650" 
d="M600 1300q-200 0 -200 -200v-900q0 -350 -350 -350v150q200 0 200 200v900q0 350 350 350v-150z" />
    <glyph glyph-name="Omega" unicode="&#x3a9;" horiz-adv-x="1300" 
d="M1151 149l-1 -150h-400v501q250 0 250 350q0 300 -350 300t-350 -300q0 -350 250 -350v-500v-1h-400l1 150h250v222q-251 83 -251 479q0 450 500 450t500 -450q0 -395 -250 -478v-223h251z" />
    <glyph glyph-name="radical" unicode="&#x221a;" horiz-adv-x="1100" 
d="M456 0l-204 650l-203 88h330l175 -562l342 1124h154l-397 -1300h-197z" />
    <glyph glyph-name="approxequal" unicode="&#x2248;" horiz-adv-x="1100" 
d="M150 800v149q200 100 300 50t200.5 -50t300.5 70v-149q-200 -70 -300.5 -70t-200.5 50t-300 -50zM150 400v151q200 100 300 50t200.5 -50t300.5 70v-151q-200 -70 -300.5 -70t-200.5 50t-300 -50z" />
    <glyph glyph-name="Delta" unicode="&#x394;" horiz-adv-x="1100" 
d="M1062 0h-1014l402 1300h200zM550 1124l-300 -974h607z" />
    <glyph glyph-name="lozenge" unicode="&#x25ca;" horiz-adv-x="1600" 
d="M101 700l699 700l700 -700l-700 -700zM800 210l490 490l-490 490l-489 -490z" />
    <glyph glyph-name="fraction" unicode="&#x2044;" horiz-adv-x="1000" 
d="M177 -67l-128 78l775 1285l128 -77z" />
    <glyph glyph-name="fi" unicode="&#xfb01;" horiz-adv-x="950" 
d="M300 850v-850h-150v850h-121v150h121v50q0 350 300 350h350v-150h-350q-150 0 -150 -199v-51h500v-1000h-150v850h-350z" />
    <glyph glyph-name="fl" unicode="&#xfb02;" horiz-adv-x="950" 
d="M300 850v-850h-150v850h-121v150h121v50q0 350 300 350h350v-1400h-150v1250h-200q-150 0 -150 -199v-51h250v-150h-250z" />
    <glyph glyph-name="dotlessi" unicode="&#x131;" horiz-adv-x="450" 
d="M150 1000h150v-1000h-150v1000z" />
    <glyph glyph-name="breve" unicode="&#x2d8;" 
d="M-1 1400q-251 0 -300 349h100q51 -199 201 -199q151 0 200 199h100q-49 -349 -301 -349z" />
    <glyph glyph-name="dotaccent" unicode="&#x2d9;" 
d="M-100 1350q0 100 100 100t100 -100t-100 -100t-100 100z" />
    <glyph glyph-name="ring" unicode="&#x2da;" 
d="M-100 1350q0 -100 100 -100t100 100t-100 100t-100 -100zM0 1150q-200 0 -200 200t200 200t200 -200t-200 -200z" />
    <glyph glyph-name="hungarumlaut" unicode="&#x2dd;" horiz-adv-x="797" 
d="M132 954l-39 33q137 242 171 283q47 56 105 7q57 -47 10 -104l-3 -2q-24 -29 -84.5 -83t-159.5 -134zM432 954l-39 33q137 242 171 283q47 56 105 7q57 -47 10 -104l-3 -2q-24 -29 -84.5 -83t-159.5 -134z" />
    <glyph glyph-name="ogonek" unicode="&#x2db;" 
d="M150 100l-100 -200l-50 -100l-25 -50q-55 -100 25 -100q150 0 150 50t50 50h50q0 -200 -250 -200q-100 0 -125 75t25 175l150 300h100z" />
    <glyph glyph-name="caron" unicode="&#x2c7;" 
d="M-200 1800l200 -200l200 200h100l-300 -400l-300 400h100z" />
    <glyph glyph-name="Itilde" unicode="&#x128;" horiz-adv-x="650" 
d="M100 150h150v1000h-150v150h450v-150h-150v-1000h150v-150h-450v150zM476 1400q-98 0 -175 50t-125 50q-49 0 -49 -100h-101q0 200 150 200q98 0 175 -50t125 -50q50 0 50 100h100q0 -200 -150 -200z" />
    <glyph glyph-name="itilde" unicode="&#x129;" horiz-adv-x="450" 
d="M150 1000h150v-1000h-150v1000zM376 1200q-98 0 -175 50t-125 50q-49 0 -49 -100h-101q0 200 150 200q98 0 175 -50t125 -50q50 0 50 100h100q0 -200 -150 -200z" />
    <glyph glyph-name="Scaron" unicode="&#x160;" horiz-adv-x="1100" 
d="M551 151q248 0 250 249q0 200 -246 200h-4q-401 0 -401 350q0 351 400 351q251 0 351 -100v-201q-101 150 -350 150q-250 0 -250 -200t250 -200h3q396 0 396 -349q0 -400 -399 -401q-253 0 -401 100v200q152 -149 401 -149zM350 1800l200 -200l200 200h100l-300 -400
l-300 400h100z" />
    <glyph glyph-name="scaron" unicode="&#x161;" horiz-adv-x="1050" 
d="M551 151q249 0 249 135q0 134 -249 134q-401 0 -401 290q0 291 400 291q251 0 351 -100v-201q-101 150 -350 150q-250 0 -250 -140t250 -140q399 0 399 -285t-399 -285q-253 0 -401 100v200q152 -149 401 -149zM350 1550l200 -200l200 200h100l-300 -400l-300 400h100z
" />
    <glyph glyph-name="brokenbar" unicode="&#xa6;" horiz-adv-x="450" 
d="M150 0v800h150v-800h-150zM150 1000v800h150v-800h-150z" />
    <glyph glyph-name="Dstroke" unicode="&#x110;" horiz-adv-x="1149" 
d="M-1 600v150h150v550h400q500 0 500 -650t-500 -650h-400v600h-150zM899 650q0 500 -350 500h-250v-400h300v-150h-300v-450h250q350 0 350 500z" />
    <glyph glyph-name="eth" unicode="&#xf0;" horiz-adv-x="1100" 
d="M-94 1176l482 177l-255 420l128 78l271 -446l510 188l52 -141l-483 -177l254 -418q14 -18 24 -40h1q62 -119 62 -316q-2 -500 -401 -500h-2q-397 0 -397 496v4q0 500 400 500q27 0 52 -3l-136 224l-510 -187zM551 150q250 0 250 350v4q0 346 -250 346t-250 -350t250 -350
z" />
    <glyph glyph-name="Yacute" unicode="&#xdd;" horiz-adv-x="1106" 
d="M65 1300h176l309 -509l322 509h176l-423 -670v-630h-149v629zM600 1400h-100l200 400h150z" />
    <glyph glyph-name="yacute" unicode="&#xfd;" horiz-adv-x="1100" 
d="M258 -400l209 489l-377 911h162l298 -716l306 716h163l-598 -1400h-163zM500 1150h-100l200 400h150z" />
    <glyph glyph-name="Thorn" unicode="&#xde;" horiz-adv-x="1050" 
d="M150 1300h150v-250h200q450 0 450 -400t-450 -400h-200v-250h-150v1300zM800 650q0 250 -300 250h-200v-500h200q300 0 300 250z" />
    <glyph glyph-name="thorn" unicode="&#xfe;" horiz-adv-x="1050" 
d="M300 925q94 76 251 76q400 0 400 -500q-2 -500 -401 -500h-6q-149 0 -244 74v-475h-150v1700h150v-375zM550 150q250 0 250 350t-250 350t-250 -350t250 -350z" />
    <glyph glyph-name="minus" unicode="&#xad;" horiz-adv-x="1100" 
d="M150 400v150h800v-150h-800z" />
    <glyph glyph-name="multiply" unicode="&#xd7;" horiz-adv-x="1100" 
d="M656 574l282 -282l-106 -106l-283 283l-283 -283l-106 106l283 283l-283 283l106 106l283 -283l283 283l107 -107z" />
    <glyph glyph-name="onesuperior" unicode="&#xb9;" horiz-adv-x="400" 
d="M154 1092h-104v104q69 0 104 104h104v-796h104v-104h-312v104h104v588z" />
    <glyph glyph-name="twosuperior" unicode="&#xb2;" horiz-adv-x="850" 
d="M703 1033q0 -76 -106 -193l-305 -336h411v-104h-553v101l362 399q87 96 87 132q0 164 -173 164q-172 0 -172 -173h-104q0 277 276 277q277 0 277 -267z" />
    <glyph glyph-name="threesuperior" unicode="&#xb3;" horiz-adv-x="850" 
d="M427 1301q277 0 277 -248q0 -130 -83 -189q83 -67 83 -215q0 -249 -277 -249q-276 0 -276 243h104q0 -139 172 -139t172 145q0 167 -172 167h-69v104h69q91 0 131.5 35t40.5 98q0 144 -172 144t-172 -138h-104q0 242 276 242z" />
    <glyph glyph-name="onehalf" unicode="&#xbd;" horiz-adv-x="1550" 
d="M154 1092h-104v104q69 0 104 104h104v-796h104v-104h-312v104h104v588zM1450 633q0 -76 -106 -193l-305 -336h411v-104h-553v101l362 399q87 96 87 132q0 164 -172 164q-173 0 -173 -173h-104q0 277 277 277q276 0 276 -267zM1129 1301l-781 -1302h-116l780 1301z" />
    <glyph glyph-name="onequarter" unicode="&#xbc;" horiz-adv-x="1450" 
d="M154 1092h-104v104q69 0 104 104h104v-796h104v-104h-312v104h104v588zM1129 1301l-781 -1302h-116l780 1301zM1314 278v-278h-104v278h-450v90l450 532h104v-519h85v-103h-85zM1210 739l-303 -358h303v358z" />
    <glyph glyph-name="threequarters" unicode="&#xbe;" horiz-adv-x="1700" 
d="M1379 1301l-781 -1302h-116l780 1301zM1564 278v-278h-104v278h-450v90l450 532h104v-519h85v-103h-85zM1460 739l-303 -358h303v358zM427 1301q277 0 277 -248q0 -130 -83 -189q83 -67 83 -215q0 -249 -277 -249q-276 0 -276 243h104q0 -139 172 -139t172 145
q0 167 -172 167h-69v104h69q91 0 131.5 35t40.5 98q0 144 -172 144t-172 -138h-104q0 242 276 242z" />
    <glyph glyph-name="Lslash" unicode="&#x141;" horiz-adv-x="900" 
d="M-50 600l200 61v639h150v-593l300 93v-99l-300 -93v-458h500v-150h-650v562l-200 -62v100z" />
    <glyph glyph-name="lslash" unicode="&#x142;" horiz-adv-x="450" 
d="M-50 600l200 61v639h150v-593l300 93v-99l-300 -93v-608h-150v562l-200 -62v100z" />
    <glyph glyph-name="Zcaron" unicode="&#x17d;" horiz-adv-x="1100" 
d="M350 1800l200 -200l200 200h100l-300 -400l-300 400h100zM150 124l611 1026h-611v150h800v-126l-610 -1024h610v-150h-800v124z" />
    <glyph glyph-name="zcaron" unicode="&#x17e;" horiz-adv-x="1100" 
d="M150 131h1l590 719h-591v150h800v-133h-1l-589 -717h590v-150h-800v131zM350 1550l200 -200l200 200h100l-300 -400l-300 400h100z" />
    <glyph glyph-name="Euro" unicode="&#x20ac;" horiz-adv-x="1150" 
d="M50 850h114q69 451 486 451q249 0 401 -101v-200q-99 150 -401 150q-271 0 -333 -300h283v-100h-296q-4 -47 -4 -100t4 -100h296v-100h-283q61 -300 333 -300q301 0 400 150v-199q-152 -101 -400 -101q-416 0 -486 450h-113l-1 100h103q-3 48 -3 101q0 51 3 99h-102z" />
    <glyph glyph-name="Adotbelow" unicode="&#x1ea0;" horiz-adv-x="1100" 
d="M1062 0h-157l-127 400h-451l-123 -400h-156l402 1300h200zM731 550l-181 574l-176 -574h357zM476 -150h149v-150h-149v150z" />
    <glyph glyph-name="adotbelow" unicode="&#x1ea1;" horiz-adv-x="1050" 
d="M100 300q0 350 550 350h101v51q0 150 -251 150q-163 0 -349 -50v150q188 50 350 50q400 0 400 -300v-700h-150v159l-13 -10q-188 -150 -338 -150q-300 0 -300 300zM251 300q0 -149 150 -149q99 0 224 99l125 100v150h-100q-399 0 -399 -200zM476 -150h149v-150h-149v150z
" />
    <glyph glyph-name="Ahookabove" unicode="&#x1ea2;" horiz-adv-x="1100" 
d="M1062 0h-157l-127 400h-451l-123 -400h-156l402 1300h200zM731 550l-181 574l-176 -574h357zM600 1600q100 49 100 100q0 100 -125 100t-125 -50h-100q0 150 225 150t225 -200q0 -101 -100 -150l-50 -25q-50 -26 -50 -125h-100q0 151 100 200z" />
    <glyph glyph-name="ahookabove" unicode="&#x1ea3;" horiz-adv-x="1050" 
d="M100 300q0 350 550 350h101v51q0 150 -251 150q-163 0 -349 -50v150q188 50 350 50q400 0 400 -300v-700h-150v159l-13 -10q-188 -150 -338 -150q-300 0 -300 300zM251 300q0 -149 150 -149q99 0 224 99l125 100v150h-100q-399 0 -399 -200zM600 1350q100 49 100 100
q0 100 -125 100t-125 -50h-100q0 150 225 150t225 -200q0 -101 -100 -150l-50 -25q-50 -26 -50 -125h-100q0 151 100 200z" />
    <glyph glyph-name="Acircumflexacute" unicode="&#x1ea4;" horiz-adv-x="1100" 
d="M1062 0h-157l-127 400h-451l-123 -400h-156l402 1300h200zM800 1600h-99l150 -199h-100l-200 199l-201 -199h-100l301 399l149 -199l200 399h150zM731 550l-181 574l-176 -574h357z" />
    <glyph glyph-name="acircumflexacute" unicode="&#x1ea5;" horiz-adv-x="1050" 
d="M100 300q0 350 550 350h101v51q0 150 -251 150q-161 0 -349 -50v150q189 50 350 50q400 0 400 -300v-700h-150v159l-13 -10q-188 -150 -338 -150q-300 0 -300 300zM651 500q-400 0 -400 -200q0 -149 150 -149q99 0 224 99l125 100l1 -3v153h-100zM751 1151l-200 199
l-201 -199h-100l301 399l300 -399h-100zM800 1400h-100l200 400h150z" />
    <glyph glyph-name="Acircumflexgrave" unicode="&#x1ea6;" horiz-adv-x="1100" 
d="M1062 0h-157l-127 400h-451l-123 -400h-156l402 1300h200zM731 550l-181 574l-176 -574h357zM751 1401l-200 199l-201 -199h-100l301 399l300 -399h-100zM1000 1600h-100l-300 350h150z" />
    <glyph glyph-name="acircumflexgrave" unicode="&#x1ea7;" horiz-adv-x="1050" 
d="M100 300q0 350 550 350h101v51q0 150 -251 150q-161 0 -349 -50v150q189 50 350 50q400 0 400 -300v-700h-150v159l-13 -10q-188 -150 -338 -150q-300 0 -300 300zM651 500q-400 0 -400 -200q0 -149 150 -149q99 0 224 99l125 100l1 -3v153h-100zM751 1151l-200 199
l-201 -199h-100l301 399l300 -399h-100zM1000 1350h-100l-300 350h150z" />
    <glyph glyph-name="Acircumflexhookabove" unicode="&#x1ea8;" horiz-adv-x="1100" 
d="M1062 0h-157l-127 400h-451l-123 -400h-156l402 1300h200zM731 550l-181 574l-176 -574h357zM751 1401l-200 199l-201 -199h-100l301 399l300 -399h-100zM850 1800q100 49 100 100q0 100 -125 100t-125 -50h-100q0 150 225 150t225 -200q0 -101 -100 -150l-50 -25
q-50 -26 -50 -125h-100q0 151 100 200z" />
    <glyph glyph-name="acircumflexhookabove" unicode="&#x1ea9;" horiz-adv-x="1050" 
d="M100 300q0 350 550 350h101v51q0 150 -251 150q-161 0 -349 -50v150q189 50 350 50q400 0 400 -300v-700h-150v159l-13 -10q-188 -150 -338 -150q-300 0 -300 300zM651 500q-400 0 -400 -200q0 -149 150 -149q99 0 224 99l125 100l1 -3v153h-100zM751 1151l-200 199
l-201 -199h-100l301 399l300 -399h-100zM850 1550q100 49 100 100q0 100 -125 100t-125 -50h-100q0 150 225 150t225 -200q0 -101 -100 -150l-50 -25q-50 -26 -50 -125h-100q0 151 100 200z" />
    <glyph glyph-name="Acircumflexhooktilde" unicode="&#x1eaa;" horiz-adv-x="1100" 
d="M1062 0h-157l-127 400h-451l-123 -400h-156l402 1300h200zM731 550l-181 574l-176 -574h357zM751 1401l-200 199l-201 -199h-100l301 399l300 -399h-100zM706 1850q-98 0 -175 50t-125 50q-49 0 -49 -100h-101q0 200 150 200q98 0 175 -50t125 -50q50 0 50 100h100
q0 -200 -150 -200z" />
    <glyph glyph-name="acircumflextilde" unicode="&#x1eab;" horiz-adv-x="1050" 
d="M100 300q0 350 550 350h101v51q0 150 -251 150q-161 0 -349 -50v150q189 50 350 50q400 0 400 -300v-700h-150v159l-13 -10q-188 -150 -338 -150q-300 0 -300 300zM651 500q-400 0 -400 -200q0 -149 150 -149q99 0 224 99l125 100l1 -3v153h-100zM751 1151l-200 199
l-201 -199h-100l301 399l300 -399h-100zM706 1600q-98 0 -175 50t-125 50q-49 0 -49 -100h-101q0 200 150 200q98 0 175 -50t125 -50q50 0 50 100h100q0 -200 -150 -200z" />
    <glyph glyph-name="Acircumflexdotbelow" unicode="&#x1eac;" horiz-adv-x="1100" 
d="M1062 0h-157l-127 400h-451l-123 -400h-156l402 1300h200zM731 550l-181 574l-176 -574h357zM751 1401l-200 199l-201 -199h-100l301 399l300 -399h-100zM476 -150h149v-150h-149v150z" />
    <glyph glyph-name="acircumflexdotbelow" unicode="&#x1ead;" horiz-adv-x="1050" 
d="M100 300q0 350 550 350h101v51q0 150 -251 150q-161 0 -349 -50v150q189 50 350 50q400 0 400 -300v-700h-150v159l-13 -10q-188 -150 -338 -150q-300 0 -300 300zM651 500q-400 0 -400 -200q0 -149 150 -149q99 0 224 99l125 100l1 -3v153h-100zM751 1151l-200 199
l-201 -199h-100l301 399l300 -399h-100zM476 -150h149v-150h-149v150z" />
    <glyph glyph-name="Abreveacute" unicode="&#x1eae;" horiz-adv-x="1100" 
d="M1062 0h-157l-127 400h-451l-123 -400h-156l402 1300h200zM731 550l-181 574l-176 -574h357zM600 1700h-100l200 400h150zM549 1400q-251 0 -300 349h100q51 -199 201 -199q151 0 200 199h100q-49 -349 -301 -349z" />
    <glyph glyph-name="abreveacute" unicode="&#x1eaf;" horiz-adv-x="1050" 
d="M100 300q0 350 550 350h101v51q0 150 -251 150q-161 0 -349 -50v150q189 50 350 50q400 0 400 -300v-700h-150v159l-13 -10q-188 -150 -338 -150q-300 0 -300 300zM651 500q-400 0 -400 -200q0 -149 150 -149q99 0 224 99l125 100l1 -3v153h-100zM549 1100
q-251 0 -300 349h100q51 -199 201 -199q151 0 200 199h100q-49 -349 -301 -349zM600 1400h-100l200 400h150z" />
    <glyph glyph-name="Abrevegrave" unicode="&#x1eb0;" horiz-adv-x="1100" 
d="M1062 0h-157l-127 400h-451l-123 -400h-156l402 1300h200zM731 550l-181 574l-176 -574h357zM549 1400q-251 0 -300 349h100q51 -199 201 -199q151 0 200 199h100q-49 -349 -301 -349zM700 1700h-100l-300 350h150z" />
    <glyph glyph-name="abrevegrave" unicode="&#x1eb1;" horiz-adv-x="1050" 
d="M100 300q0 350 550 350h101v51q0 150 -251 150q-161 0 -349 -50v150q189 50 350 50q400 0 400 -300v-700h-150v159l-13 -10q-188 -150 -338 -150q-300 0 -300 300zM651 500q-400 0 -400 -200q0 -149 150 -149q99 0 224 99l125 100l1 -3v153h-100zM549 1100
q-251 0 -300 349h100q51 -199 201 -199q151 0 200 199h100q-49 -349 -301 -349zM700 1400h-100l-300 350h150z" />
    <glyph glyph-name="Abrevehookabove" unicode="&#x1eb2;" horiz-adv-x="1100" 
d="M1062 0h-157l-127 400h-451l-123 -400h-156l402 1300h200zM731 550l-181 574l-176 -574h357zM549 1400q-251 0 -300 349h100q51 -199 201 -199q151 0 200 199h100q-49 -349 -301 -349zM600 1900q100 49 100 100q0 100 -125 100t-125 -50h-100q0 150 225 150t225 -200
q0 -101 -100 -150l-50 -25q-50 -26 -50 -125h-100q0 151 100 200z" />
    <glyph glyph-name="abrevehookabove" unicode="&#x1eb3;" horiz-adv-x="1050" 
d="M100 300q0 350 550 350h101v51q0 150 -251 150q-161 0 -349 -50v150q189 50 350 50q400 0 400 -300v-700h-150v159l-13 -10q-188 -150 -338 -150q-300 0 -300 300zM651 500q-400 0 -400 -200q0 -149 150 -149q99 0 224 99l125 100l1 -3v153h-100zM549 1100
q-251 0 -300 349h100q51 -199 201 -199q151 0 200 199h100q-49 -349 -301 -349zM600 1600q100 49 100 100q0 100 -125 100t-125 -50h-100q0 150 225 150t225 -200q0 -101 -100 -150l-50 -25q-50 -26 -50 -125h-100q0 151 100 200z" />
    <glyph glyph-name="Abrevetilde" unicode="&#x1eb4;" horiz-adv-x="1100" 
d="M1062 0h-157l-127 400h-451l-123 -400h-156l402 1300h200zM731 550l-181 574l-176 -574h357zM549 1400q-251 0 -300 349h100q51 -199 201 -199q151 0 200 199h100q-49 -349 -301 -349zM706 1850q-98 0 -175 50t-125 50q-49 0 -49 -100h-101q0 200 150 200q98 0 175 -50
t125 -50q50 0 50 100h100q0 -200 -150 -200z" />
    <glyph glyph-name="abrevetilde" unicode="&#x1eb5;" horiz-adv-x="1050" 
d="M100 300q0 350 550 350h101v51q0 150 -251 150q-161 0 -349 -50v150q189 50 350 50q400 0 400 -300v-700h-150v159l-13 -10q-188 -150 -338 -150q-300 0 -300 300zM651 500q-400 0 -400 -200q0 -149 150 -149q99 0 224 99l125 100l1 -3v153h-100zM549 1100
q-251 0 -300 349h100q51 -199 201 -199q151 0 200 199h100q-49 -349 -301 -349zM706 1550q-98 0 -175 50t-125 50q-49 0 -49 -100h-101q0 200 150 200q98 0 175 -50t125 -50q50 0 50 100h100q0 -200 -150 -200z" />
    <glyph glyph-name="Abrevedotbelove" unicode="&#x1eb6;" horiz-adv-x="1100" 
d="M1062 0h-157l-127 400h-451l-123 -400h-156l402 1300h200zM731 550l-181 574l-176 -574h357zM549 1400q-251 0 -300 349h100q51 -199 201 -199q151 0 200 199h100q-49 -349 -301 -349zM476 -150h149v-150h-149v150z" />
    <glyph glyph-name="abrevedotbelove" unicode="&#x1eb7;" horiz-adv-x="1050" 
d="M100 300q0 350 550 350h101v51q0 150 -251 150q-161 0 -349 -50v150q189 50 350 50q400 0 400 -300v-700h-150v159l-13 -10q-188 -150 -338 -150q-300 0 -300 300zM651 500q-400 0 -400 -200q0 -149 150 -149q99 0 224 99l125 100l1 -3v153h-100zM549 1100
q-251 0 -300 349h100q51 -199 201 -199q151 0 200 199h100q-49 -349 -301 -349zM476 -150h149v-150h-149v150z" />
    <glyph glyph-name="Edotbelow" unicode="&#x1eb8;" horiz-adv-x="1050" 
d="M950 1300v-150h-650v-350h600v-150h-600v-500h650v-150h-800v1300h800zM476 -150h149v-150h-149v150z" />
    <glyph glyph-name="edotbelow" unicode="&#x1eb9;" horiz-adv-x="1050" 
d="M501 1001q400 0 400 -400v-151h-650q18 -300 249 -300q249 0 401 150v-199q-151 -100 -401 -100h-2q-397 0 -397 496v4q0 500 400 500zM501 851q-210 0 -245 -251h494v3q0 246 -249 248zM476 -150h149v-150h-149v150z" />
    <glyph glyph-name="Ehookabove" unicode="&#x1eba;" horiz-adv-x="1050" 
d="M950 1300v-150h-650v-350h600v-150h-600v-500h650v-150h-800v1300h800zM600 1600q100 49 100 100q0 100 -125 100t-125 -50h-100q0 150 225 150t225 -200q0 -101 -100 -150l-50 -25q-50 -26 -50 -125h-100q0 151 100 200z" />
    <glyph glyph-name="ehookabove" unicode="&#x1ebb;" horiz-adv-x="1050" 
d="M501 1001q400 0 400 -400v-151h-650q18 -300 249 -300q249 0 401 150v-199q-151 -100 -401 -100h-2q-397 0 -397 496v4q0 500 400 500zM501 851q-210 0 -245 -251h494v3q0 246 -249 248zM600 1350q100 49 100 100q0 100 -125 100t-125 -50h-100q0 150 225 150t225 -200
q0 -101 -100 -150l-50 -25q-50 -26 -50 -125h-100q0 151 100 200z" />
    <glyph glyph-name="Etilde" unicode="&#x1ebc;" horiz-adv-x="1050" 
d="M950 1300v-150h-650v-350h600v-150h-600v-500h650v-150h-800v1300h800zM706 1450q-98 0 -175 50t-125 50q-49 0 -49 -100h-101q0 200 150 200q98 0 175 -50t125 -50q50 0 50 100h100q0 -200 -150 -200z" />
    <glyph glyph-name="etilde" unicode="&#x1ebd;" horiz-adv-x="1050" 
d="M501 1001q400 0 400 -400v-151h-650q18 -300 249 -300q249 0 401 150v-199q-151 -100 -401 -100h-2q-397 0 -397 496v4q0 500 400 500zM501 851q-210 0 -245 -251h494v3q0 246 -249 248zM706 1200q-98 0 -175 50t-125 50q-49 0 -49 -100h-101q0 200 150 200q98 0 175 -50
t125 -50q50 0 50 100h100q0 -200 -150 -200z" />
    <glyph glyph-name="Ecircumflexacute" unicode="&#x1ebe;" horiz-adv-x="1049" 
d="M950 1300v-150h-650v-350h600v-150h-600v-500h650v-150h-800v1300h800zM751 1401l-200 199l-201 -199h-100l301 399l300 -399h-100zM800 1600h-100l200 400h150z" />
    <glyph glyph-name="ecircumflexacute" unicode="&#x1ebf;" horiz-adv-x="1050" 
d="M501 1001q400 0 400 -400v-151h-650q18 -300 249 -300q249 0 401 150v-199q-151 -100 -401 -100h-2q-397 0 -397 496v4q0 500 400 500zM501 851q-210 0 -245 -251h494v3q0 246 -249 248zM751 1151l-200 199l-201 -199h-100l301 399l300 -399h-100zM800 1390h-100l200 400
h150z" />
    <glyph glyph-name="Ecircumflexgrave" unicode="&#x1ec0;" horiz-adv-x="1050" 
d="M950 1300v-150h-650v-350h600v-150h-600v-500h650v-150h-800v1300h800zM751 1401l-200 199l-201 -199h-100l301 399l300 -399h-100zM1000 1600h-100l-300 350h150z" />
    <glyph glyph-name="ecircumflexgrave" unicode="&#x1ec1;" horiz-adv-x="1050" 
d="M501 1001q400 0 400 -400v-151h-650q18 -300 249 -300q249 0 401 150v-199q-151 -100 -401 -100h-2q-397 0 -397 496v4q0 500 400 500zM501 851q-210 0 -245 -251h494v3q0 246 -249 248zM751 1151l-200 199l-201 -199h-100l301 399l300 -399h-100zM1000 1350h-100
l-300 350h150z" />
    <glyph glyph-name="Ecircumflexhookabove" unicode="&#x1ec2;" horiz-adv-x="1049" 
d="M950 1300v-150h-650v-350h600v-150h-600v-500h650v-150h-800v1300h800zM751 1401l-200 199l-201 -199h-100l301 399l300 -399h-100zM850 1800q100 49 100 100q0 100 -125 100t-125 -50h-100q0 150 225 150t225 -200q0 -101 -100 -150l-50 -25q-50 -26 -50 -125h-100
q0 151 100 200z" />
    <glyph glyph-name="ecircumflexhookabove" unicode="&#x1ec3;" horiz-adv-x="1050" 
d="M501 1001q400 0 400 -400v-151h-650q18 -300 249 -300q249 0 401 150v-199q-151 -100 -401 -100h-2q-397 0 -397 496v4q0 500 400 500zM501 851q-210 0 -245 -251h494v3q0 246 -249 248zM751 1151l-200 199l-201 -199h-100l301 399l300 -399h-100zM850 1550
q100 49 100 100q0 100 -125 100t-125 -50h-100q0 150 225 150t225 -200q0 -101 -100 -150l-50 -25q-50 -26 -50 -125h-100q0 151 100 200z" />
    <glyph glyph-name="Ecircumflextilde" unicode="&#x1ec4;" horiz-adv-x="1049" 
d="M950 1300v-150h-650v-350h600v-150h-600v-500h650v-150h-800v1300h800zM751 1401l-200 199l-201 -199h-100l301 399l300 -399h-100zM706 1850q-98 0 -175 50t-125 50q-49 0 -49 -100h-101q0 200 150 200q98 0 175 -50t125 -50q50 0 50 100h100q0 -200 -150 -200z" />
    <glyph glyph-name="ecircumflextilde" unicode="&#x1ec5;" horiz-adv-x="1050" 
d="M501 1001q400 0 400 -400v-151h-650q18 -300 249 -300q249 0 401 150v-199q-151 -100 -401 -100h-2q-397 0 -397 496v4q0 500 400 500zM501 851q-210 0 -245 -251h494v3q0 246 -249 248zM751 1151l-200 199l-201 -199h-100l301 399l300 -399h-100zM706 1600
q-98 0 -175 50t-125 50q-49 0 -49 -100h-101q0 200 150 200q98 0 175 -50t125 -50q50 0 50 100h100q0 -200 -150 -200z" />
    <glyph glyph-name="Ecircumflexdotbelow" unicode="&#x1ec6;" horiz-adv-x="1050" 
d="M950 1300v-150h-650v-350h600v-150h-600v-500h650v-150h-800v1300h800zM476 -150h149v-150h-149v150zM751 1401l-200 199l-201 -199h-100l301 399l300 -399h-100z" />
    <glyph glyph-name="ecircumflexdotbelow" unicode="&#x1ec7;" horiz-adv-x="1050" 
d="M501 1001q400 0 400 -400v-151h-650q18 -300 249 -300q249 0 401 150v-199q-151 -100 -401 -100h-2q-397 0 -397 496v4q0 500 400 500zM501 851q-210 0 -245 -251h494v3q0 246 -249 248zM476 -150h149v-150h-149v150zM751 1151l-200 199l-201 -199h-100l301 399l300 -399
h-100z" />
    <glyph glyph-name="Ihookabove" unicode="&#x1ec8;" horiz-adv-x="650" 
d="M250 150v1000h-150v150h450v-150h-150v-1000h150v-150h-450v150h150zM370 1600q100 49 100 100q0 100 -125 100t-125 -50h-100q0 150 225 150t225 -200q0 -101 -100 -150l-50 -25q-50 -26 -50 -125h-100q0 151 100 200z" />
    <glyph glyph-name="ihookabove" unicode="&#x1ec9;" horiz-adv-x="450" 
d="M300 1000v-1000h-150v1000h150zM250 1350q100 49 100 100q0 100 -125 100t-125 -50h-100q0 150 225 150t225 -200q0 -101 -100 -150l-50 -25q-50 -26 -50 -125h-100q0 151 100 200z" />
    <glyph glyph-name="Idotbelow" unicode="&#x1eca;" horiz-adv-x="650" 
d="M250 150v1000h-150v150h450v-150h-150v-1000h150v-150h-450v150h150zM250 -150h150v-150h-150v150z" />
    <glyph glyph-name="idotbelow" unicode="&#x1ecb;" horiz-adv-x="450" 
d="M150 1000h150v-1000h-150v1000zM150 1300h150v-150h-150v150zM150 -150h150v-150h-150v150z" />
    <glyph glyph-name="Abreve" unicode="&#x102;" horiz-adv-x="1100" 
d="M1062 0h-157l-127 400h-451l-123 -400h-156l402 1300h200zM731 550l-181 574l-176 -574h357zM549 1400q-251 0 -300 349h100q51 -199 201 -199q151 0 200 199h100q-49 -349 -301 -349z" />
    <glyph glyph-name="abreve" unicode="&#x103;" horiz-adv-x="1050" 
d="M100 300q0 350 550 350h101v51q0 150 -251 150q-161 0 -349 -50v150q189 50 350 50q400 0 400 -300v-700h-150v159l-13 -10q-188 -150 -338 -150q-300 0 -300 300zM651 500q-400 0 -400 -200q0 -149 150 -149q99 0 224 99l125 100l1 -3v153h-100zM549 1100
q-251 0 -300 349h100q51 -199 201 -199q151 0 200 199h100q-49 -349 -301 -349z" />
    <glyph glyph-name="dtroke" unicode="&#x111;" horiz-adv-x="1050" 
d="M501 1000q155 0 250 -74v175h-199v149h199v100h150v-100h100v-149h-100v-1101h-150v76q-96 -75 -250 -76q-400 0 -400 500t400 500zM501 150q249 0 250 350q0 350 -249 350q-251 0 -251 -350t250 -350z" />
    <glyph glyph-name="Ohorn" unicode="&#x1a0;" horiz-adv-x="1300" 
d="M150 650q0 650 500 650q195 0 314 -100v1h53q95 0 97 99q-100 0 -101 76q0 75 100 75t100 -150q0 -182 -164 -200q101 -160 101 -451q0 -650 -500 -650t-500 650zM300 650q0 -500 350 -500t350 500t-350 500t-350 -500z" />
    <glyph glyph-name="ohorn" unicode="&#x1a1;" horiz-adv-x="1100" 
d="M953 1151q100 0 100 -150q0 -179 -159 -199q56 -117 56 -302q0 -500 -400 -500t-400 500t400 500q178 0 276 -99h31q95 0 97 99q-100 0 -101 76q0 75 100 75zM550 150q250 0 250 350t-250 350t-250 -350t250 -350z" />
    <glyph glyph-name="Uhorn" unicode="&#x1af;" horiz-adv-x="1200" 
d="M1200 1500q100 0 100 -150q0 -200 -200 -200h-50v-750q0 -400 -450 -400t-450 400v900h150v-900q0 -250 300 -250t300 250v900h150v-50h50q100 0 100 100q-100 0 -100 75t100 75z" />
    <glyph glyph-name="uhorn" unicode="&#x1b0;" horiz-adv-x="1100" 
d="M1100 1200q100 0 100 -150q0 -200 -200 -200h-50v-850h-150v100q-100 -100 -250 -100q-400 0 -400 400v600h150v-600q0 -250 250 -250t250 250v600h150v-50h50q100 0 100 100q-100 0 -100 75t100 75z" />
    <glyph glyph-name="acute" unicode="&#x301;" 
d="M-50 1300l200 400h150l-250 -400h-100z" />
    <glyph glyph-name="grave" unicode="&#x300;" 
d="M-50 1300l-300 350h150l250 -350h-100z" />
    <glyph glyph-name="hookabove" unicode="&#x309;" 
d="M50 1500q100 49 100 100q0 100 -125 100t-125 -50h-100q0 150 225 150t225 -200q0 -101 -100 -150l-50 -25q-50 -26 -50 -125h-100q0 151 100 200z" />
    <glyph glyph-name="tilde" unicode="&#x303;" 
d="M150 1300q-98 0 -175 50t-125 50q-49 0 -49 -100h-101q0 200 150 200q98 0 175 -50t125 -50q50 0 50 100h100q0 -200 -150 -200z" />
    <glyph glyph-name="dotbelow" unicode="&#x323;" 
d="M-75 -500h151v-150h-151v150z" />
    <glyph glyph-name="Odotbelow" unicode="&#x1ecc;" horiz-adv-x="1300" 
d="M150 650q0 650 500 650t500 -650t-500 -650t-500 650zM300 650q0 -500 350 -500t350 500t-350 500t-350 -500zM575 -150h150v-150h-150v150z" />
    <glyph glyph-name="odotbelow" unicode="&#x1ecd;" horiz-adv-x="1100" 
d="M550 1000q400 0 400 -500t-400 -500t-400 500t400 500zM550 150q250 0 250 350t-250 350t-250 -350t250 -350zM475 -150h150v-150h-150v150z" />
    <glyph glyph-name="Ohookabove" unicode="&#x1ece;" horiz-adv-x="1300" 
d="M150 650q0 650 500 650t500 -650t-500 -650t-500 650zM300 650q0 -500 350 -500t350 500t-350 500t-350 -500zM700 1600q100 49 100 100q0 100 -125 100t-125 -50h-100q0 150 225 150t225 -200q0 -101 -100 -150l-50 -25q-50 -26 -50 -125h-100q0 151 100 200z" />
    <glyph glyph-name="ohookabove" unicode="&#x1ecf;" horiz-adv-x="1100" 
d="M551 1001q400 0 400 -500q-2 -500 -401 -500h-2q-397 0 -397 496v4q0 500 400 500zM550 150q250 0 250 350v4q0 346 -250 346t-250 -350t250 -350zM600 1350q100 49 100 100q0 100 -125 100t-125 -50h-100q0 150 225 150t225 -200q0 -101 -100 -150l-50 -25
q-50 -26 -50 -125h-100q0 151 100 200z" />
    <glyph glyph-name="Ocircumflexacute" unicode="&#x1ed0;" horiz-adv-x="1300" 
d="M150 650q0 650 500 650t500 -650t-500 -650t-500 650zM300 650q0 -500 350 -500t350 500t-350 500t-350 -500zM850 1401l-200 199l-201 -199h-100l301 399l300 -399h-100zM900 1600h-100l200 400h150z" />
    <glyph glyph-name="ocircumflexacute" unicode="&#x1ed1;" horiz-adv-x="1100" 
d="M551 1001q400 0 400 -500q-2 -500 -401 -500h-2q-397 0 -397 496v4q0 500 400 500zM550 150q250 0 250 350v4q0 346 -250 346t-250 -350t250 -350zM751 1151l-200 199l-201 -199h-100l301 399l300 -399h-100zM800 1390h-100l200 400h150z" />
    <glyph glyph-name="Ocircumflexgrave" unicode="&#x1ed2;" horiz-adv-x="1300" 
d="M150 650q0 650 500 650t500 -650t-500 -650t-500 650zM300 650q0 -500 350 -500t350 500t-350 500t-350 -500zM850 1401l-200 199l-201 -199h-100l301 399l300 -399h-100zM1050 1600h-100l-300 350h150z" />
    <glyph glyph-name="ocircumflexgrave" unicode="&#x1ed3;" horiz-adv-x="1100" 
d="M551 1001q400 0 400 -500q-2 -500 -401 -500h-2q-397 0 -397 496v4q0 500 400 500zM550 150q250 0 250 350v4q0 346 -250 346t-250 -350t250 -350zM751 1151l-200 199l-201 -199h-100l301 399l300 -399h-100zM1000 1350h-100l-300 350h150z" />
    <glyph glyph-name="Ocircumflexhookabove" unicode="&#x1ed4;" horiz-adv-x="1300" 
d="M150 650q0 650 500 650t500 -650t-500 -650t-500 650zM300 650q0 -500 350 -500t350 500t-350 500t-350 -500zM850 1401l-200 199l-201 -199h-100l301 399l300 -399h-100zM950 1800q100 49 100 100q0 100 -125 100t-125 -50h-100q0 150 225 150t225 -200
q0 -101 -100 -150l-50 -25q-50 -26 -50 -125h-100q0 151 100 200z" />
    <glyph glyph-name="ocircumflexhookabove" unicode="&#x1ed5;" horiz-adv-x="1100" 
d="M551 1001q400 0 400 -500q-2 -500 -401 -500h-2q-397 0 -397 496v4q0 500 400 500zM550 150q250 0 250 350v4q0 346 -250 346t-250 -350t250 -350zM751 1151l-200 199l-201 -199h-100l301 399l300 -399h-100zM850 1550q100 49 100 100q0 100 -125 100t-125 -50h-100
q0 150 225 150t225 -200q0 -101 -100 -150l-50 -25q-50 -26 -50 -125h-100q0 151 100 200z" />
    <glyph glyph-name="Ocircumflextilde" unicode="&#x1ed6;" horiz-adv-x="1300" 
d="M150 650q0 650 500 650t500 -650t-500 -650t-500 650zM300 650q0 -500 350 -500t350 500t-350 500t-350 -500zM850 1401l-200 199l-201 -199h-100l301 399l300 -399h-100zM796 1850q-98 0 -175 50t-125 50q-49 0 -49 -100h-101q0 200 150 200q98 0 175 -50t125 -50
q50 0 50 100h100q0 -200 -150 -200z" />
    <glyph glyph-name="ocircumflextilde" unicode="&#x1ed7;" horiz-adv-x="1100" 
d="M551 1001q400 0 400 -500q-2 -500 -401 -500h-2q-397 0 -397 496v4q0 500 400 500zM550 150q250 0 250 350v4q0 346 -250 346t-250 -350t250 -350zM751 1151l-200 199l-201 -199h-100l301 399l300 -399h-100zM706 1600q-98 0 -175 50t-125 50q-49 0 -49 -100h-101
q0 200 150 200q98 0 175 -50t125 -50q50 0 50 100h100q0 -200 -150 -200z" />
    <glyph glyph-name="Ocircumflexdotbelow" unicode="&#x1ed8;" horiz-adv-x="1300" 
d="M150 650q0 650 500 650t500 -650t-500 -650t-500 650zM300 650q0 -500 350 -500t350 500t-350 500t-350 -500zM850 1401l-200 199l-201 -199h-100l301 399l300 -399h-100zM575 -150h150v-150h-150v150z" />
    <glyph glyph-name="ocircumflexdotbelow" unicode="&#x1ed9;" horiz-adv-x="1100" 
d="M551 1001q400 0 400 -500q-2 -500 -401 -500h-2q-397 0 -397 496v4q0 500 400 500zM550 150q250 0 250 350v4q0 346 -250 346t-250 -350t250 -350zM751 1151l-200 199l-201 -199h-100l301 399l300 -399h-100zM475 -150h150v-150h-150v150z" />
    <glyph glyph-name="Ohornacute" unicode="&#x1eda;" horiz-adv-x="1300" 
d="M1113 1451q100 0 100 -150q0 -191 -180 -201l-69 101h53q95 0 97 99q-100 0 -101 76q0 75 100 75zM150 650q0 650 500 650t500 -650t-500 -650t-500 650zM300 650q0 -500 350 -500t350 500t-350 500t-350 -500zM600 1400h-100l200 400h150z" />
    <glyph glyph-name="ohornacute" unicode="&#x1edb;" horiz-adv-x="1100" 
d="M550 1000q400 0 400 -500t-400 -500t-400 500t400 500zM550 150q250 0 250 350t-250 350t-250 -350t250 -350zM953 1151q100 0 100 -150q0 -191 -180 -201l-69 101h53q95 0 97 99q-100 0 -101 76q0 75 100 75zM500 1150h-100l200 400h150z" />
    <glyph glyph-name="Ohorngrave" unicode="&#x1edc;" horiz-adv-x="1300" 
d="M1113 1451q100 0 100 -150q0 -191 -180 -201l-69 101h53q95 0 97 99q-100 0 -101 76q0 75 100 75zM150 650q0 650 500 650t500 -650t-500 -650t-500 650zM300 650q0 -500 350 -500t350 500t-350 500t-350 -500zM700 1400l-300 350h150l250 -350h-100z" />
    <glyph glyph-name="ohorngrave" unicode="&#x1edd;" horiz-adv-x="1100" 
d="M550 1000q400 0 400 -500t-400 -500t-400 500t400 500zM550 150q250 0 250 350t-250 350t-250 -350t250 -350zM953 1151q100 0 100 -150q0 -191 -180 -201l-69 101h53q95 0 97 99q-100 0 -101 76q0 75 100 75zM700 1150h-100l-300 350h150z" />
    <glyph glyph-name="Ohornhookabove" unicode="&#x1ede;" horiz-adv-x="1300" 
d="M1113 1451q100 0 100 -150q0 -191 -180 -201l-69 101h53q95 0 97 99q-100 0 -101 76q0 75 100 75zM150 650q0 650 500 650t500 -650t-500 -650t-500 650zM300 650q0 -500 350 -500t350 500t-350 500t-350 -500zM700 1600q100 49 100 100q0 100 -125 100t-125 -50h-100
q0 150 225 150t225 -200q0 -101 -100 -150l-50 -25q-50 -26 -50 -125h-100q0 151 100 200z" />
    <glyph glyph-name="ohornhookabove" unicode="&#x1edf;" horiz-adv-x="1100" 
d="M550 1000q400 0 400 -500t-400 -500t-400 500t400 500zM550 150q250 0 250 350t-250 350t-250 -350t250 -350zM953 1151q100 0 100 -150q0 -191 -180 -201l-69 101h53q95 0 97 99q-100 0 -101 76q0 75 100 75zM600 1350q100 49 100 100q0 100 -125 100t-125 -50h-100
q0 150 225 150t225 -200q0 -101 -100 -150l-50 -25q-50 -26 -50 -125h-100q0 151 100 200z" />
    <glyph glyph-name="Ohorntilde" unicode="&#x1ee0;" horiz-adv-x="1300" 
d="M1113 1451q100 0 100 -150q0 -191 -180 -201l-69 101h53q95 0 97 99q-100 0 -101 76q0 75 100 75zM150 650q0 650 500 650t500 -650t-500 -650t-500 650zM300 650q0 -500 350 -500t350 500t-350 500t-350 -500zM796 1450q-98 0 -175 50t-125 50q-49 0 -49 -100h-101
q0 200 150 200q98 0 175 -50t125 -50q50 0 50 100h100q0 -200 -150 -200z" />
    <glyph glyph-name="ohorntilde" unicode="&#x1ee1;" horiz-adv-x="1100" 
d="M550 1000q400 0 400 -500t-400 -500t-400 500t400 500zM550 150q250 0 250 350t-250 350t-250 -350t250 -350zM953 1151q100 0 100 -150q0 -191 -180 -201l-69 101h53q95 0 97 99q-100 0 -101 76q0 75 100 75zM696 1200q-98 0 -175 50t-125 50q-49 0 -49 -100h-101
q0 200 150 200q98 0 175 -50t125 -50q50 0 50 100h100q0 -200 -150 -200z" />
    <glyph glyph-name="Ohorndotbelow" unicode="&#x1ee2;" horiz-adv-x="1300" 
d="M1113 1451q100 0 100 -150q0 -191 -180 -201l-69 101h53q95 0 97 99q-100 0 -101 76q0 75 100 75zM150 650q0 650 500 650t500 -650t-500 -650t-500 650zM300 650q0 -500 350 -500t350 500t-350 500t-350 -500zM575 -150h150v-150h-150v150z" />
    <glyph glyph-name="ohorndotbelow" unicode="&#x1ee3;" horiz-adv-x="1100" 
d="M953 1151q100 0 100 -150q0 -179 -159 -199q56 -117 56 -302q0 -500 -400 -500t-400 500t400 500q178 0 276 -99h31q95 0 97 99q-100 0 -101 76q0 75 100 75zM550 150q250 0 250 350t-250 350t-250 -350t250 -350zM475 -150h150v-150h-150v150z" />
    <glyph glyph-name="Udotbelow" unicode="&#x1ee4;" horiz-adv-x="1200" 
d="M600 0q-450 0 -450 400v900h150v-900q0 -250 300 -250t300 250v900h150v-900q0 -400 -450 -400zM525 -150h150v-150h-150v150z" />
    <glyph glyph-name="udotbelow" unicode="&#x1ee5;" horiz-adv-x="1100" 
d="M550 150q250 0 250 250v600h150v-1000h-150v100q-100 -100 -250 -100q-400 0 -400 400v600h150v-600q0 -250 250 -250zM475 -150h150v-150h-150v150z" />
    <glyph glyph-name="Uhookabove" unicode="&#x1ee6;" horiz-adv-x="1200" 
d="M600 0q-450 0 -450 400v900h150v-900q0 -250 300 -250t300 250v900h150v-900q0 -400 -450 -400zM650 1600q100 49 100 100q0 100 -125 100t-125 -50h-100q0 150 225 150t225 -200q0 -101 -100 -150l-50 -25q-50 -26 -50 -125h-100q0 151 100 200z" />
    <glyph glyph-name="uhookabove" unicode="&#x1ee7;" horiz-adv-x="1100" 
d="M550 150q250 0 250 250v600h150v-1000h-150v100q-100 -100 -250 -100q-400 0 -400 400v600h150v-600q0 -250 250 -250zM600 1350q100 49 100 100q0 100 -125 100t-125 -50h-100q0 150 225 150t225 -200q0 -101 -100 -150l-50 -25q-50 -26 -50 -125h-100q0 151 100 200z
" />
    <glyph glyph-name="Uhornacute" unicode="&#x1ee8;" horiz-adv-x="1200" 
d="M1200 1500q100 0 100 -150q0 -200 -200 -200h-50v-750q0 -400 -450 -400t-450 400v900h150v-900q0 -250 300 -250t300 250v900h150v-50h50q100 0 100 100q-100 0 -100 75t100 75zM550 1400h-100l200 400h150z" />
    <glyph glyph-name="uhornacute" unicode="&#x1ee9;" horiz-adv-x="1100" 
d="M1100 1200q100 0 100 -150q0 -200 -200 -200h-50v-850h-150v100q-100 -100 -250 -100q-400 0 -400 400v600h150v-600q0 -250 250 -250t250 250v600h150v-50h50q100 0 100 100q-100 0 -100 75t100 75zM500 1150h-100l200 400h150z" />
    <glyph glyph-name="Uhorngrave" unicode="&#x1eea;" horiz-adv-x="1200" 
d="M1200 1500q100 0 100 -150q0 -200 -200 -200h-50v-750q0 -400 -450 -400t-450 400v900h150v-900q0 -250 300 -250t300 250v900h150v-50h50q100 0 100 100q-100 0 -100 75t100 75zM700 1400l-300 350h150l250 -350h-100z" />
    <glyph glyph-name="uhorngrave" unicode="&#x1eeb;" horiz-adv-x="1100" 
d="M1100 1200q100 0 100 -150q0 -200 -200 -200h-50v-850h-150v100q-100 -100 -250 -100q-400 0 -400 400v600h150v-600q0 -250 250 -250t250 250v600h150v-50h50q100 0 100 100q-100 0 -100 75t100 75zM700 1150h-100l-300 350h150z" />
    <glyph glyph-name="Uhornhookabove" unicode="&#x1eec;" horiz-adv-x="1200" 
d="M1200 1500q100 0 100 -150q0 -200 -200 -200h-50v-750q0 -400 -450 -400t-450 400v900h150v-900q0 -250 300 -250t300 250v900h150v-50h50q100 0 100 100q-100 0 -100 75t100 75zM650 1600q100 49 100 100q0 100 -125 100t-125 -50h-100q0 150 225 150t225 -200
q0 -101 -100 -150l-50 -25q-50 -26 -50 -125h-100q0 151 100 200z" />
    <glyph glyph-name="uhornhookabove" unicode="&#x1eed;" horiz-adv-x="1100" 
d="M1100 1200q100 0 100 -150q0 -200 -200 -200h-50v-850h-150v100q-100 -100 -250 -100q-400 0 -400 400v600h150v-600q0 -250 250 -250t250 250v600h150v-50h50q100 0 100 100q-100 0 -100 75t100 75zM600 1350q100 49 100 100q0 100 -125 100t-125 -50h-100
q0 150 225 150t225 -200q0 -101 -100 -150l-50 -25q-50 -26 -50 -125h-100q0 151 100 200z" />
    <glyph glyph-name="Uhorntilde" unicode="&#x1eee;" horiz-adv-x="1200" 
d="M1200 1500q100 0 100 -150q0 -200 -200 -200h-50v-750q0 -400 -450 -400t-450 400v900h150v-900q0 -250 300 -250t300 250v900h150v-50h50q100 0 100 100q-100 0 -100 75t100 75zM796 1450q-98 0 -175 50t-125 50q-49 0 -49 -100h-101q0 200 150 200q98 0 175 -50
t125 -50q50 0 50 100h100q0 -200 -150 -200z" />
    <glyph glyph-name="uhorntilde" unicode="&#x1eef;" horiz-adv-x="1100" 
d="M1100 1200q100 0 100 -150q0 -200 -200 -200h-50v-850h-150v100q-100 -100 -250 -100q-400 0 -400 400v600h150v-600q0 -250 250 -250t250 250v600h150v-50h50q100 0 100 100q-100 0 -100 75t100 75zM696 1200q-98 0 -175 50t-125 50q-49 0 -49 -100h-101q0 200 150 200
q98 0 175 -50t125 -50q50 0 50 100h100q0 -200 -150 -200z" />
    <glyph glyph-name="Uhorndotbelow" unicode="&#x1ef0;" horiz-adv-x="1200" 
d="M1200 1500q100 0 100 -150q0 -200 -200 -200h-50v-750q0 -400 -450 -400t-450 400v900h150v-900q0 -250 300 -250t300 250v900h150v-50h50q100 0 100 100q-100 0 -100 75t100 75zM525 -150h150v-150h-150v150z" />
    <glyph glyph-name="uhorndotbelow" unicode="&#x1ef1;" horiz-adv-x="1100" 
d="M1100 1200q100 0 100 -150q0 -200 -200 -200h-50v-850h-150v100q-100 -100 -250 -100q-400 0 -400 400v600h150v-600q0 -250 250 -250t250 250v600h150v-50h50q100 0 100 100q-100 0 -100 75t100 75zM475 -150h150v-150h-150v150z" />
    <glyph glyph-name="Ygrave" unicode="&#x1ef2;" horiz-adv-x="1101" 
d="M65 1300h176l309 -509l322 509h176l-423 -670v-630h-149v629zM650 1400l-300 350h150l250 -350h-100z" />
    <glyph glyph-name="ygrave" unicode="&#x1ef3;" horiz-adv-x="1100" 
d="M258 -400l209 489l-377 911h162l298 -716l306 716h163l-598 -1400h-163zM700 1150h-100l-300 350h150z" />
    <glyph glyph-name="Ydotbelow" unicode="&#x1ef4;" horiz-adv-x="1101" 
d="M65 1300h176l309 -509l322 509h176l-423 -670v-630h-149v629zM475 -150h150v-150h-150v150z" />
    <glyph glyph-name="ydotbelow" unicode="&#x1ef5;" horiz-adv-x="1100" 
d="M258 -400l209 489l-377 911h162l298 -716l306 716h163l-598 -1400h-163zM585 -250h150v-150h-150v150z" />
    <glyph glyph-name="Yhookabove" unicode="&#x1ef6;" horiz-adv-x="1101" 
d="M65 1300h176l309 -509l322 509h176l-423 -670v-630h-149v629zM600 1600q100 49 100 100q0 100 -125 100t-125 -50h-100q0 150 225 150t225 -200q0 -101 -100 -150l-50 -25q-50 -26 -50 -125h-100q0 151 100 200z" />
    <glyph glyph-name="yhookabove" unicode="&#x1ef7;" horiz-adv-x="1100" 
d="M258 -400l209 489l-377 911h162l298 -716l306 716h163l-598 -1400h-163zM600 1350q100 49 100 100q0 100 -125 100t-125 -50h-100q0 150 225 150t225 -200q0 -101 -100 -150l-50 -25q-50 -26 -50 -125h-100q0 151 100 200z" />
    <glyph glyph-name="Ytilde" unicode="&#x1ef8;" horiz-adv-x="1101" 
d="M65 1300h176l309 -509l322 509h176l-423 -670v-630h-149v629zM696 1450q-98 0 -175 50t-125 50q-49 0 -49 -100h-101q0 200 150 200q98 0 175 -50t125 -50q50 0 50 100h100q0 -200 -150 -200z" />
    <glyph glyph-name="ytilde" unicode="&#x1ef9;" horiz-adv-x="1100" 
d="M258 -400l209 489l-377 911h162l298 -716l306 716h163l-598 -1400h-163zM696 1200q-98 0 -175 50t-125 50q-49 0 -49 -100h-101q0 200 150 200q98 0 175 -50t125 -50q50 0 50 100h100q0 -200 -150 -200z" />
    <glyph glyph-name="dong" unicode="&#x20ab;" horiz-adv-x="1050" 
d="M501 1300q155 0 250 -74v175h-199v149h199v100h150v-100h100v-149h-100v-1101h-150v76q-96 -75 -250 -76q-400 0 -400 500t400 500zM501 450q249 0 250 350q0 350 -249 350q-251 0 -251 -350t250 -350zM152 1v149h749v-149h-749z" />
    <glyph glyph-name="Amacron" unicode="&#x100;" horiz-adv-x="1100" 
d="M1062 0h-157l-127 400h-451l-123 -400h-156l402 1300h200zM731 550l-181 574l-176 -574h357zM900 1500h-700v100h700v-100z" />
    <glyph glyph-name="amacron" unicode="&#x101;" horiz-adv-x="1050" 
d="M100 300q0 350 550 350h101v51q0 150 -251 150q-161 0 -349 -50v150q189 50 350 50q400 0 400 -300v-700h-150v159l-13 -10q-188 -150 -338 -150q-300 0 -300 300zM651 500q-400 0 -400 -200q0 -149 150 -149q99 0 224 99l125 100l1 -3v153h-100zM900 1200h-700v100h700
v-100z" />
    <glyph glyph-name="Imacron" unicode="&#x12a;" horiz-adv-x="650" 
d="M250 150v1000h-150v150h450v-150h-150v-1000h150v-150h-450v150h150zM650 1500h-650v100h650v-100z" />
    <glyph glyph-name="imacron" unicode="&#x12b;" horiz-adv-x="450" 
d="M150 1000h150v-1000h-150v1000zM500 1200h-550v100h550v-100z" />
    <glyph glyph-name="Sacute" unicode="&#x15a;" horiz-adv-x="1100" 
d="M551 151q248 0 250 249q0 200 -246 200h-4q-401 0 -401 350q0 351 400 351q251 0 351 -100v-201q-101 150 -350 150q-250 0 -250 -200t250 -200h3q396 0 396 -349q0 -400 -399 -401q-253 0 -401 100v200q152 -149 401 -149zM550 1400h-100l200 400h150z" />
    <glyph glyph-name="sacute" unicode="&#x15b;" horiz-adv-x="1050" 
d="M551 151q249 0 249 135q0 134 -249 134q-401 0 -401 290q0 291 400 291q251 0 351 -100v-201q-101 150 -350 150q-250 0 -250 -140t250 -140q399 0 399 -285t-399 -285q-253 0 -401 100v200q152 -149 401 -149zM500 1150h-100l200 400h150z" />
    <glyph glyph-name="Umacron" unicode="&#x16a;" horiz-adv-x="1200" 
d="M600 0q-450 0 -450 400v900h150v-900q0 -250 300 -250t300 250v900h150v-900q0 -400 -450 -400zM950 1500h-700v100h700v-100z" />
    <glyph glyph-name="umacron" unicode="&#x16b;" horiz-adv-x="1100" 
d="M550 150q250 0 250 250v600h150v-1000h-150v100q-100 -100 -250 -100q-400 0 -400 400v600h150v-600q0 -250 250 -250zM900 1200h-700v100h700v-100z" />
    <glyph glyph-name="Ddotbelow" unicode="&#x1e0c;" horiz-adv-x="1150" 
d="M1050 650q0 -650 -500 -650h-400v1300h400q500 0 500 -650zM900 650q0 500 -350 500h-250v-1000h250q350 0 350 500zM525 -150h150v-150h-150v150z" />
    <glyph glyph-name="ddotbelow" unicode="&#x1e0d;" horiz-adv-x="1050" 
d="M500 1000q155 0 250 -74v374h150v-1300h-150v76q-96 -75 -250 -76q-400 0 -400 500t400 500zM500 150q250 0 250 350t-249 350q-251 0 -251 -350t250 -350zM475 -150h150v-150h-150v150z" />
    <glyph glyph-name="Hdotbelow" unicode="&#x1e24;" horiz-adv-x="1100" 
d="M800 650h-500v-650h-150v1300h150v-500h500v500h150v-1300h-150v650zM475 -150h150v-150h-150v150z" />
    <glyph glyph-name="hdotbelow" unicode="&#x1e25;" horiz-adv-x="1100" 
d="M300 900q100 100 250 100q400 0 400 -400v-600h-150v600q0 250 -250 250t-250 -250v-600h-150v1300h150v-400zM475 -150h150v-150h-150v150z" />
    <glyph glyph-name="Ldotbelow" unicode="&#x1e36;" horiz-adv-x="900" 
d="M150 1300h150v-1150h500v-150h-650v1300zM405 -150h150v-150h-150v150z" />
    <glyph glyph-name="ldotbelow" unicode="&#x1e37;" horiz-adv-x="450" 
d="M150 1300h150v-1300h-150v1300zM150 -150h150v-150h-150v150z" />
    <glyph glyph-name="Ldotbelowmacron" unicode="&#x1e38;" horiz-adv-x="900" 
d="M150 1300h150v-1150h500v-150h-650v1300zM405 -150h150v-150h-150v150zM800 1500h-650v100h650v-100z" />
    <glyph glyph-name="ldotbelowmacron" unicode="&#x1e39;" horiz-adv-x="450" 
d="M500 1500h-550v100h550v-100zM150 1300h150v-1300h-150v1300zM150 -150h150v-150h-150v150z" />
    <glyph glyph-name="Mdotabove" unicode="&#x1e40;" horiz-adv-x="1300" 
d="M1000 1003l-350 -603l-350 603v-1003h-150v1300h150l350 -601l350 601h150v-1300h-150v1003zM725 1450h-150v150h150v-150z" />
    <glyph glyph-name="mdotabove" unicode="&#x1e41;" horiz-adv-x="1550" 
d="M300 913q84 87 200 87q215 0 298 -153q97 153 252 153q350 0 350 -400v-600h-150v600q0 250 -200 250t-200 -250v-600h-150v600q0 250 -200 250t-200 -250v-600h-150v1000h150v-87zM851 1200h-150v150h150v-150z" />
    <glyph glyph-name="Mdotbelow" unicode="&#x1e42;" horiz-adv-x="1300" 
d="M1000 1003l-350 -603l-350 603v-1003h-150v1300h150l350 -601l350 601h150v-1300h-150v1003zM725 -300h-150v150h150v-150z" />
    <glyph glyph-name="mdotbelow" unicode="&#x1e43;" horiz-adv-x="1550" 
d="M300 913q84 87 200 87q215 0 298 -153q97 153 252 153q350 0 350 -400v-600h-150v600q0 250 -200 250t-200 -250v-600h-150v600q0 250 -200 250t-200 -250v-600h-150v1000h150v-87zM851 -300h-150v150h150v-150z" />
    <glyph glyph-name="Ndotabove" unicode="&#x1e44;" horiz-adv-x="1100" 
d="M300 976v-976h-150v1300h151l499 -972v972h150v-1300h-151zM625 1450h-150v150h150v-150z" />
    <glyph glyph-name="ndotabove" unicode="&#x1e45;" horiz-adv-x="1100" 
d="M300 900q100 100 250 100q400 0 400 -400v-600h-150v600q0 250 -250 250t-250 -250v-600h-150v1000h150v-100zM631 1200h-150v150h150v-150z" />
    <glyph glyph-name="Ndotbelow" unicode="&#x1e46;" horiz-adv-x="1100" 
d="M300 976v-976h-150v1300h151l499 -972v972h150v-1300h-151zM625 -300h-150v150h150v-150z" />
    <glyph glyph-name="ndotbelow" unicode="&#x1e47;" horiz-adv-x="1100" 
d="M300 900q100 100 250 100q400 0 400 -400v-600h-150v600q0 250 -250 250t-250 -250v-600h-150v1000h150v-100zM631 -300h-150v150h150v-150z" />
    <glyph glyph-name="Rdotbelow" unicode="&#x1e5a;" horiz-adv-x="1100" 
d="M500 1300q450 0 450 -400q0 -289 -236 -370l387 -530h-186l-365 501q-1 -1 -12 -1h-238v-500h-150v1300h350zM800 900q0 250 -300 250h-200v-500h200q300 0 300 250zM625 -300h-150v150h150v-150z" />
    <glyph glyph-name="rdotbelow" unicode="&#x1e5b;" horiz-adv-x="700" 
d="M300 888q115 112 300 112h100v-150h-100q-300 0 -300 -250v-600h-150v1000h150v-112zM150 -150h150v-150h-150v150z" />
    <glyph glyph-name="Rdotbelowmaron" unicode="&#x1e5c;" horiz-adv-x="1100" 
d="M500 1300q450 0 450 -400q0 -289 -236 -370l387 -530h-186l-365 501q-1 -1 -12 -1h-238v-500h-150v1300h350zM800 900q0 250 -300 250h-200v-500h200q300 0 300 250zM625 -300h-150v150h150v-150zM900 1500h-700v100h700v-100z" />
    <glyph glyph-name="rdotbelowmacron" unicode="&#x1e5d;" horiz-adv-x="700" 
d="M300 888q115 112 300 112h100v-150h-100q-300 0 -300 -250v-600h-150v1000h150v-112zM150 -150h150v-150h-150v150zM700 1200h-550v100h550v-100z" />
    <glyph glyph-name="Sdotbelow" unicode="&#x1e62;" horiz-adv-x="1100" 
d="M551 151q248 0 250 249q0 200 -246 200h-4q-401 0 -401 350q0 351 400 351q251 0 351 -100v-201q-101 150 -350 150q-250 0 -250 -200t250 -200h3q396 0 396 -349q0 -400 -399 -401q-253 0 -401 100v200q152 -149 401 -149zM475 -150h150v-150h-150v150z" />
    <glyph glyph-name="sdotbelow" unicode="&#x1e63;" horiz-adv-x="1050" 
d="M551 151q249 0 249 135q0 134 -249 134q-401 0 -401 290q0 291 400 291q251 0 351 -100v-201q-101 150 -350 150q-250 0 -250 -140t250 -140q399 0 399 -285t-399 -285q-253 0 -401 100v200q152 -149 401 -149zM631 -300h-150v150h150v-150z" />
    <glyph glyph-name="Tdotbelow" unicode="&#x1e6c;" horiz-adv-x="1050" 
d="M50 1150v150h950v-150h-400v-1150h-150v1150h-400zM600 -300h-150v150h150v-150z" />
    <glyph glyph-name="tdotbelow" unicode="&#x1e6d;" horiz-adv-x="601" 
d="M150 1000v300h150v-300h250v-150h-250v-500q0 -200 151 -200h149v-150h-150q-300 0 -300 349v501h-129v150h129zM250 -150h150v-150h-150v150z" />
    <glyph glyph-name="uni1780.sub" 
d="M-1458 -762q-19 -88 -96 -88h-1q-59 0 -59 63q0 19 5 43l72 335q16 81 87 174q72 92 190 120q67 16 129 16q49 0 96 -10q106 -21 209 -62t206 -124q104 -83 127 -178q12 -45 12 -97q0 -57 -14 -122l-15 -67q-11 -45 -35 -68t-63 -23q-38 0 -52 26q-13 26 -2 78l19 85
q19 89 5 146q-14 56 -89 115q-75 60 -158 93t-167 50q-84 16 -161 -1t-122 -75q-45 -59 -54 -114z" />
    <glyph glyph-name="uni1781.sub" 
d="M-1451 -376q-76 0 -56 93q18 91 150 137q133 45 381 45t359 -60q91 -48 91 -138q0 -20 -5 -43q-17 -79 -148 -129q-132 -51 -379 -72q-180 -15 -274 -39q-93 -23 -100 -55q-6 -32 76 -47q82 -16 253 -16t260 18t97 55q16 74 92 73q75 -1 59 -106q-22 -95 -157 -143
q-136 -47 -383 -47q-248 0 -361 52q-93 44 -93 124q0 16 3 33q23 105 149 167q127 62 358 81q196 16 297 38q100 22 106 49q5 28 -77 41q-83 14 -254 14t-260 -16q-88 -15 -95 -47q-13 -62 -89 -62z" />
    <glyph glyph-name="uni1782.sub" 
d="M-1460 -770q-20 -80 -94 -80h-1q-59 0 -59 63q0 19 5 43l72 335q16 81 87 174q72 92 190 120q67 16 129 16q49 0 96 -10q106 -21 209 -62t206 -124q104 -83 127 -178q12 -45 12 -97q0 -57 -14 -122l-15 -67q-11 -45 -35 -68t-63 -23q-38 0 -52 26q-13 26 -2 78l19 85
q19 89 5 146q-14 56 -89 115q-75 60 -158 93t-167 50q-84 16 -161 -1t-122 -75q-45 -59 -54 -114l-18 -84q93 56 186 56t194 -59q72 -44 32 -107q-39 -63 -114 -18q-57 34 -110 34t-130 -48q-57 -42 -111 -97z" />
    <glyph glyph-name="uni1783.sub" horiz-adv-x="1007" 
d="M-379 -781q-86 -69 -221 -69q-206 0 -290 91q-83 91 -44 273l45 214q4 22 -34 22q-28 0 -28 -50q0 -80 -75 -80t-75 81q0 99 45 149t135 50q116 0 158 -50q43 -50 22 -150l-43 -200q-21 -100 25 -150t159 -50q170 0 202 186q29 122 -58 200l-44 39q-44 39 -26 107t147 68
q50 0 162 -37q81 -24 61.5 -96.5t-107.5 -44.5t-116 28q164 -112 130 -292q-20 -94 -61 -160q14 2 30 2h123q187 0 229 38q41 39 58 115l367 1734q26 118 107 213q87 100 221 100q95 0 157 -51.5t62 -125.5q0 -75 -30 -123q4 81 -56 116q-60 34 -120 34q-80 0 -126 -53
t-64 -140l-369 -1727q-30 -140 -109 -210t-333 -70h-117q-95 0 -99 69z" />
    <glyph glyph-name="uni1784.sub" 
d="M-1230 -425q0 -76 -99 -76q-50 0 -75 -24q-25 -25 -25 -75t76 -75t153 -25q212 0 342 125q131 125 178 225t82 295q45 -64 45 -178q0 -51 -10 -113q-30 -198 -199 -351q-169 -154 -438 -154q-157 0 -268 63q-112 63 -112 188t63 187q62 63 187 63q100 0 100 -75z" />
    <glyph glyph-name="uni1785.sub" 
d="M-756 -431q49 78 25 98q-23 20 -46 19q-22 0 -40 -43q-17 -42 10 -80q11 -14 27 -27q14 17 24 33zM-644 -534q60 -32 96 -70q55 -56 60 -124q1 -6 1 -11q0 -86 -142 -101q50 47 20 96q-27 45 -140 94q-41 -39 -92 -79q-76 -60 -167 -91q-90 -30 -194 -30h-9
q-118 0 -192 25q-76 27 -105 79q-31 59 -31 112q0 26 7 50q23 75 117 138q114 77 178 146q63 68 77 128q15 72 69 72q10 0 21 -3q73 -15 57 -99q-19 -89 -100 -182q-81 -92 -225 -188q-68 -50 -46 -89t179 -40q78 0 148 24q69 24 130 72q18 14 34 28q-24 17 -34 32
q-75 128 -25 256q50 127 178 124q69 1 146 -54q63 -45 66 -115q3 -69 -56 -162q-12 -19 -26 -38z" />
    <glyph glyph-name="uni1786.sub" 
d="M-1500 -650q0 -50 50 -50l32 150h-21q-21 0 -41 -25t-20 -75zM-1340 -167q14 67 91 67t59 -88l-44 -212q64 0 120 -38q58 -37 108 -112q101 -150 161 -150q47 0 89 38q41 39 57 115l19 100q12 53 -5 86q-15 31 -57 31q-55 0 -63 -47q-8 -36 27 -36q52 1 52 -74t-51 -76
q-111 0 -153 65q-40 62 -22 147t70 128t140 43q107 0 174 -79q47 -52 47 -135q0 -37 -9 -79l-21 -97q-30 -141 -107 -210q-79 -70 -187 -70q-70 0 -141 53q-72 53 -144 160q-56 87 -108 87h-27l-41 -184q-23 -116 -144 -116q-100 0 -150 50t-50 150q0 125 58 188
q57 62 153 62h50z" />
    <glyph glyph-name="uni1787.sub" 
d="M-688 -375q26 124 -44 124q-70 1 -77 -39q-8 -40 21 -75q23 -29 95 -34q3 12 5 24zM-540 -399l65 -1q100 -1 100 -76t-101 -75h-105q-36 -111 -82 -181q-77 -119 -179 -118q-146 0 -227 149q-106 -150 -259 -150q-147 0 -196 113q-25 58 -25 144q0 83 23 192
q32 151 108 226q75 75 193 76q99 -1 99 -76t-98 -75q-58 0 -95 -37q-37 -38 -54 -113q-31 -150 -19 -225q13 -74 70 -75q73 0 136 85q62 85 118 85t104 -85q47 -85 127 -85q40 0 77 82q14 31 28 74q-119 16 -174 88q-71 93 -48 193q17 82 73 122q56 41 152 41q126 0 174 -68
q49 -69 20 -206q-2 -12 -5 -24z" />
    <glyph glyph-name="uni1788.sub" horiz-adv-x="1002" 
d="M-352 -827q-68 -23 -151 -23q-206 0 -289 94t-44 282q23 112 3 168t-83 56q-93 0 -161 -98q-68 -99 -111 -296q-13 -56 35 -57q100 1 100 -74t-100 -75q-116 0 -162 58q-28 38 -28 99q0 33 8 74q54 259 159 389t262 130t214 -98q57 -99 15 -296q-22 -103 24 -154
q45 -52 158 -52q82 0 128 25q46 26 62 94l12 67q25 122 -62 200l-44 39q-44 39 -26 107t147 68q50 0 162 -37q81 -24 61.5 -96.5t-107.5 -44.5t-116 28q164 -112 134 -292l-11 -60q-12 -55 -34 -98h47q187 0 229 38q41 39 58 115l367 1734q26 118 107 213q87 100 221 100
q95 0 157 -51.5t62 -125.5q0 -75 -30 -123q4 81 -56 116q-60 34 -120 34q-80 0 -126 -53t-64 -140l-369 -1727q-30 -140 -109 -210t-333 -70h-117q-54 0 -79 23z" />
    <glyph glyph-name="uni1789.sub" 
d="M-510 -127q29 19 55 19q32 0 60 -30q41 -55 41 -139q0 -44 -12 -96q-32 -150 -163.5 -215t-342.5 -65q-201 0 -463 206q-157 124 -382 124q-232 0 -418 -158q59 182 167 245t254 63q257 0 472 -165t374 -165q148 0 240.5 27.5t108.5 102.5q15 75 -7 123q-48 80 16 123z
" />
    <glyph glyph-name="uni1789.sub.alt" 
d="M-861 -368l-26 -111q-18 -70 -93 -70q-76 0 -55 100l29 122q7 27 -40 52t-104 24q-57 0 -112 -50q-56 -49 -105 -49q-45 0 -143 50t-155 51q-123 2 -133 -50l-14 -49q-11 -52 55 -52q104 0 103.5 -75.5t-98.5 -76.5q-128 0 -180 51q-37 37 -37 98q0 25 6 54l9 50
q21 99 91 149q70 49 190 49q109 0 208 -46l94 -51q143 99 209 99q67 0 197 -63q46 -22 73 -50l184 80q109 32 196 32q86 0 210 -56q100 -41 141 -98q31 -42 31 -94q0 -18 -4 -38l-18 -80q-18 -84 -96 -84q-77 0 -55 101l18 78q12 54 -88 87q-99 34 -142 34t-125 -24z
M-257 -601q76 0 63 -76q-25 -112 -202 -168q-177 -55 -507 -55q-242 0 -486 35q-243 36 -366 71l-122 35q-84 25 -62 97t97 49l121 -34q121 -34 356 -69q235 -34 462 -34q269 0 408 25q140 24 150 73q11 52 88 51z" />
    <glyph glyph-name="uni178a.sub" 
d="M-1418 -555l-17 -77q-15 -70 30 -70q73 0 110 24t37 73q0 25 -35 38q-35 12 -105 13zM-1180 -789q-75 -61 -226 -61q-120 0 -166 70q-20 36 -20 91q0 38 9 84l43 196q16 81 87 174q72 92 190 120q67 16 129 16q49 0 96 -10q106 -21 209 -62t206 -124q104 -83 127 -178
q12 -45 12 -97q0 -57 -14 -122l-15 -67q-11 -45 -35 -68t-63 -23q-38 0 -52 26q-13 26 -2 78l19 85q19 89 5 146q-14 56 -89 115q-75 60 -158 93t-167 50q-84 16 -161 -1t-122 -75q-45 -59 -47 -74q140 0 210 -49q70 -50 70 -149q0 -122 -75 -184z" />
    <glyph glyph-name="uni178b.sub" 
d="M-1535 -512q12 -94 49 -141q38 -47 101 -48q57 0 106 39q49 38 92 116l55 98l-406 -42zM-1738 -288q-26 38 -70 37q-86 0 -83 -62q1 -31 100 -36q34 -2 80 -1q-10 39 -27 62zM-944 -523q49 -89 95 -133q47 -45 91 -45q44 1 80 67t65 199l9 40l-388 -39zM-1689 -504
q-156 -8 -244 29q-103 45 -106 154v14q0 100 55 151q58 55 178 56q110 0 172 -65q58 -60 73 -176l66 6l924 94l15 71q18 77 77 77q8 0 16 -2q73 -13 57 -101l-6 -28l97 9q100 10 109 -64q1 -6 1 -12q0 -63 -91 -73l-153 -15l-24 -97q-36 -187 -107 -281t-177 -94
q-91 0 -167 57t-137 170q-65 -113 -146 -170q-80 -57 -175 -57q-132 0 -207 75q-76 75 -95 226z" />
    <glyph glyph-name="uni178c.sub" 
d="M-1399 -503q-74 0 -126 51q-37 37 -37 98q0 25 6 54q20 99 90 149q70 49 130 49q119 0 208 -46l94 -51q133 99 209 99q87 0 185 -65q77 -51 77 -139q0 -24 -6 -51q-15 -77 -121.5 -142.5t-303.5 -120.5l-284 -79q32 -42 216 -1l141 34q141 34 177 -6q37 -40 10 -160
l-27 -121q-17 -84 -75 -84q-9 0 -19 1q-74 14 -51 118l22 107l-146 -34q-140 -32 -236 -15q-95 18 -146 84q-59 83 -46 137q14 54 101 79l318 83q308 87 320 147q7 27 -25 52t-89 24q-67 0 -122 -50q-46 -49 -95 -49q-45 0 -133 50q-78 50 -145 51q-63 2 -77 -49
q-9 -52 13 -52q82 0 81.5 -75.5t-88.5 -76.5z" />
    <glyph glyph-name="uni178d.sub" horiz-adv-x="1002" 
d="M-1476 -555l-17 -77q-15 -70 30 -70q73 0 110 24t37 73q0 25 -35 38q-35 12 -105 13zM501 1187q26 118 107 213q87 100 221 100q95 0 157 -51.5t62 -125.5q0 -75 -30 -123q4 81 -56 116q-60 34 -120 34q-80 0 -126 -53t-64 -140l-368 -1727q-30 -140 -109 -210t-173 -70
q-34 0 -237 125t-264 125t-116 -100q-86 -150 -159 -150t-54 92l20 92l56 263q14 61 -21 99q-34 37 -91 37q-47 0 -102 -50q-56 -49 -105 -49q-45 0 -143 50t-135 51q-63 2 -73 -50l-21 -92q140 0 210 -49q70 -50 70 -149q0 -122 -75 -184q-75 -61 -226 -61q-120 0 -166 70
q-20 36 -20 91q0 38 9 84l63 290q21 99 91 149q70 49 130 49q89 0 188 -46l94 -51q143 99 199 99q67 0 189 -63q61 -32 82 -96q21 -63 2 -158l-12 -52q34 34 117 34q103 0 321 -137l185 -113q27 0 69 38q41 39 58 115z" />
    <glyph glyph-name="uni178e.sub" 
d="M-2908 -555l-17 -77q-15 -70 30 -70q73 0 110 24t37 73q0 25 -35 38q-35 12 -105 13zM-2140 -489q-21 44 -80 89q-75 60 -158 93t-167 50q-84 16 -161 -1t-122 -75q-45 -59 -47 -74q140 0 210 -49q70 -50 70 -149q0 -122 -75 -184q-75 -61 -226 -61q-120 0 -166 70
q-20 36 -20 91q0 38 9 84l43 196q16 81 87 174q72 92 190 120q67 16 129 16q49 0 96 -10q106 -21 209 -62t206 -124q104 -83 127 -178q2 -5 3 -9q34 32 115 32q103 0 261 -137l125 -113q27 0 69 38q41 39 75 186q34 148 105 241q72 92 190 120q55 16 110 16q43 0 85 -10
q162 -53 265 -136q104 -83 128 -193q11 -52 11 -112q0 -66 -14 -142l-15 -67q-11 -45 -35 -68t-63 -23q-38 0 -52 26q-13 26 -2 78l19 85q19 109 5 180.5t-89 130.5q-75 60 -175 93q-74 16 -131 -1q-77 -17 -122 -75q-45 -59 -63 -139l-18 -79q-37 -159 -116 -229t-173 -70
q-34 0 -177 125t-204 125t-116 -100q-86 -150 -159 -150t-54 92l20 92z" />
    <glyph glyph-name="uni178f.sub" 
d="M-1418 -555l-17 -77q-15 -70 30 -70q73 0 110 24t37 73q0 25 -35 38q-35 12 -105 13zM-1180 -789q-75 -61 -226 -61q-120 0 -166 70q-20 36 -20 91q0 38 9 84l43 196q16 81 87 174q72 92 190 120q67 16 129 16q49 0 96 -10q106 -21 209 -62t206 -124q104 -83 127 -178
q12 -45 12 -97q0 -57 -14 -122l-15 -67q-11 -45 -35 -68t-63 -23q-38 0 -52 26q-13 26 -2 78l19 85q19 89 5 146q-14 56 -89 115q-75 60 -158 93t-167 50q-84 16 -161 -1t-122 -75q-45 -59 -47 -74q140 0 210 -49q70 -50 70 -149q0 -122 -75 -184z" />
    <glyph glyph-name="uni1790.sub" 
d="M-1051 -601q0 -100 -49 -150q-50 -50 -150 -50q-175 0 -263 88q-88 87 -88 262t100 263q100 87 330 88q202 0 398 -158q153 -123 290 -404q20 -44 20 -78q0 -45 -36 -70q-17 -12 -33 -12q-42 0 -79 80q-112 246 -250 369q-147 123 -310 123q-155 0 -217 -50t-62 -150
t50 -150t151 -50q49 0 49 50q0 99 74 99q75 1 75 -100z" />
    <glyph glyph-name="uni1791.sub" 
d="M-1037 -97q71 -17 51 -106q-20 -99 -82 -169q-62 -69 -166 -109q-69 -27 -79 -71t56 -97q66 -52 134 -52q58 0 288 386q93 128 179 92q62 -25 62 -112q0 -35 -10 -80l-41 -196q-31 -138 -144 -246q-20 187 -1 281l20 93q-99 -183 -190 -275q-90 -92 -172 -92
q-113 0 -235 97q-61 49 -85 106q-14 35 -14 74q0 24 5 48q14 65 56 110q41 46 111 72q69 27 110 69t55 101q17 79 71 79q10 0 21 -3z" />
    <glyph glyph-name="uni1792.sub" 
d="M-969 -426l49 -55q69 -75 124 -107q56 -33 98 -22q43 11 63 83q19 73 11 180q0 49 21 72q-183 -85 -366 -151zM-1451 -565q-73 -19 -46 -42q33 -30 80 -67q48 -37 110 -23q55 13 94 33q38 19 62 105l23 79q-161 -50 -323 -85zM-551 -253q74 5 79 -85q2 -25 2 -50
q0 -143 -41 -236q-48 -108 -151 -132q-88 -21 -175 17q-88 37 -173 133q-37 -125 -107 -166q-60 -48 -153 -70q-45 -11 -86 -11q-74 0 -132 36q-92 55 -145 138q-30 46 -30 87q0 27 13 52q63 103 151 114q438 68 896 316q41 23 69 23q37 0 51 -40q7 -15 7 -30q0 -52 -74 -93
q-3 -1 -7 -3h6z" />
    <glyph glyph-name="uni1793.sub" 
d="M-722 -351h-708q-66 0 -104 -25q-39 -25 -49 -74q-10 -50 32 -75t136 -25q188 0 378 50q133 36 293 46zM-585 -701q58 1 68 50q10 50 -88 51h-10q-12 -101 30 -101zM-586 -450q128 -3 182 -62q58 -61 33 -185q-18 -77 -69 -115q-52 -39 -137 -39q-125 0 -168 92
q-27 58 -22 153q-122 -11 -227 -38q-214 -57 -423 -57q-185 0 -262 71q-54 51 -54 138q0 35 8 75q20 108 94 162q73 54 200 54h742l45 205q20 89 78 89q8 0 17 -2q72 -16 51 -119l-36 -173h160q96 1 96 -75q0 -75 -96 -75h-192z" />
    <glyph glyph-name="uni1794.sub" horiz-adv-x="1002" 
d="M489 1187q26 118 107 213q87 100 221 100q95 0 157 -51.5t62 -125.5q0 -75 -30 -123q4 81 -56 116q-60 34 -120 34q-80 0 -126 -53t-64 -140l-368 -1727q-30 -140 -109 -210t-173 -70q-34 0 -237 125t-264 125t-116 -100q-86 -150 -159 -150q-57 0 -57 58q0 16 3 34
l20 92l106 497q14 69 91 69t56 -100l-60 -284q34 34 117 34q103 0 321 -137l185 -113q27 0 69 38q41 39 58 115z" />
    <glyph glyph-name="uni1795.sub" 
d="M-1375 -484q34 34 130 34q81 0 137 -38q58 -37 108 -92q101 -120 181 -120q57 0 99 38q41 39 57 115l19 100q12 53 -5 86q-15 31 -57 31q-55 0 -63 -47q-8 -36 27 -36q52 1 52 -74t-51 -76q-111 0 -153 65q-40 62 -22 147t70 128t140 43q107 0 174 -79q47 -52 47 -135
q0 -37 -9 -79l-21 -97q-30 -141 -107 -210q-79 -70 -197 -70q-90 0 -161 53q-72 53 -144 130q-56 67 -122 67q-74 0 -129 -100q-86 -150 -159 -150q-57 0 -57 58q0 16 3 34l20 92l102 470q21 96 98 96q76 0 52 -114z" />
    <glyph glyph-name="uni1796.sub" 
d="M-1418 -555l-17 -77q-15 -70 30 -70q73 0 110 24t37 73q0 25 -35 38q-35 12 -105 13zM-1180 -789q-75 -61 -226 -61q-120 0 -166 70q-20 36 -20 91q0 38 9 84l63 290q21 99 91 149q70 49 130 49q89 0 188 -46l94 -51q143 99 199 99q67 0 189 -63q94 -48 94 -170
q0 -38 -10 -84l-76 -348q-18 -70 -93 -70q-76 0 -55 100l75 347q14 61 -20.5 98.5t-91.5 37.5q-47 0 -102 -50q-56 -49 -105 -49q-45 0 -143 50t-135 51q-63 2 -73 -50l-21 -92q140 0 210 -49q70 -50 70 -149q0 -122 -75 -184z" />
    <glyph glyph-name="uni1797.sub" 
d="M-1580 -552q-64 28 -101 31t-48 -20q-20 -44 4 -82q24 -37 91 -67q41 -18 56 52l16 77zM-1875 -676q-19 41 -19 86q0 53 26 112q41 90 125 107q84 16 212 -41l2 13q14 71 85 164q72 92 190 120q67 16 129 16q49 0 96 -10q106 -21 209 -62t206 -124q104 -83 127 -178
q12 -45 12 -97q0 -57 -14 -122l-15 -67q-11 -45 -35 -68t-63 -23q-38 0 -52 26q-13 26 -2 78l19 85q19 89 5 146q-14 56 -89 115q-75 60 -158 93t-167 50q-84 16 -161 -1t-122 -75q-45 -59 -47 -74l-56 -267q-26 -115 -82 -155q-33 -21 -76 -21q-47 0 -104 25
q-138 62 -181 149z" />
    <glyph glyph-name="uni1798.sub" 
d="M-566 -578q-26 -123 61 -123q78 0 98 100q20 101 -128 101h-14zM-705 -511q-119 -17 -250 -55q-293 -85 -522 -85q-185 0 -262 71q-54 51 -54 144q0 39 9 85q19 85 208 203l-57 -223q-17 -79 25 -104t133 -25q208 0 466 75q179 52 337 68l82 391q20 89 78 89q8 0 17 -2
q72 -16 51 -119l-74 -352q150 -3 216 -80q50 -56 50 -141q0 -35 -9 -76q-24 -104 -88 -154q-63 -50 -148 -50q-155 0 -198 92q-44 92 -18 212z" />
    <glyph glyph-name="uni1799.sub" horiz-adv-x="1007" 
d="M524 1187q26 118 107 213q87 100 221 100q95 0 157 -51.5t62 -125.5q0 -75 -30 -123q4 81 -56 116q-60 34 -120 34q-80 0 -126 -53t-64 -140l-330 -1535q-100 -472 -512 -472q-330 0 -471 116q-103 86 -103 237q0 52 12 112l27 124q17 81 71 121t145 40q113 0 156 -67
t22 -161q-17 -72 -93 -72t-57 93q13 57 -47 57q-41 0 -51 -48l-21 -100q-32 -151 70 -227q103 -75 340 -75q288 0 361 345z" />
    <glyph glyph-name="uni179a.sub" horiz-adv-x="650" 
d="M1064 -457q-397 0 -611 244q-151 174 -186 460q-10 78 -10 170q0 244 68 582q105 497 385 762q185 191 470 191t459 -111q53 -27 53 -69q0 -16 -8 -35q-29 -66 -112 -34q-139 99 -389 99q-227 0 -375 -157q-245 -231 -341 -685q-84 -424 -53 -681q32 -257 144 -386
q175 -199 502 -199q326 0 477 165l98 105q-174 -419 -571 -421z" />
    <glyph glyph-name="uni179b.sub" 
d="M-1765 -399q33 149 128 224q96 74 253 74q131 0 238 -75q107 -76 190 -227q109 -199 155 -199q38 0 112 142l163 299q32 57 72 57q17 0 36 -11q39 -22 39 -60q0 -26 -17 -58l-159 -299q-59 -109 -123 -163q-63 -55 -133 -55q-63 0 -131 67q-69 67 -143 201
q-61 116 -136 173q-75 58 -163 58q-97 0 -155 -43q-58 -44 -75 -131q-19 -88 6 -133q24 -44 93 -44q36 70 83.5 68.5t80.5 -28.5q33 -26 33 -80t-50 -81q-48 -27 -147 -27q-161 0 -224 88q-39 56 -39 147q0 52 13 116z" />
    <glyph glyph-name="uni179c.sub" 
d="M-942 -445q-226 -90 -437 -102l-43 -4q-11 -100 79 -125q89 -25 149 -25q190 0 275 49q108 58 242 298l30 54q-150 -88 -295 -145zM-492 -329l-49 -87q-160 -289 -273 -353q-122 -82 -383 -82q-152 0 -276 77q-97 61 -97 202q0 37 6 80q20 92 173 91q190 12 393 92
q203 81 419 230q35 25 63 25q31 0 54 -32q21 -26 21 -49q0 -29 -32 -53q-1 -1 -3 -2q21 -72 -16 -139z" />
    <glyph glyph-name="uni179d.sub" 
d="M-1407 -531q93 56 186 56t194 -59q72 -44 32 -107q-39 -63 -114 -18q-57 34 -110 34t-130 -48q-57 -42 -111 -97q-20 -80 -94 -80h-1q-59 0 -59 63q0 19 5 43l72 335q16 81 87 174q72 92 190 120q67 16 129 16q49 0 96 -10q106 -21 209 -62t206 -124q104 -83 127 -178
q10 -39 12 -83l118 -11q94 -8 94 -74q0 -4 -1 -9q-6 -75 -107 -66l-120 11l-13 -54q-11 -45 -35 -68t-63 -23q-38 0 -52 26q-13 26 -2 78l13 55l-126 10q-99 8 -93 82q7 75 107 66l128 -10q-1 15 -5 28q-14 56 -89 115q-75 60 -158 93t-167 50q-84 16 -161 -1t-122 -75
q-45 -59 -54 -114z" />
    <glyph glyph-name="uni179e.sub" horiz-adv-x="1017" 
d="M272 18l-130 30q-97 23 -80 96q17 72 114 50l127 -30l216 1023q26 118 107 213q87 100 221 100q95 0 157 -51.5t62 -125.5q0 -75 -30 -123q4 81 -56 116q-60 34 -120 34q-80 0 -126 -53t-64 -140l-219 -1028l115 -27q97 -22 80 -95t-115 -50l-111 27l-118 -554
q-30 -140 -109 -210t-173 -70q-34 0 -237 125t-264 125t-116 -100q-86 -150 -159 -150q-57 0 -57 58q0 16 3 34l20 92l106 497q14 69 91 69t56 -100l-60 -284q34 34 117 34q103 0 321 -137l185 -113q27 0 69 38q41 39 58 115z" />
    <glyph glyph-name="uni179f.sub" horiz-adv-x="999" 
d="M254 10l-124 15q-99 13 -90 87t108 62l137 -17l218 1030q26 118 107 213q87 100 221 100q95 0 157 -51.5t62 -125.5q0 -75 -30 -123q4 81 -56 116q-60 34 -120 34q-80 0 -126 -53t-64 -140l-217 -1019l109 -13q99 -12 90 -86q-9 -75 -109 -62l-121 15l-97 -458
q-84 -384 -509 -384q-292 0 -419 91q-127 92 -43 487q4 22 -34 22q-28 0 -28 -50q0 -80 -75 -80t-75 81q0 99 45 149t135 50q116 0 158 -50q43 -50 22 -150q-63 -300 25 -350t285 -50q307 0 364 263z" />
    <glyph glyph-name="uni17a0.sub" 
d="M-1544 -199l-76 -362q-15 -70 41 -105t184 -35q127 0 199 38q71 37 87 112l42 190q27 130 135 195q107 65 294 65q217 0 308 -82q67 -58 67 -161q0 -38 -10 -83l-70 -326q-21 -97 -97 -97q-77 0 -53 111l70 337q17 75 -38 113q-54 38 -179 38t-196 -37q-71 -38 -87 -113
l-36 -184q-30 -133 -139 -199q-110 -67 -299 -67q-220 0 -312 85q-65 62 -65 168q0 40 9 87l72 340q18 74 74 74q9 0 19 -2q73 -14 56 -100z" />
    <glyph glyph-name="uni17a1.sub" 
d="M-1133 -328q1 2 2 3q33 41 132 41q48 0 66 -23q19 -24 9 -69q-7 -36 -32 -54q-14 -10 -54 -14l-1 -5l-9 -41q-16 -110 -28 -136t-198 -24q-68 0 -134 37q-53 29 -53 84q0 13 3 27q11 51 121 45q31 -5 20 -44l111 -4l15 43l4 20q-25 3 -47 7q-58 13 -123 64
q-64 51 -80 103q-13 41 2 106q12 56 71 89q60 34 157 34q39 0 128 -11q85 -20 119 -70q8 -49 -3 -100q-7 -29 -82 -25t-64 41q1 24 -97 45q-63 11 -86 -22q-17 -37 -6 -70.5t94 -68.5q21 -5 43 -8zM-721 -395q-73 43 -32 182.5t105 132.5q35 0 84 -30l56 -34q25 -14 25 -32
q0 -7 -5 -16q-35 -92 -66 -74q-56 24 -70 3.5t28.5 -47t30.5 -79.5l-106 -496q-12 -58 -45 -86q-32 -29 -71 -29q-13 0 -96 51t-108 51q-20 0 -28 -41q-15 -61 -90 -61t-59 75l29 117h-31q-30 0 -30 33q0 41 18 61q19 21 55 21q78 0 142 -19q18 -20 7 -37q159 -91 166 -60z
" />
    <glyph glyph-name="uni17a2.sub" 
d="M-1508 -314q-44 39 -18 126.5t95 87.5q50 0 162 -37q81 -24 61.5 -96.5t-107.5 -44.5t-116 28q164 -112 143 -225l-30 -151q-48 -224 -240 -224q-101 0 -101 75v1q0 75 101 74q71 0 92 100l31 154q14 54 -73 132zM-621 -492l-27 -134q-48 -224 -240 -224
q-102 0 -101.5 75.5t101.5 74.5q71 0 92 100l12 57q-58 -9 -125 -9h-190q-99 0 -99 75t99 75h290q27 0 53 1l33 189q19 112 106 112t175 -100q-120 0 -130 -50l-26 -132q78 18 129 50q-48 -106 -152 -160z" />
    <glyph glyph-name="uni17a3.sub" 
d="M-1508 -314q-44 39 -18 126.5t95 87.5q50 0 162 -37q81 -24 61.5 -96.5t-107.5 -44.5t-116 28q164 -112 143 -225l-30 -151q-48 -224 -240 -224q-101 0 -101 75v1q0 75 101 74q71 0 92 100l31 154q14 54 -73 132zM-621 -492l-27 -134q-48 -224 -240 -224
q-102 0 -101.5 75.5t101.5 74.5q71 0 92 100l12 57q-58 -9 -125 -9h-190q-99 0 -99 75t99 75h290q27 0 53 1l33 189q19 112 106 112t175 -100q-120 0 -130 -50l-26 -132q78 18 129 50q-48 -106 -152 -160z" />
    <glyph glyph-name="uni17a4.sub" 
d="M-1380 -586l-8 -40q-48 -224 -240 -224q-101 0 -101 75v1q0 75 101 74q71 0 92 100l31 154l-69 67q-81 105 29 216q61 62 131 62q57 0 121 -41q85 -51 48 -117q-36 -65 -112 -20q-67 34 -94 0q-26 -34 109 -118l-9 -45q12 0 24 -2l307 -31l5 29l-69 67q-81 105 29 216
q61 62 131 62q57 0 121 -41l164 -103q137 -84 137 -206q0 -25 -6 -51l-55 -260q-17 -89 -94 -89q-78 0 -54 111l56 269q14 63 -42 95l-170 97q-67 34 -94 0q-26 -34 109 -118l-46 -229q-48 -224 -240 -224q-102 0 -101.5 75.5t101.5 74.5q63 0 87 78l-291 29q-21 2 -38 7z
" />
    <glyph glyph-name="uni17a5.sub" 
d="M-1437 -983l-17 -77q-15 -70 30 -70q73 0 110 24t37 73q0 25 -35 38q-35 12 -105 13zM-1408 -600q55 40 126 57q118 28 225 6q106 -21 209 -62t206 -124q104 -83 127 -178q24 -95 -2 -219l-15 -67q-11 -45 -35 -68t-63 -23q-38 0 -52 26q-13 26 -2 78l19 85q19 89 5 146
q-14 56 -89 115q-75 60 -158 93t-167 50q-84 16 -161 -1t-122 -75q-45 -59 -47 -74q140 0 210 -49q70 -50 70 -149q0 -122 -75 -184q-75 -61 -226 -61q-120 0 -166 70q-20 36 -20 91q0 38 9 84l43 196q15 72 72 153l-25 -26q-59 45 -78 87q-18 42 -18 100t27 111
q27 54 82 103q54 49 130 73q77 24 115 24q88 0 168 -39l158 -75q67 -46 160 -46q102 0 149.5 52.5t-27.5 105.5q-97 31 -71 103q19 52 77 52q21 0 48 -8q140 -45 159 -156q3 -17 3 -34q0 -91 -83 -166q-93 -99 -254 -99q-124 0 -215 54q-102 44 -160 75t-108 31
q-77 0 -142 -56t-65 -99q0 -42 53 -79z" />
    <glyph glyph-name="uni17a6.sub" 
d="M-1748 -1310l-17 -79q-15 -71 30 -71q73 0 110 25q37 24 37 74q0 25 -35 38t-105 13h-20zM-378 -821l-152 78q-194 95 -191 210q3 114 91 213q43 33 127 33q85 0 162 -47l41 -4q46 20 59.5 41.5t-16.5 74.5t-83 64q-97 31 -71 103q19 52 77 52q21 0 48 -8
q113 -31 164 -137q32 -67 32 -131q0 -36 -10 -71q-29 -97 -128 -142q-100 -46 -178 23q-54 32 -84 32t-76 -53q-6 -66 105 -118l254 -131l-125 -591q-30 -140 -109 -210t-207 -70h-214q-77 0 -108 37q-30 38 -14 113l8 42q19 61 5 119q-14 57 -94 117t-163 94t-167 51
q-84 16 -161 -1t-122 -76q-35 -30 -37 -46q140 0 210 -50t70 -151q0 -124 -75 -187q-75 -62 -226 -62q-120 0 -166 71q-20 37 -20 92q0 39 9 86l43 199q6 53 77 147q72 94 190 122t225 6q106 -21 209 -63q103 -41 206.5 -125.5t136.5 -181.5q24 -96 -2 -192l-2 -11h182
q67 0 109 38q41 39 58 115zM-1709 -561l-17 -77q-15 -70 30 -70q73 0 110 24t37 73q0 25 -35 38q-35 12 -105 13zM-1471 -795q-75 -61 -226 -61q-120 0 -166 70q-35 60 -11 175l43 196q16 81 87 174q72 92 190 120t225 6q106 -21 209 -62t206 -124q104 -83 127 -178
q24 -95 -2 -219l-15 -67q-11 -45 -35 -68t-63 -23q-38 0 -52 26q-13 26 -2 78l19 85q19 89 5 146q-14 56 -89 115q-75 60 -158 93t-167 50q-84 16 -161 -1t-122 -75q-45 -59 -47 -74q140 0 210 -49q70 -50 70 -149q0 -122 -75 -184z" />
    <glyph glyph-name="uni17a7.sub" 
d="M-1314 -552q74 45 108 -10q33 -56 -30 -95q-117 -69 -205 -31q-118 60 -118 234q0 35 4 75q26 118 155 189q130 70 340 80q86 0 214 -24q186 -41 259 -146q53 -75 53 -151q0 -30 -9 -61q-28 -136 -400 -271t-435 -204q-34 -46 -25 -69t68 -14q66 0 192 70l331 185
q61 43 116 18q64 -23 33 -159l-35 -143q-25 -142 -110 -219q-52 -47 -90 -47q-25 0 -44 18q-49 48 25 114q68 48 90 165l25 99l-229 -141q-192 -119 -309 -119q-66 0 -150 33t-91 98q11 108 92 194q82 86 441 216q339 130 358 200q12 46 -17 94q-49 68 -169 97
q-117 18 -178 18q-186 -10 -272 -58q-74 -48 -92 -108q-11 -109 31 -144q23 -11 73 17z" />
    <glyph glyph-name="uni17a8.sub" 
d="M-1563 -339q-24 27 -24 51q0 34 45 64l79 54q95 90 196 90q40 0 81 -14l83 -47q32 -26 84 3l52 29q37 21 82 21q87 0 206 -73l92 -55q66 -39 66 -81q0 -18 -11 -36q-37 -62 -107 -16l-70 46q-141 92 -195 63l-53 -30l-54 -29q-54 -29 -105 5l-51 34l-50 35
q-51 34 -170 -71l-60 -52q-59 -53 -116 9zM-1306 -798q74 45 108 -10q33 -56 -30 -95q-117 -69 -205 -31q-143 71 -114 309q26 118 155 189q130 70 340 80q86 0 214 -24q186 -41 259 -146q53 -75 53 -151q0 -30 -9 -61q-28 -136 -400 -271t-435 -204q-34 -46 -25 -69t68 -14
q66 0 192 70l331 185q61 43 116 18q64 -23 33 -159l-35 -143q-25 -142 -110 -219q-52 -47 -90 -47q-25 0 -44 18q-49 48 25 114q68 48 90 165l25 99l-229 -141q-192 -119 -309 -119q-66 0 -150 33t-91 98q11 108 92 194q82 86 441 216q339 130 358 200q12 46 -17 94
q-49 68 -169 97q-117 18 -178 18q-186 -10 -272 -58q-74 -48 -92 -108q-11 -109 31 -144q23 -11 73 17z" />
    <glyph glyph-name="uni17a9.sub" 
d="M-1310 -542q74 45 108 -10q33 -56 -30 -95q-117 -69 -205 -31q-118 60 -118 234q0 35 4 75q26 118 155 189q130 70 340 80q86 0 214 -24q186 -41 259 -146t44 -212q-28 -136 -400 -271t-435 -204q-34 -46 -25 -69t68 -14q66 0 192 70l331 185q61 43 116 18
q64 -23 33 -159l-35 -143q-25 -142 -110 -219q-52 -47 -90 -47q-25 0 -44 18q-49 48 25 114q68 48 90 165l25 99l-229 -141q-192 -119 -309 -119q-66 0 -150 33t-91 98q11 108 92 194q82 86 441 216q339 130 358 200q12 46 -17 94q-49 68 -169 97q-117 18 -178 18
q-186 -10 -272 -58q-74 -48 -92 -108q-11 -109 31 -144q23 -11 73 17zM-484 -771q63 0 63 -66q0 -10 -2 -22q-10 -170 -55 -375q-65 -91 -120 -91q-14 0 -27 6q-66 28 4 134q33 143 49 320q17 94 88 94z" />
    <glyph glyph-name="uni17aa.sub" 
d="M-1424 -530q129 67 333 76q86 0 214 -24q186 -41 259 -146t44 -212q-28 -136 -400 -271t-435 -204q-34 -46 -25 -69t68 -14q66 0 192 70l331 185q61 43 116 18q64 -23 33 -159l-35 -143q-9 -56 -94 -133q-52 -47 -90 -47q-25 0 -44 18q-49 48 25 114q68 48 74 79l25 99
l-229 -141q-192 -119 -309 -119q-66 0 -150 33t-91 98q11 108 92 194q82 86 441 216q339 130 358 200q12 46 -17 94q-49 68 -169 97q-117 18 -178 18q-186 -10 -272 -58q-74 -48 -92 -108q-11 -109 31 -144q23 -11 73 17q74 45 108 -10q33 -56 -30 -95q-117 -69 -205 -31
q-143 71 -114 309q11 50 40 91q-41 36 -57 69q-18 42 -18 100t27 111q27 54 82 103q54 49 130 73q77 24 115 24q88 0 168 -39l158 -75q67 -46 160 -46q102 0 149.5 52.5t-27.5 105.5q-97 31 -71 103q19 51 77 51q21 0 48 -7q140 -45 159 -156q3 -17 3 -34q0 -91 -83 -166
q-93 -99 -254 -99q-124 0 -215 54q-102 44 -160 75t-108 31q-77 0 -142 -56t-65 -99q0 -38 46 -73z" />
    <glyph glyph-name="uni17ab.sub" 
d="M-734 -446l-69 67q-81 105 29 216q61 62 131 62q57 0 121 -41q60 -35 60 -78q0 -18 -12 -39q-36 -65 -112 -20q-67 34 -94 0q-26 -34 109 -118l-46 -229q-48 -224 -240 -224h-462q-162 1 -137 150l52 254l-69 67q-34 45 -34 91q0 62 63 125q61 62 131 62q57 0 121 -41
q85 -51 48 -117q-36 -65 -112 -20q-67 34 -94 0q-26 -34 109 -118l-62 -303h446q71 0 92 100zM-1024 -983q0 75 75 75q128 0 181 -49q53 -48 32 -145t-105 -168q-134 -45 -219 -35q-46 2 -143 -18q-97 -24 -170 -95q-52 -51 -92 -51q-26 0 -47 21q-21 23 -21 48q0 38 47 83
q95 92 216 129q121 32 194 34q174 -3 185 46q11 50 -61 50t-72 75z" />
    <glyph glyph-name="uni17ac.sub" 
d="M-734 -446l-69 67q-81 105 29 216q61 62 131 62q57 0 121 -41q60 -35 60 -78q0 -18 -12 -39q-36 -65 -112 -20q-67 34 -94 0q-26 -34 109 -118l-46 -229q-48 -224 -240 -224h-462q-162 1 -137 150l52 254l-69 67q-34 45 -34 91q0 62 63 125q61 62 131 62q57 0 121 -41
q85 -51 48 -117q-36 -65 -112 -20q-67 34 -94 0q-26 -34 109 -118l-62 -303h446q71 0 92 100zM-952 -1299q-61 -11 -108 -6q-46 2 -143 -18q-97 -24 -170 -95q-52 -51 -92 -51q-26 0 -47 21q-21 23 -21 48q0 38 47 83q95 92 216 129q121 32 194 34q174 -3 185 46
q11 50 -61 50t-72 75t75 75q128 0 181 -49q53 -48 32 -145q-15 -72 -66 -129l58 -82q62 -87 -1 -130q-22 -16 -44 -16q-39 0 -76 48z" />
    <glyph glyph-name="uni17ad.sub" 
d="M-1418 -555l-17 -77q-15 -70 30 -70q73 0 110 24t37 73q0 25 -35 38q-35 12 -105 13zM-1180 -789q-75 -61 -226 -61q-120 0 -166 70q-20 36 -20 91q0 38 9 84l63 290q21 99 91 149q70 49 130 49q89 0 188 -46l94 -51q143 99 199 99q67 0 189 -63q94 -48 94 -170
q0 -38 -10 -84l-76 -348q-18 -70 -93 -70q-76 0 -55 100l75 347q14 61 -20.5 98.5t-91.5 37.5q-47 0 -102 -50q-56 -49 -105 -49q-45 0 -143 50t-135 51q-63 2 -73 -50l-21 -92q140 0 210 -49q70 -50 70 -149q0 -122 -75 -184zM-1041 -983q0 75 75 75q128 0 181 -49
q53 -48 32 -145t-105 -168q-134 -45 -219 -35q-46 2 -143 -18q-97 -24 -170 -95q-52 -51 -92 -51q-26 0 -47 21q-53 55 26 131q95 92 216 129q121 32 194 34q174 -3 185 46q11 50 -61 50t-72 75z" />
    <glyph glyph-name="uni17ae.sub" 
d="M-1418 -555l-17 -77q-15 -70 30 -70q73 0 110 24t37 73q0 25 -35 38q-35 12 -105 13zM-1180 -789q-75 -61 -226 -61q-120 0 -166 70q-20 36 -20 91q0 38 9 84l63 290q21 99 91 149q70 49 130 49q89 0 188 -46l94 -51q143 99 199 99q67 0 189 -63q94 -48 94 -170
q0 -38 -10 -84l-76 -348q-18 -70 -93 -70q-76 0 -55 100l75 347q14 61 -20.5 98.5t-91.5 37.5q-47 0 -102 -50q-56 -49 -105 -49q-45 0 -143 50t-135 51q-63 2 -73 -50l-21 -92q140 0 210 -49q70 -50 70 -149q0 -122 -75 -184zM-969 -1299q-61 -11 -108 -6q-46 2 -143 -18
q-97 -24 -170 -95q-52 -51 -92 -51q-26 0 -47 21q-53 55 26 131q95 92 216 129q121 32 194 34q174 -3 185 46q11 50 -61 50t-72 75t75 75q128 0 181 -49q53 -48 32 -145q-15 -72 -66 -129l58 -82q62 -87 -1 -130q-22 -16 -44 -16q-39 0 -76 48z" />
    <glyph glyph-name="uni17af.sub" 
d="M-1475 -758q-37 0 -39 -75q-1 -75 -76 -75q-75 1 -75 76q1 76 42 150t151 74t152 -76q42 -75 13 -214l-73 -344q34 34 117 34q103 0 321 -137l185 -113q27 0 69 38q41 39 58 115l68 322q21 97 -33 179q-57 76 -283 176q-300 45 -370 137q-118 108 -156 191t-134 155
q-78 62 -33 122q24 32 54 32q27 0 60 -26q138 -106 192 -229q68 -80 148 -150q112 -55 257 -81q348 -139 375 -225q81 -116 81 -230q0 -41 -11 -82l-66 -314q-30 -140 -109 -210t-173 -70q-34 0 -237 125t-264 125t-116 -100q-86 -150 -159 -150t-54 92l20 92l116 552
q20 114 -18 114z" />
    <glyph glyph-name="uni17b0.sub" 
d="M-1364 -555l-17 -77q-15 -70 30 -70q73 0 110 24t37 73q0 25 -35 38q-35 12 -105 13zM-1126 -789q-75 -61 -226 -61q-120 0 -166 70q-35 60 -11 175l63 290q21 99 91 149q70 49 130 49q89 0 188 -46l94 -51q143 99 199 99q67 0 189 -63q94 -48 94 -170q0 -38 -10 -84
l-76 -348q-18 -70 -93 -70q-76 0 -55 100l75 347q14 61 -20.5 98.5t-91.5 37.5q-47 0 -102 -50q-56 -49 -105 -49q-45 0 -143 50t-135 51q-63 2 -73 -50l-21 -92q140 0 210 -49q70 -50 70 -149q0 -122 -75 -184zM-971 -1141l12 -14q90 -99 126 -76q35 23 68 168z
M-1206 -1230l-179 -68q82 -61 126 -49q45 13 53 117zM-1493 -1178l700 258q76 23 129.5 -14t36.5 -131q-59 -292 -171 -322q-112 -31 -280 139q-24 -206 -162 -237q-23 -5 -47 -5q-117 0 -248 128q-50 54 -50 95q0 56 92 89z" />
    <glyph glyph-name="uni17b1.sub" 
d="M-1391 -486q122 54 303 62q86 0 214 -24q186 -41 259 -146q53 -75 53 -151q0 -30 -9 -61q-28 -136 -400 -271t-435 -204q-34 -46 -25 -69t68 -14q66 0 192 70l331 185q61 43 116 18q64 -23 33 -159l-35 -143q-9 -56 -94 -133q-52 -47 -90 -47q-25 0 -44 18q-49 48 25 114
q68 48 74 79l25 99l-229 -141q-192 -119 -309 -119q-66 0 -150 33t-91 98q11 108 92 194q82 86 441 216q339 130 358 200q12 46 -17 94q-49 68 -169 97q-117 18 -178 18q-186 -10 -272 -58q-74 -48 -92 -108q-11 -109 31 -144q23 -11 73 17q74 45 108 -10q33 -56 -30 -95
q-117 -69 -205 -31q-118 60 -118 234q0 35 4 75q15 65 60 115q-32 30 -45 58q-18 42 -18 100t27 111q27 54 82 103q54 49 180 73q77 24 215 24q148 0 256 -39q88 -41 202 -105q68 -42 68 -86q0 -21 -16 -43q-47 -67 -134 7q-66 44 -168 85q-94 31 -204 31q-177 0 -292 -56
q-65 -56 -65 -99q0 -38 44 -72z" />
    <glyph glyph-name="uni17b2.sub" 
d="M-809 -1284q44 30 45 64q11 47 -151 135q-124 35 -113 104q21 90 145 124q207 56 223 120q12 52 -51 78q-64 26 -203 26q-59 0 -96 -35l-38 -35q-16 -70 -85.5 -50.5t-38.5 122.5l71 80q82 68 218 68q216 0 309 -69q71 -51 71 -142q0 -30 -8 -64q-17 -81 -102 -142
q-86 -62 -180 -81q84 -47 156 -102q38 -91 21 -170q-11 -66 -97 -144q-115 -87 -309 -87h-117q-149 0 -251 46t-157 139q-56 92 -64 231q-1 24 -1 50q0 121 31 273l73 316q19 93 90 187q72 94 190 122q77 19 150 19q38 0 75 -6q106 -18 209 -57q103 -40 179 -95
q85 -53 57 -115q-39 -62 -123 -13q-89 52 -172 85q-83 31 -167 45q-84 9 -161 -8t-122 -76q-45 -60 -56 -109l-77 -333q-28 -138 -23 -241q6 -103 45 -172q40 -69 114 -104q73 -34 181 -34h113q124 0 197 50z" />
    <glyph glyph-name="uni17b3.sub" 
d="M-1519 -582q-35 32 -49 62q-18 42 -18 100t27 111q27 54 82 103q54 49 180 73q77 24 135 24q98 0 206 -39l89 -37q68 92 183 119q26 5 46 5q73 0 86 -62q2 -10 2 -20q0 -60 -91 -73q-36 -4 -57 -31l14 -6q129 -54 114.5 -137t-90.5 -108q-31 -11 -68 -10q74 -38 113 -96
q53 -75 53 -151q0 -30 -9 -61q-28 -136 -400 -271t-435 -204q-34 -46 -25 -69t68 -14q66 0 192 70l331 185q61 43 116 18q64 -23 33 -159l-35 -143q-9 -56 -94 -133q-52 -47 -90 -47q-25 0 -44 18q-49 48 25 114q68 48 74 79l25 99l-229 -141q-192 -119 -309 -119
q-66 0 -150 33t-91 98q11 108 92 194q82 86 441 216q339 130 358 200q12 46 -17 94q-49 68 -169 97q-117 18 -178 18q-186 -10 -272 -58q-74 -48 -92 -108q-11 -109 31 -144q23 -11 73 17q74 45 108 -10q33 -56 -30 -95q-117 -69 -205 -31q-118 60 -118 234q0 35 4 75
q15 68 64 121zM-929 -316q-41 13 -75 26q-94 31 -154 31q-97 0 -212 -56q-65 -56 -65 -99q0 -41 53 -78q119 50 294 58q81 0 198 -20q-49 46 -39 138z" />
    <glyph glyph-name="uni1780.a" horiz-adv-x="2300" 
d="M302 0q-52 0 -52 60q0 29 11 70l71 256q83 296 232 499q157 215 364 215q231 0 364 -149q132 -149 175 -376q44 -228 -5 -401q-49 -174 -197 -174q-113 0 -175 199l-36 107l90 -78q90 -78 122 -78t49 59q40 146 4 341q-36 186 -132 293t-259 107q-130 1 -239 -148
q-135 -185 -208 -444l-72 -260q-29 -98 -107 -98zM476 1221q-102 76 -102 128q0 151 251 151h990q263 0 448 -198q141 -151 141 -336q0 -58 -14 -120l-136 -672q-39 -174 -197 -174q-113 0 -144 100q-31 99 173 436q-110 -278 -90 -332t62 -54q36 0 49 59l137 667
q40 183 -96 328q-136 146 -334 146h-989q-108 0 -95 -77l24 -117z" />
    <glyph glyph-name="uni1781.a" horiz-adv-x="2300" 
d="M422 937q-36 124 -6.5 261.5t185 219.5t361.5 82q186 0 274 -96.5t46 -295.5q-37 -188 -363 -447q-469 -370 -469 -435q0 -33 45 -55q46 -21 106 -21q120 0 305 192q118 126 319 481q384 677 587 677q202 0 307 -198q68 -128 68 -280q0 -84 -21 -176l-136 -672
q-39 -174 -197 -174q-113 0 -144 100q-31 99 173 436q-110 -278 -90 -332t62 -54q36 0 49 59l137 667q40 183 -21 328q-61 146 -199 146q-102 0 -434 -583q-206 -367 -340 -517q-238 -250 -430 -250q-99 0 -173 37q-123 62 -123 197q0 131 518 541q290 229 318 355
q22 98 -33.5 159t-164.5 61q-139 0 -249.5 -56t-131 -149t7.5 -159q38 -88 -36.5 -112.5t-106.5 63.5z" />
    <glyph glyph-name="uni1782.a" horiz-adv-x="2300" 
d="M350 0q-76 0 -76 89q0 42 17 105l53 192q83 296 232 499q157 215 364 215q231 0 364 -149q132 -149 175 -376q44 -228 -5 -401q-49 -174 -188 -174q-100 0 -100 75t100 75q24 0 41 59q40 146 4 341q-36 186 -132 293t-259 107q-130 1 -239 -148q-135 -185 -208 -444
l-36 -130q117 136 218 204t184 68q113 0 170 -50t57 -150t-74 -100q-75 1 -75 100q-1 50 -78 50q-49 0 -124 -58q-74 -59 -175 -176q-100 -116 -210 -116zM488 1221q-102 76 -102 128q0 151 251 151h990q263 0 448 -198q141 -151 141 -336q0 -58 -14 -120l-136 -672
q-39 -174 -197 -174q-113 0 -144 100q-31 99 173 436q-110 -278 -90 -332t62 -54q36 0 49 59l137 667q40 183 -96 328q-136 146 -334 146h-989q-108 0 -95 -77l24 -117z" />
    <glyph glyph-name="uni1783.a" horiz-adv-x="3180" 
d="M1197 241l-38 -48q-166 -193 -365 -193q-249 0 -343 144q-93 145 7 614l38 180l62 298q11 57 -5 86q-15 28 -57 28q-43 0 -73 -41t-47 -123q-19 -86 19 -86q52 1 52 -74t-51 -76q-111 0 -153 65q-26 40 -26 104q0 42 11 93q31 144 98 216t170 72q107 0 174 -76
q67 -75 38 -214l-100 -473q-82 -387 -26 -487q58 -100 214 -100q136 0 264 162q128 163 197 488l31 138q-147 67 -212 144q-64 77 -46 164q27 127 100 190q73 64 186 64q101 0 249 -92q101 -64 67 -128q-33 -63 -137 -3q-120 73 -180 73q-49 0 -86 -31q-36 -31 -49 -92
t52 -137q64 -76 206 -166l-31 -151q-47 -218 -119 -374l28 -49q114 -200 241 -200q143 0 271 162q128 163 197 488l44 207q53 247 185 370q131 123 342 123q262 0 379 -136q78 -90 78 -241q0 -75 -19 -165l-174 -784q-49 -174 -197 -174q-113 0 -144 100q-31 99 173 436
q-110 -278 -90 -332t62 -54q32 0 49 59l171 764q40 189 -38 283q-80 94 -248 94q-150 0 -245 -93q-94 -93 -133 -280l-45 -204q-83 -387 -248 -580q-166 -193 -372 -193q-187 0 -358 241z" />
    <glyph glyph-name="uni1784.a" horiz-adv-x="2350" 
d="M1097 1101q-46 -1 -97 -1q-316 0 -432 136q-101 126 -62 304q64 236 252 317q125 54 223 54q50 0 93 -14q-177 -39 -283 -136q-105 -97 -138 -251q-19 -87 45 -168q79 -91 303 -91h60q-1 12 -1 21q0 128 63 203t186 75q100 0 168 -71q19 -20 31 -45q138 66 278 66
q232 0 349 -136q78 -90 78 -241q0 -75 -19 -165l-174 -784q-49 -174 -197 -174q-113 0 -144 100q-31 99 173 436q-110 -278 -90 -332t62 -54q32 0 49 59l171 764q40 189 -38 283q-80 94 -218 94q-136 0 -268 -65q-21 -92 -125 -138q-39 -17 -103 -28l-28 -29q6 -18 14 -38
q68 -179 29 -333l-94 -439q-30 -140 -109 -210t-173 -70q-74 0 -266 200q-54 50 -115 50t-116 -100q-86 -150 -159 -150q-58 0 -58 58q0 15 4 34l20 92l116 552q20 114 -107 114q50 150 131 150t118 -75.5t8 -214.5l-73 -344q34 34 117 34q103 0 201 -93l185 -157
q27 0 69 38q41 39 58 115l96 447q21 97 -32 255q-18 53 -31 96zM1347 1293q13 19 27 36q7 35 -8 52q-16 19 -56 19q-44 0 -72 -40q-28 -41 -28 -90q0 -4 1 -10q96 10 136 33z" />
    <glyph glyph-name="uni1785.a" horiz-adv-x="2348" 
d="M552 1001l-89 -425q-45 -213 32 -320q78 -106 277 -106q203 0 323 92q121 92 160 276l46 216q11 57 -5 86q-15 28 -57 28q-43 0 -63 -16t-33 -66q-13 -66 25 -66q52 1 52 -74t-51 -76q-111 0 -153 65q-42 66 -21 177q27 112 84 159t160 47q107 0 174 -76q67 -75 38 -214
l-46 -214q-53 -247 -211 -370q-159 -124 -422 -124q-291 0 -406 150q-75 98 -75 259q0 87 22 192l106 499q11 58 -30 86q-122 82 -122 164q1 150 301 150h850q473 0 658 -198q141 -151 141 -336q0 -58 -14 -120l-136 -672q-39 -174 -197 -174q-113 0 -144 100
q-31 99 173 436q-110 -278 -90 -332t62 -54q36 0 49 59l137 667q40 183 -96 328q-136 146 -544 146h-849q-168 0 -135 -76q128 -232 119 -273z" />
    <glyph glyph-name="uni1786.a" horiz-adv-x="2649" 
d="M300 250q0 -100 50 -100q49 0 70 100l22 100h-41q-51 0 -76 -25t-25 -75zM1438 518l46 216q11 57 -5 86q-15 28 -57 28q-43 0 -63 -16t-33 -66q-13 -66 25 -66q52 1 52 -74t-51 -76q-111 0 -153 65q-42 66 -21 177q27 112 84 159t160 47q107 0 174 -76q67 -75 38 -214
l-46 -214q-62 -271 -136 -355q-122 -139 -247 -139q-130 0 -267 172q-83 103 -146 140q-63 38 -170 38h-27l-23 -121q-26 -115 -81 -172q-56 -57 -141 -57q-100 0 -150 62q-50 63 -50 188t63 188q62 62 188 62h72l129 600q11 58 -30 86q-122 82 -122 164q1 151 301 151h940
q483 -1 668 -199q141 -151 141 -336q0 -58 -14 -120l-136 -672q-39 -174 -197 -174q-113 0 -144 100q-31 99 173 436q-110 -278 -90 -332t62 -54q36 0 49 59l137 667q40 183 -96 328q-136 146 -554 147h-939q-168 0 -135 -77q128 -232 119 -273l-108 -501q135 0 236 -53
t191 -175q89 -122 151 -122q64 0 125 80q62 81 108 288z" />
    <glyph glyph-name="uni1787.a" horiz-adv-x="2376" 
d="M1425 1350q-45 -26 -104 -34q-193 -25 -320 5q-128 30 -336 29q-209 0 -246 -31q-36 -31 -49 -92t52 -137q64 -76 206 -166l-120 -558q34 34 117 34q103 0 201 -93l185 -157q27 0 69 38q41 39 58 115l86 397q21 97 5 159t-67 146q100 -23 174 -103q74 -79 35 -233
l-84 -389q-30 -140 -109 -210t-173 -70q-74 0 -266 200q-54 50 -115 50t-116 -100q-86 -150 -159 -150t-54 92l20 92l163 754q-147 67 -212 144q-50 60 -50 126q0 19 4 38q27 127 100 190q73 64 329 64q255 1 382 -29q128 -30 241 -19q113 10 143 144q28 131 -54 232
q-81 101 -272 173q283 -1 401 -109t72 -325q-8 -36 -19 -67h67q313 0 498 -198q141 -151 141 -336q0 -58 -14 -120l-136 -672q-39 -174 -197 -174q-113 0 -144 100q-31 99 173 436q-110 -278 -90 -332t62 -54q36 0 49 59l137 667q40 183 -96 328q-136 146 -384 146h-184z
" />
    <glyph glyph-name="uni1788.a" horiz-adv-x="3948" 
d="M427 404l-44 -139q-17 -56 -5 -85q12 -30 44 -30q35 0 93 62q58 63 70 121q7 29 -6 49q-12 19 -47 29t-105 -7zM1974 241l-38 -48q-166 -193 -365 -193q-196 0 -290 150t-88 449l6 401q4 175 -53 262q-57 88 -173 88q-130 0 -222 -95q-94 -95 -150 -284l-129 -417
q82 8 137 -8q55 -17 99 -80q45 -64 25 -159q-21 -103 -115 -205q-95 -102 -196 -102q-125 0 -177 80q-28 43 -28 105q0 51 20 115l221 715q73 243 201 364q129 121 314 121q194 0 288 -125t88 -376l-8 -398q-5 -225 53 -338t179 -113q136 0 264 162q128 163 197 488l31 138
q-147 67 -212 144q-64 77 -46 164q27 127 100 190q73 64 186 64q101 0 249 -92q101 -64 67 -128q-33 -63 -137 -3q-120 73 -180 73q-49 0 -86 -31q-36 -31 -49 -92t52 -137q64 -76 206 -166l-31 -151q-47 -218 -119 -374l28 -49q114 -200 241 -200q143 0 271 162
q128 163 197 488l44 207q53 247 185 370q131 123 342 123q262 0 379 -136q78 -90 78 -241q0 -75 -19 -165l-174 -784q-49 -174 -197 -174q-113 0 -144 100q-31 99 173 436q-110 -278 -90 -332t62 -54q32 0 49 59l171 764q40 189 -38 283q-80 94 -248 94q-150 0 -245 -93
q-94 -93 -133 -280l-45 -204q-83 -387 -248 -580q-166 -193 -372 -193q-187 0 -358 241z" />
    <glyph glyph-name="uni1789.a" horiz-adv-x="3568" 
d="M395 402l-29 -137q-12 -58 -2 -86q9 -29 41 -29q35 0 93 62q58 63 70 121q7 29 -16 51q-22 22 -62 24.5t-95 -6.5zM1625 1057q-1 24 -7 60q-8 50 -45 112q-37 63 -77 92q-39 29 -76 29q-70 1 -222 -324q-152 -326 -217 -326t-41 181q45 181 -101 376q-72 93 -130 93
q-53 -28 -98 -87q-45 -60 -66 -159l-115 -546q87 14 152 -8q65 -21 109 -84q45 -64 25 -159q-21 -103 -115 -205q-95 -102 -196 -102q-125 0 -171 75t-14 225l176 825q29 143 100 237q72 94 185 139h27q128 0 245 -134q80 -103 116 -241q92 201 171 288q79 86 187 86
q79 0 151 -54q72 -53 124 -138q13 -21 23 -42q72 113 156 157q149 77 301 77q232 0 349 -136q22 -25 37 -54q28 37 60 67q131 123 342 123q262 0 379 -136q78 -90 78 -241q0 -75 -19 -165l-174 -784q-49 -174 -197 -174q-113 0 -144 100q-31 99 173 436q-110 -278 -90 -332
t62 -54q32 0 49 59l171 764q40 189 -38 283q-80 94 -248 94q-150 0 -245 -93q-94 -93 -133 -280q-2 -9 -4 -19l-209 -980q-95 -448 -290 -563t-406 -115q-151 0 -295 44q-155 43 -233 131q-79 88 -180 131q-102 44 -227 44q-124 0 -235 -46q-110 -46 -205 -139
q-47 -46 -84 -56q-37 -9 -63 18q-19 21 -19 46q0 8 2 17q9 35 54 78q120 116 258 174q139 58 295 58q157 0 284 -55q128 -55 226 -164q59 -65 188 -98q119 -33 238 -33q148 0 304 78q156 77 241 479l202 966q40 189 -34 283q-80 94 -218 94q-219 0 -426 -169q5 -15 7 -30
q11 -72 11 -110q0 -39 -14 -106l-191 -761q-49 -174 -197 -174q-113 0 -144 100q-31 99 173 436q-110 -278 -90 -332t62 -54q32 0 49 59l191 753q11 53 11 79v13l-3 -3z" />
    <glyph glyph-name="uni178a.a" horiz-adv-x="2453" 
d="M1325 1102l16 -16q5 15 11 29q-13 -7 -27 -13zM1350 1076q67 -71 88 -133q32 -96 13 -185l-106 -478q-30 -140 -109 -210t-173 -70q-34 0 -237 125t-264 125t-116 -100q-86 -150 -159 -150q-58 0 -58 58q0 15 4 34l20 92l158 735q9 40 32 61q24 20 62 20q39 0 53 -25
t3 -74l-115 -535q34 34 117 34q103 0 321 -137l185 -113q27 0 69 38q41 39 58 115l107 493q36 149 -12 294q-117 -40 -281 -40q-295 0 -411 101q-116 102 -78 290q45 209 291 209q231 0 379 -364q-194 214 -379 214q-124 0 -144 -87q-18 -99 68 -156t303 -57q202 0 290 62
q87 62 114 168q13 84 -36 200q-87 137 -224 237q237 -27 360 -206q62 -114 50 -234q145 73 293 73q232 0 349 -136q78 -90 78 -241q0 -75 -19 -165l-174 -784q-49 -174 -197 -174q-113 0 -144 100q-31 99 173 436q-110 -278 -90 -332t62 -54q32 0 49 59l171 764
q40 189 -38 283q-80 94 -218 94q-278 0 -538 -274z" />
    <glyph glyph-name="uni178b.a" horiz-adv-x="2400" 
d="M1288 1276q-28 74 -89 74q-75 0 -92 -29q-18 -29 -7 -50q12 -21 92 -21q45 0 96 26zM1414 1373q64 64 89 129q33 86 14 149q-19 62 -87 97q-68 34 -236 47q144 45 242 45q27 0 51 -4q108 -16 157 -137q45 -111 7 -228q93 29 186 29q232 0 349 -136q78 -90 78 -241
q0 -75 -19 -165l-174 -784q-49 -174 -197 -174q-113 0 -144 100q-31 99 173 436q-110 -278 -90 -332t62 -54q32 0 49 59l171 764q40 189 -38 283q-80 94 -218 94q-176 0 -344 -109q-16 -15 -34 -30q-1 -1 -3 -2q9 -151 -51 -436q-83 -387 -248 -580q-166 -193 -365 -193
q-249 0 -343 144q-93 145 7 614l100 478q11 57 -5 86q-15 28 -57 28q-43 0 -73 -41t-47 -123q-19 -86 19 -86q52 1 52 -74t-51 -76q-111 0 -153 65q-26 40 -26 104q0 42 11 93q31 144 98 216t170 72q107 0 174 -76q67 -75 38 -214l-100 -473q-82 -387 -26 -487
q58 -100 214 -100q136 0 264 162q128 163 197 488q36 167 46 278l-25 -27l28 71q-64 -21 -132 -21q-154 0 -206 99q-52 100 11 200q64 100 239 100q132 0 196 -127z" />
    <glyph glyph-name="uni178c.a" horiz-adv-x="2401" 
d="M1394 1178q-5 -33 -12 -70q-37 -188 -413 -447q-519 -370 -519 -435q0 -33 45 -55q46 -21 106 -21q120 0 365 202q185 152 202 225q18 73 93 73q76 0 55 -92l-70 -327q-34 -163 -158 -270t-388 -158q199 101 285 213q87 111 111 234q-308 -250 -500 -250q-99 0 -173 37
q-123 62 -123 197q0 131 568 541q340 229 368 355q51 220 -38 220q-111 0 -338 -308q-111 308 -172 308q-60 1 -106 -148q-45 -150 -17 -216q38 -88 -36.5 -112.5t-106.5 63.5q-36 124 -6 261q29 138 100 220q70 82 182 82t203 -198q141 198 300 198q178 0 197 -185
q57 74 122 108q149 77 301 77q232 0 349 -136q78 -90 78 -241q0 -75 -19 -165l-174 -784q-49 -174 -197 -174q-113 0 -144 100q-31 99 173 436q-110 -278 -90 -332t62 -54q32 0 49 59l171 764q40 189 -38 283q-80 94 -218 94q-221 0 -429 -172z" />
    <glyph glyph-name="uni178d.a" horiz-adv-x="3600" 
d="M407 402l-29 -137q-12 -58 -2 -86q9 -29 41 -29q35 0 93 62q58 63 70 121q7 29 -16 51q-22 22 -62 24.5t-95 -6.5zM1348 250q0 -100 50 -100q49 0 70 100l22 100h-41q-51 0 -76 -25t-25 -75zM417 0q-125 0 -171 75q-27 44 -27 115q0 48 13 110l176 825q29 143 100 237
q55 74 105 106t107 32q138 0 245 -133q80 -103 116 -241q92 201 171 288q79 86 187 86q79 0 151 -54q72 -53 124 -138q51 -85 63 -157q11 -72 11 -110q0 -39 -54 -265l-59 -276q65 0 166 -53t191 -175q89 -122 131 -122q44 0 105 80q62 81 108 288l106 489q52 247 184 370
q131 123 342 123q262 0 379 -136q78 -90 78 -241q0 -75 -19 -165l-174 -784q-49 -174 -197 -174q-113 0 -144 100q-31 99 173 436q-110 -278 -90 -332t62 -54q32 0 49 59l171 764q40 189 -38 283q-80 94 -248 94q-150 0 -245 -93q-94 -93 -136 -280l-103 -483
q-62 -271 -136 -355q-122 -139 -227 -139q-110 0 -247 172q-83 103 -146 140q-63 38 -100 38h-27l-23 -121q-26 -115 -81 -172q-56 -57 -141 -57q-100 0 -150 62q-50 63 -50 188t63 188q62 62 188 62h72l65 300q52 215 52 240.5t-8 76.5q-8 50 -45 112q-37 63 -77 92
q-39 29 -76 29q-70 1 -222 -324q-152 -326 -217 -326t-41 181q45 181 -101 376q-72 93 -130 93q-34 0 -98 -87q-45 -60 -66 -159l-115 -546q87 14 152 -8q65 -21 109 -84q45 -64 25 -159q-21 -103 -115 -205q-95 -102 -196 -102z" />
    <glyph glyph-name="uni178e.a" horiz-adv-x="4000" 
d="M433 404l-44 -139q-17 -56 -5 -85q12 -30 44 -30q35 0 93 62q58 63 70 121q7 29 -6 49q-12 19 -47 29t-105 -7zM2926 1149q-11 65 -46 107q-80 94 -218 94q-176 0 -282 -81q-105 -82 -140 -245l-158 -744q-30 -140 -109 -210t-173 -70q-74 0 -266 200q-54 50 -115 50
t-116 -100q-86 -150 -159 -150t-54 92l69 294q45 233 46 614q4 175 -53 262q-57 88 -173 88q-130 0 -222 -95q-94 -95 -150 -284l-129 -417q82 8 137 -8q55 -17 99 -80q45 -64 25 -159q-21 -103 -115 -205q-95 -102 -196 -102q-125 0 -177 80q-28 43 -28 105q0 51 20 115
l221 715q73 243 201 364q129 121 314 121q194 0 288 -125t88 -376q-8 -398 -52 -633q34 34 117 34q103 0 201 -93l185 -157q27 0 69 38q41 39 58 115l161 748q47 225 188 337q142 112 378 112q232 0 349 -136q14 -16 25 -34q52 63 110 93q149 77 301 77q232 0 349 -136
q78 -90 78 -241q0 -75 -19 -165l-174 -784q-49 -174 -197 -174q-113 0 -144 100q-31 99 173 436q-110 -278 -90 -332t62 -54q32 0 49 59l171 764q40 189 -38 283q-80 94 -218 94q-190 0 -371 -128q24 -117 -12 -287l-191 -761q-49 -174 -197 -174q-113 0 -144 100
q-31 99 173 436q-110 -278 -90 -332t62 -54q32 0 49 59l191 753q16 76 14 137q-23 -23 -45 -48q19 53 40 98z" />
    <glyph glyph-name="uni178f.a" horiz-adv-x="2298" 
d="M495 404l-44 -139q-17 -56 -5 -85q12 -30 44 -30q35 0 93 62q58 63 70 121q7 29 -6 49q-12 19 -47 29t-105 -7zM540 554q82 8 137 -8q55 -17 99 -80q45 -64 25 -159q-21 -103 -115 -205q-95 -102 -196 -102q-125 0 -177 80q-28 43 -28 105q0 51 20 115l82 286
q47 158 176 318q157 196 364 196q231 0 364 -149q132 -149 175 -376q44 -228 -5 -401q-49 -174 -188 -174q-100 0 -100 75t100 75q24 0 41 59q40 146 4 341q-36 186 -132 293t-259 107q-130 1 -239 -129q-115 -142 -148 -267zM475 1221q-102 76 -102 128q0 151 251 151h990
q263 0 448 -198q141 -151 141 -336q0 -58 -14 -120l-136 -672q-39 -174 -197 -174q-113 0 -144 100q-31 99 173 436q-110 -278 -90 -332t62 -54q36 0 49 59l137 667q40 183 -96 328q-136 146 -334 146h-989q-108 0 -95 -77l24 -117z" />
    <glyph glyph-name="uni1790.a" horiz-adv-x="2378" 
d="M1425 1350q-45 -26 -104 -34q-193 -25 -320 5q-128 30 -336 29q-209 0 -246 -31q-36 -31 -49 -92t52 -137q64 -76 122 -89l-89 -425q-45 -213 32 -320q78 -106 277 -106q203 0 323 92q121 92 160 276l46 216q11 57 -5 86q-15 28 -57 28q-43 0 -63 -16t-33 -66
q-13 -66 25 -66q52 1 52 -74t-51 -76q-111 0 -153 65q-42 66 -21 177q27 112 84 159t160 47q107 0 174 -76q67 -75 38 -214l-46 -214q-53 -247 -211 -370q-159 -124 -422 -124q-291 0 -406 150q-115 151 -53 451l80 379q-54 25 -119 102q-50 60 -50 126q0 19 4 38
q27 127 100 190q73 64 329 64q255 1 382 -29q128 -30 241 -19q113 10 143 144q28 131 -54 232q-81 101 -272 173q283 -1 401 -109t72 -325q-8 -36 -19 -67h67q313 0 498 -198q141 -151 141 -336q0 -58 -14 -120l-136 -672q-39 -174 -197 -174q-113 0 -144 100
q-31 99 173 436q-110 -278 -90 -332t62 -54q36 0 49 59l137 667q40 183 -96 328q-136 146 -384 146h-184z" />
    <glyph glyph-name="uni1791.a" horiz-adv-x="2255" 
d="M1114 720q72 0 82 50q11 50 -37 50t-68 -93l-2 -7h25zM1056 571l-58 -261q-33 -155 -118 -232q-84 -78 -201 -78q-170 0 -229 209l-71 248q-29 102 43 123q71 21 104 -92l69 -240q28 -98 86 -98q55 0 102 46q47 47 67 141l57 244q-69 7 -130 21q-143 32 -300 156
q-157 125 -196 253q-20 65 -20 126q0 32 5 62q29 137 174 219q146 82 462 82h509q373 0 558 -198q141 -151 141 -336q0 -58 -14 -120l-136 -672q-39 -174 -197 -174q-113 0 -144 100q-31 99 173 436q-110 -278 -90 -332t62 -54q36 0 49 59l137 667q40 183 -96 328
q-136 146 -444 146h-502q-289 0 -385 -56q-95 -56 -115 -119q-2 -59 15 -119q24 -80 149 -181q125 -100 248 -128q55 -12 118 -19l7 31q22 105 76 158t140 53q116 0 162 -56q46 -57 22 -169q-18 -88 -78 -131q-61 -44 -163 -44q-24 0 -48 1z" />
    <glyph glyph-name="uni1792.a" horiz-adv-x="2358" 
d="M1349 734q11 57 -5 86q-15 28 -57 28q-43 0 -63 -16t-33 -66q-13 -66 25 -66q52 1 52 -74t-51 -76q-111 0 -153 65q-42 66 -21 177q27 112 84 159t160 47q107 0 174 -76q67 -75 38 -214l-96 -438q-27 -135 -106 -202q-79 -68 -206 -68q-34 0 -237 125t-274 125
q-61 0 -116 -100q-86 -150 -159 -150q-58 0 -58 58q0 15 4 34l20 92l196 916q11 58 -30 86q-122 82 -122 163q1 151 301 151h910q363 0 548 -198q141 -151 141 -336q0 -58 -14 -120l-136 -672q-39 -174 -197 -174q-113 0 -144 100q-31 99 173 436q-110 -278 -90 -332t62 -54
q36 0 49 59l137 667q40 183 -96 328q-136 146 -434 146h-909q-168 0 -135 -76q128 -232 119 -273l-136 -635q34 34 117 34q113 0 331 -137l185 -113q64 0 104 36t54 107z" />
    <glyph glyph-name="uni1793.a" horiz-adv-x="2351" 
d="M1111 0q-84 0 -301 209q-149 151 -210 151t-116 -100q-106 -260 -179 -260q-58 0 -58 58q0 15 4 34l20 92l138 641q20 88 94 74q74 -13 58 -99l-70 -318q27 28 110 28q103 0 313 -205q153 -155 200 -155q77 1 100 112q28 128 -323 430l-213 176q-236 200 -204 341
q26 127 171 209q146 82 332 82h649q263 0 448 -198q141 -151 141 -336q0 -58 -14 -120l-136 -672q-39 -174 -197 -174q-113 0 -144 100q-31 99 173 436q-110 -278 -90 -332t62 -54q36 0 49 59l137 667q40 183 -96 328q-136 146 -334 146h-642q-159 0 -255 -56
q-95 -56 -106 -113t171 -211l182 -155q434 -366 390 -583q-53 -232 -254 -232z" />
    <glyph glyph-name="uni1794.a" horiz-adv-x="2346" 
d="M1165 104q-153 -104 -394 -104q-291 0 -406 150q-75 98 -75 259q0 87 22 192l106 499q11 58 -30 86q-122 82 -122 164q1 150 301 150h850q473 0 658 -198q141 -151 141 -336q0 -58 -14 -120l-136 -672q-39 -174 -197 -174q-113 0 -144 100q-31 99 173 436
q-110 -278 -90 -332t62 -54q36 0 49 59l137 667q40 183 -96 328q-136 146 -544 146h-849q-168 0 -135 -76q128 -232 119 -273l-89 -425q-45 -213 32 -320q78 -106 277 -106q203 0 323 92q121 92 160 276l75 347q18 85 95 85t53 -111l-209 -968q-36 -167 -166 -294
q-126 -122 -296 -122h-14q-179 5 -279 45q311 30 491 190q92 89 119 217z" />
    <glyph glyph-name="uni1795.a" horiz-adv-x="2379" 
d="M1431 1350q-45 -26 -104 -34q-193 -25 -320 5q-128 30 -336 29q-209 0 -246 -31q-36 -31 -49 -92t52 -137q64 -76 122 -89l-136 -635q34 34 117 34q113 0 331 -137l185 -113q64 0 104 36t54 107l94 441q11 57 -5 86q-15 28 -57 28q-43 0 -63 -16t-33 -66q-13 -66 25 -66
q52 1 52 -74t-51 -76q-111 0 -153 65q-42 66 -21 177q27 112 84 159t160 47q107 0 174 -76q67 -75 38 -214l-96 -438q-27 -135 -106 -202q-79 -68 -206 -68q-34 0 -237 125t-274 125q-61 0 -116 -100q-86 -150 -159 -150q-58 0 -58 58q0 15 4 34l20 92l170 796
q-54 25 -119 102q-64 77 -46 164q27 127 100 190q73 64 329 64q255 1 382 -29q128 -30 241 -19q113 10 143 144q28 131 -54 232q-81 101 -272 173q283 -1 401 -109t72 -325q-8 -36 -19 -67h67q313 0 498 -198q141 -151 141 -336q0 -58 -14 -120l-136 -672
q-39 -174 -197 -174q-113 0 -144 100q-31 99 173 436q-110 -278 -90 -332t62 -54q36 0 49 59l137 667q40 183 -96 328q-136 146 -384 146h-184z" />
    <glyph glyph-name="uni1796.a" horiz-adv-x="2751" 
d="M407 402l-29 -137q-12 -58 -2 -86q9 -29 41 -29q35 0 93 62q58 63 70 121q7 29 -16 51q-22 22 -62 24.5t-95 -6.5zM1635 1008q3 20 3 33q0 25 -8 76q-8 50 -45 112q-37 63 -77 92q-39 29 -76 29q-70 1 -222 -324q-152 -326 -217 -326t-41 181q45 181 -101 376
q-72 93 -130 93q-53 -28 -98 -87q-45 -60 -66 -159l-115 -546q87 14 152 -8q65 -21 109 -84q45 -64 25 -159q-21 -103 -115 -205q-95 -102 -196 -102q-125 0 -171 75q-27 44 -27 115q0 48 13 110l176 825q29 143 100 237q72 94 185 139h27q128 0 245 -134q80 -103 116 -241
q92 201 171 288q79 86 187 86q79 0 151 -54q72 -53 124 -138l21 -37q37 61 85 106q131 123 342 123q262 0 379 -136q78 -90 78 -241q0 -75 -19 -165l-174 -784q-49 -174 -197 -174q-113 0 -144 100q-31 99 173 436q-110 -278 -90 -332t62 -54q32 0 49 59l171 764
q40 189 -38 283q-80 94 -248 94q-150 0 -245 -93q-94 -93 -133 -280l-4 1q-3 -20 -8 -43l-191 -761q-49 -174 -197 -174q-113 0 -144 100q-31 99 173 436q-110 -278 -90 -332t62 -54q32 0 49 59l191 753q5 26 8 45v1z" />
    <glyph glyph-name="uni1797.a" horiz-adv-x="2399" 
d="M660 875q137 225 324 225q201 0 334 -149q132 -149 175 -376q44 -228 -5 -401q-49 -174 -197 -174q-113 0 -175 199l-36 107l90 -78q90 -78 122 -78t49 59q40 146 4 341q-36 186 -132 293t-229 107q-110 1 -199 -158q-95 -175 -163 -428q-69 -252 -125 -308
q-57 -56 -146 -56q-100 0 -175 52q-76 52 -76 197q0 176 54 263q55 88 163 88q83 0 83 -75t-81 -75q-34 0 -52 -50q-17 -49 -17 -149q0 -70 32 -85q31 -16 69 -16q57 0 129 266q71 266 180 459zM522 1221q-102 76 -102 128q0 151 251 151h990q263 0 448 -198
q141 -151 141 -336q0 -58 -14 -120l-136 -672q-39 -174 -197 -174q-113 0 -144 100q-31 99 173 436q-110 -278 -90 -332t62 -54q36 0 49 59l137 667q40 183 -96 328q-136 146 -334 146h-989q-108 0 -95 -77l24 -117z" />
    <glyph glyph-name="uni1798.a" horiz-adv-x="2449" 
d="M1285 801l59 237q45 176 161 319t371 143q256 0 373 -136q76 -88 76 -243q0 -83 -22 -186l-191 -761q-49 -174 -197 -174q-113 0 -144 100q-31 99 173 436q-110 -278 -90 -332t62 -54q32 0 49 59l191 753q42 200 -36 294q-80 94 -246 94q-186 0 -264 -98
q-78 -99 -115 -244l-52 -205q178 9 271 68q-79 -173 -306 -210q-81 -304 -221 -468q-166 -193 -415 -193t-343 144q-93 145 -32 434l77 360q-146 67 -211 144q-50 60 -50 126q0 19 4 38q27 127 100 190q73 64 186 64q101 0 249 -92q101 -64 68 -128q-34 -63 -138 -3
q-120 73 -180 73q-50 0 -86 -31t-49 -92t51 -137q65 -76 207 -166l-79 -374q-42 -200 14 -300q58 -100 214 -100q186 0 314 162q97 123 160 339h-434q-99 0 -99 75t99 75h471z" />
    <glyph glyph-name="uni1799.a" horiz-adv-x="2984" 
d="M1039 241l-38 -48q-166 -193 -365 -193q-249 0 -343 144q-45 70 -45 215q0 156 52 399l100 478q32 187 120 236q51 28 107 28q40 0 83 -15q97 -35 136 -126q38 -90 19 -236q-19 -132 -80 -180q-62 -47 -166 -10q-48 18 -23 89q26 70 74 52q36 -13 47 74q12 83 -3 132
q-14 49 -55 63q-39 14 -63 -7q-24 -20 -46 -126l-100 -473q-82 -387 -26 -487q58 -100 214 -100q136 0 264 162q128 163 197 488l82 387q26 118 107 213q87 100 191 100q55 0 87 -56.5t6 -127.5q-30 34 -90 34q-40 0 -86 -53t-64 -140l-83 -384q-47 -218 -119 -374l28 -49
q114 -200 241 -200q143 0 271 162q128 163 197 488l44 207q53 247 185 370q131 123 342 123q262 0 379 -136q78 -90 78 -241q0 -75 -19 -165l-174 -784q-49 -174 -197 -174q-113 0 -144 100q-31 99 173 436q-110 -278 -90 -332t62 -54q32 0 49 59l171 764q40 189 -38 283
q-80 94 -248 94q-150 0 -245 -93q-94 -93 -133 -280l-45 -204q-83 -387 -248 -580q-166 -193 -372 -193q-187 0 -358 241z" />
    <glyph glyph-name="uni179a.a" horiz-adv-x="1799" 
d="M722 364q-69 -252 -125 -308q-57 -56 -146 -56q-100 0 -175 52q-76 52 -76 197q0 176 54 263q55 88 163 88q83 0 83 -75t-81 -75q-34 0 -52 -50q-17 -49 -17 -149q0 -70 32 -85q31 -16 69 -16q57 0 129 266l105 471q22 106 -12 198q-34 91 -124 168q-77 67 -164 82
q-88 16 -87 90q0 75 100 75h814q256 0 373 -136q76 -88 76 -243q0 -83 -22 -186l-191 -761q-49 -174 -197 -174q-113 0 -144 100q-31 99 173 436q-110 -278 -90 -332t62 -54q32 0 49 59l191 753q42 200 -36 294q-80 94 -246 94h-543q114 -97 155 -220t10 -271z" />
    <glyph glyph-name="uni179b.a" horiz-adv-x="3181" 
d="M427 404l-44 -139q-17 -56 -5 -85q12 -30 44 -30q35 0 93 62q58 63 70 121q7 29 -6 49q-12 19 -47 29t-105 -7zM422 0q-125 0 -177 80q-28 43 -28 105q0 51 20 115l221 715q73 243 201 364q129 121 314 121q194 0 288 -125t88 -376l-8 -398q-5 -225 53 -338t179 -113
q136 0 264 162q128 163 197 488l42 207q53 247 185 370q131 123 342 123q262 0 379 -136q78 -90 78 -241q0 -75 -19 -165l-174 -784q-49 -174 -197 -174q-113 0 -144 100q-31 99 173 436q-110 -278 -90 -332t62 -54q32 0 49 59l171 764q40 189 -38 283q-80 94 -248 94
q-150 0 -245 -93q-94 -93 -133 -280l-43 -204q-83 -387 -248 -580q-166 -193 -365 -193q-196 0 -290 150t-88 449l6 401q4 175 -53 262q-57 88 -173 88q-130 0 -222 -95q-94 -95 -150 -284l-129 -417q82 8 137 -8q55 -17 99 -80q45 -64 25 -159q-21 -103 -115 -205
q-95 -102 -196 -102z" />
    <glyph glyph-name="uni179c.a" horiz-adv-x="1850" 
d="M697 1276q-28 74 -89 74q-75 0 -92 -29q-18 -29 -7 -50q12 -21 92 -21q45 0 96 26zM716 1122q-65 -21 -133 -21q-154 0 -206 99q-52 100 11 200q64 100 239 100q132 0 196 -127q64 64 89 129q33 86 14 149q-19 62 -87 97q-68 34 -236 47q144 45 242 45q27 0 51 -4
q108 -16 157 -137q47 -116 4 -238q106 39 214 39q232 0 349 -136q78 -90 78 -241q0 -75 -19 -165l-174 -784q-49 -174 -197 -174q-113 0 -144 100q-31 99 173 436q-110 -278 -90 -332t62 -54q32 0 49 59l171 764q40 189 -38 283q-80 94 -218 94q-208 0 -405 -153
q6 -150 -52 -424l-94 -409q-69 -252 -125 -308q-57 -56 -146 -56q-100 0 -175 52q-76 52 -76 197q0 176 54 263q55 88 163 88q83 0 83 -75t-81 -75q-34 0 -52 -50q-17 -49 -17 -149q0 -70 32 -85q31 -16 69 -16q57 0 129 266l86 384q43 202 50 322z" />
    <glyph glyph-name="uni179d.a" horiz-adv-x="2300" 
d="M1338 505q-3 22 -7 45q-36 186 -132 293t-259 107q-130 1 -239 -148q-135 -185 -208 -444l-36 -130q117 136 218 204t451 69q117 0 212 4zM1500 395q3 -120 -26 -221q-49 -174 -188 -174q-100 0 -100 75t100 75q24 0 41 59q20 72 21 155q-99 -13 -222 -13
q-316 -1 -391 -59q-74 -59 -175 -176q-100 -116 -210 -116q-76 0 -76 89q0 42 17 105l53 192q83 296 232 499q157 215 364 215q231 0 364 -149q132 -149 175 -376q6 -31 10 -61q185 18 247 57q-55 -122 -236 -176zM488 1221q-102 76 -102 128q0 151 251 151h990
q263 0 448 -198q141 -151 141 -336q0 -58 -14 -120l-136 -672q-39 -174 -197 -174q-113 0 -144 100q-31 99 173 436q-110 -278 -90 -332t62 -54q36 0 49 59l137 667q40 183 -96 328q-136 146 -334 146h-989q-108 0 -95 -77l24 -117z" />
    <glyph glyph-name="uni179e.a" horiz-adv-x="2346" 
d="M1165 104q-153 -104 -394 -104q-291 0 -406 150q-75 98 -75 259q0 87 22 192l106 499q11 58 -30 86q-122 82 -122 164q1 150 301 150h850q473 0 658 -198q141 -151 141 -336q0 -58 -14 -120l-136 -672q-39 -174 -197 -174q-113 0 -144 100q-31 99 173 436
q-110 -278 -90 -332t62 -54q36 0 49 59l137 667q40 183 -96 328q-136 146 -544 146h-849q-168 0 -135 -76q128 -232 119 -273l-89 -425q-45 -213 32 -320q78 -106 277 -106q203 0 323 92q121 92 160 276l18 83h-156q-99 0 -99 75t99 75h188l25 114q18 85 95 85t53 -111
l-18 -86q168 11 257 68q-75 -165 -286 -206l-26 -121q-6 -27 -13 -52l-123 -571q-36 -167 -166 -294q-109 -106 -252 -106q-29 0 -58 4q-179 25 -279 75l199 25q199 25 292 115q92 89 119 217z" />
    <glyph glyph-name="uni179f.a" horiz-adv-x="3133" 
d="M433 404l-44 -139q-17 -56 -5 -85q12 -30 44 -30q35 0 93 62q58 63 70 121q7 29 -6 49q-12 19 -47 29t-105 -7zM667 1049q-156 20 -235 71q-121 78 -121 230q1 151 251 151h580q149 0 149 -75t-150 -75h-579q-108 0 -101 -79q5 -112 261 -198q68 26 143 26
q171 0 284 -149q112 -149 155 -376l52 -216q59 -209 246 -209q143 0 221 162q78 163 147 488l44 207q53 247 185 370q131 123 342 123q262 0 379 -136q78 -90 78 -241q0 -75 -19 -165l-174 -784q-49 -174 -197 -174q-113 0 -144 100q-31 99 173 436q-110 -278 -90 -332
t62 -54q32 0 49 59l171 764q40 189 -38 283q-80 94 -248 94q-150 0 -245 -93q-94 -93 -133 -280l-45 -204q-83 -387 -198 -580q-116 -193 -322 -193q-309 0 -387 331l-57 219q-36 186 -112 293t-179 107q-130 1 -239 -129q-115 -142 -148 -267q82 8 137 -8q55 -17 99 -80
q45 -64 25 -159q-21 -103 -115 -205q-95 -102 -196 -102q-125 0 -177 80q-28 43 -28 105q0 51 20 115l82 286q47 158 176 318q77 96 166 145z" />
    <glyph glyph-name="uni17a0.a" horiz-adv-x="3198" 
d="M2147 1212q-11 25 -27 44q-80 94 -246 94q-186 0 -264 -98q-78 -99 -115 -244l-60 -235q-83 -387 -248 -580q-166 -193 -415 -193t-343 144q-93 145 -32 434l77 360q-146 67 -211 144q-50 60 -50 126q0 19 4 38q27 127 100 190q73 64 186 64q101 0 249 -92
q101 -64 68 -128q-34 -63 -138 -3q-120 73 -180 73q-50 0 -86 -31t-49 -92t51 -137q65 -76 207 -166l-79 -374q-42 -200 14 -300q58 -100 214 -100q186 0 314 162q128 163 197 488l59 238q45 176 161 319t371 143q256 0 373 -136q1 -2 3 -3q39 40 82 62q149 77 301 77
q232 0 349 -136q78 -90 78 -241q0 -75 -19 -165l-174 -784q-49 -174 -197 -174q-113 0 -144 100q-31 99 173 436q-110 -278 -90 -332t62 -54q32 0 49 59l171 764q40 189 -38 283q-80 94 -218 94q-168 0 -328 -99q35 -124 -6 -316l-191 -761q-49 -174 -197 -174
q-113 0 -144 100q-31 99 173 436q-110 -278 -90 -332t62 -54q32 0 49 59l191 753q22 105 11 181q-46 -42 -91 -92q34 91 71 161z" />
    <glyph glyph-name="uni17a1.a" horiz-adv-x="2902" 
d="M1089 720l2 7q20 93 68 93t37 -50q-10 -50 -82 -50h-25zM1104 570q102 0 163 44q60 43 78 131q24 112 -22 169q-46 56 -162 56q-86 0 -140 -53t-76 -158l-7 -31q-63 7 -118 19q-123 28 -248 128q-125 101 -149 181q-17 60 -15 119q20 63 115 119q96 56 305 56
q69 0 202 -17.5t373 -120.5q-132 212 -341 260q-144 28 -240 28q-236 0 -382 -82q-145 -82 -174 -219q-5 -30 -5 -62q0 -61 20 -126q39 -128 196 -253q157 -124 300 -156q61 -14 130 -21l-57 -244q-20 -94 -67 -141q-47 -46 -102 -46q-58 0 -86 98l-69 240q-33 113 -104 92
q-72 -21 -43 -123l71 -248q59 -209 229 -209q117 0 201 78q85 77 118 232l58 261q24 -1 48 -1zM1790 1007q53 247 185 370q131 123 342 123q262 0 379 -136q78 -90 78 -241q0 -75 -19 -165l-174 -784q-49 -174 -197 -174q-113 0 -144 100q-31 99 173 436q-110 -278 -90 -332
t62 -54q32 0 49 59l171 764q40 189 -38 283q-80 94 -248 94q-150 0 -245 -93q-94 -93 -133 -280l-331 -1547q-30 -140 -109 -210t-173 -70q-34 0 -237 125t-264 125t-116 -100q-86 -150 -159 -150t-54 92l20 92l84 394q4 22 -34 22q-88 0 -88 75t90 75q116 0 158 -50
q43 -50 22 -150l-39 -184q34 34 117 34q103 0 321 -137l185 -113q27 0 69 38q41 39 58 115z" />
    <glyph glyph-name="uni17a2.a" horiz-adv-x="2634" 
d="M691 938q-146 67 -211 144q-64 77 -46 164q27 127 100 190q73 64 186 64q101 0 249 -92q101 -64 68 -128q-34 -63 -138 -3q-120 73 -180 73q-50 0 -86 -31t-49 -92t51 -137q65 -76 207 -166l-121 -560q-69 -252 -125 -308q-57 -56 -146 -56q-100 0 -175 52
q-76 52 -76 197q0 176 54 263q55 88 163 88q83 0 83 -75t-81 -75q-34 0 -52 -50q-17 -49 -17 -149q0 -70 32 -85q31 -16 69 -16q57 0 129 266zM1668 856q149 13 231 65q-71 -155 -260 -201l-79 -356q-69 -252 -125 -308q-57 -56 -146 -56q-100 0 -175 52q-76 52 -76 197
q0 176 54 263q55 88 163 88q83 0 83 -75t-81 -75q-34 0 -52 -50q-17 -49 -17 -149q0 -70 32 -85q31 -16 69 -16q57 0 129 266l61 285h-480q-99 0 -99 75t99 75h512l40 187q40 178 161 319q116 143 371 143q256 0 373 -136q76 -88 76 -243q0 -83 -22 -186l-191 -761
q-49 -174 -197 -174q-113 0 -144 100q-31 99 173 436q-110 -278 -90 -332t62 -54q32 0 49 59l191 753q42 200 -36 294q-80 94 -246 94q-186 0 -264 -98q-83 -101 -115 -244z" />
    <glyph glyph-name="uni1783.sub.a" horiz-adv-x="1581" 
d="M-379 -781q-86 -69 -221 -69q-206 0 -290 91q-83 91 -44 273l45 214q4 22 -34 22q-28 0 -28 -50q0 -80 -75 -80t-75 81q0 99 45 149t135 50q116 0 158 -50q43 -50 22 -150l-43 -200q-21 -100 25 -150t159 -50q170 0 202 186q29 122 -58 200l-44 39q-44 39 -26 107t147 68
q50 0 162 -37q81 -24 61.5 -96.5t-107.5 -44.5t-116 28q164 -112 130 -292q-20 -94 -61 -160q14 2 30 2h123q187 0 229 38q41 39 58 115l328 1554q53 247 185 370q131 123 342 123q262 0 379 -136q78 -90 78 -241q0 -75 -19 -165l-174 -784q-49 -174 -197 -174
q-113 0 -144 100q-31 99 173 436q-110 -278 -90 -332t62 -54q32 0 49 59l171 764q40 189 -38 283q-80 94 -248 94q-150 0 -245 -93q-94 -93 -133 -280l-330 -1547q-30 -140 -109 -210t-333 -70h-117q-95 0 -99 69z" />
    <glyph glyph-name="uni1788.sub.a" horiz-adv-x="1573" 
d="M-352 -827q-68 -23 -151 -23q-206 0 -289 94t-44 282q23 112 3 168t-83 56q-93 0 -161 -98q-68 -99 -111 -296q-13 -56 35 -57q100 1 100 -74t-100 -75q-116 0 -162 58q-28 38 -28 99q0 33 8 74q54 259 159 389t262 130t214 -98q57 -99 15 -296q-22 -103 24 -154
q45 -52 158 -52q82 0 128 25q46 26 62 94l12 67q25 122 -62 200l-44 39q-44 39 -26 107t147 68q50 0 162 -37q81 -24 61.5 -96.5t-107.5 -44.5t-116 28q164 -112 134 -292l-11 -60q-12 -55 -34 -98h47q187 0 229 38q41 39 58 115l329 1554q53 247 185 370q131 123 342 123
q262 0 379 -136q78 -90 78 -241q0 -75 -19 -165l-174 -784q-49 -174 -197 -174q-113 0 -144 100q-31 99 173 436q-110 -278 -90 -332t62 -54q32 0 49 59l171 764q40 189 -38 283q-80 94 -248 94q-150 0 -245 -93q-94 -93 -133 -280l-331 -1547q-30 -140 -109 -210t-333 -70
h-117q-54 0 -79 23z" />
    <glyph glyph-name="uni178d.sub.a" horiz-adv-x="1573" 
d="M-1476 -555l-17 -77q-15 -70 30 -70q73 0 110 24t37 73q0 25 -35 38q-35 12 -105 13zM463 1007q53 247 185 370q131 123 342 123q262 0 379 -136q78 -90 78 -241q0 -75 -19 -165l-174 -784q-49 -174 -197 -174q-113 0 -144 100q-31 99 173 436q-110 -278 -90 -332t62 -54
q32 0 49 59l171 764q40 189 -38 283q-80 94 -248 94q-150 0 -245 -93q-94 -93 -133 -280l-330 -1547q-30 -140 -109 -210t-173 -70q-34 0 -237 125t-264 125t-116 -100q-86 -150 -159 -150t-54 92l20 92l56 263q14 61 -21 99q-34 37 -91 37q-47 0 -102 -50q-56 -49 -105 -49
q-45 0 -143 50t-135 51q-63 2 -73 -50l-21 -92q140 0 210 -49q70 -50 70 -149q0 -122 -75 -184q-75 -61 -226 -61q-120 0 -166 70q-20 36 -20 91q0 38 9 84l63 290q21 99 91 149q70 49 130 49q89 0 188 -46l94 -51q143 99 199 99q67 0 189 -63q61 -32 82 -96q21 -63 2 -158
l-12 -52q34 34 117 34q103 0 321 -137l185 -113q27 0 69 38q41 39 58 115z" />
    <glyph glyph-name="uni1794.sub.a" horiz-adv-x="1561" 
d="M451 1007q53 247 185 370q131 123 342 123q262 0 379 -136q78 -90 78 -241q0 -75 -19 -165l-174 -784q-49 -174 -197 -174q-113 0 -144 100q-31 99 173 436q-110 -278 -90 -332t62 -54q32 0 49 59l171 764q40 189 -38 283q-80 94 -248 94q-150 0 -245 -93
q-94 -93 -133 -280l-330 -1547q-30 -140 -109 -210t-173 -70q-34 0 -237 125t-264 125t-116 -100q-86 -150 -159 -150q-57 0 -57 58q0 16 3 34l20 92l106 497q14 69 91 69t56 -100l-60 -284q34 34 117 34q103 0 321 -137l185 -113q27 0 69 38q41 39 58 115z" />
    <glyph glyph-name="uni1799.sub.a" horiz-adv-x="1569" 
d="M485 1007q53 247 185 370q131 123 342 123q262 0 379 -136q78 -90 78 -241q0 -75 -19 -165l-174 -784q-49 -174 -197 -174q-113 0 -144 100q-31 99 173 436q-110 -278 -90 -332t62 -54q32 0 49 59l171 764q40 189 -38 283q-80 94 -248 94q-150 0 -245 -93
q-94 -93 -133 -280l-291 -1355q-100 -472 -512 -472q-330 0 -471 116q-103 86 -103 237q0 52 12 112l27 124q17 81 71 121t145 40q113 0 156 -67t22 -161q-17 -72 -93 -72t-57 93q13 57 -47 57q-41 0 -51 -48l-21 -100q-32 -151 70 -227q103 -75 340 -75q288 0 361 345z" />
    <glyph glyph-name="uni179e.sub.a" horiz-adv-x="1594" 
d="M265 11l-114 14q-99 13 -90 87t108 62l127 -16l179 849q53 247 185 370q131 123 342 123q262 0 379 -136q78 -90 78 -241q0 -75 -19 -165l-174 -784q-49 -174 -197 -174q-113 0 -144 100q-31 99 173 436q-110 -278 -90 -332t62 -54q32 0 49 59l171 764q40 189 -38 283
q-80 94 -248 94q-150 0 -245 -93q-94 -93 -133 -280l-178 -837l119 -15q99 -12 90 -86q-9 -75 -109 -62l-131 16l-120 -563q-30 -140 -109 -210t-173 -70q-34 0 -237 125t-264 125t-116 -100q-86 -150 -159 -150q-57 0 -57 58q0 16 3 34l20 92l106 497q14 69 91 69t56 -100
l-60 -284q34 34 117 34q103 0 321 -137l185 -113q27 0 69 38q41 39 58 115z" />
    <glyph glyph-name="uni179f.sub.a" horiz-adv-x="1600" 
d="M254 10l-124 15q-99 13 -90 87t108 62l137 -17l179 850q53 247 185 370q131 123 342 123q262 0 379 -136q78 -90 78 -241q0 -75 -19 -165l-174 -784q-49 -174 -197 -174q-113 0 -144 100q-31 99 173 436q-110 -278 -90 -332t62 -54q32 0 49 59l171 764q40 189 -38 283
q-80 94 -248 94q-150 0 -245 -93q-94 -93 -133 -280l-178 -839l109 -13q99 -12 90 -86q-9 -75 -109 -62l-121 15l-97 -458q-84 -384 -509 -384q-292 0 -419 91q-127 92 -43 487q4 22 -34 22q-28 0 -28 -50q0 -80 -75 -80t-75 81q0 99 45 149t135 50q116 0 158 -50
q43 -50 22 -150q-63 -300 25 -350t285 -50q307 0 364 263z" />
    <glyph glyph-name="uni1783.sub.alt.a" horiz-adv-x="1569" 
d="M-539 -1531q-86 -69 -221 -69q-206 0 -290 91q-83 91 -44 273l28 164q4 22 -34 22q-28 0 -28 -50q0 -80 -75 -80t-75 81q0 99 45 149t135 50q116 0 158 -50q43 -50 22 -150l-26 -150q-21 -100 25 -150t159 -50q170 0 202 186q12 72 -75 150l-44 39q-44 39 -26 107t147 68
q50 0 162 -37q81 -24 61.5 -96.5t-107.5 -44.5t-116 28q164 -112 147 -242q-20 -94 -61 -160q14 2 30 2h123q187 0 229 38q41 39 58 115l489 2304q53 247 185 370q131 123 342 123q262 0 379 -136q78 -90 78 -241q0 -75 -19 -165l-174 -784q-49 -174 -197 -174
q-113 0 -144 100q-31 99 173 436q-110 -278 -90 -332t62 -54q32 0 49 59l171 764q40 189 -38 283q-80 94 -248 94q-150 0 -245 -93q-94 -93 -133 -280l-491 -2297q-30 -140 -109 -210t-333 -70h-117q-95 0 -99 69z" />
    <glyph glyph-name="uni1788.sub.alt.a" horiz-adv-x="1565" 
d="M-512 -1577q-68 -23 -151 -23q-206 0 -289 94t-44 282q13 62 -7 118t-83 56q-93 0 -161 -98q-68 -99 -101 -246q-13 -56 35 -57q100 1 100 -74t-100 -75q-116 0 -162 58q-28 38 -28 99q0 33 8 74q44 209 149 339t262 130t214 -98q57 -99 25 -246q-22 -103 24 -154
q45 -52 158 -52q82 0 128 25q46 26 62 94l12 67q18 72 -69 150l-44 39q-44 39 -26 107t147 68q50 0 162 -37q81 -24 61.5 -96.5t-107.5 -44.5t-116 28q164 -112 141 -242l-11 -60q-12 -55 -34 -98h47q187 0 229 38q41 39 58 115l489 2304q53 247 185 370q131 123 342 123
q262 0 379 -136q78 -90 78 -241q0 -75 -19 -165l-174 -784q-49 -174 -197 -174q-113 0 -144 100q-31 99 173 436q-110 -278 -90 -332t62 -54q32 0 49 59l171 764q40 189 -38 283q-80 94 -248 94q-150 0 -245 -93q-94 -93 -133 -280l-491 -2297q-30 -140 -109 -210t-333 -70
h-117q-54 0 -79 23z" />
    <glyph glyph-name="uni178d.sub.alt.a" horiz-adv-x="1557" 
d="M-1635 -1305l-17 -77q-15 -70 30 -70q73 0 110 24t37 73q0 25 -35 38q-35 12 -105 13zM463 1007q53 247 185 370q131 123 342 123q262 0 379 -136q78 -90 78 -241q0 -75 -19 -165l-174 -784q-49 -174 -197 -174q-113 0 -144 100q-31 99 173 436q-110 -278 -90 -332
t62 -54q32 0 49 59l171 764q40 189 -38 283q-80 94 -248 94q-150 0 -245 -93q-94 -93 -133 -280l-489 -2297q-30 -140 -109 -210t-173 -70q-34 0 -237 125t-264 125t-116 -100q-86 -150 -159 -150t-54 92l20 92l46 223q14 61 -21 99q-34 37 -91 37q-47 0 -102 -50
q-56 -49 -105 -49q-45 0 -143 50t-135 51q-63 2 -73 -50l-11 -52q140 0 210 -49q70 -50 70 -149q0 -122 -75 -184q-75 -61 -226 -61q-120 0 -166 70q-20 36 -20 91q0 38 9 84l53 250q21 99 91 149q70 49 130 49q89 0 188 -46l94 -51q143 99 199 99q67 0 189 -63
q61 -32 82 -96q21 -63 2 -158l-2 -12q34 34 117 34q103 0 321 -137l185 -113q27 0 69 38q41 39 58 115z" />
    <glyph glyph-name="uni1794.sub.alt.a" horiz-adv-x="1561" 
d="M451 1007q53 247 185 370q131 123 342 123q262 0 379 -136q78 -90 78 -241q0 -75 -19 -165l-174 -784q-49 -174 -197 -174q-113 0 -144 100q-31 99 173 436q-110 -278 -90 -332t62 -54q32 0 49 59l171 764q40 189 -38 283q-80 94 -248 94q-150 0 -245 -93
q-94 -93 -133 -280l-489 -2297q-30 -140 -109 -210t-173 -70q-34 0 -237 125t-264 125t-116 -100q-86 -150 -159 -150q-57 0 -57 58q0 16 3 34l20 92l96 447q14 69 91 69t56 -100l-50 -234q34 34 117 34q103 0 321 -137l185 -113q27 0 69 38q41 39 58 115z" />
    <glyph glyph-name="uni1799.sub.alt.a" horiz-adv-x="1569" 
d="M484 1007q53 247 185 370q131 123 342 123q262 0 379 -136q78 -90 78 -241q0 -75 -19 -165l-174 -784q-49 -174 -197 -174q-113 0 -144 100q-31 99 173 436q-110 -278 -90 -332t62 -54q32 0 49 59l171 764q40 189 -38 283q-80 94 -248 94q-150 0 -245 -93
q-94 -93 -133 -280l-449 -2105q-100 -472 -552 -472q-290 0 -431 116q-105 88 -105 232q0 46 10 97l21 94q17 81 71 121t145 40q113 0 156 -67t22 -161q-17 -72 -93 -72t-57 93q13 57 -47 57q-41 0 -51 -48l-15 -70q-28 -131 74 -207q103 -75 300 -75q328 0 401 345z" />
    <glyph glyph-name="uni179e.sub.alt.a" horiz-adv-x="1573" 
d="M272 18l-130 30q-97 23 -80 96q17 72 114 50l127 -30l178 843q53 247 185 370q131 123 342 123q262 0 379 -136q78 -90 78 -241q0 -75 -19 -165l-174 -784q-49 -174 -197 -174q-113 0 -144 100q-31 99 173 436q-110 -278 -90 -332t62 -54q32 0 49 59l171 764
q40 189 -38 283q-80 94 -248 94q-150 0 -245 -93q-94 -93 -133 -280l-181 -848l115 -27q97 -22 80 -95t-115 -50l-111 26l-277 -1303q-30 -140 -109 -210t-173 -70q-34 0 -237 125t-264 125t-116 -100q-86 -150 -159 -150q-57 0 -57 58q0 16 3 34l20 92l96 447q14 69 91 69
t56 -100l-50 -234q34 34 117 34q103 0 321 -137l185 -113q27 0 69 38q41 39 58 115z" />
    <glyph glyph-name="uni179f.sub.alt.a" horiz-adv-x="1581" 
d="M254 10l-124 15q-99 13 -90 87t108 62l137 -17l180 850q53 247 185 370q131 123 342 123q262 0 379 -136q78 -90 78 -241q0 -75 -19 -165l-174 -784q-49 -174 -197 -174q-113 0 -144 100q-31 99 173 436q-110 -278 -90 -332t62 -54q32 0 49 59l171 764q40 189 -38 283
q-80 94 -248 94q-150 0 -245 -93q-94 -93 -133 -280l-178 -839l108 -13q99 -12 90 -86q-9 -75 -109 -62l-120 15l-257 -1208q-84 -384 -539 -384q-262 0 -389 91q-127 92 -43 487q4 22 -34 22q-28 0 -28 -50q0 -80 -75 -80t-75 81q0 99 45 149t135 50q116 0 158 -50
q43 -50 22 -150q-63 -300 25 -350t255 -50q337 0 394 263z" />
    <glyph glyph-name="uni1780.au" horiz-adv-x="2300" 
d="M261 130l71 256q83 296 232 499q157 215 364 215q231 0 364 -149q132 -149 175 -376q44 -228 -5 -401q-49 -174 -197 -174q-113 0 -175 199l-36 107l90 -78q90 -78 122 -78t49 59q40 146 4 341q-36 186 -132 293t-259 107q-130 1 -239 -148q-135 -185 -208 -444l-72 -260
q-29 -98 -107 -98q-52 0 -52 60q0 29 11 70zM2016 1110q-26 49 -68 94q-136 146 -334 146h-989q-108 0 -95 -77l24 -117l-78 65q-102 76 -102 128q0 151 251 151h990q260 0 444 -194l88 395q12 58 -32 104q-44 45 -103 45h-199q-99 0 -99 75t100 75h201q120 0 214 -97
q72 -74 72 -169q0 -29 -7 -60q-68 -269 -171 -446q114 -171 67 -382l-136 -672q-39 -174 -197 -174q-113 0 -144 100q-31 99 173 436q-110 -278 -90 -332t62 -54q36 0 49 59l137 667q25 115 -19 214l-18 -20z" />
    <glyph glyph-name="uni1781.au" horiz-adv-x="2300" 
d="M2008 1182q-4 11 -9 22q-61 146 -199 146q-102 0 -434 -583q-206 -367 -340 -517q-238 -250 -430 -250q-99 0 -173 37q-123 62 -123 197q0 131 518 541q290 229 318 355q22 98 -33.5 159t-164.5 61q-139 0 -249.5 -56t-131 -149t7.5 -159q38 -88 -36.5 -112.5
t-106.5 63.5q-36 124 -6.5 261.5t185 219.5t361.5 82q186 0 274 -96.5t46 -295.5q-37 -188 -363 -447q-469 -370 -469 -435q0 -33 45 -55q46 -21 106 -21q120 0 305 192q118 126 319 481q384 677 587 677q147 0 243 -105l68 306q12 58 -32 104q-44 45 -103 45h-199
q-99 0 -99 75t100 75h201q120 0 214 -97q72 -74 72 -169q0 -29 -7 -60q-57 -229 -141 -391q92 -191 37 -437l-136 -672q-39 -174 -197 -174q-113 0 -144 100q-31 99 173 436q-110 -278 -90 -332t62 -54q36 0 49 59l137 667q29 132 5 243q-20 -26 -42 -49z" />
    <glyph glyph-name="uni1782.au" horiz-adv-x="2300" 
d="M291 194l53 192q83 296 232 499q157 215 364 215q231 0 364 -149q132 -149 175 -376q44 -228 -5 -401q-49 -174 -188 -174q-100 0 -100 75t100 75q24 0 41 59q40 146 4 341q-36 186 -132 293t-259 107q-130 1 -239 -148q-135 -185 -208 -444l-36 -130q117 136 218 204
t184 68q113 0 170 -50t57 -150t-74 -100q-75 1 -75 100q-1 50 -78 50q-49 0 -124 -58q-74 -59 -175 -176q-100 -116 -210 -116q-76 0 -76 89q0 42 17 105zM2028 1110q-26 49 -68 94q-136 146 -334 146h-989q-108 0 -95 -77l24 -117l-78 65q-102 76 -102 128q0 151 251 151
h990q260 0 444 -194l88 395q12 58 -32 104q-44 45 -103 45h-199q-99 0 -99 75t100 75h201q120 0 214 -97q72 -74 72 -169q0 -29 -7 -60q-68 -269 -171 -446q114 -171 67 -382l-136 -672q-39 -174 -197 -174q-113 0 -144 100q-31 99 173 436q-110 -278 -90 -332t62 -54
q36 0 49 59l137 667q25 115 -19 214l-18 -20z" />
    <glyph glyph-name="uni1783.au" horiz-adv-x="3180" 
d="M1197 241l-38 -48q-166 -193 -365 -193q-249 0 -343 144q-93 145 7 614l38 180l62 298q11 57 -5 86q-15 28 -57 28q-43 0 -73 -41t-47 -123q-19 -86 19 -86q52 1 52 -74t-51 -76q-111 0 -153 65q-26 40 -26 104q0 42 11 93q31 144 98 216t170 72q107 0 174 -76
q67 -75 38 -214l-100 -473q-82 -387 -26 -487q58 -100 214 -100q136 0 264 162q128 163 197 488l31 138q-147 67 -212 144q-64 77 -46 164q27 127 100 190q73 64 186 64q101 0 249 -92q101 -64 67 -128q-33 -63 -137 -3q-120 73 -180 73q-49 0 -86 -31q-36 -31 -49 -92
t52 -137q64 -76 206 -166l-31 -151q-47 -218 -119 -374l28 -49q114 -200 241 -200q143 0 271 162q128 163 197 488l44 207q53 247 185 370q131 123 342 123q227 0 346 -103l67 304q12 58 -32 104q-44 45 -103 45h-199q-99 0 -99 75t100 75h201q120 0 214 -97q72 -74 72 -169
q0 -29 -7 -60q-56 -221 -136 -381q58 -127 14 -335l-174 -784q-49 -174 -197 -174q-113 0 -144 100q-31 99 173 436q-110 -278 -90 -332t62 -54q32 0 49 59l171 764q15 71 13 129q-14 -17 -28 -32l21 94q-12 54 -44 92q-80 94 -248 94q-150 0 -245 -93q-94 -93 -133 -280
l-45 -204q-83 -387 -248 -580q-166 -193 -372 -193q-187 0 -358 241z" />
    <glyph glyph-name="uni1784.au" horiz-adv-x="2350" 
d="M1097 1101q-46 -1 -97 -1q-316 0 -432 136q-101 126 -62 304q64 236 252 317t316 40q-177 -39 -283 -136q-105 -97 -138 -251q-19 -87 45 -168q79 -91 303 -91h60q-1 12 -1 21q0 128 63 203t186 75q100 0 168 -71q19 -20 31 -45q138 66 278 66q200 0 315 -101l67 302
q12 58 -32 104q-44 45 -103 45h-199q-99 0 -99 75t100 75h201q120 0 214 -97q72 -74 72 -169q0 -29 -7 -60q-55 -221 -135 -380q59 -128 14 -336l-174 -784q-49 -174 -197 -174q-113 0 -144 100q-31 99 173 436q-110 -278 -90 -332t62 -54q32 0 49 59l171 764q15 72 13 130
q-14 -17 -29 -33l21 96q-12 53 -43 90q-80 94 -218 94q-136 0 -268 -65q-21 -92 -125 -138q-39 -17 -103 -28l-28 -29q6 -18 14 -38q68 -179 29 -333l-94 -439q-30 -140 -109 -210t-173 -70q-74 0 -266 200q-54 50 -115 50t-116 -100q-86 -150 -159 -150q-58 0 -58 58
q0 15 4 34l20 92l116 552q20 114 -107 114q50 150 131 150t118 -75.5t8 -214.5l-73 -344q34 34 117 34q103 0 201 -93l185 -157q27 0 69 38q41 39 58 115l96 447q21 97 -32 255q-18 53 -31 96zM1347 1293q13 19 27 36q7 35 -8 52q-16 19 -56 19q-44 0 -72 -40
q-28 -41 -28 -90q0 -4 1 -10q96 10 136 33z" />
    <glyph glyph-name="uni1785.au" horiz-adv-x="2348" 
d="M2036 1096q-26 56 -75 108q-136 146 -544 146h-849q-168 0 -135 -76q128 -232 119 -273l-89 -425q-45 -213 32 -320q78 -106 277 -106q203 0 323 92q121 92 160 276l46 216q11 57 -5 86q-15 28 -57 28q-43 0 -63 -16t-33 -66q-13 -66 25 -66q52 1 52 -74t-51 -76
q-111 0 -153 65q-42 66 -21 177q27 112 84 159t160 47q107 0 174 -76q67 -75 38 -214l-46 -214q-53 -247 -211 -370q-159 -124 -422 -124q-291 0 -406 150q-75 98 -75 259q0 87 22 192l106 499q11 58 -30 86q-122 82 -122 164q1 150 301 150h850q473 0 658 -198q2 -2 4 -5
l90 404q12 58 -32 104q-44 45 -103 45h-199q-99 0 -99 75t100 75h201q120 0 214 -97q72 -74 72 -169q0 -29 -7 -60q-69 -275 -176 -454q108 -168 62 -374l-136 -672q-39 -174 -197 -174q-113 0 -144 100q-31 99 173 436q-110 -278 -90 -332t62 -54q36 0 49 59l137 667
q24 110 -16 206q-5 -6 -11 -12z" />
    <glyph glyph-name="uni1786.au" horiz-adv-x="2649" 
d="M300 250q0 -100 50 -100q49 0 70 100l22 100h-41q-51 0 -76 -25t-25 -75zM2319 1096q-26 56 -75 108q-136 146 -554 147h-939q-168 0 -135 -77q128 -232 119 -273l-108 -501q135 0 236 -53t191 -175q89 -122 151 -122q64 0 125 80q62 81 108 288l46 216q11 57 -5 86
q-15 28 -57 28q-43 0 -63 -16t-33 -66q-13 -66 25 -66q52 1 52 -74t-51 -76q-111 0 -153 65q-42 66 -21 177q27 112 84 159t160 47q107 0 174 -76q67 -75 38 -214l-46 -214q-62 -271 -136 -355q-122 -139 -247 -139q-130 0 -267 172q-83 103 -146 140q-63 38 -170 38h-27
l-23 -121q-26 -115 -81 -172q-56 -57 -141 -57q-100 0 -150 62q-50 63 -50 188t63 188q62 62 188 62h72l129 600q11 58 -30 86q-122 82 -122 164q1 151 301 151h940q483 -1 668 -199q2 -2 4 -5l90 404q12 58 -32 104q-44 45 -103 45h-199q-99 0 -99 75t100 75h201
q120 0 214 -97q72 -74 72 -169q0 -29 -7 -60q-69 -275 -176 -454q108 -168 62 -374l-136 -672q-39 -174 -197 -174q-113 0 -144 100q-31 99 173 436q-110 -278 -90 -332t62 -54q36 0 49 59l137 667q24 110 -16 206q-5 -6 -11 -12z" />
    <glyph glyph-name="uni1787.au" horiz-adv-x="2376" 
d="M1425 1350q-45 -26 -104 -34q-193 -25 -320 5q-128 30 -336 29q-209 0 -246 -31q-36 -31 -49 -92t52 -137q64 -76 206 -166l-120 -558q34 34 117 34q103 0 201 -93l185 -157q27 0 69 38q41 39 58 115l86 397q21 97 5 159t-67 146q100 -23 174 -103q74 -79 35 -233
l-84 -389q-30 -140 -109 -210t-173 -70q-74 0 -266 200q-54 50 -115 50t-116 -100q-86 -150 -159 -150t-54 92l20 92l163 754q-147 67 -212 144q-50 60 -50 126q0 19 4 38q27 127 100 190q73 64 329 64q255 1 382 -29q128 -30 241 -19q113 10 143 144q28 131 -54 232
q-81 101 -272 173q283 -1 401 -109t72 -325q-8 -36 -19 -67h67q313 0 498 -198q2 -2 4 -5l90 404q12 58 -32 104q-44 45 -103 45h-199q-99 0 -99 75t100 75h201q120 0 214 -97q72 -74 72 -169q0 -29 -7 -60q-69 -275 -176 -454q108 -168 62 -374l-136 -672
q-39 -174 -197 -174q-113 0 -144 100q-31 99 173 436q-110 -278 -90 -332t62 -54q36 0 49 59l137 667q24 110 -16 206q-5 -6 -11 -12l6 26q-26 56 -75 108q-136 146 -384 146h-184z" />
    <glyph glyph-name="uni1788.au" horiz-adv-x="3948" 
d="M427 404l-44 -139q-17 -56 -5 -85q12 -30 44 -30q35 0 93 62q58 63 70 121q7 29 -6 49q-12 19 -47 29t-105 -7zM1974 241l-38 -48q-166 -193 -365 -193q-196 0 -290 150t-88 449l6 401q4 175 -53 262q-57 88 -173 88q-130 0 -222 -95q-94 -95 -150 -284l-129 -417
q82 8 137 -8q55 -17 99 -80q45 -64 25 -159q-21 -103 -115 -205q-95 -102 -196 -102q-125 0 -177 80q-28 43 -28 105q0 51 20 115l221 715q73 243 201 364q129 121 314 121q194 0 288 -125t88 -376l-8 -398q-5 -225 53 -338t179 -113q136 0 264 162q128 163 197 488l31 138
q-147 67 -212 144q-64 77 -46 164q27 127 100 190q73 64 186 64q101 0 249 -92q101 -64 67 -128q-33 -63 -137 -3q-120 73 -180 73q-49 0 -86 -31q-36 -31 -49 -92t52 -137q64 -76 206 -166l-31 -151q-47 -218 -119 -374l28 -49q114 -200 241 -200q143 0 271 162
q128 163 197 488l44 207q53 247 185 370q131 123 342 123q236 0 354 -110l69 311q12 58 -32 104q-44 45 -103 45h-199q-99 0 -99 75t100 75h201q120 0 214 -97q72 -74 72 -169q0 -29 -7 -60q-57 -229 -141 -391q52 -126 9 -325l-174 -784q-49 -174 -197 -174
q-113 0 -144 100q-31 99 173 436q-110 -278 -90 -332t62 -54q32 0 49 59l171 764q14 64 14 118l-19 -21l15 69q-9 70 -48 117q-80 94 -248 94q-150 0 -245 -93q-94 -93 -133 -280l-45 -204q-83 -387 -248 -580q-166 -193 -372 -193q-187 0 -358 241z" />
    <glyph glyph-name="uni1789.au" horiz-adv-x="3568" 
d="M395 402l-29 -137q-12 -58 -2 -86q9 -29 41 -29q35 0 93 62q58 63 70 121q7 29 -16 51q-22 22 -62 24.5t-95 -6.5zM1625 1057q-1 24 -7 60q-8 50 -45 112q-37 63 -77 92q-39 29 -76 29q-70 1 -222 -324q-152 -326 -217 -326t-41 181q45 181 -101 376q-72 93 -130 93
q-53 -28 -98 -87q-45 -60 -66 -159l-115 -546q87 14 152 -8q65 -21 109 -84q45 -64 25 -159q-21 -103 -115 -205q-95 -102 -196 -102q-125 0 -171 75t-14 225l176 825q29 143 100 237q72 94 185 139h27q128 0 245 -134q80 -103 116 -241q92 201 171 288q79 86 187 86
q79 0 151 -54q72 -53 124 -138q13 -21 23 -42q72 113 156 157q149 77 301 77q232 0 349 -136q22 -25 37 -54q28 37 60 67q131 123 342 123q224 0 342 -100l67 301q12 58 -32 104q-44 45 -103 45h-199q-99 0 -99 75t100 75h201q120 0 214 -97q72 -74 72 -169q0 -29 -7 -60
q-55 -218 -134 -377q61 -128 16 -339l-174 -784q-49 -174 -197 -174q-113 0 -144 100q-31 99 173 436q-110 -278 -90 -332t62 -54q32 0 49 59l171 764q16 74 13 134l-32 -37l23 103q-13 48 -42 83q-80 94 -248 94q-150 0 -245 -93q-94 -93 -133 -280q-2 -9 -4 -19l-209 -980
q-95 -448 -290 -563t-406 -115q-151 0 -295 44q-155 43 -233 131q-79 88 -180 131q-102 44 -227 44q-124 0 -235 -46q-110 -46 -205 -139q-47 -46 -84 -56q-37 -9 -63 18q-19 21 -19 46q0 8 2 17q9 35 54 78q120 116 258 174q139 58 295 58q157 0 284 -55q128 -55 226 -164
q59 -65 188 -98q119 -33 238 -33q148 0 304 78q156 77 241 479l202 966q40 189 -34 283q-80 94 -218 94q-219 0 -426 -169q5 -15 7 -30q11 -72 11 -110q0 -39 -14 -106l-191 -761q-49 -174 -197 -174q-113 0 -144 100q-31 99 173 436q-110 -278 -90 -332t62 -54q32 0 49 59
l191 753q11 53 11 79v13l-3 -3z" />
    <glyph glyph-name="uni178a.au" horiz-adv-x="2453" 
d="M1325 1102l16 -16q5 15 11 29q-13 -7 -27 -13zM1350 1076q67 -71 88 -133q32 -96 13 -185l-106 -478q-30 -140 -109 -210t-173 -70q-34 0 -237 125t-264 125t-116 -100q-86 -150 -159 -150q-58 0 -58 58q0 15 4 34l20 92l158 735q9 40 32 61q24 20 62 20q39 0 53 -25
t3 -74l-115 -535q34 34 117 34q103 0 321 -137l185 -113q27 0 69 38q41 39 58 115l107 493q36 149 -12 294q-117 -40 -281 -40q-295 0 -411 101q-116 102 -78 290q45 209 291 209q231 0 379 -364q-194 214 -379 214q-124 0 -144 -87q-18 -99 68 -156t303 -57q202 0 290 62
q87 62 114 168q13 84 -36 200q-87 137 -224 237q237 -27 360 -206q62 -114 50 -234q145 73 293 73q193 0 307 -94l65 295q12 58 -32 104q-44 45 -103 45h-199q-99 0 -99 75t100 75h201q120 0 214 -97q72 -74 72 -169q0 -29 -7 -60q-54 -213 -130 -369q65 -130 19 -347
l-174 -784q-49 -174 -197 -174q-113 0 -144 100q-31 99 173 436q-110 -278 -90 -332t62 -54q32 0 49 59l171 764q17 79 13 142q-19 -24 -39 -45l26 116q-13 40 -38 70q-80 94 -218 94q-278 0 -538 -274z" />
    <glyph glyph-name="uni178b.au" horiz-adv-x="2400" 
d="M1288 1276q-28 74 -89 74q-75 0 -92 -29q-18 -29 -7 -50q12 -21 92 -21q45 0 96 26zM1414 1373q64 64 89 129q33 86 14 149q-19 62 -87 97q-68 34 -236 47q185 57 293 41t157 -137q45 -111 7 -228q93 29 186 29q200 0 315 -101l67 302q12 58 -32 104q-44 45 -103 45h-199
q-99 0 -99 75t100 75h201q120 0 214 -97q72 -74 72 -169q0 -29 -7 -60q-55 -221 -135 -380q59 -128 14 -336l-174 -784q-49 -174 -197 -174q-113 0 -144 100q-31 99 173 436q-110 -278 -90 -332t62 -54q32 0 49 59l171 764q15 72 13 130q-14 -17 -29 -33l21 96
q-12 53 -43 90q-80 94 -218 94q-176 0 -344 -109q-16 -15 -34 -30q-1 -1 -3 -2q9 -151 -51 -436q-83 -387 -248 -580q-166 -193 -365 -193q-249 0 -343 144q-93 145 7 614l100 478q11 57 -5 86q-15 28 -57 28q-43 0 -73 -41t-47 -123q-19 -86 19 -86q52 1 52 -74t-51 -76
q-111 0 -153 65q-26 40 -26 104q0 42 11 93q31 144 98 216t170 72q107 0 174 -76q67 -75 38 -214l-100 -473q-82 -387 -26 -487q58 -100 214 -100q136 0 264 162q128 163 197 488q36 167 46 278l-25 -27l28 71q-64 -21 -132 -21q-154 0 -206 99q-52 100 11 200
q64 100 239 100q132 0 196 -127z" />
    <glyph glyph-name="uni178c.au" horiz-adv-x="2401" 
d="M1394 1178q-5 -33 -12 -70q-37 -188 -413 -447q-519 -370 -519 -435q0 -33 45 -55q46 -21 106 -21q120 0 365 202q185 152 202 225q18 73 93 73q76 0 55 -92l-70 -327q-34 -163 -158 -270t-388 -158q199 101 285 213q87 111 111 234q-308 -250 -500 -250q-99 0 -173 37
q-123 62 -123 197q0 131 568 541q340 229 368 355q51 220 -38 220q-111 0 -338 -308q-111 308 -172 308q-60 1 -106 -148q-45 -150 -17 -216q38 -88 -36.5 -112.5t-106.5 63.5q-36 124 -6 261q29 138 100 220q70 82 182 82t203 -198q141 198 300 198q178 0 197 -185
q57 74 122 108q149 77 301 77q200 0 315 -101l67 302q12 58 -32 104q-44 45 -103 45h-199q-99 0 -99 75t100 75h201q120 0 214 -97q72 -74 72 -169q0 -29 -7 -60q-55 -221 -135 -380q59 -128 14 -336l-174 -784q-49 -174 -197 -174q-113 0 -144 100q-31 99 173 436
q-110 -278 -90 -332t62 -54q32 0 49 59l171 764q15 72 13 130q-14 -17 -29 -33l21 96q-12 53 -43 90q-80 94 -218 94q-221 0 -429 -172z" />
    <glyph glyph-name="uni178d.au" horiz-adv-x="3599" 
d="M407 402l-29 -137q-12 -58 -2 -86q9 -29 41 -29q35 0 93 62q58 63 70 121q7 29 -16 51q-22 22 -62 24.5t-95 -6.5zM1348 250q0 -100 50 -100q49 0 70 100l22 100h-41q-51 0 -76 -25t-25 -75zM3306 1139q-9 70 -48 117q-80 94 -248 94q-150 0 -245 -93q-94 -93 -136 -280
l-103 -483q-62 -271 -136 -355q-122 -139 -227 -139q-110 0 -247 172q-83 103 -146 140q-63 38 -100 38h-27l-23 -121q-26 -115 -81 -172q-56 -57 -141 -57q-100 0 -150 62q-50 63 -50 188t63 188q62 62 188 62h72l65 300q52 215 52 240.5t-8 76.5q-8 50 -45 112
q-37 63 -77 92q-39 29 -76 29q-70 1 -222 -324q-152 -326 -217 -326t-41 181q45 181 -101 376q-72 93 -130 93q-34 0 -98 -87q-45 -60 -66 -159l-115 -546q87 14 152 -8q65 -21 109 -84q45 -64 25 -159q-21 -103 -115 -205q-95 -102 -196 -102q-125 0 -171 75
q-27 44 -27 115q0 48 13 110l176 825q29 143 100 237q55 74 105 106t107 32q138 0 245 -133q80 -103 116 -241q92 201 171 288q79 86 187 86q79 0 151 -54q72 -53 124 -138q51 -85 63 -157q11 -72 11 -110q0 -39 -54 -265l-59 -276q65 0 166 -53t191 -175q89 -122 131 -122
q44 0 105 80q62 81 108 288l106 489q52 247 184 370q131 123 342 123q236 0 354 -110l69 311q12 58 -32 104q-44 45 -103 45h-199q-99 0 -99 75t100 75h201q120 0 214 -97q72 -74 72 -169q0 -29 -7 -60q-57 -229 -141 -391q52 -126 9 -325l-174 -784q-49 -174 -197 -174
q-113 0 -144 100q-31 99 173 436q-110 -278 -90 -332t62 -54q32 0 49 59l171 764q14 64 14 118l-19 -21z" />
    <glyph glyph-name="uni178e.au" horiz-adv-x="4000" 
d="M433 404l-44 -139q-17 -56 -5 -85q12 -30 44 -30q35 0 93 62q58 63 70 121q7 29 -6 49q-12 19 -47 29t-105 -7zM2926 1149q-11 65 -46 107q-80 94 -218 94q-176 0 -282 -81q-105 -82 -140 -245l-158 -744q-30 -140 -109 -210t-173 -70q-74 0 -266 200q-54 50 -115 50
t-116 -100q-86 -150 -159 -150t-54 92l69 294q45 233 46 614q4 175 -53 262q-57 88 -173 88q-130 0 -222 -95q-94 -95 -150 -284l-129 -417q82 8 137 -8q55 -17 99 -80q45 -64 25 -159q-21 -103 -115 -205q-95 -102 -196 -102q-125 0 -177 80q-28 43 -28 105q0 51 20 115
l221 715q73 243 201 364q129 121 314 121q194 0 288 -125t88 -376q-8 -398 -52 -633q34 34 117 34q103 0 201 -93l185 -157q27 0 69 38q41 39 58 115l161 748q47 225 188 337q142 112 378 112q232 0 349 -136q14 -16 25 -34q52 63 110 93q149 77 301 77q200 0 315 -101
l67 302q12 58 -32 104q-44 45 -103 45h-199q-99 0 -99 75t100 75h201q120 0 214 -97q72 -74 72 -169q0 -29 -7 -60q-55 -221 -135 -380q59 -128 14 -336l-174 -784q-49 -174 -197 -174q-113 0 -144 100q-31 99 173 436q-110 -278 -90 -332t62 -54q32 0 49 59l171 764
q15 72 13 130q-14 -17 -29 -33l21 96q-12 53 -43 90q-80 94 -218 94q-190 0 -371 -128q24 -117 -12 -287l-191 -761q-49 -174 -197 -174q-113 0 -144 100q-31 99 173 436q-110 -278 -90 -332t62 -54q32 0 49 59l191 753q16 76 14 137q-23 -23 -45 -48q19 53 40 98z" />
    <glyph glyph-name="uni178f.au" horiz-adv-x="2298" 
d="M495 404l-44 -139q-17 -56 -5 -85q12 -30 44 -30q35 0 93 62q58 63 70 121q7 29 -6 49q-12 19 -47 29t-105 -7zM540 554q82 8 137 -8q55 -17 99 -80q45 -64 25 -159q-21 -103 -115 -205q-95 -102 -196 -102q-125 0 -177 80q-28 43 -28 105q0 51 20 115l82 286
q47 158 176 318q157 196 364 196q231 0 364 -149q132 -149 175 -376q44 -228 -5 -401q-49 -174 -188 -174q-100 0 -100 75t100 75q24 0 41 59q40 146 4 341q-36 186 -132 293t-259 107q-130 1 -239 -129q-115 -142 -148 -267zM2015 1110q-26 49 -68 94q-136 146 -334 146
h-989q-108 0 -95 -77l24 -117l-78 65q-102 76 -102 128q0 151 251 151h990q260 0 444 -194l88 395q12 58 -32 104q-44 45 -103 45h-199q-99 0 -99 75t100 75h201q120 0 214 -97q72 -74 72 -169q0 -29 -7 -60q-68 -269 -171 -446q114 -171 67 -382l-136 -672
q-39 -174 -197 -174q-113 0 -144 100q-31 99 173 436q-110 -278 -90 -332t62 -54q36 0 49 59l137 667q25 115 -19 214l-18 -20z" />
    <glyph glyph-name="uni1790.au" horiz-adv-x="2378" 
d="M1425 1350q-45 -26 -104 -34q-193 -25 -320 5q-128 30 -336 29q-209 0 -246 -31q-36 -31 -49 -92t52 -137q64 -76 122 -89l-89 -425q-45 -213 32 -320q78 -106 277 -106q203 0 323 92q121 92 160 276l46 216q11 57 -5 86q-15 28 -57 28q-43 0 -63 -16t-33 -66
q-13 -66 25 -66q52 1 52 -74t-51 -76q-111 0 -153 65q-42 66 -21 177q27 112 84 159t160 47q107 0 174 -76q67 -75 38 -214l-46 -214q-53 -247 -211 -370q-159 -124 -422 -124q-291 0 -406 150q-115 151 -53 451l80 379q-54 25 -119 102q-50 60 -50 126q0 19 4 38
q27 127 100 190q73 64 329 64q255 1 382 -29q128 -30 241 -19q113 10 143 144q28 131 -54 232q-81 101 -272 173q283 -1 401 -109t72 -325q-8 -36 -19 -67h67q310 0 494 -194l88 395q12 58 -32 104q-44 45 -103 45h-199q-99 0 -99 75t100 75h201q120 0 214 -97
q72 -74 72 -169q0 -29 -7 -60q-68 -269 -171 -446q114 -171 67 -382l-136 -672q-39 -174 -197 -174q-113 0 -144 100q-31 99 173 436q-110 -278 -90 -332t62 -54q36 0 49 59l137 667q25 115 -19 214l-18 -20l9 40q-26 49 -68 94q-136 146 -384 146h-184z" />
    <glyph glyph-name="uni1791.au" horiz-adv-x="2255" 
d="M1089 720l2 7q20 93 68 93t37 -50q-10 -50 -82 -50h-25zM1104 570q102 0 163 44q60 43 78 131q24 112 -22 169q-46 56 -162 56q-86 0 -140 -53t-76 -158l-7 -31q-63 7 -118 19q-123 28 -248 128q-125 101 -149 181q-17 60 -15 119q20 63 115 119q96 56 385 56h502
q308 0 444 -146q55 -59 81 -124l-2 -10q2 2 4 5q36 -93 13 -199l-137 -667q-13 -59 -49 -59q-42 0 -62 54t90 332q-204 -337 -173 -436q31 -100 144 -100q158 0 197 174l136 672q45 201 -57 365q110 182 181 463q7 31 7 60q0 95 -72 169q-94 97 -214 97h-201
q-100 0 -100 -75t99 -75h199q59 0 103 -45q44 -46 32 -104l-92 -413l-12 14q-185 198 -558 198h-509q-316 0 -462 -82q-145 -82 -174 -219q-5 -30 -5 -62q0 -61 20 -126q39 -128 196 -253q157 -124 300 -156q61 -14 130 -21l-57 -244q-20 -94 -67 -141q-47 -46 -102 -46
q-58 0 -86 98l-69 240q-33 113 -104 92q-72 -21 -43 -123l71 -248q59 -209 229 -209q117 0 201 78q85 77 118 232l58 261q24 -1 48 -1z" />
    <glyph glyph-name="uni1792.au" horiz-adv-x="2358" 
d="M2040 1080q-26 65 -81 124q-136 146 -434 146h-909q-168 0 -135 -76q128 -232 119 -273l-136 -635q34 34 117 34q113 0 331 -137l185 -113q64 0 104 36t54 107l94 441q11 57 -5 86q-15 28 -57 28q-43 0 -63 -16t-33 -66q-13 -66 25 -66q52 1 52 -74t-51 -76
q-111 0 -153 65q-42 66 -21 177q27 112 84 159t160 47q107 0 174 -76q67 -75 38 -214l-96 -438q-27 -135 -106 -202q-79 -68 -206 -68q-34 0 -237 125t-274 125q-61 0 -116 -100q-86 -150 -159 -150q-58 0 -58 58q0 15 4 34l20 92l196 916q11 58 -30 86q-122 82 -122 163
q1 151 301 151h910q363 0 548 -198l12 -14l92 413q12 58 -32 104q-44 45 -103 45h-199q-99 0 -99 75t100 75h201q120 0 214 -97q72 -74 72 -169q0 -29 -7 -60q-71 -281 -181 -463q102 -164 57 -365l-136 -672q-39 -174 -197 -174q-113 0 -144 100q-31 99 173 436
q-110 -278 -90 -332t62 -54q36 0 49 59l137 667q23 106 -13 199q-2 -3 -4 -5z" />
    <glyph glyph-name="uni1793.au" horiz-adv-x="2351" 
d="M2149 1203q96 -161 52 -357l-136 -672q-39 -174 -197 -174q-113 0 -144 100q-31 99 173 436q-110 -278 -90 -332t62 -54q36 0 49 59l137 667q40 183 -96 328q-136 146 -334 146h-642q-159 0 -255 -56q-95 -56 -106 -113t171 -211l182 -155q434 -366 390 -583
q-53 -232 -254 -232q-84 0 -301 209q-149 151 -210 151t-116 -100q-106 -260 -179 -260q-58 0 -58 58q0 15 4 34l20 92l138 641q20 88 94 74q74 -13 58 -99l-70 -318q27 28 110 28q103 0 313 -205q153 -155 200 -155q77 1 100 112q28 128 -323 430l-213 176
q-236 200 -204 341q26 127 171 209q146 82 332 82h649q263 0 448 -198q11 -11 20 -23l94 422q12 58 -32 104q-44 45 -103 45h-199q-99 0 -99 75t100 75h201q120 0 214 -97q72 -74 72 -169q0 -29 -7 -60q-72 -287 -186 -471z" />
    <glyph glyph-name="uni1794.au" horiz-adv-x="2346" 
d="M2145 1211q102 -164 57 -365l-136 -672q-39 -174 -197 -174q-113 0 -144 100q-31 99 173 436q-110 -278 -90 -332t62 -54q36 0 49 59l137 667q23 106 -13 199q-2 -3 -4 -5l2 10q-26 65 -81 124q-136 146 -544 146h-849q-168 0 -135 -76q128 -232 119 -273l-89 -425
q-45 -213 32 -320q78 -106 277 -106q203 0 323 92q121 92 160 276l75 347q18 85 95 85t53 -111l-209 -968q-36 -167 -166 -294q-126 -122 -296 -122h-14q-179 5 -279 45q311 30 491 190q92 89 119 217l42 197q-153 -104 -394 -104q-291 0 -406 150q-75 98 -75 259
q0 87 22 192l106 499q11 58 -30 86q-122 82 -122 164q1 150 301 150h850q473 0 658 -198l12 -14l92 413q12 58 -32 104q-44 45 -103 45h-199q-99 0 -99 75t100 75h201q120 0 214 -97q72 -74 72 -169q0 -29 -7 -60q-71 -281 -181 -463z" />
    <glyph glyph-name="uni1795.au" horiz-adv-x="2379" 
d="M1431 1350q-45 -26 -104 -34q-193 -25 -320 5q-128 30 -336 29q-209 0 -246 -31q-36 -31 -49 -92t52 -137q64 -76 122 -89l-136 -635q34 34 117 34q113 0 331 -137l185 -113q64 0 104 36t54 107l94 441q11 57 -5 86q-15 28 -57 28q-43 0 -63 -16t-33 -66q-13 -66 25 -66
q52 1 52 -74t-51 -76q-111 0 -153 65q-42 66 -21 177q27 112 84 159t160 47q107 0 174 -76q67 -75 38 -214l-96 -438q-27 -135 -106 -202q-79 -68 -206 -68q-34 0 -237 125t-274 125q-61 0 -116 -100q-86 -150 -159 -150q-58 0 -58 58q0 15 4 34l20 92l170 796
q-54 25 -119 102q-64 77 -46 164q27 127 100 190q73 64 329 64q255 1 382 -29q128 -30 241 -19q113 10 143 144q28 131 -54 232q-81 101 -272 173q283 -1 401 -109t72 -325q-8 -36 -19 -67h67q313 0 498 -198l12 -14l92 413q12 58 -32 104q-44 45 -103 45h-199q-99 0 -99 75
t100 75h201q120 0 214 -97q72 -74 72 -169q0 -29 -7 -60q-71 -281 -181 -463q102 -164 57 -365l-136 -672q-39 -174 -197 -174q-113 0 -144 100q-31 99 173 436q-110 -278 -90 -332t62 -54q36 0 49 59l137 667q23 106 -13 199q-2 -3 -4 -5l2 10q-26 65 -81 124
q-136 146 -384 146h-184z" />
    <glyph glyph-name="uni1796.au" horiz-adv-x="2751" 
d="M564 384q23 -22 16 -51q-12 -58 -70 -121q-58 -62 -93 -62q-32 0 -41 29q-10 28 2 86l29 137q55 9 95 6.5t62 -24.5zM1635 1007q-3 -19 -8 -45l-191 -753q-17 -59 -49 -59q-42 0 -62 54t90 332q-204 -337 -173 -436q31 -100 144 -100q148 0 197 174l191 761q5 23 8 43
l4 -1q39 187 133 280q95 93 245 93q168 0 248 -94q44 -53 50 -135l-11 -51q6 7 13 14q-1 -51 -14 -111l-171 -764q-17 -59 -49 -59q-42 0 -62 54t90 332q-204 -337 -173 -436q31 -100 144 -100q148 0 197 174l174 784q41 194 -7 318q86 165 145 398q7 31 7 60q0 95 -72 169
q-94 97 -214 97h-201q-100 0 -100 -75t99 -75h199q59 0 103 -45q44 -46 32 -104l-70 -316q-118 115 -359 115q-211 0 -342 -123q-48 -45 -85 -106l-21 37q-52 85 -124 138q-72 54 -151 54q-108 0 -187 -86q-79 -87 -171 -288q-36 138 -116 241q-117 134 -245 134h-27
q-113 -45 -185 -139q-71 -94 -100 -237l-176 -825q-13 -62 -13 -110q0 -71 27 -115q46 -75 171 -75q101 0 196 102q94 102 115 205q20 95 -25 159q-44 63 -109 84q-65 22 -152 8l115 546q21 99 66 159q45 59 98 87q58 0 130 -93q146 -195 101 -376q-24 -181 41 -181t217 326
q152 325 222 324q37 0 76 -29q40 -29 77 -92q37 -62 45 -112q8 -51 8 -76q0 -13 -3 -33v-1z" />
    <glyph glyph-name="uni1797.au" horiz-adv-x="2399" 
d="M660 875q137 225 324 225q201 0 334 -149q132 -149 175 -376q44 -228 -5 -401q-49 -174 -197 -174q-113 0 -175 199l-36 107l90 -78q90 -78 122 -78t49 59q40 146 4 341q-36 186 -132 293t-229 107q-110 1 -199 -158q-95 -175 -163 -428q-69 -252 -125 -308
q-57 -56 -146 -56q-100 0 -175 52q-76 52 -76 197q0 176 54 263q55 88 163 88q83 0 83 -75t-81 -75q-34 0 -52 -50q-17 -49 -17 -149q0 -70 32 -85q31 -16 69 -16q57 0 129 266q71 266 180 459zM2069 1096q-26 56 -75 108q-136 146 -334 146h-989q-108 0 -95 -77l24 -117
l-78 65q-102 76 -102 128q0 151 251 151h990q263 0 448 -198q2 -2 4 -5l90 404q12 58 -32 104q-44 45 -103 45h-199q-99 0 -99 75t100 75h201q120 0 214 -97q72 -74 72 -169q0 -29 -7 -60q-69 -275 -176 -454q108 -168 62 -374l-136 -672q-39 -174 -197 -174
q-113 0 -144 100q-31 99 173 436q-110 -278 -90 -332t62 -54q36 0 49 59l137 667q24 110 -16 206q-5 -6 -11 -12z" />
    <glyph glyph-name="uni1798.au" horiz-adv-x="2449" 
d="M1408 661q-81 -304 -221 -468q-166 -193 -415 -193t-343 144q-93 145 -32 434l77 360q-146 67 -211 144q-50 60 -50 126q0 19 4 38q27 127 100 190q73 64 186 64q101 0 249 -92q101 -64 68 -128q-34 -63 -138 -3q-120 73 -180 73q-50 0 -86 -31t-49 -92t51 -137
q65 -76 207 -166l-79 -374q-42 -200 14 -300q58 -100 214 -100q186 0 314 162q97 123 160 339h-434q-99 0 -99 75t99 75h471l59 237q45 176 161 319t371 143q217 0 335 -98l66 299q12 58 -32 104q-44 45 -103 45h-199q-99 0 -99 75t100 75h201q120 0 214 -97q72 -74 72 -169
q0 -29 -7 -60q-55 -217 -133 -375q61 -133 12 -364l-191 -761q-49 -174 -197 -174q-113 0 -144 100q-31 99 173 436q-110 -278 -90 -332t62 -54q32 0 49 59l191 753q17 82 14 146q-16 -20 -33 -38l23 105q-12 47 -40 81q-80 94 -246 94q-186 0 -264 -98q-78 -99 -115 -244
l-52 -205q178 9 271 68q-79 -173 -306 -210z" />
    <glyph glyph-name="uni1799.au" horiz-adv-x="2984" 
d="M1039 241l-38 -48q-166 -193 -365 -193q-249 0 -343 144q-45 70 -45 215q0 156 52 399l100 478q32 187 120 236q89 49 190 13q97 -35 136 -126q38 -90 19 -236q-19 -132 -80 -180q-62 -47 -166 -10q-48 18 -23 89q26 70 74 52q36 -13 47 74q12 83 -3 132q-14 49 -55 63
q-39 14 -63 -7q-24 -20 -46 -126l-100 -473q-82 -387 -26 -487q58 -100 214 -100q136 0 264 162q128 163 197 488l82 387q26 118 107 213q87 100 191 100q55 0 87 -56.5t6 -127.5q-30 34 -90 34q-40 0 -86 -53t-64 -140l-83 -384q-47 -218 -119 -374l28 -49
q114 -200 241 -200q143 0 271 162q128 163 197 488l44 207q53 247 185 370q131 123 342 123q227 0 346 -103l67 304q12 58 -32 104q-44 45 -103 45h-199q-99 0 -99 75t100 75h201q120 0 214 -97q72 -74 72 -169q0 -29 -7 -60q-56 -221 -136 -381q58 -127 14 -335l-174 -784
q-49 -174 -197 -174q-113 0 -144 100q-31 99 173 436q-110 -278 -90 -332t62 -54q32 0 49 59l171 764q15 71 13 129q-14 -17 -28 -32l21 94q-12 54 -44 92q-80 94 -248 94q-150 0 -245 -93q-94 -93 -133 -280l-45 -204q-83 -387 -248 -580q-166 -193 -372 -193
q-187 0 -358 241z" />
    <glyph glyph-name="uni179a.au" horiz-adv-x="1799" 
d="M1496 1175q-12 47 -40 81q-80 94 -246 94h-543q114 -97 155 -220t10 -271l-110 -495q-69 -252 -125 -308q-57 -56 -146 -56q-100 0 -175 52q-76 52 -76 197q0 176 54 263q55 88 163 88q83 0 83 -75t-81 -75q-34 0 -52 -50q-17 -49 -17 -149q0 -70 32 -85q31 -16 69 -16
q57 0 129 266l105 471q22 106 -12 198q-34 91 -124 168q-77 67 -164 82q-88 16 -87 90q0 75 100 75h814q217 0 335 -98l66 299q12 58 -32 104q-44 45 -103 45h-199q-99 0 -99 75t100 75h201q120 0 214 -97q72 -74 72 -169q0 -29 -7 -60q-55 -217 -133 -375q61 -133 12 -364
l-191 -761q-49 -174 -197 -174q-113 0 -144 100q-31 99 173 436q-110 -278 -90 -332t62 -54q32 0 49 59l191 753q17 82 14 146q-16 -20 -33 -38z" />
    <glyph glyph-name="uni179b.au" horiz-adv-x="3181" 
d="M427 404l-44 -139q-17 -56 -5 -85q12 -30 44 -30q35 0 93 62q58 63 70 121q7 29 -6 49q-12 19 -47 29t-105 -7zM2897 1164q-12 54 -44 92q-80 94 -248 94q-150 0 -245 -93q-94 -93 -133 -280l-43 -204q-83 -387 -248 -580q-166 -193 -365 -193q-196 0 -290 150t-88 449
l6 401q4 175 -53 262q-57 88 -173 88q-130 0 -222 -95q-94 -95 -150 -284l-129 -417q82 8 137 -8q55 -17 99 -80q45 -64 25 -159q-21 -103 -115 -205q-95 -102 -196 -102q-125 0 -177 80q-28 43 -28 105q0 51 20 115l221 715q73 243 201 364q129 121 314 121q194 0 288 -125
t88 -376l-8 -398q-5 -225 53 -338t179 -113q136 0 264 162q128 163 197 488l42 207q53 247 185 370q131 123 342 123q227 0 346 -103l67 304q12 58 -32 104q-44 45 -103 45h-199q-99 0 -99 75t100 75h201q120 0 214 -97q72 -74 72 -169q0 -29 -7 -60q-56 -221 -136 -381
q58 -127 14 -335l-174 -784q-49 -174 -197 -174q-113 0 -144 100q-31 99 173 436q-110 -278 -90 -332t62 -54q32 0 49 59l171 764q15 71 13 129q-14 -17 -28 -32z" />
    <glyph glyph-name="uni179c.au" horiz-adv-x="1850" 
d="M697 1276q-28 74 -89 74q-75 0 -92 -29q-18 -29 -7 -50q12 -21 92 -21q45 0 96 26zM716 1122q-65 -21 -133 -21q-154 0 -206 99q-52 100 11 200q64 100 239 100q132 0 196 -127q64 64 89 129q33 86 14 149q-19 62 -87 97q-68 34 -236 47q185 57 293 41t157 -137
q47 -116 4 -238q106 39 214 39q215 0 331 -117l71 318q12 58 -32 104q-44 45 -103 45h-199q-99 0 -99 75t100 75h201q120 0 214 -97q72 -74 72 -169q0 -29 -7 -60q-59 -236 -146 -401q46 -124 5 -315l-174 -784q-49 -174 -197 -174q-113 0 -144 100q-31 99 173 436
q-110 -278 -90 -332t62 -54q32 0 49 59l171 764q12 58 13 107q-4 -5 -9 -10l9 41q-5 89 -51 145q-80 94 -218 94q-208 0 -405 -153q6 -150 -52 -424l-94 -409q-69 -252 -125 -308q-57 -56 -146 -56q-100 0 -175 52q-76 52 -76 197q0 176 54 263q55 88 163 88q83 0 83 -75
t-81 -75q-34 0 -52 -50q-17 -49 -17 -149q0 -70 32 -85q31 -16 69 -16q57 0 129 266l86 384q43 202 50 322z" />
    <glyph glyph-name="uni179d.au" horiz-adv-x="2300" 
d="M1338 505q-3 22 -7 45q-36 186 -132 293t-259 107q-130 1 -239 -148q-135 -185 -208 -444l-36 -130q117 136 218 204t451 69q117 0 212 4zM1500 395q3 -120 -26 -221q-49 -174 -188 -174q-100 0 -100 75t100 75q24 0 41 59q20 72 21 155q-99 -13 -222 -13
q-316 -1 -391 -59q-74 -59 -175 -176q-100 -116 -210 -116q-76 0 -76 89q0 42 17 105l53 192q83 296 232 499q157 215 364 215q231 0 364 -149q132 -149 175 -376q6 -31 10 -61q185 18 247 57q-55 -122 -236 -176zM2028 1110q-26 49 -68 94q-136 146 -334 146h-989
q-108 0 -95 -77l24 -117l-78 65q-102 76 -102 128q0 151 251 151h990q260 0 444 -194l88 395q12 58 -32 104q-44 45 -103 45h-199q-99 0 -99 75t100 75h201q120 0 214 -97q72 -74 72 -169q0 -29 -7 -60q-68 -269 -171 -446q114 -171 67 -382l-136 -672q-39 -174 -197 -174
q-113 0 -144 100q-31 99 173 436q-110 -278 -90 -332t62 -54q36 0 49 59l137 667q25 115 -19 214l-18 -20z" />
    </font>
</defs>
</svg>
