<?xml version="1.0" standalone="no"?>
<!DOCTYPE svg PUBLIC "-//W3C//DTD SVG 1.1//EN" "http://www.w3.org/Graphics/SVG/1.1/DTD/svg11.dtd" >
<svg>
<metadata>
Created by FontForge 20100429 at Sat Apr 30 10:39:38 2011
 By Santhosh Thottingal,,,
KhmerOS - font for the Khmer language of Cambodia
Copyright 2007 Danh Hong
 
This font is free software; you can redistribute it and/or modify it under the terms of the GNU Lesser General Public License as published by the Free Software Foundation; either version 2.1 of the License, or (at your option) any later version.

This library is distributed in the hope that it will be useful, but WITHOUT ANY WARRANTY; without even the implied warranty of MERCHANTABILITY or FITNESS FOR A PARTICULAR PURPOSE.? See the GNU Lesser General Public License for more details.

You should have received a copy of the GNU Lesser General Public License along with this font; if not, write to the Free Software Foundation, Inc., 51 Franklin Street, Fifth Floor, Boston, MA 02110-1301  USA or visit http://www.gnu.org/licenses/lgpl.html
</metadata>
<defs>
<font id="KhmerOSbokor" horiz-adv-x="0" >
  <font-face 
    font-family="Khmer OS Bokor"
    font-weight="400"
    font-stretch="normal"
    units-per-em="2048"
    panose-1="2 0 5 0 0 0 0 2 0 4"
    ascent="1638"
    descent="-410"
    x-height="1073"
    cap-height="1493"
    bbox="-2403 -1610 4200 2844"
    underline-thickness="48"
    underline-position="-140"
    unicode-range="U+0020-FB02"
  />
<missing-glyph 
 />
    <glyph glyph-name=".notdef" 
 />
    <glyph glyph-name="space" unicode=" " horiz-adv-x="600" 
 />
    <glyph glyph-name="space" unicode="&#xa0;" horiz-adv-x="600" 
 />
    <glyph glyph-name="exclam" unicode="!" horiz-adv-x="569" 
d="M425 1493v-692l-45 -457h-80l-45 457v692h170zM425 213v-213h-172v213h172z" />
    <glyph glyph-name="quotedbl" unicode="&#x22;" horiz-adv-x="727" 
d="M106 1452h190v-227l-55 -275h-80l-55 275v227zM434 1452h190v-227l-55 -275h-80l-55 275v227z" />
    <glyph glyph-name="numbersign" unicode="#" horiz-adv-x="1138" 
d="M993 1427l-74 -401h190v-139h-217l-63 -357h215v-139h-240l-80 -431h-155l77 431h-253l-80 -431h-156l78 431h-207v139h233l64 357h-221v139h248l73 401h156l-74 -401h256l72 401h158zM737 887h-254l-66 -357h256z" />
    <glyph glyph-name="dollar" unicode="$" horiz-adv-x="1138" 
d="M501 1577h121v-111q258 -18 354 -209q39 -77 43 -174v-20h-161q-2 158 -119 227q-41 23 -90 31q-13 2 -27 2v-510q205 -63 268 -98q174 -99 174 -316q0 -213 -139 -338q-22 -20 -49 -36q-100 -59 -254 -72v-211h-121v211q-315 21 -403 260q-33 94 -27 213h162
q14 -152 43 -201q4 -6 8 -14q72 -98 217 -117v557q-190 58 -258 107q-145 104 -145 299q0 299 286 385q54 16 117 24v111zM501 829v492q-196 -27 -231 -182q-6 -29 -6 -62q0 -184 237 -248zM622 633v-539q125 15 188 76q86 82 86 205q0 125 -96 186q-59 37 -178 72z" />
    <glyph glyph-name="percent" unicode="%" horiz-adv-x="1820" 
d="M407 1403q172 0 277 -135l37 -58q36 -75 36 -161q0 -162 -129 -267q-96 -80 -219 -80q-166 0 -272 129q-78 99 -78 222q0 166 129 272q96 78 219 78zM407 1260q-110 0 -172 -95l-24 -47q-11 -33 -11 -65q0 -109 92 -172q54 -35 117 -35q111 0 172 92q35 51 35 113
q0 116 -98 178q-49 31 -111 31zM1247 1452h135l-809 -1492h-135zM1409 659q174 0 278 -135q72 -94 72 -217q0 -162 -129 -266q-96 -79 -219 -79q-166 0 -273 128q-78 98 -78 221q0 166 132 271q96 77 217 77zM1409 516q-111 0 -172 -92q-35 -51 -35 -113q0 -112 96 -174
q51 -33 113 -33q110 0 172 93q35 51 35 110q0 117 -99 178l-47 21q-31 10 -63 10z" />
    <glyph glyph-name="ampersand" unicode="&#x26;" horiz-adv-x="1366" 
d="M1009 684h164q0 -192 -119 -375l250 -309h-223l-127 160q-100 -99 -158 -133q-115 -74 -270 -74q-238 0 -352 168q-68 100 -68 239q0 166 106 275q74 74 226 162q-144 180 -162 278q-4 27 -4 55q0 158 133 254q94 68 217 68q184 0 279 -135l30 -57q19 -43 23 -93
q2 -18 2 -37q0 -141 -113 -241q-59 -53 -170 -115l273 -334q65 115 63 244zM583 883q166 104 197 180q14 31 14 72q0 106 -92 153q-39 21 -86 21q-123 0 -164 -103q-12 -32 -12 -73q0 -68 51 -140zM856 281l-328 409q-193 -123 -234 -225q-16 -41 -16 -90q0 -133 111 -211
q71 -51 157 -51q138 0 277 133q16 16 33 35z" />
    <glyph glyph-name="quotesingle" unicode="'" horiz-adv-x="391" 
d="M98 1452h193v-227l-56 -275h-82l-55 275v227z" />
    <glyph glyph-name="parenleft" unicode="(" horiz-adv-x="681" 
d="M483 1493h112q-253 -410 -278 -879q-2 -43 -2 -84q0 -477 250 -912q14 -27 30 -52h-112q-232 303 -307 696q-27 139 -27 268q0 367 190 734q64 125 144 229z" />
    <glyph glyph-name="parenright" unicode=")" horiz-adv-x="681" 
d="M190 -434h-113q254 410 279 878q2 43 2 84q0 478 -250 914q-15 26 -31 51h113q231 -303 307 -696q26 -140 26 -269q0 -366 -190 -732q-63 -125 -143 -230z" />
    <glyph glyph-name="asterisk" unicode="*" horiz-adv-x="796" 
d="M327 1493h129l-10 -229l217 77l39 -120l-222 -62l144 -182l-105 -74l-127 191l-129 -191l-102 74l141 182l-221 62l39 120l217 -77z" />
    <glyph glyph-name="plus" unicode="+" horiz-adv-x="1196" 
d="M1093 547v-144h-424v-423h-143v423h-424v144h424v424h143v-424h424z" />
    <glyph glyph-name="comma" unicode="," horiz-adv-x="569" 
d="M178 213h215v-245q0 -269 -215 -269v78q88 4 109 68q14 39 14 119v36h-123v213z" />
    <glyph glyph-name="hyphen" unicode="-" horiz-adv-x="681" 
d="M581 639v-147h-487v147h487z" />
    <glyph glyph-name="period" unicode="." horiz-adv-x="569" 
d="M391 213v-213h-213v213h213z" />
    <glyph glyph-name="slash" unicode="/" horiz-adv-x="569" 
d="M469 1493h113l-485 -1533h-113z" />
    <glyph glyph-name="zero" unicode="0" horiz-adv-x="1138" 
d="M563 1452q224 0 342 -168q118 -169 131 -506q2 -43 2 -88q0 -277 -70 -451q-71 -174 -212 -245q-86 -41 -193 -41q-180 0 -292 111q-112 110 -156 331q-27 135 -27 307q0 400 141 590q111 146 305 160h29zM563 1292q-145 0 -218 -148t-73 -444q0 -299 72 -448
q72 -150 215 -150q121 0 192 99q72 98 93 295q10 94 10 211q0 293 -73 439q-72 146 -218 146z" />
    <glyph glyph-name="one" unicode="1" horiz-adv-x="1138" 
d="M530 1034h-322v129q209 27 270 74q62 45 105 190l8 25h119v-1452h-180v1034z" />
    <glyph glyph-name="two" unicode="2" horiz-adv-x="1138" 
d="M581 1452q248 0 379 -164l39 -61q47 -90 47 -201q0 -270 -307 -438l-205 -111q-186 -108 -236 -209q-18 -41 -26 -90h764v-178h-967q14 262 117 399q86 113 291 230l188 106q197 113 197 287q0 147 -123 227q-72 45 -164 45q-154 0 -236 -116l-14 -25q-35 -66 -43 -205
h-180q6 205 78 316q122 188 401 188z" />
    <glyph glyph-name="three" unicode="3" horiz-adv-x="1138" 
d="M544 -47q-201 0 -319 94q-117 95 -150 283q-6 43 -10 92h180q9 -135 67 -211q58 -75 165 -92q34 -6 73 -6q107 0 176 40q70 41 103 121q22 58 22 129q0 133 -75 199t-226 66l-75 -2h-23v153q231 4 301 68q55 51 55 160q0 174 -143 229q-49 18 -113 18q-159 0 -231 -108
l-12 -21q-31 -59 -33 -182h-180q4 215 101 332q98 117 288 135q31 2 65 2q144 0 242 -48q99 -48 152 -144q49 -89 49 -207q0 -222 -203 -301q190 -66 231 -222q15 -53 15 -124q0 -252 -193 -375q-123 -78 -299 -78z" />
    <glyph glyph-name="four" unicode="4" horiz-adv-x="1138" 
d="M669 348h-612v191l659 913h134v-942h215v-162h-215v-348h-181v348zM669 510v635l-454 -635h454z" />
    <glyph glyph-name="five" unicode="5" horiz-adv-x="1138" 
d="M974 1452v-178h-604l-57 -406q120 88 268 88q246 0 377 -178q92 -125 92 -305q0 -264 -178 -412q-131 -108 -320 -108q-229 0 -362 137q-17 19 -31 37q-55 68 -88 229h180q32 -121 106 -182q75 -61 191 -61q207 0 285 166q33 73 33 170q0 223 -156 309q-70 39 -162 39
q-131 0 -223 -88q-21 -21 -43 -47h-166l109 790h749z" />
    <glyph glyph-name="six" unicode="6" horiz-adv-x="1138" 
d="M575 -47q-243 0 -365 177q-122 178 -122 532q0 378 131 583q115 172 320 203q34 4 69 4q236 0 348 -190q47 -82 64 -189h-180q-37 180 -187 213q-26 6 -57 6q-113 0 -188 -74q-74 -73 -109 -221q-27 -110 -27 -256q119 162 334 162q227 0 354 -170q91 -121 91 -291
q0 -243 -168 -383q-127 -106 -308 -106zM584 743q-174 0 -256 -135q-45 -73 -45 -170q0 -176 124 -270q74 -55 170 -55q156 0 238 129q51 82 51 186q0 209 -145 285q-60 30 -137 30z" />
    <glyph glyph-name="seven" unicode="7" horiz-adv-x="1138" 
d="M1065 1452v-152q-207 -274 -344 -550q-137 -275 -205 -553q-25 -97 -41 -197h-193q103 446 293 797q113 207 303 477h-784v178h971z" />
    <glyph glyph-name="eight" unicode="8" horiz-adv-x="1138" 
d="M800 764q250 -119 250 -363q0 -229 -176 -354q-129 -94 -312 -94q-254 0 -391 168q-96 119 -96 282q0 242 248 361q-148 92 -180 190q-17 47 -17 111q0 203 166 311q113 76 270 76q238 0 359 -156q78 -98 78 -231q0 -139 -93 -223l-65 -54q-18 -12 -41 -24zM562 1292
q-163 0 -225 -118l-20 -54l-6 -57q0 -143 124 -201q56 -26 127 -26q164 0 226 116q26 49 26 109q0 153 -133 209q-51 22 -119 22zM562 684q-182 0 -262 -131q-41 -68 -41 -154q0 -168 135 -245q70 -41 164 -41q187 0 267 133q41 67 41 153q0 168 -138 246q-71 39 -166 39z
" />
    <glyph glyph-name="nine" unicode="9" horiz-adv-x="1138" 
d="M552 1452q244 0 367 -177q122 -177 123 -532q0 -378 -134 -583q-108 -166 -307 -200q-41 -7 -82 -7q-235 0 -348 190q-47 82 -63 189h180q19 -90 65 -143q47 -53 121 -70q27 -6 58 -6q114 0 188 74t109 221q26 110 26 256q-143 -158 -332 -162q-229 0 -356 170
q-90 121 -90 291q0 243 168 383q127 106 307 106zM550 1294q-156 0 -237 -131l-31 -61l-17 -72q-4 -26 -4 -53q0 -104 37 -176q36 -71 109 -109q59 -30 137 -30q170 0 254 133q47 73 47 172q0 178 -125 272q-76 55 -170 55z" />
    <glyph glyph-name="colon" unicode=":" horiz-adv-x="569" 
d="M438 213v-213h-213v213h213zM438 1073v-213h-213v213h213z" />
    <glyph glyph-name="semicolon" unicode=";" horiz-adv-x="569" 
d="M440 1073v-213h-213v213h213zM225 213h215v-245q0 -269 -215 -269v78q88 4 109 68q14 39 14 119v36h-123v213z" />
    <glyph glyph-name="less" unicode="&#x3c;" horiz-adv-x="1196" 
d="M92 406v141l1001 424v-162l-806 -330l806 -336v-161z" />
    <glyph glyph-name="equal" unicode="=" horiz-adv-x="1196" 
d="M1093 723v-143h-991v143h991zM1093 371v-144h-991v144h991z" />
    <glyph glyph-name="greater" unicode="&#x3e;" horiz-adv-x="1196" 
d="M1103 547v-141l-1001 -424v161l807 330l-807 336v162z" />
    <glyph glyph-name="question" unicode="?" horiz-adv-x="1138" 
d="M675 408h-184v112q0 103 57 178q35 45 107 113l49 43q151 135 153 270q0 144 -125 205l-63 21q-35 8 -74 8q-168 0 -229 -119q-35 -70 -35 -201h-174q0 216 92 335q93 119 277 140q39 5 80 5q258 0 372 -170l33 -62q31 -74 31 -162q0 -143 -105 -264q-39 -47 -100 -102
q-129 -119 -150 -174q-12 -31 -12 -80v-96zM675 213v-213h-184v213h184z" />
    <glyph glyph-name="at" unicode="@" horiz-adv-x="2078" 
d="M1361 1026h170l-184 -573q-25 -72 -25 -103q0 -55 60 -82q20 -8 43 -8q131 0 239 148q105 145 105 323q0 246 -199 428q-203 189 -491 201h-31q-301 0 -533 -209l-69 -70q-203 -231 -203 -522q0 -289 215 -487q221 -205 553 -205q162 0 395 66l58 -137q-230 -86 -463 -86
q-369 0 -637 219q-250 204 -289 505q-6 47 -6 94q0 316 195 582q57 80 129 143q221 201 530 252q76 13 152 13q340 0 591 -207q238 -193 275 -469q6 -43 6 -86q0 -248 -176 -457q-156 -182 -381 -182q-197 0 -225 157q-135 -147 -291 -147q-168 0 -264 141q-70 101 -70 234
q0 223 162 395q158 170 364 172q172 0 250 -178zM1054 938q-135 0 -237 -145q-93 -129 -93 -293q0 -138 97 -207q49 -35 106 -35q119 0 209 133q68 98 100 271q9 45 11 79q6 111 -84 168q-50 29 -109 29z" />
    <glyph glyph-name="A" unicode="A" horiz-adv-x="1366" 
d="M970 449h-576l-157 -449h-203l532 1493h246l525 -1493h-213zM917 608l-230 680l-245 -680h475z" />
    <glyph glyph-name="B" unicode="B" horiz-adv-x="1366" 
d="M161 0v1493h606q211 0 324 -104q119 -107 119 -275q0 -229 -207 -326q215 -83 258 -247q12 -41 14 -88v-27q0 -180 -115 -301q-116 -125 -325 -125h-674zM351 850h369q148 0 217 53q82 64 82 185q0 120 -82 184q-69 53 -217 53h-369v-475zM1085 424q0 178 -146 235
q-53 23 -123 23h-465v-514h465q133 0 199 72q70 73 70 184z" />
    <glyph glyph-name="C" unicode="C" horiz-adv-x="1478" 
d="M1355 1030h-194q-31 154 -109 225q-110 91 -295 95q-262 0 -387 -236q-82 -153 -82 -383q0 -348 195 -510q121 -100 291 -100q223 0 328 158q12 16 20 34q45 86 68 232h196q-67 -592 -614 -592q-289 0 -457 174q-217 223 -217 602q0 375 209 602q168 187 473 187
q487 0 575 -488z" />
    <glyph glyph-name="D" unicode="D" horiz-adv-x="1478" 
d="M182 0v1493h575q334 0 496 -270l45 -88q68 -166 68 -387q0 -429 -238 -623q-149 -125 -371 -125h-575zM372 168h353q356 0 432 371q18 92 18 206q0 504 -344 570q-51 10 -106 10h-353v-1157z" />
    <glyph glyph-name="E" unicode="E" horiz-adv-x="1366" 
d="M374 680v-512h881v-168h-1071v1493h1034v-168h-844v-477h814v-168h-814z" />
    <glyph glyph-name="F" unicode="F" horiz-adv-x="1251" 
d="M374 680v-680h-190v1493h1001v-168h-811v-477h713v-168h-713z" />
    <glyph glyph-name="G" unicode="G" horiz-adv-x="1593" 
d="M1452 788v-796h-121l-47 198q-213 -237 -510 -237q-313 0 -506 233q-178 213 -178 545q0 361 209 586q29 31 61 57q174 144 447 144q366 0 532 -242q68 -100 92 -236h-194q-43 201 -238 275q-86 35 -194 35q-271 0 -416 -213q-109 -160 -109 -396q0 -258 125 -430l33 -39
q148 -147 377 -151q233 0 369 164q100 123 100 295v41h-455v167h623z" />
    <glyph glyph-name="H" unicode="H" horiz-adv-x="1478" 
d="M1127 680h-765v-680h-193v1493h190v-645h768v645h191v-1493h-191v680z" />
    <glyph glyph-name="I" unicode="I" horiz-adv-x="569" 
d="M397 1493v-1493h-193v1493h193z" />
    <glyph glyph-name="J" unicode="J" horiz-adv-x="1024" 
d="M681 1493h191v-1120q0 -254 -185 -363q-100 -57 -237 -57q-254 0 -361 176q-55 94 -55 219v131h195v-96q0 -227 165 -264q27 -6 58 -6q119 0 182 92q47 69 47 237v1051z" />
    <glyph glyph-name="K" unicode="K" horiz-adv-x="1366" 
d="M351 522v-522h-190v1493h190v-756l744 756h246l-609 -608l615 -885h-225l-527 766z" />
    <glyph glyph-name="L" unicode="L" horiz-adv-x="1138" 
d="M353 1493v-1325h738v-168h-928v1493h190z" />
    <glyph glyph-name="M" unicode="M" horiz-adv-x="1705" 
d="M958 0h-201l-424 1251v-1251h-180v1493h264l443 -1300l434 1300h264v-1493h-180v1251z" />
    <glyph glyph-name="N" unicode="N" horiz-adv-x="1478" 
d="M1322 1493v-1493h-215l-772 1210v-1210h-180v1493h207l780 -1221v1221h180z" />
    <glyph glyph-name="O" unicode="O" horiz-adv-x="1593" 
d="M796 1518q356 0 555 -252l53 -78q115 -197 115 -465q0 -303 -168 -518q-41 -53 -90 -94q-187 -158 -463 -158q-342 0 -543 240q-178 213 -178 542q0 377 227 596q195 187 492 187zM796 1350q-266 0 -414 -209q-115 -164 -115 -406q0 -323 195 -493q137 -121 336 -121
q264 0 412 205q118 161 118 401q0 338 -200 508q-136 115 -332 115z" />
    <glyph glyph-name="P" unicode="P" horiz-adv-x="1366" 
d="M376 633v-633h-190v1493h616q330 0 426 -242q35 -84 35 -196q0 -199 -129 -316q-119 -106 -289 -106h-469zM376 801h398q209 0 270 151q21 49 21 111q0 184 -162 242l-70 16q-29 4 -59 4h-398v-524z" />
    <glyph glyph-name="Q" unicode="Q" horiz-adv-x="1593" 
d="M1500 -2l-96 -118l-215 177q-176 -104 -391 -104q-342 0 -543 240q-178 213 -178 542q0 377 227 596q197 187 494 187q340 0 541 -238q180 -213 180 -541q0 -352 -211 -583zM984 420l183 -150q161 183 161 467q0 322 -192 492q-139 121 -338 121q-268 0 -416 -209
q-115 -164 -115 -406q0 -325 195 -495q137 -119 334 -119q123 0 246 57l-152 127z" />
    <glyph glyph-name="R" unicode="R" horiz-adv-x="1478" 
d="M380 643v-643h-190v1493h688q348 0 432 -246q23 -67 23 -153q0 -201 -148 -306q-39 -26 -88 -51q127 -55 166 -137q35 -76 37 -252q4 -196 39 -252q18 -26 51 -49v-47h-231q-43 98 -43 244l2 133q0 223 -164 258q-37 8 -82 8h-492zM380 811h461q248 0 285 176q8 35 8 80
q0 135 -78 201q-65 57 -215 57h-461v-514z" />
    <glyph glyph-name="S" unicode="S" horiz-adv-x="1366" 
d="M1220 1055h-180q-2 227 -225 286q-66 17 -148 17q-213 0 -297 -127l-24 -49q-12 -35 -12 -76q0 -115 110 -172q51 -27 135 -49l375 -101q246 -67 303 -266q15 -51 15 -108q0 -172 -119 -301q-23 -23 -45 -41q-150 -115 -420 -115q-346 0 -502 213q-86 117 -88 309h180
q-2 -92 33 -162q18 -34 45 -67q104 -125 344 -125q182 0 275 63q90 64 104 178q2 15 2 29q0 156 -225 227l-49 15l-371 98q-293 76 -293 348q0 254 213 369q131 70 317 70q361 0 490 -228q57 -100 57 -235z" />
    <glyph glyph-name="T" unicode="T" horiz-adv-x="1251" 
d="M725 1325v-1325h-190v1325h-492v168h1171v-168h-489z" />
    <glyph glyph-name="U" unicode="U" horiz-adv-x="1478" 
d="M1130 1493h191v-1049q0 -266 -213 -399q-148 -92 -363 -92q-338 0 -487 207q-84 119 -84 284v1049h190v-1049q0 -239 226 -303q69 -20 155 -20q254 0 347 164q38 69 38 159v1049z" />
    <glyph glyph-name="V" unicode="V" horiz-adv-x="1366" 
d="M802 0h-204l-537 1493h205l438 -1264l414 1264h203z" />
    <glyph glyph-name="W" unicode="W" horiz-adv-x="1933" 
d="M1524 0h-209l-344 1227l-334 -1227h-209l-383 1493h213l281 -1212l331 1212h205l340 -1212l275 1212h213z" />
    <glyph glyph-name="X" unicode="X" horiz-adv-x="1366" 
d="M801 766l528 -766h-235l-408 623l-410 -623h-231l528 766l-495 727h231l383 -586l385 586h228z" />
    <glyph glyph-name="Y" unicode="Y" horiz-adv-x="1366" 
d="M792 586v-586h-191v586l-575 907h236l438 -727l426 727h227z" />
    <glyph glyph-name="Z" unicode="Z" horiz-adv-x="1251" 
d="M1190 1493v-172l-893 -1153h897v-168h-1137v168l897 1157h-840v168h1076z" />
    <glyph glyph-name="bracketleft" unicode="[" horiz-adv-x="569" 
d="M512 1493v-147h-211v-1632h211v-148h-381v1927h381z" />
    <glyph glyph-name="backslash" unicode="\" horiz-adv-x="569" 
d="M97 1493l485 -1533h-113l-485 1533h113z" />
    <glyph glyph-name="bracketright" unicode="]" horiz-adv-x="569" 
d="M47 -434v148h211v1632h-211v147h381v-1927h-381z" />
    <glyph glyph-name="asciicircum" unicode="^" horiz-adv-x="960" 
d="M403 1452h150l317 -778h-141l-250 614l-248 -614h-141z" />
    <glyph glyph-name="underscore" unicode="_" horiz-adv-x="1138" 
d="M1184 -258v-102h-1229v102h1229z" />
    <glyph glyph-name="glyph65" unicode="`" horiz-adv-x="681" 
d="M276 1516l197 -304h-123l-305 304h231z" />
    <glyph glyph-name="a" unicode="a" horiz-adv-x="1138" 
d="M1096 100v-128q-72 -19 -117 -19q-145 0 -172 129l-4 29q-178 -156 -365 -158q-225 0 -313 153q-39 72 -39 164q0 209 188 287q74 31 267 55q32 4 77 11q150 18 173 77q6 17 6 41v45q0 132 -166 156q-35 4 -74 4q-211 0 -246 -153q-4 -19 -6 -37h-172q6 147 74 223
q112 125 356 125q361 0 400 -238q4 -26 4 -55v-631q0 -84 92 -84q18 0 37 4zM797 338v192q-66 -30 -234 -53q-18 -2 -41 -6q-217 -31 -250 -141q-8 -25 -8 -56q0 -133 137 -163q33 -9 74 -9q148 0 254 97q66 59 68 139z" />
    <glyph glyph-name="b" unicode="b" horiz-adv-x="1138" 
d="M110 1493h170v-565q117 176 332 176q262 0 383 -221q76 -140 76 -342q0 -330 -187 -488q-117 -100 -280 -100q-220 0 -340 184v-137h-154v1493zM579 944q-170 0 -250 -172q-49 -102 -49 -244q0 -256 141 -362q68 -53 158 -53q172 0 258 161q55 105 55 248q0 260 -147 369
q-76 51 -166 53z" />
    <glyph glyph-name="c" unicode="c" horiz-adv-x="1024" 
d="M964 713h-172q-27 198 -199 229l-55 4q-192 0 -264 -205q-33 -94 -33 -223q0 -280 162 -373q59 -34 139 -34q219 0 262 258h172q-22 -281 -235 -375q-88 -41 -203 -41q-264 0 -391 215q-84 143 -84 350q0 328 188 486q121 100 289 100q217 0 336 -139l16 -21
q60 -88 72 -231z" />
    <glyph glyph-name="d" unicode="d" horiz-adv-x="1138" 
d="M1014 1493v-1493h-152v141q-119 -169 -295 -186q-22 -2 -47 -2q-266 0 -389 229q-78 146 -78 357q0 315 182 469q117 96 279 96q221 0 330 -166v555h170zM542 944q-174 0 -258 -168q-41 -78 -51 -182q-2 -33 -2 -66q0 -249 144 -360q73 -55 170 -55q170 0 249 168
q50 102 50 243q0 269 -148 373q-68 47 -154 47z" />
    <glyph glyph-name="e" unicode="e" horiz-adv-x="1138" 
d="M1050 479h-791q2 -147 58 -229q88 -139 258 -139q208 0 280 215h172q-45 -248 -258 -336q-90 -37 -201 -37q-278 0 -407 225q-80 139 -80 344q0 324 193 482q122 100 299 100q235 0 368 -168q41 -51 66 -115q43 -112 43 -342zM263 618h602q2 5 2 13q0 164 -120 256
q-78 59 -177 59q-174 0 -258 -153q-41 -74 -49 -175z" />
    <glyph glyph-name="f" unicode="f" horiz-adv-x="569" 
d="M528 1073v-139h-179v-934h-170v934h-143v139h143v182q0 181 152 230q45 14 100 14q47 0 97 -10v-141q-39 2 -60 2q-119 0 -119 -109v-168h179z" />
    <glyph glyph-name="g" unicode="g" horiz-adv-x="1138" 
d="M843 1073h158v-897q0 -315 -84 -446q-14 -20 -29 -39q-98 -123 -321 -135q-23 -2 -45 -2q-283 0 -385 180q-35 64 -43 144h174q12 -80 65 -123q74 -58 195 -58q166 0 238 101q61 84 61 292v55q-121 -167 -270 -188l-56 -4q-170 0 -295 131l-12 12q-135 158 -135 422
q0 313 174 475q117 111 283 111q200 0 327 -186v155zM534 946q-180 0 -256 -184q-41 -98 -41 -234q0 -284 160 -381q59 -36 139 -36q182 0 254 188q37 94 37 223q0 307 -168 396q-55 28 -125 28z" />
    <glyph glyph-name="h" unicode="h" horiz-adv-x="1138" 
d="M143 1493h170v-567q111 143 246 170q43 8 98 8q225 0 305 -152q33 -61 33 -141v-811h-170v743q0 113 -70 162q-65 49 -151 49q-172 0 -248 -157q-43 -86 -43 -205v-592h-170v1493z" />
    <glyph glyph-name="i" unicode="i" horiz-adv-x="426" 
d="M307 1073v-1073h-170v1073h170zM307 1493v-215h-172v215h172z" />
    <glyph glyph-name="j" unicode="j" horiz-adv-x="433" 
d="M144 1073h170v-1296q0 -211 -262 -223h-31q-26 0 -57 6v146q35 -2 41 -2q106 0 129 65q10 29 10 76v1228zM314 1493v-215h-170v215h170z" />
    <glyph glyph-name="k" unicode="k" horiz-adv-x="1024" 
d="M288 1493v-875l455 455h219l-373 -371l438 -702h-211l-362 582l-166 -164v-418h-170v1493h170z" />
    <glyph glyph-name="l" unicode="l" horiz-adv-x="433" 
d="M311 1493v-1493h-172v1493h172z" />
    <glyph glyph-name="m" unicode="m" horiz-adv-x="1651" 
d="M143 1073h158v-151q110 155 262 178q31 4 67 4q183 0 271 -133q10 -15 18 -31q111 133 240 156q41 8 90 8q250 0 301 -201q10 -45 10 -98v-805h-172v739q0 166 -129 205q-33 10 -69 10q-125 0 -201 -110q-51 -76 -51 -170v-674h-172v739q0 179 -146 209q-24 6 -53 6
q-127 0 -203 -114q-49 -74 -49 -166v-674h-172v1073z" />
    <glyph glyph-name="n" unicode="n" horiz-adv-x="1097" 
d="M143 1073h158v-180q110 174 266 203q41 8 90 8q215 0 301 -143q39 -66 39 -150v-811h-170v743q0 144 -121 193q-43 18 -100 18q-172 0 -248 -157q-43 -86 -43 -205v-592h-172v1073z" />
    <glyph glyph-name="o" unicode="o" horiz-adv-x="1097" 
d="M556 1104q312 0 428 -264q60 -133 60 -320q0 -342 -209 -487q-115 -80 -277 -80q-295 0 -417 244q-68 137 -68 331q0 357 215 500q113 76 268 76zM558 946q-190 0 -268 -188q-39 -99 -39 -230q0 -280 160 -378q63 -39 147 -39q185 0 265 180q43 96 43 231q0 297 -168 391
q-62 33 -140 33z" />
    <glyph glyph-name="p" unicode="p" horiz-adv-x="1138" 
d="M110 -446v1519h158v-162q121 193 342 193q260 0 383 -227q78 -146 78 -359q0 -315 -183 -469q-80 -67 -186 -87q-43 -9 -90 -9q-199 0 -330 160v-559h-172zM581 944q-170 0 -250 -172q-49 -102 -49 -244q0 -256 141 -362q68 -53 158 -53q172 0 258 166q53 102 53 243
q0 260 -145 369q-72 53 -166 53z" />
    <glyph glyph-name="q" unicode="q" horiz-adv-x="1138" 
d="M1014 -446h-170v569q-117 -170 -332 -170q-262 0 -383 221q-76 139 -76 342q0 330 186 488q117 100 281 100q219 0 342 -174v143h152v-1519zM545 944q-173 0 -259 -166q-55 -104 -55 -250q0 -249 144 -360q73 -55 170 -55q167 0 249 166q50 102 50 243q0 269 -146 373
q-67 49 -153 49z" />
    <glyph glyph-name="r" unicode="r" horiz-adv-x="730" 
d="M141 1073h158v-194q118 190 237 219q27 6 56 6q22 0 65 -6v-174q-147 -2 -211 -45q-6 -5 -12 -9q-121 -88 -121 -313v-557h-172v1073z" />
    <glyph glyph-name="s" unicode="s" horiz-adv-x="1024" 
d="M896 774h-180q-6 172 -215 172q-168 0 -215 -100q-12 -29 -12 -62q0 -92 135 -137q29 -8 63 -16l164 -39q242 -57 289 -201q14 -43 14 -98q0 -197 -184 -287q-106 -53 -258 -53q-397 0 -426 332q-2 16 -2 34h180q13 -96 49 -137q68 -71 213 -71q172 0 230 96q20 33 20 72
q0 94 -110 133l-56 16l-159 39q-244 59 -308 164q-32 57 -32 145q0 191 172 277q100 51 239 51q297 0 369 -207q20 -55 20 -123z" />
    <glyph glyph-name="t" unicode="t" horiz-adv-x="569" 
d="M520 1073v-139h-177v-735q0 -78 45 -90q19 -7 50 -7q51 0 82 9v-143q-80 -15 -140 -15q-182 0 -205 137q-2 14 -2 33v811h-145v139h145v295h170v-295h177z" />
    <glyph glyph-name="u" unicode="u" horiz-adv-x="1138" 
d="M987 0h-154v150q-114 -162 -266 -188q-41 -9 -92 -9q-219 0 -303 143q-39 66 -39 150v827h170v-760q0 -143 121 -192q45 -19 100 -19q174 0 252 160q41 86 41 203v608h170v-1073z" />
    <glyph glyph-name="v" unicode="v" horiz-adv-x="1024" 
d="M583 0h-186l-377 1073h193l286 -870l303 870h193z" />
    <glyph glyph-name="w" unicode="w" horiz-adv-x="1478" 
d="M1134 0h-194l-217 842l-207 -842h-193l-311 1073h188l220 -835l204 835h209l211 -835l213 835h193z" />
    <glyph glyph-name="x" unicode="x" horiz-adv-x="1024" 
d="M597 555l371 -555h-199l-268 412l-272 -412h-195l379 547l-359 526h195l258 -389l258 389h193z" />
    <glyph glyph-name="y" unicode="y" horiz-adv-x="1024" 
d="M794 1073h184l-477 -1298q-45 -117 -117 -170q-70 -51 -160 -51q-63 0 -114 27v153q55 -12 90 -12q92 0 129 82q4 10 8 22l65 170l-362 1077h182l275 -835z" />
    <glyph glyph-name="z" unicode="z" horiz-adv-x="1024" 
d="M907 1073v-151l-637 -772h665v-150h-872v154l641 770h-598v149h801z" />
    <glyph glyph-name="braceleft" unicode="{" horiz-adv-x="1000" 
d="M451 200q0 250 -76 275l-225 76v99l226 76q75 25 75 274q0 450 349 451h101v-151h-103q-198 0 -198 -299q0 -301 -199 -401q199 -101 200 -400q0 -300 200 -300h100v-150h-101q-349 0 -349 450z" />
    <glyph glyph-name="bar" unicode="|" horiz-adv-x="450" 
d="M150 -100v1400h150v-1400h-150z" />
    <glyph glyph-name="braceright" unicode="}" horiz-adv-x="1000" 
d="M550 1000q0 -250 76 -275l225 -76v-99l-226 -76q-75 -26 -75 -274q0 -450 -349 -451h-101v151h103q198 0 198 299q0 301 199 401q-200 101 -200 400q0 300 -200 300h-100v150h101q349 0 349 -450z" />
    <glyph glyph-name="asciitilde" unicode="~" horiz-adv-x="1200" 
d="M800 250q-149 0 -224 125l-38 63q-38 62 -138 62q-99 0 -99 -100v-150h-151v151q0 249 247 249h3q149 0 226 -125l37 -62q37 -63 138 -63q99 0 99 100v150h150v-150q0 -249 -250 -250z" />
    <glyph glyph-name="Adieresis" unicode="&#xc4;" horiz-adv-x="1100" 
d="M1062 0h-157l-127 400h-451l-123 -400h-156l402 1300h200zM731 550l-181 574l-176 -574h357zM450 1476q0 -75 -74 -75q-75 -1 -75 74t75 75q74 1 74 -74zM651 1476q0 75 75 75q74 -1 74 -75q0 -75 -75 -75t-74 75z" />
    <glyph glyph-name="Aring" unicode="&#xc5;" horiz-adv-x="1100" 
d="M350 1500q0 200 200 200t200 -200q0 -195 -190 -200h90l412 -1300h-157l-127 400h-451l-123 -400h-156l402 1300h90q-190 5 -190 200zM731 550l-181 574l-176 -574h357zM650 1500q0 100 -100 100t-100 -100t100 -100t100 100z" />
    <glyph glyph-name="Ccedilla" unicode="&#xc7;" horiz-adv-x="1150" 
d="M150 651q0 650 500 650q249 0 401 -101v-200q-99 150 -401 150q-350 0 -350 -500t350 -500q301 0 400 150v-199q-152 -101 -400 -101h-2l-48 -100q200 0 200 -175q1 -175 -249 -175q-100 0 -150 99l150 1q149 0 149 75q0 74 -99 74l-150 1l100 207q-401 61 -401 644z" />
    <glyph glyph-name="Eacute" unicode="&#xc9;" horiz-adv-x="1049" 
d="M950 1300v-150h-650v-350h600v-150h-600v-500h650v-150h-800v1300h800zM550 1400h-100l200 400h150z" />
    <glyph glyph-name="Ntilde" unicode="&#xd1;" horiz-adv-x="1100" 
d="M300 976v-976h-150v1300h151l499 -972v972h150v-1300h-151zM706 1400q-98 0 -175 50t-125 50q-49 0 -49 -100h-101q0 200 150 200q98 0 175 -50t125 -50q50 0 50 100h100q0 -200 -150 -200z" />
    <glyph glyph-name="Odieresis" unicode="&#xd6;" horiz-adv-x="1300" 
d="M150 650q0 650 500 650t500 -650t-500 -650t-500 650zM300 650q0 -500 350 -500t350 500t-350 500t-350 -500zM550 1476q0 -75 -74 -75q-75 -1 -75 74t75 75q74 1 74 -74zM751 1476q0 75 75 75q74 -1 74 -75q0 -75 -75 -75t-74 75z" />
    <glyph glyph-name="Udieresis" unicode="&#xdc;" horiz-adv-x="1200" 
d="M600 0q-450 0 -450 400v900h150v-900q0 -250 300 -250t300 250v900h150v-900q0 -400 -450 -400zM500 1476q0 -75 -74 -75q-75 -1 -75 74t75 75q74 1 74 -74zM701 1476q0 75 75 75q74 -1 74 -75q0 -75 -75 -75t-74 75z" />
    <glyph glyph-name="aacute" unicode="&#xe1;" horiz-adv-x="1050" 
d="M100 300q0 350 550 350h101v51q0 150 -251 150q-163 0 -349 -50v150q188 50 350 50q400 0 400 -300v-700h-150v159l-13 -10q-188 -150 -338 -150q-300 0 -300 300zM251 300q0 -149 150 -149q99 0 224 99l125 100v150h-100q-399 0 -399 -200zM500 1150h-100l200 400h150z
" />
    <glyph glyph-name="agrave" unicode="&#xe0;" horiz-adv-x="1050" 
d="M100 300q0 350 550 350h101v51q0 150 -251 150q-163 0 -349 -50v150q188 50 350 50q400 0 400 -300v-700h-150v159l-13 -10q-188 -150 -338 -150q-300 0 -300 300zM251 300q0 -149 150 -149q99 0 224 99l125 100v150h-100q-399 0 -399 -200zM700 1150h-100l-300 350h150z
" />
    <glyph glyph-name="acircumflex" unicode="&#xe2;" horiz-adv-x="1050" 
d="M100 300q0 350 550 350h101v51q0 150 -251 150q-161 0 -349 -50v150q189 50 350 50q400 0 400 -300v-700h-150v159l-13 -10q-188 -150 -338 -150q-300 0 -300 300zM651 500q-400 0 -400 -200q0 -149 150 -149q99 0 224 99l125 100l1 -3v153h-100zM751 1151l-200 199
l-201 -199h-100l301 399l300 -399h-100z" />
    <glyph glyph-name="adieresis" unicode="&#xe4;" horiz-adv-x="1050" 
d="M100 300q0 350 550 350h101v51q0 150 -251 150q-161 0 -349 -50v150q189 50 350 50q400 0 400 -300v-700h-150v159l-13 -10q-188 -150 -338 -150q-300 0 -300 300zM651 500q-400 0 -400 -200q0 -149 150 -149q99 0 224 99l125 100l1 -3v153h-100zM450 1226q0 -75 -74 -75
q-75 -1 -75 74t75 75q74 1 74 -74zM651 1226q0 75 75 75q74 -1 74 -75q0 -75 -75 -75t-74 75z" />
    <glyph glyph-name="atilde" unicode="&#xe3;" horiz-adv-x="1050" 
d="M100 300q0 350 550 350h101v51q0 150 -251 150q-161 0 -349 -50v150q189 50 350 50q400 0 400 -300v-700h-150v159l-13 -10q-188 -150 -338 -150q-300 0 -300 300zM651 500q-400 0 -400 -200q0 -149 150 -149q99 0 224 99l125 100l1 -3v153h-100zM676 1150q-98 0 -175 50
t-125 50q-49 0 -49 -100h-101q0 200 150 200q98 0 175 -50t125 -50q50 0 50 100h100q0 -200 -150 -200z" />
    <glyph glyph-name="aring" unicode="&#xe5;" horiz-adv-x="1050" 
d="M100 300q0 350 550 350h101v51q0 150 -251 150q-161 0 -349 -50v150q189 50 350 50q400 0 400 -300v-700h-150v159l-13 -10q-188 -150 -338 -150q-300 0 -300 300zM651 500q-400 0 -400 -200q0 -149 150 -149q99 0 224 99l125 100l1 -3v153h-100zM650 1250
q0 100 -100 100t-100 -100t100 -100t100 100zM350 1250q0 200 200 200t200 -200t-200 -200t-200 200z" />
    <glyph glyph-name="ccedilla" unicode="&#xe7;" horiz-adv-x="1050" 
d="M150 500q0 500 451 500q202 0 350 -100v-200q-99 150 -351 150q-299 0 -299 -350q0 -349 300 -350q251 0 350 150v-199q-134 -89 -303 -100l-48 -101q200 0 200 -175q1 -175 -249 -175q-100 0 -150 99l150 1q149 0 149 75q0 74 -99 74l-150 1l97 202q-398 28 -398 498z
" />
    <glyph glyph-name="eacute" unicode="&#xe9;" horiz-adv-x="1050" 
d="M501 1001q400 0 400 -400v-151h-650q18 -300 249 -300q249 0 401 150v-199q-151 -100 -401 -100h-2q-397 0 -397 496v4q0 500 400 500zM501 851q-210 0 -245 -251h494v3q0 246 -249 248zM500 1150h-100l200 400h150z" />
    <glyph glyph-name="egrave" unicode="&#xe8;" horiz-adv-x="1050" 
d="M501 1001q400 0 400 -400v-151h-650q18 -300 249 -300q249 0 401 150v-199q-151 -100 -401 -100h-2q-397 0 -397 496v4q0 500 400 500zM501 851q-210 0 -245 -251h494v3q0 246 -249 248zM700 1150h-100l-300 350h150z" />
    <glyph glyph-name="ecircumflex" unicode="&#xea;" horiz-adv-x="1050" 
d="M501 1001q400 0 400 -400v-151h-650q18 -300 249 -300q249 0 401 150v-199q-151 -100 -401 -100h-2q-397 0 -397 496v4q0 500 400 500zM501 851q-210 0 -245 -251h494v3q0 246 -249 248zM751 1151l-200 199l-201 -199h-100l301 399l300 -399h-100z" />
    <glyph glyph-name="edieresis" unicode="&#xeb;" horiz-adv-x="1050" 
d="M501 1001q400 0 400 -400v-151h-650q18 -300 249 -300q249 0 401 150v-199q-151 -100 -401 -100h-2q-397 0 -397 496v4q0 500 400 500zM501 851q-210 0 -245 -251h494v3q0 246 -249 248zM450 1226q0 -75 -74 -75q-75 -1 -75 74t75 75q74 1 74 -74zM651 1226q0 75 75 75
q74 -1 74 -75q0 -75 -75 -75t-74 75z" />
    <glyph glyph-name="iacute" unicode="&#xed;" horiz-adv-x="450" 
d="M150 1000h150v-1000h-150v1000zM250 1150h-100l200 400h150z" />
    <glyph glyph-name="igrave" unicode="&#xec;" horiz-adv-x="450" 
d="M150 1000h150v-1000h-150v1000zM300 1150h-100l-300 350h150z" />
    <glyph glyph-name="icircumflex" unicode="&#xee;" horiz-adv-x="450" 
d="M150 1000h150v-1000h-150v1000zM424 1101l-200 199l-201 -199h-100l301 399l300 -399h-100z" />
    <glyph glyph-name="idieresis" unicode="&#xef;" horiz-adv-x="450" 
d="M150 1000h150v-1000h-150v1000zM375 1300q75 0 75 -75t-75 -75t-75 75t75 75zM75 1300q75 0 75 -75t-75 -75t-75 75t75 75z" />
    <glyph glyph-name="ntilde" unicode="&#xf1;" horiz-adv-x="1100" 
d="M300 900q100 100 250 100q400 0 400 -400v-600h-150v600q0 250 -250 250t-250 -250v-600h-150v1000h150v-100zM706 1150q-98 0 -175 50t-125 50q-49 0 -49 -100h-101q0 200 150 200q98 0 175 -50t125 -50q50 0 50 100h100q0 -200 -150 -200z" />
    <glyph glyph-name="oacute" unicode="&#xf3;" horiz-adv-x="1100" 
d="M551 1001q400 0 400 -500q-2 -500 -401 -500h-2q-397 0 -397 496v4q0 500 400 500zM550 150q250 0 250 350v4q0 346 -250 346t-250 -350t250 -350zM500 1150h-100l200 400h150z" />
    <glyph glyph-name="ograve" unicode="&#xf2;" horiz-adv-x="1100" 
d="M551 1001q400 0 400 -500q-2 -500 -401 -500h-2q-397 0 -397 496v4q0 500 400 500zM550 150q250 0 250 350v4q0 346 -250 346t-250 -350t250 -350zM700 1150h-100l-300 350h150z" />
    <glyph glyph-name="ocircumflex" unicode="&#xf4;" horiz-adv-x="1100" 
d="M551 1001q400 0 400 -500q-2 -500 -401 -500h-2q-397 0 -397 496v4q0 500 400 500zM550 150q250 0 250 350v4q0 346 -250 346t-250 -350t250 -350zM751 1151l-200 199l-201 -199h-100l301 399l300 -399h-100z" />
    <glyph glyph-name="odieresis" unicode="&#xf6;" horiz-adv-x="1100" 
d="M551 1001q400 0 400 -500q-2 -500 -401 -500h-2q-397 0 -397 496v4q0 500 400 500zM550 150q250 0 250 350v4q0 346 -250 346t-250 -350t250 -350zM450 1226q0 -75 -74 -75q-75 -1 -75 74t75 75q74 1 74 -74zM651 1226q0 75 75 75q74 -1 74 -75q0 -75 -75 -75t-74 75z
" />
    <glyph glyph-name="otilde" unicode="&#xf5;" horiz-adv-x="1100" 
d="M551 1001q400 0 400 -500q-2 -500 -401 -500h-2q-397 0 -397 496v4q0 500 400 500zM550 150q250 0 250 350v4q0 346 -250 346t-250 -350t250 -350zM700 1150q-98 0 -175 50t-125 50q-49 0 -49 -100h-101q0 200 150 200q98 0 175 -50t125 -50q50 0 50 100h100
q0 -200 -150 -200z" />
    <glyph glyph-name="uacute" unicode="&#xfa;" horiz-adv-x="1100" 
d="M550 150q250 0 250 250v600h150v-1000h-150v100q-100 -100 -250 -100q-400 0 -400 400v600h150v-600q0 -250 250 -250zM500 1150h-100l200 400h150z" />
    <glyph glyph-name="ugrave" unicode="&#xf9;" horiz-adv-x="1100" 
d="M550 150q250 0 250 250v600h150v-1000h-150v100q-100 -100 -250 -100q-400 0 -400 400v600h150v-600q0 -250 250 -250zM700 1150h-100l-300 350h150z" />
    <glyph glyph-name="ucircumflex" unicode="&#xfb;" horiz-adv-x="1100" 
d="M550 150q250 0 250 250v600h150v-1000h-150v100q-100 -100 -250 -100q-400 0 -400 400v600h150v-600q0 -250 250 -250zM751 1151l-200 199l-201 -199h-100l301 399l300 -399h-100z" />
    <glyph glyph-name="udieresis" unicode="&#xfc;" horiz-adv-x="1100" 
d="M550 150q250 0 250 250v600h150v-1000h-150v100q-100 -100 -250 -100q-400 0 -400 400v600h150v-600q0 -250 250 -250zM450 1226q0 -75 -74 -75q-75 -1 -75 74t75 75q74 1 74 -74zM651 1226q0 75 75 75q74 -1 74 -75q0 -75 -75 -75t-74 75z" />
    <glyph glyph-name="dagger" unicode="&#x2020;" horiz-adv-x="1050" 
d="M50 850v150h400v400h150v-400h400v-150h-400v-850h-150v850h-400z" />
    <glyph glyph-name="degree" unicode="&#xb0;" horiz-adv-x="1100" 
d="M800 950q0 250 -250 250t-250 -250t250 -250t250 250zM201 950q0 350 349 350q350 0 350 -350t-350 -350q-349 0 -349 350z" />
    <glyph glyph-name="cent" unicode="&#xa2;" horiz-adv-x="1051" 
d="M903 1134l-69 -174q62 -23 117 -60v-200q-59 88 -170 125l-262 -667q37 -8 82 -8q251 0 350 150v-199q-152 -101 -350 -101q-76 0 -139 14l-72 -184l-92 37l70 179q-217 106 -217 454q0 500 450 500q72 0 137 -13l72 183zM601 850q-300 0 -300 -350q0 -227 125 -306
l256 651q-38 5 -81 5z" />
    <glyph glyph-name="sterling" unicode="&#xa3;" horiz-adv-x="600" 
d="M300 700v-450l300 -100v100h100v-100q0 -150 -100 -150l-300 100l-150 -100q-150 0 -150 125t150 125v450h-121v150h121v200q0 350 300 350h150v-150h-150q-150 0 -150 -199v-201h250v-150h-250z" />
    <glyph glyph-name="section" unicode="&#xa7;" horiz-adv-x="1050" 
d="M551 151q249 0 249 135q0 134 -249 134q-401 0 -401 290q0 142 96 215q-96 73 -96 215q0 291 400 291q251 0 351 -100v-201q-101 150 -350 150q-250 0 -250 -140q0 -131 219 -139h30v-1h1q399 0 399 -285q0 -145 -96 -219q96 -71 96 -211q0 -285 -399 -285
q-253 0 -401 100v200q152 -149 401 -149zM301 710q0 -140 250 -140h12q237 3 237 146q0 134 -249 134h-14q-236 -4 -236 -140z" />
    <glyph glyph-name="bullet" unicode="&#x2022;" horiz-adv-x="1100" 
d="M200 550q0 350 349 350q350 0 350 -350t-350 -350q-349 0 -349 350z" />
    <glyph glyph-name="paragraph" unicode="&#xb6;" horiz-adv-x="1050" 
d="M600 1800h450v-100h-100v-1700h-100v1700h-150v-1700h-100v800q-499 1 -499 497v4q0 500 499 499z" />
    <glyph glyph-name="germandbls" unicode="&#xdf;" horiz-adv-x="1050" 
d="M700 975q0 175 -200 175t-200 -150v-750q0 -250 -250 -250v150q100 0 100 100v750q0 300 350 300t350 -325q0 -151 -75 -232q175 -94 175 -343q0 -400 -450 -400h-100v150h100q300 0 300 250q0 128 -68.5 189t-231.5 61h-100v150h100q200 0 200 175z" />
    <glyph glyph-name="registered" unicode="&#xae;" horiz-adv-x="1500" 
d="M750 1300q650 0 650 -650t-650 -650t-650 650t650 650zM750 100q550 0 550 550t-550 550t-550 -550t550 -550zM688 1094q309 0 309 -275q0 -198 -162 -254l266 -364h-128l-250 344q-1 -1 -9 -1h-163v-343h-103v893h240zM894 819q0 172 -206 172h-137v-343h137
q206 0 206 171z" />
    <glyph glyph-name="copyright" unicode="&#xa9;" horiz-adv-x="1500" 
d="M750 1300q650 0 650 -650t-650 -650t-650 650t650 650zM750 100q550 0 550 550t-550 550t-550 -550t550 -550zM397 651q0 450 346 450q173 0 278 -70v-138q-69 103 -278 103q-242 0 -242 -346t242 -346q209 0 277 104v-138q-105 -70 -277 -70q-346 0 -346 451z" />
    <glyph glyph-name="trademark" unicode="&#x2122;" horiz-adv-x="1550" 
d="M50 1196v104h657v-104h-277v-795h-103v795h-277zM1364 1095l-242 -417l-242 417v-694h-104v899h104l242 -416l242 416h104v-899h-104v694z" />
    <glyph glyph-name="glyph139" unicode="&#xb4;" 
d="M50 1300h-100l200 400h150z" />
    <glyph glyph-name="dieresis" unicode="&#xa8;" 
d="M-100 1376q0 -75 -74 -75q-75 -1 -75 74t75 75q74 1 74 -74zM101 1376q0 75 75 75q74 -1 74 -75q0 -75 -75 -75t-74 75z" />
    <glyph glyph-name="AE" unicode="&#xc6;" horiz-adv-x="1400" 
d="M1350 1300v-150h-650v-350h600v-150h-600v-500h650v-150h-800v400h-223l-123 -400h-156l402 1300h900zM550 550v574l-176 -574h176z" />
    <glyph glyph-name="Oslash" unicode="&#xd8;" horiz-adv-x="1300" 
d="M1069 1392l-97 -198q178 -157 178 -544q0 -650 -500 -650q-138 0 -238 49l-91 -186l-89 44l97 198q-179 156 -179 545q0 650 500 650q138 0 238 -50l91 186zM300 650q0 -271 102 -395l417 855q-71 40 -169 40q-350 0 -350 -500zM650 150q350 0 350 500q0 269 -102 393
l-417 -853q70 -40 169 -40z" />
    <glyph glyph-name="plusminus" unicode="&#xb1;" horiz-adv-x="1250" 
d="M700 699v-399h-150v400h-400v150h400v400h150v-400h400v-151h-400zM150 0v150h950v-151z" />
    <glyph glyph-name="yen" unicode="&#xa5;" horiz-adv-x="1101" 
d="M100 250v100h376v200h-376v100h363l-398 650h176l309 -509l322 509h176l-411 -650h363v-100h-375v-200h375v-100h-375v-250h-149v250h-376z" />
    <glyph glyph-name="mu" unicode="&#xb5;" horiz-adv-x="1100" 
d="M550 150q250 0 250 250v600h150v-1000h-150v100q-100 -100 -250 -100q-155 0 -250 60v-410h-150v1350h150v-600q0 -250 250 -250z" />
    <glyph glyph-name="ordfeminine" unicode="&#xaa;" horiz-adv-x="1050" 
d="M100 915q0 193 303 193h56v28q0 82 -138 82q-90 0 -193 -27v82q104 28 193 28q221 0 221 -165v-385h-83v87l-7 -5q-104 -83 -186 -83q-166 0 -166 165zM183 915q0 -82 83 -82q55 0 124 55l69 55v82h-56q-220 0 -220 -110zM100 700h450v-50h-450v50z" />
    <glyph glyph-name="ordmasculine" unicode="&#xba;" horiz-adv-x="1050" 
d="M100 700h450v-50h-450v50zM325 1300q225 0 225 -275q-1 -275 -226 -275h-1q-223 0 -223 273v2q0 275 225 275zM324 832q141 0 141 192v3q0 190 -141 190q-140 0 -140 -193q0 -192 140 -192z" />
    <glyph glyph-name="ae" unicode="&#xe6;" horiz-adv-x="1650" 
d="M1151 1001q400 0 400 -400v-151h-650q18 -300 249 -300q249 0 401 150v-199q-151 -100 -401 -100h-2q-252 0 -344 199l-66 -50q-188 -150 -338 -150q-300 0 -300 300q0 350 550 350h101v51q0 150 -251 150q-163 0 -349 -50v150q188 50 350 50q258 0 350 -125
q100 125 300 125zM251 300q0 -149 150 -149q99 0 224 99l125 100v150h-100q-399 0 -399 -200zM1151 851q-210 0 -245 -251h494v3q0 246 -249 248z" />
    <glyph glyph-name="oslash" unicode="&#xf8;" horiz-adv-x="1100" 
d="M853 1134l-76 -192q174 -112 174 -441q-2 -500 -401 -500h-2q-74 0 -134 17l-74 -188l-92 37l75 191q-172 112 -172 439v4q0 500 400 500q75 0 135 -18l74 187zM550 850q-250 0 -250 -350q0 -203 83 -288l247 627q-37 11 -80 11zM550 150q250 0 250 350v4q0 199 -83 284
l-247 -628q36 -10 80 -10z" />
    <glyph glyph-name="questiondown" unicode="&#xbf;" horiz-adv-x="1100" 
d="M151 400q0 350 350 350v250h150v-400h-150q-200 0 -200 -201q0 -250 250 -250t250 151h150q0 -300 -400 -300h-3q-397 0 -397 400zM576 1300q75 0 75 -75t-75 -75t-75 75t75 75z" />
    <glyph glyph-name="exclamdown" unicode="&#xa1;" horiz-adv-x="450" 
d="M301 100q0 -100 -50 -100h-50q-50 0 -50 100t12.5 324t37.5 576h50q25 -352 37.5 -576t12.5 -324zM150 1224q0 32 22 54t53 22q32 0 54 -22t22 -54t-22 -54t-54 -22q-31 0 -53 22t-22 54z" />
    <glyph glyph-name="logicalnot" unicode="&#xac;" horiz-adv-x="1001" 
d="M1 850v150h1000v-500h-150v350h-850z" />
    <glyph glyph-name="florin" unicode="&#x192;" horiz-adv-x="600" 
d="M300 850v-500q0 -350 -300 -350h-150v150h150q150 0 150 199v501h-121v150h121v50q0 350 300 350h150v-150h-150q-150 0 -150 -199v-51h250v-150h-250z" />
    <glyph glyph-name="guillemotleft" unicode="&#xab;" horiz-adv-x="950" 
d="M499 601l-199 -200l199 -201v-100l-399 301l399 300v-100zM849 601l-199 -200l199 -201v-100l-399 301l399 300v-100z" />
    <glyph glyph-name="guillemotright" unicode="&#xbb;" horiz-adv-x="950" 
d="M451 199l199 200l-199 201v100l399 -301l-399 -300v100zM101 199l199 200l-199 201v100l399 -301l-399 -300v100z" />
    <glyph glyph-name="ellipsis" unicode="&#x2026;" horiz-adv-x="1750" 
d="M1600 75q0 -31 -22 -53t-53 -22t-53 22t-22 53t22 53t53 22t53 -22t22 -53zM952 75q0 -31 -22 -53t-53 -22t-53 22t-22 53t22 53t53 22t53 -22t22 -53zM300 75q0 -31 -22 -53t-53 -22t-53 22t-22 53t22 53t53 22t53 -22t22 -53z" />
    <glyph glyph-name="zerowidthspace" unicode="&#x200b;" 
 />
    <glyph glyph-name="Agrave" unicode="&#xc0;" horiz-adv-x="1100" 
d="M1062 0h-157l-127 400h-451l-123 -400h-156l402 1300h200zM731 550l-181 574l-176 -574h357zM700 1400h-100l-300 350h150z" />
    <glyph glyph-name="Atilde" unicode="&#xc3;" horiz-adv-x="1100" 
d="M1062 0h-157l-127 400h-451l-123 -400h-156l402 1300h200zM731 550l-181 574l-176 -574h357zM706 1400q-98 0 -175 50t-125 50q-49 0 -49 -100h-101q0 200 150 200q98 0 175 -50t125 -50q50 0 50 100h100q0 -200 -150 -200z" />
    <glyph glyph-name="Otilde" unicode="&#xd5;" horiz-adv-x="1300" 
d="M150 650q0 650 500 650t500 -650t-500 -650t-500 650zM300 650q0 -500 350 -500t350 500t-350 500t-350 -500zM796 1400q-98 0 -175 50t-125 50q-49 0 -49 -100h-101q0 200 150 200q98 0 175 -50t125 -50q50 0 50 100h100q0 -200 -150 -200z" />
    <glyph glyph-name="OE" unicode="&#x152;" horiz-adv-x="1600" 
d="M1500 1300v-150h-650v-350h600v-150h-600v-500h650v-150h-850q-500 0 -500 651q0 649 500 649h850zM300 650q0 -500 350 -500h50v1000h-50q-350 0 -350 -500z" />
    <glyph glyph-name="oe" unicode="&#x153;" horiz-adv-x="1700" 
d="M1200 1001q400 0 400 -400v-151h-650q18 -300 249 -300q249 0 401 150v-199q-151 -100 -401 -100h-2q-226 0 -323 160q-98 -160 -324 -160h-2q-397 0 -397 496v4q0 500 400 500q226 0 324 -161q98 161 325 161zM550 150q249 0 250 347v4v3q0 346 -250 346t-250 -350
t250 -350zM1200 851q-210 0 -245 -251h494v3q0 246 -249 248z" />
    <glyph glyph-name="endash" unicode="&#x2013;" horiz-adv-x="1100" 
d="M0 550v150h1100v-150h-1100z" />
    <glyph glyph-name="emdash" unicode="&#x2014;" horiz-adv-x="1800" 
d="M0 850h1800v-150h-1800v150z" />
    <glyph glyph-name="quotedblleft" unicode="&#x201c;" horiz-adv-x="650" 
d="M333 939l-47 -21q-160 228 -182 276q-31 66 38 98q67 31 98 -36l1 -3q16 -34 39 -112t53 -202zM593 939l-47 -21q-160 228 -182 276q-31 66 38 98q67 31 98 -36l1 -3q16 -34 39 -112t53 -202z" />
    <glyph glyph-name="quotedblright" unicode="&#x201d;" horiz-adv-x="650" 
d="M133 954l-39 33q137 242 171 283q47 56 105 7q57 -47 10 -104l-3 -2q-24 -29 -84.5 -83t-159.5 -134zM411 953l-39 33q137 243 171 283q47 56 105 8q57 -48 9 -104l-2 -3q-24 -29 -84.5 -83t-159.5 -134z" />
    <glyph glyph-name="quoteleft" unicode="&#x2018;" horiz-adv-x="448" 
d="M332 939l-47 -21q-160 228 -182 276q-31 66 38 98q67 31 98 -36l1 -3q16 -34 39 -112t53 -202z" />
    <glyph glyph-name="quoteright" unicode="&#x2019;" horiz-adv-x="495" 
d="M132 954l-39 33q137 242 171 283q47 56 105 7q57 -47 10 -104l-3 -2q-24 -29 -84.5 -83t-159.5 -134z" />
    <glyph glyph-name="divide" unicode="&#xf7;" horiz-adv-x="1150" 
d="M1000 450h-850v150h850v-150zM650 225q0 -31 -22 -53t-53 -22t-53 22t-22 53t22 53t53 22t53 -22t22 -53zM650 825q0 -31 -22 -53t-53 -22t-53 22t-22 53t22 53t53 22t53 -22t22 -53z" />
    <glyph glyph-name="ydieresis" unicode="&#xff;" horiz-adv-x="1100" 
d="M258 -400l209 489l-377 911h162l298 -716l306 716h163l-598 -1400h-163zM450 1226q0 -75 -74 -75q-75 -1 -75 74t75 75q74 1 74 -74zM651 1226q0 75 75 75q74 -1 74 -75q0 -75 -75 -75t-74 75z" />
    <glyph glyph-name="Ydieresis" unicode="&#x178;" horiz-adv-x="1101" 
d="M65 1300h176l309 -509l322 509h176l-423 -670v-630h-149v629zM450 1476q0 -75 -74 -75q-75 -1 -75 74t75 75q74 1 74 -74zM651 1476q0 75 75 75q74 -1 74 -75q0 -75 -75 -75t-74 75z" />
    <glyph glyph-name="currency" unicode="&#xa4;" horiz-adv-x="1100" 
d="M266 905l60 -61q84 56 223 56q140 0 224 -56l60 59l71 -70l-61 -60q56 -84 56 -223t-55 -223l59 -59l-71 -71l-59 59q-84 -56 -224 -56q-139 0 -223 55l-59 -59l-71 71l59 59q-56 84 -56 224t56 224l-59 60zM799 550q0 250 -250 250t-250 -250t250 -250t250 250z" />
    <glyph glyph-name="guilsinglleft" unicode="&#x2039;" horiz-adv-x="600" 
d="M500 600l-200 -200l200 -200v-100l-400 300l400 300v-100z" />
    <glyph glyph-name="guilsinglright" unicode="&#x203a;" horiz-adv-x="600" 
d="M100 200l199 200l-199 200v100l400 -300l-400 -300v100z" />
    <glyph glyph-name="daggerdbl" unicode="&#x2021;" horiz-adv-x="1250" 
d="M700 -1v-399h-150v400h-400v150h400v450h-400v150h400v400h150v-400h400v-151h-400v-449h400v-151h-400z" />
    <glyph glyph-name="periodcentered" unicode="&#xb7;" horiz-adv-x="600" 
d="M500 500q0 -200 -200 -200t-200 200t200 200t200 -200z" />
    <glyph glyph-name="quotesinglbase" unicode="&#x201a;" horiz-adv-x="450" 
d="M344 10q0 -21 -13 -43l-135 -234l-88 29l50 280q6 25 27.5 41t47.5 16q39 0 73 -25q38 -27 38 -64z" />
    <glyph glyph-name="quotedblbase" unicode="&#x201e;" horiz-adv-x="800" 
d="M344 10q0 -21 -13 -43l-135 -234l-88 29l50 280q6 25 27.5 41t47.5 16q39 0 73 -25q38 -27 38 -64zM686 10q0 -21 -13 -43l-135 -234l-88 29l50 280q6 25 27.5 41t47.5 16q39 0 73 -25q38 -27 38 -64z" />
    <glyph glyph-name="perthousand" unicode="&#x2030;" horiz-adv-x="2050" 
d="M294 -204l-144 80l895 1616l145 -79zM975 451q225 0 225 -225t-224 -225q-225 0 -225 225v3q0 222 224 222zM1050 225q0 75 -75 75t-75 -75t75 -75t75 75zM375 1301q225 0 225 -225t-224 -225q-225 0 -225 225v3q0 222 224 222zM450 1075q0 75 -75 75t-75 -75t75 -75
t75 75zM1675 451q225 0 225 -225t-224 -225q-225 0 -225 225v3q0 222 224 222zM1750 225q0 75 -75 75t-75 -75t75 -75t75 75z" />
    <glyph glyph-name="Acircumflex" unicode="&#xc2;" horiz-adv-x="1100" 
d="M1062 0h-157l-127 400h-451l-123 -400h-156l402 1300h200zM731 550l-181 574l-176 -574h357zM751 1401l-200 199l-201 -199h-100l301 399l300 -399h-100z" />
    <glyph glyph-name="Ecircumflex" unicode="&#xca;" horiz-adv-x="1049" 
d="M950 1300v-150h-650v-350h600v-150h-600v-500h650v-150h-800v1300h800zM751 1401l-200 199l-201 -199h-100l301 399l300 -399h-100z" />
    <glyph glyph-name="Aacute" unicode="&#xc1;" horiz-adv-x="1100" 
d="M1062 0h-157l-127 400h-451l-123 -400h-156l402 1300h200zM731 550l-181 574l-176 -574h357zM550 1400h-100l200 400h150z" />
    <glyph glyph-name="Edieresis" unicode="&#xcb;" horiz-adv-x="1049" 
d="M950 1300v-150h-650v-350h600v-150h-600v-500h650v-150h-800v1300h800zM450 1476q0 -75 -74 -75q-75 -1 -75 74t75 75q74 1 74 -74zM651 1476q0 75 75 75q74 -1 74 -75q0 -75 -75 -75t-74 75z" />
    <glyph glyph-name="Egrave" unicode="&#xc8;" horiz-adv-x="1049" 
d="M950 1300v-150h-650v-350h600v-150h-600v-500h650v-150h-800v1300h800zM700 1400h-100l-300 350h150z" />
    <glyph glyph-name="Iacute" unicode="&#xcd;" horiz-adv-x="650" 
d="M100 150h150v1000h-150v150h450v-150h-150v-1000h150v-150h-450v150zM350 1400h-100l200 400h150z" />
    <glyph glyph-name="Icircumflex" unicode="&#xce;" horiz-adv-x="650" 
d="M100 150h150v1000h-150v150h450v-150h-150v-1000h150v-150h-450v150zM526 1399l-200 199l-201 -199h-100l301 399l300 -399h-100z" />
    <glyph glyph-name="Idieresis" unicode="&#xcf;" horiz-adv-x="650" 
d="M100 150h150v1000h-150v150h450v-150h-150v-1000h150v-150h-450v150zM250 1476q0 -75 -74 -75q-75 -1 -75 74t75 75q74 1 74 -74zM401 1476q0 75 75 75q74 -1 74 -75q0 -75 -75 -75t-74 75z" />
    <glyph glyph-name="Igrave" unicode="&#xcc;" horiz-adv-x="650" 
d="M100 150h150v1000h-150v150h450v-150h-150v-1000h150v-150h-450v150zM400 1400h-100l-300 350h150z" />
    <glyph glyph-name="Oacute" unicode="&#xd3;" horiz-adv-x="1300" 
d="M150 650q0 650 500 650t500 -650t-500 -650t-500 650zM300 650q0 -500 350 -500t350 500t-350 500t-350 -500zM600 1400h-100l200 400h150z" />
    <glyph glyph-name="Ocircumflex" unicode="&#xd4;" horiz-adv-x="1300" 
d="M150 650q0 650 500 650t500 -650t-500 -650t-500 650zM300 650q0 -500 350 -500t350 500t-350 500t-350 -500zM850 1401l-200 199l-201 -199h-100l301 399l300 -399h-100z" />
    <glyph glyph-name="Ograve" unicode="&#xd2;" horiz-adv-x="1300" 
d="M150 650q0 650 500 650t500 -650t-500 -650t-500 650zM300 650q0 -500 350 -500t350 500t-350 500t-350 -500zM750 1400h-100l-300 350h150z" />
    <glyph glyph-name="Uacute" unicode="&#xda;" horiz-adv-x="1200" 
d="M600 0q-450 0 -450 400v900h150v-900q0 -250 300 -250t300 250v900h150v-900q0 -400 -450 -400zM600 1400h-100l200 400h150z" />
    <glyph glyph-name="Ucircumflex" unicode="&#xdb;" horiz-adv-x="1200" 
d="M600 0q-450 0 -450 400v900h150v-900q0 -250 300 -250t300 250v900h150v-900q0 -400 -450 -400zM801 1401l-200 199l-201 -199h-100l301 399l300 -399h-100z" />
    <glyph glyph-name="Ugrave" unicode="&#xd9;" horiz-adv-x="1200" 
d="M600 0q-450 0 -450 400v900h150v-900q0 -250 300 -250t300 250v900h150v-900q0 -400 -450 -400zM750 1400h-100l-300 350h150z" />
    <glyph glyph-name="circumflex" unicode="&#x2c6;" 
d="M200 1400l-200 200l-200 -200h-100l300 400l300 -400h-100z" />
    <glyph glyph-name="glyph196" unicode="&#x2dc;" 
d="M150 1400q-98 0 -175 50t-125 50q-49 0 -49 -100h-101q0 200 150 200q98 0 175 -50t125 -50q50 0 50 100h100q0 -200 -150 -200z" />
    <glyph glyph-name="macron" unicode="&#xaf;" 
d="M-400 1300v150h800v-150h-800z" />
    <glyph glyph-name="cedilla" unicode="&#xb8;" 
d="M150 100l-100 -200q200 0 200 -175t-250 -175q-100 0 -150 100h150q150 0 150 75t-100 75h-150l150 300h100z" />
    <glyph glyph-name="notequal" unicode="&#x2260;" horiz-adv-x="1100" 
d="M821 1185l-100 -236h230v-149h-294l-105 -249h399v-151h-463l-116 -274l-91 39l99 235h-230v151h294l106 249h-400v149h463l117 275z" />
    <glyph glyph-name="infinity" unicode="&#x221e;" horiz-adv-x="1700" 
d="M200 350q0 350 350 350q218 0 300 -136q82 136 300 136q350 0 350 -350t-350 -350q-218 0 -300 135q-82 -135 -300 -135q-350 0 -350 350zM1400 350q0 250 -250 250t-250 -250t250 -250t250 250zM800 350v12q-7 238 -250 238q-250 0 -250 -250t250 -250t250 250z" />
    <glyph glyph-name="lessequal" unicode="&#x2264;" horiz-adv-x="1250" 
d="M1101 249l-951 455v100l951 452l35 -145l-753 -357l753 -357zM150 1v149l1001 1v-150h-1001z" />
    <glyph glyph-name="greaterequal" unicode="&#x2265;" horiz-adv-x="1250" 
d="M150 0v150h1000v-150h-1000zM201 242l-35 147l765 362l-765 352l35 145l949 -452v-100z" />
    <glyph glyph-name="partialdiff" unicode="&#x2202;" horiz-adv-x="1100" 
d="M630 847q153 -27 235 -107l29 163q43 246 -104 272q-197 34 -183 108.5t210 39.5q295 -54 226 -446l-92 -518h-1q-73 -418 -467 -349q-394 70 -320 489q73 418 467 348zM509 158q246 -43 294 227q48 271 -199 315q-246 43 -294 -228q-47 -271 199 -314z" />
    <glyph glyph-name="summation" unicode="&#x2211;" horiz-adv-x="1100" 
d="M150 1500h800v-150h-650l400 -700l-400 -700h650v-150h-800v150l400 700l-400 700v150z" />
    <glyph glyph-name="product" unicode="&#x220f;" horiz-adv-x="1150" 
d="M150 1300h850v-1300h-150v1150h-550v-1150h-150v1300z" />
    <glyph glyph-name="pi" unicode="&#x3c0;" horiz-adv-x="1150" 
d="M150 1300h850v-1300h-150v1150h-550v-1150h-150v1300z" />
    <glyph glyph-name="integral" unicode="&#x222b;" horiz-adv-x="650" 
d="M600 1300q-200 0 -200 -200v-900q0 -350 -350 -350v150q200 0 200 200v900q0 350 350 350v-150z" />
    <glyph glyph-name="Omega" unicode="&#x3a9;" horiz-adv-x="1300" 
d="M1151 149l-1 -150h-400v501q250 0 250 350q0 300 -350 300t-350 -300q0 -350 250 -350v-500v-1h-400l1 150h250v222q-251 83 -251 479q0 450 500 450t500 -450q0 -395 -250 -478v-223h251z" />
    <glyph glyph-name="radical" unicode="&#x221a;" horiz-adv-x="1100" 
d="M456 0l-204 650l-203 88h330l175 -562l342 1124h154l-397 -1300h-197z" />
    <glyph glyph-name="approxequal" unicode="&#x2248;" horiz-adv-x="1100" 
d="M150 800v149q200 100 300 50t200.5 -50t300.5 70v-149q-200 -70 -300.5 -70t-200.5 50t-300 -50zM150 400v151q200 100 300 50t200.5 -50t300.5 70v-151q-200 -70 -300.5 -70t-200.5 50t-300 -50z" />
    <glyph glyph-name="Delta" unicode="&#x394;" horiz-adv-x="1100" 
d="M1062 0h-1014l402 1300h200zM550 1124l-300 -974h607z" />
    <glyph glyph-name="lozenge" unicode="&#x25ca;" horiz-adv-x="1600" 
d="M101 700l699 700l700 -700l-700 -700zM800 210l490 490l-490 490l-489 -490z" />
    <glyph glyph-name="fraction" unicode="&#x2044;" horiz-adv-x="1000" 
d="M177 -67l-128 78l775 1285l128 -77z" />
    <glyph glyph-name="fi" unicode="&#xfb01;" horiz-adv-x="950" 
d="M300 850v-850h-150v850h-121v150h121v50q0 350 300 350h350v-150h-350q-150 0 -150 -199v-51h500v-1000h-150v850h-350z" />
    <glyph glyph-name="fl" unicode="&#xfb02;" horiz-adv-x="950" 
d="M300 850v-850h-150v850h-121v150h121v50q0 350 300 350h350v-1400h-150v1250h-200q-150 0 -150 -199v-51h250v-150h-250z" />
    <glyph glyph-name="dotlessi" unicode="&#x131;" horiz-adv-x="450" 
d="M150 1000h150v-1000h-150v1000z" />
    <glyph glyph-name="breve" unicode="&#x2d8;" 
d="M-1 1400q-251 0 -300 349h100q51 -199 201 -199q151 0 200 199h100q-49 -349 -301 -349z" />
    <glyph glyph-name="dotaccent" unicode="&#x2d9;" 
d="M-100 1350q0 100 100 100t100 -100t-100 -100t-100 100z" />
    <glyph glyph-name="ring" unicode="&#x2da;" 
d="M-100 1350q0 -100 100 -100t100 100t-100 100t-100 -100zM0 1150q-200 0 -200 200t200 200t200 -200t-200 -200z" />
    <glyph glyph-name="hungarumlaut" unicode="&#x2dd;" horiz-adv-x="797" 
d="M132 954l-39 33q137 242 171 283q47 56 105 7q57 -47 10 -104l-3 -2q-24 -29 -84.5 -83t-159.5 -134zM432 954l-39 33q137 242 171 283q47 56 105 7q57 -47 10 -104l-3 -2q-24 -29 -84.5 -83t-159.5 -134z" />
    <glyph glyph-name="ogonek" unicode="&#x2db;" 
d="M150 100l-100 -200l-50 -100l-25 -50q-55 -100 25 -100q150 0 150 50t50 50h50q0 -200 -250 -200q-100 0 -125 75t25 175l150 300h100z" />
    <glyph glyph-name="caron" unicode="&#x2c7;" 
d="M-200 1800l200 -200l200 200h100l-300 -400l-300 400h100z" />
    <glyph glyph-name="Itilde" unicode="&#x128;" horiz-adv-x="650" 
d="M100 150h150v1000h-150v150h450v-150h-150v-1000h150v-150h-450v150zM476 1400q-98 0 -175 50t-125 50q-49 0 -49 -100h-101q0 200 150 200q98 0 175 -50t125 -50q50 0 50 100h100q0 -200 -150 -200z" />
    <glyph glyph-name="itilde" unicode="&#x129;" horiz-adv-x="450" 
d="M150 1000h150v-1000h-150v1000zM376 1200q-98 0 -175 50t-125 50q-49 0 -49 -100h-101q0 200 150 200q98 0 175 -50t125 -50q50 0 50 100h100q0 -200 -150 -200z" />
    <glyph glyph-name="Scaron" unicode="&#x160;" horiz-adv-x="1100" 
d="M551 151q248 0 250 249q0 200 -246 200h-4q-401 0 -401 350q0 351 400 351q251 0 351 -100v-201q-101 150 -350 150q-250 0 -250 -200t250 -200h3q396 0 396 -349q0 -400 -399 -401q-253 0 -401 100v200q152 -149 401 -149zM350 1800l200 -200l200 200h100l-300 -400
l-300 400h100z" />
    <glyph glyph-name="scaron" unicode="&#x161;" horiz-adv-x="1050" 
d="M551 151q249 0 249 135q0 134 -249 134q-401 0 -401 290q0 291 400 291q251 0 351 -100v-201q-101 150 -350 150q-250 0 -250 -140t250 -140q399 0 399 -285t-399 -285q-253 0 -401 100v200q152 -149 401 -149zM350 1550l200 -200l200 200h100l-300 -400l-300 400h100z
" />
    <glyph glyph-name="brokenbar" unicode="&#xa6;" horiz-adv-x="450" 
d="M150 0v800h150v-800h-150zM150 1000v800h150v-800h-150z" />
    <glyph glyph-name="Dstroke" unicode="&#x110;" horiz-adv-x="1149" 
d="M-1 600v150h150v550h400q500 0 500 -650t-500 -650h-400v600h-150zM899 650q0 500 -350 500h-250v-400h300v-150h-300v-450h250q350 0 350 500z" />
    <glyph glyph-name="eth" unicode="&#xf0;" horiz-adv-x="1100" 
d="M-94 1176l482 177l-255 420l128 78l271 -446l510 188l52 -141l-483 -177l254 -418q14 -18 24 -40h1q62 -119 62 -316q-2 -500 -401 -500h-2q-397 0 -397 496v4q0 500 400 500q27 0 52 -3l-136 224l-510 -187zM551 150q250 0 250 350v4q0 346 -250 346t-250 -350t250 -350
z" />
    <glyph glyph-name="Yacute" unicode="&#xdd;" horiz-adv-x="1106" 
d="M65 1300h176l309 -509l322 509h176l-423 -670v-630h-149v629zM600 1400h-100l200 400h150z" />
    <glyph glyph-name="yacute" unicode="&#xfd;" horiz-adv-x="1100" 
d="M258 -400l209 489l-377 911h162l298 -716l306 716h163l-598 -1400h-163zM500 1150h-100l200 400h150z" />
    <glyph glyph-name="Thorn" unicode="&#xde;" horiz-adv-x="1050" 
d="M150 1300h150v-250h200q450 0 450 -400t-450 -400h-200v-250h-150v1300zM800 650q0 250 -300 250h-200v-500h200q300 0 300 250z" />
    <glyph glyph-name="thorn" unicode="&#xfe;" horiz-adv-x="1050" 
d="M300 925q94 76 251 76q400 0 400 -500q-2 -500 -401 -500h-6q-149 0 -244 74v-475h-150v1700h150v-375zM550 150q250 0 250 350t-250 350t-250 -350t250 -350z" />
    <glyph glyph-name="minus" unicode="&#xad;" horiz-adv-x="1100" 
d="M150 400v150h800v-150h-800z" />
    <glyph glyph-name="multiply" unicode="&#xd7;" horiz-adv-x="1100" 
d="M656 574l282 -282l-106 -106l-283 283l-283 -283l-106 106l283 283l-283 283l106 106l283 -283l283 283l107 -107z" />
    <glyph glyph-name="onesuperior" unicode="&#xb9;" horiz-adv-x="400" 
d="M154 1092h-104v104q69 0 104 104h104v-796h104v-104h-312v104h104v588z" />
    <glyph glyph-name="twosuperior" unicode="&#xb2;" horiz-adv-x="850" 
d="M703 1033q0 -76 -106 -193l-305 -336h411v-104h-553v101l362 399q87 96 87 132q0 164 -173 164q-172 0 -172 -173h-104q0 277 276 277q277 0 277 -267z" />
    <glyph glyph-name="threesuperior" unicode="&#xb3;" horiz-adv-x="850" 
d="M427 1301q277 0 277 -248q0 -130 -83 -189q83 -67 83 -215q0 -249 -277 -249q-276 0 -276 243h104q0 -139 172 -139t172 145q0 167 -172 167h-69v104h69q91 0 131.5 35t40.5 98q0 144 -172 144t-172 -138h-104q0 242 276 242z" />
    <glyph glyph-name="onehalf" unicode="&#xbd;" horiz-adv-x="1550" 
d="M154 1092h-104v104q69 0 104 104h104v-796h104v-104h-312v104h104v588zM1450 633q0 -76 -106 -193l-305 -336h411v-104h-553v101l362 399q87 96 87 132q0 164 -172 164q-173 0 -173 -173h-104q0 277 277 277q276 0 276 -267zM1129 1301l-781 -1302h-116l780 1301z" />
    <glyph glyph-name="onequarter" unicode="&#xbc;" horiz-adv-x="1450" 
d="M154 1092h-104v104q69 0 104 104h104v-796h104v-104h-312v104h104v588zM1129 1301l-781 -1302h-116l780 1301zM1314 278v-278h-104v278h-450v90l450 532h104v-519h85v-103h-85zM1210 739l-303 -358h303v358z" />
    <glyph glyph-name="threequarters" unicode="&#xbe;" horiz-adv-x="1700" 
d="M1379 1301l-781 -1302h-116l780 1301zM1564 278v-278h-104v278h-450v90l450 532h104v-519h85v-103h-85zM1460 739l-303 -358h303v358zM427 1301q277 0 277 -248q0 -130 -83 -189q83 -67 83 -215q0 -249 -277 -249q-276 0 -276 243h104q0 -139 172 -139t172 145
q0 167 -172 167h-69v104h69q91 0 131.5 35t40.5 98q0 144 -172 144t-172 -138h-104q0 242 276 242z" />
    <glyph glyph-name="Lslash" unicode="&#x141;" horiz-adv-x="900" 
d="M-50 600l200 61v639h150v-593l300 93v-99l-300 -93v-458h500v-150h-650v562l-200 -62v100z" />
    <glyph glyph-name="lslash" unicode="&#x142;" horiz-adv-x="450" 
d="M-50 600l200 61v639h150v-593l300 93v-99l-300 -93v-608h-150v562l-200 -62v100z" />
    <glyph glyph-name="Zcaron" unicode="&#x17d;" horiz-adv-x="1100" 
d="M350 1800l200 -200l200 200h100l-300 -400l-300 400h100zM150 124l611 1026h-611v150h800v-126l-610 -1024h610v-150h-800v124z" />
    <glyph glyph-name="zcaron" unicode="&#x17e;" horiz-adv-x="1100" 
d="M150 131h1l590 719h-591v150h800v-133h-1l-589 -717h590v-150h-800v131zM350 1550l200 -200l200 200h100l-300 -400l-300 400h100z" />
    <glyph glyph-name="Euro" unicode="&#x20ac;" horiz-adv-x="1150" 
d="M50 850h114q69 451 486 451q249 0 401 -101v-200q-99 150 -401 150q-271 0 -333 -300h283v-100h-296q-4 -47 -4 -100t4 -100h296v-100h-283q61 -300 333 -300q301 0 400 150v-199q-152 -101 -400 -101q-416 0 -486 450h-113l-1 100h103q-3 48 -3 101q0 51 3 99h-102z" />
    <glyph glyph-name="Adotbelow" unicode="&#x1ea0;" horiz-adv-x="1100" 
d="M1062 0h-157l-127 400h-451l-123 -400h-156l402 1300h200zM731 550l-181 574l-176 -574h357zM476 -150h149v-150h-149v150z" />
    <glyph glyph-name="adotbelow" unicode="&#x1ea1;" horiz-adv-x="1050" 
d="M100 300q0 350 550 350h101v51q0 150 -251 150q-163 0 -349 -50v150q188 50 350 50q400 0 400 -300v-700h-150v159l-13 -10q-188 -150 -338 -150q-300 0 -300 300zM251 300q0 -149 150 -149q99 0 224 99l125 100v150h-100q-399 0 -399 -200zM476 -150h149v-150h-149v150z
" />
    <glyph glyph-name="Ahookabove" unicode="&#x1ea2;" horiz-adv-x="1100" 
d="M1062 0h-157l-127 400h-451l-123 -400h-156l402 1300h200zM731 550l-181 574l-176 -574h357zM600 1600q100 49 100 100q0 100 -125 100t-125 -50h-100q0 150 225 150t225 -200q0 -101 -100 -150l-50 -25q-50 -26 -50 -125h-100q0 151 100 200z" />
    <glyph glyph-name="ahookabove" unicode="&#x1ea3;" horiz-adv-x="1050" 
d="M100 300q0 350 550 350h101v51q0 150 -251 150q-163 0 -349 -50v150q188 50 350 50q400 0 400 -300v-700h-150v159l-13 -10q-188 -150 -338 -150q-300 0 -300 300zM251 300q0 -149 150 -149q99 0 224 99l125 100v150h-100q-399 0 -399 -200zM600 1350q100 49 100 100
q0 100 -125 100t-125 -50h-100q0 150 225 150t225 -200q0 -101 -100 -150l-50 -25q-50 -26 -50 -125h-100q0 151 100 200z" />
    <glyph glyph-name="Acircumflexacute" unicode="&#x1ea4;" horiz-adv-x="1100" 
d="M1062 0h-157l-127 400h-451l-123 -400h-156l402 1300h200zM800 1600h-99l150 -199h-100l-200 199l-201 -199h-100l301 399l149 -199l200 399h150zM731 550l-181 574l-176 -574h357z" />
    <glyph glyph-name="acircumflexacute" unicode="&#x1ea5;" horiz-adv-x="1050" 
d="M100 300q0 350 550 350h101v51q0 150 -251 150q-161 0 -349 -50v150q189 50 350 50q400 0 400 -300v-700h-150v159l-13 -10q-188 -150 -338 -150q-300 0 -300 300zM651 500q-400 0 -400 -200q0 -149 150 -149q99 0 224 99l125 100l1 -3v153h-100zM751 1151l-200 199
l-201 -199h-100l301 399l300 -399h-100zM800 1400h-100l200 400h150z" />
    <glyph glyph-name="Acircumflexgrave" unicode="&#x1ea6;" horiz-adv-x="1100" 
d="M1062 0h-157l-127 400h-451l-123 -400h-156l402 1300h200zM731 550l-181 574l-176 -574h357zM751 1401l-200 199l-201 -199h-100l301 399l300 -399h-100zM1000 1600h-100l-300 350h150z" />
    <glyph glyph-name="acircumflexgrave" unicode="&#x1ea7;" horiz-adv-x="1050" 
d="M100 300q0 350 550 350h101v51q0 150 -251 150q-161 0 -349 -50v150q189 50 350 50q400 0 400 -300v-700h-150v159l-13 -10q-188 -150 -338 -150q-300 0 -300 300zM651 500q-400 0 -400 -200q0 -149 150 -149q99 0 224 99l125 100l1 -3v153h-100zM751 1151l-200 199
l-201 -199h-100l301 399l300 -399h-100zM1000 1350h-100l-300 350h150z" />
    <glyph glyph-name="Acircumflexhookabove" unicode="&#x1ea8;" horiz-adv-x="1100" 
d="M1062 0h-157l-127 400h-451l-123 -400h-156l402 1300h200zM731 550l-181 574l-176 -574h357zM751 1401l-200 199l-201 -199h-100l301 399l300 -399h-100zM850 1800q100 49 100 100q0 100 -125 100t-125 -50h-100q0 150 225 150t225 -200q0 -101 -100 -150l-50 -25
q-50 -26 -50 -125h-100q0 151 100 200z" />
    <glyph glyph-name="acircumflexhookabove" unicode="&#x1ea9;" horiz-adv-x="1050" 
d="M100 300q0 350 550 350h101v51q0 150 -251 150q-161 0 -349 -50v150q189 50 350 50q400 0 400 -300v-700h-150v159l-13 -10q-188 -150 -338 -150q-300 0 -300 300zM651 500q-400 0 -400 -200q0 -149 150 -149q99 0 224 99l125 100l1 -3v153h-100zM751 1151l-200 199
l-201 -199h-100l301 399l300 -399h-100zM850 1550q100 49 100 100q0 100 -125 100t-125 -50h-100q0 150 225 150t225 -200q0 -101 -100 -150l-50 -25q-50 -26 -50 -125h-100q0 151 100 200z" />
    <glyph glyph-name="Acircumflexhooktilde" unicode="&#x1eaa;" horiz-adv-x="1100" 
d="M1062 0h-157l-127 400h-451l-123 -400h-156l402 1300h200zM731 550l-181 574l-176 -574h357zM751 1401l-200 199l-201 -199h-100l301 399l300 -399h-100zM706 1850q-98 0 -175 50t-125 50q-49 0 -49 -100h-101q0 200 150 200q98 0 175 -50t125 -50q50 0 50 100h100
q0 -200 -150 -200z" />
    <glyph glyph-name="acircumflextilde" unicode="&#x1eab;" horiz-adv-x="1050" 
d="M100 300q0 350 550 350h101v51q0 150 -251 150q-161 0 -349 -50v150q189 50 350 50q400 0 400 -300v-700h-150v159l-13 -10q-188 -150 -338 -150q-300 0 -300 300zM651 500q-400 0 -400 -200q0 -149 150 -149q99 0 224 99l125 100l1 -3v153h-100zM751 1151l-200 199
l-201 -199h-100l301 399l300 -399h-100zM706 1600q-98 0 -175 50t-125 50q-49 0 -49 -100h-101q0 200 150 200q98 0 175 -50t125 -50q50 0 50 100h100q0 -200 -150 -200z" />
    <glyph glyph-name="Acircumflexdotbelow" unicode="&#x1eac;" horiz-adv-x="1100" 
d="M1062 0h-157l-127 400h-451l-123 -400h-156l402 1300h200zM731 550l-181 574l-176 -574h357zM751 1401l-200 199l-201 -199h-100l301 399l300 -399h-100zM476 -150h149v-150h-149v150z" />
    <glyph glyph-name="acircumflexdotbelow" unicode="&#x1ead;" horiz-adv-x="1050" 
d="M100 300q0 350 550 350h101v51q0 150 -251 150q-161 0 -349 -50v150q189 50 350 50q400 0 400 -300v-700h-150v159l-13 -10q-188 -150 -338 -150q-300 0 -300 300zM651 500q-400 0 -400 -200q0 -149 150 -149q99 0 224 99l125 100l1 -3v153h-100zM751 1151l-200 199
l-201 -199h-100l301 399l300 -399h-100zM476 -150h149v-150h-149v150z" />
    <glyph glyph-name="Abreveacute" unicode="&#x1eae;" horiz-adv-x="1100" 
d="M1062 0h-157l-127 400h-451l-123 -400h-156l402 1300h200zM731 550l-181 574l-176 -574h357zM600 1700h-100l200 400h150zM549 1400q-251 0 -300 349h100q51 -199 201 -199q151 0 200 199h100q-49 -349 -301 -349z" />
    <glyph glyph-name="abreveacute" unicode="&#x1eaf;" horiz-adv-x="1050" 
d="M100 300q0 350 550 350h101v51q0 150 -251 150q-161 0 -349 -50v150q189 50 350 50q400 0 400 -300v-700h-150v159l-13 -10q-188 -150 -338 -150q-300 0 -300 300zM651 500q-400 0 -400 -200q0 -149 150 -149q99 0 224 99l125 100l1 -3v153h-100zM549 1100
q-251 0 -300 349h100q51 -199 201 -199q151 0 200 199h100q-49 -349 -301 -349zM600 1400h-100l200 400h150z" />
    <glyph glyph-name="Abrevegrave" unicode="&#x1eb0;" horiz-adv-x="1100" 
d="M1062 0h-157l-127 400h-451l-123 -400h-156l402 1300h200zM731 550l-181 574l-176 -574h357zM549 1400q-251 0 -300 349h100q51 -199 201 -199q151 0 200 199h100q-49 -349 -301 -349zM700 1700h-100l-300 350h150z" />
    <glyph glyph-name="abrevegrave" unicode="&#x1eb1;" horiz-adv-x="1050" 
d="M100 300q0 350 550 350h101v51q0 150 -251 150q-161 0 -349 -50v150q189 50 350 50q400 0 400 -300v-700h-150v159l-13 -10q-188 -150 -338 -150q-300 0 -300 300zM651 500q-400 0 -400 -200q0 -149 150 -149q99 0 224 99l125 100l1 -3v153h-100zM549 1100
q-251 0 -300 349h100q51 -199 201 -199q151 0 200 199h100q-49 -349 -301 -349zM700 1400h-100l-300 350h150z" />
    <glyph glyph-name="Abrevehookabove" unicode="&#x1eb2;" horiz-adv-x="1100" 
d="M1062 0h-157l-127 400h-451l-123 -400h-156l402 1300h200zM731 550l-181 574l-176 -574h357zM549 1400q-251 0 -300 349h100q51 -199 201 -199q151 0 200 199h100q-49 -349 -301 -349zM600 1900q100 49 100 100q0 100 -125 100t-125 -50h-100q0 150 225 150t225 -200
q0 -101 -100 -150l-50 -25q-50 -26 -50 -125h-100q0 151 100 200z" />
    <glyph glyph-name="abrevehookabove" unicode="&#x1eb3;" horiz-adv-x="1050" 
d="M100 300q0 350 550 350h101v51q0 150 -251 150q-161 0 -349 -50v150q189 50 350 50q400 0 400 -300v-700h-150v159l-13 -10q-188 -150 -338 -150q-300 0 -300 300zM651 500q-400 0 -400 -200q0 -149 150 -149q99 0 224 99l125 100l1 -3v153h-100zM549 1100
q-251 0 -300 349h100q51 -199 201 -199q151 0 200 199h100q-49 -349 -301 -349zM600 1600q100 49 100 100q0 100 -125 100t-125 -50h-100q0 150 225 150t225 -200q0 -101 -100 -150l-50 -25q-50 -26 -50 -125h-100q0 151 100 200z" />
    <glyph glyph-name="Abrevetilde" unicode="&#x1eb4;" horiz-adv-x="1100" 
d="M1062 0h-157l-127 400h-451l-123 -400h-156l402 1300h200zM731 550l-181 574l-176 -574h357zM549 1400q-251 0 -300 349h100q51 -199 201 -199q151 0 200 199h100q-49 -349 -301 -349zM706 1850q-98 0 -175 50t-125 50q-49 0 -49 -100h-101q0 200 150 200q98 0 175 -50
t125 -50q50 0 50 100h100q0 -200 -150 -200z" />
    <glyph glyph-name="abrevetilde" unicode="&#x1eb5;" horiz-adv-x="1050" 
d="M100 300q0 350 550 350h101v51q0 150 -251 150q-161 0 -349 -50v150q189 50 350 50q400 0 400 -300v-700h-150v159l-13 -10q-188 -150 -338 -150q-300 0 -300 300zM651 500q-400 0 -400 -200q0 -149 150 -149q99 0 224 99l125 100l1 -3v153h-100zM549 1100
q-251 0 -300 349h100q51 -199 201 -199q151 0 200 199h100q-49 -349 -301 -349zM706 1550q-98 0 -175 50t-125 50q-49 0 -49 -100h-101q0 200 150 200q98 0 175 -50t125 -50q50 0 50 100h100q0 -200 -150 -200z" />
    <glyph glyph-name="Abrevedotbelove" unicode="&#x1eb6;" horiz-adv-x="1100" 
d="M1062 0h-157l-127 400h-451l-123 -400h-156l402 1300h200zM731 550l-181 574l-176 -574h357zM549 1400q-251 0 -300 349h100q51 -199 201 -199q151 0 200 199h100q-49 -349 -301 -349zM476 -150h149v-150h-149v150z" />
    <glyph glyph-name="abrevedotbelove" unicode="&#x1eb7;" horiz-adv-x="1050" 
d="M100 300q0 350 550 350h101v51q0 150 -251 150q-161 0 -349 -50v150q189 50 350 50q400 0 400 -300v-700h-150v159l-13 -10q-188 -150 -338 -150q-300 0 -300 300zM651 500q-400 0 -400 -200q0 -149 150 -149q99 0 224 99l125 100l1 -3v153h-100zM549 1100
q-251 0 -300 349h100q51 -199 201 -199q151 0 200 199h100q-49 -349 -301 -349zM476 -150h149v-150h-149v150z" />
    <glyph glyph-name="Edotbelow" unicode="&#x1eb8;" horiz-adv-x="1050" 
d="M950 1300v-150h-650v-350h600v-150h-600v-500h650v-150h-800v1300h800zM476 -150h149v-150h-149v150z" />
    <glyph glyph-name="edotbelow" unicode="&#x1eb9;" horiz-adv-x="1050" 
d="M501 1001q400 0 400 -400v-151h-650q18 -300 249 -300q249 0 401 150v-199q-151 -100 -401 -100h-2q-397 0 -397 496v4q0 500 400 500zM501 851q-210 0 -245 -251h494v3q0 246 -249 248zM476 -150h149v-150h-149v150z" />
    <glyph glyph-name="Ehookabove" unicode="&#x1eba;" horiz-adv-x="1050" 
d="M950 1300v-150h-650v-350h600v-150h-600v-500h650v-150h-800v1300h800zM600 1600q100 49 100 100q0 100 -125 100t-125 -50h-100q0 150 225 150t225 -200q0 -101 -100 -150l-50 -25q-50 -26 -50 -125h-100q0 151 100 200z" />
    <glyph glyph-name="ehookabove" unicode="&#x1ebb;" horiz-adv-x="1050" 
d="M501 1001q400 0 400 -400v-151h-650q18 -300 249 -300q249 0 401 150v-199q-151 -100 -401 -100h-2q-397 0 -397 496v4q0 500 400 500zM501 851q-210 0 -245 -251h494v3q0 246 -249 248zM600 1350q100 49 100 100q0 100 -125 100t-125 -50h-100q0 150 225 150t225 -200
q0 -101 -100 -150l-50 -25q-50 -26 -50 -125h-100q0 151 100 200z" />
    <glyph glyph-name="Etilde" unicode="&#x1ebc;" horiz-adv-x="1050" 
d="M950 1300v-150h-650v-350h600v-150h-600v-500h650v-150h-800v1300h800zM706 1450q-98 0 -175 50t-125 50q-49 0 -49 -100h-101q0 200 150 200q98 0 175 -50t125 -50q50 0 50 100h100q0 -200 -150 -200z" />
    <glyph glyph-name="etilde" unicode="&#x1ebd;" horiz-adv-x="1050" 
d="M501 1001q400 0 400 -400v-151h-650q18 -300 249 -300q249 0 401 150v-199q-151 -100 -401 -100h-2q-397 0 -397 496v4q0 500 400 500zM501 851q-210 0 -245 -251h494v3q0 246 -249 248zM706 1200q-98 0 -175 50t-125 50q-49 0 -49 -100h-101q0 200 150 200q98 0 175 -50
t125 -50q50 0 50 100h100q0 -200 -150 -200z" />
    <glyph glyph-name="Ecircumflexacute" unicode="&#x1ebe;" horiz-adv-x="1049" 
d="M950 1300v-150h-650v-350h600v-150h-600v-500h650v-150h-800v1300h800zM751 1401l-200 199l-201 -199h-100l301 399l300 -399h-100zM800 1600h-100l200 400h150z" />
    <glyph glyph-name="ecircumflexacute" unicode="&#x1ebf;" horiz-adv-x="1050" 
d="M501 1001q400 0 400 -400v-151h-650q18 -300 249 -300q249 0 401 150v-199q-151 -100 -401 -100h-2q-397 0 -397 496v4q0 500 400 500zM501 851q-210 0 -245 -251h494v3q0 246 -249 248zM751 1151l-200 199l-201 -199h-100l301 399l300 -399h-100zM800 1390h-100l200 400
h150z" />
    <glyph glyph-name="Ecircumflexgrave" unicode="&#x1ec0;" horiz-adv-x="1050" 
d="M950 1300v-150h-650v-350h600v-150h-600v-500h650v-150h-800v1300h800zM751 1401l-200 199l-201 -199h-100l301 399l300 -399h-100zM1000 1600h-100l-300 350h150z" />
    <glyph glyph-name="ecircumflexgrave" unicode="&#x1ec1;" horiz-adv-x="1050" 
d="M501 1001q400 0 400 -400v-151h-650q18 -300 249 -300q249 0 401 150v-199q-151 -100 -401 -100h-2q-397 0 -397 496v4q0 500 400 500zM501 851q-210 0 -245 -251h494v3q0 246 -249 248zM751 1151l-200 199l-201 -199h-100l301 399l300 -399h-100zM1000 1350h-100
l-300 350h150z" />
    <glyph glyph-name="Ecircumflexhookabove" unicode="&#x1ec2;" horiz-adv-x="1049" 
d="M950 1300v-150h-650v-350h600v-150h-600v-500h650v-150h-800v1300h800zM751 1401l-200 199l-201 -199h-100l301 399l300 -399h-100zM850 1800q100 49 100 100q0 100 -125 100t-125 -50h-100q0 150 225 150t225 -200q0 -101 -100 -150l-50 -25q-50 -26 -50 -125h-100
q0 151 100 200z" />
    <glyph glyph-name="ecircumflexhookabove" unicode="&#x1ec3;" horiz-adv-x="1050" 
d="M501 1001q400 0 400 -400v-151h-650q18 -300 249 -300q249 0 401 150v-199q-151 -100 -401 -100h-2q-397 0 -397 496v4q0 500 400 500zM501 851q-210 0 -245 -251h494v3q0 246 -249 248zM751 1151l-200 199l-201 -199h-100l301 399l300 -399h-100zM850 1550
q100 49 100 100q0 100 -125 100t-125 -50h-100q0 150 225 150t225 -200q0 -101 -100 -150l-50 -25q-50 -26 -50 -125h-100q0 151 100 200z" />
    <glyph glyph-name="Ecircumflextilde" unicode="&#x1ec4;" horiz-adv-x="1049" 
d="M950 1300v-150h-650v-350h600v-150h-600v-500h650v-150h-800v1300h800zM751 1401l-200 199l-201 -199h-100l301 399l300 -399h-100zM706 1850q-98 0 -175 50t-125 50q-49 0 -49 -100h-101q0 200 150 200q98 0 175 -50t125 -50q50 0 50 100h100q0 -200 -150 -200z" />
    <glyph glyph-name="ecircumflextilde" unicode="&#x1ec5;" horiz-adv-x="1050" 
d="M501 1001q400 0 400 -400v-151h-650q18 -300 249 -300q249 0 401 150v-199q-151 -100 -401 -100h-2q-397 0 -397 496v4q0 500 400 500zM501 851q-210 0 -245 -251h494v3q0 246 -249 248zM751 1151l-200 199l-201 -199h-100l301 399l300 -399h-100zM706 1600
q-98 0 -175 50t-125 50q-49 0 -49 -100h-101q0 200 150 200q98 0 175 -50t125 -50q50 0 50 100h100q0 -200 -150 -200z" />
    <glyph glyph-name="Ecircumflexdotbelow" unicode="&#x1ec6;" horiz-adv-x="1050" 
d="M950 1300v-150h-650v-350h600v-150h-600v-500h650v-150h-800v1300h800zM476 -150h149v-150h-149v150zM751 1401l-200 199l-201 -199h-100l301 399l300 -399h-100z" />
    <glyph glyph-name="ecircumflexdotbelow" unicode="&#x1ec7;" horiz-adv-x="1050" 
d="M501 1001q400 0 400 -400v-151h-650q18 -300 249 -300q249 0 401 150v-199q-151 -100 -401 -100h-2q-397 0 -397 496v4q0 500 400 500zM501 851q-210 0 -245 -251h494v3q0 246 -249 248zM476 -150h149v-150h-149v150zM751 1151l-200 199l-201 -199h-100l301 399l300 -399
h-100z" />
    <glyph glyph-name="Ihookabove" unicode="&#x1ec8;" horiz-adv-x="650" 
d="M250 150v1000h-150v150h450v-150h-150v-1000h150v-150h-450v150h150zM370 1600q100 49 100 100q0 100 -125 100t-125 -50h-100q0 150 225 150t225 -200q0 -101 -100 -150l-50 -25q-50 -26 -50 -125h-100q0 151 100 200z" />
    <glyph glyph-name="ihookabove" unicode="&#x1ec9;" horiz-adv-x="450" 
d="M300 1000v-1000h-150v1000h150zM250 1350q100 49 100 100q0 100 -125 100t-125 -50h-100q0 150 225 150t225 -200q0 -101 -100 -150l-50 -25q-50 -26 -50 -125h-100q0 151 100 200z" />
    <glyph glyph-name="Idotbelow" unicode="&#x1eca;" horiz-adv-x="650" 
d="M250 150v1000h-150v150h450v-150h-150v-1000h150v-150h-450v150h150zM250 -150h150v-150h-150v150z" />
    <glyph glyph-name="idotbelow" unicode="&#x1ecb;" horiz-adv-x="450" 
d="M150 1000h150v-1000h-150v1000zM150 1300h150v-150h-150v150zM150 -150h150v-150h-150v150z" />
    <glyph glyph-name="Abreve" unicode="&#x102;" horiz-adv-x="1100" 
d="M1062 0h-157l-127 400h-451l-123 -400h-156l402 1300h200zM731 550l-181 574l-176 -574h357zM549 1400q-251 0 -300 349h100q51 -199 201 -199q151 0 200 199h100q-49 -349 -301 -349z" />
    <glyph glyph-name="abreve" unicode="&#x103;" horiz-adv-x="1050" 
d="M100 300q0 350 550 350h101v51q0 150 -251 150q-161 0 -349 -50v150q189 50 350 50q400 0 400 -300v-700h-150v159l-13 -10q-188 -150 -338 -150q-300 0 -300 300zM651 500q-400 0 -400 -200q0 -149 150 -149q99 0 224 99l125 100l1 -3v153h-100zM549 1100
q-251 0 -300 349h100q51 -199 201 -199q151 0 200 199h100q-49 -349 -301 -349z" />
    <glyph glyph-name="dtroke" unicode="&#x111;" horiz-adv-x="1050" 
d="M501 1000q155 0 250 -74v175h-199v149h199v100h150v-100h100v-149h-100v-1101h-150v76q-96 -75 -250 -76q-400 0 -400 500t400 500zM501 150q249 0 250 350q0 350 -249 350q-251 0 -251 -350t250 -350z" />
    <glyph glyph-name="Ohorn" unicode="&#x1a0;" horiz-adv-x="1300" 
d="M150 650q0 650 500 650q195 0 314 -100v1h53q95 0 97 99q-100 0 -101 76q0 75 100 75t100 -150q0 -182 -164 -200q101 -160 101 -451q0 -650 -500 -650t-500 650zM300 650q0 -500 350 -500t350 500t-350 500t-350 -500z" />
    <glyph glyph-name="ohorn" unicode="&#x1a1;" horiz-adv-x="1100" 
d="M953 1151q100 0 100 -150q0 -179 -159 -199q56 -117 56 -302q0 -500 -400 -500t-400 500t400 500q178 0 276 -99h31q95 0 97 99q-100 0 -101 76q0 75 100 75zM550 150q250 0 250 350t-250 350t-250 -350t250 -350z" />
    <glyph glyph-name="Uhorn" unicode="&#x1af;" horiz-adv-x="1200" 
d="M1200 1500q100 0 100 -150q0 -200 -200 -200h-50v-750q0 -400 -450 -400t-450 400v900h150v-900q0 -250 300 -250t300 250v900h150v-50h50q100 0 100 100q-100 0 -100 75t100 75z" />
    <glyph glyph-name="uhorn" unicode="&#x1b0;" horiz-adv-x="1100" 
d="M1100 1200q100 0 100 -150q0 -200 -200 -200h-50v-850h-150v100q-100 -100 -250 -100q-400 0 -400 400v600h150v-600q0 -250 250 -250t250 250v600h150v-50h50q100 0 100 100q-100 0 -100 75t100 75z" />
    <glyph glyph-name="acute" unicode="&#x301;" 
d="M-50 1300l200 400h150l-250 -400h-100z" />
    <glyph glyph-name="grave" unicode="&#x300;" 
d="M-50 1300l-300 350h150l250 -350h-100z" />
    <glyph glyph-name="hookabove" unicode="&#x309;" 
d="M50 1500q100 49 100 100q0 100 -125 100t-125 -50h-100q0 150 225 150t225 -200q0 -101 -100 -150l-50 -25q-50 -26 -50 -125h-100q0 151 100 200z" />
    <glyph glyph-name="tilde" unicode="&#x303;" 
d="M150 1300q-98 0 -175 50t-125 50q-49 0 -49 -100h-101q0 200 150 200q98 0 175 -50t125 -50q50 0 50 100h100q0 -200 -150 -200z" />
    <glyph glyph-name="dotbelow" unicode="&#x323;" 
d="M-75 -500h151v-150h-151v150z" />
    <glyph glyph-name="Odotbelow" unicode="&#x1ecc;" horiz-adv-x="1300" 
d="M150 650q0 650 500 650t500 -650t-500 -650t-500 650zM300 650q0 -500 350 -500t350 500t-350 500t-350 -500zM575 -150h150v-150h-150v150z" />
    <glyph glyph-name="odotbelow" unicode="&#x1ecd;" horiz-adv-x="1100" 
d="M550 1000q400 0 400 -500t-400 -500t-400 500t400 500zM550 150q250 0 250 350t-250 350t-250 -350t250 -350zM475 -150h150v-150h-150v150z" />
    <glyph glyph-name="Ohookabove" unicode="&#x1ece;" horiz-adv-x="1300" 
d="M150 650q0 650 500 650t500 -650t-500 -650t-500 650zM300 650q0 -500 350 -500t350 500t-350 500t-350 -500zM700 1600q100 49 100 100q0 100 -125 100t-125 -50h-100q0 150 225 150t225 -200q0 -101 -100 -150l-50 -25q-50 -26 -50 -125h-100q0 151 100 200z" />
    <glyph glyph-name="ohookabove" unicode="&#x1ecf;" horiz-adv-x="1100" 
d="M551 1001q400 0 400 -500q-2 -500 -401 -500h-2q-397 0 -397 496v4q0 500 400 500zM550 150q250 0 250 350v4q0 346 -250 346t-250 -350t250 -350zM600 1350q100 49 100 100q0 100 -125 100t-125 -50h-100q0 150 225 150t225 -200q0 -101 -100 -150l-50 -25
q-50 -26 -50 -125h-100q0 151 100 200z" />
    <glyph glyph-name="Ocircumflexacute" unicode="&#x1ed0;" horiz-adv-x="1300" 
d="M150 650q0 650 500 650t500 -650t-500 -650t-500 650zM300 650q0 -500 350 -500t350 500t-350 500t-350 -500zM850 1401l-200 199l-201 -199h-100l301 399l300 -399h-100zM900 1600h-100l200 400h150z" />
    <glyph glyph-name="ocircumflexacute" unicode="&#x1ed1;" horiz-adv-x="1100" 
d="M551 1001q400 0 400 -500q-2 -500 -401 -500h-2q-397 0 -397 496v4q0 500 400 500zM550 150q250 0 250 350v4q0 346 -250 346t-250 -350t250 -350zM751 1151l-200 199l-201 -199h-100l301 399l300 -399h-100zM800 1390h-100l200 400h150z" />
    <glyph glyph-name="Ocircumflexgrave" unicode="&#x1ed2;" horiz-adv-x="1300" 
d="M150 650q0 650 500 650t500 -650t-500 -650t-500 650zM300 650q0 -500 350 -500t350 500t-350 500t-350 -500zM850 1401l-200 199l-201 -199h-100l301 399l300 -399h-100zM1050 1600h-100l-300 350h150z" />
    <glyph glyph-name="ocircumflexgrave" unicode="&#x1ed3;" horiz-adv-x="1100" 
d="M551 1001q400 0 400 -500q-2 -500 -401 -500h-2q-397 0 -397 496v4q0 500 400 500zM550 150q250 0 250 350v4q0 346 -250 346t-250 -350t250 -350zM751 1151l-200 199l-201 -199h-100l301 399l300 -399h-100zM1000 1350h-100l-300 350h150z" />
    <glyph glyph-name="Ocircumflexhookabove" unicode="&#x1ed4;" horiz-adv-x="1300" 
d="M150 650q0 650 500 650t500 -650t-500 -650t-500 650zM300 650q0 -500 350 -500t350 500t-350 500t-350 -500zM850 1401l-200 199l-201 -199h-100l301 399l300 -399h-100zM950 1800q100 49 100 100q0 100 -125 100t-125 -50h-100q0 150 225 150t225 -200
q0 -101 -100 -150l-50 -25q-50 -26 -50 -125h-100q0 151 100 200z" />
    <glyph glyph-name="ocircumflexhookabove" unicode="&#x1ed5;" horiz-adv-x="1100" 
d="M551 1001q400 0 400 -500q-2 -500 -401 -500h-2q-397 0 -397 496v4q0 500 400 500zM550 150q250 0 250 350v4q0 346 -250 346t-250 -350t250 -350zM751 1151l-200 199l-201 -199h-100l301 399l300 -399h-100zM850 1550q100 49 100 100q0 100 -125 100t-125 -50h-100
q0 150 225 150t225 -200q0 -101 -100 -150l-50 -25q-50 -26 -50 -125h-100q0 151 100 200z" />
    <glyph glyph-name="Ocircumflextilde" unicode="&#x1ed6;" horiz-adv-x="1300" 
d="M150 650q0 650 500 650t500 -650t-500 -650t-500 650zM300 650q0 -500 350 -500t350 500t-350 500t-350 -500zM850 1401l-200 199l-201 -199h-100l301 399l300 -399h-100zM796 1850q-98 0 -175 50t-125 50q-49 0 -49 -100h-101q0 200 150 200q98 0 175 -50t125 -50
q50 0 50 100h100q0 -200 -150 -200z" />
    <glyph glyph-name="ocircumflextilde" unicode="&#x1ed7;" horiz-adv-x="1100" 
d="M551 1001q400 0 400 -500q-2 -500 -401 -500h-2q-397 0 -397 496v4q0 500 400 500zM550 150q250 0 250 350v4q0 346 -250 346t-250 -350t250 -350zM751 1151l-200 199l-201 -199h-100l301 399l300 -399h-100zM706 1600q-98 0 -175 50t-125 50q-49 0 -49 -100h-101
q0 200 150 200q98 0 175 -50t125 -50q50 0 50 100h100q0 -200 -150 -200z" />
    <glyph glyph-name="Ocircumflexdotbelow" unicode="&#x1ed8;" horiz-adv-x="1300" 
d="M150 650q0 650 500 650t500 -650t-500 -650t-500 650zM300 650q0 -500 350 -500t350 500t-350 500t-350 -500zM850 1401l-200 199l-201 -199h-100l301 399l300 -399h-100zM575 -150h150v-150h-150v150z" />
    <glyph glyph-name="ocircumflexdotbelow" unicode="&#x1ed9;" horiz-adv-x="1100" 
d="M551 1001q400 0 400 -500q-2 -500 -401 -500h-2q-397 0 -397 496v4q0 500 400 500zM550 150q250 0 250 350v4q0 346 -250 346t-250 -350t250 -350zM751 1151l-200 199l-201 -199h-100l301 399l300 -399h-100zM475 -150h150v-150h-150v150z" />
    <glyph glyph-name="Ohornacute" unicode="&#x1eda;" horiz-adv-x="1300" 
d="M1113 1451q100 0 100 -150q0 -191 -180 -201l-69 101h53q95 0 97 99q-100 0 -101 76q0 75 100 75zM150 650q0 650 500 650t500 -650t-500 -650t-500 650zM300 650q0 -500 350 -500t350 500t-350 500t-350 -500zM600 1400h-100l200 400h150z" />
    <glyph glyph-name="ohornacute" unicode="&#x1edb;" horiz-adv-x="1100" 
d="M550 1000q400 0 400 -500t-400 -500t-400 500t400 500zM550 150q250 0 250 350t-250 350t-250 -350t250 -350zM953 1151q100 0 100 -150q0 -191 -180 -201l-69 101h53q95 0 97 99q-100 0 -101 76q0 75 100 75zM500 1150h-100l200 400h150z" />
    <glyph glyph-name="Ohorngrave" unicode="&#x1edc;" horiz-adv-x="1300" 
d="M1113 1451q100 0 100 -150q0 -191 -180 -201l-69 101h53q95 0 97 99q-100 0 -101 76q0 75 100 75zM150 650q0 650 500 650t500 -650t-500 -650t-500 650zM300 650q0 -500 350 -500t350 500t-350 500t-350 -500zM700 1400l-300 350h150l250 -350h-100z" />
    <glyph glyph-name="ohorngrave" unicode="&#x1edd;" horiz-adv-x="1100" 
d="M550 1000q400 0 400 -500t-400 -500t-400 500t400 500zM550 150q250 0 250 350t-250 350t-250 -350t250 -350zM953 1151q100 0 100 -150q0 -191 -180 -201l-69 101h53q95 0 97 99q-100 0 -101 76q0 75 100 75zM700 1150h-100l-300 350h150z" />
    <glyph glyph-name="Ohornhookabove" unicode="&#x1ede;" horiz-adv-x="1300" 
d="M1113 1451q100 0 100 -150q0 -191 -180 -201l-69 101h53q95 0 97 99q-100 0 -101 76q0 75 100 75zM150 650q0 650 500 650t500 -650t-500 -650t-500 650zM300 650q0 -500 350 -500t350 500t-350 500t-350 -500zM700 1600q100 49 100 100q0 100 -125 100t-125 -50h-100
q0 150 225 150t225 -200q0 -101 -100 -150l-50 -25q-50 -26 -50 -125h-100q0 151 100 200z" />
    <glyph glyph-name="ohornhookabove" unicode="&#x1edf;" horiz-adv-x="1100" 
d="M550 1000q400 0 400 -500t-400 -500t-400 500t400 500zM550 150q250 0 250 350t-250 350t-250 -350t250 -350zM953 1151q100 0 100 -150q0 -191 -180 -201l-69 101h53q95 0 97 99q-100 0 -101 76q0 75 100 75zM600 1350q100 49 100 100q0 100 -125 100t-125 -50h-100
q0 150 225 150t225 -200q0 -101 -100 -150l-50 -25q-50 -26 -50 -125h-100q0 151 100 200z" />
    <glyph glyph-name="Ohorntilde" unicode="&#x1ee0;" horiz-adv-x="1300" 
d="M1113 1451q100 0 100 -150q0 -191 -180 -201l-69 101h53q95 0 97 99q-100 0 -101 76q0 75 100 75zM150 650q0 650 500 650t500 -650t-500 -650t-500 650zM300 650q0 -500 350 -500t350 500t-350 500t-350 -500zM796 1450q-98 0 -175 50t-125 50q-49 0 -49 -100h-101
q0 200 150 200q98 0 175 -50t125 -50q50 0 50 100h100q0 -200 -150 -200z" />
    <glyph glyph-name="ohorntilde" unicode="&#x1ee1;" horiz-adv-x="1100" 
d="M550 1000q400 0 400 -500t-400 -500t-400 500t400 500zM550 150q250 0 250 350t-250 350t-250 -350t250 -350zM953 1151q100 0 100 -150q0 -191 -180 -201l-69 101h53q95 0 97 99q-100 0 -101 76q0 75 100 75zM696 1200q-98 0 -175 50t-125 50q-49 0 -49 -100h-101
q0 200 150 200q98 0 175 -50t125 -50q50 0 50 100h100q0 -200 -150 -200z" />
    <glyph glyph-name="Ohorndotbelow" unicode="&#x1ee2;" horiz-adv-x="1300" 
d="M1113 1451q100 0 100 -150q0 -191 -180 -201l-69 101h53q95 0 97 99q-100 0 -101 76q0 75 100 75zM150 650q0 650 500 650t500 -650t-500 -650t-500 650zM300 650q0 -500 350 -500t350 500t-350 500t-350 -500zM575 -150h150v-150h-150v150z" />
    <glyph glyph-name="ohorndotbelow" unicode="&#x1ee3;" horiz-adv-x="1100" 
d="M953 1151q100 0 100 -150q0 -179 -159 -199q56 -117 56 -302q0 -500 -400 -500t-400 500t400 500q178 0 276 -99h31q95 0 97 99q-100 0 -101 76q0 75 100 75zM550 150q250 0 250 350t-250 350t-250 -350t250 -350zM475 -150h150v-150h-150v150z" />
    <glyph glyph-name="Udotbelow" unicode="&#x1ee4;" horiz-adv-x="1200" 
d="M600 0q-450 0 -450 400v900h150v-900q0 -250 300 -250t300 250v900h150v-900q0 -400 -450 -400zM525 -150h150v-150h-150v150z" />
    <glyph glyph-name="udotbelow" unicode="&#x1ee5;" horiz-adv-x="1100" 
d="M550 150q250 0 250 250v600h150v-1000h-150v100q-100 -100 -250 -100q-400 0 -400 400v600h150v-600q0 -250 250 -250zM475 -150h150v-150h-150v150z" />
    <glyph glyph-name="Uhookabove" unicode="&#x1ee6;" horiz-adv-x="1200" 
d="M600 0q-450 0 -450 400v900h150v-900q0 -250 300 -250t300 250v900h150v-900q0 -400 -450 -400zM650 1600q100 49 100 100q0 100 -125 100t-125 -50h-100q0 150 225 150t225 -200q0 -101 -100 -150l-50 -25q-50 -26 -50 -125h-100q0 151 100 200z" />
    <glyph glyph-name="uhookabove" unicode="&#x1ee7;" horiz-adv-x="1100" 
d="M550 150q250 0 250 250v600h150v-1000h-150v100q-100 -100 -250 -100q-400 0 -400 400v600h150v-600q0 -250 250 -250zM600 1350q100 49 100 100q0 100 -125 100t-125 -50h-100q0 150 225 150t225 -200q0 -101 -100 -150l-50 -25q-50 -26 -50 -125h-100q0 151 100 200z
" />
    <glyph glyph-name="Uhornacute" unicode="&#x1ee8;" horiz-adv-x="1200" 
d="M1200 1500q100 0 100 -150q0 -200 -200 -200h-50v-750q0 -400 -450 -400t-450 400v900h150v-900q0 -250 300 -250t300 250v900h150v-50h50q100 0 100 100q-100 0 -100 75t100 75zM550 1400h-100l200 400h150z" />
    <glyph glyph-name="uhornacute" unicode="&#x1ee9;" horiz-adv-x="1100" 
d="M1100 1200q100 0 100 -150q0 -200 -200 -200h-50v-850h-150v100q-100 -100 -250 -100q-400 0 -400 400v600h150v-600q0 -250 250 -250t250 250v600h150v-50h50q100 0 100 100q-100 0 -100 75t100 75zM500 1150h-100l200 400h150z" />
    <glyph glyph-name="Uhorngrave" unicode="&#x1eea;" horiz-adv-x="1200" 
d="M1200 1500q100 0 100 -150q0 -200 -200 -200h-50v-750q0 -400 -450 -400t-450 400v900h150v-900q0 -250 300 -250t300 250v900h150v-50h50q100 0 100 100q-100 0 -100 75t100 75zM700 1400l-300 350h150l250 -350h-100z" />
    <glyph glyph-name="uhorngrave" unicode="&#x1eeb;" horiz-adv-x="1100" 
d="M1100 1200q100 0 100 -150q0 -200 -200 -200h-50v-850h-150v100q-100 -100 -250 -100q-400 0 -400 400v600h150v-600q0 -250 250 -250t250 250v600h150v-50h50q100 0 100 100q-100 0 -100 75t100 75zM700 1150h-100l-300 350h150z" />
    <glyph glyph-name="Uhornhookabove" unicode="&#x1eec;" horiz-adv-x="1200" 
d="M1200 1500q100 0 100 -150q0 -200 -200 -200h-50v-750q0 -400 -450 -400t-450 400v900h150v-900q0 -250 300 -250t300 250v900h150v-50h50q100 0 100 100q-100 0 -100 75t100 75zM650 1600q100 49 100 100q0 100 -125 100t-125 -50h-100q0 150 225 150t225 -200
q0 -101 -100 -150l-50 -25q-50 -26 -50 -125h-100q0 151 100 200z" />
    <glyph glyph-name="uhornhookabove" unicode="&#x1eed;" horiz-adv-x="1100" 
d="M1100 1200q100 0 100 -150q0 -200 -200 -200h-50v-850h-150v100q-100 -100 -250 -100q-400 0 -400 400v600h150v-600q0 -250 250 -250t250 250v600h150v-50h50q100 0 100 100q-100 0 -100 75t100 75zM600 1350q100 49 100 100q0 100 -125 100t-125 -50h-100
q0 150 225 150t225 -200q0 -101 -100 -150l-50 -25q-50 -26 -50 -125h-100q0 151 100 200z" />
    <glyph glyph-name="Uhorntilde" unicode="&#x1eee;" horiz-adv-x="1200" 
d="M1200 1500q100 0 100 -150q0 -200 -200 -200h-50v-750q0 -400 -450 -400t-450 400v900h150v-900q0 -250 300 -250t300 250v900h150v-50h50q100 0 100 100q-100 0 -100 75t100 75zM796 1450q-98 0 -175 50t-125 50q-49 0 -49 -100h-101q0 200 150 200q98 0 175 -50
t125 -50q50 0 50 100h100q0 -200 -150 -200z" />
    <glyph glyph-name="uhorntilde" unicode="&#x1eef;" horiz-adv-x="1100" 
d="M1100 1200q100 0 100 -150q0 -200 -200 -200h-50v-850h-150v100q-100 -100 -250 -100q-400 0 -400 400v600h150v-600q0 -250 250 -250t250 250v600h150v-50h50q100 0 100 100q-100 0 -100 75t100 75zM696 1200q-98 0 -175 50t-125 50q-49 0 -49 -100h-101q0 200 150 200
q98 0 175 -50t125 -50q50 0 50 100h100q0 -200 -150 -200z" />
    <glyph glyph-name="Uhorndotbelow" unicode="&#x1ef0;" horiz-adv-x="1200" 
d="M1200 1500q100 0 100 -150q0 -200 -200 -200h-50v-750q0 -400 -450 -400t-450 400v900h150v-900q0 -250 300 -250t300 250v900h150v-50h50q100 0 100 100q-100 0 -100 75t100 75zM525 -150h150v-150h-150v150z" />
    <glyph glyph-name="uhorndotbelow" unicode="&#x1ef1;" horiz-adv-x="1100" 
d="M1100 1200q100 0 100 -150q0 -200 -200 -200h-50v-850h-150v100q-100 -100 -250 -100q-400 0 -400 400v600h150v-600q0 -250 250 -250t250 250v600h150v-50h50q100 0 100 100q-100 0 -100 75t100 75zM475 -150h150v-150h-150v150z" />
    <glyph glyph-name="Ygrave" unicode="&#x1ef2;" horiz-adv-x="1101" 
d="M65 1300h176l309 -509l322 509h176l-423 -670v-630h-149v629zM650 1400l-300 350h150l250 -350h-100z" />
    <glyph glyph-name="ygrave" unicode="&#x1ef3;" horiz-adv-x="1100" 
d="M258 -400l209 489l-377 911h162l298 -716l306 716h163l-598 -1400h-163zM700 1150h-100l-300 350h150z" />
    <glyph glyph-name="Ydotbelow" unicode="&#x1ef4;" horiz-adv-x="1101" 
d="M65 1300h176l309 -509l322 509h176l-423 -670v-630h-149v629zM475 -150h150v-150h-150v150z" />
    <glyph glyph-name="ydotbelow" unicode="&#x1ef5;" horiz-adv-x="1100" 
d="M258 -400l209 489l-377 911h162l298 -716l306 716h163l-598 -1400h-163zM585 -250h150v-150h-150v150z" />
    <glyph glyph-name="Yhookabove" unicode="&#x1ef6;" horiz-adv-x="1101" 
d="M65 1300h176l309 -509l322 509h176l-423 -670v-630h-149v629zM600 1600q100 49 100 100q0 100 -125 100t-125 -50h-100q0 150 225 150t225 -200q0 -101 -100 -150l-50 -25q-50 -26 -50 -125h-100q0 151 100 200z" />
    <glyph glyph-name="yhookabove" unicode="&#x1ef7;" horiz-adv-x="1100" 
d="M258 -400l209 489l-377 911h162l298 -716l306 716h163l-598 -1400h-163zM600 1350q100 49 100 100q0 100 -125 100t-125 -50h-100q0 150 225 150t225 -200q0 -101 -100 -150l-50 -25q-50 -26 -50 -125h-100q0 151 100 200z" />
    <glyph glyph-name="Ytilde" unicode="&#x1ef8;" horiz-adv-x="1101" 
d="M65 1300h176l309 -509l322 509h176l-423 -670v-630h-149v629zM696 1450q-98 0 -175 50t-125 50q-49 0 -49 -100h-101q0 200 150 200q98 0 175 -50t125 -50q50 0 50 100h100q0 -200 -150 -200z" />
    <glyph glyph-name="ytilde" unicode="&#x1ef9;" horiz-adv-x="1100" 
d="M258 -400l209 489l-377 911h162l298 -716l306 716h163l-598 -1400h-163zM696 1200q-98 0 -175 50t-125 50q-49 0 -49 -100h-101q0 200 150 200q98 0 175 -50t125 -50q50 0 50 100h100q0 -200 -150 -200z" />
    <glyph glyph-name="dong" unicode="&#x20ab;" horiz-adv-x="1050" 
d="M501 1300q155 0 250 -74v175h-199v149h199v100h150v-100h100v-149h-100v-1101h-150v76q-96 -75 -250 -76q-400 0 -400 500t400 500zM501 450q249 0 250 350q0 350 -249 350q-251 0 -251 -350t250 -350zM152 1v149h749v-149h-749z" />
    <glyph glyph-name="Amacron" unicode="&#x100;" horiz-adv-x="1100" 
d="M1062 0h-157l-127 400h-451l-123 -400h-156l402 1300h200zM731 550l-181 574l-176 -574h357zM900 1500h-700v100h700v-100z" />
    <glyph glyph-name="amacron" unicode="&#x101;" horiz-adv-x="1050" 
d="M100 300q0 350 550 350h101v51q0 150 -251 150q-161 0 -349 -50v150q189 50 350 50q400 0 400 -300v-700h-150v159l-13 -10q-188 -150 -338 -150q-300 0 -300 300zM651 500q-400 0 -400 -200q0 -149 150 -149q99 0 224 99l125 100l1 -3v153h-100zM900 1200h-700v100h700
v-100z" />
    <glyph glyph-name="Imacron" unicode="&#x12a;" horiz-adv-x="650" 
d="M250 150v1000h-150v150h450v-150h-150v-1000h150v-150h-450v150h150zM650 1500h-650v100h650v-100z" />
    <glyph glyph-name="imacron" unicode="&#x12b;" horiz-adv-x="450" 
d="M150 1000h150v-1000h-150v1000zM500 1200h-550v100h550v-100z" />
    <glyph glyph-name="Sacute" unicode="&#x15a;" horiz-adv-x="1100" 
d="M551 151q248 0 250 249q0 200 -246 200h-4q-401 0 -401 350q0 351 400 351q251 0 351 -100v-201q-101 150 -350 150q-250 0 -250 -200t250 -200h3q396 0 396 -349q0 -400 -399 -401q-253 0 -401 100v200q152 -149 401 -149zM550 1400h-100l200 400h150z" />
    <glyph glyph-name="sacute" unicode="&#x15b;" horiz-adv-x="1050" 
d="M551 151q249 0 249 135q0 134 -249 134q-401 0 -401 290q0 291 400 291q251 0 351 -100v-201q-101 150 -350 150q-250 0 -250 -140t250 -140q399 0 399 -285t-399 -285q-253 0 -401 100v200q152 -149 401 -149zM500 1150h-100l200 400h150z" />
    <glyph glyph-name="Umacron" unicode="&#x16a;" horiz-adv-x="1200" 
d="M600 0q-450 0 -450 400v900h150v-900q0 -250 300 -250t300 250v900h150v-900q0 -400 -450 -400zM950 1500h-700v100h700v-100z" />
    <glyph glyph-name="umacron" unicode="&#x16b;" horiz-adv-x="1100" 
d="M550 150q250 0 250 250v600h150v-1000h-150v100q-100 -100 -250 -100q-400 0 -400 400v600h150v-600q0 -250 250 -250zM900 1200h-700v100h700v-100z" />
    <glyph glyph-name="Ddotbelow" unicode="&#x1e0c;" horiz-adv-x="1150" 
d="M1050 650q0 -650 -500 -650h-400v1300h400q500 0 500 -650zM900 650q0 500 -350 500h-250v-1000h250q350 0 350 500zM525 -150h150v-150h-150v150z" />
    <glyph glyph-name="ddotbelow" unicode="&#x1e0d;" horiz-adv-x="1050" 
d="M500 1000q155 0 250 -74v374h150v-1300h-150v76q-96 -75 -250 -76q-400 0 -400 500t400 500zM500 150q250 0 250 350t-249 350q-251 0 -251 -350t250 -350zM475 -150h150v-150h-150v150z" />
    <glyph glyph-name="Hdotbelow" unicode="&#x1e24;" horiz-adv-x="1100" 
d="M800 650h-500v-650h-150v1300h150v-500h500v500h150v-1300h-150v650zM475 -150h150v-150h-150v150z" />
    <glyph glyph-name="hdotbelow" unicode="&#x1e25;" horiz-adv-x="1100" 
d="M300 900q100 100 250 100q400 0 400 -400v-600h-150v600q0 250 -250 250t-250 -250v-600h-150v1300h150v-400zM475 -150h150v-150h-150v150z" />
    <glyph glyph-name="Ldotbelow" unicode="&#x1e36;" horiz-adv-x="900" 
d="M150 1300h150v-1150h500v-150h-650v1300zM405 -150h150v-150h-150v150z" />
    <glyph glyph-name="ldotbelow" unicode="&#x1e37;" horiz-adv-x="450" 
d="M150 1300h150v-1300h-150v1300zM150 -150h150v-150h-150v150z" />
    <glyph glyph-name="Ldotbelowmacron" unicode="&#x1e38;" horiz-adv-x="900" 
d="M150 1300h150v-1150h500v-150h-650v1300zM405 -150h150v-150h-150v150zM800 1500h-650v100h650v-100z" />
    <glyph glyph-name="ldotbelowmacron" unicode="&#x1e39;" horiz-adv-x="450" 
d="M500 1500h-550v100h550v-100zM150 1300h150v-1300h-150v1300zM150 -150h150v-150h-150v150z" />
    <glyph glyph-name="Mdotabove" unicode="&#x1e40;" horiz-adv-x="1300" 
d="M1000 1003l-350 -603l-350 603v-1003h-150v1300h150l350 -601l350 601h150v-1300h-150v1003zM725 1450h-150v150h150v-150z" />
    <glyph glyph-name="mdotabove" unicode="&#x1e41;" horiz-adv-x="1550" 
d="M300 913q84 87 200 87q215 0 298 -153q97 153 252 153q350 0 350 -400v-600h-150v600q0 250 -200 250t-200 -250v-600h-150v600q0 250 -200 250t-200 -250v-600h-150v1000h150v-87zM851 1200h-150v150h150v-150z" />
    <glyph glyph-name="Mdotbelow" unicode="&#x1e42;" horiz-adv-x="1300" 
d="M1000 1003l-350 -603l-350 603v-1003h-150v1300h150l350 -601l350 601h150v-1300h-150v1003zM725 -300h-150v150h150v-150z" />
    <glyph glyph-name="mdotbelow" unicode="&#x1e43;" horiz-adv-x="1550" 
d="M300 913q84 87 200 87q215 0 298 -153q97 153 252 153q350 0 350 -400v-600h-150v600q0 250 -200 250t-200 -250v-600h-150v600q0 250 -200 250t-200 -250v-600h-150v1000h150v-87zM851 -300h-150v150h150v-150z" />
    <glyph glyph-name="Ndotabove" unicode="&#x1e44;" horiz-adv-x="1100" 
d="M300 976v-976h-150v1300h151l499 -972v972h150v-1300h-151zM625 1450h-150v150h150v-150z" />
    <glyph glyph-name="ndotabove" unicode="&#x1e45;" horiz-adv-x="1100" 
d="M300 900q100 100 250 100q400 0 400 -400v-600h-150v600q0 250 -250 250t-250 -250v-600h-150v1000h150v-100zM631 1200h-150v150h150v-150z" />
    <glyph glyph-name="Ndotbelow" unicode="&#x1e46;" horiz-adv-x="1100" 
d="M300 976v-976h-150v1300h151l499 -972v972h150v-1300h-151zM625 -300h-150v150h150v-150z" />
    <glyph glyph-name="ndotbelow" unicode="&#x1e47;" horiz-adv-x="1100" 
d="M300 900q100 100 250 100q400 0 400 -400v-600h-150v600q0 250 -250 250t-250 -250v-600h-150v1000h150v-100zM631 -300h-150v150h150v-150z" />
    <glyph glyph-name="Rdotbelow" unicode="&#x1e5a;" horiz-adv-x="1100" 
d="M500 1300q450 0 450 -400q0 -289 -236 -370l387 -530h-186l-365 501q-1 -1 -12 -1h-238v-500h-150v1300h350zM800 900q0 250 -300 250h-200v-500h200q300 0 300 250zM625 -300h-150v150h150v-150z" />
    <glyph glyph-name="rdotbelow" unicode="&#x1e5b;" horiz-adv-x="700" 
d="M300 888q115 112 300 112h100v-150h-100q-300 0 -300 -250v-600h-150v1000h150v-112zM150 -150h150v-150h-150v150z" />
    <glyph glyph-name="Rdotbelowmaron" unicode="&#x1e5c;" horiz-adv-x="1100" 
d="M500 1300q450 0 450 -400q0 -289 -236 -370l387 -530h-186l-365 501q-1 -1 -12 -1h-238v-500h-150v1300h350zM800 900q0 250 -300 250h-200v-500h200q300 0 300 250zM625 -300h-150v150h150v-150zM900 1500h-700v100h700v-100z" />
    <glyph glyph-name="rdotbelowmacron" unicode="&#x1e5d;" horiz-adv-x="700" 
d="M300 888q115 112 300 112h100v-150h-100q-300 0 -300 -250v-600h-150v1000h150v-112zM150 -150h150v-150h-150v150zM700 1200h-550v100h550v-100z" />
    <glyph glyph-name="Sdotbelow" unicode="&#x1e62;" horiz-adv-x="1100" 
d="M551 151q248 0 250 249q0 200 -246 200h-4q-401 0 -401 350q0 351 400 351q251 0 351 -100v-201q-101 150 -350 150q-250 0 -250 -200t250 -200h3q396 0 396 -349q0 -400 -399 -401q-253 0 -401 100v200q152 -149 401 -149zM475 -150h150v-150h-150v150z" />
    <glyph glyph-name="sdotbelow" unicode="&#x1e63;" horiz-adv-x="1050" 
d="M551 151q249 0 249 135q0 134 -249 134q-401 0 -401 290q0 291 400 291q251 0 351 -100v-201q-101 150 -350 150q-250 0 -250 -140t250 -140q399 0 399 -285t-399 -285q-253 0 -401 100v200q152 -149 401 -149zM631 -300h-150v150h150v-150z" />
    <glyph glyph-name="Tdotbelow" unicode="&#x1e6c;" horiz-adv-x="1050" 
d="M50 1150v150h950v-150h-400v-1150h-150v1150h-400zM600 -300h-150v150h150v-150z" />
    <glyph glyph-name="tdotbelow" unicode="&#x1e6d;" horiz-adv-x="601" 
d="M150 1000v300h150v-300h250v-150h-250v-500q0 -200 151 -200h149v-150h-150q-300 0 -300 349v501h-129v150h129zM250 -150h150v-150h-150v150z" />
    <glyph glyph-name="uni1780.sub" 
d="M-1000 -800v438q0 87 175 175q175 87 225 87t159 -55q241 -120 241 -207v-288l-200 -150v394q0 30 -138 100q-139 69 -176 69t-61 -13q-25 -12 -25 -112v-288z" />
    <glyph glyph-name="uni1781.sub" 
d="M-1000 -416v134q0 61 175 122q175 60 225 60t159 -38q241 -83 241 -199q0 -30 -300 -155l-300 -125q0 -49 25 -58q24 -9 61 -9t176 38q138 39 138 60v30l200 122v-183q0 -61 -241 -144q-109 -39 -159 -39t-225 61t-175 122v79q200 0 400 85q200 86 200 116q0 45 -138 85
q-139 39 -176 39t-61 -9q-25 -9 -25 -78q100 0 100 -28.5t-100 -82.5t-155 -54q-45 0 -45 49z" />
    <glyph glyph-name="uni1782.sub" 
d="M-1000 -362q0 87 175 175q175 87 225 87t159 -55q241 -120 241 -207v-288l-200 -150v394q0 30 -138 100q-139 69 -176 69t-61 -13q-25 -12 -25 -112v-239q65 151 162 151q43 0 91 -35q47 -36 47 -100q0 -65 -100 -110q-18 45 -75 45q-58 0 -125 -60l-100 -90l-100 100
v338z" />
    <glyph glyph-name="uni1783.sub" horiz-adv-x="600" 
d="M200 860q0 60 -142 80q-48 6 -48 46t25 100l165 414h300q0 -122 -26 -207q-27 -86 -90 -123q16 61 16 96q0 34 -50 34h-133l-69 -173q126 -23 189 -74q63 -50 63 -129v-1504q0 -70 -176 -145.5t-225 -75.5t-157 45q-75 31 -127 59q-31 -17 -71 -33q-173 -71 -222 -71
t-157 45q-118 48 -178 90q-59 41 -90 108q31 10 40.5 24t9.5 35v169q140 10 186 50q45 39 45 53t-26.5 29t-60.5 15q-48 0 -48 -24q0 -32 58 -35q1 -43 -124 -41q-126 2 -126 79q0 35 58 70q57 35 134 35q116 0 178.5 -31.5t62.5 -87.5t-39 -119q-38 -63 -106 -113v-63
q0 -28 -19 -43q0 -23 139 -78q144 -56 180 -56q37 0 60 10q25 10 25 90v112q0 43 -137 57q-46 4 -46 32t24 70l130 220h288q0 -85 -11 -110t-71 -72q15 42 -62 42h-128l-37 -51q121 -16 181 -52q61 -35 61 -91v-144q33 -23 119 -57q144 -56 181 -56q36 0 60 10t24 90v1450z
" />
    <glyph glyph-name="uni1784.sub" 
d="M-820 -190q-80 0 -130 -57t-50 -184t100 -223t150 -96q150 0 307 174l94 104q192 222 249 222q-30 100 -130 100t-271 -200l-86 -100q-86 -100 -163 -100q-94 0 -122 23t50 125l39 51q39 50 177 49q-86 112 -214 112z" />
    <glyph glyph-name="uni1785.sub" 
d="M-329 -390q1 40 -52 40q-74 0 -74 -55q0 -36 76 -72q50 51 50 87zM-282 -513q4 -1 8 -3l91 -28q62 -19 62 -60q0 -19 -14 -44q-43 -77 -122 -52q-99 31 -164 61q-43 -30 -90 -53q-119 -58 -212 -58q-94 0 -185 53q-92 52 -92 197q0 90 150 220l150 130q100 0 0 -160
q-101 -160 -100 -190q0 -55 37 -76q36 -21 177 7q28 6 52 12l-2 2q-42 73 -43 164t57 166t140 75q182 0 182 -137q0 -127 -82 -226z" />
    <glyph glyph-name="uni1786.sub" 
d="M-400 -258q-70 -14 -70 -41q0 -28 40 -28h30v69zM-997 -530l-53 -32l53 -47v79zM-1095 -716q-95 46 -95 122q0 38 50 64l140 73v155q0 45 -122 60q-48 5 -48 35q0 31 25 76l113 31q106 -17 169 -55q63 -39 63 -99v-188q138 0 206 -47q69 -48 69 -112q0 -46 70 -46
q55 0 55 46v159h-30q-47 0 -81 8q-33 8 -51 23q-38 30 -38 83q0 77 124.5 152.5t170.5 75.5q105 0 105 -76v-425q0 -84 -64 -141q-63 -57 -191 -57q-107 0 -161 67q-54 66 -54 131q0 26 -32 55q-33 28 -98 28v-220l-77 -61l-128 -1q-17 48 -90 84z" />
    <glyph glyph-name="uni1787.sub" 
d="M-400 -320v71q0 32 -40 32q-40 -1 -40 -43q0 -39 80 -60zM-200 -354q100 -34 100 -128q-51 26 -100 43v-211q0 -54 -51 -102t-149 -48q-117 0 -156 44l-118 131l-79 -87q-79 -88 -113 -88t-84 47t-50 103v363l200 187v-542l200 223l200 -223v238q-250 31 -250 146
q0 158 225 158q125 0 175 -46.5t50 -98.5v-109z" />
    <glyph glyph-name="uni1788.sub" horiz-adv-x="600" 
d="M-925 -667q66 32 66 64q0 26 -30 26h-36v-90zM200 860q0 60 -142 80q-48 6 -48 46t25 100l165 414h300q0 -122 -26 -207q-27 -86 -90 -123q16 61 16 96q0 34 -50 34h-133l-69 -173q126 -23 189 -74q63 -50 63 -129v-1424q0 -172 -145 -236q-144 -64 -183 -64
q-36 0 -118 41q-58 28 -99 53q-23 -15 -53 -30q-134 -64 -172 -64q-37 0 -120 41q-90 43 -136 81t-70 98q24 9 31.5 22t7.5 32v299h-419l-20 -53q78 -14 124 -46q47 -33 47 -83v-72h36q111 0 111 -96q0 -98 -187 -223l-108 85v265q0 39 -90 51q-37 4 -37 30q0 25 20 63
l93 206h577v-439q0 -25 -14 -38q0 -21 106 -72q111 -51 139 -51t46 10q19 9 19 81v134q0 38 -105 51q-36 4 -36 29q0 26 20 64l98 231h223q0 -77 -20 -131q-20 -55 -37.5 -47.5t-17.5 30.5q0 21 -37 21h-97l-29 -78q93 -15 139 -47q47 -32 47 -82v-163q24 -21 91 -52
q110 -51 137 -51q38 0 38 150v1410z" />
    <glyph glyph-name="uni1789.sub" 
d="M-1036 -499q-12 18 -12 47q0 10 1 21q5 43 33 106q55 125 194 125q122 0 268.5 -150t226.5 -150q54 0 54 45t-33 85q-35 39 -117 40l125 150q150 -60 150 -180t-53 -180t-125 -60q-253 0 -389 140t-196 140q-61 0 -127 -179z" />
    <glyph glyph-name="uni1789.sub.alt" 
d="M-1270 -570q81 44 81 75q0 20 -36 20h-45v-95zM-1448 -400q0 30 -109 40q-43 3 -43 23t23 50l129 187h268q62 0 62 -65q67 65 143 65h240v-100q130 100 277 100h258v-500l-100 -56q-33 -19 -56 -19q-22 0 -22 20v455h-107q-145 0 -250 -75v-325l-99 -56q-34 -19 -57 -19
q-22 0 -22 20v455h-89q-79 0 -186 -81l7 21q18 60 -35 60h-217l-43 -66q94 -12 150 -37t56 -65v-32h45q134 0 134 -75t-117 -140l-111 -62l-129 53v224zM-1456 -849q-36 24 59 87q94 62 252 62t391 -75t327 -75t94 23q0 22 -36 42t-125 20l134 75q160 -30 160 -90t-56 -90
q-57 -30 -170 -30q-298 0 -491 62q-249 78 -305 78q-92 0 -163 -44z" />
    <glyph glyph-name="uni178a.sub" 
d="M-800 -555v-46q50 36 40 52t-40 -6zM-1000 -362q0 87 175 175q175 87 225 87t159 -55q241 -120 241 -207v-288l-200 -150v394q0 30 -138 100q-139 69 -176 69t-61 -13q-25 -12 -25 -112v-98q63 31 111 -5q49 -35 49 -85t-90 -150t-150 -100q-59 0 -120 60v378z" />
    <glyph glyph-name="uni178b.sub" 
d="M-376 -300h-424v-242l200 193l130 -151q50 0 75 80q13 40 19 120zM-270 -200h120q50 0 50 -75t-50 -95q0 70 -50 70l-72 1q-8 -177 -48 -276q-50 -125 -100 -125h-50q-77 0 -116 44l-88 101l-79 -72q-79 -73 -113 -73t-84 47t-50 103v200q0 50 50 100t100 50h479
q1 46 1 100q100 0 100 -100z" />
    <glyph glyph-name="uni178c.sub" 
d="M-400 -215h-60q-89 0 -208 -93l7 23q21 70 -39 70h-182q-34 -46 -3.5 -69.5t213.5 -58.5q-41 -62 -130 -97q-112 14 -155 31q-43 18 -43 101q0 81 50 144l50 64h240q70 0 70 -75q75 75 160 75h230v-236q0 -52 -600 -224v-46q211 -107 306 -72l94 32v91l200 115v-328
q0 -26 -201 -92q-100 -33 -185 -39h-30q-34 0 -66 4l-116 56l148 54q163 -47 207 -32q44 14 44 55v51l-42 -15q-109 -36 -159 -36t-225 43.5t-175 100.5v127q200 0 400 51.5t200 103.5v121z" />
    <glyph glyph-name="uni178d.sub" horiz-adv-x="600" 
d="M-334 -566l-48 -26l48 -38v64zM-704 -660q71 54 71 85q0 19 -34 19h-37v-104zM200 860q0 60 -142 80q-48 6 -48 46t25 100l165 414h300q0 -122 -26 -207q-27 -86 -90 -123q16 61 16 96q0 34 -50 34h-133l-69 -173q126 -23 189 -74q63 -50 63 -129v-1474q0 -100 -59 -175
t-177 -75q-98 0 -148 54q-49 53 -49 98q0 46 -29 69q-31 23 -90 23v-152l-93 -92h-104q-20 33 -75 67q-87 55 -87 116q0 30 46 50l129 59v286h-92q-82 0 -192 -99l7 25q19 74 -36 74h-242l-27 -51q98 -13 156 -44t58 -79v-69h37q69 0 103 -20q35 -20 35 -59q0 -73 -117 -164
l-119 -92h-28l-95 62v303q0 37 -111 49l-1 126l93 159h295q64 0 64 -79q69 79 147 79h249v-395q127 0 189 -37q63 -39 63 -95q0 -50 50 -50t50 78v1460z" />
    <glyph glyph-name="uni178e.sub" 
d="M-1900 -659q90 33 90 54q0 28 -40 28h-50v-82zM-2200 -242l100 142h750v-559l200 161l200 -161v196q0 40 -122 54q-48 4 -48 31t25 67l145 211h750v-666l-51 -34h-149v566h-533l-29 -49q86 -16 149 -49q63 -35 63 -88v-303l-129 -77h-153l-192 153l-192 -153h-134v566
h-533l-29 -49q86 -16 149 -49q63 -35 63 -88v-56h50q150 0 150 -101t-125 -162l-126 -61h-46l-103 68v269q0 36 -100 51v170z" />
    <glyph glyph-name="uni178f.sub" 
d="M-800 -555v-46q50 36 40 52t-40 -6zM-1000 -362q0 87 175 175q175 87 225 87t159 -55q241 -120 241 -207v-288l-200 -150v394q0 30 -138 100q-139 69 -176 69t-61 -13q-25 -12 -25 -112v-98q63 31 111 -5q49 -35 49 -85t-90 -150t-150 -100q-59 0 -120 60v378z" />
    <glyph glyph-name="uni1790.sub" 
d="M-802 -688h-13q-72 0 -126 48q-58 54 -58 177v4q0 126 91 214q91 87 201 94q7 1 13 1q105 0 242 -128l101 -98q206 -209 263 -205q-23 -102 -123 -108h-7q-99 0 -277 182l-92 94q-92 94 -210 96q-90 2 -95 -82q-4 -85 92 -129q96 -43 210 -36q-85 -116 -212 -124z" />
    <glyph glyph-name="uni1791.sub" 
d="M-573 -100q0 -223 -213 -258q-214 -35 -214 -206q0 -102 94 -169t180 -67t206 115l120 115v-280l200 200v450l-200 -200q0 -76 -142 -173q-143 -98 -200 -66q-56 31 -57 82q0 81 200 169q199 88 199 162t-50 100t-123 26z" />
    <glyph glyph-name="uni1792.sub" 
d="M-521 -444q-129 -57 -283 -76q73 -112 160 -111t112 132zM-470 -420l28 -39q66 -88 104 -74q38 13 38 133v97q-78 -69 -170 -117zM-225 -229q25 -35 25 -71q0 -365 -103 -400q-104 -36 -186 54q-102 -154 -238 -154q-137 0 -205 82q-68 81 -68 185q0 103 128 121
q191 26 334 104t238 208l100 -100z" />
    <glyph glyph-name="uni1793.sub" 
d="M-400 -381q-42 -15 -83 -39q-104 -60 -217 -60q-100 0 -100 120q0 100 150 100h250v-121zM-200 -510h26l-26 -50v50zM-200 -260h100l50 100h-600q-175 0 -262 -50q-88 -50 -88 -150q0 -125 75 -187q75 -63 225 -63q55 0 128 50q50 35 173 45l-1 -145l171 -80l65 59
q64 58 64 190q0 131 -65 131h-35v100z" />
    <glyph glyph-name="uni1794.sub" horiz-adv-x="600" 
d="M-200 -295q50 32 50 86t-50 20v-106zM200 860q0 60 -142 80q-48 6 -48 46t25 100l165 414h300q0 -122 -26 -207q-27 -86 -90 -123q16 61 16 96q0 34 -50 34h-133l-69 -173q126 -23 189 -74q63 -50 63 -129v-1597l-153 -127h-127l-194 227l-195 -227h-25l-106 102v448
q0 50 101 125t170 75q65 0 97 -36t32 -109q0 -52 -50 -103q-50 -52 -150 -102v-191l200 239l200 -239v1451z" />
    <glyph glyph-name="uni1795.sub" 
d="M-400 -300v51q0 32 -25 32q-50 0 -50 -43q0 -40 75 -40zM-200 -650q0 -54 -51 -102t-149 -48q-117 0 -156 44l-118 131l-79 -87q-79 -88 -113 -88t-84 47t-50 103v363l200 187v-542l200 223l200 -223v242q-100 0 -150 36q-50 35 -50 106q0 79 44 119q44 39 131 39
q125 0 175 -46q50 -47 50 -99v-405z" />
    <glyph glyph-name="uni1796.sub" 
d="M-700 -660q67 54 67 85q0 19 -34 19h-33v-104zM-200 -708l-93 -92h-107v578h-48q-82 0 -192 -99l7 25q19 74 -36 74h-222l-27 -51q98 -13 156 -44q62 -31 62 -79v-69h33q69 0 103 -20q35 -20 35 -59q0 -73 -117 -164l-119 -92h-28l-107 62v303q0 37 -100 49v126l93 160
h275q64 0 64 -80q69 80 127 80h241v-608z" />
    <glyph glyph-name="uni1797.sub" 
d="M-898 -761q-102 39 -102 133q0 75 100 102q0 -82 100 -120q87 -32 119 -16q31 16 31 49q0 31 -44 73q-43 43 -131 76q-87 34 -131 87t-44 111q0 33 175 100q175 66 225 66t159 -42q241 -91 241 -158v-300l-200 -200v467q0 23 -138 76q-139 53 -176 53t-61 -10
q-25 -10 -25 -52q0 -54 63 -78q93 -35 140 -92q47 -58 47 -137v-40q0 -73 -65 -130t-123 -57q-59 0 -160 39z" />
    <glyph glyph-name="uni1798.sub" 
d="M-200 -450h27l-27 -20v20zM-400 -300h-100q-80 0 -141 -90q-62 -90 -88 -90q-27 0 -89 55t-62 82t82 93q-102 0 -302 -134q0 -37 80 -78q79 -42 138 -115t107 -73q47 0 111 100t164 100h100v-100l172 -100l65 59q63 58 63 141v150h-100v150q0 50 -50 50t-100 -50l-50 -50
v-100z" />
    <glyph glyph-name="uni1799.sub" horiz-adv-x="600" 
d="M400 -500q0 -100 -175 -200t-225 -100t-159 63q-241 137 -241 237v250q0 50 101 125t170 75q65 0 97 -36t32 -109q0 -52 -50 -103q-50 -52 -150 -102v-50q0 -34 138 -114q139 -79 176 -79t61 15q25 14 25 128v1360q0 60 -142 80q-48 6 -48 46t25 100l165 414h300
q0 -122 -26 -207q-27 -86 -90 -123q16 61 16 96q0 34 -50 34h-133l-69 -173q126 -23 189 -74q63 -50 63 -129v-1424zM-200 -295q50 32 50 86t-50 20v-106z" />
    <glyph glyph-name="uni179a.sub" horiz-adv-x="600" 
d="M1000 -150v-250q0 -100 -175 -200t-225 -100t-159 63q-241 137 -241 237v1260q0 60 -142 80q-48 6 -48 46t25 100l165 414h300q0 -122 -26 -207q-27 -86 -90 -123q16 61 16 96q0 34 -50 34h-133l-69 -173q126 -23 189 -74q63 -50 63 -129v-1274q0 -34 138 -114
q139 -79 176 -79t61 15q25 14 25 128v150l113 113q37 37 62 37t25 -50z" />
    <glyph glyph-name="uni179b.sub" 
d="M-157 -440q-58 -140 -173 -221q-33 -23 -84 -26h-6q-86 0 -241 182l-80 94q-80 94 -183 96q-78 2 -82 -82q-4 -85 80 -129q83 -43 182 -36q-74 -116 -184 -124h-11q-63 0 -110 48q-51 54 -51 181q0 126 80 214q79 87 174 94q95 8 222 -127l88 -98q79 -92 133 -143
q81 7 114 46q39 46 39 120t-45 150l195 101q0 -199 -57 -340z" />
    <glyph glyph-name="uni179c.sub" 
d="M-752 -333q101 -33 189 -7.5t163 140.5l200 111q0 -309 -144 -510t-294 -201q-151 0 -256 73q-106 73 -106 150t74 177q73 99 174 67zM-899 -474q-25 -33 81 -79q106 -47 209 -47q102 0 178 69q76 68 60 176q-56 -64 -163 -111q-108 -47 -224 -11q-117 35 -141 3z" />
    <glyph glyph-name="uni179d.sub" 
d="M-399 -488l-1 82q0 30 -138 100q-139 69 -176 69t-61 -13q-25 -12 -25 -112v-239q65 151 162 151q43 0 91 -35q47 -36 47 -100q0 -65 -100 -110q-18 45 -75 45q-58 0 -125 -60l-100 -90l-100 100v338q0 87 175 175q175 87 225 87t159 -55q241 -120 241 -207v-83
q39 24 82 60q-32 -116 -82 -179v-86l-200 -150l1 129q-37 -9 -79 -15l-1 224q42 -18 80 -26z" />
    <glyph glyph-name="uni179e.sub" horiz-adv-x="600" 
d="M-200 -295q50 32 50 86t-50 20v-106zM200 5q-77 10 -170 41l112 213q29 -27 58 -48v649q0 60 -142 80q-48 6 -48 46t25 100l165 414h300q0 -122 -26 -207q-27 -86 -90 -123q16 61 16 96q0 34 -50 34h-133l-69 -173q126 -23 189 -74q63 -50 63 -129v-798q74 -7 175 10
q-93 -79 -175 -112v-697l-153 -127h-127l-194 227l-195 -227h-25l-106 102v448q0 50 101 125t170 75q65 0 97 -36t32 -109q0 -52 -50 -103q-50 -52 -150 -102v-191l200 239l200 -239v596z" />
    <glyph glyph-name="uni179f.sub" horiz-adv-x="600" 
d="M-400 -345v46q-50 -36 -40 -52t40 6zM400 24v-524q0 -100 -175 -200t-225 -100t-159 63q-241 137 -241 237v60q-63 -31 -111 5q-49 35 -49 85t90 150t150 100q59 0 120 -60v-290q0 -34 138 -114q139 -79 176 -79t61 15q25 14 25 128v505q-77 10 -170 41l112 213
q29 -27 58 -48v649q0 60 -142 80q-48 6 -48 46t25 100l165 414h300q0 -122 -26 -207q-27 -86 -90 -123q16 61 16 96q0 34 -50 34h-133l-69 -173q126 -23 189 -74q63 -50 63 -129v-798q74 -7 175 10q-93 -79 -175 -112z" />
    <glyph glyph-name="uni17a0.sub" 
d="M-938 -128q47 -30 47 -92v-276q0 -31 -17 -47q0 -26 79 -72q125 -62 157 -62q31 0 51 11q22 11 22 100v78q0 47 -102 62q-40 5 -40 36t21 78l96 213h525v-584l-125 -117h-41v546h-345l-16 -26q89 -18 141 -57q53 -40 53 -101v-128q0 -78 -149 -156q-151 -78 -193 -78
q-43 0 -136 50q-61 38 -113 84q-51 46 -77 120q26 11 34 26.5t8 39.5v210q0 41 -42 58v57q0 56 58 56t104 -29z" />
    <glyph glyph-name="uni17a1.sub" 
d="M-1066 -405l-34 24q0 67 30 121l86 160h497q0 -65 -23 -115l-34 -77q-34 -76 -116 -76t-224 68l117 69q63 -29 121 -29q57 0 72 26q15 27 -22 27h-376l-45 -87l59 -45q58 -45 171 -69l186 -40q69 -14 114 36q0 -82 -53 -116t-100 -24l-46 11l-141 30q-140 32 -239 106z
M-916 -540v-123q0 -18 94 -61q95 -42 120 -42t41 8q17 7 17 68v115q49 -3 84 11.5t52 40.5v-167q0 -53 -119 -107t-153 -54t-108 34q-164 74 -164 127v97l77 60q25 20 42 20t17 -27zM-644 -1029v39l-27 -22zM-358 -1200l-132 122l-132 -122h-90v97l-86 53q-29 17 -29 38
q0 22 32 50l65 57q32 27 73 27q40 0 81 -32v-177l136 128l136 -128v644q0 32 -96 43q-33 3 -33 25q0 21 17 53l112 222h204q0 -65 -17 -111q-19 -46 -61 -66q10 33 10 52q0 18 -34 18h-90l-47 -93q86 -12 129 -39q42 -27 42 -70v-764l-36 -27h-154z" />
    <glyph glyph-name="uni17a2.sub" 
d="M-924 -561l-48 -32l48 -47v79zM-379 -561l-48 -32l48 -47v79zM-981 -800q-14 19 -32 32q-87 69 -87 144q0 38 46 62l127 73v211q0 45 -129 60q-44 4 -44 35q0 30 23 75l5 9h193q47 -14 77 -34q57 -38 57 -97v-136l93 95q49 -79 113 -103q59 -21 158 -23v119q0 45 -129 60
q-44 4 -44 35q0 30 23 75l4 9h194q46 -14 76 -34q57 -38 57 -97v-432q-65 -138 -236 -138q-14 19 -32 32q-86 69 -86 144q0 38 45 62l128 73v77q-107 -58 -186 -55q-76 2 -178 49v-231q-55 -151 -236 -151z" />
    <glyph glyph-name="uni17a3.sub" 
d="M-924 -561l-48 -32l48 -47v79zM-379 -561l-48 -32l48 -47v79zM-981 -800q-14 19 -32 32q-87 69 -87 144q0 38 46 62l127 73v211q0 45 -129 60q-44 4 -44 35q0 30 23 75l5 9h193q47 -14 77 -34q57 -38 57 -97v-136l93 95q49 -79 113 -103q59 -21 158 -23v119q0 45 -129 60
q-44 4 -44 35q0 30 23 75l4 9h194q46 -14 76 -34q57 -38 57 -97v-432q-65 -138 -236 -138q-14 19 -32 32q-86 69 -86 144q0 38 45 62l128 73v77q-107 -58 -186 -55q-76 2 -178 49v-231q-55 -151 -236 -151z" />
    <glyph glyph-name="uni17a4.sub" 
d="M-1380 -586l-8 -40q-48 -224 -240 -224q-101 0 -101 75v1q0 75 101 74q71 0 92 100l31 154l-69 67q-81 105 29 216q61 62 131 62q57 0 121 -41q85 -51 48 -117q-36 -65 -112 -20q-67 34 -94 0q-26 -34 109 -118l-9 -45q12 0 24 -2l307 -31l5 29l-69 67q-81 105 29 216
q61 62 131 62q57 0 121 -41l164 -103q137 -84 137 -206q0 -25 -6 -51l-55 -260q-17 -89 -94 -89q-78 0 -54 111l56 269q14 63 -42 95l-170 97q-67 34 -94 0q-26 -34 109 -118l-46 -229q-48 -224 -240 -224q-102 0 -101.5 75.5t101.5 74.5q63 0 87 78l-291 29q-21 2 -38 7z
" />
    <glyph glyph-name="uni17a5.sub" 
d="M-1437 -983l-17 -77q-15 -70 30 -70q73 0 110 24t37 73q0 25 -35 38q-35 12 -105 13zM-1408 -600q55 40 126 57q118 28 225 6q106 -21 209 -62t206 -124q104 -83 127 -178q24 -95 -2 -219l-15 -67q-11 -45 -35 -68t-63 -23q-38 0 -52 26q-13 26 -2 78l19 85q19 89 5 146
q-14 56 -89 115q-75 60 -158 93t-167 50q-84 16 -161 -1t-122 -75q-45 -59 -47 -74q140 0 210 -49q70 -50 70 -149q0 -122 -75 -184q-75 -61 -226 -61q-120 0 -166 70q-20 36 -20 91q0 38 9 84l43 196q15 72 72 153l-25 -26q-59 45 -78 87q-18 42 -18 100t27 111
q27 54 82 103q54 49 130 73q77 24 115 24q88 0 168 -39l158 -75q67 -46 160 -46q102 0 149.5 52.5t-27.5 105.5q-97 31 -71 103q19 52 77 52q21 0 48 -8q140 -45 159 -156q3 -17 3 -34q0 -91 -83 -166q-93 -99 -254 -99q-124 0 -215 54q-102 44 -160 75t-108 31
q-77 0 -142 -56t-65 -99q0 -42 53 -79z" />
    <glyph glyph-name="uni17a6.sub" 
d="M-1748 -1310l-17 -79q-15 -71 30 -71q73 0 110 25q37 24 37 74q0 25 -35 38t-105 13h-20zM-378 -821l-152 78q-194 95 -191 210q3 114 91 213q43 33 127 33q85 0 162 -47l41 -4q46 20 59.5 41.5t-16.5 74.5t-83 64q-97 31 -71 103q19 52 77 52q21 0 48 -8
q113 -31 164 -137q32 -67 32 -131q0 -36 -10 -71q-29 -97 -128 -142q-100 -46 -178 23q-54 32 -84 32t-76 -53q-6 -66 105 -118l254 -131l-125 -591q-30 -140 -109 -210t-207 -70h-214q-77 0 -108 37q-30 38 -14 113l8 42q19 61 5 119q-14 57 -94 117t-163 94t-167 51
q-84 16 -161 -1t-122 -76q-35 -30 -37 -46q140 0 210 -50t70 -151q0 -124 -75 -187q-75 -62 -226 -62q-120 0 -166 71q-20 37 -20 92q0 39 9 86l43 199q6 53 77 147q72 94 190 122t225 6q106 -21 209 -63q103 -41 206.5 -125.5t136.5 -181.5q24 -96 -2 -192l-2 -11h182
q67 0 109 38q41 39 58 115zM-1709 -561l-17 -77q-15 -70 30 -70q73 0 110 24t37 73q0 25 -35 38q-35 12 -105 13zM-1471 -795q-75 -61 -226 -61q-120 0 -166 70q-35 60 -11 175l43 196q16 81 87 174q72 92 190 120t225 6q106 -21 209 -62t206 -124q104 -83 127 -178
q24 -95 -2 -219l-15 -67q-11 -45 -35 -68t-63 -23q-38 0 -52 26q-13 26 -2 78l19 85q19 89 5 146q-14 56 -89 115q-75 60 -158 93t-167 50q-84 16 -161 -1t-122 -75q-45 -59 -47 -74q140 0 210 -49q70 -50 70 -149q0 -122 -75 -184z" />
    <glyph glyph-name="uni17a7.sub" 
d="M-1314 -552q74 45 108 -10q33 -56 -30 -95q-117 -69 -205 -31q-118 60 -118 234q0 35 4 75q26 118 155 189q130 70 340 80q86 0 214 -24q186 -41 259 -146q53 -75 53 -151q0 -30 -9 -61q-28 -136 -400 -271t-435 -204q-34 -46 -25 -69t68 -14q66 0 192 70l331 185
q61 43 116 18q64 -23 33 -159l-35 -143q-25 -142 -110 -219q-52 -47 -90 -47q-25 0 -44 18q-49 48 25 114q68 48 90 165l25 99l-229 -141q-192 -119 -309 -119q-66 0 -150 33t-91 98q11 108 92 194q82 86 441 216q339 130 358 200q12 46 -17 94q-49 68 -169 97
q-117 18 -178 18q-186 -10 -272 -58q-74 -48 -92 -108q-11 -109 31 -144q23 -11 73 17z" />
    <glyph glyph-name="uni17a8.sub" 
d="M-1563 -339q-24 27 -24 51q0 34 45 64l79 54q95 90 196 90q40 0 81 -14l83 -47q32 -26 84 3l52 29q37 21 82 21q87 0 206 -73l92 -55q66 -39 66 -81q0 -18 -11 -36q-37 -62 -107 -16l-70 46q-141 92 -195 63l-53 -30l-54 -29q-54 -29 -105 5l-51 34l-50 35
q-51 34 -170 -71l-60 -52q-59 -53 -116 9zM-1306 -798q74 45 108 -10q33 -56 -30 -95q-117 -69 -205 -31q-143 71 -114 309q26 118 155 189q130 70 340 80q86 0 214 -24q186 -41 259 -146q53 -75 53 -151q0 -30 -9 -61q-28 -136 -400 -271t-435 -204q-34 -46 -25 -69t68 -14
q66 0 192 70l331 185q61 43 116 18q64 -23 33 -159l-35 -143q-25 -142 -110 -219q-52 -47 -90 -47q-25 0 -44 18q-49 48 25 114q68 48 90 165l25 99l-229 -141q-192 -119 -309 -119q-66 0 -150 33t-91 98q11 108 92 194q82 86 441 216q339 130 358 200q12 46 -17 94
q-49 68 -169 97q-117 18 -178 18q-186 -10 -272 -58q-74 -48 -92 -108q-11 -109 31 -144q23 -11 73 17z" />
    <glyph glyph-name="uni17a9.sub" 
d="M-1310 -542q74 45 108 -10q33 -56 -30 -95q-117 -69 -205 -31q-118 60 -118 234q0 35 4 75q26 118 155 189q130 70 340 80q86 0 214 -24q186 -41 259 -146t44 -212q-28 -136 -400 -271t-435 -204q-34 -46 -25 -69t68 -14q66 0 192 70l331 185q61 43 116 18
q64 -23 33 -159l-35 -143q-25 -142 -110 -219q-52 -47 -90 -47q-25 0 -44 18q-49 48 25 114q68 48 90 165l25 99l-229 -141q-192 -119 -309 -119q-66 0 -150 33t-91 98q11 108 92 194q82 86 441 216q339 130 358 200q12 46 -17 94q-49 68 -169 97q-117 18 -178 18
q-186 -10 -272 -58q-74 -48 -92 -108q-11 -109 31 -144q23 -11 73 17zM-484 -771q63 0 63 -66q0 -10 -2 -22q-10 -170 -55 -375q-65 -91 -120 -91q-14 0 -27 6q-66 28 4 134q33 143 49 320q17 94 88 94z" />
    <glyph glyph-name="uni17aa.sub" 
d="M-1424 -530q129 67 333 76q86 0 214 -24q186 -41 259 -146t44 -212q-28 -136 -400 -271t-435 -204q-34 -46 -25 -69t68 -14q66 0 192 70l331 185q61 43 116 18q64 -23 33 -159l-35 -143q-9 -56 -94 -133q-52 -47 -90 -47q-25 0 -44 18q-49 48 25 114q68 48 74 79l25 99
l-229 -141q-192 -119 -309 -119q-66 0 -150 33t-91 98q11 108 92 194q82 86 441 216q339 130 358 200q12 46 -17 94q-49 68 -169 97q-117 18 -178 18q-186 -10 -272 -58q-74 -48 -92 -108q-11 -109 31 -144q23 -11 73 17q74 45 108 -10q33 -56 -30 -95q-117 -69 -205 -31
q-143 71 -114 309q11 50 40 91q-41 36 -57 69q-18 42 -18 100t27 111q27 54 82 103q54 49 130 73q77 24 115 24q88 0 168 -39l158 -75q67 -46 160 -46q102 0 149.5 52.5t-27.5 105.5q-97 31 -71 103q19 51 77 51q21 0 48 -7q140 -45 159 -156q3 -17 3 -34q0 -91 -83 -166
q-93 -99 -254 -99q-124 0 -215 54q-102 44 -160 75t-108 31q-77 0 -142 -56t-65 -99q0 -38 46 -73z" />
    <glyph glyph-name="uni17ab.sub" 
d="M-734 -446l-69 67q-81 105 29 216q61 62 131 62q57 0 121 -41q60 -35 60 -78q0 -18 -12 -39q-36 -65 -112 -20q-67 34 -94 0q-26 -34 109 -118l-46 -229q-48 -224 -240 -224h-462q-162 1 -137 150l52 254l-69 67q-34 45 -34 91q0 62 63 125q61 62 131 62q57 0 121 -41
q85 -51 48 -117q-36 -65 -112 -20q-67 34 -94 0q-26 -34 109 -118l-62 -303h446q71 0 92 100zM-1024 -983q0 75 75 75q128 0 181 -49q53 -48 32 -145t-105 -168q-134 -45 -219 -35q-46 2 -143 -18q-97 -24 -170 -95q-52 -51 -92 -51q-26 0 -47 21q-21 23 -21 48q0 38 47 83
q95 92 216 129q121 32 194 34q174 -3 185 46q11 50 -61 50t-72 75z" />
    <glyph glyph-name="uni17ac.sub" 
d="M-734 -446l-69 67q-81 105 29 216q61 62 131 62q57 0 121 -41q60 -35 60 -78q0 -18 -12 -39q-36 -65 -112 -20q-67 34 -94 0q-26 -34 109 -118l-46 -229q-48 -224 -240 -224h-462q-162 1 -137 150l52 254l-69 67q-34 45 -34 91q0 62 63 125q61 62 131 62q57 0 121 -41
q85 -51 48 -117q-36 -65 -112 -20q-67 34 -94 0q-26 -34 109 -118l-62 -303h446q71 0 92 100zM-952 -1299q-61 -11 -108 -6q-46 2 -143 -18q-97 -24 -170 -95q-52 -51 -92 -51q-26 0 -47 21q-21 23 -21 48q0 38 47 83q95 92 216 129q121 32 194 34q174 -3 185 46
q11 50 -61 50t-72 75t75 75q128 0 181 -49q53 -48 32 -145q-15 -72 -66 -129l58 -82q62 -87 -1 -130q-22 -16 -44 -16q-39 0 -76 48z" />
    <glyph glyph-name="uni17ad.sub" 
d="M-1418 -555l-17 -77q-15 -70 30 -70q73 0 110 24t37 73q0 25 -35 38q-35 12 -105 13zM-1180 -789q-75 -61 -226 -61q-120 0 -166 70q-20 36 -20 91q0 38 9 84l63 290q21 99 91 149q70 49 130 49q89 0 188 -46l94 -51q143 99 199 99q67 0 189 -63q94 -48 94 -170
q0 -38 -10 -84l-76 -348q-18 -70 -93 -70q-76 0 -55 100l75 347q14 61 -20.5 98.5t-91.5 37.5q-47 0 -102 -50q-56 -49 -105 -49q-45 0 -143 50t-135 51q-63 2 -73 -50l-21 -92q140 0 210 -49q70 -50 70 -149q0 -122 -75 -184zM-1041 -983q0 75 75 75q128 0 181 -49
q53 -48 32 -145t-105 -168q-134 -45 -219 -35q-46 2 -143 -18q-97 -24 -170 -95q-52 -51 -92 -51q-26 0 -47 21q-53 55 26 131q95 92 216 129q121 32 194 34q174 -3 185 46q11 50 -61 50t-72 75z" />
    <glyph glyph-name="uni17ae.sub" 
d="M-1418 -555l-17 -77q-15 -70 30 -70q73 0 110 24t37 73q0 25 -35 38q-35 12 -105 13zM-1180 -789q-75 -61 -226 -61q-120 0 -166 70q-20 36 -20 91q0 38 9 84l63 290q21 99 91 149q70 49 130 49q89 0 188 -46l94 -51q143 99 199 99q67 0 189 -63q94 -48 94 -170
q0 -38 -10 -84l-76 -348q-18 -70 -93 -70q-76 0 -55 100l75 347q14 61 -20.5 98.5t-91.5 37.5q-47 0 -102 -50q-56 -49 -105 -49q-45 0 -143 50t-135 51q-63 2 -73 -50l-21 -92q140 0 210 -49q70 -50 70 -149q0 -122 -75 -184zM-969 -1299q-61 -11 -108 -6q-46 2 -143 -18
q-97 -24 -170 -95q-52 -51 -92 -51q-26 0 -47 21q-53 55 26 131q95 92 216 129q121 32 194 34q174 -3 185 46q11 50 -61 50t-72 75t75 75q128 0 181 -49q53 -48 32 -145q-15 -72 -66 -129l58 -82q62 -87 -1 -130q-22 -16 -44 -16q-39 0 -76 48z" />
    <glyph glyph-name="uni17af.sub" 
d="M-1475 -758q-37 0 -39 -75q-1 -75 -76 -75q-75 1 -75 76q1 76 42 150t151 74t152 -76q42 -75 13 -214l-73 -344q34 34 117 34q103 0 321 -137l185 -113q27 0 69 38q41 39 58 115l68 322q21 97 -33 179q-57 76 -283 176q-300 45 -370 137q-118 108 -156 191t-134 155
q-78 62 -33 122q24 32 54 32q27 0 60 -26q138 -106 192 -229q68 -80 148 -150q112 -55 257 -81q348 -139 375 -225q81 -116 81 -230q0 -41 -11 -82l-66 -314q-30 -140 -109 -210t-173 -70q-34 0 -237 125t-264 125t-116 -100q-86 -150 -159 -150t-54 92l20 92l116 552
q20 114 -18 114z" />
    <glyph glyph-name="uni17b0.sub" 
d="M-1364 -555l-17 -77q-15 -70 30 -70q73 0 110 24t37 73q0 25 -35 38q-35 12 -105 13zM-1126 -789q-75 -61 -226 -61q-120 0 -166 70q-35 60 -11 175l63 290q21 99 91 149q70 49 130 49q89 0 188 -46l94 -51q143 99 199 99q67 0 189 -63q94 -48 94 -170q0 -38 -10 -84
l-76 -348q-18 -70 -93 -70q-76 0 -55 100l75 347q14 61 -20.5 98.5t-91.5 37.5q-47 0 -102 -50q-56 -49 -105 -49q-45 0 -143 50t-135 51q-63 2 -73 -50l-21 -92q140 0 210 -49q70 -50 70 -149q0 -122 -75 -184zM-971 -1141l12 -14q90 -99 126 -76q35 23 68 168z
M-1206 -1230l-179 -68q82 -61 126 -49q45 13 53 117zM-1493 -1178l700 258q76 23 129.5 -14t36.5 -131q-59 -292 -171 -322q-112 -31 -280 139q-24 -206 -162 -237q-23 -5 -47 -5q-117 0 -248 128q-50 54 -50 95q0 56 92 89z" />
    <glyph glyph-name="uni17b1.sub" 
d="M-1391 -486q122 54 303 62q86 0 214 -24q186 -41 259 -146q53 -75 53 -151q0 -30 -9 -61q-28 -136 -400 -271t-435 -204q-34 -46 -25 -69t68 -14q66 0 192 70l331 185q61 43 116 18q64 -23 33 -159l-35 -143q-9 -56 -94 -133q-52 -47 -90 -47q-25 0 -44 18q-49 48 25 114
q68 48 74 79l25 99l-229 -141q-192 -119 -309 -119q-66 0 -150 33t-91 98q11 108 92 194q82 86 441 216q339 130 358 200q12 46 -17 94q-49 68 -169 97q-117 18 -178 18q-186 -10 -272 -58q-74 -48 -92 -108q-11 -109 31 -144q23 -11 73 17q74 45 108 -10q33 -56 -30 -95
q-117 -69 -205 -31q-118 60 -118 234q0 35 4 75q15 65 60 115q-32 30 -45 58q-18 42 -18 100t27 111q27 54 82 103q54 49 180 73q77 24 215 24q148 0 256 -39q88 -41 202 -105q68 -42 68 -86q0 -21 -16 -43q-47 -67 -134 7q-66 44 -168 85q-94 31 -204 31q-177 0 -292 -56
q-65 -56 -65 -99q0 -38 44 -72z" />
    <glyph glyph-name="uni17b2.sub" 
d="M-809 -1284q44 30 45 64q11 47 -151 135q-124 35 -113 104q21 90 145 124q207 56 223 120q12 52 -51 78q-64 26 -203 26q-59 0 -96 -35l-38 -35q-16 -70 -85.5 -50.5t-38.5 122.5l71 80q82 68 218 68q216 0 309 -69q71 -51 71 -142q0 -30 -8 -64q-17 -81 -102 -142
q-86 -62 -180 -81q84 -47 156 -102q38 -91 21 -170q-11 -66 -97 -144q-115 -87 -309 -87h-117q-149 0 -251 46t-157 139q-56 92 -64 231q-1 24 -1 50q0 121 31 273l73 316q19 93 90 187q72 94 190 122q77 19 150 19q38 0 75 -6q106 -18 209 -57q103 -40 179 -95
q85 -53 57 -115q-39 -62 -123 -13q-89 52 -172 85q-83 31 -167 45q-84 9 -161 -8t-122 -76q-45 -60 -56 -109l-77 -333q-28 -138 -23 -241q6 -103 45 -172q40 -69 114 -104q73 -34 181 -34h113q124 0 197 50z" />
    <glyph glyph-name="uni17b3.sub" 
d="M-1519 -582q-35 32 -49 62q-18 42 -18 100t27 111q27 54 82 103q54 49 180 73q77 24 135 24q98 0 206 -39l89 -37q68 92 183 119q26 5 46 5q73 0 86 -62q2 -10 2 -20q0 -60 -91 -73q-36 -4 -57 -31l14 -6q129 -54 114.5 -137t-90.5 -108q-31 -11 -68 -10q74 -38 113 -96
q53 -75 53 -151q0 -30 -9 -61q-28 -136 -400 -271t-435 -204q-34 -46 -25 -69t68 -14q66 0 192 70l331 185q61 43 116 18q64 -23 33 -159l-35 -143q-9 -56 -94 -133q-52 -47 -90 -47q-25 0 -44 18q-49 48 25 114q68 48 74 79l25 99l-229 -141q-192 -119 -309 -119
q-66 0 -150 33t-91 98q11 108 92 194q82 86 441 216q339 130 358 200q12 46 -17 94q-49 68 -169 97q-117 18 -178 18q-186 -10 -272 -58q-74 -48 -92 -108q-11 -109 31 -144q23 -11 73 17q74 45 108 -10q33 -56 -30 -95q-117 -69 -205 -31q-118 60 -118 234q0 35 4 75
q15 68 64 121zM-929 -316q-41 13 -75 26q-94 31 -154 31q-97 0 -212 -56q-65 -56 -65 -99q0 -41 53 -78q119 50 294 58q81 0 198 -20q-49 46 -39 138z" />
    <glyph glyph-name="uni1780.a" horiz-adv-x="1800" 
d="M200 -50v850q0 100 175 200t225 100t159 -63q241 -137 241 -237v-650l-200 -200v800q0 34 -138 114q-139 79 -176 79t-61 -15q-25 -14 -25 -128v-650zM298 1300l-24 -50q66 -27 120 -75q54 -47 8 -104q-46 -56 -108 -71q-30 53 -79 78q-48 25 -115 22l200 400h530
q70 0 70 -130q75 130 160 130h540v-1350l-200 -200v1350h-370q-89 0 -208 -162l7 41q21 121 -39 121h-492z" />
    <glyph glyph-name="uni1781.a" horiz-adv-x="1800" 
d="M399 1005q68 38 68 57q0 28 -34 28h-34v-85zM978 1263q21 -33 21 -63v-200q0 -90 -300 -290l-300 -200v-210q0 -114 25 -128q24 -15 61 -15t176 79q138 80 138 114v200l200 200v-450q0 -100 -241 -237q-109 -63 -159 -63t-225 100t-175 200v330q200 0 400 140t200 230
v150q0 34 -138 114q-139 79 -176 79t-61 -15q-25 -14 -25 -128h40q160 0 160 -105t-150 -200t-205 -95q-45 0 -45 80v320q0 100 175 200t225 100t159 -63q94 -53 151 -101q218 164 391 164h300v-1350l-200 -200v1350h-200q-110 0 -222 -37z" />
    <glyph glyph-name="uni1782.a" horiz-adv-x="1800" 
d="M298 1300l-24 -50q66 -27 120 -75q54 -47 8 -104q-46 -56 -108 -71q-30 53 -79 78q-48 25 -115 22l200 400h530q70 0 70 -130q75 130 160 130h540v-1350l-200 -200v1350h-370q-89 0 -208 -162l7 41q21 121 -39 121h-492zM225 0q-25 0 -25 40v760q0 100 175 200t225 100
t159 -63q241 -137 241 -237v-650l-200 -200v800q0 34 -138 114q-139 79 -176 79t-61 -15q-25 -14 -25 -128v-451q65 151 162 151q43 0 91 -35q47 -36 47 -100q0 -65 -100 -110q-18 45 -75 45q-28 0 -59 -37l-185 -225q-31 -38 -56 -38z" />
    <glyph glyph-name="uni1783.a" horiz-adv-x="2400" 
d="M1600 300q0 -100 -179 -200q-180 -100 -231 -100t-163 63q-78 44 -132 84q-32 -24 -74 -47q-180 -100 -231 -100t-163 63q-123 69 -185 128t-94 154q32 14 42 34.5t10 50.5v640q146 14 193 71q47 56 47 113q0 43 -27.5 64.5t-62.5 21.5q-50 0 -50 -45t60 -49
q1 -82 -129 -79q-131 3 -131 133q0 100 60 150t140 50q120 0 185 -70t65 -170q0 -110 -40 -200t-110 -160v-490q0 -40 -20 -61q0 -33 144 -112q150 -80 188 -80t62 15q26 14 26 128v560q0 60 -142 80q-48 6 -48 46t25 100l165 414h300q0 -122 -26 -207q-27 -86 -90 -123
q16 61 16 96q0 34 -50 34h-133l-69 -173q126 -23 189 -74q63 -50 63 -129v-606q34 -32 124 -81q150 -80 188 -80t62 15q26 14 26 128v600q0 60 -122 80q-48 6 -48 46t25 100l145 374h800v-1350l-200 -200v1350h-583l-49 -133q106 -23 169 -73q63 -51 63 -130v-664z" />
    <glyph glyph-name="uni1784.a" horiz-adv-x="1800" 
d="M729 1300q63 2 75 13q14 12 -8 41q-66 86 -101 26q-21 -25 34 -80zM200 638v73l-40 -42zM965 1259q-20 -23 -52 -46q-20 -14 -41 -25q128 -103 128 -188v-850l-75 -75q-75 -75 -100 -75t-93 82l-206 245l-241 -286q-35 -41 -60 -41t-25 40v470l-127 98q-43 32 -43 82
q0 100 48 153l95 105q47 52 107 52q59 0 120 -60v-631l200 239l200 -239v691q0 75 -59 152q-20 -2 -41 -2h-200q-160 0 -200 -50q-100 30 -100 100v470q0 40 -24 40t-76 -30q100 220 180 220q120 0 120 -230v-370h216q-16 28 -16 49q0 71 50 121t150 50t150 -60
q28 -34 40 -68q170 108 310 108h300v-1350l-200 -200v1350h-200q-116 0 -235 -41z" />
    <glyph glyph-name="uni1785.a" horiz-adv-x="1800" 
d="M800 892q-70 -69 -70 -105t40 -36h30v141zM217 1300l-49 -133q106 -23 169 -73q63 -51 63 -130v-554q0 -40 -20 -61q0 -33 144 -112q150 -80 188 -80t62 15q26 14 26 128v300h-30q-95 0 -132.5 39.5t-37.5 110.5q0 101 131 232q118 118 164 118q105 0 105 -100v-700
q0 -100 -179 -200q-180 -100 -231 -100t-163 63q-123 69 -185 128t-94 154q32 14 42 34.5t10 50.5v470q0 60 -122 80q-48 6 -48 46t25 100l145 374h630q70 0 70 -130q75 130 160 130h540v-1350l-200 -200v1350h-370q-89 0 -208 -162l7 41q21 121 -39 121h-573z" />
    <glyph glyph-name="uni1786.a" horiz-adv-x="1800" 
d="M800 892q-70 -69 -70 -105t40 -36h30v141zM203 484l-53 -43l53 -62v105zM217 1300l-49 -133q106 -23 169 -73q63 -51 63 -130v-364q138 0 206 -62q69 -63 69 -188q0 -150 70 -150q55 0 55 100v300h-30q-47 0 -81 10q-33 10 -51 30q-38 39 -38 110q0 101 131 232
q118 118 164 118q105 0 105 -100v-700q0 -150 -64 -225q-63 -75 -191 -75q-107 0 -161 88q-54 87 -54 262q0 75 -32 113q-33 37 -98 37v-350l-112 -112q-38 -38 -63 -38t-25 35q0 82 -95 174q-95 91 -95 191q0 50 50 83l140 97v320q0 60 -122 80q-48 6 -48 46t25 100
l145 374h630q70 0 70 -130q75 130 160 130h540v-1350l-200 -200v1350h-370q-89 0 -208 -162l7 41q21 121 -39 121h-573z" />
    <glyph glyph-name="uni1787.a" horiz-adv-x="1800" 
d="M921 1242q-65 -59 -120 -42q13 31 18 66q4 35 -40 34h-562l-49 -133q106 -23 169 -73q63 -51 63 -130v-655l200 239l200 -239v591l200 200v-950l-75 -75q-75 -75 -100 -75t-93 82l-206 245l-241 -286q-35 -41 -60 -41t-25 40v860q0 60 -122 80q-48 6 -48 46t25 100
l145 374h620q45 0 68 -30q22 -31 22 -92q41 42 47 77q7 36 -105 205q-112 170 -112 257q0 83 56 157q56 75 188 120q-79 -109 -79 -198q1 -60 68 -163t67 -233q0 -110 -21 -190q153 90 281 90h300v-1350l-200 -200v1350h-200q-138 0 -279 -58z" />
    <glyph glyph-name="uni1788.a" horiz-adv-x="3000" 
d="M400 309q90 89 90 150q0 41 -40 41h-50v-191zM2200 300q0 -100 -179 -200q-180 -100 -231 -100t-163 63q-78 44 -132 84q-32 -24 -74 -47q-180 -100 -231 -100t-163 63q-123 69 -185 128t-94 154q32 14 42 34.5t10 50.5v870h-583l-49 -133q106 -23 169 -73
q63 -51 63 -130v-314h50q150 0 150 -150t-131 -281l-175 -175q-44 -44 -69 -44t-25 40v860q0 60 -122 80q-48 6 -48 46t25 100l145 374h800v-1090q0 -40 -20 -61q0 -33 144 -112q150 -80 188 -80t62 15q26 14 26 128v560q0 60 -142 80q-48 6 -48 46t25 100l165 414h300
q0 -122 -26 -207q-27 -86 -90 -123q16 61 16 96q0 34 -50 34h-133l-69 -173q126 -23 189 -74q63 -50 63 -129v-606q34 -32 124 -81q150 -80 188 -80t62 15q26 14 26 128v600q0 60 -122 80q-48 6 -48 46t25 100l145 374h800v-1350l-200 -200v1350h-583l-49 -133
q106 -23 169 -73q63 -51 63 -130v-664z" />
    <glyph glyph-name="uni1789.a" horiz-adv-x="2400" 
d="M191 -399q-40 48 66 174q106 125 283 125t438 -150t367 -150q105 0 105 45t-40 85q-41 39 -140 40l150 150q180 -60 180 -180t-63 -180q-64 -60 -191 -60q-334 0 -551 123q-279 157 -342 157q-103 0 -182 -89zM400 309q90 89 90 150q0 41 -40 41h-50v-191zM1600 1149
v-999l-112 -112q-38 -38 -63 -38t-25 40v1260h-120q-163 0 -280 -151v-999l-112 -112q-38 -38 -63 -38t-25 40v1260h-100q-89 0 -208 -162l7 41q21 121 -39 121h-243l-49 -133q106 -23 169 -73q63 -51 63 -130v-314h50q150 0 150 -150t-131 -281l-175 -175q-44 -44 -69 -44
t-25 40v860q0 60 -122 80q-48 6 -48 46t25 100l145 374h300q70 0 70 -130q75 130 160 130h270v-200q145 200 310 200h290v-200q145 200 310 200h290v-1350l-200 -200v1350h-120q-163 0 -280 -151z" />
    <glyph glyph-name="uni178a.a" horiz-adv-x="1800" 
d="M400 900v-591l200 239l200 -239v591l200 200v-950l-75 -75q-75 -75 -100 -75t-93 82l-206 245l-241 -286q-35 -41 -60 -41t-25 40v860h200zM919 1241q-47 -56 -120 -113q-201 -157 -435 -93q-234 63 -234 146q0 40 94 188q62 83 138 114q76 30 165 8q90 -23 113 -65
q23 -41 -20 -101q-67 -93 -225 -54q22 41 -29 54q-52 12 -77 -23q-26 -36 181 -89q206 -54 308 28q103 81 32 213q-70 132 -70 262q0 67 49 127q48 60 162 96q-68 -88 -68 -159q1 -38 59 -141t58 -207q0 -18 -3 -36q166 104 303 104h300v-1350l-200 -200v1350h-200
q-139 0 -281 -59z" />
    <glyph glyph-name="uni178b.a" horiz-adv-x="1800" 
d="M1074 1277q-84 -99 -153 -77q13 31 18 66q4 35 -40 34h-82l-69 -173q126 -23 189 -74q63 -50 63 -129v-624q0 -100 -179 -200q-180 -100 -231 -100t-163 63q-123 69 -185 128t-94 154q32 14 42 34.5t10 50.5v640q146 14 193 71q47 56 47 113q0 43 -27.5 64.5t-62.5 21.5
q-50 0 -50 -45t60 -49q1 -82 -129 -79q-131 3 -131 133q0 100 60 150t140 50q120 0 185 -70t65 -170q0 -110 -40 -200t-110 -160v-490q0 -40 -20 -61q0 -33 144 -112q150 -80 188 -80t62 15q26 14 26 128v560q0 60 -142 80q-48 6 -48 46t25 100l165 414h140q45 0 68 -30
q22 -31 22 -92q41 42 47 77q7 36 -105 205q-112 170 -112 257q0 83 56 157q56 75 188 120q-79 -109 -79 -198q1 -60 68 -163t67 -233q0 -95 -16 -168q99 68 156 68h300v-1350l-200 -200v1350h-100q-149 0 -226 -23z" />
    <glyph glyph-name="uni178c.a" horiz-adv-x="1800" 
d="M1000 1270v-270q0 -90 -300 -290l-300 -200v-190q211 -236 306 -175l94 57v348l200 200v-810q0 -106 -201 -221q-100 -58 -185 -67q-84 -9 -153 30t-136 43q-67 5 -145 -88q-2 16 -2 31q0 32 8 58q12 39 66 94q54 56 135 73q82 18 163 -30q163 -95 207 -69q44 25 44 96
v198l-42 -25q-109 -63 -159 -63t-225 100t-175 200v330q200 0 400 140t200 230v300h-60q-89 0 -208 -162l7 41q21 121 -39 121h-182q-34 -80 -3.5 -121t213.5 -101q-41 -108 -130 -169q-112 24 -155 55t-43 174q0 142 50 252l50 110h240q70 0 70 -130q75 130 160 130h230
v-102q164 102 300 102h300v-1350l-200 -200v1350h-200q-99 0 -200 -30z" />
    <glyph glyph-name="uni178d.a" horiz-adv-x="2400" 
d="M803 484l-53 -43l53 -62v105zM400 329q77 89 77 140q0 31 -37 31h-40v-171zM1417 1300l-69 -173q126 -23 189 -74q63 -50 63 -129v-624q0 -150 -64 -225q-63 -75 -191 -75q-107 0 -161 88q-54 87 -54 262q0 75 -32 113q-33 37 -98 37v-350l-112 -112q-38 -38 -63 -38
t-25 35q0 82 -95 174q-95 91 -95 191q0 50 50 83l140 97v720h-100q-89 0 -208 -162l7 41q21 121 -39 121h-243l-49 -133q106 -23 169 -73q63 -51 63 -130v-314h40q75 0 113 -32q37 -33 37 -98q0 -120 -127 -270l-170 -200q-43 -50 -68 -50t-25 40v860q0 60 -122 80
q-48 6 -48 46t25 100l145 374h300q70 0 70 -130q75 130 160 130h270v-900q138 0 206 -62q69 -63 69 -188q0 -150 70 -150q55 0 55 100v560q0 60 -142 80q-48 6 -48 46t25 100l165 414h800v-1350l-200 -200v1350h-583z" />
    <glyph glyph-name="uni178e.a" horiz-adv-x="3000" 
d="M400 309q90 89 90 150q0 41 -40 41h-50v-191zM2200 1270v-1120l-200 -200v1350h-583l-49 -133q106 -23 169 -73q63 -51 63 -130v-814l-75 -75q-75 -75 -100 -75t-93 82l-206 245l-241 -286q-35 -41 -60 -41t-25 40v1260h-583l-49 -133q106 -23 169 -73q63 -51 63 -130
v-314h50q150 0 150 -150t-131 -281l-175 -175q-44 -44 -69 -44t-25 40v860q0 60 -122 80q-48 6 -48 46t25 100l145 374h800v-1191l200 239l200 -239v591q0 60 -122 80q-48 6 -48 46t25 100l145 374h800v-102q164 102 300 102h300v-1350l-200 -200v1350h-200q-99 0 -200 -30z
" />
    <glyph glyph-name="uni178f.a" horiz-adv-x="1800" 
d="M298 1300l-24 -50q66 -27 120 -75q54 -47 8 -104q-46 -56 -108 -71q-30 53 -79 78q-48 25 -115 22l200 400h530q70 0 70 -130q75 130 160 130h540v-1350l-200 -200v1350h-370q-89 0 -208 -162l7 41q21 121 -39 121h-492zM200 40v760q0 100 175 200t225 100t159 -63
q241 -137 241 -237v-650l-200 -200v800q0 34 -138 114q-139 79 -176 79t-61 -15q-25 -14 -25 -128v-250h50q75 0 113 -25q37 -24 37 -74q0 -101 -131 -232l-175 -175q-44 -44 -69 -44t-25 40zM400 309q90 89 90 115t-40 26h-50v-141z" />
    <glyph glyph-name="uni1790.a" horiz-adv-x="1800" 
d="M800 892q-70 -69 -70 -105t40 -36h30v141zM200 900q0 60 -122 80q-48 6 -48 46t25 100l145 374h620q45 0 68 -30q22 -31 22 -92q41 42 47 77q7 36 -105 205q-112 170 -112 257q0 83 56 157q56 75 188 120q-79 -109 -79 -198q1 -60 68 -163t67 -233q0 -110 -21 -190
q153 90 281 90h300v-1350l-200 -200v1350h-200q-138 0 -279 -58q-65 -59 -120 -42q13 31 18 66q4 35 -40 34h-562l-49 -133q106 -23 169 -73q63 -51 63 -130v-554q0 -40 -20 -61q0 -33 144 -112q150 -80 188 -80t62 15q26 14 26 128v300h-30q-95 0 -132.5 39.5t-37.5 110.5
q0 101 131 232q118 118 164 118q105 0 105 -100v-700q0 -100 -179 -200q-180 -100 -231 -100t-163 63q-123 69 -185 128t-94 154q32 14 42 34.5t10 50.5v470z" />
    <glyph glyph-name="uni1791.a" horiz-adv-x="1800" 
d="M400 680v-330q0 -34 138 -114q139 -79 176 -79t61 15q25 14 25 128v314q71 -6 123 21.5t77 75.5v-411q0 -100 -175 -200t-225 -100t-159 63q-241 137 -241 237v280l113 113q37 37 62 37t25 -50zM991 1268l-44 -126q-50 -142 -171 -142t-329 126l172 129q93 -55 177 -55
t106 50t-32 50h-553l-66 -163l87 -83q86 -84 251 -128l274 -75q101 -27 167 67q0 -153 -77 -216q-78 -64 -147 -45l-68 20l-207 57q-206 58 -352 196l-49 46q0 124 43 224l127 300h730q0 -45 -5 -86q150 86 275 86h300v-1350l-200 -200v1350h-200q-103 0 -209 -32z" />
    <glyph glyph-name="uni1792.a" horiz-adv-x="1800" 
d="M800 892q-70 -69 -70 -105t40 -36h30v141zM200 900q0 60 -122 80q-48 6 -48 46t25 100l145 374h630q70 0 70 -130q75 130 160 130h540v-1350l-200 -200v1350h-370q-89 0 -208 -162l7 41q21 121 -39 121h-573l-49 -133q106 -23 169 -73q63 -51 63 -130v-655l200 239
l200 -239v291h-30q-95 0 -132.5 39.5t-37.5 110.5q0 101 131 232q118 118 164 118q105 0 105 -100v-850l-75 -75q-75 -75 -100 -75t-93 82l-206 245l-241 -286q-35 -41 -60 -41t-25 40v860z" />
    <glyph glyph-name="uni1793.a" horiz-adv-x="1800" 
d="M991 1268l-44 -126q-50 -142 -171 -142t-329 126l172 129q93 -55 177 -55t106 50t-32 50h-553l-66 -163l87 -83q86 -84 251 -128l274 -75q101 -27 167 67q0 -153 -77 -216q-78 -64 -147 -45l-68 20l-207 57q-206 58 -352 196l-49 46q0 124 43 224l127 300h730
q0 -45 -5 -86q150 86 275 86h300v-1350l-200 -200v1350h-200q-103 0 -209 -32zM200 580l113 113q37 37 62 37t25 -50v-371l200 239l200 -239v305q71 -6 123 21.5t77 75.5v-561l-75 -75q-75 -75 -100 -75t-93 82l-206 245l-241 -286q-35 -41 -60 -41t-25 40v540z" />
    <glyph glyph-name="uni1794.a" horiz-adv-x="1800" 
d="M800 88q-162 -88 -210 -88q-51 0 -163 63q-123 69 -185 128t-94 154q32 14 42 34.5t10 50.5v470q0 60 -122 80q-48 6 -48 46t25 100l145 374h630q70 0 70 -130q75 130 160 130h540v-1350l-200 -200v1350h-370q-89 0 -208 -162l7 41q21 121 -39 121h-573l-49 -133
q106 -23 169 -73q63 -51 63 -130v-554q0 -40 -20 -61q0 -33 144 -112q150 -80 188 -80t62 15q26 14 26 128v600l200 200v-1160q0 -106 -201 -221q-100 -58 -185 -67q-84 -9 -153 30t-136 43q-67 5 -145 -88q-5 50 6 89q12 39 66 94q54 56 135 73q82 18 163 -30
q163 -95 207 -69q43 25 43 96v198z" />
    <glyph glyph-name="uni1795.a" horiz-adv-x="1800" 
d="M800 892q-70 -69 -70 -105t40 -36h30v141zM200 900q0 60 -122 80q-48 6 -48 46t25 100l145 374h620q45 0 68 -30q22 -31 22 -92q41 42 47 77q7 36 -105 205q-112 170 -112 257q0 83 56 157q56 75 188 120q-79 -109 -79 -198q1 -60 68 -163t67 -233q0 -110 -21 -190
q153 90 281 90h300v-1350l-200 -200v1350h-200q-138 0 -279 -58q-65 -59 -120 -42q13 31 18 66q4 35 -40 34h-562l-49 -133q106 -23 169 -73q63 -51 63 -130v-655l200 239l200 -239v291h-30q-95 0 -132.5 39.5t-37.5 110.5q0 101 131 232q118 118 164 118q105 0 105 -100
v-850l-75 -75q-75 -75 -100 -75t-93 82l-206 245l-241 -286q-35 -41 -60 -41t-25 40v860z" />
    <glyph glyph-name="uni1796.a" horiz-adv-x="1800" 
d="M400 309q90 89 90 150q0 41 -40 41h-50v-191zM1400 40v1260h-120q-163 0 -280 -151v-999l-112 -112q-38 -38 -63 -38t-25 40v1260h-100q-89 0 -208 -162l7 41q21 121 -39 121h-243l-49 -133q106 -23 169 -73q63 -51 63 -130v-314h50q150 0 150 -150t-131 -281l-175 -175
q-44 -44 -69 -44t-25 40v860q0 60 -122 80q-48 6 -48 46t25 100l145 374h300q70 0 70 -130q75 130 160 130h270v-200q145 200 310 200h290v-1350l-112 -112q-38 -38 -63 -38t-25 40z" />
    <glyph glyph-name="uni1797.a" horiz-adv-x="1800" 
d="M298 1300l-24 -50q66 -27 120 -75q54 -47 8 -104q-46 -56 -108 -71q-30 53 -79 78q-48 25 -115 22l200 400h530q70 0 70 -130q75 130 160 130h540v-1350l-200 -200v1350h-370q-89 0 -208 -162l7 41q21 121 -39 121h-492zM302 58q-102 58 -102 200t100 182
q0 -152 100 -209q87 -49 119 -25q31 24 31 74q0 76 -44 140q-43 64 -131 114q-87 51 -131 130t-44 186q0 50 175 150t225 100t159 -63q241 -137 241 -237v-650l-200 -200v800q0 34 -138 114q-139 79 -176 79t-61 -15q-25 -14 -25 -78q0 -100 63 -136q93 -53 140 -139
t47 -205v-90q0 -110 -65 -195t-123 -85q-59 0 -160 58z" />
    <glyph glyph-name="uni1798.a" horiz-adv-x="1800" 
d="M400 604v-194q0 -40 -20 -61q0 -33 144 -112q150 -80 188 -80t62 15q26 14 26 128v312q-117 -77 -204 -73q-84 3 -196 65zM200 860q0 60 -142 80q-48 6 -48 46t25 100l165 414h300q0 -122 -26 -207q-27 -86 -90 -123q16 61 16 96q0 34 -50 34h-133l-69 -173
q126 -23 189 -74q63 -50 63 -129v-251l102 127q54 -105 125 -137q64 -28 173 -31v268q0 60 -122 80q-48 6 -48 46t25 100l145 374h800v-1350l-200 -200v1350h-583l-49 -133q106 -23 169 -73q63 -51 63 -130v-664q0 -100 -179 -200q-180 -100 -231 -100t-163 63
q-123 69 -185 128t-94 154q32 14 42 34.5t10 50.5v430z" />
    <glyph glyph-name="uni1799.a" horiz-adv-x="2400" 
d="M895 147q-32 -24 -74 -47q-180 -100 -231 -100t-163 63q-123 69 -185 128t-94 154q32 14 42 34.5t10 50.5v470q-90 20 -130 100t-40 180q0 120 65 220t205 100q100 0 150 -50t50 -150t-130 -138q-131 -38 -150 44q80 64 80 99t-50 35q-55 0 -82 -42q-28 -41 -28 -124
q0 -47 57 -68q57 -22 203 -6v-690q0 -40 -20 -61q0 -33 144 -112q150 -80 188 -80t62 15q26 14 26 128v560q0 60 -142 80q-48 6 -48 46t25 100l165 414h300q0 -122 -26 -207q-27 -86 -90 -123q16 61 16 96q0 34 -50 34h-133l-69 -173q126 -23 189 -74q63 -50 63 -129v-606
q34 -32 124 -81q150 -80 188 -80t62 15q26 14 26 128v560q0 60 -142 80q-48 6 -48 46t25 100l165 414h800v-1350l-200 -200v1350h-583l-69 -173q126 -23 189 -74q63 -50 63 -129v-624q0 -100 -179 -200q-180 -100 -231 -100t-163 63q-78 44 -132 84z" />
    <glyph glyph-name="uni179a.a" horiz-adv-x="1200" 
d="M203 484l-53 -43l53 -62v105zM200 900q0 60 -122 80q-48 6 -48 46t25 100l145 374h230q70 0 70 -130q75 130 160 130h340v-1350l-200 -200v1350h-170q-89 0 -208 -162l7 41q21 121 -39 121h-173l-49 -133q106 -23 169 -73q63 -51 63 -130v-814l-112 -112q-38 -38 -63 -38
t-25 35q0 82 -95 174q-95 91 -95 191q0 50 50 83l140 97v320z" />
    <glyph glyph-name="uni179b.a" horiz-adv-x="2400" 
d="M400 309q90 89 90 150q0 41 -40 41h-50v-191zM1600 300q0 -100 -179 -200q-180 -100 -231 -100t-163 63q-123 69 -185 128t-94 154q32 14 42 34.5t10 50.5v870h-583l-49 -133q106 -23 169 -73q63 -51 63 -130v-314h50q150 0 150 -150t-131 -281l-175 -175
q-44 -44 -69 -44t-25 40v860q0 60 -122 80q-48 6 -48 46t25 100l145 374h800v-1090q0 -40 -20 -61q0 -33 144 -112q150 -80 188 -80t62 15q26 14 26 128v560q0 60 -142 80q-48 6 -48 46t25 100l165 414h800v-1350l-200 -200v1350h-583l-69 -173q126 -23 189 -74
q63 -50 63 -129v-624z" />
    <glyph glyph-name="uni179c.a" horiz-adv-x="1200" 
d="M203 484l-53 -43l53 -62v105zM479 1271q-81 -92 -148 -71q13 31 18 66q4 35 -40 34h-92l-69 -173q126 -23 189 -74q63 -50 63 -129v-774l-112 -112q-38 -38 -63 -38t-25 35q0 82 -95 174q-95 91 -95 191q0 50 50 83l140 97v280q0 60 -142 80q-48 6 -48 46t25 100l165 414
h150q45 0 68 -30q22 -31 22 -92q41 42 47 77q7 36 -105 205q-112 170 -112 257q0 83 56 157q56 75 188 120q-79 -109 -79 -198q1 -60 68 -163t67 -233q0 -86 -13 -154q104 54 203 54h240v-1350l-200 -200v1350h-200q-61 0 -121 -29z" />
    <glyph glyph-name="uni179d.a" horiz-adv-x="1800" 
d="M298 1300l-24 -50q66 -27 120 -75q54 -47 8 -104q-46 -56 -108 -71q-30 53 -79 78q-48 25 -115 22l200 400h530q70 0 70 -130q75 130 160 130h540v-1350l-200 -200v1350h-370q-89 0 -208 -162l7 41q21 121 -39 121h-492zM800 590v160q0 34 -138 114q-139 79 -176 79
t-61 -15q-25 -14 -25 -128v-451q65 151 162 151q43 0 91 -35q47 -36 47 -100q0 -65 -100 -110q-18 45 -75 45q-28 0 -59 -37l-185 -225q-31 -38 -56 -38t-25 40v760q0 100 175 200t225 100t159 -63q241 -137 241 -237v-322q64 -17 160 -16q-88 -63 -160 -83v-229l-200 -200
v450q-51 21 -108 56z" />
    <glyph glyph-name="uni179e.a" horiz-adv-x="1800" 
d="M1000 545v-605q0 -106 -201 -221q-100 -58 -185 -67q-84 -9 -153 30t-136 43q-67 5 -145 -88q-5 50 6 89q12 39 66 94q54 56 135 73q82 18 163 -30q163 -95 207 -69q43 25 43 96v198q-162 -88 -210 -88q-51 0 -163 63q-123 69 -185 128t-94 154q32 14 42 34.5t10 50.5
v470q0 60 -122 80q-48 6 -48 46t25 100l145 374h630q70 0 70 -130q75 130 160 130h540v-1350l-200 -200v1350h-370q-89 0 -208 -162l7 41q21 121 -39 121h-573l-49 -133q106 -23 169 -73q63 -51 63 -130v-554q0 -40 -20 -61q0 -33 144 -112q150 -80 188 -80t62 15
q26 14 26 128v256q-57 22 -122 62l122 152v130l200 200v-463q60 -14 146 -13q-79 -57 -146 -79z" />
    <glyph glyph-name="uni179f.a" horiz-adv-x="2400" 
d="M401 309q90 89 90 115t-40 26h-50v-141zM341 979q-37 53 -70 83q-44 38 -160 38l200 400h670q0 -122 -26 -207q-27 -86 -110 -142q21 80 26 115q4 35 -40 34h-522l-24 -50q90 -39 149 -100q37 -39 62 -86q75 36 105 36q50 0 159 -63q241 -137 241 -237v-390
q0 -40 -20 -61q0 -33 144 -112q150 -80 188 -80t62 15q26 14 26 128v560q0 60 -142 80q-48 6 -48 46t25 100l165 414h799v-1350l-200 -200v1350h-582l-69 -173q126 -23 189 -74q63 -50 63 -129v-624q0 -100 -179 -200q-180 -100 -231 -100t-163 63q-123 69 -185 128t-94 154
q32 14 42 34.5t10 50.5v320q0 34 -138 114q-139 79 -176 79t-61 -15q-25 -14 -25 -128v-250h50q75 0 113 -25q37 -24 37 -74q0 -101 -131 -232l-175 -175q-44 -44 -69 -44t-25 40v760q0 89 140 179z" />
    <glyph glyph-name="uni17a0.a" horiz-adv-x="2400" 
d="M1600 1149v-999l-200 -200v1350h-583l-49 -133q106 -23 169 -73q63 -51 63 -130v-664q0 -100 -179 -200q-180 -100 -231 -100t-163 63q-123 69 -185 128t-94 154q32 14 42 34.5t10 50.5v430q0 60 -142 80q-48 6 -48 46t25 100l165 414h300q0 -122 -26 -207
q-27 -86 -90 -123q16 61 16 96q0 34 -50 34h-133l-69 -173q126 -23 189 -74q63 -50 63 -129v-514q0 -40 -20 -61q0 -33 144 -112q150 -80 188 -80t62 15q26 14 26 128v600q0 60 -122 80q-48 6 -48 46t25 100l145 374h800v-200q145 200 310 200h290v-1350l-200 -200v1350
h-120q-163 0 -280 -151z" />
    <glyph glyph-name="uni17a1.a" horiz-adv-x="2400" 
d="M179 930l-49 46q0 124 43 224l127 300h730q0 -122 -33 -216l-50 -142q-50 -142 -171 -142t-329 126l172 129q93 -55 177 -55t106 50t-32 50h-553l-66 -163l87 -83q86 -84 251 -128l274 -75q101 -27 167 67q0 -153 -77 -216q-78 -64 -147 -45l-68 20l-207 57
q-206 58 -352 196zM400 680v-330q0 -34 138 -114q139 -79 176 -79t61 15q25 14 25 128v314q71 -6 123 21.5t77 75.5v-411q0 -100 -175 -200t-225 -100t-159 63q-241 137 -241 237v280l113 113q37 37 62 37t25 -50zM800 -382v73l-40 -42zM1600 -650l-75 -75q-75 -75 -100 -75
t-93 82l-206 245l-241 -286q-35 -41 -60 -41t-25 40v240l-127 98q-43 32 -43 72t48 93l95 105q47 52 107 52q59 0 120 -60v-331l200 239l200 -239v1351q0 60 -142 80q-48 6 -48 46t25 100l165 414h800v-1350l-200 -200v1350h-583l-69 -173q126 -23 189 -74q63 -50 63 -129
v-1574z" />
    <glyph glyph-name="uni17a2.a" horiz-adv-x="1800" 
d="M203 484l-53 -43l53 -62v105zM803 484l-53 -43l53 -62v105zM400 674v-524l-112 -112q-38 -38 -63 -38t-25 35q0 82 -95 174q-95 91 -95 191q0 50 50 83l140 97v280q0 60 -142 80q-48 6 -48 46t25 100l165 414h300q0 -122 -26 -207q-27 -86 -90 -123q16 61 16 96
q0 34 -50 34h-133l-69 -173q126 -23 189 -74q63 -50 63 -129v-181l102 127q54 -105 125 -137q64 -28 173 -31v158q0 60 -142 80q-48 6 -48 46t25 100l165 414h800v-1350l-200 -200v1350h-583l-69 -173q126 -23 189 -74q63 -50 63 -129v-774l-112 -112q-38 -38 -63 -38
t-25 35q0 82 -95 174q-95 91 -95 191q0 50 50 83l140 97v102q-117 -77 -204 -73q-84 3 -196 65z" />
    <glyph glyph-name="uni1783.sub.a" horiz-adv-x="1200" 
d="M400 -580q0 -70 -176 -145.5t-225 -75.5t-157 45q-75 31 -127 59q-31 -17 -71 -33q-173 -71 -222 -71t-157 45q-118 48 -178 90q-59 41 -90 108q31 10 40.5 24t9.5 35v169q140 10 186 50q45 39 45 53t-26.5 29t-60.5 15q-48 0 -48 -24q0 -32 58 -35q1 -43 -124 -41
q-126 2 -126 79q0 35 58 70q57 35 134 35q116 0 178.5 -31.5t62.5 -87.5t-39 -119q-38 -63 -106 -113v-63q0 -28 -19 -43q0 -23 139 -78q144 -56 180 -56q37 0 60 10q25 10 25 90v112q0 43 -137 57q-46 4 -46 32t24 70l130 220h288q0 -85 -11 -110t-71 -72q15 42 -62 42
h-128l-37 -51q121 -16 181 -52q61 -35 61 -91v-144q33 -23 119 -57q144 -56 181 -56q36 0 60 10t24 90v1450q0 60 -142 80q-48 6 -48 46t25 100l165 414h800v-1350l-200 -200v1350h-583l-69 -173q126 -23 189 -74q63 -50 63 -129v-1504z" />
    <glyph glyph-name="uni1788.sub.a" horiz-adv-x="1200" 
d="M-925 -667q66 32 66 64q0 26 -30 26h-36v-90zM400 -500q0 -172 -145 -236q-144 -64 -183 -64q-36 0 -118 41q-58 28 -99 53q-23 -15 -53 -30q-134 -64 -172 -64q-37 0 -120 41q-90 43 -136 81t-70 98q24 9 31.5 22t7.5 32v299h-419l-20 -53q78 -14 124 -46q47 -33 47 -83
v-72h36q111 0 111 -96q0 -98 -187 -223l-108 85v265q0 39 -90 51q-37 4 -37 30q0 25 20 63l93 206h577v-439q0 -25 -14 -38q0 -21 106 -72q111 -51 139 -51t46 10q19 9 19 81v134q0 38 -105 51q-36 4 -36 29q0 26 20 64l98 231h223q0 -77 -20 -131q-20 -55 -37.5 -47.5
t-17.5 30.5q0 21 -37 21h-97l-29 -78q93 -15 139 -47q47 -32 47 -82v-163q24 -21 91 -52q110 -51 137 -51q38 0 38 150v1410q0 60 -142 80q-48 6 -48 46t25 100l165 414h800v-1350l-200 -200v1350h-583l-69 -173q126 -23 189 -74q63 -50 63 -129v-1424z" />
    <glyph glyph-name="uni178d.sub.a" horiz-adv-x="1200" 
d="M-334 -566l-48 -26l48 -38v64zM-704 -660q71 54 71 85q0 19 -34 19h-37v-104zM400 -550q0 -100 -59 -175t-177 -75q-98 0 -148 54q-49 53 -49 98q0 46 -29 69q-31 23 -90 23v-152l-93 -92h-104q-20 33 -75 67q-87 55 -87 116q0 30 46 50l129 59v286h-92q-82 0 -192 -99
l7 25q19 74 -36 74h-242l-27 -51q98 -13 156 -44t58 -79v-69h37q69 0 103 -20q35 -20 35 -59q0 -73 -117 -164l-119 -92h-28l-95 62v303q0 37 -111 49l-1 126l93 159h295q64 0 64 -79q69 79 147 79h249v-395q127 0 189 -37q63 -39 63 -95q0 -50 50 -50t50 78v1460
q0 60 -142 80q-48 6 -48 46t25 100l165 414h800v-1350l-200 -200v1350h-583l-69 -173q126 -23 189 -74q63 -50 63 -129v-1474z" />
    <glyph glyph-name="uni1794.sub.a" horiz-adv-x="1200" 
d="M-200 -295q50 32 50 86t-50 20v-106zM400 -673l-153 -127h-127l-194 227l-195 -227h-25l-106 102v448q0 50 101 125t170 75q65 0 97 -36t32 -109q0 -52 -50 -103q-50 -52 -150 -102v-191l200 239l200 -239v1451q0 60 -142 80q-48 6 -48 46t25 100l165 414h800v-1350
l-200 -200v1350h-583l-69 -173q126 -23 189 -74q63 -50 63 -129v-1597z" />
    <glyph glyph-name="uni1799.sub.a" horiz-adv-x="1200" 
d="M-200 -295q50 32 50 86t-50 20v-106zM400 -500q0 -100 -175 -200t-225 -100t-159 63q-241 137 -241 237v250q0 50 101 125t170 75q65 0 97 -36t32 -109q0 -52 -50 -103q-50 -52 -150 -102v-50q0 -34 138 -114q139 -79 176 -79t61 15q25 14 25 128v1360q0 60 -142 80
q-48 6 -48 46t25 100l165 414h800v-1350l-200 -200v1350h-583l-69 -173q126 -23 189 -74q63 -50 63 -129v-1424z" />
    <glyph glyph-name="uni179e.sub.a" horiz-adv-x="1200" 
d="M-200 -295q50 32 50 86t-50 20v-106zM400 126q74 -7 175 10q-93 -79 -175 -112v-697l-153 -127h-127l-194 227l-195 -227h-25l-106 102v448q0 50 101 125t170 75q65 0 97 -36t32 -109q0 -52 -50 -103q-50 -52 -150 -102v-191l200 239l200 -239v596q-77 10 -170 41
l112 213q29 -27 58 -48v649q0 60 -142 80q-48 6 -48 46t25 100l165 414h800v-1350l-200 -200v1350h-583l-69 -173q126 -23 189 -74q63 -50 63 -129v-798z" />
    <glyph glyph-name="uni179f.sub.a" horiz-adv-x="1200" 
d="M-400 -345v46q-50 -36 -40 -52t40 6zM200 860q0 60 -142 80q-48 6 -48 46t25 100l165 414h800v-1350l-200 -200v1350h-583l-69 -173q126 -23 189 -74q63 -50 63 -129v-798q74 -7 175 10q-93 -79 -175 -112v-524q0 -100 -175 -200t-225 -100t-159 63q-241 137 -241 237v60
q-63 -31 -111 5q-49 35 -49 85t90 150t150 100q59 0 120 -60v-290q0 -34 138 -114q139 -79 176 -79t61 15q25 14 25 128v505q-77 10 -170 41l112 213q29 -27 58 -48v649z" />
    <glyph glyph-name="uni1783.sub.alt.a" horiz-adv-x="1200" 
d="M400 -1226q0 -55 -176 -114.5t-225 -59.5t-157 36q-75 24 -127 46q-31 -13 -71 -26q-173 -56 -222 -56t-157 36q-118 37 -178 70q-59 32 -90 85q31 8 40.5 19t9.5 27v133q140 7 186 39q45 30 45 41t-26.5 23t-60.5 12q-48 0 -48 -19q0 -25 58 -28q1 -33 -124 -32
q-126 2 -126 62q0 28 58 55q57 27 134 27q116 0 178.5 -24.5t62.5 -68.5t-39 -93q-38 -49 -106 -89v-49q0 -22 -19 -34q0 -18 139 -61q144 -44 180 -44q37 0 60 8q25 8 25 71v88q0 33 -137 44q-46 3 -46 25t24 55l130 172h288q0 -66 -11 -85.5t-71 -56.5q15 33 -62 33h-128
l-37 -40q121 -13 181 -41q61 -27 61 -71v-113q33 -18 119 -45q144 -44 181 -44q36 0 60 8t24 71v2094q0 60 -142 80q-48 6 -48 46t25 100l165 414h800v-1350l-200 -200v1350h-583l-69 -173q126 -23 189 -74q63 -50 63 -129v-2150z" />
    <glyph glyph-name="uni1788.sub.alt.a" horiz-adv-x="1200" 
d="M-925 -1295q66 25 66 50q0 21 -30 21h-36v-71zM400 -1164q0 -135 -145 -185q-144 -51 -183 -51q-36 0 -118 33q-58 22 -99 41q-23 -11 -53 -23q-134 -51 -172 -51q-37 0 -120 33q-90 33 -136 63t-70 77q24 7 31.5 17.5t7.5 25.5v235h-419l-20 -42q78 -11 124 -36
q47 -26 47 -65v-57h36q111 0 111 -75q0 -77 -187 -176l-108 67v208q0 31 -90 41q-37 3 -37 23t20 50l93 161h577v-344q0 -20 -14 -30q0 -17 106 -57q111 -40 139 -40t46 8q19 7 19 64v105q0 30 -105 40q-36 3 -36 23t20 50l98 181h223q0 -60 -20 -102q-20 -44 -37.5 -38
t-17.5 24q0 17 -37 17h-97l-29 -62q93 -11 139 -37q47 -25 47 -64v-128q24 -17 91 -41q110 -40 137 -40q38 0 38 118v2063q0 60 -142 80q-48 6 -48 46t25 100l165 414h800v-1350l-200 -200v1350h-583l-69 -173q126 -23 189 -74q63 -50 63 -129v-2088z" />
    <glyph glyph-name="uni178d.sub.alt.a" horiz-adv-x="1200" 
d="M-334 -1215l-48 -21l48 -30v51zM-704 -1289q71 42 71 67q0 14 -34 14h-37v-81zM400 -1203q0 -78 -59 -137.5t-177 -59.5q-98 0 -148 43q-49 42 -49 77q0 36 -29 54q-31 18 -90 18v-119l-93 -73h-104q-20 26 -75 53q-87 43 -87 91q0 24 46 40l129 46v225h-92
q-82 0 -192 -78l7 20q19 58 -36 58h-242l-27 -40q98 -10 156 -34q58 -25 58 -63v-54h37q69 0 103 -16q35 -15 35 -46q0 -58 -117 -129l-119 -73h-28l-95 49v239q0 29 -111 38l-1 99l93 125h295q64 0 64 -62q69 62 147 62h249v-310q127 0 189 -29q63 -31 63 -75q0 -40 50 -40
t50 62v2102q0 60 -142 80q-48 6 -48 46t25 100l165 414h800v-1350l-200 -200v1350h-583l-69 -173q126 -23 189 -74q63 -50 63 -129v-2127z" />
    <glyph glyph-name="uni1794.sub.alt.a" horiz-adv-x="1200" 
d="M-200 -996q50 26 50 69t-50 16v-85zM400 -1298l-153 -102h-127l-194 182l-195 -182h-25l-106 82v358q0 40 101 100t170 60q65 0 97 -28q32 -29 32 -88q0 -41 -50 -82q-50 -42 -150 -82v-152l200 191l200 -191v2092q0 60 -142 80q-48 6 -48 46t25 100l165 414h800v-1350
l-200 -200v1350h-583l-69 -173q126 -23 189 -74q63 -50 63 -129v-2222z" />
    <glyph glyph-name="uni1799.sub.alt.a" horiz-adv-x="1200" 
d="M-200 -996q50 26 50 69t-50 16v-85zM400 -1160q0 -80 -175 -160t-225 -80t-159 51q-241 109 -241 189v200q0 40 101 100t170 60q65 0 97 -28q32 -29 32 -88q0 -41 -50 -82q-50 -42 -150 -82v-40q0 -27 138 -91q139 -63 176 -63t61 12q25 11 25 102v2020q0 60 -142 80
q-48 6 -48 46t25 100l165 414h800v-1350l-200 -200v1350h-583l-69 -173q126 -23 189 -74q63 -50 63 -129v-2084z" />
    <glyph glyph-name="uni179e.sub.alt.a" horiz-adv-x="1200" 
d="M-200 -996q50 26 50 69t-50 16v-85zM400 126q74 -7 175 10q-93 -79 -175 -112v-1322l-153 -102h-127l-194 182l-195 -182h-25l-106 82v358q0 40 101 100t170 60q65 0 97 -28q32 -29 32 -88q0 -41 -50 -82q-50 -42 -150 -82v-152l200 191l200 -191v1237q-77 10 -170 41
l112 213q29 -27 58 -48v649q0 60 -142 80q-48 6 -48 46t25 100l165 414h800v-1350l-200 -200v1350h-583l-69 -173q126 -23 189 -74q63 -50 63 -129v-798z" />
    <glyph glyph-name="uni179f.sub.alt.a" horiz-adv-x="1200" 
d="M-400 -1042v36q-50 -28 -40 -41q10 -12 40 5zM400 126q74 -7 175 10q-93 -79 -175 -112v-1188q0 -78 -175 -157t-225 -79t-159 50q-241 108 -241 186v47q-63 -24 -111 4q-49 28 -49 67t90 118q90 78 150 78q59 0 120 -47v-228q0 -26 138 -89q139 -62 176 -62t61 12
q25 11 25 100v1169q-77 10 -170 41l112 213q29 -27 58 -48v649q0 60 -142 80q-48 6 -48 46t25 100l165 414h800v-1350l-200 -200v1350h-583l-69 -173q126 -23 189 -74q63 -50 63 -129v-798z" />
    <glyph glyph-name="uni1780.au" horiz-adv-x="1800" 
d="M200 -50v850q0 100 175 200t225 100t159 -63q241 -137 241 -237v-650l-200 -200v800q0 34 -138 114q-139 79 -176 79t-61 -15q-25 -14 -25 -128v-650zM1400 1242v58h-370q-89 0 -208 -162l7 41q21 121 -39 121h-492l-24 -50q66 -27 120 -75q54 -47 8 -104
q-46 -56 -108 -71q-30 53 -79 78q-48 25 -115 22l200 400h530q70 0 70 -130q75 130 160 130h427q-16 71 -75 160q-112 170 -112 257q0 83 56 157q56 75 188 120q-79 -109 -79 -198q1 -60 68 -163t67 -233q0 -54 -5 -100h5v-1350l-200 -200v1247q-20 -3 -39 3q21 20 39 42z
" />
    <glyph glyph-name="uni1781.au" horiz-adv-x="1800" 
d="M399 1005q68 38 68 57q0 28 -34 28h-34v-85zM1400 1242v58h-200q-110 0 -222 -37q21 -33 21 -63v-200q0 -90 -300 -290l-300 -200v-210q0 -114 25 -128q24 -15 61 -15t176 79q138 80 138 114v200l200 200v-450q0 -100 -241 -237q-109 -63 -159 -63t-225 100t-175 200v330
q200 0 400 140t200 230v150q0 34 -138 114q-139 79 -176 79t-61 -15q-25 -14 -25 -128h40q160 0 160 -105t-150 -200t-205 -95q-45 0 -45 80v320q0 100 175 200t225 100t159 -63q94 -53 151 -101q218 164 391 164h187q-16 71 -75 160q-112 170 -112 257q0 83 56 157
q56 75 188 120q-79 -109 -79 -198q1 -60 68 -163t67 -233q0 -54 -5 -100h5v-1350l-200 -200v1247q-20 -3 -39 3q21 20 39 42z" />
    <glyph glyph-name="uni1782.au" horiz-adv-x="1800" 
d="M225 0q-25 0 -25 40v760q0 100 175 200t225 100t159 -63q241 -137 241 -237v-650l-200 -200v800q0 34 -138 114q-139 79 -176 79t-61 -15q-25 -14 -25 -128v-451q65 151 162 151q43 0 91 -35q47 -36 47 -100q0 -65 -100 -110q-18 45 -75 45q-28 0 -59 -37l-185 -225
q-31 -38 -56 -38zM1400 1242v58h-370q-89 0 -208 -162l7 41q21 121 -39 121h-492l-24 -50q66 -27 120 -75q54 -47 8 -104q-46 -56 -108 -71q-30 53 -79 78q-48 25 -115 22l200 400h530q70 0 70 -130q75 130 160 130h427q-16 71 -75 160q-112 170 -112 257q0 83 56 157
q56 75 188 120q-79 -109 -79 -198q1 -60 68 -163t67 -233q0 -54 -5 -100h5v-1350l-200 -200v1247q-20 -3 -39 3q21 20 39 42z" />
    <glyph glyph-name="uni1783.au" horiz-adv-x="2400" 
d="M2000 1242v58h-583l-49 -133q106 -23 169 -73q63 -51 63 -130v-664q0 -100 -179 -200q-180 -100 -231 -100t-163 63q-78 44 -132 84q-32 -24 -74 -47q-180 -100 -231 -100t-163 63q-123 69 -185 128t-94 154q32 14 42 34.5t10 50.5v640q146 14 193 71q47 56 47 113
q0 43 -27.5 64.5t-62.5 21.5q-50 0 -50 -45t60 -49q1 -82 -129 -79q-131 3 -131 133q0 100 60 150t140 50q120 0 185 -70t65 -170q0 -110 -40 -200t-110 -160v-490q0 -40 -20 -61q0 -33 144 -112q150 -80 188 -80t62 15q26 14 26 128v560q0 60 -142 80q-48 6 -48 46t25 100
l165 414h300q0 -122 -26 -207q-27 -86 -90 -123q16 61 16 96q0 34 -50 34h-133l-69 -173q126 -23 189 -74q63 -50 63 -129v-606q34 -32 124 -81q150 -80 188 -80t62 15q26 14 26 128v600q0 60 -122 80q-48 6 -48 46t25 100l145 374h687q-16 71 -75 160q-112 170 -112 257
q0 83 56 157q56 75 188 120q-79 -109 -79 -198q1 -60 68 -163t67 -233q0 -54 -5 -100h5v-1350l-200 -200v1247q-20 -3 -39 3q21 20 39 42z" />
    <glyph glyph-name="uni1784.au" horiz-adv-x="1800" 
d="M729 1300q63 2 75 13q14 12 -8 41q-66 86 -101 26q-21 -25 34 -80zM200 638v73l-40 -42zM1400 1242v58h-200q-116 0 -235 -41q-20 -23 -52 -46q-20 -14 -41 -25q128 -103 128 -188v-850l-75 -75q-75 -75 -100 -75t-93 82l-206 245l-241 -286q-35 -41 -60 -41t-25 40v470
l-127 98q-43 32 -43 82q0 100 48 153l95 105q47 52 107 52q59 0 120 -60v-631l200 239l200 -239v691q0 75 -59 152q-20 -2 -41 -2h-200q-160 0 -200 -50q-100 30 -100 100v470q0 40 -24 40t-76 -30q100 220 180 220q120 0 120 -230v-370h216q-16 28 -16 49q0 71 50 121
t150 50t150 -60q28 -34 40 -68q170 108 310 108h187q-16 71 -75 160q-112 170 -112 257q0 83 56 157q56 75 188 120q-79 -109 -79 -198q1 -60 68 -163t67 -233q0 -54 -5 -100h5v-1350l-200 -200v1247q-20 -3 -39 3q21 20 39 42z" />
    <glyph glyph-name="uni1785.au" horiz-adv-x="1800" 
d="M800 892q-70 -69 -70 -105t40 -36h30v141zM1400 1242v58h-370q-89 0 -208 -162l7 41q21 121 -39 121h-573l-49 -133q106 -23 169 -73q63 -51 63 -130v-554q0 -40 -20 -61q0 -33 144 -112q150 -80 188 -80t62 15q26 14 26 128v300h-30q-95 0 -132.5 39.5t-37.5 110.5
q0 101 131 232q118 118 164 118q105 0 105 -100v-700q0 -100 -179 -200q-180 -100 -231 -100t-163 63q-123 69 -185 128t-94 154q32 14 42 34.5t10 50.5v470q0 60 -122 80q-48 6 -48 46t25 100l145 374h630q70 0 70 -130q75 130 160 130h427q-16 71 -75 160
q-112 170 -112 257q0 83 56 157q56 75 188 120q-79 -109 -79 -198q1 -60 68 -163t67 -233q0 -54 -5 -100h5v-1350l-200 -200v1247q-20 -3 -39 3q21 20 39 42z" />
    <glyph glyph-name="uni1786.au" horiz-adv-x="1800" 
d="M800 892q-70 -69 -70 -105t40 -36h30v141zM203 484l-53 -43l53 -62v105zM1400 1242v58h-370q-89 0 -208 -162l7 41q21 121 -39 121h-573l-49 -133q106 -23 169 -73q63 -51 63 -130v-364q138 0 206 -62q69 -63 69 -188q0 -150 70 -150q55 0 55 100v300h-30q-47 0 -81 10
q-33 10 -51 30q-38 39 -38 110q0 101 131 232q118 118 164 118q105 0 105 -100v-700q0 -150 -64 -225q-63 -75 -191 -75q-107 0 -161 88q-54 87 -54 262q0 75 -32 113q-33 37 -98 37v-350l-112 -112q-38 -38 -63 -38t-25 35q0 82 -95 174q-95 91 -95 191q0 50 50 83l140 97
v320q0 60 -122 80q-48 6 -48 46t25 100l145 374h630q70 0 70 -130q75 130 160 130h427q-16 71 -75 160q-112 170 -112 257q0 83 56 157q56 75 188 120q-79 -109 -79 -198q1 -60 68 -163t67 -233q0 -54 -5 -100h5v-1350l-200 -200v1247q-20 -3 -39 3q21 20 39 42z" />
    <glyph glyph-name="uni1787.au" horiz-adv-x="1800" 
d="M1400 1242v58h-200q-138 0 -279 -58q-65 -59 -120 -42q13 31 18 66q4 35 -40 34h-562l-49 -133q106 -23 169 -73q63 -51 63 -130v-655l200 239l200 -239v591l200 200v-950l-75 -75q-75 -75 -100 -75t-93 82l-206 245l-241 -286q-35 -41 -60 -41t-25 40v860q0 60 -122 80
q-48 6 -48 46t25 100l145 374h620q45 0 68 -30q22 -31 22 -92q41 42 47 77q7 36 -105 205q-112 170 -112 257q0 83 56 157q56 75 188 120q-79 -109 -79 -198q1 -60 68 -163t67 -233q0 -110 -21 -190q153 90 281 90h187q-16 71 -75 160q-112 170 -112 257q0 83 56 157
q56 75 188 120q-79 -109 -79 -198q1 -60 68 -163t67 -233q0 -54 -5 -100h5v-1350l-200 -200v1247q-20 -3 -39 3q21 20 39 42z" />
    <glyph glyph-name="uni1788.au" horiz-adv-x="3000" 
d="M400 309q90 89 90 150q0 41 -40 41h-50v-191zM2600 1242v58h-583l-49 -133q106 -23 169 -73q63 -51 63 -130v-664q0 -100 -179 -200q-180 -100 -231 -100t-163 63q-78 44 -132 84q-32 -24 -74 -47q-180 -100 -231 -100t-163 63q-123 69 -185 128t-94 154q32 14 42 34.5
t10 50.5v870h-583l-49 -133q106 -23 169 -73q63 -51 63 -130v-314h50q150 0 150 -150t-131 -281l-175 -175q-44 -44 -69 -44t-25 40v860q0 60 -122 80q-48 6 -48 46t25 100l145 374h800v-1090q0 -40 -20 -61q0 -33 144 -112q150 -80 188 -80t62 15q26 14 26 128v560
q0 60 -142 80q-48 6 -48 46t25 100l165 414h300q0 -122 -26 -207q-27 -86 -90 -123q16 61 16 96q0 34 -50 34h-133l-69 -173q126 -23 189 -74q63 -50 63 -129v-606q34 -32 124 -81q150 -80 188 -80t62 15q26 14 26 128v600q0 60 -122 80q-48 6 -48 46t25 100l145 374h687
q-16 71 -75 160q-112 170 -112 257q0 83 56 157q56 75 188 120q-79 -109 -79 -198q1 -60 68 -163t67 -233q0 -54 -5 -100h5v-1350l-200 -200v1247q-20 -3 -39 3q21 20 39 42z" />
    <glyph glyph-name="uni1789.au" horiz-adv-x="2400" 
d="M400 309q90 89 90 150q0 41 -40 41h-50v-191zM191 -399q-40 48 66 174q106 125 283 125t438 -150t367 -150q105 0 105 45t-40 85q-41 39 -140 40l150 150q180 -60 180 -180t-63 -180q-64 -60 -191 -60q-334 0 -551 123q-279 157 -342 157q-103 0 -182 -89zM2000 1242v58
h-120q-163 0 -280 -151v-999l-112 -112q-38 -38 -63 -38t-25 40v1260h-120q-163 0 -280 -151v-999l-112 -112q-38 -38 -63 -38t-25 40v1260h-100q-89 0 -208 -162l7 41q21 121 -39 121h-243l-49 -133q106 -23 169 -73q63 -51 63 -130v-314h50q150 0 150 -150t-131 -281
l-175 -175q-44 -44 -69 -44t-25 40v860q0 60 -122 80q-48 6 -48 46t25 100l145 374h300q70 0 70 -130q75 130 160 130h270v-200q145 200 310 200h290v-200q145 200 310 200h177q-16 71 -75 160q-112 170 -112 257q0 83 56 157q56 75 188 120q-79 -109 -79 -198
q1 -60 68 -163t67 -233q0 -54 -5 -100h5v-1350l-200 -200v1247q-20 -3 -39 3q21 20 39 42z" />
    <glyph glyph-name="uni178a.au" horiz-adv-x="1800" 
d="M400 900v-591l200 239l200 -239v591l200 200v-950l-75 -75q-75 -75 -100 -75t-93 82l-206 245l-241 -286q-35 -41 -60 -41t-25 40v860h200zM1400 1242v58h-200q-139 0 -281 -59q-47 -56 -120 -113q-201 -157 -435 -93q-234 63 -234 146q0 40 94 188q62 83 138 114
q76 30 165 8q90 -23 113 -65q23 -41 -20 -101q-67 -93 -225 -54q22 41 -29 54q-52 12 -77 -23q-26 -36 181 -89q206 -54 308 28q103 81 32 213q-70 132 -70 262q0 67 49 127q48 60 162 96q-68 -88 -68 -159q1 -38 59 -141t58 -207q0 -18 -3 -36q166 104 303 104h187
q-16 71 -75 160q-112 170 -112 257q0 83 56 157q56 75 188 120q-79 -109 -79 -198q1 -60 68 -163t67 -233q0 -54 -5 -100h5v-1350l-200 -200v1247q-20 -3 -39 3q21 20 39 42z" />
    <glyph glyph-name="uni178b.au" horiz-adv-x="1800" 
d="M1400 1242v58h-100q-149 0 -226 -23q-84 -99 -153 -77q13 31 18 66q4 35 -40 34h-82l-69 -173q126 -23 189 -74q63 -50 63 -129v-624q0 -100 -179 -200q-180 -100 -231 -100t-163 63q-123 69 -185 128t-94 154q32 14 42 34.5t10 50.5v640q146 14 193 71q47 56 47 113
q0 43 -27.5 64.5t-62.5 21.5q-50 0 -50 -45t60 -49q1 -82 -129 -79q-131 3 -131 133q0 100 60 150t140 50q120 0 185 -70t65 -170q0 -110 -40 -200t-110 -160v-490q0 -40 -20 -61q0 -33 144 -112q150 -80 188 -80t62 15q26 14 26 128v560q0 60 -142 80q-48 6 -48 46t25 100
l165 414h140q45 0 68 -30q22 -31 22 -92q41 42 47 77q7 36 -105 205q-112 170 -112 257q0 83 56 157q56 75 188 120q-79 -109 -79 -198q1 -60 68 -163t67 -233q0 -95 -16 -168q99 68 156 68h187q-16 71 -75 160q-112 170 -112 257q0 83 56 157q56 75 188 120
q-79 -109 -79 -198q1 -60 68 -163t67 -233q0 -54 -5 -100h5v-1350l-200 -200v1247q-20 -3 -39 3q21 20 39 42z" />
    <glyph glyph-name="uni178c.au" horiz-adv-x="1800" 
d="M1400 1242v58h-200q-99 0 -200 -30v-270q0 -90 -300 -290l-300 -200v-190q211 -236 306 -175l94 57v348l200 200v-810q0 -106 -201 -221q-100 -58 -185 -67q-84 -9 -153 30t-136 43q-67 5 -145 -88q-2 16 -2 31q0 32 8 58q12 39 66 94q54 56 135 73q82 18 163 -30
q163 -95 207 -69q44 25 44 96v198l-42 -25q-109 -63 -159 -63t-225 100t-175 200v330q200 0 400 140t200 230v300h-60q-89 0 -208 -162l7 41q21 121 -39 121h-182q-34 -80 -3.5 -121t213.5 -101q-41 -108 -130 -169q-112 24 -155 55t-43 174q0 142 50 252l50 110h240
q70 0 70 -130q75 130 160 130h230v-102q164 102 300 102h187q-16 71 -75 160q-112 170 -112 257q0 83 56 157q56 75 188 120q-79 -109 -79 -198q1 -60 68 -163t67 -233q0 -54 -5 -100h5v-1350l-200 -200v1247q-20 -3 -39 3q21 20 39 42z" />
    <glyph glyph-name="uni178d.au" horiz-adv-x="2400" 
d="M803 484l-53 -43l53 -62v105zM400 329q77 89 77 140q0 31 -37 31h-40v-171zM2000 1242v58h-583l-69 -173q126 -23 189 -74q63 -50 63 -129v-624q0 -150 -64 -225q-63 -75 -191 -75q-107 0 -161 88q-54 87 -54 262q0 75 -32 113q-33 37 -98 37v-350l-112 -112
q-38 -38 -63 -38t-25 35q0 82 -95 174q-95 91 -95 191q0 50 50 83l140 97v720h-100q-89 0 -208 -162l7 41q21 121 -39 121h-243l-49 -133q106 -23 169 -73q63 -51 63 -130v-314h40q75 0 113 -32q37 -33 37 -98q0 -120 -127 -270l-170 -200q-43 -50 -68 -50t-25 40v860
q0 60 -122 80q-48 6 -48 46t25 100l145 374h300q70 0 70 -130q75 130 160 130h270v-900q138 0 206 -62q69 -63 69 -188q0 -150 70 -150q55 0 55 100v560q0 60 -142 80q-48 6 -48 46t25 100l165 414h687q-16 71 -75 160q-112 170 -112 257q0 83 56 157q56 75 188 120
q-79 -109 -79 -198q1 -60 68 -163t67 -233q0 -54 -5 -100h5v-1350l-200 -200v1247q-20 -3 -39 3q21 20 39 42z" />
    <glyph glyph-name="uni178e.au" horiz-adv-x="3000" 
d="M400 309q90 89 90 150q0 41 -40 41h-50v-191zM2600 1242v58h-200q-99 0 -200 -30v-1120l-200 -200v1350h-583l-49 -133q106 -23 169 -73q63 -51 63 -130v-814l-75 -75q-75 -75 -100 -75t-93 82l-206 245l-241 -286q-35 -41 -60 -41t-25 40v1260h-583l-49 -133
q106 -23 169 -73q63 -51 63 -130v-314h50q150 0 150 -150t-131 -281l-175 -175q-44 -44 -69 -44t-25 40v860q0 60 -122 80q-48 6 -48 46t25 100l145 374h800v-1191l200 239l200 -239v591q0 60 -122 80q-48 6 -48 46t25 100l145 374h800v-102q164 102 300 102h187
q-16 71 -75 160q-112 170 -112 257q0 83 56 157q56 75 188 120q-79 -109 -79 -198q1 -60 68 -163t67 -233q0 -54 -5 -100h5v-1350l-200 -200v1247q-20 -3 -39 3q21 20 39 42z" />
    <glyph glyph-name="uni178f.au" horiz-adv-x="1800" 
d="M400 309q90 89 90 115t-40 26h-50v-141zM200 40v760q0 100 175 200t225 100t159 -63q241 -137 241 -237v-650l-200 -200v800q0 34 -138 114q-139 79 -176 79t-61 -15q-25 -14 -25 -128v-250h50q75 0 113 -25q37 -24 37 -74q0 -101 -131 -232l-175 -175q-44 -44 -69 -44
t-25 40zM1400 1242v58h-370q-89 0 -208 -162l7 41q21 121 -39 121h-492l-24 -50q66 -27 120 -75q54 -47 8 -104q-46 -56 -108 -71q-30 53 -79 78q-48 25 -115 22l200 400h530q70 0 70 -130q75 130 160 130h427q-16 71 -75 160q-112 170 -112 257q0 83 56 157q56 75 188 120
q-79 -109 -79 -198q1 -60 68 -163t67 -233q0 -54 -5 -100h5v-1350l-200 -200v1247q-20 -3 -39 3q21 20 39 42z" />
    <glyph glyph-name="uni1790.au" horiz-adv-x="1800" 
d="M800 892q-70 -69 -70 -105t40 -36h30v141zM1400 1242v58h-200q-138 0 -279 -58q-65 -59 -120 -42q13 31 18 66q4 35 -40 34h-562l-49 -133q106 -23 169 -73q63 -51 63 -130v-554q0 -40 -20 -61q0 -33 144 -112q150 -80 188 -80t62 15q26 14 26 128v300h-30
q-95 0 -132.5 39.5t-37.5 110.5q0 101 131 232q118 118 164 118q105 0 105 -100v-700q0 -100 -179 -200q-180 -100 -231 -100t-163 63q-123 69 -185 128t-94 154q32 14 42 34.5t10 50.5v470q0 60 -122 80q-48 6 -48 46t25 100l145 374h620q45 0 68 -30q22 -31 22 -92
q41 42 47 77q7 36 -105 205q-112 170 -112 257q0 83 56 157q56 75 188 120q-79 -109 -79 -198q1 -60 68 -163t67 -233q0 -110 -21 -190q153 90 281 90h187q-16 71 -75 160q-112 170 -112 257q0 83 56 157q56 75 188 120q-79 -109 -79 -198q1 -60 68 -163t67 -233
q0 -54 -5 -100h5v-1350l-200 -200v1247q-20 -3 -39 3q21 20 39 42z" />
    <glyph glyph-name="uni1791.au" horiz-adv-x="1800" 
d="M400 680v-330q0 -34 138 -114q139 -79 176 -79t61 15q25 14 25 128v314q71 -6 123 21.5t77 75.5v-411q0 -100 -175 -200t-225 -100t-159 63q-241 137 -241 237v280l113 113q37 37 62 37t25 -50zM1400 1242v58h-200q-103 0 -209 -32l-44 -126q-50 -142 -171 -142t-329 126
l172 129q93 -55 177 -55t106 50t-32 50h-553l-66 -163l87 -83q86 -84 251 -128l274 -75q101 -27 167 67q0 -153 -77 -216q-78 -64 -147 -45l-68 20l-207 57q-206 58 -352 196l-49 46q0 124 43 224l127 300h730q0 -45 -5 -86q150 86 275 86h187q-16 71 -75 160
q-112 170 -112 257q0 83 56 157q56 75 188 120q-79 -109 -79 -198q1 -60 68 -163t67 -233q0 -54 -5 -100h5v-1350l-200 -200v1247q-20 -3 -39 3q21 20 39 42z" />
    <glyph glyph-name="uni1792.au" horiz-adv-x="1800" 
d="M800 892q-70 -69 -70 -105t40 -36h30v141zM1400 1242v58h-370q-89 0 -208 -162l7 41q21 121 -39 121h-573l-49 -133q106 -23 169 -73q63 -51 63 -130v-655l200 239l200 -239v291h-30q-95 0 -132.5 39.5t-37.5 110.5q0 101 131 232q118 118 164 118q105 0 105 -100v-850
l-75 -75q-75 -75 -100 -75t-93 82l-206 245l-241 -286q-35 -41 -60 -41t-25 40v860q0 60 -122 80q-48 6 -48 46t25 100l145 374h630q70 0 70 -130q75 130 160 130h427q-16 71 -75 160q-112 170 -112 257q0 83 56 157q56 75 188 120q-79 -109 -79 -198q1 -60 68 -163t67 -233
q0 -54 -5 -100h5v-1350l-200 -200v1247q-20 -3 -39 3q21 20 39 42z" />
    <glyph glyph-name="uni1793.au" horiz-adv-x="1800" 
d="M200 580l113 113q37 37 62 37t25 -50v-371l200 239l200 -239v305q71 -6 123 21.5t77 75.5v-561l-75 -75q-75 -75 -100 -75t-93 82l-206 245l-241 -286q-35 -41 -60 -41t-25 40v540zM1400 1242v58h-200q-103 0 -209 -32l-44 -126q-50 -142 -171 -142t-329 126l172 129
q93 -55 177 -55t106 50t-32 50h-553l-66 -163l87 -83q86 -84 251 -128l274 -75q101 -27 167 67q0 -153 -77 -216q-78 -64 -147 -45l-68 20l-207 57q-206 58 -352 196l-49 46q0 124 43 224l127 300h730q0 -45 -5 -86q150 86 275 86h187q-16 71 -75 160q-112 170 -112 257
q0 83 56 157q56 75 188 120q-79 -109 -79 -198q1 -60 68 -163t67 -233q0 -54 -5 -100h5v-1350l-200 -200v1247q-20 -3 -39 3q21 20 39 42z" />
    <glyph glyph-name="uni1794.au" horiz-adv-x="1800" 
d="M1400 1242v58h-370q-89 0 -208 -162l7 41q21 121 -39 121h-573l-49 -133q106 -23 169 -73q63 -51 63 -130v-554q0 -40 -20 -61q0 -33 144 -112q150 -80 188 -80t62 15q26 14 26 128v600l200 200v-1160q0 -106 -201 -221q-100 -58 -185 -67q-84 -9 -153 30t-136 43
q-67 5 -145 -88q-5 50 6 89q12 39 66 94q54 56 135 73q82 18 163 -30q163 -95 207 -69q43 25 43 96v198q-162 -88 -210 -88q-51 0 -163 63q-123 69 -185 128t-94 154q32 14 42 34.5t10 50.5v470q0 60 -122 80q-48 6 -48 46t25 100l145 374h630q70 0 70 -130q75 130 160 130
h427q-16 71 -75 160q-112 170 -112 257q0 83 56 157q56 75 188 120q-79 -109 -79 -198q1 -60 68 -163t67 -233q0 -54 -5 -100h5v-1350l-200 -200v1247q-20 -3 -39 3q21 20 39 42z" />
    <glyph glyph-name="uni1795.au" horiz-adv-x="1800" 
d="M800 892q-70 -69 -70 -105t40 -36h30v141zM1400 1242v58h-200q-138 0 -279 -58q-65 -59 -120 -42q13 31 18 66q4 35 -40 34h-562l-49 -133q106 -23 169 -73q63 -51 63 -130v-655l200 239l200 -239v291h-30q-95 0 -132.5 39.5t-37.5 110.5q0 101 131 232q118 118 164 118
q105 0 105 -100v-850l-75 -75q-75 -75 -100 -75t-93 82l-206 245l-241 -286q-35 -41 -60 -41t-25 40v860q0 60 -122 80q-48 6 -48 46t25 100l145 374h620q45 0 68 -30q22 -31 22 -92q41 42 47 77q7 36 -105 205q-112 170 -112 257q0 83 56 157q56 75 188 120
q-79 -109 -79 -198q1 -60 68 -163t67 -233q0 -110 -21 -190q153 90 281 90h187q-16 71 -75 160q-112 170 -112 257q0 83 56 157q56 75 188 120q-79 -109 -79 -198q1 -60 68 -163t67 -233q0 -54 -5 -100h5v-1350l-200 -200v1247q-20 -3 -39 3q21 20 39 42z" />
    <glyph glyph-name="uni1796.au" horiz-adv-x="1800" 
d="M400 309q90 89 90 150q0 41 -40 41h-50v-191zM1595 1500h5v-1350l-112 -112q-38 -38 -63 -38t-25 40v1157q-20 -3 -39 3q21 20 39 42v58h-120q-163 0 -280 -151v-999l-112 -112q-38 -38 -63 -38t-25 40v1260h-100q-89 0 -208 -162l7 41q21 121 -39 121h-243l-49 -133
q106 -23 169 -73q63 -51 63 -130v-314h50q150 0 150 -150t-131 -281l-175 -175q-44 -44 -69 -44t-25 40v860q0 60 -122 80q-48 6 -48 46t25 100l145 374h300q70 0 70 -130q75 130 160 130h270v-200q145 200 310 200h177q-16 71 -75 160q-112 170 -112 257q0 83 56 157
q56 75 188 120q-79 -109 -79 -198q1 -60 68 -163t67 -233q0 -54 -5 -100z" />
    <glyph glyph-name="uni1797.au" horiz-adv-x="1800" 
d="M302 58q-102 58 -102 200t100 182q0 -152 100 -209q87 -49 119 -25q31 24 31 74q0 76 -44 140q-43 64 -131 114q-87 51 -131 130t-44 186q0 50 175 150t225 100t159 -63q241 -137 241 -237v-650l-200 -200v800q0 34 -138 114q-139 79 -176 79t-61 -15q-25 -14 -25 -78
q0 -100 63 -136q93 -53 140 -139t47 -205v-90q0 -110 -65 -195t-123 -85q-59 0 -160 58zM1400 1242v58h-370q-89 0 -208 -162l7 41q21 121 -39 121h-492l-24 -50q66 -27 120 -75q54 -47 8 -104q-46 -56 -108 -71q-30 53 -79 78q-48 25 -115 22l200 400h530q70 0 70 -130
q75 130 160 130h427q-16 71 -75 160q-112 170 -112 257q0 83 56 157q56 75 188 120q-79 -109 -79 -198q1 -60 68 -163t67 -233q0 -54 -5 -100h5v-1350l-200 -200v1247q-20 -3 -39 3q21 20 39 42z" />
    <glyph glyph-name="uni1798.au" horiz-adv-x="1800" 
d="M400 604v-194q0 -40 -20 -61q0 -33 144 -112q150 -80 188 -80t62 15q26 14 26 128v312q-117 -77 -204 -73q-84 3 -196 65zM1400 1242v58h-583l-49 -133q106 -23 169 -73q63 -51 63 -130v-664q0 -100 -179 -200q-180 -100 -231 -100t-163 63q-123 69 -185 128t-94 154
q32 14 42 34.5t10 50.5v430q0 60 -142 80q-48 6 -48 46t25 100l165 414h300q0 -122 -26 -207q-27 -86 -90 -123q16 61 16 96q0 34 -50 34h-133l-69 -173q126 -23 189 -74q63 -50 63 -129v-251l102 127q54 -105 125 -137q64 -28 173 -31v268q0 60 -122 80q-48 6 -48 46
t25 100l145 374h687q-16 71 -75 160q-112 170 -112 257q0 83 56 157q56 75 188 120q-79 -109 -79 -198q1 -60 68 -163t67 -233q0 -54 -5 -100h5v-1350l-200 -200v1247q-20 -3 -39 3q21 20 39 42z" />
    <glyph glyph-name="uni1799.au" horiz-adv-x="2400" 
d="M2000 1242v58h-583l-69 -173q126 -23 189 -74q63 -50 63 -129v-624q0 -100 -179 -200q-180 -100 -231 -100t-163 63q-78 44 -132 84q-32 -24 -74 -47q-180 -100 -231 -100t-163 63q-123 69 -185 128t-94 154q32 14 42 34.5t10 50.5v470q-90 20 -130 100t-40 180
q0 120 65 220t205 100q100 0 150 -50t50 -150t-130 -138q-131 -38 -150 44q80 64 80 99t-50 35q-55 0 -82 -42q-28 -41 -28 -124q0 -47 57 -68q57 -22 203 -6v-690q0 -40 -20 -61q0 -33 144 -112q150 -80 188 -80t62 15q26 14 26 128v560q0 60 -142 80q-48 6 -48 46t25 100
l165 414h300q0 -122 -26 -207q-27 -86 -90 -123q16 61 16 96q0 34 -50 34h-133l-69 -173q126 -23 189 -74q63 -50 63 -129v-606q34 -32 124 -81q150 -80 188 -80t62 15q26 14 26 128v560q0 60 -142 80q-48 6 -48 46t25 100l165 414h687q-16 71 -75 160q-112 170 -112 257
q0 83 56 157q56 75 188 120q-79 -109 -79 -198q1 -60 68 -163t67 -233q0 -54 -5 -100h5v-1350l-200 -200v1247q-20 -3 -39 3q21 20 39 42z" />
    <glyph glyph-name="uni179a.au" horiz-adv-x="1200" 
d="M203 484l-53 -43l53 -62v105zM800 1242v58h-170q-89 0 -208 -162l7 41q21 121 -39 121h-173l-49 -133q106 -23 169 -73q63 -51 63 -130v-814l-112 -112q-38 -38 -63 -38t-25 35q0 82 -95 174q-95 91 -95 191q0 50 50 83l140 97v320q0 60 -122 80q-48 6 -48 46t25 100
l145 374h230q70 0 70 -130q75 130 160 130h227q-16 71 -75 160q-112 170 -112 257q0 83 56 157q56 75 188 120q-79 -109 -79 -198q1 -60 68 -163t67 -233q0 -54 -5 -100h5v-1350l-200 -200v1247q-20 -3 -39 3q21 20 39 42z" />
    <glyph glyph-name="uni179b.au" horiz-adv-x="2400" 
d="M400 309q90 89 90 150q0 41 -40 41h-50v-191zM2000 1242v58h-583l-69 -173q126 -23 189 -74q63 -50 63 -129v-624q0 -100 -179 -200q-180 -100 -231 -100t-163 63q-123 69 -185 128t-94 154q32 14 42 34.5t10 50.5v870h-583l-49 -133q106 -23 169 -73q63 -51 63 -130
v-314h50q150 0 150 -150t-131 -281l-175 -175q-44 -44 -69 -44t-25 40v860q0 60 -122 80q-48 6 -48 46t25 100l145 374h800v-1090q0 -40 -20 -61q0 -33 144 -112q150 -80 188 -80t62 15q26 14 26 128v560q0 60 -142 80q-48 6 -48 46t25 100l165 414h687q-16 71 -75 160
q-112 170 -112 257q0 83 56 157q56 75 188 120q-79 -109 -79 -198q1 -60 68 -163t67 -233q0 -54 -5 -100h5v-1350l-200 -200v1247q-20 -3 -39 3q21 20 39 42z" />
    <glyph glyph-name="uni179c.au" horiz-adv-x="1200" 
d="M203 484l-53 -43l53 -62v105zM800 1242v58h-200q-61 0 -121 -29q-81 -92 -148 -71q13 31 18 66q4 35 -40 34h-92l-69 -173q126 -23 189 -74q63 -50 63 -129v-774l-112 -112q-38 -38 -63 -38t-25 35q0 82 -95 174q-95 91 -95 191q0 50 50 83l140 97v280q0 60 -142 80
q-48 6 -48 46t25 100l165 414h150q45 0 68 -30q22 -31 22 -92q41 42 47 77q7 36 -105 205q-112 170 -112 257q0 83 56 157q56 75 188 120q-79 -109 -79 -198q1 -60 68 -163t67 -233q0 -86 -13 -154q104 54 203 54h127q-16 71 -75 160q-112 170 -112 257q0 83 56 157
q56 75 188 120q-79 -109 -79 -198q1 -60 68 -163t67 -233q0 -54 -5 -100h5v-1350l-200 -200v1247q-20 -3 -39 3q21 20 39 42z" />
    <glyph glyph-name="uni179d.au" horiz-adv-x="1800" 
d="M800 590v160q0 34 -138 114q-139 79 -176 79t-61 -15q-25 -14 -25 -128v-451q65 151 162 151q43 0 91 -35q47 -36 47 -100q0 -65 -100 -110q-18 45 -75 45q-28 0 -59 -37l-185 -225q-31 -38 -56 -38t-25 40v760q0 100 175 200t225 100t159 -63q241 -137 241 -237v-322
q64 -17 160 -16q-88 -63 -160 -83v-229l-200 -200v450q-51 21 -108 56zM1400 1242v58h-370q-89 0 -208 -162l7 41q21 121 -39 121h-492l-24 -50q66 -27 120 -75q54 -47 8 -104q-46 -56 -108 -71q-30 53 -79 78q-48 25 -115 22l200 400h530q70 0 70 -130q75 130 160 130h427
q-16 71 -75 160q-112 170 -112 257q0 83 56 157q56 75 188 120q-79 -109 -79 -198q1 -60 68 -163t67 -233q0 -54 -5 -100h5v-1350l-200 -200v1247q-20 -3 -39 3q21 20 39 42z" />
    <glyph glyph-name="uni179e.au" horiz-adv-x="1800" 
d="M1400 1242v58h-370q-89 0 -208 -162l7 41q21 121 -39 121h-573l-49 -133q106 -23 169 -73q63 -51 63 -130v-554q0 -40 -20 -61q0 -33 144 -112q150 -80 188 -80t62 15q26 14 26 128v256q-57 22 -122 62l122 152v130l200 200v-463q60 -14 146 -13q-79 -57 -146 -79v-605
q0 -106 -201 -221q-100 -58 -185 -67q-84 -9 -153 30t-136 43q-67 5 -145 -88q-5 50 6 89q12 39 66 94q54 56 135 73q82 18 163 -30q163 -95 207 -69q43 25 43 96v198q-162 -88 -210 -88q-51 0 -163 63q-123 69 -185 128t-94 154q32 14 42 34.5t10 50.5v470q0 60 -122 80
q-48 6 -48 46t25 100l145 374h630q70 0 70 -130q75 130 160 130h427q-16 71 -75 160q-112 170 -112 257q0 83 56 157q56 75 188 120q-79 -109 -79 -198q1 -60 68 -163t67 -233q0 -54 -5 -100h5v-1350l-200 -200v1247q-20 -3 -39 3q21 20 39 42z" />
    <glyph glyph-name="uni179f.au" horiz-adv-x="2400" 
d="M401 309q90 89 90 115t-40 26h-50v-141zM2000 1242v58h-582l-69 -173q126 -23 189 -74q63 -50 63 -129v-624q0 -100 -179 -200q-180 -100 -231 -100t-163 63q-123 69 -185 128t-94 154q32 14 42 34.5t10 50.5v320q0 34 -138 114q-139 79 -176 79t-61 -15
q-25 -14 -25 -128v-250h50q75 0 113 -25q37 -24 37 -74q0 -101 -131 -232l-175 -175q-44 -44 -69 -44t-25 40v760q0 89 140 179q-37 53 -70 83q-44 38 -160 38l200 400h670q0 -122 -26 -207q-27 -86 -110 -142q21 80 26 115q4 35 -40 34h-522l-24 -50q90 -39 149 -100
q37 -39 62 -86q75 36 105 36q50 0 159 -63q241 -137 241 -237v-390q0 -40 -20 -61q0 -33 144 -112q150 -80 188 -80t62 15q26 14 26 128v560q0 60 -142 80q-48 6 -48 46t25 100l165 414h686q-16 71 -75 160q-112 170 -112 257q0 83 56 157q56 75 188 120q-79 -109 -79 -198
q1 -60 68 -163t67 -233q0 -54 -5 -100h5v-1350l-200 -200v1247q-20 -3 -39 3q21 20 39 42z" />
    <glyph glyph-name="uni17a0.au" horiz-adv-x="2400" 
d="M2000 1242v58h-120q-163 0 -280 -151v-999l-200 -200v1350h-583l-49 -133q106 -23 169 -73q63 -51 63 -130v-664q0 -100 -179 -200q-180 -100 -231 -100t-163 63q-123 69 -185 128t-94 154q32 14 42 34.5t10 50.5v430q0 60 -142 80q-48 6 -48 46t25 100l165 414h300
q0 -122 -26 -207q-27 -86 -90 -123q16 61 16 96q0 34 -50 34h-133l-69 -173q126 -23 189 -74q63 -50 63 -129v-514q0 -40 -20 -61q0 -33 144 -112q150 -80 188 -80t62 15q26 14 26 128v600q0 60 -122 80q-48 6 -48 46t25 100l145 374h800v-200q145 200 310 200h177
q-16 71 -75 160q-112 170 -112 257q0 83 56 157q56 75 188 120q-79 -109 -79 -198q1 -60 68 -163t67 -233q0 -54 -5 -100h5v-1350l-200 -200v1247q-20 -3 -39 3q21 20 39 42z" />
    <glyph glyph-name="uni17a1.au" horiz-adv-x="2400" 
d="M800 -382v73l-40 -42zM179 930l-49 46q0 124 43 224l127 300h730q0 -122 -33 -216l-50 -142q-50 -142 -171 -142t-329 126l172 129q93 -55 177 -55t106 50t-32 50h-553l-66 -163l87 -83q86 -84 251 -128l274 -75q101 -27 167 67q0 -153 -77 -216q-78 -64 -147 -45l-68 20
l-207 57q-206 58 -352 196zM2000 1242v58h-583l-69 -173q126 -23 189 -74q63 -50 63 -129v-1574l-75 -75q-75 -75 -100 -75t-93 82l-206 245l-241 -286q-35 -41 -60 -41t-25 40v240l-127 98q-43 32 -43 72t48 93l95 105q47 52 107 52q59 0 120 -60v-331l200 239l200 -239
v1351q0 60 -142 80q-48 6 -48 46t25 100l165 414h687q-16 71 -75 160q-112 170 -112 257q0 83 56 157q56 75 188 120q-79 -109 -79 -198q1 -60 68 -163t67 -233q0 -54 -5 -100h5v-1350l-200 -200v1247q-20 -3 -39 3q21 20 39 42zM400 680v-330q0 -34 138 -114
q139 -79 176 -79t61 15q25 14 25 128v314q71 -6 123 21.5t77 75.5v-411q0 -100 -175 -200t-225 -100t-159 63q-241 137 -241 237v280l113 113q37 37 62 37t25 -50z" />
    <glyph glyph-name="uni17a2.au" horiz-adv-x="1800" 
d="M203 484l-53 -43l53 -62v105zM803 484l-53 -43l53 -62v105zM1400 1242v58h-583l-69 -173q126 -23 189 -74q63 -50 63 -129v-774l-112 -112q-38 -38 -63 -38t-25 35q0 82 -95 174q-95 91 -95 191q0 50 50 83l140 97v102q-117 -77 -204 -73q-84 3 -196 65v-524l-112 -112
q-38 -38 -63 -38t-25 35q0 82 -95 174q-95 91 -95 191q0 50 50 83l140 97v280q0 60 -142 80q-48 6 -48 46t25 100l165 414h300q0 -122 -26 -207q-27 -86 -90 -123q16 61 16 96q0 34 -50 34h-133l-69 -173q126 -23 189 -74q63 -50 63 -129v-181l102 127q54 -105 125 -137
q64 -28 173 -31v158q0 60 -142 80q-48 6 -48 46t25 100l165 414h687q-16 71 -75 160q-112 170 -112 257q0 83 56 157q56 75 188 120q-79 -109 -79 -198q1 -60 68 -163t67 -233q0 -54 -5 -100h5v-1350l-200 -200v1247q-20 -3 -39 3q21 20 39 42z" />
    <glyph glyph-name="uni1783.sub.au" horiz-adv-x="1200" 
d="M800 1242v58h-583l-69 -173q126 -23 189 -74q63 -50 63 -129v-1504q0 -70 -176 -145.5t-225 -75.5t-157 45q-75 31 -127 59q-31 -17 -71 -33q-173 -71 -222 -71t-157 45q-118 48 -178 90q-59 41 -90 108q31 10 40.5 24t9.5 35v169q140 10 186 50q45 39 45 53t-26.5 29
t-60.5 15q-48 0 -48 -24q0 -32 58 -35q1 -43 -124 -41q-126 2 -126 79q0 35 58 70q57 35 134 35q116 0 178.5 -31.5t62.5 -87.5t-39 -119q-38 -63 -106 -113v-63q0 -28 -19 -43q0 -23 139 -78q144 -56 180 -56q37 0 60 10q25 10 25 90v112q0 43 -137 57q-46 4 -46 32t24 70
l130 220h288q0 -85 -11 -110t-71 -72q15 42 -62 42h-128l-37 -51q121 -16 181 -52q61 -35 61 -91v-144q33 -23 119 -57q144 -56 181 -56q36 0 60 10t24 90v1450q0 60 -142 80q-48 6 -48 46t25 100l165 414h687q-16 71 -75 160q-112 170 -112 257q0 83 56 157q56 75 188 120
q-79 -109 -79 -198q1 -60 68 -163t67 -233q0 -54 -5 -100h5v-1350l-200 -200v1247q-20 -3 -39 3q21 20 39 42z" />
    <glyph glyph-name="uni1788.sub.au" horiz-adv-x="1200" 
d="M-925 -667q66 32 66 64q0 26 -30 26h-36v-90zM800 1242v58h-583l-69 -173q126 -23 189 -74q63 -50 63 -129v-1424q0 -172 -145 -236q-144 -64 -183 -64q-36 0 -118 41q-58 28 -99 53q-23 -15 -53 -30q-134 -64 -172 -64q-37 0 -120 41q-90 43 -136 81t-70 98
q24 9 31.5 22t7.5 32v299h-419l-20 -53q78 -14 124 -46q47 -33 47 -83v-72h36q111 0 111 -96q0 -98 -187 -223l-108 85v265q0 39 -90 51q-37 4 -37 30q0 25 20 63l93 206h577v-439q0 -25 -14 -38q0 -21 106 -72q111 -51 139 -51t46 10q19 9 19 81v134q0 38 -105 51
q-36 4 -36 29q0 26 20 64l98 231h223q0 -77 -20 -131q-20 -55 -37.5 -47.5t-17.5 30.5q0 21 -37 21h-97l-29 -78q93 -15 139 -47q47 -32 47 -82v-163q24 -21 91 -52q110 -51 137 -51q38 0 38 150v1410q0 60 -142 80q-48 6 -48 46t25 100l165 414h687q-16 71 -75 160
q-112 170 -112 257q0 83 56 157q56 75 188 120q-79 -109 -79 -198q1 -60 68 -163t67 -233q0 -54 -5 -100h5v-1350l-200 -200v1247q-20 -3 -39 3q21 20 39 42z" />
    <glyph glyph-name="uni178d.sub.au" horiz-adv-x="1200" 
d="M-334 -566l-48 -26l48 -38v64zM-704 -660q71 54 71 85q0 19 -34 19h-37v-104zM800 1242v58h-583l-69 -173q126 -23 189 -74q63 -50 63 -129v-1474q0 -100 -59 -175t-177 -75q-98 0 -148 54q-49 53 -49 98q0 46 -29 69q-31 23 -90 23v-152l-93 -92h-104q-20 33 -75 67
q-87 55 -87 116q0 30 46 50l129 59v286h-92q-82 0 -192 -99l7 25q19 74 -36 74h-242l-27 -51q98 -13 156 -44t58 -79v-69h37q69 0 103 -20q35 -20 35 -59q0 -73 -117 -164l-119 -92h-28l-95 62v303q0 37 -111 49l-1 126l93 159h295q64 0 64 -79q69 79 147 79h249v-395
q127 0 189 -37q63 -39 63 -95q0 -50 50 -50t50 78v1460q0 60 -142 80q-48 6 -48 46t25 100l165 414h687q-16 71 -75 160q-112 170 -112 257q0 83 56 157q56 75 188 120q-79 -109 -79 -198q1 -60 68 -163t67 -233q0 -54 -5 -100h5v-1350l-200 -200v1247q-20 -3 -39 3
q21 20 39 42z" />
    <glyph glyph-name="uni1794.sub.au" horiz-adv-x="1200" 
d="M-200 -295q50 32 50 86t-50 20v-106zM800 1242v58h-583l-69 -173q126 -23 189 -74q63 -50 63 -129v-1597l-153 -127h-127l-194 227l-195 -227h-25l-106 102v448q0 50 101 125t170 75q65 0 97 -36t32 -109q0 -52 -50 -103q-50 -52 -150 -102v-191l200 239l200 -239v1451
q0 60 -142 80q-48 6 -48 46t25 100l165 414h687q-16 71 -75 160q-112 170 -112 257q0 83 56 157q56 75 188 120q-79 -109 -79 -198q1 -60 68 -163t67 -233q0 -54 -5 -100h5v-1350l-200 -200v1247q-20 -3 -39 3q21 20 39 42z" />
    <glyph glyph-name="uni1799.sub.au" horiz-adv-x="1200" 
d="M-200 -295q50 32 50 86t-50 20v-106zM800 1242v58h-583l-69 -173q126 -23 189 -74q63 -50 63 -129v-1424q0 -100 -175 -200t-225 -100t-159 63q-241 137 -241 237v250q0 50 101 125t170 75q65 0 97 -36t32 -109q0 -52 -50 -103q-50 -52 -150 -102v-50q0 -34 138 -114
q139 -79 176 -79t61 15q25 14 25 128v1360q0 60 -142 80q-48 6 -48 46t25 100l165 414h687q-16 71 -75 160q-112 170 -112 257q0 83 56 157q56 75 188 120q-79 -109 -79 -198q1 -60 68 -163t67 -233q0 -54 -5 -100h5v-1350l-200 -200v1247q-20 -3 -39 3q21 20 39 42z" />
    <glyph glyph-name="uni179e.sub.au" horiz-adv-x="1200" 
d="M-200 -295q50 32 50 86t-50 20v-106zM800 1242v58h-583l-69 -173q126 -23 189 -74q63 -50 63 -129v-798q74 -7 175 10q-93 -79 -175 -112v-697l-153 -127h-127l-194 227l-195 -227h-25l-106 102v448q0 50 101 125t170 75q65 0 97 -36t32 -109q0 -52 -50 -103
q-50 -52 -150 -102v-191l200 239l200 -239v596q-77 10 -170 41l112 213q29 -27 58 -48v649q0 60 -142 80q-48 6 -48 46t25 100l165 414h687q-16 71 -75 160q-112 170 -112 257q0 83 56 157q56 75 188 120q-79 -109 -79 -198q1 -60 68 -163t67 -233q0 -54 -5 -100h5v-1350
l-200 -200v1247q-20 -3 -39 3q21 20 39 42z" />
    <glyph glyph-name="uni179f.sub.au" horiz-adv-x="1200" 
d="M-400 -345v46q-50 -36 -40 -52t40 6zM800 1242v58h-583l-69 -173q126 -23 189 -74q63 -50 63 -129v-798q74 -7 175 10q-93 -79 -175 -112v-524q0 -100 -175 -200t-225 -100t-159 63q-241 137 -241 237v60q-63 -31 -111 5q-49 35 -49 85t90 150t150 100q59 0 120 -60v-290
q0 -34 138 -114q139 -79 176 -79t61 15q25 14 25 128v505q-77 10 -170 41l112 213q29 -27 58 -48v649q0 60 -142 80q-48 6 -48 46t25 100l165 414h687q-16 71 -75 160q-112 170 -112 257q0 83 56 157q56 75 188 120q-79 -109 -79 -198q1 -60 68 -163t67 -233q0 -54 -5 -100
h5v-1350l-200 -200v1247q-20 -3 -39 3q21 20 39 42z" />
    <glyph glyph-name="uni1783.sub.alt.au" horiz-adv-x="1200" 
d="M400 -1226q0 -55 -176 -114.5t-225 -59.5t-157 36q-75 24 -127 46q-31 -13 -71 -26q-173 -56 -222 -56t-157 36q-118 37 -178 70q-59 32 -90 85q31 8 40.5 19t9.5 27v133q140 7 186 39q45 30 45 41t-26.5 23t-60.5 12q-48 0 -48 -19q0 -25 58 -28q1 -33 -124 -32
q-126 2 -126 62q0 28 58 55q57 27 134 27q116 0 178.5 -24.5t62.5 -68.5t-39 -93q-38 -49 -106 -89v-49q0 -22 -19 -34q0 -18 139 -61q144 -44 180 -44q37 0 60 8q25 8 25 71v88q0 33 -137 44q-46 3 -46 25t24 55l130 172h288q0 -66 -11 -85.5t-71 -56.5q15 33 -62 33h-128
l-37 -40q121 -13 181 -41q61 -27 61 -71v-113q33 -18 119 -45q144 -44 181 -44q36 0 60 8t24 71v2094q0 60 -142 80q-48 6 -48 46t25 100l165 414h687q-16 71 -75 160q-112 170 -112 257q0 83 56 157q56 75 188 120q-79 -109 -79 -198q1 -60 68 -163t67 -233q0 -54 -5 -100
h5v-1350l-200 -200v1247q-20 -3 -39 3q21 20 39 42v58h-583l-69 -173q126 -23 189 -74q63 -50 63 -129v-2150z" />
    <glyph glyph-name="uni1788.sub.alt.au" horiz-adv-x="1200" 
d="M-925 -1295q66 25 66 50q0 21 -30 21h-36v-71zM400 -1164q0 -135 -145 -185q-144 -51 -183 -51q-36 0 -118 33q-58 22 -99 41q-23 -11 -53 -23q-134 -51 -172 -51q-37 0 -120 33q-90 33 -136 63t-70 77q24 7 31.5 17.5t7.5 25.5v235h-419l-20 -42q78 -11 124 -36
q47 -26 47 -65v-57h36q111 0 111 -75q0 -77 -187 -176l-108 67v208q0 31 -90 41q-37 3 -37 23t20 50l93 161h577v-344q0 -20 -14 -30q0 -17 106 -57q111 -40 139 -40t46 8q19 7 19 64v105q0 30 -105 40q-36 3 -36 23t20 50l98 181h223q0 -60 -20 -102q-20 -44 -37.5 -38
t-17.5 24q0 17 -37 17h-97l-29 -62q93 -11 139 -37q47 -25 47 -64v-128q24 -17 91 -41q110 -40 137 -40q38 0 38 118v2063q0 60 -142 80q-48 6 -48 46t25 100l165 414h687q-16 71 -75 160q-112 170 -112 257q0 83 56 157q56 75 188 120q-79 -109 -79 -198q1 -60 68 -163
t67 -233q0 -54 -5 -100h5v-1350l-200 -200v1247q-20 -3 -39 3q21 20 39 42v58h-583l-69 -173q126 -23 189 -74q63 -50 63 -129v-2088z" />
    <glyph glyph-name="uni178d.sub.alt.au" horiz-adv-x="1200" 
d="M-334 -1215l-48 -21l48 -30v51zM-704 -1289q71 42 71 67q0 14 -34 14h-37v-81zM400 -1203q0 -78 -59 -137.5t-177 -59.5q-98 0 -148 43q-49 42 -49 77q0 36 -29 54q-31 18 -90 18v-119l-93 -73h-104q-20 26 -75 53q-87 43 -87 91q0 24 46 40l129 46v225h-92
q-82 0 -192 -78l7 20q19 58 -36 58h-242l-27 -40q98 -10 156 -34q58 -25 58 -63v-54h37q69 0 103 -16q35 -15 35 -46q0 -58 -117 -129l-119 -73h-28l-95 49v239q0 29 -111 38l-1 99l93 125h295q64 0 64 -62q69 62 147 62h249v-310q127 0 189 -29q63 -31 63 -75q0 -40 50 -40
t50 62v2102q0 60 -142 80q-48 6 -48 46t25 100l165 414h687q-16 71 -75 160q-112 170 -112 257q0 83 56 157q56 75 188 120q-79 -109 -79 -198q1 -60 68 -163t67 -233q0 -54 -5 -100h5v-1350l-200 -200v1247q-20 -3 -39 3q21 20 39 42v58h-583l-69 -173q126 -23 189 -74
q63 -50 63 -129v-2127z" />
    <glyph glyph-name="uni1794.sub.alt.au" horiz-adv-x="1200" 
d="M-200 -996q50 26 50 69t-50 16v-85zM400 -1298l-153 -102h-127l-194 182l-195 -182h-25l-106 82v358q0 40 101 100t170 60q65 0 97 -28q32 -29 32 -88q0 -41 -50 -82q-50 -42 -150 -82v-152l200 191l200 -191v2092q0 60 -142 80q-48 6 -48 46t25 100l165 414h687
q-16 71 -75 160q-112 170 -112 257q0 83 56 157q56 75 188 120q-79 -109 -79 -198q1 -60 68 -163t67 -233q0 -54 -5 -100h5v-1350l-200 -200v1247q-20 -3 -39 3q21 20 39 42v58h-583l-69 -173q126 -23 189 -74q63 -50 63 -129v-2222z" />
    <glyph glyph-name="uni1799.sub.alt.au" horiz-adv-x="1200" 
d="M-200 -996q50 26 50 69t-50 16v-85zM400 -1160q0 -80 -175 -160t-225 -80t-159 51q-241 109 -241 189v200q0 40 101 100t170 60q65 0 97 -28q32 -29 32 -88q0 -41 -50 -82q-50 -42 -150 -82v-40q0 -27 138 -91q139 -63 176 -63t61 12q25 11 25 102v2020q0 60 -142 80
q-48 6 -48 46t25 100l165 414h687q-16 71 -75 160q-112 170 -112 257q0 83 56 157q56 75 188 120q-79 -109 -79 -198q1 -60 68 -163t67 -233q0 -54 -5 -100h5v-1350l-200 -200v1247q-20 -3 -39 3q21 20 39 42v58h-583l-69 -173q126 -23 189 -74q63 -50 63 -129v-2084z" />
    <glyph glyph-name="uni179e.sub.alt.au" horiz-adv-x="1200" 
d="M-200 -996q50 26 50 69t-50 16v-85zM400 126q74 -7 175 10q-93 -79 -175 -112v-1322l-153 -102h-127l-194 182l-195 -182h-25l-106 82v358q0 40 101 100t170 60q65 0 97 -28q32 -29 32 -88q0 -41 -50 -82q-50 -42 -150 -82v-152l200 191l200 -191v1237q-77 10 -170 41
l112 213q29 -27 58 -48v649q0 60 -142 80q-48 6 -48 46t25 100l165 414h687q-16 71 -75 160q-112 170 -112 257q0 83 56 157q56 75 188 120q-79 -109 -79 -198q1 -60 68 -163t67 -233q0 -54 -5 -100h5v-1350l-200 -200v1247q-20 -3 -39 3q21 20 39 42v58h-583l-69 -173
q126 -23 189 -74q63 -50 63 -129v-798z" />
    <glyph glyph-name="uni179f.sub.alt.au" horiz-adv-x="1200" 
d="M-400 -1042v36q-50 -28 -40 -41q10 -12 40 5zM400 126q74 -7 175 10q-93 -79 -175 -112v-1188q0 -78 -175 -157t-225 -79t-159 50q-241 108 -241 186v47q-63 -24 -111 4q-49 28 -49 67t90 118q90 78 150 78q59 0 120 -47v-228q0 -26 138 -89q139 -62 176 -62t61 12
q25 11 25 100v1169q-77 10 -170 41l112 213q29 -27 58 -48v649q0 60 -142 80q-48 6 -48 46t25 100l165 414h687q-16 71 -75 160q-112 170 -112 257q0 83 56 157q56 75 188 120q-79 -109 -79 -198q1 -60 68 -163t67 -233q0 -54 -5 -100h5v-1350l-200 -200v1247q-20 -3 -39 3
q21 20 39 42v58h-583l-69 -173q126 -23 189 -74q63 -50 63 -129v-798z" />
    <glyph glyph-name="uni1783.sub.alt" horiz-adv-x="600" 
d="M200 860q0 60 -142 80q-48 6 -48 46t25 100l165 414h300q0 -122 -26 -207q-27 -86 -90 -123q16 61 16 96q0 34 -50 34h-133l-69 -173q126 -23 189 -74q63 -50 63 -129v-2150q0 -55 -176 -114.5t-225 -59.5t-157 36q-75 24 -127 46q-31 -13 -71 -26q-173 -56 -222 -56
t-157 36q-118 37 -178 70q-59 32 -90 85q31 8 40.5 19t9.5 27v133q140 7 186 39q45 30 45 41t-26.5 23t-60.5 12q-48 0 -48 -19q0 -25 58 -28q1 -33 -124 -32q-126 2 -126 62q0 28 58 55q57 27 134 27q116 0 178.5 -24.5t62.5 -68.5t-39 -93q-38 -49 -106 -89v-49
q0 -22 -19 -34q0 -18 139 -61q144 -44 180 -44q37 0 60 8q25 8 25 71v88q0 33 -137 44q-46 3 -46 25t24 55l130 172h288q0 -66 -11 -85.5t-71 -56.5q15 33 -62 33h-128l-37 -40q121 -13 181 -41q61 -27 61 -71v-113q33 -18 119 -45q144 -44 181 -44q36 0 60 8t24 71v2094z
" />
    <glyph glyph-name="uni1788.sub.alt" horiz-adv-x="600" 
d="M-925 -1295q66 25 66 50q0 21 -30 21h-36v-71zM200 860q0 60 -142 80q-48 6 -48 46t25 100l165 414h300q0 -122 -26 -207q-27 -86 -90 -123q16 61 16 96q0 34 -50 34h-133l-69 -173q126 -23 189 -74q63 -50 63 -129v-2088q0 -135 -145 -185q-144 -51 -183 -51
q-36 0 -118 33q-58 22 -99 41q-23 -11 -53 -23q-134 -51 -172 -51q-37 0 -120 33q-90 33 -136 63t-70 77q24 7 31.5 17.5t7.5 25.5v235h-419l-20 -42q78 -11 124 -36q47 -26 47 -65v-57h36q111 0 111 -75q0 -77 -187 -176l-108 67v208q0 31 -90 41q-37 3 -37 23t20 50
l93 161h577v-344q0 -20 -14 -30q0 -17 106 -57q111 -40 139 -40t46 8q19 7 19 64v105q0 30 -105 40q-36 3 -36 23t20 50l98 181h223q0 -60 -20 -102q-20 -44 -37.5 -38t-17.5 24q0 17 -37 17h-97l-29 -62q93 -11 139 -37q47 -25 47 -64v-128q24 -17 91 -41q110 -40 137 -40
q38 0 38 118v2063z" />
    <glyph glyph-name="uni178d.sub.alt" horiz-adv-x="600" 
d="M-334 -1215l-48 -21l48 -30v51zM-704 -1289q71 42 71 67q0 14 -34 14h-37v-81zM200 860q0 60 -142 80q-48 6 -48 46t25 100l165 414h300q0 -122 -26 -207q-27 -86 -90 -123q16 61 16 96q0 34 -50 34h-133l-69 -173q126 -23 189 -74q63 -50 63 -129v-2127
q0 -78 -59 -137.5t-177 -59.5q-98 0 -148 43q-49 42 -49 77q0 36 -29 54q-31 18 -90 18v-119l-93 -73h-104q-20 26 -75 53q-87 43 -87 91q0 24 46 40l129 46v225h-92q-82 0 -192 -78l7 20q19 58 -36 58h-242l-27 -40q98 -10 156 -34q58 -25 58 -63v-54h37q69 0 103 -16
q35 -15 35 -46q0 -58 -117 -129l-119 -73h-28l-95 49v239q0 29 -111 38l-1 99l93 125h295q64 0 64 -62q69 62 147 62h249v-310q127 0 189 -29q63 -31 63 -75q0 -40 50 -40t50 62v2102z" />
    <glyph glyph-name="uni1794.sub.alt" horiz-adv-x="600" 
d="M-200 -996q50 26 50 69t-50 16v-85zM200 860q0 60 -142 80q-48 6 -48 46t25 100l165 414h300q0 -122 -26 -207q-27 -86 -90 -123q16 61 16 96q0 34 -50 34h-133l-69 -173q126 -23 189 -74q63 -50 63 -129v-2222l-153 -102h-127l-194 182l-195 -182h-25l-106 82v358
q0 40 101 100t170 60q65 0 97 -28q32 -29 32 -88q0 -41 -50 -82q-50 -42 -150 -82v-152l200 191l200 -191v2092z" />
    <glyph glyph-name="uni1799.sub.alt" horiz-adv-x="600" 
d="M-200 -996q50 26 50 69t-50 16v-85zM400 -1160q0 -80 -175 -160t-225 -80t-159 51q-241 109 -241 189v200q0 40 101 100t170 60q65 0 97 -28q32 -29 32 -88q0 -41 -50 -82q-50 -42 -150 -82v-40q0 -27 138 -91q139 -63 176 -63t61 12q25 11 25 102v2020q0 60 -142 80
q-48 6 -48 46t25 100l165 414h300q0 -122 -26 -207q-27 -86 -90 -123q16 61 16 96q0 34 -50 34h-133l-69 -173q126 -23 189 -74q63 -50 63 -129v-2084z" />
    <glyph glyph-name="uni179e.sub.alt" horiz-adv-x="600" 
d="M-200 -996q50 26 50 69t-50 16v-85zM200 5q-77 10 -170 41l112 213q29 -27 58 -48v649q0 60 -142 80q-48 6 -48 46t25 100l165 414h300q0 -122 -26 -207q-27 -86 -90 -123q16 61 16 96q0 34 -50 34h-133l-69 -173q126 -23 189 -74q63 -50 63 -129v-798q74 -7 175 10
q-93 -79 -175 -112v-1322l-153 -102h-127l-194 182l-195 -182h-25l-106 82v358q0 40 101 100t170 60q65 0 97 -28q32 -29 32 -88q0 -41 -50 -82q-50 -42 -150 -82v-152l200 191l200 -191v1237z" />
    <glyph glyph-name="uni179f.sub.alt" horiz-adv-x="600" 
d="M-400 -1042v36q-50 -28 -40 -41q10 -12 40 5zM200 5q-77 10 -170 41l112 213q29 -27 58 -48v649q0 60 -142 80q-48 6 -48 46t25 100l165 414h300q0 -122 -26 -207q-27 -86 -90 -123q16 61 16 96q0 34 -50 34h-133l-69 -173q126 -23 189 -74q63 -50 63 -129v-798
q74 -7 175 10q-93 -79 -175 -112v-1188q0 -78 -175 -157t-225 -79t-159 50q-241 108 -241 186v47q-63 -24 -111 4q-49 28 -49 67t90 118q90 78 150 78q59 0 120 -47v-228q0 -26 138 -89q139 -62 176 -62t61 12q25 11 25 100v1169z" />
    <glyph glyph-name="uni179a.sub.alt" horiz-adv-x="600" 
d="M400 -1050q0 -34 138 -114q139 -79 176 -79t61 15q25 14 25 128v100l113 113q37 37 62 37t25 -50v-200q0 -100 -175 -200t-225 -100t-159 63q-241 137 -241 237v1960q0 60 -142 80q-48 6 -48 46t25 100l165 414h300q0 -122 -26 -207q-27 -86 -90 -123q16 61 16 96
q0 34 -50 34h-133l-69 -173q126 -23 189 -74q63 -50 63 -129v-1974z" />
    <glyph glyph-name="uni179a.sub.alt1" horiz-adv-x="600" 
d="M400 -1050q0 -34 138 -114q139 -79 176 -79t61 15q25 14 25 128v100l113 113q37 37 62 37t25 -50v-200q0 -100 -175 -200t-225 -100t-159 63q-241 137 -241 237v1960q0 60 -142 80q-48 6 -48 46t25 100l165 414h300q0 -122 -26 -207q-27 -86 -90 -123q16 61 16 96
q0 34 -50 34h-133l-69 -173q126 -23 189 -74q63 -50 63 -129v-1974z" />
    <glyph glyph-name="uni179a.sub.alt2" horiz-adv-x="600" 
d="M1000 -150v-250q0 -100 -175 -200t-225 -100t-159 63q-241 137 -241 237v1260q0 60 -142 80q-48 6 -48 46t25 100l165 414h300q0 -122 -26 -207q-27 -86 -90 -123q16 61 16 96q0 34 -50 34h-133l-69 -173q126 -23 189 -74q63 -50 63 -129v-1274q0 -34 138 -114
q139 -79 176 -79t61 15q25 14 25 128v150l113 113q37 37 62 37t25 -50z" />
    <glyph glyph-name="uni17bf.alt" horiz-adv-x="600" 
d="M-144 2358q115 9 419 -83l15 19l-216 97q-120 45 -224 41q-105 -4 -207 -156q98 73 213 82zM200 2038q0 87 -125 117q-187 45 -331 47q-144 3 -244 -37l35 99q54 147 126 228q71 82 161 97q90 14 177 3q74 -8 177 -50q22 39 22 60q0 32 -42 77l94 121l24 -36
q24 -37 24 -102q0 -46 -70 -142q115 -58 133 -125q37 57 37 84q0 32 -42 77l94 121l24 -36q24 -36 24 -102q0 -67 -74 -153l-102 -130q78 -44 78 -218v-2538q0 -100 -175 -200t-225 -100t-159 63q-241 137 -241 237v150l113 113q37 37 62 37t25 -50v-200q0 -34 138 -114
q139 -79 176 -79t61 15q25 14 25 128v2538z" />
    <glyph glyph-name="uni17bf.alt1" horiz-adv-x="600" 
d="M-144 2358q115 9 419 -83l15 19l-216 97q-120 45 -224 41q-105 -4 -207 -156q98 73 213 82zM400 -1100q0 -100 -175 -200t-225 -100t-159 63q-241 137 -241 237v100l113 113q37 37 62 37t25 -50v-150q0 -34 138 -114q139 -79 176 -79t61 15q25 14 25 128v3138
q0 87 -125 117q-187 45 -331 47q-144 3 -244 -37l35 99q54 147 126 228q71 82 161 97q90 14 177 3q74 -8 177 -50q22 39 22 60q0 32 -42 77l94 121l24 -36q24 -37 24 -102q0 -46 -70 -142q115 -58 133 -125q37 57 37 84q0 32 -42 77l94 121l24 -36q24 -36 24 -102
q0 -67 -74 -153l-102 -130q78 -44 78 -218v-3138z" />
    <glyph glyph-name="uni17bf.alt2" horiz-adv-x="600" 
d="M-144 2358q115 9 419 -83l15 19l-216 97q-120 45 -224 41q-105 -4 -207 -156q98 73 213 82zM400 -1100q0 -100 -175 -200t-225 -100t-159 63q-241 137 -241 237v100l113 113q37 37 62 37t25 -50v-150q0 -34 138 -114q139 -79 176 -79t61 15q25 14 25 128v3138
q0 87 -125 117q-187 45 -331 47q-144 3 -244 -37l35 99q54 147 126 228q71 82 161 97q90 14 177 3q74 -8 177 -50q22 39 22 60q0 32 -42 77l94 121l24 -36q24 -37 24 -102q0 -46 -70 -142q115 -58 133 -125q37 57 37 84q0 32 -42 77l94 121l24 -36q24 -36 24 -102
q0 -67 -74 -153l-102 -130q78 -44 78 -218v-3138z" />
    <glyph glyph-name="uni17c0.alt" horiz-adv-x="600" 
d="M400 -500q0 -100 -175 -200t-225 -100t-159 63q-241 137 -241 237v150l113 113q37 37 62 37t25 -50v-200q0 -34 138 -114q139 -79 176 -79t61 15q25 14 25 128v1360q0 60 -142 80q-48 6 -48 46t25 100l165 414h150q45 0 68 -30q22 -31 22 -92q41 42 47 77q7 36 -105 205
q-112 170 -112 257q0 83 56 157q56 75 188 120q-79 -109 -79 -198q1 -60 68 -163t67 -233q0 -220 -84 -321q-85 -101 -155 -79q13 31 18 66q4 35 -40 34h-92l-69 -173q126 -23 189 -74q63 -50 63 -129v-1424z" />
    </font>
</defs>
</svg>
