<svg id="Layer_1" data-name="Layer 1" xmlns="http://www.w3.org/2000/svg" viewBox="0 0 141.06 141.06"><defs><style>.cls-1{fill:#fff;opacity:0.5;}</style></defs><title>Artboard 1</title><circle class="cls-1" cx="70.53" cy="70.53" r="65.53"/><path d="M39.34,46.41l55.3,55.3a5,5,0,0,0,7.07-7.07l-55.3-55.3a5,5,0,0,0-7.07,7.07"/><path d="M94.65,39.34l-55.3,55.3a5,5,0,0,0,7.07,7.07l55.3-55.3a5,5,0,0,0-7.07-7.07"/><path d="M136.06,70.53h-5a60.53,60.53,0,1,1-17.73-42.8,60.32,60.32,0,0,1,17.73,42.8h10A70.53,70.53,0,1,0,120.4,120.4a70.33,70.33,0,0,0,20.66-49.87Z"/></svg>