<?xml version="1.0" encoding="utf-8"?>
<!-- Generator: Adobe Illustrator 20.1.0, SVG Export Plug-In . SVG Version: 6.00 Build 0)  -->
<!DOCTYPE svg PUBLIC "-//W3C//DTD SVG 1.1//EN" "http://www.w3.org/Graphics/SVG/1.1/DTD/svg11.dtd">
<svg version="1.1" id="Layer_1" xmlns="http://www.w3.org/2000/svg" xmlns:xlink="http://www.w3.org/1999/xlink" x="0px" y="0px"
	 viewBox="0 0 141.1 141.1" style="enable-background:new 0 0 141.1 141.1;" xml:space="preserve">
<style type="text/css">
	.st0{opacity:0.5;}
	.st1{fill:#FFFFFF;}
</style>
<g>
	<circle class="st0" cx="70.5" cy="70.5" r="65.5"/>
	<path class="st1" d="M39.3,46.4l55.3,55.3c2,2,5.1,2,7.1,0c2-2,2-5.1,0-7.1L46.4,39.3c-2-2-5.1-2-7.1,0
		C37.4,41.3,37.4,44.5,39.3,46.4"/>
	<path class="st1" d="M94.6,39.3L39.3,94.6c-2,2-2,5.1,0,7.1c2,2,5.1,2,7.1,0l55.3-55.3c2-2,2-5.1,0-7.1
		C99.8,37.4,96.6,37.4,94.6,39.3"/>
	<path class="st1" d="M136.1,70.5h-5c0,16.7-6.8,31.8-17.7,42.8c-11,11-26.1,17.7-42.8,17.7c-16.7,0-31.8-6.8-42.8-17.7
		c-11-11-17.7-26.1-17.7-42.8c0-16.7,6.8-31.8,17.7-42.8c11-11,26.1-17.7,42.8-17.7c16.7,0,31.8,6.8,42.8,17.7
		c11,11,17.7,26.1,17.7,42.8H136.1h5c0-19.5-7.9-37.1-20.7-49.9C107.7,7.9,90,0,70.5,0C51.1,0,33.4,7.9,20.7,20.7
		C7.9,33.4,0,51.1,0,70.5c0,19.5,7.9,37.1,20.7,49.9c12.7,12.8,30.4,20.7,49.9,20.7c19.5,0,37.1-7.9,49.9-20.7
		c12.8-12.7,20.7-30.4,20.7-49.9H136.1z"/>
</g>
</svg>
