<svg id="Layer_1" data-name="Layer 1" xmlns="http://www.w3.org/2000/svg" xmlns:xlink="http://www.w3.org/1999/xlink" viewBox="0 0 556.53 133.93"><defs><style>.cls-1{fill:#fff;}.cls-2{fill:url(#Tile_Gradient);}.cls-3{fill:none;}</style><linearGradient id="Tile_Gradient" x1="71.91" y1="28.76" x2="71.91" y2="105.18" gradientUnits="userSpaceOnUse"><stop offset="0" stop-color="#0cf"/><stop offset="0" stop-color="#01cbff"/><stop offset="0.15" stop-color="#2896f3"/><stop offset="0.29" stop-color="#4b68e9"/><stop offset="0.44" stop-color="#6642e1"/><stop offset="0.58" stop-color="#7c25db"/><stop offset="0.72" stop-color="#8c11d7"/><stop offset="0.86" stop-color="#9504d4"/><stop offset="1" stop-color="#9800d3"/></linearGradient></defs><title>DIS_MA_Logo_H_1T_clr_r_RGB</title><path class="cls-1" d="M221.23,51.51h-2.48a1,1,0,0,1-1-1v-3.9a1,1,0,0,1,1-1h2.48a1,1,0,0,1,1,1v3.9A1,1,0,0,1,221.23,51.51Zm-.1,31.07h-2.34a1,1,0,0,1-1-1V56.77a1,1,0,0,1,1-1h2.34a1,1,0,0,1,1,1V81.61A1,1,0,0,1,221.13,82.58Z"/><path class="cls-1" d="M262.94,82.92a19.43,19.43,0,0,1-7.08-1.67c-.64-.28-1-.51-1-1.26V78a.61.61,0,0,1,.71-.61,2.6,2.6,0,0,1,.36.09,20.61,20.61,0,0,0,7,1.79c3.17.06,5.44-.79,5.44-3.42,0-1.46-.88-2.39-3.65-4l-4.92-2.92c-3-1.8-5-3.9-5-7,0-5.07,4.52-6.62,9.54-6.48a13.92,13.92,0,0,1,6.92,1.9,1.38,1.38,0,0,1,.88,1.27v1.77c0,.64-.35,1-1,.7a16.34,16.34,0,0,0-6.7-2c-2.66-.14-5.37.34-5.37,2.82,0,1.46,1.12,2.39,3.36,3.7l4.82,2.87c4,2.39,5.36,4.48,5.36,7.35C272.67,80.83,268.73,83.08,262.94,82.92Z"/><path class="cls-1" d="M159,70.1a145.47,145.47,0,0,0-1.19-20.8,4.08,4.08,0,0,0-2.17-3,3.67,3.67,0,0,0-4.5,2l-7.2,15-7.2-15a3.67,3.67,0,0,0-4.5-2,4.08,4.08,0,0,0-2.17,3,153.35,153.35,0,0,0-1.19,20.8V81.61a1,1,0,0,0,1.13,1H132a1,1,0,0,0,1.13-1V70.1a164.89,164.89,0,0,1,.74-17.59s4.63,9.68,6.43,13.39c1.42,2.92,2.33,3.37,3.56,3.35s2.21-.4,3.63-3.38c1.79-3.74,6.36-13.36,6.36-13.36a163.57,163.57,0,0,1,.74,17.59V81.6a1,1,0,0,0,1.13,1h2.08a1,1,0,0,0,1.13-1Z"/><path class="cls-1" d="M209.51,55.8c-.46,0-.86.52-1,1a100.13,100.13,0,0,1-3.38,11.33c-1.26,3.61-2.58,6.89-3.75,9.59-1.17-2.7-2.49-6-3.75-9.59a100.14,100.14,0,0,1-3.38-11.33c-.1-.45-.5-1-1-1h-2.42c-.62,0-1.09.37-1,1a104.53,104.53,0,0,0,3.63,12.76c4.13,12.31,5.9,13,7.84,13s3.45-.71,7.84-13a104.52,104.52,0,0,0,3.63-12.76c.13-.61-.34-1-1-1Z"/><path class="cls-1" d="M175.92,82.92c-7.23,0-11.9-5.33-11.9-13.71s4.67-13.75,11.9-13.75,11.9,5.37,11.9,13.75S183.15,82.92,175.92,82.92Zm0-23.33c-7,0-7.72,6.73-7.72,9.62s.75,9.62,7.72,9.62,7.72-6.73,7.72-9.62S182.88,59.59,175.92,59.59Z"/><path class="cls-1" d="M249.14,70.9a1.33,1.33,0,0,0,1.33-1.33v-.36c0-8.48-4.34-13.75-11.34-13.75S227.8,60.73,227.8,69.21c0,8.87,4.39,13.71,12.35,13.71a25.63,25.63,0,0,0,8-1.39,1.11,1.11,0,0,0,.75-1V78.37a.6.6,0,0,0-.79-.57,21.16,21.16,0,0,1-7.54,1.32c-5.69,0-8.13-2.61-8.63-7.87V70.9Zm-10-11.52c5.55,0,6.77,4.56,7.15,7.79H232C232.36,63.94,233.59,59.38,239.14,59.38Z"/><path class="cls-1" d="M340.45,82.58H338.1a1,1,0,0,1-1-1V65.49c0-4.94-1.66-6.45-5.38-6.45a15.47,15.47,0,0,0-6.6,1.91V81.61a1,1,0,0,1-1,1h-2.39a1,1,0,0,1-.93-1V56.78a.94.94,0,0,1,.93-1h2.44a.94.94,0,0,1,.93,1v.8a14.57,14.57,0,0,1,7.77-2.12c5.86,0,8.5,3.54,8.5,10V81.61A1,1,0,0,1,340.45,82.58Z"/><path class="cls-1" d="M430.91,82.58h-2.35a1,1,0,0,1-1-1V65.49c0-4.89-2.05-6.4-5.23-6.4a19,19,0,0,0-6.74,1.37V81.61a1,1,0,0,1-1,1h-2.39a1,1,0,0,1-.93-1V47a.94.94,0,0,1,.93-1h2.44a.94.94,0,0,1,.93,1v9.89a20.15,20.15,0,0,1,7.48-1.39c5.18,0,8.8,2.85,8.8,10V81.61A1,1,0,0,1,430.91,82.58Z"/><path class="cls-1" d="M476.17,59.17a12.3,12.3,0,0,0-6.74,1.92V81.61a1,1,0,0,1-1,1h-2.39a1,1,0,0,1-.93-1V56.78a.94.94,0,0,1,.93-1h2.3a.94.94,0,0,1,.93,1v.9a11.47,11.47,0,0,1,6.89-2.22q1,0,1,.88v2C477.2,58.88,476.85,59.17,476.17,59.17Z"/><path class="cls-1" d="M289.55,82.58c.47,0,.88-.52,1-1L292.16,75q.57-2.44,1.15-4.65h15.07q.58,2.22,1.15,4.66l1.62,6.6c.11.46.52,1,1,1h2.46a1,1,0,0,0,1-1.25L313.83,74c-2.83-12.09-5.72-20.13-9.35-25.87a4.35,4.35,0,0,0-3.54-2.06,4.21,4.21,0,0,0-3.67,2c-3.66,5.75-6.57,13.82-9.41,26l-1.75,7.35a1,1,0,0,0,1,1.25Zm11.29-31.87c2.34,3.75,4.43,8.79,6.4,15.51h-12.8C296.41,59.5,298.5,54.46,300.84,50.71Z"/><path class="cls-1" d="M458.42,70.92a1.33,1.33,0,0,0,1.33-1.33v-.36c0-8.49-4.35-13.78-11.35-13.78s-11.35,5.29-11.35,13.78c0,8.88,4.39,13.69,12.36,13.69a25.55,25.55,0,0,0,8-1.36,1.11,1.11,0,0,0,.75-1V78.4a.61.61,0,0,0-.79-.57,21.18,21.18,0,0,1-7.54,1.32c-5.7,0-8.14-2.61-8.64-7.88v-.35Zm-2.86-3.73H441.25c.38-3.23,1.61-7.8,7.16-7.8s6.78,4.57,7.16,7.8"/><path class="cls-1" d="M500.75,70.92a1.33,1.33,0,0,0,1.33-1.33v-.36c0-8.49-4.35-13.78-11.35-13.78s-11.35,5.29-11.35,13.78c0,8.88,4.39,13.69,12.36,13.69a25.55,25.55,0,0,0,8-1.36,1.11,1.11,0,0,0,.75-1V78.4a.61.61,0,0,0-.79-.57,21.18,21.18,0,0,1-7.54,1.32c-5.7,0-8.14-2.61-8.64-7.88v-.35Zm-10-11.53c5.55,0,6.78,4.57,7.16,7.8H483.58C484,64,485.18,59.39,490.73,59.39Z"/><path class="cls-1" d="M366.6,55.8h-2.72c-.43,0-.79.54-.81,1-.2,5-2.37,14.08-6,22.27h-1a.94.94,0,0,1-.87-.56c-3.43-7.93-5.56-17-5.76-21.71,0-.43-.38-1-.81-1h-2.72a.93.93,0,0,0-.81,1c.2,5.28,2.23,14.33,5.91,22.86a5,5,0,0,0,4.35,2.93c-.71,1.34-1.46,2.62-2.24,3.82-1.91,2.9-4.58,2.62-8.17,2.16-.35,0-1-.21-1,.7l0,1.82a1,1,0,0,0,.85.95c1.06.11,2.3.21,3.12.21,3,0,6.57-.32,9-4.06,6.46-9.82,10.15-24.24,10.44-31.4A.93.93,0,0,0,366.6,55.8Z"/><path class="cls-1" d="M405.8,56.77a1,1,0,0,0-.86-1h-2.72c-.43,0-.77.54-.76,1,.09,4.68-1.42,14.13-4.27,22-1.45-3.3-4-14.51-4.39-16.07-.88-3.55-1.84-4.79-4-4.79s-3.09,1.24-4,4.79c-.39,1.56-2.89,12.74-4.39,16.07-2.85-7.86-4.37-17.32-4.27-22,0-.43-.33-1-.76-1H372.7a1,1,0,0,0-.86,1c-.12,5.28,1.37,14.56,4.5,23.1.73,2,2.07,3.05,3.86,3.05s3.17-1.51,3.85-3.05c2-4.41,4.45-16.61,4.78-17.92.33,1.31,2.85,13.52,4.78,17.92.72,1.64,2.07,3.05,3.85,3.05s3.13-1.06,3.86-3.05C404.44,71.33,405.92,62.05,405.8,56.77Z"/><path class="cls-1" d="M509,47.15h-2.62v7.21h-1.66V47.15h-2.62V45.79H509Zm6.51,4.72,2.33-6.07h2.39v8.57h-1.56v-6.7h0l-2.56,6.7H514.9l-2.56-6.7h0v6.7h-1.56V45.79h2.41Z"/><rect class="cls-2" x="33.69" y="28.76" width="76.42" height="76.42" rx="13.41" ry="13.41"/><path class="cls-1" d="M46.34,85.17a5.16,5.16,0,0,0,.84,2.66,2.36,2.36,0,0,0,2.58.8,4.55,4.55,0,0,0,2.16-2,35.26,35.26,0,0,0,2.45-4.82c.79-1.76,1.54-3.54,2.29-5.32L59.38,70s-1.55-4.24-1.92-5.22q-.89,2-1.75,4.08c-1,2.3-1.92,4.61-2.89,6.91-.88,2.09-1.76,4.17-2.73,6.22q0-.42,0-.85c.07-1.87.21-3.74.38-5.6.18-2.06.39-4.12.61-6.18.28-2.53.56-5.06.89-7.58.28-2.14.6-4.28,1-6.4.17-.86.35-1.72.58-2.56a14.75,14.75,0,0,1,.8-2.4,11.25,11.25,0,0,1,.59,1,36.91,36.91,0,0,1,1.59,3.57c.55,1.37,1.06,2.76,1.56,4.14,1,2.87,2.07,5.75,3.21,8.58a57.17,57.17,0,0,0,3.36,7.19,15.51,15.51,0,0,0,3.53,4.48,6.43,6.43,0,0,0,3.66,1.37h0a6.43,6.43,0,0,0,3.66-1.37,15.51,15.51,0,0,0,3.53-4.48,57.16,57.16,0,0,0,3.36-7.19c1.14-2.83,2.16-5.71,3.21-8.58.51-1.39,1-2.77,1.56-4.14a36.91,36.91,0,0,1,1.59-3.57,11.25,11.25,0,0,1,.59-1,14.75,14.75,0,0,1,.8,2.4c.22.85.41,1.7.58,2.56.42,2.12.73,4.26,1,6.4.33,2.52.62,5.05.89,7.58.22,2.06.43,4.12.61,6.18.16,1.86.3,3.73.38,5.6q0,.42,0,.85c-1-2-1.86-4.13-2.73-6.22-1-2.3-1.92-4.61-2.89-6.91q-.86-2-1.75-4.08C86,65.71,84.43,70,84.43,70l2.74,6.54c.75,1.78,1.5,3.56,2.29,5.32a35.26,35.26,0,0,0,2.45,4.82,4.55,4.55,0,0,0,2.16,2,2.36,2.36,0,0,0,2.58-.8,5.16,5.16,0,0,0,.84-2.66,24.23,24.23,0,0,0,.09-2.84c0-2-.17-3.95-.33-5.91s-.34-3.84-.54-5.76q-.37-3.57-.81-7.14c-.28-2.31-.58-4.62-1-6.91-.28-1.67-.6-3.35-1-5a19.45,19.45,0,0,0-.8-2.45,6.65,6.65,0,0,0-1.41-2.25,3,3,0,0,0-3.51-.56,7.05,7.05,0,0,0-2.53,2.93,42,42,0,0,0-2.44,5.53q-.33.86-.65,1.72a47.9,47.9,0,0,0-4.34-7.26,11.58,11.58,0,0,0-3.91-3.6,5.33,5.33,0,0,0-2.36-.49,5.47,5.47,0,0,0-2.39.49,11.58,11.58,0,0,0-3.91,3.6,47.9,47.9,0,0,0-4.34,7.26q-.32-.86-.65-1.72a42,42,0,0,0-2.44-5.53,7.05,7.05,0,0,0-2.53-2.93,3,3,0,0,0-3.51.56,6.65,6.65,0,0,0-1.41,2.25,19.45,19.45,0,0,0-.8,2.45c-.44,1.64-.76,3.31-1,5-.39,2.29-.69,4.6-1,6.91s-.56,4.76-.81,7.14c-.2,1.92-.39,3.84-.54,5.76s-.3,3.94-.33,5.91A24.23,24.23,0,0,0,46.34,85.17ZM63.1,61.53c.77-1.65,1.55-3.23,2.33-4.69C69.36,49.47,70.77,49,71.91,49s2.55.45,6.48,7.82c.78,1.46,1.56,3,2.33,4.69-.26.71-1.24,3.3-1.41,3.73a57.89,57.89,0,0,1-3.61,7.87c-1.85,3.16-2.85,3.77-3.79,3.77s-1.95-.61-3.79-3.77a57.88,57.88,0,0,1-3.61-7.87C64.34,64.83,63.36,62.23,63.1,61.53Z"/><rect class="cls-3" width="556.53" height="133.93"/></svg>