<?xml version="1.0" encoding="iso-8859-1"?>
<!DOCTYPE svg PUBLIC "-//W3C//DTD SVG 1.1//EN" "http://www.w3.org/Graphics/SVG/1.1/DTD/svg11.dtd">
<svg version="1.1" xmlns="http://www.w3.org/2000/svg" xmlns:xlink="http://www.w3.org/1999/xlink" x="0px" y="0px" width="24px"
	 height="24px" viewBox="0 0 24 24" style="enable-background:new 0 0 24 24;" xml:space="preserve">
<g id="template" style="opacity:0.75;">
	<path id="puzzel_piece" style="fill-rule:evenodd;clip-rule:evenodd;" d="M19.46,10.417c-0.351-0.404-1.641-0.501-1.983-0.162
		c-0.769,0.758-1.926,1.308-1.952,0.162c0.088-2.081,0.818-3.743,0.818-3.743c0-0.252-0.207-0.456-0.463-0.456
		c0,0-1.586-0.111-3.59-0.164l-1.25-0.001c-0.127,0.406,0.274,1.09,0.782,1.604c0.339,0.344,0.242,1.633-0.162,1.984
		c-0.393,0.34-1.197,0.539-1.662,0.539c-0.445,0-1.222-0.158-1.612-0.479C7.948,9.345,8.054,8.015,8.406,7.657
		c0.47-0.476,0.838-1.185,0.721-1.606H8.644c-2.074,0.05-3.514,0.167-3.514,0.167c-0.255,0-0.463,0.204-0.463,0.456
		c0,0-0.558,2.58-0.558,5.348c0,2.762,0.558,5.331,0.558,5.331c0,0.253,0.208,0.457,0.463,0.457c0,0,2.615,0.19,5.493,0.19
		c2.723,0,5.258-0.19,5.258-0.19c0.256,0,0.463-0.204,0.463-0.457c0,0-0.739-1.73-0.824-3.869c0.031-1.004,1.255-0.506,1.958,0.188
		c0.356,0.353,1.688,0.458,2.045,0.021C19.841,13.301,20,12.524,20,12.079C20,11.614,19.801,10.81,19.46,10.417z"/>
</g>
</svg>
