<svg xmlns="http://www.w3.org/2000/svg" version="1.1" id="Layer_1" x="0" y="0" viewBox="0 0 40 40" enable-background="new 0 0 40 40" xml:space="preserve">
  <path d="M20 1C9.5 1 1 9.5 1 20s8.5 19 19 19 19-8.5 19-19S30.5 1 20 1zM32.6 32.6c-3.2 3.2-7.7 5.2-12.6 5.2s-9.3-2-12.6-5.2C4.2 29.3 2.2 24.9 2.2 20s2-9.3 5.2-12.6c3.2-3.2 7.7-5.2 12.6-5.2s9.3 2 12.6 5.2c3.2 3.2 5.2 7.7 5.2 12.6S35.8 29.3 32.6 32.6zM14.3 23.4c-0.1-0.1-0.3-0.1-0.4 0.1l-1.4 3.7c-0.1 0.2 0 0.3 0.2 0.2l3.7-1.4c0.2-0.1 0.2-0.2 0.1-0.4L14.3 23.4zM26 11.8c-0.2-0.2-0.5-0.2-0.7 0L25 12.2l-1 1 0.3 0.3 2 2 0.3 0.3 1-1 0.3-0.3c0.2-0.2 0.2-0.5 0-0.7L26 11.8z" fill="#1A5EB8"/>
  <rect x="18.5" y="13.6" transform="matrix(-0.707 -0.7072 0.7072 -0.707 20.9667 47.6152)" width="3.8" height="11.8" fill="#1A5EB8"/>
</svg>