<?xml version="1.0" encoding="iso-8859-1"?>
<!DOCTYPE svg PUBLIC "-//W3C//DTD SVG 1.1//EN" "http://www.w3.org/Graphics/SVG/1.1/DTD/svg11.dtd">
<svg version="1.1" xmlns="http://www.w3.org/2000/svg" xmlns:xlink="http://www.w3.org/1999/xlink" x="0px" y="0px" width="24px"
	 height="24px" viewBox="0 0 24 24" enable-background="new 0 0 24 24" xml:space="preserve">
<g style="opacity:0.75;">
	<path d="M1.784,14.261c-0.308-0.311-0.308-0.82,0-1.13l1.995-1.994c0.312-0.311,0.819-0.311,1.132-0.001
				l3.237,3.232c0.312,0.31,0.817,0.31,1.128-0.001l8.876-8.897c0.31-0.311,0.817-0.312,1.129-0.003l1.985,1.971				c0.312,0.309,0.313,0.816,0.004,1.127L10.505,19.354c-0.311,0.311-0.922,0.565-1.362,0.565h-0.93c-0.437,0-1.05-0.255-1.36-0.566
				L1.784,14.261z"/>
</g>
</svg>
