<?xml version="1.0" encoding="iso-8859-1"?>
<!DOCTYPE svg PUBLIC "-//W3C//DTD SVG 1.1//EN" "http://www.w3.org/Graphics/SVG/1.1/DTD/svg11.dtd">
<svg version="1.1" xmlns="http://www.w3.org/2000/svg" xmlns:xlink="http://www.w3.org/1999/xlink" x="0px" y="0px" width="24px"
	 height="24px" viewBox="0 0 24 24" style="enable-background:new 0 0 24 24;" xml:space="preserve">
<g id="keyboard" style="opacity:0.75;fill:white;">
	<path d="M18.1,7H5.9C5.4,7,5,7.4,5,7.9v8.2C5,16.6,5.4,17,5.9,17h12.2c0.5,0,0.9-0.4,0.9-0.9V7.9
		C19,7.4,18.6,7,18.1,7z M13,9h1v1h-1V9z M13,11h1v1h-1V11z M10,9h1v1h-1V9z M10,11h1v1h-1V11z M7,9h1v1H7V9z M7,11h1v1H7V11z
		 M16,15H8v-1h8V15z M17,12h-1v-1h1V12z M17,10h-1V9h1V10z"/>
</g>
</svg>
