<?xml version="1.0" encoding="iso-8859-1"?>
<!DOCTYPE svg PUBLIC "-//W3C//DTD SVG 1.1//EN" "http://www.w3.org/Graphics/SVG/1.1/DTD/svg11.dtd">
<svg version="1.1" xmlns="http://www.w3.org/2000/svg" xmlns:xlink="http://www.w3.org/1999/xlink" x="0px" y="0px"
	 width="24px" height="24px" viewBox="-9.5 10.5 24 24" enable-background="new -9.5 10.5 24 24" xml:space="preserve">
<g id="media" style="opacity:0.75;">
	<path d="M5.342,28.902c1.977-0.002,3.58-1.608,3.572-3.579C8.908,23.361,7.459,21.766,5.5,21.76
		c-1.975-0.003-3.73,1.598-3.736,3.57C1.76,27.299,3.365,28.902,5.342,28.902z M-1.5,21.5c0.889,0,1,0,2,0s2-1,2-2s0-1,0-1h6
		c0,0,0,0,0,1s1.003,1.781,2,2c1.042,0.229,1.795,0,2,0c0,3.215,0,5.777,0,9c-4.879,0-9.096,0-14,0
		C-1.5,27.305-1.5,24.743-1.5,21.5z"/>
	<path d="M5.508,24.02c0.82,0.004,1.471,0.66,1.465,1.481c-0.008,0.798-0.67,1.451-1.469,1.457
		c-0.805,0.004-1.475-0.664-1.475-1.476C4.029,24.668,4.689,24.014,5.508,24.02z"/>
	<path d="M-8.5,13.5c0,4.254,0,8.773,0,13c1.827,0,4.199,0,6,0c0-0.55,0-1.44,0-2c-0.722,0-2.291,0-3,0
		c0-1.384,0-2.619,0-4c0.568,0,5,0,5,0v-1c0,0-3.155,0-5,0c0-1.378,0-2.639,0-4c2.065,0,4.93,0,7,0c0,1.02,0,2,0,2
		c0.176,0.018,2.604,0,3,0c0-1.41,0-2.599,0-4C0.26,13.5-4.254,13.5-8.5,13.5z"/>
	<path d="M9.5,20.5"/>
</g>
</svg>
