<?xml version="1.0" encoding="iso-8859-1"?>
<!DOCTYPE svg PUBLIC "-//W3C//DTD SVG 1.1//EN" "http://www.w3.org/Graphics/SVG/1.1/DTD/svg11.dtd">
<svg version="1.1" xmlns="http://www.w3.org/2000/svg" xmlns:xlink="http://www.w3.org/1999/xlink" x="0px" y="0px"
	 width="14px" height="14px" viewBox="0 0 14 14" enable-background="new 0 0 14 14" xml:space="preserve">
<g fill="#8096ac">
	<path d="M12.8,11.6L9.2,8.1C9.7,7.3,10,6.4,10,5.5C10,3,8,1,5.5,1S1,3,1,5.5S3,10,5.5,10c0.9,0,1.8-0.3,2.6-0.8l3.6,3.6c0.3,0.3,0.8,0.2,1.1,0C13.1,12.3,13.1,11.9,12.8,11.6z M2.5,5.5c0-1.6,1.3-3,3-3s3,1.3,3,3s-1.3,3-3,3S2.5,7.1,2.5,5.5z"/>
	<rect x="5" y="4" width="1" height="3"/>
	<rect x="4" y="5" width="3" height="1"/>
</g>
</svg>
