<?xml version="1.0" encoding="iso-8859-1"?>
<!DOCTYPE svg PUBLIC "-//W3C//DTD SVG 1.1//EN" "http://www.w3.org/Graphics/SVG/1.1/DTD/svg11.dtd">
<svg version="1.1" id="Layer_1" xmlns="http://www.w3.org/2000/svg" xmlns:xlink="http://www.w3.org/1999/xlink" x="0px" y="0px"
	 width="47px" height="32px" viewBox="0 0 47 32" enable-background="new 0 0 47 32" xml:space="preserve">
<g style="opacity:0.75;fill:white;">
	<path d="M40.16,15.055c0-0.284,0.046-0.521,0.046-0.804C40.205,6.915,34.363,1,27.151,1
		c-5.158,0-9.631,3.076-11.73,7.524c-1.004-0.804-2.282-1.278-3.697-1.278c-3.332,0-6.025,2.745-6.025,6.105
		c0,0.615,0.091,1.23,0.274,1.846C3.371,16.758,1.5,19.645,1.5,22.91c0.046,4.921,2.373,7.995,6.937,8.09h2.055H21v-8
		c-0.456,0-1.06,0-1.517,0h-4.108c-0.867,0-1.095-0.327-0.548-0.989l7.622-9.275c0.548-0.663,1.461-0.663,2.008,0l7.622,9.228
		C32.629,22.626,32.4,23,31.533,23h-4.017c-0.456,0-2.06,0-2.517,0v8h11.417c0.137,0,0.959,0,1.095,0
		c4.747,0,7.988-3.121,7.988-7.948C45.5,19.456,43.309,16.38,40.16,15.055z"/>
</g>
</svg>
