<svg class="discussion-icon" width="22px" height="21px" viewBox="0 0 22 21" version="1.1" xmlns="http://www.w3.org/2000/svg" xmlns:xlink="http://www.w3.org/1999/xlink">
    <g id="Footers" stroke="none" stroke-width="1" fill="none" fill-rule="evenodd">
        <g id="Mixed-Content-Footer" transform="translate(-238.000000, -3343.000000)" fill="#999999">
            <g id="Post-2-Copy-2" transform="translate(98.000000, 3174.000000)">
                <g id="Post-Actions" transform="translate(18.000000, 168.000000)">
                    <path d="M133.001818,1 C126.935232,1 122,5.11284638 122,10.1681819 C122,15.2235173 126.935232,19.3363637 133.001818,19.3363637 C133.92047,19.3363637 134.84554,19.2373473 135.755023,19.0420651 L140.913042,21.104906 C141.023061,21.1489133 141.13858,21.1700001 141.253182,21.1700001 C141.451215,21.1700001 141.646497,21.1067396 141.807857,20.9829692 C142.064566,20.7876869 142.199338,20.4723014 142.164499,20.1523319 L141.681336,15.8029464 C143.182167,14.1985146 144.003636,12.2126864 144.003636,10.1681819 C144.003636,5.11284638 139.068404,1 133.001818,1" id="Comments" transform="translate(133.001818, 11.085000) scale(-1, 1) translate(-133.001818, -11.085000) "></path>
                </g>
            </g>
        </g>
    </g>
</svg>