<svg width="20" height="19" viewBox="0 0 20 19" xmlns="http://www.w3.org/2000/svg">
	<defs>
		<linearGradient x1="0%" y1="100%" x2="63.848%" y2="32.54%" id="linearGradient-1">
			<stop stop-color="#94D11F" offset="0%"/>
			<stop stop-color="#09D3BF" offset="100%"/>
		</linearGradient>
	</defs>
	<g fill="none" fill-rule="evenodd">
		<g transform="translate(-583 -100)" fill="url(#linearGradient-1)">
			<g>
				<g>
					<g>
						<g>
							<g>
								<path d="M8.50337562,13.8136761 C8.50337562,13.9699662 8.46522817,14.1920627 8.28480105,14.3619012 L7.60845709,14.9352876 L1.45692324,9.23287544 L1.45692324,6.99497504 L8.22087829,13.2664187 C8.32604153,13.3651283 8.50337562,13.56787 8.50337562,13.8136761 L8.50337562,13.8136761 Z M17.8711518,7.15852322 L17.8711518,9.23384318 L10.2184643,16.5180275 C10.0921653,16.6365758 9.96483531,16.6898015 9.80605944,16.6898015 C9.64315952,16.6898015 9.49830232,16.6317371 9.37664289,16.5175437 L8.67658565,15.8933509 L17.8711518,7.15852322 Z M12.0412937,10.8557766 L9.92050178,12.8469031 L3.20139575,6.53965303 C2.86373928,6.22320182 2.6781571,5.79981526 2.6781571,5.34739648 C2.6781571,4.89546156 2.86373928,4.472075 3.20036474,4.15562379 L5.3221877,2.1640134 L12.0412937,8.47077963 C12.7418665,9.12835944 12.7418665,10.1981968 12.0412937,10.8557766 L12.0412937,10.8557766 Z M10.7901605,5.36239646 L13.0006505,3.28756037 C13.339338,2.97014141 13.7904058,2.79546421 14.2703419,2.79546421 C14.7507936,2.79546421 15.2018614,2.97062528 15.5405489,3.28852811 L17.8221787,5.43013831 L14.3419973,8.69626322 L13.0717904,7.50400666 L10.7901605,5.36239646 Z M19.2867315,5.03239687 L14.2878692,0.259499672 L14.1842524,0.16079012 L14.0806357,0.259015802 L9.71687689,4.39465574 L5.81604251,0.713853938 L5.81140295,0.709499104 L5.8067634,0.705628141 L5.31961017,0.319015726 L5.21805547,0.238209377 L5.12320236,0.325789911 L0.0434056105,5.02320334 L0.000103101213,5.06336458 L0.000103101213,5.12094515 L0.000103101213,9.74335867 L0.000103101213,9.7999715 L0.0428901045,9.84013274 L9.56531811,18.774315 L9.66841932,18.8710891 L9.77152053,18.774315 L19.2857004,9.83964887 L19.3284874,9.79948763 L19.3284874,9.7428748 L19.3284874,5.1282032 L19.3284874,5.07207424 L19.2867315,5.03239687 Z" id="Fill-14" transform="translate(583 100)"/>
							</g>
						</g>
					</g>
				</g>
			</g>
		</g>
	</g>
</svg>
