<?xml version="1.0" encoding="UTF-8" standalone="no"?>
<svg width="12px" height="12px" viewBox="0 0 12 12" version="1.1" xmlns="http://www.w3.org/2000/svg" xmlns:xlink="http://www.w3.org/1999/xlink">
    <defs></defs>
    <g id="Footers" stroke="none" stroke-width="1" fill="none" fill-rule="evenodd">
        <g id="Spotlights" transform="translate(-105.000000, -3685.000000)" fill="#FFFFFF">
            <g id="Footer-Recirc" transform="translate(78.000000, 2184.000000)">
                <g id="Wiki-Home" transform="translate(20.000000, 1494.000000)">
                    <g id="House-Icon" transform="translate(6.000000, 6.000000)">
                        <path d="M9.21121755,13 L10.7103481,13 C11.1600873,13 11.4599134,12.6985871 11.4599134,12.2464678 L11.4599134,6.97174254 L12.2094786,6.97174254 L12.2094786,6.97174254 C12.4343482,6.97174254 12.6592178,6.89638932 12.8091309,6.74568289 C13.108957,6.44427002 13.0340004,5.99215071 12.7341743,5.69073783 L7.48721743,1.16954474 C7.18739132,0.943485086 6.81260868,0.943485086 6.51278257,1.16954474 L1.26582566,5.69073783 C0.965999556,5.99215071 0.891043028,6.44427002 1.19086914,6.74568289 C1.26582566,6.89638932 1.49069525,6.97174254 1.71556483,6.97174254 L2.4651301,6.97174254 L2.4651301,12.2464678 C2.4651301,12.6985871 2.76495621,13 3.21469537,13 L4.71382592,13 C5.16356508,13 5.46339119,12.6985871 5.46339119,12.2464678 L5.46339119,9.98587127 L8.46165228,9.98587127 L8.46165228,12.2464678 C8.46165228,12.6985871 8.76147839,13 9.21121755,13 L9.21121755,13 Z" id="house-tiny"></path>
                    </g>
                </g>
            </g>
        </g>
    </g>
</svg>