<svg width="22px" height="22px" viewBox="0 0 22 22" version="1.1" xmlns="http://www.w3.org/2000/svg" xmlns:xlink="http://www.w3.org/1999/xlink">
    <g id="Footers" stroke="none" stroke-width="1" fill="none" fill-rule="evenodd">
        <g id="Mixed-Content-Footer" transform="translate(-806.000000, -3342.000000)" fill="#999999">
            <g id="Post-2-Copy-6" transform="translate(788.000000, 3174.000000)">
                <g id="Post-Actions" transform="translate(18.000000, 168.000000)">
                    <path d="M15.31475,10.7314167 C15.136,10.9101667 14.9013333,11 14.6666667,11 C14.432,11 14.1973333,10.9101667 14.0185833,10.7314167 L11.9166667,8.6295 L11.9166667,16.5 C11.9166667,17.006 11.506,17.4166667 11,17.4166667 C10.494,17.4166667 10.0833333,17.006 10.0833333,16.5 L10.0833333,8.6295 L7.98141667,10.7314167 C7.623,11.0898333 7.04366667,11.0898333 6.68525,10.7314167 C6.32683333,10.373 6.32683333,9.79366667 6.68525,9.43525 L10.3519167,5.76858333 C10.43625,5.68425 10.5370833,5.61733333 10.6498333,5.57058333 C10.8735,5.478 11.1265,5.478 11.3501667,5.57058333 C11.462,5.61733333 11.56375,5.68425 11.6480833,5.76858333 L15.31475,9.43525 C15.6731667,9.79366667 15.6731667,10.373 15.31475,10.7314167 M11,0 C4.93441667,0 0,4.93441667 0,11 C0,17.0655833 4.93441667,22 11,22 C17.0655833,22 22,17.0655833 22,11 C22,4.93441667 17.0655833,0 11,0" id="Upvote"></path>
                </g>
            </g>
        </g>
    </g>
</svg>