<?xml version="1.0" encoding="UTF-8" standalone="no"?>
<svg width="14px" height="15px" viewBox="0 0 14 15" version="1.1" xmlns="http://www.w3.org/2000/svg" xmlns:xlink="http://www.w3.org/1999/xlink">
    <g id="Footers" stroke="none" stroke-width="1" fill="none" fill-rule="evenodd">
        <g id="Mixed-Content-Footer" transform="translate(-622.000000, -1925.000000)" fill="#FFFFFF">
            <g id="1-copy-10" transform="translate(615.000000, 1920.000000)">
                <g id="Group-3">
                    <g id="Article-Small" transform="translate(7.000000, 5.000000)">
                        <polygon id="Fill-4" points="6.419 6.0027 10.56 6.0027 10.56 4.0007 6.419 4.0007"></polygon>
                        <polygon id="Fill-6" points="6.42 10.0037 10.561 10.0037 10.561 8.0017 6.42 8.0017"></polygon>
                        <path d="M11.9949,11.396 C11.9949,11.731 11.7229,12.003 11.3879,12.003 L4.9739,12.003 L4.9739,2 L11.9949,2 L11.9949,11.396 Z M13.9999,0.004 L13.9999,0 L2.9739,0.004 L2.9739,7.999 L-9.99999993e-05,7.994 L-9.99999993e-05,11.379 C-9.99999993e-05,12.866 1.1379,14.004 2.6249,14.004 L11.3749,14.004 C11.3759,14.004 11.3769,14.003 11.3779,14.003 L11.3879,14.003 C11.4489,14.003 11.5059,13.99 11.5659,13.985 C12.9569,13.891 13.9999,12.8 13.9999,11.379 L13.9999,0.004 L13.9999,0.004 Z" id="Fill-1"></path>
                    </g>
                </g>
            </g>
        </g>
    </g>
</svg>