<?xml version="1.0" encoding="iso-8859-1"?>
<!DOCTYPE svg PUBLIC "-//W3C//DTD SVG 1.1//EN" "http://www.w3.org/Graphics/SVG/1.1/DTD/svg11.dtd">
<svg version="1.1" xmlns="http://www.w3.org/2000/svg" xmlns:xlink="http://www.w3.org/1999/xlink" x="0px" y="0px" width="24px"
	 height="24px" viewBox="0 0 24 24" style="enable-background:new 0 0 24 24;" xml:space="preserve">
<g id="bold-g" style="opacity:0.75;">
	<path id="g" style="fill-rule:evenodd;clip-rule:evenodd;" d="m 12,14 0,-2 5,0 0,4.203168 c -0.497459,0.474934 -1.219559,0.894459 -2.166302,1.258574 -0.941414,0.358839 -1.89619,0.538259 -2.864333,0.538259 -1.230251,0 -2.302703,-0.253298 -3.2173593,-0.759895 C 7.8373423,16.728234 7.1500101,16 6.6900072,15.05541 6.2300013,14.105546 6,13.073885 6,11.960423 5.9999991,10.751987 6.2567458,9.6781098 6.7702406,8.7387878 7.2837323,7.7994839 8.0352511,7.079168 9.0247992,6.5778381 9.7789887,6.1926254 10.717718,6 11.840992,6 c 1.46024,0 2.599553,0.3034416 3.417943,0.9102902 0.823719,0.6015934 1.353258,1.4353656 1.588621,2.501319 L 14.488694,9.8469672 C 14.32287,9.2770548 14.00996,8.8285065 13.549963,8.5013208 13.0953,8.1688766 12.525643,8.0026499 11.840992,8.0026401 10.803301,8.0026499 9.9768976,8.3271878 9.3617795,8.9762548 8.7520022,9.6253394 8.4471155,10.588399 8.4471187,11.865437 c 0,1.377313 0.3102323,2.411613 0.9307076,3.102901 0.6204668,0.686019 1.4334977,1.029026 2.4390957,1.029025 0.49744,0 0.994886,-0.09499 1.492341,-0.284961 C 13.81205,15.517154 14.641615,15.1417 15,14.867292 L 15,14"/>
</g>
</svg>
