<?xml version="1.0" encoding="iso-8859-1"?>
<!DOCTYPE svg PUBLIC "-//W3C//DTD SVG 1.1//EN" "http://www.w3.org/Graphics/SVG/1.1/DTD/svg11.dtd">
<svg version="1.1" xmlns="http://www.w3.org/2000/svg" xmlns:xlink="http://www.w3.org/1999/xlink" x="0px" y="0px" width="24px"
	 height="24px" viewBox="0 0 24 24" style="enable-background:new 0 0 24 24;" xml:space="preserve">
<g id="indent-list-rtl" style="opacity:0.75;">
	<polygon id="arrow" points="19,15.079 14.206,11.552 18.91,7.953 18.92,10 21,10 21,13 19,13 		"/>
	<path id="bottom_line" d="M4,17h16c0.553,0,1,0.447,1,1v1c0,0.553-0.447,1-1,1H4c-0.553,0-1-0.447-1-1v-1
		C3,17.447,3.447,17,4,17z"/>
	<path id="middle_line" d="M4,10h7c0.553,0,1,0.447,1,1v1c0,0.553-0.447,1-1,1H4c-0.553,0-1-0.447-1-1v-1
		C3,10.447,3.447,10,4,10z"/>
	<path id="top_line_5_" d="M4,3h16c0.553,0,1,0.447,1,1v1c0,0.553-0.447,1-1,1H4C3.447,6,3,5.553,3,5V4C3,3.447,3.447,3,4,3z"/>
</g>
</svg>
