<?xml version="1.0" encoding="iso-8859-1"?>
<!DOCTYPE svg PUBLIC "-//W3C//DTD SVG 1.1//EN" "http://www.w3.org/Graphics/SVG/1.1/DTD/svg11.dtd">
<svg version="1.1" xmlns="http://www.w3.org/2000/svg" xmlns:xlink="http://www.w3.org/1999/xlink" x="0px" y="0px" width="24px"
    height="24px" viewBox="0 0 24 24" style="enable-background:new 0 0 24 24;" xml:space="preserve">
<g id="italic-geor-kan" style="opacity:0.75;">
   <path id="geor-kan" style="fill-rule:evenodd;clip-rule:evenodd;" d="m 15.056877,14.662527 c -0.441234,2.224981 -1.833855,3.33747 -4.177869,3.337474 -1.9193401,0 -2.8790083,-0.786752 -2.8790081,-2.360249 0,-0.298137 0.03585,-0.623878 0.1075492,-0.977225 0.08273,-0.430642 0.2454321,-0.836439 0.4881075,-1.217392 l 1.2409515,0.604555 -0.2068253,0.612837 c -0.055155,0.259489 -0.082732,0.496894 -0.08273,0.712215 0,0.971703 0.5211972,1.457555 1.5635992,1.457557 1.30713,0 2.101338,-0.723259 2.382627,-2.169772 l 0.05791,-0.331263 c 0.04412,-0.220842 0.06618,-0.42512 0.06619,-0.612836 0,-0.927535 -0.546025,-1.391303 -1.638057,-1.391305 l -1.116856,0 0.248191,-1.258799 1.116856,0 c 1.202339,-0.0055 1.908301,-0.552102 2.11789,-1.6397519 0.0386,-0.1821895 0.0579,-0.3561023 0.05791,-0.5217392 0,-1.1428505 -0.899006,-1.7142786 -2.697001,-1.7142859 l 0.231645,-1.1925466 c 2.708024,0 4.062039,0.8750939 4.062048,2.625259 0,0.2484528 -0.02759,0.5162234 -0.08273,0.8033127 -0.204075,1.0931719 -1.050679,1.8247109 -2.539814,2.1946169 l -0.03309,0.165632 c 1.229914,0.19876 1.844874,0.822638 1.844881,1.871636 0,0.2098 -0.02483,0.433402 -0.07446,0.670807 l -0.05791,0.331263"/>
</g>
</svg>
