<?xml version="1.0" encoding="iso-8859-1"?>
<!DOCTYPE svg PUBLIC "-//W3C//DTD SVG 1.1//EN" "http://www.w3.org/Graphics/SVG/1.1/DTD/svg11.dtd">
<svg version="1.1" id="Layer_1" xmlns="http://www.w3.org/2000/svg" xmlns:xlink="http://www.w3.org/1999/xlink" x="0px" y="0px"
	 width="24px" height="24px" viewBox="-0.5 0.5 24 24" style="enable-background:new -0.5 0.5 24 24;" xml:space="preserve">
<g id="strikethrough-s" style="opacity:0.75;">
	<path id="strikethrough" d="M4.833,12.5h12v1h-12V12.5z"/>
	<path id="s" d="M10.927,6.5c-1.133,0-2.076,0.287-2.75,0.9c-0.67,0.613-1,1.49-1,2.52c0,0.889,0.221,1.602,0.719,2.13
		c0.498,0.528,1.279,0.91,2.312,1.14l0.812,0.182v-0.03c0.656,0.147,1.128,0.375,1.375,0.63c0.252,0.256,0.375,0.607,0.375,1.11
		c0,0.573-0.172,0.97-0.531,1.26c-0.358,0.291-0.894,0.45-1.625,0.45c-0.477,0-0.969-0.074-1.469-0.24
		c-0.502-0.166-1.031-0.417-1.562-0.75l-0.375-0.238v0.448v1.53v0.18l0.156,0.062c0.58,0.237,1.143,0.417,1.688,0.54
		c0.549,0.121,1.07,0.18,1.562,0.18c1.286,0,2.297-0.293,3-0.9c0.709-0.605,1.062-1.486,1.062-2.608
		c0-0.943-0.256-1.726-0.781-2.312c-0.521-0.592-1.305-1-2.344-1.229l-0.812-0.181c-0.716-0.148-1.204-0.352-1.406-0.539
		C9.128,10.532,9.021,10.25,9.021,9.8c0-0.533,0.162-0.899,0.5-1.17c0.342-0.271,0.836-0.42,1.531-0.42
		c0.395,0,0.818,0.052,1.25,0.181c0.433,0.127,0.908,0.333,1.406,0.6l0.375,0.18V7.13c0,0-1.188-0.383-1.688-0.479
		C11.896,6.553,11.411,6.5,10.927,6.5z"/>
</g>
</svg>
