<?xml version="1.0" encoding="utf-8"?>
<svg xmlns="http://www.w3.org/2000/svg" width="24" height="24" viewBox="0 0 24 24">
    <g id="superscript">
        <path id="x" d="M13 9l-2.354 3.406 2.354 3.594h-1.199l-1.801-2.75-1.801 2.75h-1.199l2.403-3.662-2.403-3.338h1.188l1.857 2.494 1.752-2.494h1.203z"/>
        <path id="superscript_2" d="M15.578 11h2.422v1h-4v-1l2.006-1.507c.18-.145.312-.285.396-.424.086-.137.129-.281.129-.43 0-.229-.088-.414-.262-.555-.17-.14-.398-.203-.685-.21-.662-.015-1.584.126-1.584.126l.016-.656c.316-.094.641-.207.95-.256.311-.05.615-.075.913-.075.655 0 1.198.166 1.561.424.364.258.545.618.545 1.079 0 .268-.077.517-.23.748-.154.231-.514.501-1.007.89l-1.17.846z"/>
    </g>
</svg>
