<?xml version="1.0" encoding="UTF-8" standalone="no"?>
<!-- Created with Inkscape (http://www.inkscape.org/) -->

<svg
   xmlns:dc="http://purl.org/dc/elements/1.1/"
   xmlns:cc="http://creativecommons.org/ns#"
   xmlns:rdf="http://www.w3.org/1999/02/22-rdf-syntax-ns#"
   xmlns:svg="http://www.w3.org/2000/svg"
   xmlns="http://www.w3.org/2000/svg"
   version="1.1"
   width="11"
   height="11"
   id="svg2">
  <defs
     id="defs4" />
  <g
     transform="translate(0,-1041.3622)"
     id="layer1">
    <path
       d="m 9,1043.3622 0,4 -1.5,-1.5 -3,3 1.5,1.5 -4,0 0,-4 1.5,1.5 3,-3 -1.5,-1.5 z"
       id="path3881"
       style="opacity:0.25;fill:none;stroke:#000000;stroke-width:3.5;stroke-linejoin:round;stroke-miterlimit:4;stroke-opacity:1;stroke-dasharray:none" />
    <path
       d="m 9,1043.3622 0,4 -1.5,-1.5 -3,3 1.5,1.5 -4,0 0,-4 1.5,1.5 3,-3 -1.5,-1.5 z"
       id="path3879"
       style="fill:#ffffff;fill-opacity:1;stroke:#ffffff;stroke-width:2;stroke-linejoin:round;stroke-miterlimit:4;stroke-opacity:1;stroke-dasharray:none" />
    <path
       d="m 9,1043.3622 0,4 -1.5,-1.5 -3,3 1.5,1.5 -4,0 0,-4 1.5,1.5 3,-3 -1.5,-1.5 z"
       id="path3829"
       style="opacity:0.75;fill:#000000;fill-opacity:1;stroke:none" />
  </g>
</svg>
