<?xml version="1.0" encoding="UTF-8"?>
<svg width="18px" height="18px" viewBox="0 0 18 18" class="wds-icon wds-icon-small" version="1.1"
     xmlns="http://www.w3.org/2000/svg">
    <defs/>
    <g id="Page-6" stroke="none" stroke-width="1" fill="none" fill-rule="evenodd">
        <g id="Artboard">
            <g id="Group">
                <rect id="Rectangle-5" x="0" y="0" width="18" height="18"/>
                <path d="M12.0625,2.875 C10.8375,2.875 9.7,3.225 9,3.8375 C8.3,3.225 7.1625,2.875 5.9375,2.875 C3.6625,2.875 2,4.0125 2,5.5 L2,14.25 C2,14.775 2.35,15.125 2.875,15.125 C3.4,15.125 3.75,14.775 3.75,14.25 C3.75,13.9875 4.5375,13.375 5.9375,13.375 C7.3375,13.375 8.125,13.9875 8.125,14.25 C8.125,14.775 8.475,15.125 9,15.125 C9.525,15.125 9.875,14.775 9.875,14.25 C9.875,13.9875 10.6625,13.375 12.0625,13.375 C13.4625,13.375 14.25,13.9875 14.25,14.25 C14.25,14.775 14.6,15.125 15.125,15.125 C15.65,15.125 16,14.775 16,14.25 L16,5.5 C16,4.0125 14.3375,2.875 12.0625,2.875 Z M5.9375,11.625 C5.15,11.625 4.3625,11.8 3.75,12.0625 L3.75,5.5 C3.75,5.2375 4.5375,4.625 5.9375,4.625 C7.3375,4.625 8.125,5.2375 8.125,5.5 L8.125,12.0625 C7.5125,11.8 6.725,11.625 5.9375,11.625 Z M14.25,12.0625 C13.6375,11.8 12.85,11.625 12.0625,11.625 C11.275,11.625 10.4875,11.8 9.875,12.0625 L9.875,5.5 C9.875,5.2375 10.6625,4.625 12.0625,4.625 C13.4625,4.625 14.25,5.2375 14.25,5.5 L14.25,12.0625 Z"
                      id="Shape" fill="#CCCCCC"/>
            </g>
        </g>
    </g>
</svg>
