<?xml version="1.0" encoding="UTF-8" standalone="no"?>
<svg width="15px" height="18px" viewBox="0 0 15 18" version="1.1" xmlns="http://www.w3.org/2000/svg" xmlns:xlink="http://www.w3.org/1999/xlink">
    <!-- Generator: Sketch 41.2 (35397) - http://www.bohemiancoding.com/sketch -->
    <title>notes</title>
    <desc>Created with Sketch.</desc>
    <defs></defs>
    <g id="Article-Header-Test" stroke="none" stroke-width="1" fill="none" fill-rule="evenodd">
        <g id="Spells-3" transform="translate(-1002.000000, -325.000000)" fill="#5F1023">
            <g id="Group-2" transform="translate(790.000000, 285.000000)">
                <g id="Add-New-Page" transform="translate(212.000000, 40.000000)">
                    <g id="notes">
                        <path d="M3,11.25 L6.75,11.25 L6.75,12.75 L3,12.75 L3,11.25 Z M3,7.5 L12,7.5 L12,9 L3,9 L3,7.5 Z M3,3.75 L12,3.75 L12,5.25 L3,5.25 L3,3.75 Z M0.75,18 L9,18 L9,12.75 C9,12.336 9.336,12 9.75,12 L15,12 L15,0.75 C15,0.336 14.664,0 14.25,0 L0.75,0 C0.336,0 0,0.336 0,0.75 L0,17.25 C0,17.664 0.336,18 0.75,18 L0.75,18 Z" id="Fill-1472"></path>
                        <polygon id="Fill-1473" points="14.560575 13.5 10.500075 13.5 10.500075 17.5605"></polygon>
                    </g>
                </g>
            </g>
        </g>
    </g>
</svg>