<?xml version="1.0" encoding="UTF-8" standalone="no"?>
<svg width="14px" height="14px" viewBox="0 0 14 14" version="1.1" xmlns="http://www.w3.org/2000/svg" xmlns:xlink="http://www.w3.org/1999/xlink">
    <!-- Generator: sketchtool 42 (36781) - http://www.bohemiancoding.com/sketch -->
    <title>0BA175AF-7AA4-4F0D-B2D3-63F50C316324</title>
    <desc>Created with sketchtool.</desc>
    <defs></defs>
    <g id="Hi-Fi" stroke="none" stroke-width="1" fill="none" fill-rule="evenodd">
        <g id="Spells-4" transform="translate(-465.000000, -340.000000)" fill="#5F1023">
            <g id="top_of_article" transform="translate(65.000000, 276.000000)">
                <g id="Edit" transform="translate(400.000000, 64.000000)">
                    <g id="edit-ico-copy-3">
                        <path d="M0.183125,9.55828125 L7.24125,2.50015625 L11.25,6.50890625 L4.191875,13.5670313 C4.075,13.6845313 3.915625,13.7501563 3.75,13.7501563 L0.625,13.7501563 C0.28,13.7501563 0,13.4707813 0,13.1251563 L0,10.0001563 C0,9.83390625 0.06625,9.67515625 0.183125,9.55828125 Z M13.566875,3.30828125 C13.81125,3.55265625 13.81125,3.94765625 13.566875,4.19203125 L12.13375,5.62515625 L8.125,1.61640625 L9.558125,0.18328125 C9.8025,-0.06109375 10.1975,-0.06109375 10.441875,0.18328125 L13.566875,3.30828125 Z" id="Combined-Shape-Copy-2"></path>
                    </g>
                </g>
            </g>
        </g>
    </g>
</svg>