<?xml version="1.0" encoding="UTF-8" standalone="no"?>
<svg width="16px" height="16px" viewBox="0 0 16 16" version="1.1" xmlns="http://www.w3.org/2000/svg" xmlns:xlink="http://www.w3.org/1999/xlink">
    <!-- Generator: sketchtool 42 (36781) - http://www.bohemiancoding.com/sketch -->
    <title>69F6FA27-0184-4D62-AB2C-9B30F63F2FD4</title>
    <desc>Created with sketchtool.</desc>
    <defs></defs>
    <g id="Hi-Fi" stroke="none" stroke-width="1" fill="none" fill-rule="evenodd">
        <g id="Spells-2" transform="translate(-79.000000, -349.000000)" fill="#FFFFFF">
            <g id="top_of_article" transform="translate(67.000000, 276.000000)">
                <g id="Group-3" transform="translate(0.000000, 64.000000)">
                    <g id="Group-2">
                        <path d="M12.2130885,20.1222372 L20.4260861,11.9092397 L25.0907603,16.5739139 L16.8777628,24.7869115 C16.7417643,24.9236372 16.5563119,25 16.3635868,25 L12.7272645,25 C12.3258145,25 12,24.6749128 12,24.2727355 L12,20.6364132 C12,20.4429609 12.07709,20.2582357 12.2130885,20.1222372 Z M27.7867297,12.8495926 C28.0710901,13.133953 28.0710901,13.5935842 27.7867297,13.8779446 L26.1191123,15.545562 L21.454438,10.8808877 L23.1220554,9.2132703 C23.4064158,8.9289099 23.866047,8.9289099 24.1504074,9.2132703 L27.7867297,12.8495926 Z" id="Combined-Shape-Copy-2"></path>
                    </g>
                </g>
            </g>
        </g>
    </g>
</svg>