<?xml version="1.0" encoding="UTF-8" standalone="no"?>
<svg width="10px" height="10px" viewBox="0 0 10 10" version="1.1" xmlns="http://www.w3.org/2000/svg" xmlns:xlink="http://www.w3.org/1999/xlink">
    <!-- Generator: Sketch 42 (36781) - http://www.bohemiancoding.com/sketch -->
    <title>Scroll to Top</title>
    <desc>Created with Sketch.</desc>
    <defs></defs>
    <g id="Test-Concepts" stroke="none" stroke-width="1" fill="none" fill-rule="evenodd">
        <g id="Concept-2" transform="translate(-926.000000, -1106.000000)" fill="#FFFFFF">
            <g id="Video---Scroll-Copy" transform="translate(919.000000, 1100.000000)">
                <g id="Scroll-to-Top">
                    <path d="M16.70725,10.29175 L12.70725,6.29175 C12.61525,6.19975 12.50425,6.12675 12.38225,6.07575 C12.13825,5.97475 11.86225,5.97475 11.61825,6.07575 C11.49525,6.12675 11.38525,6.19975 11.29325,6.29175 L7.29325,10.29175 C6.90225,10.68275 6.90225,11.31475 7.29325,11.70575 C7.48825,11.90075 7.74425,11.99875 8.00025,11.99875 C8.25625,11.99875 8.51225,11.90075 8.70725,11.70575 L11.00025,9.41275 L11.00025,14.99875 C11.00025,15.55075 11.44825,15.99875 12.00025,15.99875 C12.55225,15.99875 13.00025,15.55075 13.00025,14.99875 L13.00025,9.41275 L15.29325,11.70575 C15.48825,11.90075 15.74425,11.99875 16.00025,11.99875 C16.25625,11.99875 16.51225,11.90075 16.70725,11.70575 C17.09825,11.31475 17.09825,10.68275 16.70725,10.29175" id="Upvote-Reply-tiny"></path>
                </g>
            </g>
        </g>
    </g>
</svg>