<?xml version="1.0" encoding="UTF-8" standalone="no"?>
<svg width="17px" height="18px" viewBox="0 0 17 18" version="1.1" xmlns="http://www.w3.org/2000/svg" xmlns:xlink="http://www.w3.org/1999/xlink">
    <!-- Generator: Sketch 42 (36781) - http://www.bohemiancoding.com/sketch -->
    <title>share</title>
    <desc>Created with Sketch.</desc>
    <defs></defs>
    <g id="Test-Concepts" stroke="none" stroke-width="1" fill="none" fill-rule="evenodd">
        <g id="Concept-2" transform="translate(-325.000000, -382.000000)" fill="#FFFFFF">
            <g id="Video" transform="translate(68.000000, 276.000000)">
                <g id="share" transform="translate(257.000000, 106.000000)">
                    <path d="M3,12 C3.8415,12 4.6005,11.64975 5.14575,11.09025 L10.617,14.21625 C10.54875,14.4675 10.5,14.727 10.5,15 C10.5,16.6545 11.8455,18 13.5,18 C15.1545,18 16.5,16.6545 16.5,15 C16.5,13.3455 15.1545,12 13.5,12 C12.6585,12 11.8995,12.35025 11.35425,12.90975 L5.883,9.78375 C5.95125,9.5325 6,9.273 6,9 C6,8.727 5.95125,8.4675 5.883,8.21625 L11.35425,5.09025 C11.8995,5.64975 12.6585,6 13.5,6 C15.1545,6 16.5,4.6545 16.5,3 C16.5,1.3455 15.1545,0 13.5,0 C11.8455,0 10.5,1.3455 10.5,3 C10.5,3.273 10.54875,3.5325 10.617,3.78375 L5.14575,6.90975 C4.6005,6.35025 3.8415,6 3,6 C1.3455,6 0,7.3455 0,9 C0,10.6545 1.3455,12 3,12"></path>
                </g>
            </g>
        </g>
    </g>
</svg>