<svg width="100%" height="100%" viewBox="0 0 198 63" fill="none" xmlns="http://www.w3.org/2000/svg">
<path d="M88.4681 18.895C88.4681 18.5967 88.5176 18.0995 88.6168 17.2542C88.7159 16.4088 89.2611 13.9227 91.4418 12.5304C91.3427 12.5304 91.194 12.4807 91.0949 12.4807C90.7975 12.4807 89.9054 12.4309 88.6663 12.8785C89.1619 12.1326 90.9957 10.8895 91.6896 10.5414C91.7392 10.4917 91.8383 10.442 91.8878 10.442C91.0948 7.90609 89.4097 5.81769 87.0308 4.5746C85.5439 3.77902 84.0075 3.38123 81.9259 3.3315H77.7627C74.442 3.3315 72.9056 3.28178 71.7161 3.03316C70.7249 2.78454 69.8328 2.23758 69.8328 2.23758L69.585 2.08841L69.6345 2.38675C69.6345 2.4862 69.8823 4.72377 72.5587 6.71272C73.0543 7.11051 73.4508 7.45857 73.4508 8.75139V20.7845C73.4508 22.0774 73.203 22.4254 72.6082 22.7735C71.9639 23.1713 70.6258 23.9171 70.6258 23.9669L70.1797 24.2155H81.0338C84.0571 24.2155 85.99 23.7182 88.022 22.326C88.4185 22.0774 88.7654 21.779 89.0628 21.5304C88.8646 19.989 89.1124 18.5967 89.3106 17.8011C89.3106 17.7514 88.7654 18.2486 88.4681 18.895ZM81.5294 19.1437H79.2V8.40332H81.5294C84.6022 8.40332 86.3369 10.3426 86.3369 13.7735C86.3369 17.2044 84.6022 19.1437 81.5294 19.1437ZM111.613 21.8287C111.812 21.4309 111.911 20.9337 111.911 20.4365C111.911 19.9392 111.762 19.442 111.564 19.0442L112.159 19.1437C112.555 19.1934 113.299 19.6906 113.299 20.4365C113.299 21.3315 112.406 21.7293 111.613 21.8287ZM123.112 22.326C121.03 23.7182 119.147 24.2155 116.124 24.2155H116.025C116.52 23.6188 116.768 22.8232 116.768 22.0276C116.768 20.884 116.223 19.8398 115.331 19.1437H116.619C119.692 19.1437 121.427 17.2044 121.427 13.7735C121.427 10.3426 119.692 8.40332 116.619 8.40332H114.29V9.74587C113.943 9.69614 113.646 9.64642 113.299 9.64642C112.753 9.64642 112.109 9.74587 111.96 9.84531C112.605 9.29835 113.348 9.04973 113.844 8.95029C111.663 8.45305 109.631 9.69614 109.334 10.0442C109.581 9.49725 110.077 9.00001 110.424 8.65194C109.73 8.90056 109.086 9.24863 108.541 9.59669V8.70167C108.541 7.35913 108.194 7.01106 107.649 6.66299C104.972 4.72377 104.724 2.43647 104.724 2.33703L104.675 2.03868L104.923 2.18786C104.923 2.18786 105.815 2.78454 106.806 2.98344C107.946 3.23205 109.532 3.28178 112.853 3.28178H117.016C119.097 3.38123 120.634 3.72929 122.121 4.52487C125.491 6.2652 127.473 9.69614 127.473 13.674C127.473 16.1105 126.68 18.4972 125.293 20.1879C124.747 21.0332 124.004 21.7293 123.112 22.326ZM112.605 18.1989C111.861 18.1989 111.068 18.3481 111.068 18.3481C110.92 18.1989 109.928 17.453 109.482 17.3536C110.275 18.1989 110.028 19.0939 109.829 19.3923C109.681 19.6409 109.383 19.7901 109.135 19.7901C108.937 19.7901 108.739 19.7403 108.541 19.5912V14.7182C108.739 14.4696 108.937 14.1713 109.185 13.9227C109.73 13.2763 110.622 12.8785 111.514 12.8785C112.06 12.8785 112.605 13.0276 112.952 13.326L113.249 13.5249L113.497 13.2763C113.646 13.1271 113.992 12.9779 114.339 12.8287V18.547C113.794 18.2984 113.249 18.1989 112.605 18.1989ZM111.613 11.4365C109.78 11.1879 106.955 12.4309 105.517 14.221C105.815 13.0276 107.103 11.0884 108.689 10.1934C108.689 10.1934 107.896 11.1879 108.243 11.337C108.739 11.5856 110.028 9.54697 111.713 9.49725C111.713 9.49725 110.474 10.0939 110.721 10.5414C110.92 10.8398 111.762 10.1437 113.199 10.1437C114.984 10.1437 116.57 11.2376 117.313 12.0829C116.074 11.7348 113.745 12.3315 113.051 12.9282C112.01 12.1326 109.978 12.2321 108.838 13.5746C107.401 15.2155 106.509 17.1547 106.261 17.7514C105.765 17.3536 105.319 17.0055 105.022 16.7569C104.774 16.558 104.526 16.4586 104.278 16.3591C105.616 14.4696 108.392 11.5856 111.613 11.4365ZM92.2843 5.86741C92.0861 3.5304 93.1765 2.23758 93.6721 1.69062C94.7624 0.546971 96.2493 -0.0994376 98.4796 9.90574e-06C101.949 0.198905 103.634 2.58565 103.634 5.12156C103.634 6.4641 102.94 8.25415 101.949 9.3978C101.899 9.34808 101.8 9.24863 101.751 9.19891C101.106 8.60222 100.165 7.85636 99.5699 6.96134C100.759 5.221 100.264 2.4862 98.1326 2.4862C96.7945 2.4862 95.7041 3.87846 96.1502 5.56907C95.9519 6.31493 95.8528 7.3094 96.0015 8.05526C94.4651 7.25968 93.9694 6.21548 93.6721 5.27073C93.2756 6.06631 93.0278 7.16023 93.3251 8.20443C93.3251 8.30388 92.433 7.5083 92.2843 5.86741ZM93.1765 10.0939C93.0278 10.6409 90.9957 11.2376 90.0045 12.2321C91.4913 11.9337 92.1852 12.1823 92.433 12.779C92.5817 13.2265 92.3835 13.8232 92.2843 14.5193C92.78 13.9724 94.4651 12.8287 95.7041 12.5801C95.4067 12.4807 94.6633 12.3315 94.3659 12.3315C95.2581 11.2873 97.2405 10.9392 98.3309 11.1879C97.637 11.1381 96.2493 11.5359 95.7041 11.9834C96.1997 12.0829 96.6458 12.1823 97.0423 12.3315C96.398 12.5801 95.5554 13.3757 95.2581 14.221C96.1006 13.6243 97.8353 13.7735 98.1326 15.0166C98.3309 15.8619 97.7362 16.6077 97.4388 16.7569C97.6866 16.8066 98.2813 16.7569 98.5291 16.6077C98.43 16.9558 97.9344 17.5525 97.5875 17.6519C98.4796 17.6519 99.7682 17.0553 100.115 16.21C100.115 16.21 99.5699 16.4088 99.3221 16.1602C99.0743 15.9116 99.4213 14.8177 99.4213 14.8177C99.4213 14.8177 99.0743 15.2652 98.777 15.0166C98.4796 14.7182 98.8761 13.7238 99.0248 13.5249C98.7274 13.4254 97.9344 13.326 97.5875 13.3757C98.5787 13.0276 100.809 12.8287 101.057 13.2763C101.255 13.6243 100.759 14.3205 100.759 14.3205C101.156 14.2707 102.296 14.3205 102.692 14.768C103.089 15.2652 102.841 15.9116 102.841 15.9116C103.733 15.4641 104.526 14.0718 104.328 12.6796C104.229 12.9779 103.832 13.4254 103.436 13.5249C103.485 13.0774 103.138 12.8287 102.841 12.7293C102.99 11.884 102.643 10.7901 101.404 9.59669C100.363 8.5525 98.3805 7.16023 98.4796 5.32045C98.1822 5.71824 97.9344 6.86189 98.2318 7.5083C99.0743 8.50277 100.908 9.5967 101.354 11.2873C100.561 9.29835 96.6953 7.75692 96.844 5.02211C96.3484 5.51935 96.051 7.45857 96.4475 8.45305C97.191 8.90056 97.8353 9.64642 97.9344 10.3426C97.2405 8.75139 94.4155 8.45305 93.6225 6.56355C93.4243 7.25968 93.5234 8.10498 93.9199 8.65194C93.9199 8.65194 93.226 8.40332 91.7392 8.45305C92.2348 8.65194 93.2756 9.54697 93.1765 10.0939ZM101.205 12.3812C100.363 12.3812 100.115 11.7348 99.9169 11.0387C100.908 11.4365 101.205 12.3812 101.205 12.3812ZM112.01 25.3591C112.605 25.9061 114.042 26.3039 114.785 25.9558C114.339 26.7514 112.258 27.8453 110.325 27.3481C108.491 26.8508 107.649 25.1105 107.649 23.9669C106.756 24.8619 107.004 26.2542 107.649 26.8508C106.955 26.6519 105.864 25.9061 105.666 24.5635C105.517 23.4199 106.162 22.0774 104.972 21.0332C104.278 20.3867 103.138 19.4917 102.445 18.9448C100.958 17.8011 101.503 16.9061 101.205 16.3094C100.958 15.8122 100.313 15.5635 99.9664 15.116C99.5699 14.6685 99.6195 14.0221 99.8178 13.674C99.7682 14.1713 100.115 14.5691 100.611 14.768C101.156 14.9669 101.602 14.8177 102.098 15.0663C102.643 15.4144 102.395 16.2597 102.791 16.6077C103.138 16.8564 104.08 16.5083 104.824 17.1547C105.617 17.8011 107.351 19.2431 108.095 19.8398C109.433 20.9337 110.821 19.6906 110.374 18.3978C111.762 19.1934 111.911 21.4807 110.771 22.2763C111.861 22.5249 113.794 22.0276 113.794 20.4862C113.794 19.5414 112.902 18.8453 112.307 18.7459C114.538 18.547 116.471 20.0884 116.471 22.0774C116.371 24.0663 114.339 25.6575 112.01 25.3591ZM104.625 21.2818C104.675 21.3315 104.724 21.3812 104.774 21.4309C103.584 23.8674 101.354 27 97.0918 27C95.5554 27 94.1677 26.453 93.1765 25.7072C92.8295 25.4586 92.5321 25.1602 92.2843 24.8122C92.1356 24.6133 91.987 24.4641 91.8383 24.2652C91.64 24.0166 91.4913 24.0166 91.3922 24.1658C91.194 24.4641 91.5409 25.4088 91.5409 25.4088C88.1707 22.2265 89.9054 17.5525 89.9549 17.3536C90.1532 16.7569 89.9549 16.6575 89.7567 16.7569C89.4593 16.8564 89.1124 17.3536 89.1124 17.3536C89.3602 14.5193 91.987 12.779 91.987 12.779L92.0365 12.8287C92.3339 13.2763 91.8878 13.8232 91.8383 15.6133C92.3339 14.9171 94.2668 13.5746 95.3572 13.1768C95.0102 13.6243 94.7129 14.2707 94.7129 15.2155C94.7129 15.2155 95.5059 14.3205 96.4971 14.3205C96.7449 14.3205 96.9927 14.3702 97.191 14.4696C93.4243 18.1492 95.0102 22.7238 98.1822 22.7238C99.9664 22.7238 101.751 20.7348 102.494 19.3923C103.039 19.9392 103.981 20.7348 104.625 21.2818Z" fill="#E40712"/>
<path d="M109.681 32.1713C100.908 32.1713 92.0861 38.1878 92.0861 47.7845C92.0861 57.7293 100.859 63 109.581 63C118.403 63 127.225 57.779 127.225 47.7845C127.225 37.9392 118.453 32.1713 109.681 32.1713ZM109.581 56.2376C105.716 56.2376 100.958 53.3039 100.958 47.7845C100.958 42.116 105.418 39.0829 109.631 39.0829C113.497 39.0829 118.403 41.768 118.403 47.884C118.403 53.7017 113.497 56.2376 109.581 56.2376Z" fill="#020202"/>
<path d="M150.024 33.116H162.167L159.887 35.7016V62.1547H153.295C152.056 58.2265 139.418 48.1823 138.278 44.9005H138.179V59.6188L140.459 62.1547H128.415L130.645 59.569V35.7016L128.365 33.0663H138.129C139.021 36 150.421 44.4033 152.106 48.8784H152.205V35.7016L150.024 33.116Z" fill="#020202"/>
<path d="M179.315 32.4696C172.922 32.4696 166.925 32.8674 163.753 33.116L166.033 35.6519V59.6188L163.753 62.1547C166.974 62.4033 173.318 62.8011 179.712 62.8011C192.746 62.8011 198 56.3867 198 47.6354C198 38.5359 190.814 32.4696 179.315 32.4696ZM179.613 56.1878C177.63 56.1878 175.846 56.0884 174.656 55.9392V39.3812C175.994 39.232 177.035 39.0829 179.216 39.0829C184.817 39.0829 189.128 41.4696 189.128 47.5359C189.128 53.3536 185.213 56.1878 179.613 56.1878Z" fill="#020202"/>
<path d="M81.3808 59.5691L83.611 62.105H70.4276L72.8065 59.5691L72.757 53.5525L59.1274 33.116H73.0048L71.0223 35.3536L77.5149 46.8895H77.6141L83.958 35.3536L82.0746 33.116H94.9607L81.3312 53.6519L81.3808 59.5691Z" fill="#020202"/>
<path d="M61.8533 55.5414L57.4918 62.105H57.5414H32.3639L34.6437 59.569V35.6519L32.3639 33.116L55.1128 33.0663V33.116L59.4743 39.6298H43.2675V44.2541H54.7659L50.4044 50.8177V50.8674L43.2675 50.8177V55.5911L61.8533 55.5414Z" fill="#020202"/>
<path d="M29.1424 49.3757C28.0521 48.3315 26.6148 47.5359 24.7314 46.9889C25.4748 46.79 26.1687 46.4917 26.813 46.0939C27.4573 45.6961 27.9529 45.2983 28.399 44.8011C28.8451 44.3039 29.192 43.8066 29.3902 43.2597C29.638 42.7624 29.7372 42.2652 29.7372 41.7679V40.8232C29.7372 39.6795 29.4894 38.5856 28.9442 37.6409C28.399 36.6961 27.6556 35.8508 26.6643 35.2044C25.6731 34.5083 24.2854 34.011 22.8976 33.6132C21.5099 33.2652 19.9735 33.0663 18.2884 33.0663H4.90663H3.5189H0.941677L3.5189 35.7514V44.9005H0L3.5189 49.4254V59.4199L0.941677 62.105H3.5189H4.90663H19.1805C22.6002 62.105 25.574 61.5083 27.6556 60.2652C29.7372 59.0221 30.7284 57.232 30.7284 54.7956V53.1547C30.7284 51.663 30.1832 50.4199 29.1424 49.3757ZM11.9444 38.4365H16.6033C17.9414 38.4365 19.0318 38.6353 19.8743 39.0331C20.7169 39.4309 21.1134 40.1768 21.1134 41.2707V42.2155C21.1134 43.0608 20.816 43.7072 20.1717 44.2044C19.5274 44.7016 18.6849 44.9503 17.5945 44.9503H11.9444V38.4365ZM22.1046 53.9503C22.1046 54.5469 22.0055 55.0442 21.7577 55.3923C21.5099 55.7403 21.2125 56.0387 20.816 56.2873C20.4195 56.4862 19.9735 56.6353 19.4283 56.7348C18.8831 56.7845 18.3379 56.8342 17.7927 56.8342H11.9444V49.8232H17.8423C18.9327 49.8232 19.8743 50.0718 20.7665 50.569C21.609 51.0663 22.0551 51.7127 22.0551 52.558V53.9503H22.1046Z" fill="#020202"/>
</svg>
