<svg xmlns="http://www.w3.org/2000/svg" width="744.094" height="1052.362"><rect width="510.986" height="275.529" x="119.354" y="-729.791" ry="58.006" transform="scale(1 -1)" fill="#006cb0"/><rect width="36.429" height="35" x="180.714" y="514.505" ry="0" fill="#fff"/><rect width="36.429" height="35" x="240.714" y="514.505" ry="0" fill="#fff"/><rect width="36.429" height="35" x="180.714" y="514.505" ry="0" fill="#fff"/><rect width="36.429" height="35" x="298.714" y="514.505" ry="0" fill="#fff"/><rect width="36.429" height="35" x="357.143" y="514.505" ry="0" fill="#fff"/><rect width="36.429" height="35" x="414.286" y="513.791" ry="0" fill="#fff"/><rect width="36.429" height="35" x="473.571" y="513.791" ry="0" fill="#fff"/><rect width="36.429" height="35" x="533.571" y="513.791" ry="0" fill="#fff"/><rect width="36.429" height="35" x="200.714" y="572.362" ry="0" fill="#fff"/><rect width="36.429" height="35" x="257.143" y="572.362" ry="0" fill="#fff"/><rect width="36.429" height="35" x="316.429" y="572.362" ry="0" fill="#fff"/><rect width="36.429" height="35" x="375" y="572.362" ry="0" fill="#fff"/><rect width="36.429" height="35" x="435.714" y="572.362" ry="0" fill="#fff"/><rect width="36.429" height="35" x="493.571" y="572.362" ry="0" fill="#fff"/><rect width="36.429" height="35" x="180" y="630.934" ry="0" fill="#fff"/><rect width="273.571" height="35" x="238.571" y="630.934" ry="0" fill="#fff"/><rect width="36.429" height="35" x="533.571" y="631.648" ry="0" fill="#fff"/></svg>