<svg xmlns="http://www.w3.org/2000/svg" xmlns:xlink="http://www.w3.org/1999/xlink" version="1.1" x="0px" y="0px" viewBox="0 0 32 26" enable-background="new 0 0 32 26" xml:space="preserve"><g><rect x="4" y="4" fill="#3A3A3A" width="14" height="2"/><rect x="4" y="8" fill="#3A3A3A" width="14" height="2"/><polygon fill="#3A3A3A" points="12.8,26 0,26 0,0 22,0 22,16.4 20,16.4 20,2 1.9,2 1.9,24.1 12.8,24"/><path fill="#3A3A3A" d="M30.186 22.001c0 1.1-0.891 2.015-1.988 2.015l-4.195-0.015C24.541 25.1 25 26 26 26h3 c1.656 0 2.998-2.343 2.998-4S30.656 18 29 18h-3c-1.034 0-1.459 0.911-1.998 1.999l4.195-0.015 C29.295 20 30.2 20.9 30.2 22.001z"/><path fill="#3A3A3A" d="M18.998 21.8c0 0.5 0.4 1 0.9 1h6.109c0.518 0 0.938-0.465 0.938-1 c0-0.534-0.42-1-0.938-1h-6.109C19.418 20.8 19 21.3 19 21.8z"/><path fill="#3A3A3A" d="M15.814 21.999c0-1.1 0.891-2.015 1.988-2.015l4.196 0.015C21.459 18.9 21 18 20 18h-3 c-1.656 0-2.998 2.343-2.998 4s1.342 4 3 4h3c1.034 0 1.459-0.911 1.998-1.999l-4.195 0 C16.705 24 15.8 23.1 15.8 21.999z"/></g></svg>