<svg xmlns="http://www.w3.org/2000/svg" xmlns:xlink="http://www.w3.org/1999/xlink" version="1.1" id="Layer_1" x="0px" y="0px" viewBox="0 0 65.6 72" enable-background="new 0 0 65.6 72" xml:space="preserve"><g><g><defs><polygon id="SVGID_1_" points="0,10.3 16.5,72 23.8,72 6.9,10.2"/></defs><use xlink:href="#SVGID_1_" overflow="visible" fill-rule="evenodd" clip-rule="evenodd" fill="#D5D4D4"/><clipPath id="SVGID_2_"><use xlink:href="#SVGID_1_" overflow="visible"/></clipPath><rect x="-25.4" y="-16.6" clip-path="url(#SVGID_2_)" fill="#D5D4D4" width="74.7" height="114.1"/></g><g><defs><path id="SVGID_3_" d="M56.7 4.2c0 0-9.4 3.1-14.3 5.2c-2.8 1.2-2.9-6.5-3.3-7.9c-1.8-6.5-25.5 10-25.5 10L24 50.2 c0 0 2.3 0.6 4.7-1.5c6.2-5.4 17.2-13.6 17.4-4.9c0.2 7.3 19.6-3.8 19.6-3.8S60.3 26 59.9 17.1C59.6 8.3 56.7 4.2 56.7 4.2"/></defs><use xlink:href="#SVGID_3_" overflow="visible" fill-rule="evenodd" clip-rule="evenodd" fill="#D5D4D4"/><clipPath id="SVGID_4_"><use xlink:href="#SVGID_3_" overflow="visible"/></clipPath><rect x="-11.8" y="-25.4" clip-path="url(#SVGID_4_)" fill="#D5D4D4" width="102.9" height="101.1"/></g></g></svg>