<svg xmlns="http://www.w3.org/2000/svg" xmlns:xlink="http://www.w3.org/1999/xlink" version="1.1" x="0px" y="0px" viewBox="0 0 32 26" enable-background="new 0 0 32 26" xml:space="preserve"><g><rect x="4" y="4" fill="#D5D4D4" width="14" height="2"/><rect x="4" y="8" fill="#D5D4D4" width="14" height="2"/><g><g><polygon fill="#D5D4D4" points="12,26 0,26 0,0 22,0 22,11 20,11 20,2 2,2 2,24 12,24"/></g><path fill="#D5D4D4" d="M23 24c2.2 0 4-1.8 4-4c0-2.2-1.6-4-3.8-4C21 16 19 17.8 19 20C19 22.2 20.8 24 23 24z M28 14.8 c0.5 0 2.2 0 3 0c0.8 0 1 0.6 1 1.2c0 2 0 7 0 8.8c0 0.6-0.7 1.2-1.2 1.2c-4.2 0-11.4 0-15.6 0c-0.3 0-1.2-0.3-1.2-1.2 c0-1.7 0-7.1 0-8.8c0-0.7 0.2-1.2 1-1.2c0.8 0 2.5 0 3 0l2-1.6h6L28 14.8z"/><circle fill="#D5D4D4" cx="23" cy="20" r="2"/></g></g></svg>