<svg xmlns="http://www.w3.org/2000/svg" xmlns:xlink="http://www.w3.org/1999/xlink" version="1.1" x="0px" y="0px" viewBox="0 0 32 26" enable-background="new 0 0 32 26" xml:space="preserve"><g><rect x="4" y="4" fill="#3A3A3A" width="14" height="2"/><rect x="4" y="8" fill="#3A3A3A" width="14" height="2"/><g><g><polygon fill="#3A3A3A" points="12,26 0,26 0,0 22,0 22,11 20,11 20,2 2,2 2,24 12,24"/></g><path fill="#3A3A3A" d="M22.999 23.991c2.215-0.002 4.01-1.799 4.001-4.004c-0.007-2.195-1.63-3.98-3.824-3.987 c-2.212-0.003-4.178 1.788-4.185 3.994C18.987 22.2 20.8 24 23 23.991z M28 14.8c0.465 0 2.2 0 3 0 c0.781 0 1 0.6 1 1.182c0 2 0 7 0 8.8c0 0.562-0.742 1.2-1.2 1.2c-4.198 0-11.39 0-15.6 0c-0.312 0-1.2-0.281-1.2-1.2 c0-1.697 0-7.086 0-8.8c0-0.656 0.175-1.2 1-1.2c0.75 0 2.5 0 3 0l2-1.6h6L28 14.8z"/><circle fill="#3A3A3A" cx="23" cy="20" r="2"/></g></g></svg>