<svg id="Layer_1" data-name="Layer 1" xmlns="http://www.w3.org/2000/svg" viewBox="0 0 40 40"><defs><style>.cls-1{fill:#1a5eb8;}</style></defs><title>Anime_icon_WAM_1-1</title><path class="cls-1" d="M20,0A20,20,0,1,0,40,20,20,20,0,0,0,20,0Zm0,38.18A18.18,18.18,0,1,1,38.18,20,18.21,18.21,0,0,1,20,38.18Z"/><path class="cls-1" d="M16.65,11.54l-2.57.83V9.67a.91.91,0,0,0-1.82,0v2.7l-2.57-.83a.91.91,0,0,0-.57,1.73l2.57.84-1.58,2.18a.92.92,0,0,0,.73,1.45.91.91,0,0,0,.74-.38l1.59-2.18,1.58,2.18a.91.91,0,0,0,.74.38.9.9,0,0,0,.54-.18.92.92,0,0,0,.2-1.27l-1.59-2.18,2.57-.84a.91.91,0,0,0-.56-1.73Z"/><path class="cls-1" d="M30.31,11.54l-2.57.83V9.67a.91.91,0,0,0-1.82,0v2.7l-2.57-.83a.89.89,0,0,0-1.14.58.9.9,0,0,0,.58,1.15l2.57.84-1.59,2.18a.92.92,0,0,0,.2,1.27.9.9,0,0,0,.54.18.91.91,0,0,0,.74-.38l1.58-2.18,1.59,2.18a.91.91,0,0,0,.74.38.89.89,0,0,0,.53-.18.91.91,0,0,0,.21-1.27l-1.59-2.18,2.57-.84a.91.91,0,0,0-.57-1.73Z"/><path class="cls-1" d="M16.65,25l-2.57.83v-2.7a.91.91,0,0,0-1.82,0v2.7L9.69,25a.91.91,0,0,0-.57,1.73l2.57.84-1.58,2.18a.92.92,0,0,0,.73,1.45.91.91,0,0,0,.74-.38l1.59-2.18,1.58,2.18a.91.91,0,0,0,.74.38.9.9,0,0,0,.54-.18.92.92,0,0,0,.2-1.27l-1.59-2.18,2.57-.84A.91.91,0,0,0,16.65,25Z"/><path class="cls-1" d="M30.31,25l-2.57.83v-2.7a.91.91,0,1,0-1.82,0v2.7L23.35,25a.91.91,0,0,0-.56,1.73l2.57.84-1.59,2.18a.92.92,0,0,0,.2,1.27.9.9,0,0,0,.54.18.91.91,0,0,0,.74-.38l1.58-2.18,1.59,2.18a.91.91,0,0,0,.74.38.89.89,0,0,0,.53-.18.91.91,0,0,0,.21-1.27l-1.59-2.18,2.57-.84A.91.91,0,1,0,30.31,25Z"/></svg>