<svg xmlns="http://www.w3.org/2000/svg" xmlns:xlink="http://www.w3.org/1999/xlink" version="1.0" x="0px" y="0px" viewBox="-1 -1 32 32" style="enable-background:new -1 -1 32 32;" xml:space="preserve"><g><path style="fill:#ff7f26;" d="M6 7.7H2.8v14.8c0 0 4.1-0.6 10.2 1.7c0 0-1.4-1.6-3.6-2.5C7.2 20.8 6 20.5 6 20.5V7.7z"/><path style="fill:#ff7f26;" d="M14.1 8c0 0-2.7-2.4-6.2-2v13.9c0 0 3.9 1 6.2 3.3V8z"/><path style="fill:#ff7f26;" d="M24 7.6h3.2v14.8c0 0-4.1-0.6-10.2 1.7c0 0 1.4-1.6 3.6-2.5c2.2-0.8 3.5-1.1 3.5-1.1V7.6H24z"/><path style="fill:#ff7f26;" d="M15.9 7.9c0 0 2.7-2.4 6.2-2v13.9c0 0-3.9 1-6.2 3.3C15.9 23.1 15.9 7.9 15.9 7.9z"/></g></svg>