<svg xmlns="http://www.w3.org/2000/svg" xmlns:xlink="http://www.w3.org/1999/xlink" version="1.0" x="0px" y="0px" viewBox="-1 -1 32 32" style="enable-background:new -1 -1 32 32;" xml:space="preserve"><path style="fill:#ff5400;" d="M15 3.7c-6.2 0-11.2 4.5-11.2 9.9s5.1 9.9 11.2 9.9c0.8 0 1.7-0.1 2.4-0.3l-0.5 3l3.3-3.8 c3.6-1.7 6-5 6-8.8C26.2 8.2 21.2 3.7 15 3.7z M15.1 18.8c0 0.1-0.1 0.2-0.2 0.3c-0.1 0.1-0.2 0.2-0.3 0.3c-0.1 0.1-0.2 0.2-0.4 0.2 c-0.1 0-0.2 0.1-0.4 0.1c-0.4 0-0.8-0.1-0.9-0.3c-0.3-0.2-0.4-0.5-0.4-0.9c0-0.2 0.1-0.4 0.1-0.5c0.1-0.2 0.2-0.3 0.4-0.4 c0.2-0.1 0.3-0.2 0.6-0.2c0.2 0 0.5 0 0.8 0.1c0.2 0.1 0.4 0.2 0.6 0.3c0.1 0.1 0.3 0.2 0.3 0.4c0.1 0.1 0.1 0.3 0.1 0.4 C15.1 18.6 15.1 18.8 15.1 18.8z M17.4 9.7c-0.2 0.7-0.5 1.2-0.7 1.9s-0.4 1.2-0.6 1.9c-0.2 0.7-0.4 1.2-0.6 1.8 c-0.2 0.6-0.3 1.1-0.5 1.6c0 0.2-0.1 0.3-0.2 0.3c-0.1 0-0.2 0-0.4 0c-0.2 0-0.5-0.1-0.7-0.2c-0.2-0.1-0.4-0.1-0.6-0.2 c-0.2-0.1-0.3-0.2-0.4-0.3c-0.1-0.1-0.1-0.3 0-0.6c0.1-0.5 0.2-1 0.3-1.7s0.3-1.3 0.4-2c0.2-0.7 0.3-1.3 0.5-2 c0.2-0.7 0.3-1.2 0.5-1.8c0.1-0.3 0.2-0.4 0.3-0.5s0.3 0 0.6 0.1c0.3 0.1 0.5 0.2 0.8 0.3c0.3 0.1 0.6 0.3 0.7 0.4 C17 8.9 17.2 9 17.2 9.2C17.5 9.3 17.5 9.5 17.4 9.7z"/></svg>