<svg xmlns="http://www.w3.org/2000/svg" xmlns:xlink="http://www.w3.org/1999/xlink" version="1.0" x="0px" y="0px" viewBox="-1 -1 32 32" style="enable-background:new -1 -1 32 32;" xml:space="preserve"><path style="fill:#94d11f;" d="M28.9 15.9c-0.4-2.8-1.3-5.4-3-7.7c-1.2-1.6-2.7-2.5-4.8-2.4c-1.4 0.1-2.7 0.6-3.9 1.4 c-0.6 0.3-1.2 0.6-1.9 0.5c-0.3 0-0.6 0-0.9 0c-0.7 0-1.3-0.2-1.9-0.6c-0.7-0.4-1.3-0.8-2-0.9C8 5.3 5.8 6 4.1 8.1 c-0.4 0.5-0.7 1-1 1.5C1.3 12.8 0.7 16.3 1 20c0.1 0.8 0.2 1.8 0.6 2.6c0.5 1.1 1.4 1.7 2.5 1.5c0.6-0.1 1-0.4 1.4-0.7 c1.3-1 2.4-2.2 3.6-3.5c0.5-0.6 1-0.8 1.8-0.8c1.4 0 2.8 0 4.2-0.1c1 0 2 0 3 0c2.4-0.1 2.2-0.1 3.8 1.6c1 1.1 2.1 2.2 3.5 2.9 c1.2 0.7 2.5 0.3 3.2-1c0.2-0.4 0.3-0.8 0.4-1.1C29.2 19.7 29.2 17.8 28.9 15.9z M11.2 14.2H8.9v2.2H6.8v-2.2H4.7v-2.1h2.2V9.9H9 v2.2h2.2V14.2L11.2 14.2z M20.5 12.3c-0.8 0-1.5-0.7-1.5-1.5s0.7-1.5 1.5-1.5S22 9.9 22 10.8C22.1 11.6 21.4 12.3 20.5 12.3z M24.1 15.6c-0.8 0-1.5-0.7-1.5-1.5s0.7-1.5 1.5-1.5s1.5 0.6 1.6 1.4C25.6 14.8 24.9 15.6 24.1 15.6z"/></svg>