<svg xmlns="http://www.w3.org/2000/svg" xmlns:xlink="http://www.w3.org/1999/xlink" version="1.0" x="0px" y="0px" viewBox="-1 -1 32 32" style="enable-background:new -1 -1 32 32;" xml:space="preserve"><g><path style="fill:#c819ad;" d="M24.8 10.9c-2.2-6.7-9.7-6.8-9.8-6.8c-0.1 0-7.5 0.3-9.8 6.8C3.1 17 5.7 20.6 6.1 21.1 c0 0.4 0 0.8 0 1c0.4 3.6 3.6 3.7 3.6 3.7L8.5 18c0 0-0.9 0.2-1.7 1.1c-0.7-1.3-1.4-3.8-0.1-7.8c2-5.5 7.9-5.8 8.2-5.8 c0.1 0 6.3 0.2 8.2 5.8c1.2 3.7 0.7 6.2 0 7.6c-0.8-0.7-1.5-0.8-1.5-0.8l-1.1 7.8c0 0 3.3-0.1 3.6-3.7c0.1-0.6 0-0.9 0-1.4 C24.8 19.8 26.6 16.4 24.8 10.9z"/><rect x="7.5" y="20.7" transform="matrix(0.1503 0.9886 -0.9886 0.1503 31.0252 6.8869)" style="fill:#c819ad;" width="8" height="1.6"/><rect x="17.9" y="17.6" transform="matrix(0.9886 0.1503 -0.1503 0.9886 3.4549 -2.5676)" style="fill:#c819ad;" width="1.6" height="8"/></g></svg>