<svg xmlns="http://www.w3.org/2000/svg" xmlns:xlink="http://www.w3.org/1999/xlink" version="1.0" x="0px" y="0px" width="60px" height="60px" viewBox="1266 618 60 60" style="enable-background:new 1266 618 60 60;" xml:space="preserve"><path style="fill:#FFFFFF;" d="M1296 620.5c-15.2 0-27.5 12.3-27.5 27.5c0 15.2 12.3 27.5 27.5 27.5c15.2 0 27.5-12.3 27.5-27.5 C1323.5 632.8 1311.2 620.5 1296 620.5z M1286 632c2.2 0 4 1.8 4 4c0 2.2-1.8 4-4 4c-2.2 0-4-1.8-4-4 C1282 633.8 1283.8 632 1286 632z M1292.2 646.7h-3.6v12.1h3.6v4.4h-10.1v-20.8h10L1292.2 646.7L1292.2 646.7z M1310.3 663.1h-10.1 v-4.5h3.6v-11.9h-3.6v-4.4h10L1310.3 663.1z M1306.3 640c-2.2 0-4-1.8-4-4c0-2.2 1.8-4 4-4c2.2 0 4 1.8 4 4 C1310.3 638.2 1308.5 640 1306.3 640z"/></svg>