<?xml version="1.0" encoding="UTF-8" standalone="no"?>
<!-- Generator: Adobe Illustrator 17.1.0, SVG Export Plug-In . SVG Version: 6.00 Build 0)  -->

<svg
   xmlns:dc="http://purl.org/dc/elements/1.1/"
   xmlns:cc="http://creativecommons.org/ns#"
   xmlns:rdf="http://www.w3.org/1999/02/22-rdf-syntax-ns#"
   xmlns:svg="http://www.w3.org/2000/svg"
   xmlns="http://www.w3.org/2000/svg"
   xmlns:sodipodi="http://sodipodi.sourceforge.net/DTD/sodipodi-0.dtd"
   xmlns:inkscape="http://www.inkscape.org/namespaces/inkscape"
   version="1.1"
   id="Layer_1"
   x="0px"
   y="0px"
   viewBox="0 0 52 52"
   enable-background="new 0 0 52 52"
   xml:space="preserve"
   inkscape:version="0.48.4 r9939"
   width="100%"
   height="100%"
   sodipodi:docname="books.svg"><metadata
     id="metadata3013"><rdf:RDF><cc:Work
         rdf:about=""><dc:format>image/svg+xml</dc:format><dc:type
           rdf:resource="http://purl.org/dc/dcmitype/StillImage" /></cc:Work></rdf:RDF></metadata><defs
     id="defs3011" /><sodipodi:namedview
     pagecolor="#ffffff"
     bordercolor="#666666"
     borderopacity="1"
     objecttolerance="10"
     gridtolerance="10"
     guidetolerance="10"
     inkscape:pageopacity="0"
     inkscape:pageshadow="2"
     inkscape:window-width="640"
     inkscape:window-height="480"
     id="namedview3009"
     showgrid="false"
     inkscape:zoom="4.5384615"
     inkscape:cx="26"
     inkscape:cy="26"
     inkscape:window-x="0"
     inkscape:window-y="0"
     inkscape:window-maximized="0"
     inkscape:current-layer="Layer_1" /><g
     id="g2999"><path
       fill="#FFFFFF"
       d="M14.798,17.538h-3.985v18.669c0,0,5.239-0.732,12.839,2.106c0,0-1.752-2.069-4.464-3.176   c-2.793-1.033-4.335-1.457-4.335-1.457L14.798,17.538z"
       id="path3001" /><path
       fill="#FFFFFF"
       d="M24.981,17.919c0,0-3.394-3.037-7.748-2.447v17.523c0,0,5.018,1.293,7.748,4.097V17.919z"
       id="path3003" /><path
       fill="#FFFFFF"
       d="M37.577,17.454h3.985v18.669c0,0-5.239-0.732-12.839,2.106c0,0,1.752-2.069,4.464-3.176   c2.793-1.033,4.335-1.457,4.335-1.457L37.577,17.454z"
       id="path3005" /><path
       fill="#FFFFFF"
       d="M27.394,17.835c0,0,3.394-3.037,7.748-2.447v17.523c0,0-5.018,1.293-7.748,4.097V17.835z"
       id="path3007" /></g></svg>