<?xml version="1.0" encoding="UTF-8" standalone="no"?>
<!-- Generator: Adobe Illustrator 17.1.0, SVG Export Plug-In . SVG Version: 6.00 Build 0)  -->

<svg
   xmlns:dc="http://purl.org/dc/elements/1.1/"
   xmlns:cc="http://creativecommons.org/ns#"
   xmlns:rdf="http://www.w3.org/1999/02/22-rdf-syntax-ns#"
   xmlns:svg="http://www.w3.org/2000/svg"
   xmlns="http://www.w3.org/2000/svg"
   xmlns:sodipodi="http://sodipodi.sourceforge.net/DTD/sodipodi-0.dtd"
   xmlns:inkscape="http://www.inkscape.org/namespaces/inkscape"
   version="1.1"
   id="Layer_1"
   x="0px"
   y="0px"
   viewBox="0 0 52 52"
   enable-background="new 0 0 52 52"
   xml:space="preserve"
   inkscape:version="0.48.4 r9939"
   width="100%"
   height="100%"
   sodipodi:docname="games.svg"><metadata
     id="metadata3061"><rdf:RDF><cc:Work
         rdf:about=""><dc:format>image/svg+xml</dc:format><dc:type
           rdf:resource="http://purl.org/dc/dcmitype/StillImage" /></cc:Work></rdf:RDF></metadata><defs
     id="defs3059" /><sodipodi:namedview
     pagecolor="#ffffff"
     bordercolor="#666666"
     borderopacity="1"
     objecttolerance="10"
     gridtolerance="10"
     guidetolerance="10"
     inkscape:pageopacity="0"
     inkscape:pageshadow="2"
     inkscape:window-width="640"
     inkscape:window-height="480"
     id="namedview3057"
     showgrid="false"
     inkscape:zoom="4.5384615"
     inkscape:cx="26"
     inkscape:cy="14.4659"
     inkscape:window-x="796"
     inkscape:window-y="345"
     inkscape:window-maximized="0"
     inkscape:current-layer="Layer_1" /><g
     id="g3053"><path
       fill="#FFFFFF"
       d="M41.474,26.988c-0.408-3.1-1.413-5.988-3.323-8.519c-1.296-1.717-2.998-2.756-5.253-2.674   c-1.593,0.058-3.021,0.63-4.316,1.514c-0.653,0.445-1.343,0.697-2.141,0.669c-0.333-0.012-0.667-0.005-1,0.015   c-0.755,0.046-1.428-0.158-2.05-0.573c-0.685-0.457-1.431-0.794-2.218-1.045c-2.78-0.884-5.212-0.174-7.046,2.055   c-0.433,0.526-0.798,1.095-1.126,1.687c-1.989,3.599-2.607,7.458-2.248,11.494c0.087,0.975,0.211,1.953,0.581,2.875   c0.506,1.261,1.515,1.863,2.808,1.695c0.61-0.079,1.091-0.42,1.556-0.772c1.469-1.112,2.699-2.459,3.88-3.85   c0.515-0.606,1.144-0.898,1.942-0.904c1.549-0.012,3.098-0.044,4.647-0.068c1.098-0.017,2.196-0.029,3.294-0.051   c2.702-0.055,2.422-0.113,4.155,1.713c1.148,1.21,2.324,2.407,3.81,3.233c1.344,0.747,2.837,0.269,3.525-1.088   c0.193-0.382,0.311-0.787,0.389-1.205C41.723,31.13,41.746,29.06,41.474,26.988z M21.878,25.09h-2.389v2.389h-2.314V25.09h-2.389   v-2.314h2.389v-2.389h2.314v2.389h2.389V25.09z M32.304,23.052c-0.896-0.003-1.652-0.729-1.671-1.603   c-0.019-0.904,0.73-1.657,1.659-1.669c0.927-0.012,1.7,0.728,1.701,1.626C33.995,22.304,33.225,23.054,32.304,23.052z M36.185,26.6   c-0.927,0.019-1.692-0.707-1.703-1.616c-0.01-0.895,0.694-1.619,1.604-1.65c0.944-0.032,1.704,0.663,1.73,1.581   C37.842,25.826,37.112,26.581,36.185,26.6z"
       id="path3055" /></g></svg>