<?xml version="1.0" encoding="UTF-8" standalone="no"?>
<!-- Generator: Adobe Illustrator 17.1.0, SVG Export Plug-In . SVG Version: 6.00 Build 0)  -->

<svg
   xmlns:dc="http://purl.org/dc/elements/1.1/"
   xmlns:cc="http://creativecommons.org/ns#"
   xmlns:rdf="http://www.w3.org/1999/02/22-rdf-syntax-ns#"
   xmlns:svg="http://www.w3.org/2000/svg"
   xmlns="http://www.w3.org/2000/svg"
   xmlns:sodipodi="http://sodipodi.sourceforge.net/DTD/sodipodi-0.dtd"
   xmlns:inkscape="http://www.inkscape.org/namespaces/inkscape"
   version="1.1"
   id="Layer_1"
   x="0px"
   y="0px"
   viewBox="0 0 52 52"
   enable-background="new 0 0 52 52"
   xml:space="preserve"
   inkscape:version="0.48.4 r9939"
   width="100%"
   height="100%"
   sodipodi:docname="music_hover.svg"><metadata
     id="metadata3190"><rdf:RDF><cc:Work
         rdf:about=""><dc:format>image/svg+xml</dc:format><dc:type
           rdf:resource="http://purl.org/dc/dcmitype/StillImage" /></cc:Work></rdf:RDF></metadata><defs
     id="defs3188" /><sodipodi:namedview
     pagecolor="#ffffff"
     bordercolor="#666666"
     borderopacity="1"
     objecttolerance="10"
     gridtolerance="10"
     guidetolerance="10"
     inkscape:pageopacity="0"
     inkscape:pageshadow="2"
     inkscape:window-width="1447"
     inkscape:window-height="571"
     id="namedview3186"
     showgrid="false"
     inkscape:zoom="4.5384615"
     inkscape:cx="-9.2542373"
     inkscape:cy="26"
     inkscape:window-x="349"
     inkscape:window-y="258"
     inkscape:window-maximized="0"
     inkscape:current-layer="Layer_1" /><circle
     cx="26"
     cy="26"
     r="25"
     id="circle3176"
     style="fill:#981093;fill-opacity:1" /><g
     id="g3178"><path
       fill="#FFFFFF"
       d="M37.995,20.518c-2.802-8.22-11.882-8.499-12.016-8.501c-0.092,0.002-9.173,0.281-11.974,8.501   c-2.57,7.541,0.533,11.894,1.108,12.613c-0.037,0.406-0.041,0.847,0.008,1.342c0.443,4.419,4.424,4.544,4.424,4.544l-1.456-9.67   c0,0-1.186,0.253-2.068,1.364c-0.776-1.592-1.688-4.789-0.072-9.53c2.332-6.841,9.759-7.102,10.03-7.109   c0.077,0.002,7.729,0.236,10.072,7.109c1.542,4.526,0.782,7.636,0.035,9.294c-0.851-0.912-1.868-1.128-1.868-1.128l-1.456,9.67   c0,0,3.981-0.125,4.424-4.544c0.065-0.646,0.04-1.203-0.037-1.7C38.061,31.443,40.291,27.257,37.995,20.518z"
       id="path3180" /><rect
       x="16.849"
       y="32.677"
       transform="matrix(-0.1503 -0.9886 0.9886 -0.1503 -8.2444 60.258)"
       fill="#FFFFFF"
       width="9.85"
       height="1.99"
       id="rect3182" /><rect
       x="29.537"
       y="28.747"
       transform="matrix(-0.9886 -0.1503 0.1503 -0.9886 55.6589 71.5493)"
       fill="#FFFFFF"
       width="1.99"
       height="9.85"
       id="rect3184" /></g></svg>