<?xml version="1.0" encoding="utf-8"?>
<!-- Generator: Adobe Illustrator 17.1.0, SVG Export Plug-In . SVG Version: 6.00 Build 0)  -->
<!DOCTYPE svg PUBLIC "-//W3C//DTD SVG 1.1//EN" "http://www.w3.org/Graphics/SVG/1.1/DTD/svg11.dtd">
<svg version="1.1" id="Layer_1" xmlns="http://www.w3.org/2000/svg" xmlns:xlink="http://www.w3.org/1999/xlink" x="0px" y="0px"
	 viewBox="0 0 52 52" enable-background="new 0 0 52 52" xml:space="preserve">
<circle cx="26" cy="26" r="25"/>
<g>
	<path fill="#FFFFFF" d="M14.798,17.538h-3.985v18.669c0,0,5.239-0.732,12.839,2.106c0,0-1.752-2.069-4.464-3.176
		c-2.793-1.033-4.335-1.457-4.335-1.457L14.798,17.538z"/>
	<path fill="#FFFFFF" d="M24.981,17.919c0,0-3.394-3.037-7.748-2.447v17.523c0,0,5.018,1.293,7.748,4.097V17.919z"/>
	<path fill="#FFFFFF" d="M37.577,17.454h3.985v18.669c0,0-5.239-0.732-12.839,2.106c0,0,1.752-2.069,4.464-3.176
		c2.793-1.033,4.335-1.457,4.335-1.457L37.577,17.454z"/>
	<path fill="#FFFFFF" d="M27.394,17.835c0,0,3.394-3.037,7.748-2.447v17.523c0,0-5.018,1.293-7.748,4.097V17.835z"/>
</g>
</svg>
