<?xml version="1.0" encoding="utf-8"?>
<!-- Generator: Adobe Illustrator 17.1.0, SVG Export Plug-In . SVG Version: 6.00 Build 0)  -->
<!DOCTYPE svg PUBLIC "-//W3C//DTD SVG 1.1//EN" "http://www.w3.org/Graphics/SVG/1.1/DTD/svg11.dtd">
<svg version="1.1" id="Layer_1" xmlns="http://www.w3.org/2000/svg" xmlns:xlink="http://www.w3.org/1999/xlink" x="0px" y="0px"
	 viewBox="0 0 52 52" enable-background="new 0 0 52 52" xml:space="preserve">
<circle cx="26" cy="26" r="25"/>
<g>
	<rect x="15.474" y="24.419" fill="#FFFFFF" width="22.041" height="14.13"/>
	<g>
		<polygon fill="none" points="18.544,16.552 18.672,16.309 18.665,16.31 		"/>
		<polygon fill="#FFFFFF" points="36.116,12.597 33.18,18.774 37.15,17.929 		"/>
		<polygon fill="#FFFFFF" points="18.544,16.552 18.665,16.31 18.672,16.309 18.672,16.309 14.516,17.193 15.549,22.525 
			18.543,16.552 18.543,16.552 		"/>
		<polygon fill="#FFFFFF" points="21.8,15.643 21.816,15.64 18.879,21.816 22.699,21.004 25.815,14.789 21.8,15.643 		"/>
		<polygon fill="#FFFFFF" points="26.029,20.295 29.849,19.482 32.965,13.268 28.966,14.119 		"/>
		<polygon fill="#27AAE1" points="18.543,16.552 18.543,16.552 18.544,16.552 		"/>
	</g>
</g>
</svg>
