<?xml version="1.0" encoding="utf-8"?>
<!-- Generator: Adobe Illustrator 17.1.0, SVG Export Plug-In . SVG Version: 6.00 Build 0)  -->
<!DOCTYPE svg PUBLIC "-//W3C//DTD SVG 1.1//EN" "http://www.w3.org/Graphics/SVG/1.1/DTD/svg11.dtd">
<svg version="1.1" id="Layer_1" xmlns="http://www.w3.org/2000/svg" xmlns:xlink="http://www.w3.org/1999/xlink" x="0px" y="0px"
	 viewBox="0 0 52 52" enable-background="new 0 0 52 52" xml:space="preserve">
<circle cx="26" cy="26" r="25"/>
<g>
	<path fill="#FFFFFF" d="M37.995,20.518c-2.802-8.22-11.882-8.499-12.016-8.501c-0.092,0.002-9.173,0.281-11.974,8.501
		c-2.57,7.541,0.533,11.894,1.108,12.613c-0.037,0.406-0.041,0.847,0.008,1.342c0.443,4.419,4.424,4.544,4.424,4.544l-1.456-9.67
		c0,0-1.186,0.253-2.068,1.364c-0.776-1.592-1.688-4.789-0.072-9.53c2.332-6.841,9.759-7.102,10.03-7.109
		c0.077,0.002,7.729,0.236,10.072,7.109c1.542,4.526,0.782,7.636,0.035,9.294c-0.851-0.912-1.868-1.128-1.868-1.128l-1.456,9.67
		c0,0,3.981-0.125,4.424-4.544c0.065-0.646,0.04-1.203-0.037-1.7C38.061,31.443,40.291,27.257,37.995,20.518z"/>
	
		<rect x="16.849" y="32.677" transform="matrix(-0.1503 -0.9886 0.9886 -0.1503 -8.2444 60.258)" fill="#FFFFFF" width="9.85" height="1.99"/>
	
		<rect x="29.537" y="28.747" transform="matrix(-0.9886 -0.1503 0.1503 -0.9886 55.6589 71.5493)" fill="#FFFFFF" width="1.99" height="9.85"/>
</g>
</svg>
