<svg width="62" height="62" viewBox="0 0 62 62" xmlns="http://www.w3.org/2000/svg"><g transform="translate(.125 .125)" fill="none" fill-rule="evenodd"><circle fill="#FFF" cx="30.88" cy="30.88" r="30.88"/><path d="M30.76 3.35c-15.13 0-27.4 12.28-27.4 27.4 0 15.15 12.27 27.42 27.4 27.42 15.14 0 27.4-12.27 27.4-27.4 0-15.14-12.26-27.42-27.4-27.42zm-9.8 12.32c2.14 0 3.9 1.74 3.9 3.9 0 2.14-1.76 3.88-3.9 3.88-2.16 0-3.9-1.74-3.9-3.9 0-2.14 1.74-3.88 3.9-3.88zM26.9 29.9h-3.47v11.72h3.47v4.24h-9.76v-20.2h9.76v4.25zm17.56 2.63v13.33H34.7v-4.4h3.47V29.92H34.7v-4.25h9.76v6.88zm-3.9-9.08c-2.14 0-3.88-1.74-3.88-3.9 0-2.14 1.74-3.88 3.9-3.88 2.14 0 3.88 1.74 3.88 3.9 0 2.14-1.74 3.88-3.9 3.88z" fill="#092344"/></g></svg>