<svg version="1.0" xmlns="http://www.w3.org/2000/svg" xmlns:xlink="http://www.w3.org/1999/xlink" x="0px" y="0px"
	 viewBox="0 0 34 34" style="enable-background:new 0 0 34 34;" xml:space="preserve">
<g>
	<path d="M18.2,18.6L17.5,18c-0.1-0.1-0.2-0.2-0.3-0.4C17,17.5,17,17.3,17,17.1c0-0.2,0.1-0.4,0.2-0.6c0.1-0.2,0.2-0.3,0.4-0.5
		c0.2-0.2,0.4-0.4,0.6-0.6c0.2-0.2,0.3-0.4,0.5-0.6c0.3-0.5,0.5-1.1,0.5-1.8c0-0.4,0-0.8-0.1-1.1c-0.1-0.3-0.2-0.6-0.4-0.8
		c-0.2-0.2-0.4-0.4-0.5-0.6c-0.2-0.2-0.3-0.3-0.4-0.3l1.3,0l1.3-0.8l-4.2,0c-0.6,0-1.2,0.1-1.8,0.2c-0.7,0.2-1.3,0.5-1.9,1
		c-0.9,0.9-1.3,1.8-1.3,2.9c0,0.9,0.3,1.6,0.9,2.3c0.6,0.7,1.5,1.1,2.6,1.1c0.2,0,0.4,0,0.7,0c0,0.1-0.1,0.2-0.1,0.4
		c-0.1,0.1-0.1,0.3-0.1,0.5c0,0.3,0.1,0.6,0.2,0.8c0.1,0.2,0.3,0.4,0.4,0.7c-0.5,0-1.1,0.1-1.9,0.2c-0.8,0.1-1.5,0.4-2.2,0.8
		c-0.6,0.4-1,0.8-1.3,1.3c-0.2,0.5-0.4,0.9-0.4,1.3c0,0.8,0.4,1.5,1.1,2.1c0.7,0.6,1.9,0.9,3.4,1c1.8,0,3.2-0.5,4.1-1.3
		c0.9-0.8,1.4-1.7,1.4-2.8c0-0.7-0.2-1.3-0.5-1.8C19.1,19.4,18.7,19,18.2,18.6z M15.6,16.2c-0.4,0-0.8-0.1-1.2-0.4
		c-0.3-0.3-0.6-0.6-0.8-1c-0.5-0.8-0.7-1.6-0.7-2.4c0-0.6,0.1-1.1,0.5-1.6c0.4-0.5,0.9-0.7,1.4-0.7c0.4,0,0.8,0.1,1.2,0.4
		c0.3,0.3,0.6,0.6,0.8,1c0.4,0.9,0.6,1.7,0.6,2.6c0,0.2,0,0.4,0,0.7c-0.1,0.3-0.2,0.6-0.3,0.8C16.6,16,16.1,16.2,15.6,16.2z
		 M17.8,24.1c-0.5,0.4-1.3,0.7-2.3,0.7c-1.1,0-2-0.3-2.7-0.8c-0.7-0.5-1-1.1-1-1.9c0-0.4,0.1-0.7,0.2-1c0.1-0.3,0.3-0.5,0.5-0.6
		c0.2-0.2,0.4-0.3,0.6-0.4c0.2-0.1,0.4-0.1,0.5-0.2c0.5-0.1,0.9-0.2,1.4-0.3c0.4,0,0.7-0.1,0.8,0c0.2,0,0.3,0,0.5,0
		c0.8,0.6,1.4,1,1.8,1.4c0.4,0.4,0.5,0.9,0.5,1.4C18.5,23.1,18.3,23.7,17.8,24.1z"/>
	<polygon points="27,17.3 24.7,17.3 24.7,19.5 23.5,19.5 23.5,17.3 21.3,17.3 21.3,17.3 21.3,17.3 21.3,16 23.5,16 23.5,13.8 
		24.7,13.8 24.7,16 26.9,16 26.9,16.1 27,16.1 "/>
</g>
<path d="M17,2c8.3,0,15,6.7,15,15s-6.7,15-15,15S2,25.3,2,17S8.7,2,17,2 M17,1C8.2,1,1,8.2,1,17s7.2,16,16,16s16-7.2,16-16
	S25.8,1,17,1L17,1z"/>
</svg>
