<svg version="1.1" xmlns="http://www.w3.org/2000/svg" xmlns:xlink="http://www.w3.org/1999/xlink" x="0px" y="0px"
	 viewBox="0 0 34 34" style="enable-background:new 0 0 34 34;" xml:space="preserve">
<path d="M17,2c8.3,0,15,6.7,15,15s-6.7,15-15,15S2,25.3,2,17S8.7,2,17,2 M17,1C8.2,1,1,8.2,1,17s7.2,16,16,16s16-7.2,16-16
	S25.8,1,17,1L17,1z"/>
<g>
	<path d="M25.8,17.8c0.4,0,0.8-0.3,0.8-0.8c0-0.4-0.3-0.8-0.8-0.8h-2.1v-1.4h2.1c0.4,0,0.8-0.3,0.8-0.8c0-0.4-0.3-0.8-0.8-0.8h-2.9
		c-0.4,0-0.8,0.3-0.8,0.8v5.8c0,0.4,0.3,0.8,0.8,0.8h2.9c0.4,0,0.8-0.3,0.8-0.8c0-0.4-0.3-0.8-0.8-0.8h-2.1v-1.4H25.8z"/>
	<path d="M20.3,13.3c-0.4,0-0.8,0.3-0.8,0.8v3.6l-3-4c-0.1-0.2-0.4-0.3-0.6-0.3c-0.1,0-0.2,0-0.2,0c-0.3,0.1-0.5,0.4-0.5,0.7v5.8
		c0,0.4,0.3,0.8,0.8,0.8c0.4,0,0.8-0.3,0.8-0.8v-3.6l3,4c0.1,0.2,0.4,0.3,0.6,0.3c0.1,0,0.2,0,0.2,0c0.3-0.1,0.5-0.4,0.5-0.7v-5.8
		C21.1,13.7,20.8,13.3,20.3,13.3z"/>
	<path d="M13.3,13.3c-0.4,0-0.8,0.3-0.8,0.8v5.8c0,0.4,0.3,0.8,0.8,0.8c0.4,0,0.8-0.3,0.8-0.8v-5.8C14.1,13.7,13.8,13.3,13.3,13.3z"
		/>
	<path d="M11.1,19.1H9v-5c0-0.4-0.3-0.8-0.8-0.8c-0.4,0-0.8,0.3-0.8,0.8v5.8c0,0.4,0.3,0.8,0.8,0.8h2.9c0.4,0,0.8-0.3,0.8-0.8
		C11.9,19.5,11.5,19.1,11.1,19.1z"/>
</g>
</svg>
