<svg xmlns="http://www.w3.org/2000/svg" version="1.1" x="0px" y="0px" viewBox="0 0 34 34" xml:space="preserve" enable-background="new 0 0 34 34">
  <path d="M17 2c8.3 0 15 6.7 15 15s-6.7 15-15 15S2 25.3 2 17 8.7 2 17 2M17 1C8.2 1 1 8.2 1 17s7.2 16 16 16 16-7.2 16-16S25.8 1 17 1L17 1z"/>
  <path d="M25.8 17.8c0.4 0 0.8-0.3 0.8-0.8 0-0.4-0.3-0.8-0.8-0.8h-2.1v-1.4h2.1c0.4 0 0.8-0.3 0.8-0.8 0-0.4-0.3-0.8-0.8-0.8h-2.9c-0.4 0-0.8 0.3-0.8 0.8v5.8c0 0.4 0.3 0.8 0.8 0.8h2.9c0.4 0 0.8-0.3 0.8-0.8 0-0.4-0.3-0.8-0.8-0.8h-2.1v-1.4H25.8zM20.3 13.3c-0.4 0-0.8 0.3-0.8 0.8v3.6l-3-4c-0.1-0.2-0.4-0.3-0.6-0.3 -0.1 0-0.2 0-0.2 0 -0.3 0.1-0.5 0.4-0.5 0.7v5.8c0 0.4 0.3 0.8 0.8 0.8 0.4 0 0.8-0.3 0.8-0.8v-3.6l3 4c0.1 0.2 0.4 0.3 0.6 0.3 0.1 0 0.2 0 0.2 0 0.3-0.1 0.5-0.4 0.5-0.7v-5.8C21.1 13.7 20.8 13.3 20.3 13.3zM13.3 13.3c-0.4 0-0.8 0.3-0.8 0.8v5.8c0 0.4 0.3 0.8 0.8 0.8 0.4 0 0.8-0.3 0.8-0.8v-5.8C14.1 13.7 13.8 13.3 13.3 13.3zM11.1 19.1H9v-5c0-0.4-0.3-0.8-0.8-0.8 -0.4 0-0.8 0.3-0.8 0.8v5.8c0 0.4 0.3 0.8 0.8 0.8h2.9c0.4 0 0.8-0.3 0.8-0.8C11.9 19.5 11.5 19.1 11.1 19.1z"/>
</svg>
