<svg version="1.1" xmlns="http://www.w3.org/2000/svg" xmlns:xlink="http://www.w3.org/1999/xlink" x="0px" y="0px" viewBox="0 0 34 34" enable-background="new 0 0 34 34" xml:space="preserve">
	<path d="M17,33.5C7.9,33.5,0.5,26.1,0.5,17S7.9,0.5,17,0.5S33.5,7.9,33.5,17S26.1,33.5,17,33.5z M17,1.5C8.5,1.5,1.5,8.5,1.5,17 s7,15.5,15.5,15.5s15.5-7,15.5-15.5S25.5,1.5,17,1.5z"/>
	<path d="M26,8.5l-0.2,0l0.1,0.6c0,0.3,0.1,0.5,0.1,0.8c0.2,1.3-0.2,2.2-1.3,2.8c-0.2,0.1-0.5,0.3-0.8,0.4 c-0.2,0.1-0.5,0.2-0.7,0.3c-0.4,0.2-0.9,0.4-1.3,0.6c-0.9,0.5-1.4,1.2-1.5,2.1c-0.1,1.1,0.2,2.1,0.4,3c0.4,1.2,0.8,2.3,1.3,3.4 l0.2,0.4c0.1,0.3,0.1,0.5-0.2,0.7c-0.3,0.2-0.6,0.4-0.8,0.5c-0.4,0.2-0.9,0.4-1.3,0.6c-0.3,0.1-0.5,0.2-0.8,0.3 c-0.1,0-0.2,0.1-0.2,0.3c0,0.1,0.1,0.2,0.2,0.2c0,0,0,0,0.1,0c1,0,2-0.1,3-0.6c1.1-0.6,1.4-1.4,1-2.6c-0.2-0.6-0.5-1.2-0.7-1.8 c-0.1-0.3-0.3-0.7-0.4-1c-0.3-0.8-0.5-1.6-0.7-2.4c-0.2-1,0.1-1.7,0.9-2.3c0.5-0.4,1.1-0.6,1.7-0.9l0.3-0.2 c1.2-0.6,2-1.2,2.3-2.5C26.9,10.4,26.7,8.6,26,8.5z"/>
	<path d="M15.2,17.3c0.3,0,0.7,0,1.1-0.1c0.3-0.1,0.8-0.2,1.2-0.5l0.4-0.3L17,16.5c-0.3,0-0.6,0.1-0.8,0.1 c-0.7,0.1-1.3-0.1-1.9-0.5c-0.7-0.5-1.1-1.2-1.4-2.1c-0.5-1.6,0.3-3.3,1.8-3.9c1.2-0.5,2.6-0.6,4.1-0.3c0.7,0.2,1.4,0.5,2.1,0.8 c0.4,0.2,0.8,0.3,1.2,0.5c0.6,0.2,1,0.3,1.5,0.3c0.6,0,1-0.3,1.1-0.9c0.2-0.5,0.1-0.9-0.2-1.3l-0.2-0.2l-0.1,0.3c0,0,0,0.1,0,0.1 c-0.1,1-0.6,1.4-1.6,1c-0.5-0.2-1.1-0.5-1.6-0.7l-0.4-0.2c-1.9-0.8-3.6-1-5.2-0.6c-1.5,0.4-2.5,1-3.2,2.1 c-0.8,1.2-0.9,2.7-0.1,4.1C12.9,16.5,13.6,17.3,15.2,17.3z"/>
	<path d="M19.2,21.3c-0.3-0.3-1.2-0.4-2-0.4c-0.9,0-1.9,0.1-2.6,0.3l-0.9,0.2l1.3,0.1c1.5,0.1,3.2,0.2,3.5,0.6 c0.1,0.4,0,1.3-0.1,2c-0.1,0.7-0.1,1-0.1,1.2c-0.2-0.1-0.3-0.1-0.5-0.2c-0.3,0-0.5-0.1-0.8-0.1L16.5,25c-0.3,0-0.6-0.1-0.9-0.1 c-1.1-0.1-2.3-0.2-3.4-0.5c-0.9-0.2-2-0.6-2.6-1.6c-0.8-1.2-0.8-2.6-0.2-4.1c0.5-1.2,1.1-2.3,2-3.6c0,0,0,0,0,0 c0.1-0.1,0.2-0.2,0.1-0.4l-0.1-0.1l-0.1,0.1c-1,0.8-1.8,1.7-2.4,2.9c-0.5,0.9-0.8,2-1,3v0.9l0,0c0,0.1,0,0.1,0,0.2 c0,0.1,0,0.1,0,0.2c0.2,1.3,0.9,2.3,2.1,3c0.9,0.6,2,0.9,3.3,0.9c0.1,0,0.2,0,0.4,0h0.9c0.2,0,0.4,0,0.5,0c0.1,0,0.2,0,0.3,0 c0.2,0,0.4,0,0.6,0h0.4l0,0l0,0l0.1,0l0,0l0,0H17l0,0c0.2-0.1,0.4-0.1,0.6-0.1c0.2,0,0.5,0,0.8-0.1l0.1,0c0,0,0,0,0.1,0l0.1,0 l0.1,0c0.4-0.3,0.6-1.3,0.7-2.2C19.4,23.1,19.6,21.6,19.2,21.3z M16.4,25.6C16.4,25.6,16.4,25.6,16.4,25.6L16.4,25.6L16.4,25.6z"/>
</svg>
