<svg xmlns="http://www.w3.org/2000/svg" version="1.0" x="0px" y="0px" viewBox="0 0 36 36" xml:space="preserve" enable-background="new 0 0 36 36">
  <path d="M18 1.1C8.7 1.1 1.1 8.7 1.1 18S8.7 34.9 18 34.9 34.9 27.3 34.9 18 27.3 1.1 18 1.1z" fill="#1667A7"/>
  <polygon points="27.8 13.8 24.8 13.8 21.6 18.7 24.2 23.8 27 23.8 24.4 18.7 " fill="#FFF"/>
  <path d="M21.2 9.4H19l-0.2 2h0.7l-1.2 12.5H21l1.2-13.4C22.1 10 21.7 9.4 21.2 9.4" fill="#FFF"/>
  <path d="M17.6 16.5l-0.6 7.3h-2.6l0.6-7.2c0-0.2 0-0.4-0.1-0.6 -0.1-0.1-0.2-0.1-0.4-0.1 -1.1 0-2.1 0.7-3 1.2l-0.6 6.8H8.2l0.7-8.2H8.2l0.2-1.9h2c0.5 0 1.1 0.5 1.1 1.1l0 0c0.4-0.2 1-0.4 1.4-0.6 0.8-0.3 1.8-0.6 2.8-0.6 0.7 0 1.5 0.3 1.8 1.1C17.6 15.1 17.6 15.9 17.6 16.5" fill="#FFD404"/>
</svg>
