<svg xmlns:svg="http://www.w3.org/2000/svg" xmlns="http://www.w3.org/2000/svg" version="1.0" x="0px" y="0px" viewBox="0 0 34 34" xml:space="preserve" enable-background="new 0 0 36 36" >
  <path d="M17 1C8.1977917 1 1 8.1977918 1 17 1 25.802208 8.1977917 33 17 33 25.802208 33 33 25.802208 33 17 33 8.1977918 25.802208 1 17 1Zm0 0.9199219C25.30124 1.9199219 32.080078 8.69876 32.080078 17 32.080078 25.30124 25.30124 32.080078 17 32.080078 8.6987599 32.080078 1.9199219 25.30124 1.9199219 17 1.9199219 8.69876 8.6987599 1.9199219 17 1.9199219Z" />
  <polygon points="21.6 18.7 24.2 23.8 27 23.8 24.4 18.7 27.8 13.8 24.8 13.8 " />
  <path d="m19.942529 9.0919539-2.022989 0-0.183908 1.8390801 0.643678 0-1.103448 11.494253 2.482759 0 1.103447-12.321839C20.770118 9.6436778 20.402299 9.0919539 19.942529 9.0919539M16.632184 15.62069l-0.551724 6.712644-2.390805 0 0.551724-6.620691c0-0.183907 0-0.367815-0.09196-0.551723-0.09196-0.09195-0.183909-0.09195-0.367817-0.09195-1.011494 0-1.931034 0.643677-2.75862 1.103448l-0.551725 6.252873-2.4827583 0 0.6436782-7.540229-0.6436782 0 0.1839081-1.747126 1.8390802 0c0.45977 0 1.011495 0.45977 1.011495 1.011494l0 0c0.367815-0.183909 0.91954-0.367817 1.287356-0.551724 0.735632-0.275863 1.655172-0.551725 2.574713-0.551725 0.643677 0 1.37931 0.275862 1.655172 1.011494 0.09195 0.275863 0.09195 1.011495 0.09195 1.563219" />
</svg>
