<svg xmlns:svg="http://www.w3.org/2000/svg" xmlns="http://www.w3.org/2000/svg" version="1.0" x="0px" y="0px" viewBox="0 0 34 34" xml:space="preserve" enable-background="new 0 0 36 36" >
  <path d="M17 1C8.1977917 1 1 8.1977918 1 17 1 25.802208 8.1977917 33 17 33 25.802208 33 33 25.802208 33 17 33 8.1977918 25.802208 1 17 1Zm0 0.9199219C25.30124 1.9199219 32.080078 8.69876 32.080078 17 32.080078 25.30124 25.30124 32.080078 17 32.080078 8.6987599 32.080078 1.9199219 25.30124 1.9199219 17 1.9199219 8.69876 8.6987599 1.9199219 17 1.9199219Z" />
  <path d="m16.999375 17.183908c2.666667 0 4.781609-2.114943 4.781609-4.781609 0-2.6666668-2.114942-4.7816092-4.781609-4.7816092-2.666667 0-4.781609 2.1149424-4.781609 4.7816092 0 2.666666 2.114942 4.781609 4.781609 4.781609zm0-7.08046c1.287356 0 2.298851 1.103449 2.298851 2.298851 0 1.195402-1.103449 2.29885-2.298851 2.29885-1.287356 0-2.298851-1.103448-2.298851-2.29885 0-1.379311 1.011495-2.298851 2.298851-2.298851zm5.517241 7.632184c-0.275862-0.551724-1.011494-1.011494-2.022988-0.183908-1.37931 1.103448-3.494253 1.103448-3.494253 1.103448 0 0-2.114943 0-3.494253-1.103448-1.011494-0.735632-1.747126-0.275862-2.022988 0.183908-0.45977 1.011494 0.09195 1.37931 1.287356 2.114943 1.103448 0.643678 2.390805 0.91954 3.310345 1.011494l-0.735632 0.735632c-1.103449 1.103448-2.114943 2.114943-2.850575 2.850575-0.367816 0.367816-0.367816 1.195402 0 1.563218l0.09195 0.09195c0.367816 0.367816 1.195402 0.367816 1.563218 0l2.850579-2.85057c1.103448 1.103448 2.114943 2.114942 2.850575 2.850574 0.367816 0.367816 1.195402 0.367816 1.563218 0l0.09195-0.09195c0.367816-0.367816 0.367816-1.195402 0-1.563218l-2.850575-2.850575-0.643678-0.735632c0.91954-0.09195 2.298851-0.275862 3.310345-1.011494 1.103448-0.735633 1.655172-1.195403 1.195402-2.114943z" />
</svg>
