<svg xmlns="http://www.w3.org/2000/svg" version="1.0" x="0px" y="0px" viewBox="0 0 36 36" xml:space="preserve" enable-background="new 0 0 36 36">
  <path d="M18 1.1C8.7 1.1 1.1 8.7 1.1 18S8.7 34.9 18 34.9 34.9 27.3 34.9 18 27.3 1.1 18 1.1z" fill="#E67E17"/>
  <path d="M18 18c2.9 0 5.2-2.3 5.2-5.2S20.9 7.6 18 7.6s-5.2 2.3-5.2 5.2S15.1 18 18 18zM18 10.3c1.4 0 2.5 1.2 2.5 2.5s-1.2 2.5-2.5 2.5c-1.4 0-2.5-1.2-2.5-2.5C15.5 11.3 16.6 10.3 18 10.3zM24 18.6c-0.3-0.6-1.1-1.1-2.2-0.2 -1.5 1.2-3.8 1.2-3.8 1.2s-2.3 0-3.8-1.2c-1.1-0.8-1.9-0.3-2.2 0.2 -0.5 1.1 0.1 1.5 1.4 2.3 1.2 0.7 2.6 1 3.6 1.1l-0.8 0.8c-1.2 1.2-2.3 2.3-3.1 3.1 -0.4 0.4-0.4 1.3 0 1.7l0.1 0.1c0.4 0.4 1.3 0.4 1.7 0l3.1-3.1c1.2 1.2 2.3 2.3 3.1 3.1 0.4 0.4 1.3 0.4 1.7 0l0.1-0.1c0.4-0.4 0.4-1.3 0-1.7l-3.1-3.1L19.1 22c1-0.1 2.5-0.3 3.6-1.1C23.9 20.1 24.5 19.6 24 18.6z" fill="#FFF"/>
</svg>
