<svg version="1.0" xmlns="http://www.w3.org/2000/svg" xmlns:xlink="http://www.w3.org/1999/xlink" x="0px" y="0px"
	 viewBox="0 0 34 34" style="enable-background:new 0 0 34 34;" xml:space="preserve">
<g>
	<path d="M8.8,16.6c0,0.5,0.3,0.9,0.7,1.1c0.3-0.7,0.8-1.3,1.4-1.9c-0.2-0.3-0.5-0.4-0.9-0.4C9.3,15.4,8.8,15.9,8.8,16.6z"/>
	<circle cx="23.1" cy="11.4" r="0.8"/>
	<path d="M15.5,18c0-0.7-0.6-1.3-1.3-1.3c-0.7,0-1.3,0.6-1.3,1.3s0.6,1.3,1.3,1.3C15,19.2,15.5,18.7,15.5,18z"/>
	<path d="M23.1,9.5c1,0,1.9,0.8,1.9,1.9c0,1-0.8,1.9-1.9,1.9c-1,0-1.8-0.8-1.9-1.7l-2.6-0.6l-0.9,3c1.8,0.1,3.4,0.6,4.6,1.3
		c0.4-0.5,1-0.9,1.8-0.9c1.2,0,2.2,1,2.2,2.2c0,1-0.6,1.8-1.5,2.1c0,0.1,0,0.2,0,0.3c0,2.8-3.5,5.1-7.8,5.1c-4.3,0-7.8-2.3-7.8-5.1
		c0-0.1,0-0.2,0-0.3c-0.8-0.3-1.5-1.1-1.5-2.1c0-1.2,1-2.2,2.2-2.2c0.7,0,1.3,0.3,1.7,0.9c1.3-0.8,3-1.3,4.9-1.3l1.2-3.7
		c0.1-0.2,0.3-0.4,0.5-0.4c0,0,0.1,0,0.1,0l3.1,0.7C21.8,9.9,22.4,9.5,23.1,9.5 M23.1,8.5c-0.8,0-1.5,0.3-2.1,0.9l-2.4-0.6
		c-0.1,0-0.2,0-0.3,0c-0.7,0-1.2,0.4-1.4,1.1l-1,3.1c-1.4,0.1-2.8,0.5-4,1.1c-0.5-0.4-1.2-0.6-1.9-0.6c-1.8,0-3.2,1.4-3.2,3.2
		c0,1.1,0.6,2.1,1.4,2.7c0.2,3.3,4,5.8,8.8,5.8c4.8,0,8.5-2.5,8.8-5.7c0.9-0.6,1.5-1.6,1.5-2.7c0-1.4-0.9-2.7-2.2-3.1
		c0.6-0.5,1-1.3,1-2.1C26,9.8,24.7,8.5,23.1,8.5L23.1,8.5z M19,13l0.3-0.9l1.1,0.3c0.2,0.6,0.6,1,1,1.4C20.7,13.4,19.9,13.2,19,13
		L19,13z"/>
	<path d="M24,15.4c-0.4,0-0.7,0.2-0.9,0.5c0.6,0.5,1.1,1.2,1.4,1.9c0.4-0.2,0.7-0.6,0.7-1.1C25.2,15.9,24.7,15.4,24,15.4z"/>
	<path d="M19.5,21.1c-0.5,0.5-1.3,0.7-2.4,0.7c0,0,0,0,0,0c0,0,0,0,0,0c-1.2,0-2-0.2-2.4-0.7c-0.1-0.1-0.3-0.1-0.5,0
		c-0.1,0.1-0.1,0.3,0,0.5c0.6,0.6,1.6,0.9,2.9,0.9c0,0,0,0,0,0c0,0,0,0,0,0c1.4,0,2.3-0.3,2.9-0.9c0.1-0.1,0.1-0.3,0-0.5
		C19.8,20.9,19.6,20.9,19.5,21.1z"/>
	<path d="M19.8,16.7c-0.7,0-1.3,0.6-1.3,1.3c0,0.7,0.6,1.3,1.3,1.3c0.7,0,1.3-0.6,1.3-1.3C21,17.3,20.4,16.7,19.8,16.7z"/>
</g>
<path d="M17,2c8.3,0,15,6.7,15,15s-6.7,15-15,15S2,25.3,2,17S8.7,2,17,2 M17,1C8.2,1,1,8.2,1,17s7.2,16,16,16s16-7.2,16-16
	S25.8,1,17,1L17,1z"/>
</svg>
