<svg xmlns:svg="http://www.w3.org/2000/svg" xmlns="http://www.w3.org/2000/svg" enable-background="new 0 0 64 64" version="1.1" viewBox="0 0 34 34" xml:space="preserve" >
  <path d="M17 1C8.1672412 1 1 8.1672412 1 17 1 25.83276 8.1672413 33 17 33 25.83276 33 33 25.83276 33 17 33 8.1672412 25.83276 1 17 1Zm0 0.96875C25.308982 1.96875 32.03125 8.6910192 32.03125 17 32.03125 25.308982 25.308982 32.03125 17 32.03125 8.6910193 32.03125 1.96875 25.308982 1.96875 17 1.96875 8.6910192 8.6910192 1.96875 17 1.96875Z" />
  <path d="m23.032644 7.8713459c-1.741935 0-3.161543 1.4183472-3.161543 3.1602821 0 0.129033 0.06426 0.323337 0.06426 0.452369l-6.70993 3.290071c-0.580645-0.580645-1.419103-0.967742-2.322329-0.967742-1.7419355 0-3.1615419 1.419607-3.1615419 3.161542 0 1.741936 1.4196064 3.161542 3.1615419 3.161542 0.903226 0 1.67742-0.387096 2.258065-0.967742l6.838458 3.354335c-0.06452 0.129033-0.06427 0.322077-0.06427 0.451109 0 1.741936 1.419607 3.161542 3.161543 3.161542 1.741935 0 3.161542-1.419606 3.161542-3.161542 0-1.741935-1.419607-3.160282-3.161542-3.160282-0.903226 0-1.741683 0.387096-2.322328 0.967742l-6.774194-3.291331c0.06452-0.129032 0.06426-0.25756 0.06426-0.451109l0-0.06426c0-0.129032-0.06426-0.323337-0.06426-0.452369l6.709929-3.290071c0.580645 0.580645 1.419103 0.967742 2.322329 0.967742 1.741936 0 3.161542-1.419606 3.161542-3.161542 0-1.741935-1.419606-3.1602821-3.161542-3.1602821z" />
</svg>
