<svg version="1.0" xmlns="http://www.w3.org/2000/svg" xmlns:xlink="http://www.w3.org/1999/xlink" x="0px" y="0px"
	 viewBox="0 0 34 34" style="enable-background:new 0 0 34 34;" xml:space="preserve">
<path d="M23.4,14.4c0,0.2,0,0.3,0,0.4c0,4.1-3.1,8.8-8.8,8.8c-1.8,0-3.4-0.5-4.8-1.4c0.3,0,0.5,0.1,0.8,0.1c1.4,0,2.8-0.5,3.9-1.3
	c-1.3,0-2.5-0.9-2.9-2.2c0.2,0,0.4,0.1,0.6,0.1c0.3,0,0.3,0,0.7-0.1c-1.5-0.3-2.8-1.6-2.8-3.1l0,0c0,0.3,1.1,0.3,1.6,0.4
	c-0.8-0.6-1.3-1.5-1.3-2.6c0-0.6,0.2-1.1,0.5-1.6c1.5,1.9,3.9,3.1,6.4,3.3c-0.1-0.3-0.1-0.5-0.1-0.7c0-1.7,1.4-3.1,3.1-3.1
	c0.9,0,1.7,0.3,2.3,1c0.7-0.2,1.3-0.4,1.9-0.8c-0.3,0.8-0.8,1.3-1.3,1.7c0.6-0.1,1.3-0.3,1.8-0.5C24.5,13.4,24,14,23.4,14.4z"/>
<path d="M17,2c8.3,0,15,6.7,15,15s-6.7,15-15,15S2,25.3,2,17S8.7,2,17,2 M17,1C8.2,1,1,8.2,1,17s7.2,16,16,16s16-7.2,16-16
	S25.8,1,17,1L17,1z"/>
</svg>
