<svg version="1.0" xmlns="http://www.w3.org/2000/svg" xmlns:xlink="http://www.w3.org/1999/xlink" x="0px" y="0px"
	 viewBox="0 0 34 34" style="enable-background:new 0 0 34 34;" xml:space="preserve">
<path d="M17,2c8.3,0,15,6.7,15,15s-6.7,15-15,15S2,25.3,2,17S8.7,2,17,2 M17,1C8.2,1,1,8.2,1,17s7.2,16,16,16s16-7.2,16-16
	S25.8,1,17,1L17,1z"/>
<g id="lXJxM8_3_">
	<g>
		<path d="M12.9,12.6c0.1-0.3,0.4-0.5,0.7-0.6c0.3-0.1,0.6-0.1,0.9-0.2c0.6,0,1.1,0,1.7,0c0.3,0,0.6,0,0.9,0.1
			c0.5,0.1,0.8,0.4,0.8,0.9c0,0.4,0,0.8,0,1.2c0,0.4-0.1,0.8-0.1,1.2c0,0.3,0,0.6,0,0.9c0,0.3,0,0.7,0.3,1c0.2,0.3,0.2,0.3,0.6,0.1
			c0.2-0.1,0.3-0.3,0.4-0.4c0.9-1.1,1.5-2.3,2-3.6c0-0.1,0.1-0.2,0.2-0.4c0.2-0.4,0.5-0.6,0.9-0.6c0.4,0,0.7,0,1.1,0
			c0.6,0,1.1,0,1.7,0c0.2,0,0.5,0,0.7,0.1c0.3,0.1,0.4,0.3,0.4,0.6c-0.1,0.4-0.3,0.8-0.5,1.2c-0.4,0.7-0.9,1.4-1.4,2
			c-0.3,0.4-0.6,0.8-0.9,1.2c-0.1,0.1-0.1,0.2-0.2,0.3c-0.2,0.4-0.1,0.8,0.2,1.2c0.4,0.4,0.8,0.7,1.1,1.1c0.6,0.5,1.1,1.1,1.5,1.8
			c0.1,0.2,0.2,0.4,0.2,0.5c0.1,0.2,0,0.4-0.2,0.6c-0.2,0.2-0.5,0.2-0.8,0.2c-0.6,0-1.2,0-1.7,0c-0.3,0-0.6,0-0.9,0.1
			c-0.1,0-0.2,0-0.3,0c-0.6-0.1-1-0.4-1.4-0.8c-0.4-0.4-0.7-0.8-1.1-1.2c-0.1-0.2-0.3-0.3-0.4-0.4c-0.1-0.1-0.3-0.1-0.4-0.2
			c-0.3,0-0.5,0.1-0.6,0.4c-0.1,0.2-0.1,0.5-0.1,0.7c0,0.2,0,0.5-0.1,0.7c-0.1,0.5-0.2,0.7-0.8,0.8c-0.5,0.1-1,0-1.4,0
			c-0.7-0.1-1.3-0.2-1.9-0.4c-0.9-0.4-1.7-0.9-2.4-1.6c-0.7-0.8-1.4-1.6-1.9-2.5c-0.9-1.3-1.6-2.7-2.3-4.2c-0.2-0.4-0.4-0.8-0.5-1.2
			c0-0.2-0.1-0.3-0.1-0.5c0-0.1,0-0.2,0.1-0.2c0.2-0.1,0.4-0.1,0.6-0.2c0.5,0,0.9,0,1.4,0c0.4,0,0.8,0,1.2,0c0.1,0,0.2,0,0.3,0
			c0.2,0,0.4,0.2,0.5,0.4c0.1,0.2,0.2,0.4,0.3,0.7c0.5,1.1,1.1,2.1,1.7,3.1c0.1,0.2,0.3,0.4,0.4,0.6c0.1,0.1,0.2,0.2,0.3,0.3
			c0.2,0.1,0.4,0,0.5-0.2c0.1-0.2,0.2-0.4,0.2-0.6c0.1-0.9,0.1-1.7,0-2.6c0-0.2-0.1-0.4-0.1-0.6c-0.1-0.3-0.2-0.5-0.5-0.6
			c-0.1-0.1-0.3-0.1-0.4-0.2C13,12.6,13,12.6,12.9,12.6z"/>
	</g>
</g>
</svg>
