<svg xmlns="http://www.w3.org/2000/svg" version="1.0" x="0px" y="0px" viewBox="0 0 36 36" xml:space="preserve" enable-background="new 0 0 36 36">
  <path d="M18 1.1C8.7 1.1 1.1 8.7 1.1 18S8.7 34.9 18 34.9 34.9 27.3 34.9 18 27.3 1.1 18 1.1z" fill="#7AB22E"/>
  <path d="M20.2 10.2c-2.2-1.3-5-1.5-7.4-0.6 -1.6 0.5-3 1.6-3.8 3.1 -0.7 1.3-1.1 2.9-0.7 4.3 0.4 1.6 1.5 3 2.9 3.9 -0.2 0.7-0.5 1.5-0.7 2.2 0.8-0.4 1.7-1 2.5-1.4 1.1 0.3 2.1 0.5 3.3 0.4 -0.3-0.8-0.3-1.7-0.2-2.6 0.2-1.2 0.8-2.3 1.8-3.2 1.5-1.4 3.7-2 5.7-1.9C23.2 12.7 21.8 11 20.2 10.2zM14.3 13.6c-0.1 0.7-1.2 1.1-1.7 0.6 -0.6-0.4-0.5-1.7 0.3-1.9C13.7 12 14.5 12.8 14.3 13.6zM19.6 13.3c0 0.8-1.2 1.4-1.8 0.8 -0.6-0.4-0.4-1.6 0.3-1.9C18.8 12 19.7 12.6 19.6 13.3zM28.9 18.5c-0.5-1.3-1.6-2.2-2.8-2.8 -2.1-1.1-4.7-1.1-6.8 0 -1.5 0.7-2.6 2.1-3 3.7 -0.3 1.2 0 2.4 0.6 3.5 1 1.6 2.6 2.5 4.3 2.9 1.3 0.2 2.5 0.1 3.8-0.2 0.7 0.3 1.4 0.7 2.1 1.1 -0.2-0.6-0.4-1.3-0.6-1.9 0.8-0.5 1.6-1.3 2-2.2C29.4 21.4 29.5 19.8 28.9 18.5zM21.7 19c-0.2 0.5-1.1 0.7-1.4 0.3 -0.4-0.4-0.3-1.3 0.3-1.5S22 18.3 21.7 19zM25.9 19.1c-0.2 0.5-1 0.6-1.4 0.2 -0.2-0.2-0.2-0.4-0.3-0.6 0.1-0.4 0.3-0.8 0.8-0.8C25.7 17.7 26.3 18.5 25.9 19.1z" fill="#FFF"/>
</svg>
