<svg xmlns:svg="http://www.w3.org/2000/svg" xmlns="http://www.w3.org/2000/svg" version="1.0" x="0px" y="0px" viewBox="0 0 34 34" xml:space="preserve" enable-background="new 0 0 36 36" >
  <path d="M17 1C8.1977918 1 1 8.1977913 1 17 1 25.802208 8.1977918 33 17 33 25.802209 33 33 25.802208 33 17 33 8.1977914 25.802209 1 17 1Zm0 0.9199219C25.301241 1.9199219 32.080078 8.6987594 32.080078 17 32.080078 25.30124 25.301241 32.080078 17 32.080078 8.69876 32.080078 1.9199219 25.30124 1.9199219 17 1.9199219 8.6987595 8.69876 1.9199219 17 1.9199219Z" />
  <path d="M18.370446 9.9435742C16.347458 8.7481715 13.772745 8.5642636 11.565849 9.3918498 10.094584 9.8516202 8.8072279 10.863114 8.0715957 12.242425c-0.6436782 1.195402-1.0114942 2.666667-0.6436782 3.954022 0.3678162 1.471265 1.3793104 2.758621 2.6666665 3.586207-0.1839074 0.643679-0.4597702 1.37931-0.6436779 2.022989 0.7356329-0.367816 1.5632189-0.91954 2.2988509-1.287356 1.011494 0.275861 1.931035 0.459769 3.034483 0.367816-0.275862-0.735633-0.275862-1.563219-0.183909-2.390805 0.183909-1.103448 0.735633-2.114942 1.655173-2.942528 1.379311-1.287357 3.402299-1.839081 5.241379-1.747127-0.367816-1.563218-1.655172-3.126437-3.126437-3.8620688zm-5.425287 3.1264368c-0.09195 0.643678-1.103448 1.011494-1.563218 0.551724-0.551724-0.367816-0.45977-1.563219 0.275862-1.747127 0.735632-0.275861 1.471265 0.459771 1.287356 1.195403zm4.873564-0.275862c0 0.735632-1.103449 1.287356-1.655173 0.735632-0.551724-0.367816-0.367816-1.471265 0.275863-1.747126 0.643677-0.183908 1.471263 0.367816 1.37931 1.011494zm8.551724 4.781609c-0.45977-1.195402-1.471264-2.022988-2.574713-2.574713-1.931035-1.011494-4.321839-1.011494-6.252874 0-1.37931 0.643678-2.390804 1.931035-2.75862 3.402299-0.275862 1.103448 0 2.206897 0.551724 3.218391 0.91954 1.471264 2.390804 2.29885 3.954023 2.666666 1.195402 0.183908 2.298851 0.09196 3.494253-0.183908 0.643678 0.275863 1.287356 0.643679 1.931035 1.011494-0.183908-0.551723-0.367817-1.195402-0.551725-1.747125 0.735633-0.459771 1.471264-1.195403 1.83908-2.022989 0.827586-1.103448 0.919541-2.574713 0.367817-3.770115zm-6.62069 0.45977c-0.183908 0.45977-1.011495 0.643678-1.287356 0.275862-0.367816-0.367816-0.275862-1.195402 0.275861-1.37931 0.551725-0.183908 1.287357 0.45977 1.011495 1.103448zm3.862069 0.09195c-0.183908 0.45977-0.919541 0.551724-1.287356 0.183908-0.183908-0.183908-0.183908-0.367816-0.275863-0.551724 0.09195-0.367816 0.275863-0.735633 0.735633-0.735633 0.643678-0.183907 1.195402 0.551725 0.827586 1.103449z" />
</svg>
