<svg xmlns:svg="http://www.w3.org/2000/svg" xmlns="http://www.w3.org/2000/svg" version="1.0" x="0px" y="0px" viewBox="0 0 34 34" xml:space="preserve" enable-background="new 0 0 36 36" >
  <path d="M17 1C8.197792 1 1 8.1977917 1 17 1 25.802204 8.1977918 33 17 33 25.802205 33 33 25.802204 33 17 33 8.1977916 25.802205 1 17 1Zm0 0.9199219C25.301237 1.9199219 32.080078 8.6987598 32.080078 17 32.080078 25.301236 25.301237 32.080078 17 32.080078 8.6987602 32.080078 1.9199219 25.301236 1.9199219 17 1.9199219 8.6987597 8.69876 1.9199219 17 1.9199219Z" />
  <path d="M15.303579 23.905748C11.993236 24.181614 9.0507027 22.710343 8.8667943 20.503453 8.682886 18.296546 11.165639 16.181609 14.475999 15.905755c3.310343-0.275874 6.252861 1.195405 6.436783 3.402294 0.367805 2.298859-2.206908 4.321845-5.609203 4.597699m6.712638-7.264364c-0.275855-0.09189-0.459758-0.09189-0.275855-0.459775 0.275855-0.73563 0.367805-1.56321 0-2.022987-0.643678-1.011503-2.39081-0.919532-4.505748 0 0 0-0.643678 0.275854-0.459775-0.183902 0.275873-1.011503 0.275873-1.839084-0.183903-2.298858-1.103454-1.1954-4.045972 0-6.6206854 2.666662-1.9310416 1.931035-3.0344911 3.86207-3.0344911 5.609203 0 3.310343 4.3218485 5.333329 8.4597715 5.333329 5.517251 0 9.195399-3.218391 9.195399-5.701154 0-1.747112-1.379308-2.574713-2.574713-2.942518m3.678166-6.160922C24.315075 9.0091977 22.38404 8.4574727 20.636908 8.8252893l0 0c-0.367805 0.091952-0.643678 0.45977-0.551727 0.9195399 0.09192 0.4597698 0.459776 0.6436788 0.919552 0.5517258 1.287357-0.275864 2.758615 0.09195 3.586197 1.195402 1.011502 1.103455 1.195405 2.390812 0.735628 3.678168l0 0c-0.09188 0.367805 0.09196 0.919532 0.459777 1.011484 0.367824 0.09188 0.919534-0.09188 1.011502-0.459776l0 0c0.551709-1.747113 0.275854-3.678149-1.103454-5.241371m-2.022986 1.839077c-0.643679-0.643677-1.56323-1.011488-2.574713-0.735629-0.367824 0.0919-0.551727 0.367823-0.459776 0.735629 0.09188 0.367824 0.367825 0.551727 0.73563 0.459775l0 0c0.367824-0.09188 0.919552 0 1.195405 0.367805 0.275868 0.367825 0.367825 0.919552 0.275868 1.287357l0 0c-0.09195 0.367825 0.0919 0.643678 0.367811 0.919551 0.367824 0.09188 0.643678-0.09188 0.919542-0.367824 0.367814-0.919532 0.275863-1.931035-0.459767-2.666664m-8.183915 7.632188c-0.09188 0.183902-0.367805 0.275853-0.551727 0.183902-0.183903-0.09188-0.275854-0.275854-0.183903-0.459756 0.09188-0.183922 0.367825-0.275873 0.551727-0.183922 0.275854 0 0.367805 0.183922 0.183903 0.459776m-1.011483 1.379308c-0.275873 0.459775-1.011503 0.73563-1.56323 0.459775-0.459776-0.183902-0.643678-0.919551-0.367805-1.379307 0.275854-0.459776 1.011484-0.643678 1.56321-0.459776 0.551727 0.275853 0.73563 0.82758 0.367825 1.379308m1.195385-3.678168c-1.56321-0.367805-3.402293 0.367825-4.045971 1.747133-0.643679 1.471259 0 3.034488 1.563229 3.494262 1.655162 0.55171 3.586197-0.275871 4.321826-1.839081 0.735629-1.471279-0.183902-3.034489-1.839084-3.402314" />
</svg>
