<svg xmlns="http://www.w3.org/2000/svg" version="1.0" x="0px" y="0px" viewBox="0 0 36 36" xml:space="preserve" enable-background="new 0 0 36 36">
  <path d="M18 1.1C8.7 1.1 1.1 8.7 1.1 18S8.7 34.9 18 34.9 34.9 27.3 34.9 18 27.3 1.1 18 1.1z" fill="#E6162D"/>
  <path d="M16.5 25.1c-3.6 0.3-6.8-1.3-7-3.7 -0.2-2.4 2.5-4.7 6.1-5 3.6-0.3 6.8 1.3 7 3.7C23 22.6 20.2 24.8 16.5 25.1M23.8 17.2c-0.3-0.1-0.5-0.1-0.3-0.5 0.3-0.8 0.4-1.7 0-2.2 -0.7-1.1-2.6-1-4.9 0 0 0-0.7 0.3-0.5-0.2 0.3-1.1 0.3-2-0.2-2.5 -1.2-1.3-4.4 0-7.2 2.9 -2.1 2.1-3.3 4.2-3.3 6.1 0 3.6 4.7 5.8 9.2 5.8 6 0 10-3.5 10-6.2C26.6 18.5 25.1 17.6 23.8 17.2M27.8 10.5c-1.5-1.6-3.6-2.2-5.5-1.8l0 0c-0.4 0.1-0.7 0.5-0.6 1s0.5 0.7 1 0.6c1.4-0.3 3 0.1 3.9 1.3 1.1 1.2 1.3 2.6 0.8 4l0 0c-0.1 0.4 0.1 1 0.5 1.1s1-0.1 1.1-0.5l0 0C29.6 14.3 29.3 12.2 27.8 10.5M25.6 12.5c-0.7-0.7-1.7-1.1-2.8-0.8 -0.4 0.1-0.6 0.4-0.5 0.8 0.1 0.4 0.4 0.6 0.8 0.5l0 0c0.4-0.1 1 0 1.3 0.4 0.3 0.4 0.4 1 0.3 1.4l0 0c-0.1 0.4 0.1 0.7 0.4 1 0.4 0.1 0.7-0.1 1-0.4C26.5 14.4 26.4 13.3 25.6 12.5M16.7 20.8c-0.1 0.2-0.4 0.3-0.6 0.2 -0.2-0.1-0.3-0.3-0.2-0.5s0.4-0.3 0.6-0.2C16.8 20.3 16.9 20.5 16.7 20.8M15.6 22.3c-0.3 0.5-1.1 0.8-1.7 0.5 -0.5-0.2-0.7-1-0.4-1.5 0.3-0.5 1.1-0.7 1.7-0.5C15.8 21.1 16 21.7 15.6 22.3M16.9 18.3c-1.7-0.4-3.7 0.4-4.4 1.9 -0.7 1.6 0 3.3 1.7 3.8 1.8 0.6 3.9-0.3 4.7-2C19.7 20.4 18.7 18.7 16.9 18.3" fill="#FFF"/>
</svg>
