<svg version="1.1" xmlns="http://www.w3.org/2000/svg" xmlns:xlink="http://www.w3.org/1999/xlink" x="0px" y="0px" viewBox="0 0 90 90" enable-background="new 0 0 90 90" xml:space="preserve">
	<path d="M45,88.7C20.9,88.7,1.3,69.1,1.3,45S20.9,1.3,45,1.3S88.7,20.9,88.7,45S69.1,88.7,45,88.7z M45,4C22.5,4,4,22.5,4,45 s18.5,41,41,41s41-18.5,41-41S67.5,4,45,4z"/>
	<path d="M52.1,20.6H45h-7.1c-20.6,0-20.6,10.3-20.6,23.6V45v1.1c0,13.2,0.3,23.6,20.6,23.6H45h7.1 c20.6,0,20.6-10.3,20.6-23.6V45v-1.1C72.8,31,72.5,20.6,52.1,20.6z M53.5,63H45h-8.5c-14,0-13.2-7.9-13.2-17.7V45v-0.5 c0-9.8-0.8-17.7,13.2-17.7H45h8.5c14,0,13.2,7.9,13.2,17.7V45v0.5C67,55.1,67.8,63,53.5,63z"/>
	<polygon points="47.1,31.8 55.1,48.2 51.6,49.8 43.9,34.4 43.7,33.6 37.1,36.8 37.6,37.3 45.3,52.9 41.8,54.5 33.9,38.4 27.3,41.6 37.1,60.9 63,47.9 53.5,28.9"/>
</svg>
