<?xml version="1.0" encoding="UTF-8"?>
<svg width="24px" height="24px" viewBox="0 0 24 24" version="1.1" xmlns="http://www.w3.org/2000/svg" xmlns:xlink="http://www.w3.org/1999/xlink">
    <!-- Generator: Sketch 54.1 (76490) - https://sketchapp.com -->
    <title>facebook-icon</title>
    <desc>Created with Sketch.</desc>
    <g id="2018-Auth" stroke="none" stroke-width="1" fill="none" fill-rule="evenodd">
        <g id="d---Register" transform="translate(-306.000000, -312.000000)" fill="#FFFFFF">
            <g id="Facebook-button" transform="translate(300.000000, 306.000000)">
                <path d="M22.547619,30 L22.547619,20.887574 L25.4047619,20.887574 L25.7619048,17.3372781 L22.3095238,17.3372781 L22.3095238,15.0887574 C22.3095238,14.1420118 22.547619,13.4319527 23.9761905,13.4319527 L25.7619048,13.4319527 L26,13.4319527 L26,10.1183432 C25.6428571,10.1183432 24.5714286,10 23.3809524,10 C20.7619048,10 18.9761905,11.7751479 18.9761905,14.7337278 L18.9761905,17.3372781 L16,17.3372781 L16,20.887574 L18.9761905,20.887574 L18.9761905,30 L8,30 C6.8954305,30 6,29.1045695 6,28 L6,8 C6,6.8954305 6.8954305,6 8,6 L28,6 C29.1045695,6 30,6.8954305 30,8 L30,28 C30,29.1045695 29.1045695,30 28,30 L22.547619,30 Z" id="facebook-icon"></path>
            </g>
        </g>
    </g>
</svg>