<?xml version="1.0" standalone="no"?>
<!DOCTYPE svg PUBLIC "-//W3C//DTD SVG 1.1//EN" "http://www.w3.org/Graphics/SVG/1.1/DTD/svg11.dtd" >
<svg>
<metadata>
Created by FontForge 20100429 at Sun Apr 24 21:35:26 2011
 By Santhosh Thottingal,,,
Copyright SIL International, all rights reserved
</metadata>
<defs>
<font id="Padauk-Regular" horiz-adv-x="0" >
  <font-face 
    font-family="Padauk"
    font-weight="400"
    font-stretch="normal"
    units-per-em="1024"
    panose-1="2 0 6 0 2 0 0 2 0 4"
    ascent="819"
    descent="-205"
    x-height="445"
    cap-height="643"
    bbox="-764 -498 2094 955"
    underline-thickness="50"
    underline-position="-400"
    unicode-range="U+0020-AA7B"
  />
<missing-glyph horiz-adv-x="576" 
d="M520 459v-459h-465v459h465zM106 408v-357h365v357h-365z" />
    <glyph glyph-name=".notdef" horiz-adv-x="576" 
d="M520 459v-459h-465v459h465zM106 408v-357h365v357h-365z" />
    <glyph glyph-name=".null" 
 />
    <glyph glyph-name="nonmarkingreturn" horiz-adv-x="465" 
 />
    <glyph glyph-name="space" unicode=" " horiz-adv-x="378" 
 />
    <glyph glyph-name="exclam" unicode="!" horiz-adv-x="229" 
d="M174 42q0 -23 -18 -40t-41 -17t-41 17t-18 40t18 40t41 17t41 -17t18 -40zM115 813q14 0 23.5 -12t11.5 -44q1 -11 1 -24v-27q0 -119 -4.5 -226.5t-15.5 -211.5q-3 -30 -5.5 -47.5t-4 -26.5t-3 -11.5t-3.5 -2.5t-3.5 2.5t-3 11.5t-4 26.5t-5.5 48.5q-11 103 -15 210.5
t-4 226.5v27t1 24q2 32 11 44t23 12z" />
    <glyph glyph-name="quotedbl" unicode="&#x22;" horiz-adv-x="403" 
d="M319 387h-54l-19 256h94zM135 387h-53l-21 256h95z" />
    <glyph glyph-name="numbersign" unicode="#" horiz-adv-x="516" 
d="M354 111l-18 -141h-51l18 141h-120l-18 -141h-51l18 141h-77v51h83l15 120h-98v51h105l20 156h51l-20 -156h120l20 156h51l-20 -156h78v-51h-85l-15 -120h100v-51h-106zM204 282l-15 -120h120l15 120h-120z" />
    <glyph glyph-name="dollar" unicode="$" horiz-adv-x="498" 
d="M466 172q0 -51 -16 -85t-43 -55.5t-62 -31.5t-72 -12v-81h-45v79q-50 0 -87 14.5t-61.5 41t-36.5 63t-12 81.5h90q0 -24 5 -46.5t17 -39t32.5 -26.5t52.5 -10v222q-38 10 -72.5 20.5t-60.5 29t-41 49t-15 80.5q0 36 12 67.5t36 54.5t59.5 36t81.5 13v72h45v-71
q45 0 77 -14t52 -38t29.5 -55t9.5 -64h-90q0 53 -16.5 72.5t-61.5 19.5v-195l56 -12t63.5 -26t52 -54.5t21.5 -98.5zM228 558q-36 0 -55.5 -8t-29.5 -21t-12 -30.5t-2 -36.5q0 -28 6.5 -42.5t19.5 -23t31 -12.5t42 -11v185zM376 166q0 36 -7.5 56.5t-21.5 32t-33 16.5
l-41 11v-216q53 1 78 22t25 78z" />
    <glyph glyph-name="percent" unicode="%" horiz-adv-x="624" 
d="M144 -68l-39 33l372 530l42 -32zM276 334q0 -24 -10 -46.5t-27 -39.5t-39 -27.5t-47 -10.5q-26 0 -48.5 10.5t-39.5 27.5t-27 39.5t-10 46.5q0 25 10 48t27 40t39.5 27t48.5 10q25 0 47 -10t39 -27t27 -40t10 -48zM595 94q0 -24 -10 -46.5t-27 -39.5t-39 -27.5t-47 -10.5
t-47.5 10.5t-39.5 27.5t-27 39.5t-10 46.5q0 25 10 48t27 40t39.5 27t47.5 10t47 -10t39 -27t27 -40t10 -48zM226 334q0 15 -6 29t-16 24t-23 16t-28 6q-32 0 -53.5 -22t-21.5 -53q0 -30 21.5 -52.5t53.5 -22.5q15 0 28 6t23 16.5t16 24t6 28.5zM546 94q0 15 -6 29t-16.5 24
t-23.5 16t-28 6q-32 0 -53.5 -22t-21.5 -53q0 -30 21.5 -52.5t53.5 -22.5q15 0 28 6t23.5 16.5t16.5 24t6 28.5z" />
    <glyph glyph-name="ampersand" unicode="&#x26;" horiz-adv-x="682" 
d="M550 0l-70 63q-36 -29 -90 -52t-119 -23q-44 0 -84 14t-70 39.5t-47.5 62t-17.5 80.5q0 41 11.5 71t31 52.5t45 38.5t53.5 29q-28 30 -48.5 66t-20.5 72q0 31 12 57t33.5 45t50.5 29.5t63 10.5q36 0 66 -8.5t51.5 -24.5t34 -39t12.5 -51q0 -34 -14 -60t-35 -45.5
t-45.5 -34l-45.5 -26.5q40 -50 81.5 -93.5l86.5 -88.5q16 45 16.5 88t-5.5 94h93q2 -69 -9 -126t-39 -111q8 -11 26 -28l39 -36t42.5 -36.5t36.5 -28.5h-125zM373 524q0 27 -23.5 46t-54.5 19q-46 0 -65 -21t-19 -48q0 -26 14 -51.5t39 -56.5q46 19 77.5 49.5t31.5 62.5z
M432 116q-52 47 -102 100.5t-95 107.5q-18 -5 -35 -18.5t-30 -32.5t-20.5 -41.5t-7.5 -44.5q0 -17 9.5 -38.5t27 -40.5t42 -32t53.5 -13q41 0 81.5 10.5t76.5 42.5z" />
    <glyph glyph-name="quotesingle" unicode="'" horiz-adv-x="328" 
d="M190 387h-54l-19 256h93z" />
    <glyph glyph-name="parenleft" unicode="(" horiz-adv-x="396" 
d="M289 -450q-59 73 -99.5 148.5t-66 157t-37 169.5t-11.5 185q0 102 12 193.5t38 176t66.5 164.5t97.5 159h51q-55 -75 -95.5 -152t-66.5 -161t-39 -177.5t-13 -202.5q0 -188 50 -353.5t164 -306.5h-51z" />
    <glyph glyph-name="parenright" unicode=")" horiz-adv-x="396" 
d="M321 222q0 -98 -11.5 -185.5t-37 -168.5t-66.5 -157t-100 -149h-51q114 140 164.5 306.5t50.5 353.5q0 109 -13 202.5t-39.5 177.5t-67 161t-95.5 152h51q57 -79 97.5 -159t67 -164.5t38.5 -176t12 -193.5z" />
    <glyph glyph-name="asterisk" unicode="*" horiz-adv-x="564" 
d="M479 308l-168 99v-196h-56v196l-171 -99l-29 50l171 98l-171 99l29 47l168 -97v196h59v-195l168 96l30 -47l-172 -99l172 -98z" />
    <glyph glyph-name="plus" unicode="+" horiz-adv-x="570" 
d="M477 196h-167v-165h-51v165h-166v51h166v168h51v-168h167v-51z" />
    <glyph glyph-name="comma" unicode="," horiz-adv-x="231" 
d="M191 53q0 -38 -9.5 -72.5t-24.5 -61.5t-33.5 -45.5t-35.5 -24.5l-14 9q30 21 48 57t18 81q0 15 -0.5 20.5t-2.5 10.5q-3 -3 -12 -7.5t-19.5 -9t-21.5 -7.5t-19 -3t-13 5.5t-7.5 13.5t-3.5 17t-1 17q0 18 6.5 32.5t17.5 25t24.5 16.5t27.5 6q29 0 52 -20.5t23 -59.5z" />
    <glyph glyph-name="hyphen" unicode="-" horiz-adv-x="495" 
d="M439 196h-384v51h384v-51z" />
    <glyph glyph-name="period" unicode="." horiz-adv-x="199" 
d="M159 42q0 -24 -18 -40.5t-41 -16.5t-41.5 16.5t-18.5 40.5q0 23 18.5 40t41.5 17t41 -17t18 -40z" />
    <glyph glyph-name="slash" unicode="/" horiz-adv-x="495" 
d="M93 -212l-38 38l347 987l37 -38z" />
    <glyph glyph-name="zero" unicode="0" horiz-adv-x="498" 
d="M453 334q0 -38 -2.5 -78.5t-10 -79t-21 -73t-36 -60.5t-55.5 -41.5t-79 -15.5t-79 15.5t-55.5 41.5t-36 60.5t-21 73t-10 79t-2.5 78.5q0 57 6 114.5t27 103t61.5 74.5t109.5 29t109.5 -29t61.5 -74.5t27 -103t6 -114.5zM367 334q0 52 -4 97t-16.5 78t-35.5 52t-62 19
t-62.5 -19t-36 -52t-16.5 -78t-4 -97t4 -101t16.5 -87.5t36 -61.5t62.5 -23t62 23t35.5 61.5t16.5 87.5t4 101z" />
    <glyph glyph-name="one" unicode="1" horiz-adv-x="498" 
d="M255 0v535q-30 -26 -66 -45t-74 -28v73q42 14 75.5 42.5t56.5 65.5h90v-643h-82z" />
    <glyph glyph-name="two" unicode="2" horiz-adv-x="498" 
d="M55 0v82q111 85 171.5 147.5t88.5 107.5t32.5 76.5t4.5 54.5q0 57 -21 84.5t-75 27.5q-48 0 -71.5 -26.5t-30.5 -85.5h-91q3 40 15 74t35 59t58 39.5t85 14.5q47 0 82 -16t58 -41t34.5 -56t11.5 -61q0 -24 -2 -48.5t-11 -52t-27 -58.5t-50 -68.5t-80.5 -83t-118.5 -101.5
h289v-69h-387z" />
    <glyph glyph-name="three" unicode="3" horiz-adv-x="498" 
d="M456 171q0 -39 -15.5 -73t-43.5 -58.5t-66.5 -39t-84.5 -14.5q-55 0 -94 16t-64 42.5t-36.5 59t-11.5 65.5h95q2 -20 8.5 -40.5t19 -37t33 -26.5t51.5 -10q22 0 44 9t38.5 24t27 35t10.5 42q0 75 -30 105t-100 30v70q67 0 93.5 27.5t26.5 94.5q0 28 -11.5 46.5t-28 29
t-36 14.5t-35.5 4q-43 0 -68 -28.5t-34 -82.5h-90q11 88 58.5 134t130.5 46q46 0 83.5 -13t64.5 -36t41.5 -54t14.5 -66q0 -33 -5.5 -56.5t-14.5 -41t-21.5 -29.5t-26.5 -22q17 -11 31.5 -23.5t24.5 -31.5t15.5 -45.5t5.5 -65.5z" />
    <glyph glyph-name="four" unicode="4" horiz-adv-x="498" 
d="M391 156v-156h-82v156h-284v93l269 394h97v-412h80v-75h-80zM309 544l-212 -313h212v313z" />
    <glyph glyph-name="five" unicode="5" horiz-adv-x="498" 
d="M450 210q0 -38 -14.5 -77.5t-40.5 -71.5t-61 -52.5t-76 -20.5q-100 0 -156 44.5t-56 123.5h95q0 -50 30 -74t76 -24q21 0 41.5 9.5t36 28.5t25.5 47t10 65q0 69 -23 111t-81 42q-45 0 -73.5 -27.5t-46.5 -65.5h-79l12 375h340v-75h-253l-11 -201q24 29 51.5 44.5
t77.5 15.5q43 0 75.5 -17.5t55 -47.5t34 -69.5t11.5 -82.5z" />
    <glyph glyph-name="six" unicode="6" horiz-adv-x="498" 
d="M456 192q0 -29 -8 -65t-30.5 -67.5t-61.5 -52.5t-100 -21q-74 0 -116.5 21t-64 61.5t-27.5 100t-6 137.5q0 62 7.5 124t31 112t66 81.5t112.5 31.5q44 0 75.5 -10.5t52.5 -31t33 -51.5t18 -72h-86q-5 56 -29 76t-65 20q-30 0 -51.5 -14t-36 -37.5t-23 -52.5t-12.5 -59.5
t-5 -58.5t-1 -49q10 17 22 31.5t28 25.5t37 17.5t49 6.5q63 0 100.5 -21.5t57.5 -53t26.5 -67t6.5 -62.5zM366 192q0 66 -26 101t-87 35q-62 0 -88 -35t-26 -101t26 -101.5t88 -35.5q61 0 87 35.5t26 101.5z" />
    <glyph glyph-name="seven" unicode="7" horiz-adv-x="498" 
d="M237 0h-98l228 571h-316v72h396v-90z" />
    <glyph glyph-name="eight" unicode="8" horiz-adv-x="498" 
d="M460 165q0 -50 -20 -83.5t-50.5 -54.5t-68 -30t-72.5 -9t-72 9t-67.5 30t-50.5 54.5t-20 83.5q0 37 11.5 66t29 50t39 35.5t41.5 23.5q-18 9 -36 22.5t-33 32.5t-24.5 44.5t-9.5 58.5q0 40 17.5 70t45 49t62 28.5t67.5 9.5q34 0 68.5 -9.5t62 -28.5t45 -49t17.5 -70
q0 -30 -9.5 -55.5t-24.5 -45.5t-34 -34.5t-38 -22.5q18 -7 39.5 -21t40.5 -36t31.5 -51.5t12.5 -66.5zM360 480q0 50 -29 78t-82 28q-52 0 -81 -28t-29 -78q0 -24 9 -44t24 -34t35 -21.5t42 -7.5t42.5 7.5t35.5 21.5t24 34t9 44zM373 183q0 54 -31.5 88.5t-92.5 34.5
q-59 0 -92.5 -34.5t-33.5 -88.5t29.5 -90t96.5 -36q68 0 96 36t28 90z" />
    <glyph glyph-name="nine" unicode="9" horiz-adv-x="498" 
d="M456 337q0 -62 -8 -125t-31.5 -113t-66.5 -81.5t-112 -31.5q-88 0 -128.5 42t-51.5 125h87q4 -56 29 -77t66 -21q44 0 69.5 29.5t39 72.5t17 89.5t3.5 81.5q-25 -41 -55.5 -61.5t-82.5 -20.5q-63 0 -100 21.5t-57 53t-26 66.5t-6 63q0 30 8 65.5t30 66.5t61 52t100 21
q74 0 117 -20.5t64.5 -61t27.5 -100t6 -136.5zM357 450q0 66 -25 101t-88 35q-62 0 -87 -35t-25 -101t25 -101.5t87 -35.5q63 0 88 35.5t25 101.5z" />
    <glyph glyph-name="colon" unicode=":" horiz-adv-x="199" 
d="M159 400q0 -23 -18 -40t-41 -17t-41.5 17t-18.5 40q0 24 18.5 41.5t41.5 17.5t41 -17.5t18 -41.5zM159 43q0 -23 -18 -40.5t-41 -17.5t-41.5 17.5t-18.5 40.5q0 24 18.5 40.5t41.5 16.5t41 -16.5t18 -40.5z" />
    <glyph glyph-name="semicolon" unicode=";" horiz-adv-x="207" 
d="M159 402q0 -24 -18 -41.5t-41 -17.5t-41.5 17.5t-18.5 41.5q0 23 18.5 40t41.5 17t41 -17t18 -40zM160 33q0 -25 -7 -46.5t-17.5 -39t-23 -30t-22.5 -18.5l-8 6q20 14 31 38.5t11 62.5q0 8 -1 12q-16 -8 -34.5 -14t-27.5 -6q-10 0 -15.5 13t-5.5 29q0 24 18 41.5t39 17.5
q24 0 43.5 -18.5t19.5 -47.5z" />
    <glyph glyph-name="less" unicode="&#x3c;" horiz-adv-x="891" 
d="M712 34l-534 204v57l534 204v-55l-477 -177l477 -177v-56z" />
    <glyph glyph-name="equal" unicode="=" horiz-adv-x="576" 
d="M520 111h-465v51h465v-51zM520 282h-465v51h465v-51z" />
    <glyph glyph-name="greater" unicode="&#x3e;" horiz-adv-x="891" 
d="M712 238l-534 -204v56l477 177l-477 177v55l534 -204v-57z" />
    <glyph glyph-name="question" unicode="?" horiz-adv-x="446" 
d="M268 55q0 -27 -18 -41t-37 -14q-20 0 -37.5 14t-17.5 41q0 29 17.5 42.5t37.5 13.5q19 0 37 -13.5t18 -42.5zM391 590q0 -38 -11.5 -62.5t-28.5 -42.5t-36.5 -31.5t-36.5 -28t-28.5 -33.5t-11.5 -47v-145h-51v159q0 32 11.5 54.5t28.5 39.5t36.5 30.5t36.5 28t28.5 33
t11.5 45.5q0 24 -10 47.5t-27.5 42.5t-40.5 30.5t-49 11.5q-32 0 -55.5 -15t-39.5 -35t-24 -40.5t-8 -31.5v-52h-51v52q0 14 9 42.5t29.5 57.5t54.5 51t85 22q40 0 73 -15t56.5 -40.5t36 -58.5t12.5 -69z" />
    <glyph glyph-name="at" unicode="@" horiz-adv-x="891" 
d="M837 265q0 -49 -13.5 -93.5t-37.5 -78.5t-57 -54.5t-72 -20.5q-42 0 -70.5 22t-46.5 63q-22 -39 -52 -60t-82 -21q-34 0 -63 16t-50.5 44t-33.5 66t-12 83q0 48 12 86.5t33.5 65.5t50.5 41t63 14q42 0 69.5 -12t55.5 -47v53h81v-300q0 -13 5.5 -20t13.5 -10.5t17 -4.5
t16 -1q12 0 27 8t28.5 27.5t22.5 52t9 81.5q0 82 -22 138t-62.5 90.5t-97 49.5t-125.5 15q-51 0 -105 -14.5t-98.5 -49.5t-73.5 -92.5t-29 -142.5q0 -78 19.5 -140.5t59 -106t99 -67t138.5 -23.5h44.5t35 1.5t33 5t39.5 9.5v-73q-24 -9 -41.5 -13.5t-33.5 -7t-32 -3
t-37 -0.5q-75 0 -148.5 19.5t-131.5 67t-94 128t-36 202.5q0 90 33 160.5t87 119t123.5 74t142.5 25.5q90 0 163.5 -23.5t126 -70.5t81 -116.5t28.5 -161.5zM528 237q0 28 -6 53.5t-18 44.5t-30.5 30t-43.5 11q-26 0 -44.5 -11.5t-30 -31t-17 -44.5t-5.5 -52q0 -28 4 -55.5
t15 -49t29.5 -35t48.5 -13.5q25 0 43.5 13t30.5 34.5t18 49t6 56.5z" />
    <glyph glyph-name="A" unicode="A" horiz-adv-x="667" 
d="M561 0l-71 171h-315l-70 -171h-92l269 643h99l273 -643h-93zM330 543l-120 -296h243z" />
    <glyph glyph-name="B" unicode="B" horiz-adv-x="600" 
d="M546 178q0 -39 -16 -71.5t-43 -56t-62 -37t-73 -13.5h-280v643h258q39 0 74 -9.5t61.5 -29t42 -49.5t15.5 -71q0 -27 -9.5 -50.5t-25.5 -41.5t-35.5 -30.5t-40.5 -18.5q26 -7 50.5 -22t43 -36t29.5 -48t11 -59zM439 471q0 20 -6.5 37.5t-22 30t-41.5 19.5t-66 7h-143
v-192h141q40 0 66.5 7.5t42.5 21t22.5 31.5t6.5 38zM459 189q0 53 -41 82t-121 29h-137v-222h141q70 0 114 30.5t44 80.5z" />
    <glyph glyph-name="C" unicode="C" horiz-adv-x="606" 
d="M552 171q0 -38 -16 -72t-46 -59t-73.5 -39.5t-98.5 -14.5q-75 0 -126 27t-82 72.5t-44.5 105.5t-13.5 125t13.5 126t44.5 108.5t82 76t127 28.5q61 0 104.5 -14.5t71.5 -40t41 -59t13 -70.5h-90q0 57 -32 85.5t-108 28.5q-87 0 -131 -65.5t-44 -203.5q0 -72 11.5 -121.5
t34 -80t54 -43.5t72.5 -13q31 0 58 6t46.5 19.5t30.5 35t11 52.5h90v0z" />
    <glyph glyph-name="D" unicode="D" horiz-adv-x="640" 
d="M588 322q0 -59 -15.5 -116.5t-52 -103t-97.5 -74t-152 -28.5h-199v643h199q91 0 152 -27t97.5 -72t52 -103t15.5 -119zM499 322q0 119 -60.5 181t-165.5 62h-113v-487h113q105 0 165.5 63t60.5 181z" />
    <glyph glyph-name="E" unicode="E" horiz-adv-x="540" 
d="M72 0v643h397v-78h-309v-198h300v-76h-300v-213h318v-78h-406z" />
    <glyph glyph-name="F" unicode="F" horiz-adv-x="507" 
d="M160 291v-291h-88v643h373v-78h-285v-198h267v-76h-267z" />
    <glyph glyph-name="G" unicode="G" horiz-adv-x="678" 
d="M606 31q-30 -11 -62.5 -19t-64 -14t-59.5 -9t-48 -3q-102 0 -165 33.5t-97.5 86t-46 116t-11.5 124.5q0 65 21.5 121.5t62 98t98.5 65.5t130 24q64 0 110.5 -17t76.5 -43t44.5 -56t14.5 -56h-90q0 14 -10.5 30.5t-30 30.5t-46.5 23.5t-61 9.5q-61 0 -104 -17.5t-70.5 -49
t-40 -74t-12.5 -91.5q0 -54 11 -104.5t36 -89t66.5 -62t102.5 -23.5q40 0 80.5 5t75.5 16v178h-147v78h236v-312v0z" />
    <glyph glyph-name="H" unicode="H" horiz-adv-x="631" 
d="M469 0v291h-309v-291h-88v643h88v-276h309v276h92v-643h-92z" />
    <glyph glyph-name="I" unicode="I" horiz-adv-x="232" 
d="M72 0v643h88v-643h-88z" />
    <glyph glyph-name="J" unicode="J" horiz-adv-x="507" 
d="M435 192q0 -46 -14.5 -84t-40.5 -65t-62.5 -42t-79.5 -15q-42 0 -76.5 14t-58.5 38.5t-37.5 58.5t-13.5 75h89q0 -32 8.5 -52.5t22.5 -32.5t32.5 -16.5t38.5 -4.5t38.5 7.5t32.5 23t22.5 39.5t8.5 56v451h90v-451v0z" />
    <glyph glyph-name="K" unicode="K" horiz-adv-x="592" 
d="M450 0l-290 339v-339h-88v643h88v-274l266 274h111l-273 -277l306 -366h-120z" />
    <glyph glyph-name="L" unicode="L" horiz-adv-x="471" 
d="M72 0v643h88v-565h285v-78h-373z" />
    <glyph glyph-name="M" unicode="M" horiz-adv-x="799" 
d="M639 0v558l-206 -558h-70l-203 553v-553h-88v643h141l186 -519l187 519h141v-643h-88z" />
    <glyph glyph-name="N" unicode="N" horiz-adv-x="643" 
d="M444 0l-284 526v-526h-88v643h126l285 -528v528h90v-643h-129z" />
    <glyph glyph-name="O" unicode="O" horiz-adv-x="688" 
d="M636 334q0 -69 -17.5 -132t-53.5 -111t-91 -76.5t-129 -28.5t-129 28.5t-91.5 76.5t-54.5 111t-18 132t18 127.5t54.5 101.5t91.5 67.5t129 24.5t129 -24.5t91 -67.5t53.5 -101.5t17.5 -127.5zM543 334q0 51 -9 95t-31.5 77t-61 52t-96.5 19q-59 0 -97.5 -19t-61 -52
t-32 -77t-9.5 -95t9.5 -99t32 -85.5t61 -60.5t97.5 -23q58 0 96.5 23t61 60.5t31.5 85.5t9 99z" />
    <glyph glyph-name="P" unicode="P" horiz-adv-x="555" 
d="M501 457q0 -61 -21.5 -97t-56.5 -55.5t-79.5 -25.5t-90.5 -6h-93v-273h-88v643h181q46 0 90.5 -6.5t79.5 -26t56.5 -56t21.5 -97.5zM415 457q0 60 -39 84t-120 24h-96v-214h96q81 0 120 23t39 83z" />
    <glyph glyph-name="Q" unicode="Q" horiz-adv-x="699" 
d="M430 0q-26 -7 -45.5 -10.5t-39.5 -3.5q-74 0 -129 28.5t-91.5 76.5t-54.5 111t-18 132t18 127.5t54.5 101.5t91.5 67.5t129 24.5t129 -24.5t91 -67.5t53.5 -101.5t17.5 -127.5q0 -84 -24 -157t-72 -116h132v-61h-242zM543 334q0 51 -9 95t-31.5 77t-61 52t-96.5 19
q-59 0 -97.5 -19t-61 -52t-32 -77t-9.5 -95t9.5 -99t32 -85.5t61 -60.5t97.5 -23q58 0 96.5 23t61 60.5t31.5 85.5t9 99z" />
    <glyph glyph-name="R" unicode="R" horiz-adv-x="561" 
d="M432 0q-8 33 -11.5 52.5l-6 34.5l-5 29.5t-7.5 37.5q-11 50 -21 78t-27 41.5t-44 16t-72 2.5h-78v-292h-88v643h202q114 0 173.5 -39t59.5 -138q0 -24 -10 -44.5t-26.5 -37.5t-38 -31t-45.5 -25q28 -6 48.5 -21.5t33.5 -47.5q7 -18 11 -46l8.5 -61.5t12 -72.5t22.5 -79
h-91zM417 466q0 29 -10.5 48t-29 30.5t-45 16t-59.5 4.5h-113v-196h113q65 0 104.5 21t39.5 76z" />
    <glyph glyph-name="S" unicode="S" horiz-adv-x="589" 
d="M535 178q0 -56 -24.5 -93t-63.5 -59t-87 -31t-95 -9q-45 0 -84 14.5t-67.5 41.5t-45 65t-16.5 85h92q0 -26 9 -49t24.5 -40t37.5 -27t49 -10t59 2.5t59.5 13t46 31.5t18.5 58q0 51 -28.5 75t-71.5 35t-93 18t-93 24t-71.5 52.5t-28.5 104.5q0 42 20.5 74.5t52 55t70.5 34
t76 11.5q43 0 84 -9t73.5 -29t52.5 -53.5t20 -82.5h-90q0 33 -12.5 52t-33 28.5t-46.5 12.5t-52 3q-27 0 -49.5 -5t-39.5 -16.5t-26.5 -31t-9.5 -47.5q0 -31 16.5 -50t43.5 -30.5t61.5 -18.5l70.5 -14.5t70.5 -19t61.5 -32t43.5 -53t16.5 -81.5z" />
    <glyph glyph-name="T" unicode="T" horiz-adv-x="546" 
d="M318 565v-565h-90v565h-210v78h510v-78h-210z" />
    <glyph glyph-name="U" unicode="U" horiz-adv-x="655" 
d="M585 286q0 -80 -15 -137t-46.5 -93t-80 -53t-115.5 -17q-68 0 -116 17t-79.5 53t-46 93t-14.5 137v357h88v-357q0 -72 13.5 -115.5t36.5 -67t53.5 -30.5t64.5 -7q33 0 63 7t53 30t37 66.5t14 116.5v357h90v-357v0z" />
    <glyph glyph-name="V" unicode="V" horiz-adv-x="582" 
d="M340 0h-99l-228 643h101l177 -528l177 528h100z" />
    <glyph glyph-name="W" unicode="W" horiz-adv-x="865" 
d="M661 0h-81l-148 535l-149 -535h-79l-191 643h95l135 -510l136 510h107l136 -510l135 510h95z" />
    <glyph glyph-name="X" unicode="X" horiz-adv-x="627" 
d="M490 0l-183 279l-180 -279h-106l237 343l-206 300h114l153 -237l149 237h105l-206 -300l237 -343h-114z" />
    <glyph glyph-name="Y" unicode="Y" horiz-adv-x="594" 
d="M340 256v-256h-88v256l-239 387h110l178 -309l177 309h101z" />
    <glyph glyph-name="Z" unicode="Z" horiz-adv-x="549" 
d="M40 0v97l362 468h-345v78h442v-99l-361 -466h370v-78h-468z" />
    <glyph glyph-name="bracketleft" unicode="[" horiz-adv-x="352" 
d="M94 -177v820h165v-46h-88v-729h88v-45h-165z" />
    <glyph glyph-name="backslash" unicode="\" horiz-adv-x="495" 
d="M402 -212l-347 987l38 38l346 -987z" />
    <glyph glyph-name="bracketright" unicode="]" horiz-adv-x="352" 
d="M94 -177v45h89v729h-89v46h165v-820h-165z" />
    <glyph glyph-name="asciicircum" unicode="^" horiz-adv-x="453" 
d="M426 613l-200 198l-199 -198l-27 27l226 227l227 -227z" />
    <glyph glyph-name="underscore" unicode="_" horiz-adv-x="576" 
d="M0 -137v51h576v-51h-576z" />
    <glyph glyph-name="grave" unicode="`" horiz-adv-x="204" 
d="M102 534l-125 153h90l89 -153h-54z" />
    <glyph glyph-name="a" unicode="a" horiz-adv-x="492" 
d="M360 0q-4 17 -6.5 32t-4.5 32q-31 -39 -61 -57.5t-74 -18.5q-29 0 -59 8t-55 24t-41 40t-16 57q0 51 23 82.5t58.5 49.5t78.5 24.5t82 6.5h61q3 25 0.5 46t-13.5 36.5t-31.5 24.5t-52.5 9q-17 0 -34.5 -3.5t-32 -12t-23.5 -22t-9 -33.5h-83q0 39 15.5 64.5t41 40.5
t57.5 20.5t65 5.5q22 0 48.5 -2.5t51 -10.5t44 -22.5t28.5 -39.5q3 -8 5 -20.5t2.5 -27.5l1 -31.5t0.5 -30.5v-146q0 -15 0.5 -33t2 -35.5t3.5 -32.5t6 -24h-79zM345 219q-8 1 -22 2t-23 1q-22 0 -52 -4t-57 -14.5t-46 -29t-19 -47.5q0 -37 26 -58t62 -21q42 0 67.5 13.5
t39.5 37t19 54.5t5 66z" />
    <glyph glyph-name="b" unicode="b" horiz-adv-x="525" 
d="M481 241q0 -62 -17 -109t-44 -79t-60.5 -48.5t-67.5 -16.5q-53 0 -90 19.5t-60 44.5v-52h-81v643h78v-259q9 12 21.5 25t31 23.5t43 17t56.5 6.5q55 0 91.5 -22t58.5 -55t31 -70.5t9 -67.5zM394 232q0 33 -6.5 64.5t-21 55.5t-38 38.5t-58.5 14.5q-33 0 -57.5 -15
t-40.5 -39.5t-23.5 -55.5t-7.5 -63q0 -91 32 -137.5t95 -46.5q27 0 50 12.5t40 36.5t26.5 58t9.5 77z" />
    <glyph glyph-name="c" unicode="c" horiz-adv-x="463" 
d="M420 150q0 -30 -9 -59.5t-30 -52t-55.5 -36.5t-84.5 -14q-100 0 -148 58.5t-48 175.5q0 118 43.5 176t143.5 58q51 0 87 -11t58.5 -31t31.5 -47.5t6 -60.5h-79q4 26 -4 43.5t-24.5 28t-38 14.5t-43.5 4q-21 0 -40 -9t-32.5 -29.5t-21.5 -54t-8 -81.5q0 -96 30.5 -135
t86.5 -39q29 0 48 10.5t30.5 26t16 33t4.5 32.5h80v0z" />
    <glyph glyph-name="d" unicode="d" horiz-adv-x="526" 
d="M384 0v51q-19 -22 -53 -42.5t-79 -20.5q-39 0 -76 17t-66.5 47t-47 71.5t-17.5 90.5q0 40 9.5 83t31 78.5t56.5 58t87 22.5q48 0 88.5 -17t66.5 -52v256h79v-643h-79zM381 219q0 36 -10 69.5t-28.5 59t-44 40.5t-55.5 15q-32 0 -54.5 -16.5t-36.5 -42t-20 -57.5t-6 -62
q0 -35 9 -66.5t26 -55t41 -37.5t53 -14q33 0 57 15.5t39 40t22.5 54t7.5 57.5z" />
    <glyph glyph-name="e" unicode="e" horiz-adv-x="496" 
d="M448 142q-5 -27 -18.5 -54.5t-37.5 -49.5t-60 -36t-85 -14q-56 0 -94.5 22t-62.5 56.5t-34.5 76t-10.5 79.5q0 42 10.5 83.5t34.5 75t64 54.5t99 21q65 0 104 -22t60 -53.5t27.5 -67t6.5 -61.5q0 -10 -0.5 -21t-2.5 -21h-318q0 -35 6.5 -64.5t20.5 -52t37 -35t55 -12.5
q31 0 51.5 9.5t34 24t20 31t8.5 31.5h85zM363 268q3 24 -1 48t-17 42.5t-36.5 30t-59.5 11.5q-33 0 -54.5 -13.5t-35 -33.5t-20 -43t-9.5 -42h233z" />
    <glyph glyph-name="f" unicode="f" horiz-adv-x="294" 
d="M294 577q-11 5 -22.5 8t-25.5 3q-36 0 -52 -17.5t-16 -60.5v-65h107v-58h-107v-387h-81v387h-88v58h88v68q0 41 9 68t26 42.5t41.5 21.5t56.5 6q16 0 31.5 -1.5t32.5 -6.5v-66v0z" />
    <glyph glyph-name="g" unicode="g" horiz-adv-x="525" 
d="M463 25q0 -43 -14 -80t-41.5 -64t-68 -42.5t-93.5 -15.5q-55 0 -90 16t-54.5 38.5t-27 46.5t-7.5 40h83q0 -23 9.5 -39t25.5 -26.5t36 -15.5t40 -5q31 0 53.5 10t37.5 34t22.5 63t7.5 97q-9 -16 -24.5 -29t-34.5 -22t-40 -14t-42 -5q-90 0 -143 54.5t-53 170.5
q0 47 13.5 87t38.5 69.5t59 46t76 16.5q59 0 95 -13.5t55 -46.5v49h81v-420zM381 235q0 36 -7.5 66t-23.5 52t-41.5 34.5t-61.5 12.5q-35 0 -58 -13t-37 -35t-19.5 -51.5t-5.5 -63.5q0 -76 31 -122t94 -46q35 0 59.5 14t40 37t22.5 53t7 62z" />
    <glyph glyph-name="h" unicode="h" horiz-adv-x="510" 
d="M367 0v280q0 63 -28 91t-65 28q-32 0 -56.5 -9.5t-41.5 -23.5t-25.5 -31t-8.5 -32v-303h-81v643h81v-255q21 29 54.5 48.5t85.5 19.5q89 0 127.5 -43t38.5 -137v-276h-81z" />
    <glyph glyph-name="i" unicode="i" horiz-adv-x="204" 
d="M58 561v82h87v-82h-87zM61 0v445h81v-445h-81z" />
    <glyph glyph-name="j" unicode="j" horiz-adv-x="256" 
d="M111 561v82h84v-82h-84zM193 -72q0 -21 -4.5 -42t-16.5 -37.5t-32 -26.5t-50 -10q-13 0 -29 3t-31.5 9t-30.5 15t-26 20l51 51q10 -13 24.5 -20t29.5 -7q21 0 27.5 18.5t6.5 53.5v490h81v-517z" />
    <glyph glyph-name="k" unicode="k" horiz-adv-x="444" 
d="M319 0l-177 237v-237h-81v643h81v-384l170 186h100l-178 -193l192 -252h-107z" />
    <glyph glyph-name="l" unicode="l" horiz-adv-x="204" 
d="M61 0v643h81v-643h-81z" />
    <glyph glyph-name="m" unicode="m" horiz-adv-x="798" 
d="M655 0v288q0 51 -24 81.5t-76 30.5q-24 0 -45 -11t-36.5 -27.5t-24 -36t-8.5 -37.5v-288h-81v288q0 21 -7 41.5t-19.5 36t-31 25t-40.5 9.5q-26 0 -48 -11t-38 -27.5t-25 -36.5t-9 -37v-288h-81v445h81v-61q24 32 56 52t76 20q32 0 55.5 -5t41 -14.5t30.5 -24.5t25 -34
q30 42 66 60t78 18q54 0 87 -16t50.5 -41t23 -54.5t5.5 -56.5v-288h-81z" />
    <glyph glyph-name="n" unicode="n" horiz-adv-x="511" 
d="M369 0v295q0 22 -9 42t-24 34.5t-35 23t-42 8.5q-24 0 -45 -8.5t-37 -24t-25.5 -36.5t-9.5 -46v-288h-81v445h81v-57q20 28 50.5 48t84.5 20q48 0 80.5 -12.5t53 -34t29 -51.5t8.5 -66v-292h-79z" />
    <glyph glyph-name="o" unicode="o" horiz-adv-x="526" 
d="M483 222q0 -60 -17.5 -104t-47 -73t-69.5 -43t-85 -14q-46 0 -86 14t-69.5 43t-46.5 73t-17 104t17 104t46.5 73t69.5 43t86 14q45 0 85 -14t69.5 -43t47 -73t17.5 -104zM399 222q0 31 -8 63t-24.5 57.5t-42 41.5t-60.5 16q-36 0 -62 -16t-42.5 -41.5t-24.5 -57.5t-8 -63
q0 -32 8 -63t24.5 -56.5t42.5 -41t62 -15.5q35 0 60.5 15.5t42 41t24.5 56.5t8 63z" />
    <glyph glyph-name="p" unicode="p" horiz-adv-x="534" 
d="M489 222q0 -49 -11 -92t-36 -75t-64 -50.5t-96 -18.5q-45 0 -78 18.5t-62 41.5v-223h-81v622h81v-57q32 29 63.5 48.5t76.5 19.5q57 0 96 -18.5t64 -50t36 -74t11 -91.5zM403 222q0 34 -7 66t-23 57t-40.5 40t-59.5 15q-36 0 -60.5 -15t-40.5 -40t-23 -57t-7 -66
q0 -35 7 -66.5t23 -56.5t40.5 -39.5t60.5 -14.5q35 0 59.5 14.5t40.5 39.5t23 56.5t7 66.5z" />
    <glyph glyph-name="q" unicode="q" horiz-adv-x="534" 
d="M390 -177v223q-29 -23 -62.5 -41.5t-78.5 -18.5q-56 0 -95 18.5t-63 50.5t-35 75t-11 92t11 91.5t35 74t63 50t95 18.5q45 0 77.5 -19.5t63.5 -48.5v57h81v-622h-81zM391 222q0 34 -7 66t-23 57t-40.5 40t-59.5 15q-36 0 -61 -15t-40.5 -40t-23 -57t-7.5 -66
q0 -35 7.5 -66.5t23 -56.5t40.5 -39.5t61 -14.5q35 0 59.5 14.5t40.5 39.5t23 56.5t7 66.5z" />
    <glyph glyph-name="r" unicode="r" horiz-adv-x="322" 
d="M306 373q-87 0 -125.5 -33.5t-38.5 -90.5v-249h-81v445h81v-61q9 15 19.5 26t28.5 19t45.5 12t70.5 4v-72v0z" />
    <glyph glyph-name="s" unicode="s" horiz-adv-x="448" 
d="M403 130q0 -41 -17 -68t-44.5 -43.5t-62.5 -23.5t-71 -7q-34 0 -63.5 7.5t-51.5 24t-35 43.5t-13 66h81q1 -47 27 -65t66 -18q18 0 36.5 5t33 14.5t23.5 24t9 34.5q0 28 -19.5 41.5t-49.5 20.5t-64 13t-64 20t-49.5 40.5t-19.5 74.5q0 22 8 44t27.5 39t51.5 28t80 11
q35 0 66 -5.5t53.5 -19.5t35.5 -40t13 -66h-81q0 12 -3 25t-12.5 24.5t-27 18.5t-46.5 7q-34 0 -59 -18.5t-25 -47.5t20 -42.5t49.5 -21.5t64 -14.5t64 -19.5t49.5 -37.5t20 -68.5z" />
    <glyph glyph-name="t" unicode="t" horiz-adv-x="312" 
d="M285 0q-35 -12 -66 -12q-60 0 -86.5 27t-26.5 102v271h-81v57h81v89l81 33v-122h98v-57h-98v-271q0 -42 12.5 -55t35.5 -13q26 0 50 8v-57v0z" />
    <glyph glyph-name="u" unicode="u" horiz-adv-x="510" 
d="M367 0v57q-18 -29 -49.5 -49t-85.5 -20q-91 0 -131 42.5t-40 120.5v294h81v-295q0 -23 9 -43t23.5 -34.5t34 -22.5t40.5 -8q24 0 45.5 8.5t37.5 23.5t25.5 36.5t9.5 48.5v286h81v-445h-81z" />
    <glyph glyph-name="v" unicode="v" horiz-adv-x="477" 
d="M279 0h-81l-185 445h93l137 -348l135 348h85z" />
    <glyph glyph-name="w" unicode="w" horiz-adv-x="724" 
d="M561 0h-80l-118 369l-120 -369h-80l-150 445h86l105 -348l105 348h106l105 -348l107 348h84z" />
    <glyph glyph-name="x" unicode="x" horiz-adv-x="487" 
d="M367 0l-130 175l-126 -175h-93l177 231l-164 214h101l117 -160l115 160h93l-165 -214l177 -231h-102z" />
    <glyph glyph-name="y" unicode="y" horiz-adv-x="477" 
d="M249 -99q-7 -18 -15.5 -33t-20.5 -26t-29.5 -17.5t-41.5 -6.5q-43 0 -72.5 22t-47.5 59l63 33q10 -20 23 -31.5t33 -11.5q14 0 24 15.5t21 44.5l18 51l-191 445h93l140 -336l130 336h87z" />
    <glyph glyph-name="z" unicode="z" horiz-adv-x="417" 
d="M45 0v73l235 309h-219v63h311v-73l-239 -311h239v-61h-327z" />
    <glyph glyph-name="braceleft" unicode="{" horiz-adv-x="406" 
d="M351 -443q-60 0 -94.5 38t-51.5 104t-21 155.5t-4 191.5q0 39 -17 65t-38 45.5l-38 35t-17 33.5q0 17 17 32.5l38 35t38 46t17 64.5q0 102 4 191.5t21 155.5t51.5 104t94.5 38v-49q-39 0 -62.5 -30t-36.5 -88t-17 -143t-4 -194q0 -42 -17 -70.5t-38 -47t-38 -29
t-17 -16.5t17 -16.5t38 -29.5t38 -47.5t17 -70.5q0 -109 4 -193.5t17 -142.5t36.5 -88t62.5 -30v-50v0z" />
    <glyph glyph-name="bar" unicode="|" horiz-adv-x="307" 
d="M130 -230v939h47v-939h-47z" />
    <glyph glyph-name="braceright" unicode="}" horiz-adv-x="406" 
d="M336 225q0 -18 -17 -33.5l-38 -35t-38 -45.5t-17 -65q0 -102 -4 -191.5t-21 -155.5t-51.5 -104t-94.5 -38v50q39 0 62.5 30t36.5 88t17 142.5t4 193.5q0 42 17 70.5t38 47.5t38 29.5t17 16.5t-17 16.5t-38 29t-38 47t-17 70.5q0 109 -4 194t-17 143t-36.5 88t-62.5 30v49
q60 0 94.5 -38t51.5 -104t21 -155.5t4 -191.5q0 -38 17 -64.5t38 -46l38 -35t17 -32.5z" />
    <glyph glyph-name="asciitilde" unicode="~" horiz-adv-x="562" 
d="M507 238q-34 -32 -68 -46t-66 -14q-30 0 -55.5 10t-47.5 21.5l-41 21.5t-36 10q-12 0 -23.5 -2t-25 -8t-31.5 -17.5t-43 -30.5l-15 37q38 33 69 47.5t69 14.5q26 0 46.5 -10t41 -21.5t42 -21.5t50.5 -10q26 0 48.5 10t59.5 39l26 -30v0z" />
    <glyph glyph-name="multiply" unicode="&#xd7;" horiz-adv-x="495" 
d="M364 69l-117 117l-117 -117l-37 37l117 117l-117 117l36 36l117 -117l118 119l38 -38l-119 -118l117 -117z" />
    <glyph glyph-name="u1000" unicode="&#x1000;" horiz-adv-x="1002" 
d="M946 222q0 -49 -18.5 -92t-50 -75.5t-74 -51t-89.5 -18.5q-18 0 -36 3.5t-35 11.5l20 46q23 -10 51 -10q37 0 70 14.5t58 40t39 59.5t14 72t-14 72t-39 59.5t-58 40t-70 14.5t-70.5 -19.5t-59 -50.5t-40.5 -69.5t-15 -76.5q0 -40 -7.5 -71.5t-20.5 -56t-30.5 -44
t-38.5 -35.5l-30 43q35 32 55.5 74.5t20.5 99.5q0 45 -14.5 82.5t-40 64.5t-59.5 42t-72 15t-72 -15t-59.5 -42t-40 -64.5t-14.5 -82.5q0 -57 21 -99.5t56 -74.5l-30 -43q-21 17 -39 37.5t-31 46.5t-20.5 58.5t-7.5 74.5q0 57 18.5 104t51 80.5t75.5 52t92 18.5
q72 0 130 -38t86 -106q15 31 37 58t48 46.5t57 30.5t64 11q47 0 89.5 -19t74 -51t50 -75.5t18.5 -91.5z" />
    <glyph glyph-name="u1000.med" 
d="M-56 -267q0 -38 -14.5 -71.5t-39 -58.5t-57 -39t-69.5 -14q-14 0 -27.5 2.5t-26.5 9.5l17 36q9 -5 18.5 -6.5t18.5 -1.5q29 0 54.5 11.5t45 31t30.5 45.5t11 55t-11 55t-30.5 45.5t-45 30.5t-54.5 11t-54.5 -14.5t-44.5 -38t-30.5 -53t-11.5 -59.5q0 -31 -6 -55t-16 -43
t-23.5 -34t-29.5 -28l-24 33q27 26 43 58t16 77q0 36 -11.5 65t-31 49.5t-45.5 31.5t-55 11q-30 0 -56 -11t-45.5 -31.5t-31 -49.5t-11.5 -65q0 -45 17 -77t43 -58l-24 -33q-16 13 -30 29t-24 36t-15.5 45.5t-5.5 57.5q0 43 14 79t39 62t58.5 40.5t71.5 14.5
q56 0 100.5 -28.5t66.5 -82.5q23 49 64.5 80t92.5 31q37 0 69.5 -14t57 -38.5t39 -57.5t14.5 -71z" />
    <glyph glyph-name="u1000_u1001_u103B" horiz-adv-x="1147" 
d="M838 -384q-23 -24 -55.5 -37.5t-68.5 -13.5q-45 0 -78 15t-54.5 36t-32.5 43t-11 36q32 20 61.5 30.5t60.5 10.5q21 0 43.5 -7t44 -19t39 -28.5t27.5 -34.5q42 42 42 101q0 29 -11 55t-30.5 45.5t-45 30.5t-55.5 11q-41 0 -78 -21.5t-59 -63.5l-33 21q11 25 29.5 44.5
t41.5 33t48.5 20.5t50.5 7q37 0 70 -14.5t58 -39t39 -58t14 -71.5q0 -50 -22 -87l168 -45v828h51v-894zM946 222q0 -49 -18.5 -92t-50 -75.5t-73.5 -51t-90 -18.5q-18 0 -36 4.5t-35 10.5l20 46l25 -6.5t26 -3.5q37 0 70 14.5t58 40t39 59.5t14 72t-14 72t-39 59.5t-58 40
t-70 14.5t-70.5 -19.5t-59 -50.5t-40.5 -69.5t-15 -76.5q-2 -79 -28.5 -127t-68.5 -80l-30 43q34 32 55 74.5t21 99.5q0 46 -14.5 83.5t-40 64.5t-59.5 41.5t-72 14.5t-72 -14.5t-59.5 -41.5t-40 -64.5t-14.5 -83.5q0 -57 21.5 -99.5t55.5 -74.5l-30 -43q-21 17 -39 37.5
t-31 46.5t-20.5 58.5t-7.5 74.5q0 57 18.5 104t51 80.5t75.5 52t92 18.5q72 0 129.5 -38.5t86.5 -105.5q15 30 37 57t48.5 46.5t57 31t63.5 11.5q48 0 90 -19t73.5 -51t50 -75.5t18.5 -91.5zM787 -377q-19 35 -53.5 56t-76.5 21q-20 0 -38.5 -5.5t-36.5 -15.5
q17 -36 54.5 -55t77.5 -19q19 0 37.5 5t35.5 13z" />
    <glyph glyph-name="u1000_u103B_u1015_u103A" horiz-adv-x="1716" 
d="M778 -369v363q-32 -9 -64 -9q-18 0 -36 3.5t-35 11.5l20 46q23 -10 51 -10q37 0 70 14.5t58 40t39 59.5t14 72t-14 72t-39 59.5t-58 40t-70 14.5t-70.5 -19.5t-59 -50.5t-40.5 -69.5t-15 -76.5q0 -40 -7.5 -71.5t-20.5 -56t-30.5 -44t-38.5 -35.5l-30 43q35 32 55.5 74.5
t20.5 99.5q0 45 -14.5 82.5t-40 64.5t-59.5 42t-72 15t-72 -15t-59.5 -42t-40 -64.5t-14.5 -82.5q0 -57 21 -99.5t56 -74.5l-30 -43q-21 17 -39 37.5t-31 46.5t-20.5 58.5t-7.5 74.5q0 57 18.5 104t51 80.5t75.5 52t92 18.5q72 0 129 -38t87 -106q15 31 37 58t48 46.5
t57 30.5t64 11q47 0 89.5 -19t74 -51t50 -75.5t18.5 -91.5q0 -68 -31.5 -121.5t-85.5 -84.5v-345l212 -55v828h51v-894zM1660 240q0 -57 -18.5 -104t-51 -80.5t-75.5 -52t-92 -18.5t-92 18.5t-75.5 52t-51 80.5t-18.5 104q0 82 26.5 132t71.5 85l30 -43q-35 -32 -56 -74.5
t-21 -99.5q0 -45 14.5 -82.5t40 -64.5t59.5 -42t72 -15t72 15t59.5 42t40 64.5t14.5 82.5q0 57 -20.5 99.5t-55.5 74.5l30 43q21 -17 38.5 -38t30.5 -47t20.5 -58.5t7.5 -73.5zM1617 802q-23 35 -52.5 48.5t-55.5 13.5q-25 0 -50 -10t-45 -29t-32.5 -45.5t-12.5 -59.5
q0 -41 18 -69.5t42 -46t48 -25.5t36 -8v-39q-27 0 -59 12t-59.5 36t-46 59t-18.5 81q0 40 15 74t40 58t57 37.5t67 13.5q45 0 82 -21t54 -56z" />
    <glyph glyph-name="u1001" unicode="&#x1001;" horiz-adv-x="576" 
d="M520 222q0 -49 -18.5 -92t-51 -75.5t-75.5 -51t-92 -18.5q-43 0 -81.5 12.5t-69 34.5t-51 53t-26.5 68q45 25 82 38t73 13q31 0 63 -9.5t60 -25.5t50 -36.5t34 -41.5q24 26 38 59t14 72q0 38 -14.5 71.5t-40 59t-59 40.5t-72.5 15q-52 0 -100 -29.5t-77 -81.5l-43 25
q13 33 36 59t52.5 43t63 26t68.5 9q49 0 92 -19t75.5 -51t51 -75.5t18.5 -91.5zM373 58q-11 21 -28 38t-38.5 30t-45.5 20t-48 7q-41 0 -98 -26q27 -48 72 -69.5t96 -21.5q26 0 47.5 6t42.5 16z" />
    <glyph glyph-name="u1001.med" 
d="M-56 -267q0 -38 -14 -71.5t-39 -58.5t-58 -39t-70 -14q-42 0 -75 14t-55.5 34.5t-34 42.5t-11.5 39q29 18 59 29t63 11q21 0 43.5 -6.5t43 -18t38 -27.5t29.5 -36q42 42 42 101q0 29 -11 55t-30.5 45.5t-45 30.5t-55.5 11q-41 0 -78 -21.5t-59 -63.5l-33 21
q11 25 29.5 44.5t41.5 33t48.5 20.5t50.5 7q37 0 70 -14.5t58 -39t39 -58t14 -71.5zM-164 -392q-19 35 -53.5 56t-76.5 21q-20 0 -38.5 -5.5t-36.5 -15.5q17 -36 54.5 -55t77.5 -19q19 0 37.5 5t35.5 13z" />
    <glyph glyph-name="u1002" unicode="&#x1002;" horiz-adv-x="585" 
d="M529 202q0 -42 -7 -74.5t-20 -58.5t-30.5 -46.5t-39.5 -37.5l-30 43q35 32 55.5 74.5t20.5 99.5q0 45 -14.5 82.5t-40 64.5t-59.5 42t-72 15t-72 -15t-59.5 -42t-40 -64.5t-14.5 -82.5q0 -57 21 -99.5t56 -74.5l-30 -43q-21 17 -39 37.5t-31 46.5t-20.5 58.5t-7.5 74.5
q0 57 18.5 104t51 80.5t75.5 52t92 18.5t92 -18.5t75.5 -52t51 -80.5t18.5 -104z" />
    <glyph glyph-name="u1002.med" 
d="M-56 -282q0 -65 -21 -103t-54 -65l-24 33q27 25 43 57.5t16 77.5q0 30 -9.5 58.5t-28 50t-45 35t-60.5 13.5q-30 0 -56 -11.5t-45.5 -32t-30.5 -49.5t-11 -63q0 -45 17 -78t42 -58l-24 -33q-33 27 -54 65t-21 103q0 43 14 79t39 62t58.5 40.5t71.5 14.5t71.5 -14.5
t58 -40.5t39 -62t14.5 -79z" />
    <glyph glyph-name="u1003" unicode="&#x1003;" horiz-adv-x="999" 
d="M943 222q0 -49 -18.5 -92t-50 -75.5t-74 -51t-89.5 -18.5q-33 0 -64.5 11t-58.5 30t-49 45.5t-38 58.5q-29 -68 -86.5 -106.5t-129.5 -38.5q-53 0 -95.5 17.5t-72.5 44t-46 59t-16 62.5q0 31 10.5 52.5t26 36t33.5 24l33.5 18t26 17.5t10.5 23q0 37 -17.5 51.5
t-35.5 14.5q-9 0 -16.5 -3.5t-13.5 -8.5t-9.5 -10t-3.5 -8l-44 27q2 7 11 16.5t21.5 18t26.5 14t28 5.5q20 0 39 -7.5t33.5 -22.5t23 -37t8.5 -50q0 -24 -10.5 -40t-26 -27.5t-33.5 -21t-33.5 -20.5t-26 -25.5t-10.5 -36.5q0 -9 10 -31t31.5 -44.5t55.5 -39.5t82 -17
q44 0 78.5 17.5t58.5 47t36.5 68.5t12.5 83q0 52 -23.5 94t-53.5 68l30 43q42 -34 70 -85.5t28 -131.5q0 -35 16 -71t42.5 -65.5t60.5 -48.5t70 -19q37 0 70 14.5t58 40t39 59.5t14 72t-14 72t-39 59.5t-58 40t-70 14.5q-13 0 -26 -2.5t-25 -8.5l-20 47q34 15 71 15
q47 0 89.5 -19t74 -51t50 -75.5t18.5 -91.5z" />
    <glyph glyph-name="u1003.med" 
d="M-56 -267q0 -38 -14 -71.5t-38.5 -58.5t-57 -39t-68.5 -14q-50 0 -93 32t-69 80q-22 -53 -66.5 -82.5t-100.5 -29.5q-41 0 -73.5 13.5t-55.5 34.5t-35.5 45.5t-12.5 47.5q0 36 17 55t37 31.5l37 22.5t17 28q0 26 -13 36t-27 10q-15 0 -24 -7.5t-11 -15.5l-33 20
q2 14 23 28t45 14q32 0 55.5 -23t23.5 -67q0 -27 -17 -41.5t-37 -26t-37 -25t-17 -39.5q0 -8 7.5 -24.5t24 -33.5t42.5 -30t64 -13q34 0 61 13t45 35.5t27.5 52.5t9.5 64q0 18 -5.5 36.5t-14 35t-19 31t-20.5 23.5l24 33q33 -27 55 -66t22 -102q0 -27 12 -55t32 -50.5
t46 -36.5t54 -14t53.5 11.5t44.5 31t30 45.5t11 55t-11 55t-30 45.5t-44.5 30.5t-53.5 11q-9 0 -19 -2.5t-19 -7.5l-16 37q12 8 25.5 10t28.5 2q36 0 68.5 -14t57 -38.5t38.5 -57.5t14 -71z" />
    <glyph glyph-name="u1004" unicode="&#x1004;" horiz-adv-x="568" 
d="M513 121q-14 -34 -38 -59.5t-53.5 -42.5t-63 -25.5t-66.5 -8.5q-49 0 -92 18.5t-75.5 51t-51 75.5t-18.5 92q0 48 18.5 91.5t51 75.5t75.5 51t92 19q33 0 66.5 -9t63 -26t53.5 -42.5t38 -59.5l-44 -25q-28 53 -75.5 82t-101.5 29q-38 0 -72 -14.5t-59.5 -40t-40 -59.5
t-14.5 -72t14.5 -72t40 -59.5t59.5 -40t72 -14.5q54 0 101.5 28.5t75.5 82.5l44 -26v0z" />
    <glyph glyph-name="u1004.med" 
d="M-46 -345q-11 -26 -29.5 -45.5t-41 -33t-48.5 -20t-51 -6.5q-38 0 -71 14.5t-58 39.5t-39.5 58t-14.5 71q0 37 14.5 70.5t39.5 58t58 39t71 14.5q25 0 51 -6.5t48.5 -20t41 -33t29.5 -45.5l-34 -19q-21 40 -57.5 62.5t-78.5 22.5q-30 0 -56 -11t-45.5 -30.5t-30.5 -45.5
t-11 -56t11 -56t30.5 -45.5t45.5 -30.5t56 -11q42 0 78.5 21.5t57.5 63.5l34 -20v0z" />
    <glyph glyph-name="u1004.kinzi" 
d="M0 586q-28 -52 -92 -52q-20 0 -38 8.5t-31.5 22t-22 31.5t-8.5 38q0 31 13 51t33 33q-21 15 -33.5 34.5t-12.5 51.5q0 19 7.5 37.5t21 32t31.5 22t39 8.5q35 0 53.5 -14.5t28.5 -36.5l-31 -22q-9 17 -20 25.5t-31 8.5q-24 0 -42 -17.5t-18 -43.5q0 -14 5.5 -26t14 -22
t19 -15.5t21.5 -5.5q32 0 55.5 -15t37.5 -38l-33 -18q-13 15 -26 24t-33 9q-11 0 -21.5 -5t-19.5 -13.5t-14.5 -20t-5.5 -24.5q0 -26 20 -43.5t41 -17.5q20 0 33 8.5t26 22.5l33 -18v0z" />
    <glyph glyph-name="u1004.kinzi_u102D" 
d="M0 720q0 -38 -14 -71.5t-38.5 -58t-57 -39t-69.5 -14.5q-36 0 -68.5 14.5t-57 39t-38.5 58t-14 71.5q0 37 14 70.5t38.5 58.5t57 39.5t68.5 14.5q37 0 69.5 -14.5t57 -39.5t38.5 -58.5t14 -70.5zM-39 720q0 29 -11 55t-30 45.5t-44.5 30.5t-54.5 11t-54 -11t-44 -30.5
t-30 -45.5t-11 -55t11 -55t30 -45.5t44 -31t54 -11.5t54.5 11.5t44.5 31t30 45.5t11 55zM-395 586q-28 -52 -92 -52q-20 0 -38 8.5t-31.5 22t-22 31.5t-8.5 38q0 31 13 51t33 33q-21 15 -33.5 34.5t-12.5 51.5q0 19 7.5 37.5t21 32t31.5 22t39 8.5q35 0 53.5 -14.5
t28.5 -36.5l-31 -22q-9 17 -20 25.5t-31 8.5q-24 0 -42 -17.5t-18 -43.5q0 -14 5.5 -26t14 -22t19 -15.5t21.5 -5.5q32 0 55.5 -15t37.5 -38l-33 -18q-13 15 -26 24t-33 9q-11 0 -21.5 -5t-19.5 -13.5t-14.5 -20t-5.5 -24.5q0 -26 20 -43.5t41 -17.5q20 0 33 8.5t26 22.5z
" />
    <glyph glyph-name="u1004.kinzi_u102E" 
d="M0 717q0 -38 -14 -71t-38.5 -57t-57 -38t-69.5 -14q-36 0 -68.5 14t-57 39t-38.5 58.5t-14 71.5t14 71.5t38.5 58t57 39t68.5 14.5q37 0 69.5 -15t57 -40.5t38.5 -59.5t14 -71zM-48 667q9 25 9 53q0 29 -11 55t-30 45.5t-44.5 30.5t-54.5 11t-54 -11t-44 -30.5t-30 -45.5
t-11 -55q0 -24 10 -53q31 31 64 42t65 11t67 -11t64 -42zM-65 634q-14 16 -30 26t-32 15.5t-29.5 7.5t-22.5 2q-18 0 -49 -9.5t-62 -41.5q17 -23 48 -40t63 -17q35 0 65 14.5t49 42.5zM-395 586q-28 -52 -92 -52q-20 0 -38 8.5t-31.5 22t-22 31.5t-8.5 38q0 31 13 51t33 33
q-21 15 -33.5 34.5t-12.5 51.5q0 19 7.5 37.5t21 32t31.5 22t39 8.5q35 0 53.5 -14.5t28.5 -36.5l-31 -22q-9 17 -20 25.5t-31 8.5q-24 0 -42 -17.5t-18 -43.5q0 -14 5.5 -26t14.5 -22t19.5 -15.5t20.5 -5.5q32 0 55.5 -15t37.5 -38l-33 -18q-13 15 -26 24t-33 9
q-11 0 -21.5 -5t-19.5 -13.5t-14.5 -20t-5.5 -24.5q0 -26 20 -43.5t41 -17.5q20 0 33 8.5t26 22.5z" />
    <glyph glyph-name="u1004.kinzi_u1032" 
d="M-23 610l-298 237l22 33l299 -237zM-395 586q-28 -52 -92 -52q-20 0 -38 8.5t-31.5 22t-22 31.5t-8.5 38q0 31 13 51t33 33q-21 15 -33.5 34.5t-12.5 51.5q0 19 7.5 37.5t21 32t31.5 22t39 8.5q35 0 53.5 -14.5t28.5 -36.5l-31 -22q-9 17 -20 25.5t-31 8.5
q-24 0 -42 -17.5t-18 -43.5q0 -14 6 -26t15 -22t19.5 -15.5t19.5 -5.5q32 0 55.5 -15t37.5 -38l-33 -18q-13 15 -26 24t-33 9q-11 0 -21.5 -5t-19.5 -13.5t-14.5 -20t-5.5 -24.5q0 -26 20 -43.5t41 -17.5q20 0 33 8.5t26 22.5z" />
    <glyph glyph-name="u1004.kinzi_u1033" 
d="M0 720q0 -38 -14 -71.5t-38 -58t-56 -39t-69 -14.5q-38 0 -71 14.5t-57.5 39t-38.5 58t-14 71.5q0 37 14 70t38 58t56.5 39.5t69.5 14.5q38 0 71 -14.5t57 -39.5t38 -58t14 -70zM-39 720q0 29 -11 55t-29.5 45.5t-44 31t-53.5 11.5q-30 0 -55.5 -11.5t-44.5 -31
t-30 -45.5t-11 -55q0 -30 11 -56t29.5 -45.5t43.5 -30.5t54 -11q30 0 55.5 11t44.5 30.5t30 45.5t11 56zM-83 720q0 -18 -6.5 -36t-18.5 -31.5t-29.5 -22t-39.5 -8.5q-16 0 -32.5 6.5t-30.5 18.5t-23 30.5t-9 42.5q0 23 9 41t23 30.5t30.5 19t32.5 6.5t33 -6.5t30.5 -19
t22 -30.5t8.5 -41zM-122 720q0 24 -16 41t-39 17q-24 0 -40 -17t-16 -41q0 -26 16 -42.5t40 -16.5q23 0 39 16.5t16 42.5zM-395 586q-28 -52 -92 -52q-20 0 -38 8.5t-31.5 22t-22 31.5t-8.5 38q0 31 13 51t33 33q-21 15 -33.5 34.5t-12.5 51.5q0 19 7.5 37.5t21 32t31.5 22
t39 8.5q35 0 53.5 -14.5t28.5 -36.5l-31 -22q-9 17 -20 25.5t-31 8.5q-24 0 -42 -17.5t-18 -43.5q0 -14 5.5 -26t14.5 -22t19.5 -15.5t20.5 -5.5q32 0 55.5 -15t37.5 -38l-33 -18q-13 15 -26 24t-33 9q-11 0 -21.5 -5t-19.5 -13.5t-14.5 -20t-5.5 -24.5q0 -26 20 -43.5
t41 -17.5q20 0 33 8.5t26 22.5z" />
    <glyph glyph-name="u1004.kinzi_u1036" 
d="M0 675q0 -32 -22.5 -54.5t-52.5 -22.5q-31 0 -53 22.5t-22 54.5q0 30 22 52.5t53 22.5q30 0 52.5 -22.5t22.5 -52.5zM-29 675q0 19 -13.5 32t-32.5 13q-20 0 -33.5 -13t-13.5 -32q0 -22 13.5 -35t33.5 -13q19 0 32.5 13t13.5 35zM-165 586q-28 -52 -92 -52q-20 0 -38 8.5
t-31.5 22t-22 31.5t-8.5 38q0 31 13 51t33 33q-21 15 -33.5 34.5t-12.5 51.5q0 19 7.5 37.5t21 32t31.5 22t39 8.5q35 0 53.5 -14.5t28.5 -36.5l-31 -22q-9 17 -20 25.5t-31 8.5q-24 0 -42 -17.5t-18 -43.5q0 -14 5.5 -26t14 -22t19 -15.5t21.5 -5.5q32 0 55.5 -15t37.5 -38
l-33 -18q-13 15 -26 24t-33 9q-11 0 -21.5 -5t-19.5 -13.5t-14.5 -20t-5.5 -24.5q0 -26 20 -43.5t41 -17.5q20 0 33 8.5t26 22.5z" />
    <glyph glyph-name="u1004.kinzi_u103A" 
d="M-29 802q-21 35 -51.5 48.5t-56.5 13.5q-25 0 -50 -10t-44.5 -28.5t-32 -45.5t-12.5 -60q0 -41 17.5 -69.5t41 -46t47.5 -25.5t38 -8v-39q-27 0 -59 12t-59.5 36t-46 59t-18.5 81q0 40 15 74t39.5 58t56.5 37.5t66 13.5q46 0 83.5 -21t54.5 -56zM-395 586
q-28 -52 -92 -52q-20 0 -38 8.5t-31.5 22t-22 31.5t-8.5 38q0 31 13 51t33 33q-21 15 -33.5 34.5t-12.5 51.5q0 19 7.5 37.5t21 32t31.5 22t39 8.5q35 0 53.5 -14.5t28.5 -36.5l-31 -22q-9 17 -20 25.5t-31 8.5q-24 0 -42 -17.5t-18 -43.5q0 -14 5.5 -26t14 -22t19 -15.5
t21.5 -5.5q32 0 55.5 -15t37.5 -38l-33 -18q-13 15 -26 24t-33 9q-11 0 -21.5 -5t-19.5 -13.5t-14.5 -20t-5.5 -24.5q0 -26 20 -43.5t41 -17.5q20 0 33 8.5t26 22.5z" />
    <glyph glyph-name="u1004.kinzi_u102D_u1036" 
d="M-165 720q0 -38 -14 -71.5t-38.5 -58t-57 -39t-69.5 -14.5q-36 0 -68.5 14.5t-57 39t-38.5 58t-14 71.5q0 37 14 70.5t38.5 58.5t57 39.5t68.5 14.5q37 0 69.5 -14.5t57 -39.5t38.5 -58.5t14 -70.5zM-204 720q0 29 -11 55t-30 45.5t-44.5 30.5t-54.5 11t-54 -11
t-44 -30.5t-30 -45.5t-11 -55t11 -55t30 -45.5t44 -31t54 -11.5t54.5 11.5t44.5 31t30 45.5t11 55zM0 630q0 -32 -22.5 -54.5t-52.5 -22.5q-31 0 -53 22.5t-22 54.5q0 30 22 52.5t53 22.5q30 0 52.5 -22.5t22.5 -52.5zM-29 630q0 19 -13.5 32t-32.5 13q-20 0 -33.5 -13
t-13.5 -32q0 -22 13.5 -35t33.5 -13q19 0 32.5 13t13.5 35zM-560 586q-28 -52 -92 -52q-20 0 -38 8.5t-31.5 22t-22 31.5t-8.5 38q0 31 13 51t33 33q-21 15 -33.5 34.5t-12.5 51.5q0 19 7.5 37.5t21 32t31.5 22t39 8.5q35 0 53.5 -14.5t28.5 -36.5l-31 -22q-9 17 -20 25.5
t-31 8.5q-24 0 -42 -17.5t-18 -43.5q0 -14 5.5 -26.5t14.5 -22t20 -15t21 -5.5q32 0 55 -15t37 -38l-33 -18q-13 15 -26 24t-33 9q-11 0 -21.5 -5t-19.5 -13.5t-14.5 -20t-5.5 -24.5q0 -26 20 -43.5t41 -17.5q20 0 33 8.5t26 22.5z" />
    <glyph glyph-name="u1005" unicode="&#x1005;" horiz-adv-x="576" 
d="M520 222q0 -49 -18 -92t-49.5 -75.5t-73.5 -51t-90 -18.5q-50 0 -92.5 18.5t-74 51t-49.5 75.5t-18 92q0 48 18 91.5t49.5 75.5t73.5 51t90 19q49 0 92 -19t74.5 -51t49.5 -75.5t18 -91.5zM469 222q0 38 -14 71.5t-38.5 59t-57.5 40.5t-70 15q-35 0 -69 -14
q42 -40 57 -85t15 -87t-15 -86.5t-57 -86.5q37 -13 66 -13q38 0 71.5 14.5t58 40t39 59t14.5 72.5zM241 222q0 25 -13.5 65.5t-52.5 79.5q-31 -25 -50 -63.5t-19 -81.5q0 -45 18 -82t50 -62q39 39 53 78.5t14 65.5z" />
    <glyph glyph-name="u1005.med" 
d="M-56 -267q0 -38 -14 -71.5t-38.5 -58.5t-57 -39t-68.5 -14q-37 0 -69.5 14t-57 39t-38.5 58.5t-14 71.5t14 71.5t38.5 58t57 39t69.5 14.5q36 0 68.5 -14.5t57 -39t38.5 -58t14 -71.5zM-95 -267q0 29 -11 55t-30 45.5t-44.5 30.5t-53.5 11q-29 0 -51 -9q32 -32 43 -66.5
t11 -66.5q0 -33 -12.5 -68t-43.5 -66q25 -9 53 -9t53.5 11.5t44.5 31t30 45.5t11 55zM-266 -267q0 19 -10 51t-41 63q-26 -18 -41.5 -48.5t-15.5 -65.5t15 -65.5t41 -47.5q30 31 41 61t11 52z" />
    <glyph glyph-name="u1006" unicode="&#x1006;" horiz-adv-x="990" 
d="M934 222q0 -49 -18.5 -92t-50 -75.5t-74 -51t-89.5 -18.5q-69 0 -124 36t-83 93q-30 -57 -86.5 -93t-125.5 -36q-39 0 -78 12t-70.5 34.5t-53 53t-26.5 68.5q42 22 77.5 36.5t77.5 14.5q61 0 115.5 -31t91.5 -82q24 26 38 59t14 72q0 38 -14.5 71.5t-40 59t-59 40.5
t-72.5 15q-52 0 -100 -29.5t-77 -81.5l-43 25q13 32 36 57.5t52 43t63 27t69 9.5q69 0 125.5 -36t86.5 -93q28 57 83 93t124 36q47 0 89.5 -19t74 -51t50 -75.5t18.5 -91.5zM883 222q0 38 -14 71.5t-39 59t-58 40.5t-70 15q-38 0 -71 -15t-57.5 -40.5t-39 -59t-14.5 -71.5
q0 -39 14.5 -72.5t39 -59t57.5 -40t71 -14.5q37 0 70 14.5t58 40t39 59t14 72.5zM373 58q-24 42 -66 68.5t-93 26.5q-25 0 -49 -7.5t-50 -19.5q27 -48 72 -69t96 -21q26 0 47.5 6t42.5 16z" />
    <glyph glyph-name="u1006.med" 
d="M-56 -267q0 -38 -14.5 -71.5t-39 -58.5t-57 -39t-69.5 -14q-53 0 -94.5 28t-64.5 72q-23 -44 -66.5 -72t-96.5 -28q-30 0 -60 9.5t-54 27t-41 41t-21 52.5q33 17 61.5 29t58.5 12q22 0 46 -7t45 -19t38.5 -28t28.5 -35q42 43 42 101q0 29 -11.5 55t-31 45.5t-45.5 30.5
t-56 11q-41 0 -76.5 -21.5t-57.5 -63.5l-36 21q11 25 29.5 44.5t41.5 33t48.5 20.5t50.5 7q53 0 96.5 -28t66.5 -73q23 45 64.5 73t94.5 28q37 0 69.5 -14.5t57 -39t39 -58t14.5 -71.5zM-95 -267q0 29 -11 55t-30.5 45.5t-45 30.5t-54.5 11t-54.5 -11t-44.5 -30.5
t-29.5 -45.5t-10.5 -55t10.5 -55t29.5 -45.5t44.5 -31t54.5 -11.5t54.5 11.5t45 31t30.5 45.5t11 55zM-483 -392q-17 33 -53 55t-78 22q-19 0 -38 -5.5t-37 -15.5q9 -18 23 -32t32 -23.5t37.5 -14t39.5 -4.5t38.5 5t35.5 13z" />
    <glyph glyph-name="u1007" unicode="&#x1007;" horiz-adv-x="609" 
d="M528 127q-13 20 -26.5 43t-27.5 44q-17 -30 -48.5 -45.5t-64.5 -15.5q-20 0 -38.5 5.5t-32.5 16t-22.5 27t-8.5 38.5q0 44 27 72t75 28q15 0 30.5 -3.5t32.5 -11.5q-6 16 -17 31t-27.5 26.5t-39 18.5t-51.5 7q-39 0 -72.5 -15.5t-58 -41t-38.5 -59.5t-14 -70
q0 -40 14 -74t38 -59t57 -39t71 -14q44 0 76 14.5t67 46.5l33 -40q-20 -18 -39.5 -31.5t-40 -22.5t-44 -13.5t-52.5 -4.5q-51 0 -93 18.5t-73 51t-48 75.5t-17 92q0 48 18 91t49.5 75.5t73.5 51.5t90 19q46 0 82.5 -14.5t62.5 -39t40 -58.5t16 -73q26 -28 45 -59.5l36 -58.5
zM436 261q-17 14 -34.5 21t-40.5 7t-37 -11.5t-14 -37.5q0 -17 15 -26.5t36 -9.5q12 0 24.5 2.5t23.5 9.5t18 17.5t9 27.5z" />
    <glyph glyph-name="u1007.med" 
d="M-87 -341q-8 14 -21 34.5l-21 33.5q-14 -23 -37.5 -35t-49.5 -12q-31 0 -54.5 15.5t-23.5 50.5t20 56.5t58 21.5q25 0 49 -12q-9 24 -33.5 43.5t-71.5 19.5q-30 0 -56 -11.5t-45 -31t-29.5 -45.5t-10.5 -54q0 -31 10.5 -57.5t29.5 -45.5t44.5 -29.5t55.5 -10.5
q35 0 58.5 11t50.5 34l26 -30q-31 -27 -61 -41t-74 -14q-39 0 -72 14t-56.5 39t-37 58.5t-13.5 71.5q0 37 14 70.5t38.5 58.5t57.5 39.5t70 14.5q36 0 64 -11t47.5 -30t30.5 -44.5t11 -55.5q20 -22 35.5 -47l27.5 -46zM-159 -237q-13 12 -26.5 17t-30.5 5q-39 0 -39 -39
q0 -12 11 -19.5t28 -7.5q18 0 35.5 10t21.5 34z" />
    <glyph glyph-name="u1008" unicode="&#x1008;" horiz-adv-x="721" 
d="M351 -369v363q-30 -9 -62 -9q-50 0 -92.5 18.5t-74 51t-49.5 75.5t-18 92q0 48 18 91.5t49.5 75.5t73.5 51t90 19q49 0 92 -19t74.5 -51t49.5 -75.5t18 -91.5q0 -68 -31.5 -122.5t-85.5 -84.5v-344l212 -55v828h51v-894zM469 222q0 38 -14 72t-38.5 59.5t-57.5 40
t-70 14.5q-18 0 -34 -4t-33 -10q39 -41 54.5 -86t15.5 -86q0 -42 -15.5 -87t-56.5 -86q29 -13 66 -13q38 0 71.5 14.5t58 40t39 59.5t14.5 72zM241 222q0 13 -2.5 30t-10 36t-20.5 39t-33 40q-32 -26 -50.5 -63.5t-18.5 -81.5q0 -45 18 -81.5t48 -62.5q41 39 55 78.5
t14 65.5z" />
    <glyph glyph-name="u1008.med" horiz-adv-x="162" 
d="M-107 -395q-23 -18 -51 -29t-60 -11q-37 0 -69.5 14.5t-56.5 39.5t-38 58.5t-14 70.5q0 38 14 71.5t38 58t56.5 39t69.5 14.5t69.5 -14.5t57 -39t38.5 -58t14 -71.5q0 -56 -29 -99l123 -33v828h51v-894zM-78 -252q0 29 -11 55t-30 45.5t-44.5 30.5t-54.5 11t-51 -9
q32 -30 43 -65.5t11 -67.5q0 -33 -11.5 -67.5t-43.5 -66.5q22 -9 52 -9q29 0 54.5 11.5t44.5 31t30 45.5t11 55zM-249 -252q0 19 -10.5 51t-40.5 63q-27 -20 -42 -49.5t-15 -64.5t14.5 -65.5t40.5 -47.5q31 31 42 62t11 51z" />
    <glyph glyph-name="u1009" unicode="&#x1009;" horiz-adv-x="568" 
d="M919 -347q0 -34 -4 -50t-12 -26q-11 -13 -25 -20t-43 -7h-514q-71 0 -117.5 16t-82.5 53q-37 38 -51.5 84.5t-14.5 111.5v306l45 26q27 -54 74.5 -82.5t101.5 -28.5q38 0 72 14.5t59.5 40t40 59.5t14.5 72t-14.5 72t-40 59.5t-59.5 40t-72 14.5q-54 0 -101.5 -29
t-74.5 -82l-45 25q14 34 38 59.5t53.5 42.5t63 26t66.5 9q49 0 92 -19t75 -51t51 -75.5t19 -91.5q0 -49 -19 -92t-51 -75.5t-75 -51t-92 -18.5q-45 0 -90 16t-80 48v-216q0 -58 10.5 -103t42.5 -77q32 -33 77.5 -42.5t100.5 -9.5h473q20 0 31.5 2t17.5 8t7.5 18t1.5 33v36
h51v-45z" />
    <glyph glyph-name="u1009_u102C" horiz-adv-x="990" 
d="M934 222q0 -49 -18.5 -92t-50 -75.5t-74 -51t-89.5 -18.5q-18 0 -36 4t-35 11l20 46q23 -10 51 -10q37 0 70 14.5t58 40t39 59.5t14 72t-14 72t-39 59.5t-58 40t-70 14.5q-35 0 -67.5 -17.5t-58.5 -45.5t-43 -62.5t-20 -68.5l-2 -22q-3 -36 -21 -72.5t-48.5 -66.5
t-72.5 -49t-93 -19q-45 0 -90 16t-80 48v-216q0 -58 10.5 -103t42.5 -77q32 -33 77.5 -42.5t100.5 -9.5h473q20 0 31.5 2t17.5 8t7.5 18t1.5 33v36h51v-45q0 -34 -4 -50t-12 -26q-11 -13 -25 -20t-43 -7h-514q-71 0 -117.5 16t-82.5 53q-37 38 -51.5 84.5t-14.5 111.5v306
l45 26q27 -54 74.5 -82.5t101.5 -28.5q36 0 69.5 14t59.5 39t41.5 59t15.5 74q0 38 -14.5 72t-40 59.5t-59.5 40t-72 14.5q-54 0 -101.5 -29t-74.5 -82l-45 25q14 34 38 59.5t53.5 42.5t63 26t66.5 9q36 0 69 -10.5t61.5 -30t50 -46t35.5 -57.5q16 31 38.5 57t49.5 45.5
t58 30.5t64 11q47 0 89.5 -19t74 -51t50 -75.5t18.5 -91.5z" />
    <glyph glyph-name="u100A" unicode="&#x100a;" horiz-adv-x="990" 
d="M934 222q0 -49 -18.5 -92t-50 -75.5t-74 -51t-89.5 -18.5q-33 0 -64 10.5t-58 29.5t-49 45t-38 57q-14 -32 -36 -58t-50.5 -44.5t-61.5 -29t-69 -10.5q-45 0 -90 16t-80 48v-216q0 -58 10.5 -103t42.5 -77q32 -33 77.5 -42.5t100.5 -9.5h473q20 0 31.5 2t17.5 8t7.5 18
t1.5 33v36h51v-45q0 -34 -4 -50t-12 -26q-11 -13 -25 -20t-43 -7h-514q-71 0 -117.5 16t-82.5 53q-37 38 -51.5 84.5t-14.5 111.5v306l45 26q27 -54 74.5 -82.5t101.5 -28.5q38 0 72 14.5t59.5 39.5t40 58t14.5 71q0 34 -13.5 67.5t-38.5 60.5t-59 44t-75 17
q-55 0 -101 -27.5t-75 -83.5l-45 25q14 34 38 59.5t53.5 42.5t63 26t66.5 9q47 0 89.5 -18.5t74.5 -50.5t51.5 -74t21.5 -88q4 -36 21.5 -70.5t43 -61.5t57.5 -43.5t67 -16.5q37 0 70 14.5t58 40t39 59.5t14 72t-14 72t-39 59.5t-58 40t-70 14.5q-11 0 -25.5 -3t-25.5 -8
l-20 47q17 6 36 10.5t35 4.5q47 0 89.5 -19t74 -51t50 -75.5t18.5 -91.5z" />
    <glyph glyph-name="u100A.alt" horiz-adv-x="990" 
d="M934 222q0 -49 -18.5 -92t-50 -75.5t-74 -51t-89.5 -18.5q-33 0 -64 10.5t-58 29.5t-49 45t-38 57q-14 -32 -36 -58t-50.5 -44.5t-61.5 -29t-69 -10.5q-45 0 -90 16t-80 48v-309q0 -36 10 -59.5t28 -41.5q20 -20 42.5 -29t44.5 -9h58v-51h-58q-29 0 -63.5 14t-61.5 41
q-25 25 -38 57t-13 66v393l45 26q27 -54 74.5 -82.5t101.5 -28.5q38 0 72 14.5t59.5 39.5t40 58t14.5 71q0 34 -13.5 67.5t-38.5 60.5t-59 44t-75 17q-55 0 -101 -27.5t-75 -83.5l-45 25q14 34 38 59.5t53.5 42.5t63 26t66.5 9q47 0 89.5 -18.5t74.5 -50.5t51.5 -74
t21.5 -88q4 -36 21.5 -70.5t43 -61.5t57.5 -43.5t67 -16.5q37 0 70 14.5t58 40t39 59.5t14 72t-14 72t-39 59.5t-58 40t-70 14.5q-11 0 -25.5 -3t-25.5 -8l-20 47q17 6 36 10.5t35 4.5q47 0 89.5 -19t74 -51t50 -75.5t18.5 -91.5z" />
    <glyph glyph-name="u100A.med" 
d="M-55 -226q0 -69 -42.5 -101t-115.5 -32q-47 0 -79 13t-66 51q-26 -38 -61.5 -51t-87.5 -13q-35 0 -66.5 11.5t-57.5 41.5q0 -29 9 -49t23.5 -32t32 -17.5t34.5 -5.5h396q17 0 23.5 6t6.5 26v22h40v-22q0 -38 -15.5 -55t-52.5 -17h-399q-64 0 -101 40.5t-37 107.5
q0 18 3 38l35 20q21 -33 52.5 -54t73.5 -21q59 0 94 24.5t35 68.5q0 17 -6.5 35t-22 33t-40 25t-60.5 10q-34 0 -64 -15.5t-53 -48.5l-27 32q18 27 55.5 49t88.5 22q36 0 67 -9.5t53.5 -28t35 -45t12.5 -60.5q0 -20 9.5 -37t26.5 -29t40 -19t50 -7q58 0 88.5 24t30.5 69
q0 51 -29 77t-80 26q-12 0 -26.5 -4t-23.5 -9l-15 36q14 7 33.5 11.5t31.5 4.5q66 0 107 -37.5t41 -104.5z" />
    <glyph glyph-name="u100A_u100A" horiz-adv-x="1410" 
d="M1355 222q0 -49 -18.5 -92t-50 -75.5t-74 -51t-89.5 -18.5q-33 0 -64 10.5t-58 29.5t-49 45t-38 57q-14 -32 -35.5 -58t-49 -44.5t-60 -29t-67.5 -10.5q-33 0 -64 10.5t-58 29.5t-49 45t-38 57q-14 -32 -36 -58t-50.5 -44.5t-61.5 -29t-69 -10.5q-45 0 -90 16t-80 48
v-216q0 -58 10.5 -103t42.5 -77q32 -33 77.5 -42.5t100.5 -9.5h894q20 0 31.5 2t17.5 8t7.5 18t1.5 33v36h51v-45q0 -34 -4 -50t-12 -26q-11 -13 -25 -20t-43 -7h-935q-71 0 -117.5 16t-82.5 53q-37 38 -51.5 84.5t-14.5 111.5v306l45 26q27 -54 74.5 -82.5t101.5 -28.5
q38 0 72 14.5t59.5 39.5t40 58t14.5 71q0 34 -13.5 67.5t-38.5 60.5t-59 44t-75 17q-55 0 -101 -27.5t-75 -83.5l-45 25q14 34 38 59.5t53.5 42.5t63 26t66.5 9q47 0 89.5 -18.5t74.5 -50.5t51.5 -74t21.5 -88q4 -36 21.5 -70.5t43 -61.5t57.5 -43.5t67 -16.5q37 0 70 14.5
t58 40t39 59.5t14 72t-14 72t-39 59.5t-58 40t-70 14.5q-11 0 -25.5 -3t-25.5 -8l-20 47q17 6 36 10.5t35 4.5q46 0 88 -18.5t74 -50t51 -73.5t19 -89q4 -36 21.5 -70.5t43 -61.5t57.5 -43.5t67 -16.5q37 0 70 14.5t58 40t39 59.5t14 72t-14 72t-39 59.5t-58 40t-70 14.5
q-11 0 -25.5 -3t-25.5 -8l-20 47q17 6 36 10.5t35 4.5q47 0 89.5 -19t74 -51t50 -75.5t18.5 -91.5z" />
    <glyph glyph-name="u100B" unicode="&#x100b;" horiz-adv-x="568" 
d="M597 -423l-41.5 -18t-35.5 -9q-32 0 -45 20.5t-13 51.5v115q-40 -17 -82.5 -23.5t-87.5 -6.5q-55 0 -108.5 14t-98.5 46v192q48 -29 97.5 -47.5t109.5 -18.5q45 0 87 12.5t83 34.5v109q-35 -32 -80 -48t-90 -16q-49 0 -92 18.5t-75.5 51t-51 75.5t-18.5 92
q0 48 18.5 91.5t51 75.5t75.5 51t92 19q33 0 66.5 -9t63 -26t53.5 -42.5t38 -59.5l-44 -25q-28 53 -75.5 82t-101.5 29q-38 0 -72 -14.5t-59.5 -40t-40 -59.5t-14.5 -72t14.5 -72t40 -59.5t59.5 -40t72 -14.5q54 0 101.5 28.5t75.5 82.5l44 -26v-210q-51 -32 -106 -50.5
t-115 -18.5q-41 0 -80.5 8t-75.5 25v-79q73 -38 156 -38q58 0 111 14t110 42v-183q0 -14 2 -20t10 -6q5 0 13 2.5t17 6t16.5 7l11.5 5.5l14 -49v0z" />
    <glyph glyph-name="u100B.alt" horiz-adv-x="568" 
d="M513 121q-14 -34 -38 -59.5t-53.5 -42.5t-63 -25.5t-66.5 -8.5q-49 0 -92 18.5t-75.5 51t-51 75.5t-18.5 92q0 48 18.5 91.5t51 75.5t75.5 51t92 19q33 0 66.5 -9t63 -26t53.5 -42.5t38 -59.5l-44 -25q-28 53 -75.5 82t-101.5 29q-38 0 -72 -14.5t-59.5 -40t-40 -59.5
t-14.5 -72t14.5 -72t40 -59.5t59.5 -40t72 -14.5q54 0 101.5 28.5t75.5 82.5zM447 -450v327q-38 -17 -74 -26t-81 -9q-55 0 -107.5 15t-99.5 45v57q48 -29 97.5 -47.5t109.5 -18.5q29 0 54.5 4.5t50 12.5t49 20.5l52.5 27.5v-357h76v-51h-127z" />
    <glyph glyph-name="u100B.med" 
d="M-116 -450v71q-8 -1 -20.5 -1.5t-21.5 -0.5q-15 0 -35 3.5t-37.5 13.5t-29.5 27t-12 44q0 26 12 43.5t30.5 27.5t39.5 14t39 4q26 0 50.5 -4.5t44.5 -18.5l-21 -33q-17 11 -33 14t-41 3q-12 0 -26.5 -3t-27 -9t-20.5 -15.5t-8 -22.5q0 -14 8 -23t19.5 -15t24.5 -8.5
t23 -2.5q26 0 44.5 3t36.5 10v-82h51v-39h-90z" />
    <glyph glyph-name="u100B_u100B" horiz-adv-x="568" 
d="M513 121q-14 -34 -38 -59.5t-53.5 -42.5t-63 -25.5t-66.5 -8.5q-49 0 -92 18.5t-75.5 51t-51 75.5t-18.5 92q0 48 18.5 91.5t51 75.5t75.5 51t92 19q33 0 66.5 -9t63 -26t53.5 -42.5t38 -59.5l-44 -25q-28 53 -75.5 82t-101.5 29q-38 0 -72 -14.5t-59.5 -40t-40 -59.5
t-14.5 -72t14.5 -72t40 -59.5t59.5 -40t72 -14.5q54 0 101.5 28.5t75.5 82.5zM462 -450v333q-41 -20 -83 -30.5t-87 -10.5q-55 0 -107.5 15t-99.5 45v57q48 -29 97.5 -47.5t109.5 -18.5q59 0 113 22t108 55v-369h82v-51h-133zM307 -450v72q-8 -2 -21 -2.5t-24 -0.5
q-7 0 -25.5 3t-37.5 12t-33.5 26.5t-14.5 46.5q0 25 12 42t30 27.5t39 15t40 4.5q22 0 47 -3.5t48 -19.5l-21 -33q-20 11 -37 14t-37 3q-12 0 -26.5 -2t-26.5 -8t-20.5 -15.5t-8.5 -24.5t8.5 -25t20.5 -15t24 -7t19 -2q29 0 46 3t38 10v-82h51v-39h-90z" />
    <glyph glyph-name="u100B_u100C" horiz-adv-x="556" 
d="M498 -275q0 -39 -17 -71t-34 -49q-20 -21 -52.5 -38t-72.5 -17h-166q-25 0 -44 9t-31.5 23t-19 32.5t-6.5 38.5q0 19 7 37t21.5 32.5t35 23.5t47.5 9q41 0 63 -22l-34 -39q-16 10 -29 10q-30 0 -45 -14.5t-15 -36.5q0 -18 12 -35t38 -17h136q25 0 41 1.5t28 5.5t22 11.5
t23 18.5q22 18 31.5 43.5t9.5 54.5v141q-36 -17 -73 -26t-82 -9q-55 0 -107.5 15t-99.5 45v57q48 -29 97.5 -47.5t109.5 -18.5q29 0 54.5 4.5t50 12.5t49 20.5l52.5 27.5v-233zM513 121q-14 -34 -38 -59.5t-53.5 -42.5t-63 -25.5t-66.5 -8.5q-49 0 -92 18.5t-75.5 51
t-51 75.5t-18.5 92q0 48 18.5 91.5t51 75.5t75.5 51t92 19q33 0 66.5 -9t63 -26t53.5 -42.5t38 -59.5l-44 -25q-28 53 -75.5 82t-101.5 29q-38 0 -72 -14.5t-59.5 -40t-40 -59.5t-14.5 -72t14.5 -72t40 -59.5t59.5 -40t72 -14.5q54 0 101.5 28.5t75.5 82.5z" />
    <glyph glyph-name="u100C" unicode="&#x100c;" horiz-adv-x="568" 
d="M513 -275q0 -39 -15.5 -69.5t-35.5 -50.5q-23 -23 -54 -39t-71 -16h-166q-24 0 -43 9t-32 23t-19.5 32.5t-6.5 38.5q0 19 7.5 37t21.5 32.5t35 23.5t47 9q41 0 63 -22l-34 -39q-16 10 -29 10q-30 0 -45 -14.5t-15 -36.5q0 -18 13.5 -35t36.5 -17h136q23 0 39.5 1.5t29 5
t23.5 11t24 19.5q19 17 29 44t10 54v313q-35 -32 -80 -48t-90 -16q-49 0 -92 18.5t-75.5 51t-51 75.5t-18.5 92q0 48 18.5 91.5t51 75.5t75.5 51t92 19q33 0 66.5 -9t63 -26t53.5 -42.5t38 -59.5l-44 -25q-28 53 -75.5 82t-101.5 29q-38 0 -72 -14.5t-59.5 -40t-40 -59.5
t-14.5 -72t14.5 -72t40 -59.5t59.5 -40t72 -14.5q54 0 101.5 28.5t75.5 82.5l44 -26v-396z" />
    <glyph glyph-name="u100C.med" 
d="M-55 -281q0 -25 -7 -50.5t-20.5 -48.5t-33 -41.5t-44.5 -28.5l-20 33q41 21 63.5 58t22.5 78q0 30 -11.5 56t-31 45.5t-46 30.5t-55.5 11t-55 -11t-45.5 -30.5t-31 -45.5t-11.5 -56q0 -41 22.5 -78t63.5 -58l-20 -33h-306q-30 0 -54.5 11.5t-38.5 25.5q-15 15 -28.5 39
t-13.5 59v127q0 38 24 58t56 20q30 0 54.5 -22t24.5 -63q0 -32 -18 -50l-30 27q6 6 7.5 12t1.5 11q0 23 -13 34.5t-27 11.5t-27.5 -11t-13.5 -28v-105q0 -19 1.5 -31.5t4.5 -21.5t9 -17t15 -18q14 -15 34 -22.5t41 -7.5h242q-26 27 -38 61t-12 69q0 38 14 71t39 58t58 39
t71 14t71.5 -14t58 -39t39 -58t14.5 -71z" />
    <glyph glyph-name="u100D" unicode="&#x100d;" horiz-adv-x="568" 
d="M417 -450v319q-35 -14 -68.5 -20.5t-72.5 -6.5q-60 0 -115 18.5t-106 50.5v210l45 26q27 -54 74.5 -82.5t101.5 -28.5q38 0 72 14.5t59.5 40t40 59.5t14.5 72t-14.5 72t-40 59.5t-59.5 40t-72 14.5q-54 0 -101.5 -29t-74.5 -82l-45 25q14 34 38 59.5t53.5 42.5t63 26
t66.5 9q49 0 92 -19t75 -51t51 -75.5t19 -91.5q0 -49 -19 -92t-51 -75.5t-75 -51t-92 -18.5q-45 0 -90 16t-80 48v-109q41 -22 83 -34.5t87 -12.5q57 0 104.5 17t87.5 39v-348h79v-51h-130z" />
    <glyph glyph-name="u100D.med" 
d="M-130 -440v57q-14 -6 -29 -9t-44 -3q-9 0 -23 1t-29 3.5l-29 5t-23 5.5v100q26 -9 52 -11t52 -2q11 0 24.5 3t25 8.5t19.5 13t8 17.5q0 9 -7.5 17t-18.5 13.5t-24.5 8.5t-26.5 3q-39 0 -60.5 -3t-43.5 -11l-13 27q23 9 50.5 13.5t66.5 4.5q16 0 35 -4t35.5 -12.5
t27.5 -22.5t11 -34q0 -21 -12 -35t-29 -22.5t-35.5 -12.5t-32.5 -4q-21 0 -41.5 2t-33.5 6v-38q12 -3 33 -6t42 -3q36 0 59.5 8t43.5 19v-73h45v-30h-75z" />
    <glyph glyph-name="u100D_u100D" horiz-adv-x="568" 
d="M432 -450v325q-38 -17 -77.5 -25t-78.5 -8q-60 0 -115 18.5t-106 50.5v210l45 26q27 -54 74.5 -82.5t101.5 -28.5q38 0 72 14.5t59.5 40t40 59.5t14.5 72t-14.5 72t-40 59.5t-59.5 40t-72 14.5q-54 0 -101.5 -29t-74.5 -82l-45 25q14 34 38 59.5t53.5 42.5t63 26t66.5 9
q49 0 92 -19t75 -51t51 -75.5t19 -91.5q0 -49 -19 -92t-51 -75.5t-75 -51t-92 -18.5q-45 0 -90 16t-80 48v-109q41 -22 83 -34.5t87 -12.5q57 0 108 18t99 48v-358h82v-51h-133zM307 -450v57q-14 -6 -29 -9t-44 -3q-9 0 -23 1t-29 3.5l-29 5t-23 5.5v100q26 -9 52 -11t52 -2
q11 0 24.5 3t25 8.5t19.5 13t8 17.5q0 9 -7.5 17t-18.5 13.5t-24.5 8.5t-26.5 3q-39 0 -60.5 -3t-43.5 -11l-13 27q23 9 50.5 13.5t66.5 4.5q16 0 35 -4t35.5 -12.5t27.5 -22.5t11 -34q0 -21 -12 -35t-29 -22.5t-35.5 -12.5t-32.5 -4q-21 0 -41.5 2t-33.5 6v-38q12 -3 33 -6
t42 -3q36 0 59.5 8t43.5 19v-73h45v-30h-75z" />
    <glyph glyph-name="u100D_u100E" horiz-adv-x="577" 
d="M522 240q0 -54 -16.5 -99t-45 -78t-67 -53t-83.5 -24v-385h83v-51h-134v436q-47 4 -85 23t-64.5 45t-40.5 56t-14 58q0 44 19 73.5t42.5 50.5t42.5 36.5t19 32.5t-6.5 30.5t-29.5 13.5q-9 0 -16.5 -4t-13.5 -9.5t-9.5 -10.5t-3.5 -6l-44 27q1 8 8.5 17.5t19.5 17.5
t27 13.5t32 5.5q45 0 66 -27.5t21 -67.5q0 -32 -19 -52.5t-42.5 -40t-42.5 -42.5t-19 -58q0 -14 8 -34t26.5 -40.5t47.5 -36.5t71 -20q-1 35 -8 52.5t-19 22.5v44q9 -4 20.5 -6t21.5 -2q26 0 45.5 11t19.5 31t-20.5 31t-47.5 11q-10 0 -20 -1t-19 -5v41q17 10 44 10
q19 0 38.5 -5t35 -16t25 -27.5t9.5 -38.5q0 -25 -10.5 -41t-25 -25t-29 -12.5t-21.5 -3.5q11 -20 12 -71q34 4 63 20.5t51 43t34.5 62t12.5 77.5q0 57 -21 99.5t-56 74.5l30 43q45 -35 71.5 -85t26.5 -132z" />
    <glyph glyph-name="u100E" unicode="&#x100e;" horiz-adv-x="577" 
d="M522 240q0 -57 -18.5 -104t-50.5 -80.5t-75.5 -52t-92.5 -18.5q-53 0 -95.5 17.5t-72.5 44t-46 59t-16 62.5q0 31 10.5 52.5t26 36t33.5 24l33.5 18t26 17.5t10.5 23q0 37 -17.5 51.5t-35.5 14.5q-9 0 -16.5 -3.5t-13.5 -8.5t-9.5 -10t-3.5 -8l-44 27q1 6 8 15t19 18
t27.5 15t32.5 6q20 0 39 -7.5t33.5 -22.5t23 -37t8.5 -50q0 -24 -10.5 -40t-26 -27.5t-33.5 -21t-33.5 -20.5t-26 -25.5t-10.5 -36.5q0 -9 10 -31t31.5 -44.5t55.5 -39.5t82 -17q38 0 72 15t59.5 42t40 64.5t14.5 82.5q0 57 -21 99.5t-56 74.5l30 43q45 -35 71.5 -85
t26.5 -132z" />
    <glyph glyph-name="u100E.med" 
d="M-56 -254q0 -52 -17 -89t-44 -61t-59 -35t-62 -11q-41 0 -73.5 13.5t-55.5 34.5t-35.5 45.5t-12.5 47.5q0 24 8 40.5t20 27.5t26 18.5l26 14.5t20 14t8 17q0 30 -13 40.5t-27 10.5q-15 0 -24 -7.5t-11 -15.5l-33 20q1 7 7.5 14.5t16 13.5t21 10t23.5 4q32 0 55.5 -22.5
t23.5 -67.5q0 -19 -8 -31t-20 -21t-26 -16t-26 -15.5t-20 -20t-8 -28.5q0 -8 7.5 -24.5t24 -33.5t42.5 -30t64 -13q35 0 61.5 14t44.5 36t27 50t9 56q0 50 -16 79.5t-42 55.5l24 33q17 -16 31 -32.5t23.5 -36t14.5 -44t5 -55.5z" />
    <glyph glyph-name="u100F" unicode="&#x100f;" horiz-adv-x="1032" 
d="M976 222q0 -49 -13.5 -92t-39.5 -75.5t-63.5 -51t-85.5 -18.5q-14 0 -29.5 3.5t-26.5 11.5l21 45q16 -9 35 -9q37 0 65.5 14.5t47.5 40t28.5 59.5t9.5 72t-12 72t-34 59.5t-52.5 40t-67.5 14.5q-38 0 -66 -14.5t-47 -40t-28 -59.5t-9 -72q0 -22 3.5 -37.5t7.5 -28
t7.5 -25.5t3.5 -31q0 -24 -8 -44.5t-22.5 -36.5t-36 -25t-48.5 -9q-25 0 -46 9t-36.5 25t-24.5 36.5t-9 44.5q0 18 3.5 31t8 25.5t8.5 28t4 37.5q0 38 -9.5 72t-28.5 59.5t-47.5 40t-65.5 14.5t-68 -14.5t-53 -40t-34 -59.5t-12 -72t9.5 -72t28.5 -59.5t47.5 -40t66.5 -14.5
q14 0 22 2t15 7l18 -45q-11 -8 -26 -11.5t-29 -3.5q-48 0 -85.5 18.5t-64 51t-40 75.5t-13.5 92q0 48 16 91.5t44.5 75.5t69 51t88.5 19q35 0 65 -10.5t53 -28.5q20 19 49 29t76 10q45 0 74.5 -10t49.5 -29q25 18 54.5 28.5t64.5 10.5q48 0 87.5 -19t68.5 -51t45 -75.5
t16 -91.5zM603 381q-17 11 -39 19t-48 8q-25 0 -47.5 -8t-39.5 -19q46 -67 46 -159q0 -12 -4 -29.5t-8.5 -35t-8 -33t-3.5 -24.5q0 -32 19.5 -48t45.5 -16q9 0 20 4t21 12t16.5 20t6.5 28q0 14 -3.5 30.5t-7.5 33l-7.5 31.5t-3.5 27q0 45 11 85.5t34 73.5z" />
    <glyph glyph-name="u100F.med" 
d="M-56 -267q0 -38 -10.5 -71.5t-30 -58.5t-48.5 -39t-65 -14q-18 0 -29 3.5t-16 6.5l16 36q6 -2 13 -4t16 -2q28 0 50 11.5t36 31t21.5 45.5t7.5 55t-9 55t-25.5 45.5t-40 30.5t-52.5 11t-51 -11t-36.5 -30.5t-22 -45.5t-7.5 -55q0 -17 3 -28.5t6 -21.5l6 -20t3 -23
q0 -36 -23.5 -63t-65.5 -27q-18 0 -34 7.5t-28 19.5t-19 28.5t-7 34.5q0 13 3 23l6 20t6 21.5t3 28.5q0 29 -7.5 55t-22 45.5t-36.5 30.5t-51 11t-53 -11t-40.5 -30.5t-25.5 -45.5t-9 -55t7.5 -55t22.5 -45.5t36.5 -31t50.5 -11.5q8 0 15 2t12 4l17 -36q-7 -5 -19 -7.5
t-25 -2.5q-36 0 -65 14t-49.5 39t-31 58.5t-10.5 71.5t12 71.5t33.5 58t52.5 39t69 14.5q52 0 91 -30q17 14 39 22t57 8q66 0 96 -30q20 14 42.5 22t49.5 8q37 0 68 -14.5t52.5 -39t33.5 -58t12 -71.5zM-342 -146q-14 9 -30 15t-38 6q-21 0 -37 -6t-30 -15q36 -50 36 -121
q0 -9 -3 -22.5l-6 -27t-6 -25.5t-3 -18q0 -26 14 -38t35 -12q15 0 32.5 12t17.5 38q0 23 -9 48t-9 45q0 71 36 121z" />
    <glyph glyph-name="u100F_u100B" horiz-adv-x="1032" 
d="M774 -450v117q-23 -6 -45 -9t-48 -3q-31 0 -61 6t-54 21t-38.5 40t-14.5 63q0 36 13.5 60.5t37 39.5t54 21.5t63.5 6.5q32 0 67 -7t71 -19l-8 -40q-30 11 -62.5 18t-67.5 7q-25 0 -47.5 -4.5t-40 -15t-27.5 -27t-10 -41.5q0 -24 9.5 -41t26.5 -27.5t39.5 -15.5t49.5 -5
q35 0 71.5 6.5t60.5 13.5v-125h66v-40h-105zM976 222q0 -49 -13.5 -92t-39.5 -75.5t-63.5 -51t-85.5 -18.5q-14 0 -29.5 3.5t-26.5 11.5l21 45q16 -9 35 -9q37 0 65.5 14.5t47.5 40t28.5 59.5t9.5 72t-12 72t-34 59.5t-52.5 40t-67.5 14.5q-38 0 -66 -14.5t-47 -40
t-28 -59.5t-9 -72q0 -22 3.5 -37.5t7.5 -28t7.5 -25.5t3.5 -31q0 -24 -8 -44.5t-22.5 -36.5t-36 -25t-48.5 -9q-25 0 -46 9t-36.5 25t-24.5 36.5t-9 44.5q0 18 3.5 31t8 25.5t8.5 28t4 37.5q0 38 -9.5 72t-28.5 59.5t-47.5 40t-65.5 14.5t-68 -14.5t-53 -40t-34 -59.5
t-12 -72t9.5 -72t28.5 -59.5t47.5 -40t66.5 -14.5q14 0 22 2t15 7l18 -45q-11 -8 -26 -11.5t-29 -3.5q-48 0 -85.5 18.5t-64 51t-40 75.5t-13.5 92q0 48 16 91.5t44.5 75.5t69 51t88.5 19q35 0 65 -10.5t53 -28.5q20 19 49 29t76 10q45 0 74.5 -10t49.5 -29q25 18 54.5 28.5
t64.5 10.5q48 0 87.5 -19t68.5 -51t45 -75.5t16 -91.5zM603 381q-17 11 -39 19t-48 8q-25 0 -47.5 -8t-39.5 -19q46 -67 46 -159q0 -12 -4 -29.5t-8.5 -35t-8 -33t-3.5 -24.5q0 -32 19.5 -48t45.5 -16q9 0 20 4t21 12t16.5 20t6.5 28q0 14 -3.5 30.5t-7.5 33l-7.5 31.5
t-3.5 27q0 45 11 85.5t34 73.5z" />
    <glyph glyph-name="u100F_u100D" horiz-adv-x="1032" 
d="M628 -171q20 -47 20 -110q0 -46 -14 -88t-39 -81h-162l-19 33q41 23 63 59t22 77q0 30 -11.5 56t-31 45.5t-45.5 31t-56 11.5t-55.5 -11.5t-45 -31t-30.5 -45.5t-11 -56q0 -41 22 -77t63 -59l-19 -33q-27 10 -46.5 28.5t-32.5 41.5t-19.5 48.5t-6.5 50.5q0 38 14 71.5
t39 58t57.5 39t70.5 14.5t71.5 -14.5t58 -39t39 -58t14.5 -71.5q0 -35 -11.5 -69t-37.5 -61h84q17 30 26.5 62.5t9.5 67.5q0 41 -10.5 76t-33.5 73h269v55h39v-94h-245zM976 222q0 -49 -13.5 -92t-39.5 -75.5t-63.5 -51t-85.5 -18.5q-14 0 -29.5 3.5t-26.5 11.5l21 45
q16 -9 35 -9q37 0 65.5 14.5t47.5 40t28.5 59.5t9.5 72t-12 72t-34 59.5t-52.5 40t-67.5 14.5q-38 0 -66 -14.5t-47 -40t-28 -59.5t-9 -72q0 -22 3.5 -37.5t7.5 -28t7.5 -25.5t3.5 -31q0 -24 -8 -44.5t-22.5 -36.5t-36 -25t-48.5 -9q-25 0 -46 9t-36.5 25t-24.5 36.5
t-9 44.5q0 18 3.5 31t8 25.5t8.5 28t4 37.5q0 38 -9.5 72t-28.5 59.5t-47.5 40t-65.5 14.5t-68 -14.5t-53 -40t-34 -59.5t-12 -72t9.5 -72t28.5 -59.5t47.5 -40t66.5 -14.5q14 0 22 2t15 7l18 -45q-11 -8 -26 -11.5t-29 -3.5q-48 0 -85.5 18.5t-64 51t-40 75.5t-13.5 92
q0 48 16 91.5t44.5 75.5t69 51t88.5 19q35 0 65 -10.5t53 -28.5q20 19 49 29t76 10q45 0 74.5 -10t49.5 -29q25 18 54.5 28.5t64.5 10.5q48 0 87.5 -19t68.5 -51t45 -75.5t16 -91.5zM603 381q-17 11 -39 19t-48 8q-25 0 -47.5 -8t-39.5 -19q46 -67 46 -159q0 -12 -4 -29.5
t-8.5 -35t-8 -33t-3.5 -24.5q0 -32 19.5 -48t45.5 -16q9 0 20 4t21 12t16.5 20t6.5 28q0 14 -3.5 30.5t-7.5 33l-7.5 31.5t-3.5 27q0 45 11 85.5t34 73.5z" />
    <glyph glyph-name="u1010" unicode="&#x1010;" horiz-adv-x="997" 
d="M942 222q0 -49 -18.5 -92t-50.5 -75.5t-74.5 -51t-89.5 -18.5q-18 0 -35.5 3.5t-34.5 11.5l21 46q23 -10 49 -10q38 0 71 14.5t58 40t39 59.5t14 72t-14 72t-39 59.5t-58 40t-71 14.5q-46 0 -81.5 -23.5t-59.5 -55.5t-36 -66t-12 -55q0 -32 -15 -70.5t-44.5 -72.5
t-72.5 -57t-99 -23q-50 0 -92.5 18.5t-74 51t-49.5 75.5t-18 92q0 48 18 91.5t49.5 75.5t73.5 51t90 19q36 0 69 -10.5t61 -29.5t49.5 -45.5t35.5 -57.5q16 30 38.5 56t49.5 45.5t57.5 30.5t62.5 11q47 0 89.5 -19t74.5 -51t50.5 -75.5t18.5 -91.5zM469 217q0 39 -13.5 73.5
t-37.5 61t-57 41.5t-72 15q-38 0 -71.5 -14.5t-58.5 -40t-39 -59.5t-14 -72t14 -72t38.5 -59.5t57.5 -40t70 -14.5q40 0 74 15.5t58 41t37.5 58t13.5 66.5z" />
    <glyph glyph-name="u1010.med" 
d="M-40 -267q0 -38 -14 -71.5t-38.5 -58.5t-57 -39t-69.5 -14q-14 0 -28.5 2.5t-26.5 9.5l16 36q9 -6 19.5 -7t19.5 -1q29 0 54.5 11.5t44.5 31t30 45.5t11 55t-11 55t-30 45.5t-44.5 30.5t-54.5 11q-34 0 -61 -17.5t-45.5 -41.5t-28.5 -50t-10 -43q0 -19 -10.5 -48.5
t-33 -57t-56.5 -47.5t-80 -20q-37 0 -69.5 14t-57 39t-38.5 58.5t-14 71.5t14 71.5t38.5 58t57 39t69.5 14.5q55 0 99 -30.5t66 -79.5q26 47 68 78.5t92 31.5q37 0 69.5 -14.5t57 -39t38.5 -58t14 -71.5zM-405 -270q0 30 -10 56t-28.5 46t-44 31.5t-56.5 11.5
q-29 0 -54.5 -11t-44.5 -30.5t-30 -45.5t-11 -55t11 -55t30 -45.5t44.5 -31t54.5 -11.5q31 0 57 12t44 32t28 45t10 51z" />
    <glyph glyph-name="u1010_u103D.med" 
d="M-66 -363q0 -18 -6.5 -33.5t-18 -27.5t-27 -19t-33.5 -7q-38 0 -62.5 26t-24.5 62q0 18 6.5 34.5t18 28.5t27.5 19.5t35 7.5q39 0 62 -27.5t23 -63.5zM-94 -363q0 12 -5 23t-13 20t-18.5 14.5t-20.5 5.5q-23 0 -41 -18t-18 -44t17.5 -43t41.5 -17q23 0 40 18t17 41z
M-55 -153q0 -20 -7.5 -37.5t-20.5 -31t-30.5 -21.5t-37.5 -8q-19 0 -29 5l12 29q5 -2 8.5 -2h8.5q26 0 44.5 20t18.5 46t-18.5 47.5t-44.5 21.5q-13 0 -24.5 -6.5t-20 -16.5t-13.5 -22t-5 -23q0 -20 -7 -37.5t-20 -30.5t-31 -21t-40 -8q-41 0 -69 29t-28 70q0 19 7.5 37
t20.5 32t31 22t38 8q26 0 46.5 -12.5t34.5 -34.5q28 45 80 45q21 0 38.5 -8.5t30 -22t20 -32t7.5 -37.5zM-244 -152q0 13 -5.5 25.5t-15 22t-22 15.5t-25.5 6q-26 0 -45 -20.5t-19 -46.5q0 -13 5 -25.5t14 -22t20.5 -15t24.5 -5.5t25.5 5.5t22 14.5t15 21t5.5 25z" />
    <glyph glyph-name="u1011" unicode="&#x1011;" horiz-adv-x="990" 
d="M934 222q0 -49 -18.5 -92t-50 -75.5t-74 -51t-89.5 -18.5q-68 0 -123.5 35.5t-83.5 93.5q-31 -58 -84.5 -93.5t-121.5 -35.5q-50 0 -92.5 18.5t-74 51t-49.5 75.5t-18 92q0 48 18 91.5t49.5 75.5t73.5 51t90 19q69 0 123.5 -36t85.5 -93q28 57 83.5 93t123.5 36
q47 0 89.5 -19t74 -51t50 -75.5t18.5 -91.5zM883 222q0 38 -14 72t-39 59.5t-58 40t-70 14.5q-38 0 -71 -14.5t-58 -40t-39 -59.5t-14 -72t14 -72t39 -59.5t58 -40t71 -14.5q37 0 70 14.5t58 40t39 59.5t14 72zM469 222q0 38 -14 72t-38.5 59.5t-57.5 40t-70 14.5
q-38 0 -71.5 -14.5t-58.5 -40t-39 -59.5t-14 -72t14 -72t38.5 -59.5t57.5 -40t70 -14.5q38 0 71.5 14.5t58 40t39 59.5t14.5 72z" />
    <glyph glyph-name="u1011.med" 
d="M-56 -267q0 -38 -14.5 -71.5t-39 -58.5t-57 -39t-69.5 -14q-53 0 -94.5 28t-64.5 72q-23 -44 -64 -72t-95 -28q-37 0 -70 14t-57.5 39t-38.5 58.5t-14 71.5t14 71.5t38.5 58t57.5 39t70 14.5q54 0 95 -28t64 -73q23 45 64.5 73t94.5 28q37 0 69.5 -14.5t57 -39t39 -58
t14.5 -71.5zM-101 -267q0 29 -11 55t-29.5 45.5t-44 30.5t-54.5 11t-54.5 -11t-44.5 -30.5t-30 -45.5t-11 -55t11 -55t30 -45.5t44.5 -31t54.5 -11.5t54.5 11.5t44 31t29.5 45.5t11 55zM-414 -267q0 29 -11 55t-30 45.5t-44.5 30.5t-54.5 11t-55 -11t-45 -30.5t-30 -45.5
t-11 -55t11 -55t30 -45.5t45 -31t55 -11.5t54.5 11.5t44.5 31t30 45.5t11 55z" />
    <glyph glyph-name="u1012" unicode="&#x1012;" horiz-adv-x="534" 
d="M478 123q0 -29 -12 -54t-38 -44t-66 -29.5t-95 -10.5q-104 0 -158 36.5t-54 93.5l47 18q0 -51 44 -73.5t121 -23.5q29 0 58 4.5t51.5 14.5t36.5 26.5t14 41.5q0 22 -15.5 35.5t-37.5 21.5t-46 11t-42 5v51q18 2 42 5.5t46 11.5t37.5 21.5t15.5 35.5q0 25 -14 41.5
t-36.5 26.5t-51.5 14.5t-58 4.5q-77 0 -121 -23.5t-44 -74.5l-47 18q0 58 54 94.5t158 36.5q55 0 95 -11t66 -29.5t38 -44t12 -53.5q0 -35 -22 -63t-62 -36q40 -8 62 -36t22 -63z" />
    <glyph glyph-name="u1012.med" 
d="M-62 -344q0 -44 -39 -75t-124 -31q-81 0 -122.5 28t-41.5 72l36 15q0 -39 34 -57t94 -19q22 0 44.5 3t40 11t28.5 20.5t11 32.5q0 16 -12.5 26.5t-29.5 17t-35.5 9t-31.5 4.5v39q13 0 31.5 3t35.5 9.5t29.5 17.5t12.5 27q0 20 -11 33t-28.5 21t-40 11t-44.5 3
q-60 0 -94 -18.5t-34 -58.5l-36 15q0 45 41.5 73t122.5 28q86 0 124.5 -31t38.5 -76q0 -27 -17.5 -49t-48.5 -27q31 -5 48.5 -27.5t17.5 -49.5z" />
    <glyph glyph-name="u1013" unicode="&#x1013;" horiz-adv-x="576" 
d="M520 222q0 -49 -18 -92t-49.5 -75.5t-73.5 -51t-90 -18.5q-50 0 -92.5 18.5t-74 51t-49.5 75.5t-18 92q0 48 18 91.5t49.5 75.5t73.5 51t90 19q49 0 92 -19t74.5 -51t49.5 -75.5t18 -91.5zM469 222q0 38 -14 71.5t-38.5 59t-57.5 40.5t-70 15q-38 0 -71.5 -15
t-58.5 -40.5t-39 -59t-14 -71.5q0 -36 14 -69q39 39 83 54t83 15q42 0 86.5 -15t83.5 -54q13 32 13 69zM430 108q-39 39 -77 51t-64 12q-25 0 -63.5 -13t-80.5 -52q26 -33 62.5 -51.5t78.5 -18.5q45 0 82 19.5t62 52.5z" />
    <glyph glyph-name="u1013.med" 
d="M-56 -267q0 -38 -14 -71.5t-38.5 -58.5t-57 -39t-68.5 -14q-37 0 -69.5 14t-57 39t-38.5 58.5t-14 71.5t14 71.5t38.5 58t57 39t69.5 14.5q36 0 68.5 -14.5t57 -39t38.5 -58t14 -71.5zM-95 -267q0 29 -11 55t-30 45.5t-44.5 30.5t-53.5 11q-29 0 -54.5 -11t-44.5 -30.5
t-30 -45.5t-11 -55q0 -13 2.5 -25.5t8.5 -27.5q30 31 63.5 42.5t65.5 11.5t66 -11.5t64 -42.5q9 25 9 53zM-122 -351q-30 30 -60.5 40.5t-51.5 10.5q-22 0 -50.5 -10.5t-60.5 -40.5q19 -26 45 -42.5t66 -16.5q39 0 66 16.5t46 42.5z" />
    <glyph glyph-name="u1014" unicode="&#x1014;" horiz-adv-x="530" 
d="M475 145q0 -68 -37.5 -103.5t-107.5 -49.5v-442h-51v435h-41q-36 0 -69 4.5t-58.5 17t-40.5 34.5t-15 56q0 19 9.5 37.5t26.5 32.5t40.5 22.5t52.5 8.5q63 0 100 -46q36 -45 44 -110q19 3 36.5 10t31 19t21 30t7.5 44q0 31 -20.5 50.5t-52 33.5t-67.5 25.5t-67.5 25.5
t-52 33.5t-20.5 49.5q0 25 12.5 43t31 30t41.5 17.5t44 5.5q31 0 59 -8.5t53 -29.5l-33 -39q-7 6 -29 16t-50 10q-13 0 -26.5 -2t-25 -7.5t-19 -14t-7.5 -20.5q0 -17 20.5 -28t52 -21.5l67.5 -23t67.5 -31.5t52 -46.5t20.5 -68.5zM277 36q-3 21 -11 41t-20 35.5t-27.5 25
t-34.5 9.5q-31 0 -54.5 -13.5t-23.5 -36.5q0 -21 12.5 -33t32 -18.5t42.5 -8t45 -1.5h39z" />
    <glyph glyph-name="u1014.alt" horiz-adv-x="529" 
d="M468 -62q-10 11 -29.5 30.5t-45.5 41.5q-34 -16 -75.5 -20.5t-80.5 -4.5q-36 0 -69 4.5t-57.5 17t-39.5 34.5t-15 56q0 19 9 37.5t25.5 32.5t40 22.5t52.5 8.5q26 0 53.5 -10.5t55.5 -27.5t55.5 -38.5l53.5 -43.5q10 12 16 28.5t6 38.5q0 31 -21 50.5t-52 33.5t-67.5 25
t-67.5 25t-52 33.5t-21 50.5q0 25 12.5 43t31.5 30t42 17.5t44 5.5q31 0 59 -8.5t53 -29.5l-33 -39q-9 6 -31 16t-48 10q-12 0 -26 -2t-25.5 -7.5t-19.5 -14t-8 -21.5q0 -16 21 -27t52 -21.5l67.5 -23t67.5 -31.5t52 -46.5t21 -68.5q0 -34 -10.5 -60t-25.5 -43l41.5 -41
t24.5 -27zM353 48q-12 11 -32.5 28t-44 32.5t-48 27t-45.5 11.5q-33 0 -54.5 -13.5t-21.5 -36.5q0 -21 12.5 -33t31.5 -18.5t42 -8t44 -1.5q29 0 59 1.5t57 10.5z" />
    <glyph glyph-name="u1014.med" 
d="M-49 -498q-8 9 -26 27.5l-42 41.5q-26 -12 -57.5 -16.5t-62.5 -4.5q-27 0 -52.5 4t-45 13.5t-31.5 26t-12 41.5q0 31 26.5 54.5t72.5 23.5q20 0 41 -8t42.5 -21t42.5 -29.5t41 -34.5q18 21 18 53q0 23 -16 38t-40 25.5t-52 19.5t-52 19.5t-40 26t-16 39.5q0 19 9.5 33
t24 23t32 13t33.5 4q26 0 46.5 -5.5t40.5 -22.5l-26 -30q-5 5 -22.5 12t-38.5 7q-8 0 -18 -2t-19.5 -6t-16 -10.5t-6.5 -15.5q0 -12 16 -20t40 -16.5l52 -18t52 -24.5t40 -36.5t16 -52.5q0 -50 -29 -78q23 -22 39 -39.5t24 -25.5zM-148 -401q-35 31 -70 53t-61 22t-43 -11
t-17 -28q0 -16 9.5 -25t24.5 -13.5t33 -6t35 -1.5q20 0 40 1t49 9z" />
    <glyph glyph-name="u1014_u1010_u103B" horiz-adv-x="909" 
d="M654 -398q-52 -52 -125 -52q-31 0 -55 12l16 36q18 -9 39 -9q29 0 54.5 11.5t44.5 31t30 45.5t11 56q0 29 -11 55t-30 46t-44.5 31.5t-54.5 11.5q-35 0 -61.5 -18.5t-45.5 -43.5t-28.5 -51t-9.5 -42q0 -25 -12 -55t-34.5 -56t-56.5 -43.5t-77 -17.5q-36 0 -68.5 14
t-57 39t-39 58t-14.5 72q0 38 14.5 71.5t39 58t57 39t68.5 14.5q54 0 99 -31t66 -79q25 48 68 79t92 31q37 0 69.5 -14.5t57 -39t38.5 -58t14 -71.5q0 -47 -21 -86l115 -31v828h51v-894zM343 -270q0 29 -10 55.5t-28.5 47t-44 32.5t-56.5 12q-29 0 -54.5 -11.5t-44.5 -31.5
t-30 -46t-11 -55q0 -30 11 -56t30 -45.5t44.5 -31t54.5 -11.5q31 0 56.5 12t44 32t28.5 45.5t10 51.5zM550 -47q-10 11 -22 23t-38 34q-34 -16 -75.5 -20.5t-80.5 -4.5q-36 0 -69 4.5t-57.5 17t-39.5 34.5t-15 56q0 19 9 37.5t25.5 32.5t40 22.5t52.5 8.5q26 0 53.5 -10.5
t55.5 -27.5t55.5 -38.5l53.5 -43.5q10 12 16 28.5t6 38.5q0 31 -20.5 51t-52 34t-67.5 25t-67.5 24.5t-52 33t-20.5 50.5q0 25 12.5 43t31 30t41.5 17.5t44 5.5q31 0 59 -8.5t53 -29.5l-33 -39q-7 6 -29 16t-50 10q-12 0 -26 -2.5t-25.5 -7.5t-19 -14t-7.5 -21
q0 -16 20.5 -27t52 -21.5l67.5 -23t67.5 -31.5t52 -46.5t20.5 -68.5q0 -65 -36 -103q24 -23 33 -32.5l18 -18.5zM450 48q-13 12 -34 28.5t-44.5 32.5t-47.5 27t-44 11q-33 0 -54.5 -13.5t-21.5 -36.5q0 -21 12.5 -33t31.5 -18.5t42 -8t44 -1.5q29 0 59 1.5t57 10.5z" />
    <glyph glyph-name="u1014_u1010_u103C" horiz-adv-x="753" 
d="M697 -185q0 -21 -2 -45.5t-9 -50.5t-20 -51.5t-35 -48.5q-43 -45 -95 -57t-104 -12h-96q-54 0 -104.5 12t-95.5 57q-22 22 -35 48t-20 52t-9 50.5t-2 45.5v875q0 19 2.5 44.5t9.5 52t20 52.5t34 47q44 44 95.5 56.5t104.5 12.5h96q52 0 103.5 -13t95.5 -57
q35 -36 50.5 -76.5t15.5 -66.5h-51q0 9 -3.5 21.5t-10 27.5t-17 31t-23.5 30q-18 18 -40 28.5t-46 16t-48.5 6.5t-46.5 1h-54q-25 0 -50 -1.5t-48.5 -7t-45 -16t-38.5 -27.5q-19 -19 -30 -42.5t-16 -47.5t-6.5 -47t-1.5 -42v-840q0 -18 1.5 -41t7 -47.5t16.5 -48t30 -42.5
q17 -18 37.5 -28.5t43 -16t46 -7t46.5 -1.5h60q21 0 45 1t48 5.5t47 15t43 30.5q19 19 30 43t16 48.5t6.5 47.5t1.5 41v72h51v-90zM604 -213q0 -24 -9 -46t-25.5 -39t-38.5 -27t-47 -10q-23 0 -42 9l15 33q14 -7 27 -7q18 0 33.5 7t27 19t18.5 27.5t7 33.5q0 17 -7 32.5
t-18.5 27.5t-27 19.5t-33.5 7.5q-15 0 -29.5 -7.5t-26 -19.5t-20 -28t-11.5 -34q0 -24 -9 -45.5t-25 -38t-37.5 -26.5t-46.5 -10q-24 0 -46 9.5t-38.5 26t-26 39t-9.5 47.5q0 24 9 46t25 38.5t38 26.5t48 10q34 0 62 -17t43 -44q16 27 43 44t57 17q24 0 46 -9.5t38.5 -25.5
t26 -38.5t9.5 -47.5zM363 -212q0 18 -7 33.5t-18.5 27t-26.5 18.5t-32 7q-18 0 -33.5 -7.5t-27 -19.5t-18.5 -27.5t-7 -32.5q0 -18 7 -33.5t18.5 -27.5t27 -19t33.5 -7q19 0 35 7.5t26.5 20t16.5 28t6 32.5zM592 -62q-10 11 -29.5 30.5t-45.5 41.5q-34 -16 -75.5 -20.5
t-80.5 -4.5q-36 0 -69 4.5t-57.5 17t-39.5 34.5t-15 56q0 19 9 37.5t25.5 32.5t40 22.5t52.5 8.5q26 0 53.5 -10.5t55.5 -27.5t55.5 -38.5l53.5 -43.5q10 12 16 28.5t6 38.5q0 31 -20.5 51t-52 34t-67.5 25t-67.5 24.5t-52 33t-20.5 50.5q0 25 12.5 43t31 30t41.5 17.5
t44 5.5q31 0 59 -8.5t53 -29.5l-33 -39q-7 6 -29 16t-50 10q-9 0 -22.5 -2.5t-25.5 -7.5t-21 -14t-9 -21q0 -16 20.5 -27t52 -21.5l67.5 -23t67.5 -31.5t52 -46.5t20.5 -68.5q0 -65 -36 -103l41.5 -41t24.5 -27zM477 48q-12 11 -32.5 28t-44 32.5t-48 27t-45.5 11.5
q-33 0 -54.5 -13.5t-21.5 -36.5q0 -21 12.5 -33t31.5 -18.5t42 -8t44 -1.5q29 0 59 1.5t57 10.5z" />
    <glyph glyph-name="u1015" unicode="&#x1015;" horiz-adv-x="584" 
d="M529 240q0 -57 -18.5 -104t-51 -80.5t-75.5 -52t-92 -18.5t-92 18.5t-75.5 52t-51 80.5t-18.5 104q0 41 7.5 73.5t20.5 58.5t31 47t39 38l30 -43q-35 -32 -56 -74.5t-21 -99.5q0 -45 14.5 -82.5t40 -64.5t59.5 -42t72 -15t72 15t59.5 42t40 64.5t14.5 82.5
q0 57 -20.5 99.5t-55.5 74.5l30 43q44 -35 70.5 -85t26.5 -132z" />
    <glyph glyph-name="u1015.med" 
d="M-56 -254q0 -44 -14.5 -80t-39 -62t-58 -40t-71.5 -14t-71.5 14t-58.5 40t-39 62t-14 80q0 63 21.5 102t53.5 66l24 -34q-26 -24 -43 -56.5t-17 -77.5q0 -35 11.5 -64t31 -49.5t45.5 -32t56 -11.5q29 0 55 11.5t45.5 32t31 49.5t11.5 64q0 45 -16 77.5t-43 56.5l24 34
q33 -27 54 -66t21 -102z" />
    <glyph glyph-name="u1016" unicode="&#x1016;" horiz-adv-x="585" 
d="M529 240q0 -58 -18.5 -105t-51 -80.5t-75.5 -51.5t-92 -18t-92 18t-75.5 51.5t-51 80.5t-18.5 105q0 82 28 132.5t70 84.5l30 -43q-35 -32 -56 -74.5t-21 -99.5q0 -45 14.5 -82.5t40 -64.5t59.5 -42t72 -15q67 0 114 40q-43 36 -65 79t-22 106q0 21 3.5 44.5t13 48.5
t26 51t43.5 52q20 -17 42 -38t40 -47t30 -59t12 -73zM478 240q0 43 -21 76t-49 62q-23 -35 -30.5 -65.5t-7.5 -53.5q0 -88 72 -142q36 50 36 123z" />
    <glyph glyph-name="u1016.med" 
d="M-56 -254q0 -44 -14.5 -80t-39 -62t-58 -40t-71.5 -14t-71.5 14t-58.5 40t-39 62t-14 80q0 63 21.5 102t53.5 66l24 -34q-26 -24 -43 -56.5t-17 -77.5q0 -35 11.5 -64t31 -49.5t45.5 -32t56 -11.5q49 0 86 28q-35 29 -50 62.5t-15 81.5q0 34 12.5 73t53.5 80
q17 -14 34 -30.5t31 -36.5t22.5 -45t8.5 -56zM-96 -254q0 33 -18 61.5t-39 49.5q-17 -27 -23.5 -52.5t-6.5 -43.5q0 -35 14.5 -65t40.5 -52q13 19 22.5 40t9.5 62z" />
    <glyph glyph-name="u1017" unicode="&#x1017;" horiz-adv-x="585" 
d="M529 222q0 -49 -19 -92t-51 -75.5t-75.5 -51t-91.5 -18.5t-91 18.5t-75.5 51t-51.5 75.5t-19 92q0 37 5.5 73t17 67t29 55.5t41.5 39.5q12 -23 25 -43.5t29.5 -36.5t38 -25.5t51.5 -9.5t52 9.5t38.5 25.5t29 36.5t24.5 43.5q23 -15 40.5 -39.5t29 -55.5t17.5 -67t6 -73z
M478 222q0 48 -8.5 82t-30.5 66q-23 -36 -59.5 -57.5t-87.5 -21.5t-87 21.5t-60 57.5q-23 -32 -31 -66t-8 -82q0 -38 15 -72t40.5 -59.5t59 -40t71.5 -14.5q37 0 71 14.5t59.5 40t40.5 59.5t15 72z" />
    <glyph glyph-name="u1017.med" 
d="M-56 -267q0 -38 -15 -71.5t-40 -58.5t-58 -39t-70 -14q-38 0 -71 14t-58 39t-39.5 58.5t-14.5 71.5q0 60 18 109t54 72l20 -33.5t22.5 -29t29 -20t39.5 -7.5t40 7.5t29.5 20t22.5 29t19 33.5q36 -23 54 -72t18 -109zM-96 -267q0 39 -7 63.5t-25 50.5q-17 -29 -44 -45.5
t-67 -16.5q-39 0 -67 16.5t-45 45.5q-17 -24 -23.5 -49.5t-6.5 -64.5q0 -29 11 -55.5t30.5 -46t45.5 -31t55 -11.5t55 11.5t45.5 31t31 46t11.5 55.5z" />
    <glyph glyph-name="u1018" unicode="&#x1018;" horiz-adv-x="986" 
d="M931 222q0 -49 -18.5 -92t-50 -75.5t-74 -51t-89.5 -18.5q-40 0 -71 15l20 46q21 -10 51 -10q37 0 70 14.5t58 40t39 59t14 72.5q0 38 -14 71.5t-39 59t-58 40.5t-70 15q-36 0 -70 -20t-60 -50.5t-42 -68.5t-16 -74q0 -27 -15 -63t-44.5 -69t-73.5 -55.5t-102 -22.5
q-35 0 -69 9t-63.5 26.5t-52.5 43t-36 57.5l45 26q27 -54 74.5 -82.5t101.5 -28.5q41 0 75 15t59 40.5t38.5 58t13.5 67.5q0 39 -14.5 73.5t-39.5 61t-59 41.5t-73 15q-54 0 -101.5 -29.5t-74.5 -81.5l-45 25q15 33 38.5 58.5t52.5 43t62 26.5t68 9q73 0 131 -39t86 -102
q15 30 37 55.5t48 44.5t57 30t64 11q47 0 89.5 -19t74 -51t50 -75.5t18.5 -91.5z" />
    <glyph glyph-name="u1018.med" 
d="M-56 -267q0 -38 -14 -71.5t-38.5 -58.5t-57.5 -39t-70 -14q-14 0 -27 2.5t-27 9.5l17 36q9 -6 18 -7t19 -1q29 0 55 11.5t45 31t30 45.5t11 55t-11 55t-30 45.5t-45 30.5t-55 11q-27 0 -53 -15t-46.5 -38.5t-32.5 -52t-12 -56.5q0 -21 -11.5 -49.5t-34 -53.5t-56 -42.5
t-78.5 -17.5q-25 0 -51 7t-49 20t-41.5 32.5t-29.5 45.5l35 21q21 -42 57.5 -64t78.5 -22q31 0 57.5 11.5t45.5 31t29.5 45t10.5 52.5q0 30 -10.5 56t-29.5 46t-45.5 31.5t-57.5 11.5q-42 0 -78.5 -21.5t-57.5 -63.5l-35 21q11 25 29.5 44.5t41.5 33t48.5 20.5t51.5 7
q58 0 101.5 -30.5t65.5 -79.5q26 48 66 79t91 31q37 0 70 -14.5t57.5 -39t38.5 -58t14 -71.5z" />
    <glyph glyph-name="u1019" unicode="&#x1019;" horiz-adv-x="585" 
d="M529 240q0 -58 -18.5 -105t-51 -80.5t-75.5 -51.5t-92 -18t-92 18t-75.5 51.5t-51 80.5t-18.5 105q0 82 28 132.5t70 84.5l30 -43q-35 -32 -56 -74.5t-21 -99.5q0 -43 17 -89q40 39 84.5 55t84.5 16q42 0 86.5 -15t83.5 -54q16 41 16 87q0 57 -21 99.5t-55 74.5l30 43
q43 -34 70 -84.5t27 -132.5zM436 106q-40 39 -79 52t-65 13q-12 0 -28.5 -3t-35.5 -10.5t-39 -20t-39 -32.5q25 -33 62 -51t80 -18q90 0 144 70z" />
    <glyph glyph-name="u1019.med" 
d="M-56 -254q0 -44 -14.5 -80t-39 -62t-58 -40t-71.5 -14t-71.5 14t-58.5 40t-39 62t-14 80q0 63 21.5 102t53.5 66l24 -34q-26 -24 -43 -56.5t-17 -77.5q0 -18 4 -35.5t10 -31.5q30 30 64 42t66 12t66 -12t65 -42q5 16 9 32.5t4 34.5q0 45 -16.5 77.5t-43.5 56.5l24 34
q33 -27 54 -66t21 -102zM-126 -351q-31 30 -61 39.5t-52 9.5q-21 0 -50.5 -9.5t-61.5 -39.5q19 -26 46 -43t66 -17q71 0 113 60z" />
    <glyph glyph-name="u101A" unicode="&#x101a;" horiz-adv-x="994" 
d="M939 222q0 -49 -18.5 -92t-50.5 -75.5t-74.5 -51t-89.5 -18.5q-32 0 -61.5 11t-55 30.5t-46.5 45t-36 55.5q-29 -66 -86 -104t-129 -38q-49 0 -92 18.5t-75.5 52t-51 80.5t-18.5 104q0 41 7.5 73.5t20.5 58.5t31 47t39 38l30 -43q-35 -32 -56 -74.5t-21 -99.5
q0 -45 14.5 -82.5t40 -64.5t59.5 -42t72 -15t72 15t59.5 42t40 64.5t14.5 82.5q0 57 -20.5 99.5t-55.5 74.5l30 43q53 -44 75 -95.5t22 -114.5q0 -38 14 -76t38.5 -68t56.5 -48.5t68 -18.5q38 0 71 14.5t58 40t39 59.5t14 72t-14 72t-39 59.5t-58 40t-71 14.5
q-12 0 -25 -2.5t-26 -8.5l-19 47q33 15 70 15q47 0 89.5 -19t74.5 -51t50.5 -75.5t18.5 -91.5z" />
    <glyph glyph-name="u101A.med" 
d="M-55 -269q0 -38 -14.5 -71t-39 -57.5t-57 -38.5t-69.5 -14q-51 0 -92.5 31t-64.5 80q-22 -54 -66 -82.5t-101 -28.5q-38 0 -71.5 14.5t-58.5 40.5t-39 62t-14 79q0 65 21 103.5t54 64.5l24 -33q-26 -26 -43 -58t-17 -77q0 -36 11.5 -65t31 -49.5t45.5 -31.5t56 -11
q29 0 55 11t45.5 31.5t31 49.5t11.5 65q0 45 -16 77t-43 58l24 33q16 -13 29.5 -28t23.5 -34t16 -43t6 -55q0 -30 11.5 -59.5t30.5 -53t44.5 -38t54.5 -14.5t54.5 11t45 30.5t30.5 45.5t11 55t-11 55t-30.5 45.5t-45 31t-54.5 11.5q-9 0 -18.5 -1.5t-18.5 -6.5l-17 36
q13 7 26.5 9.5t27.5 2.5q37 0 69.5 -14.5t57 -39t39 -58t14.5 -71.5z" />
    <glyph glyph-name="u101B" unicode="&#x101b;" horiz-adv-x="588" 
d="M481 -450v652q0 46 -15 84t-41 65t-60.5 42t-72.5 15q-37 0 -70 -14.5t-58 -39.5t-40.5 -57t-17.5 -68q35 5 74 1.5t72 -20.5q32 -15 54 -35.5t38.5 -45.5t28.5 -55.5t24 -66.5q-6 -3 -17.5 -7t-26.5 -7.5t-31 -5.5t-30 -2q-49 0 -92 18.5t-75.5 51t-51 75.5t-18.5 92
q0 48 18.5 90.5t51 75t75.5 51t92 18.5t93 -18t76.5 -51.5t51.5 -80.5t19 -105v-601h83v-51h-134zM333 40q-15 44 -37.5 74.5t-66.5 50.5q-29 14 -58.5 15.5t-58.5 -3.5q7 -30 24 -56t40.5 -44.5t53 -29.5t62.5 -11q22 0 41 4z" />
    <glyph glyph-name="u101B.alt" horiz-adv-x="588" 
d="M481 -285v487q0 46 -15 84t-41 65t-60.5 42t-72.5 15q-37 0 -70 -14.5t-58 -39.5t-40.5 -57t-17.5 -68q35 5 74 1.5t72 -20.5q32 -15 54 -35.5t38.5 -45.5t28.5 -55.5t24 -66.5q-6 -3 -17.5 -7t-26.5 -7.5t-31 -5.5t-30 -2q-49 0 -92 18.5t-75.5 51t-51 75.5t-18.5 92
q0 48 18.5 90.5t51 75t75.5 51t92 18.5t93 -18t76.5 -51.5t51.5 -80.5t19 -105v-487h-51zM333 40q-15 44 -37.5 74.5t-66.5 50.5q-29 14 -58.5 15.5t-58.5 -3.5q7 -30 24 -56t40.5 -44.5t53 -29.5t62.5 -11q22 0 41 4z" />
    <glyph glyph-name="u101B.long" horiz-adv-x="588" 
d="M481 -450v652q0 46 -15 84t-41 65t-60.5 42t-72.5 15q-37 0 -70 -14.5t-58 -38.5t-40.5 -56t-17.5 -68q39 6 77.5 0t68.5 -21q34 -17 56.5 -37.5t38.5 -45.5t28 -54.5t24 -65.5q-48 -22 -107 -22q-49 0 -92 18.5t-75.5 51t-51 75.5t-18.5 92q0 48 18.5 90.5t51 75
t75.5 51t92 18.5t93 -18t76.5 -51.5t51.5 -80.5t19 -105v-652h-51zM333 39q-14 42 -37 74t-67 52q-30 14 -56.5 15.5t-60.5 -3.5q7 -30 24 -56t40.5 -44.5t53 -29.5t62.5 -11q12 0 21 0.5t20 2.5z" />
    <glyph glyph-name="u101B.med" 
d="M-95 -450v215q0 51 -34.5 82t-95.5 31q-29 0 -49 -9.5t-33.5 -23t-19.5 -28.5t-6 -26q45 4 80 -4.5t60.5 -27t41 -44.5t22.5 -57q-1 -1 -9 -4t-20 -6t-25.5 -5t-26.5 -2q-34 0 -63.5 7.5t-51.5 24.5t-35 44.5t-13 66.5q0 32 13.5 57t35 41.5t48 25t51.5 8.5q37 0 68 -10
t53.5 -29t35.5 -47t13 -65v-175h64v-40h-104zM-179 -316q-29 44 -64.5 59.5t-85.5 5.5q10 -20 21 -33.5t25 -21t31.5 -10.5t41.5 -3q8 0 15.5 0.5t15.5 2.5z" />
    <glyph glyph-name="u101B.kinzi" 
d="M-31 832q-11 15 -29.5 24t-47.5 9q-27 0 -45.5 -11.5t-30.5 -28t-17 -33.5t-5 -28q32 5 63 -4t55.5 -27.5t40 -43.5t15.5 -52q-17 -17 -36.5 -23t-45.5 -6q-23 0 -46 8.5t-42.5 27t-31.5 47t-12 67.5q0 28 10 54.5t28 46.5t43.5 32t56.5 12q39 0 65 -12.5t43 -34.5z
M-74 657q-12 25 -29 40.5t-35 22.5t-35.5 7.5t-30.5 -2.5q4 -15 12.5 -29t20.5 -25t26.5 -17.5t30.5 -6.5q8 0 18.5 1.5t21.5 8.5z" />
    <glyph glyph-name="u101B.kinzi_u102D" 
d="M0 720q0 -39 -14 -72t-38.5 -58t-57 -39t-69.5 -14t-69.5 14t-56.5 39t-38 58t-14 72q0 38 14 71.5t38 58t56.5 39t69.5 14.5t69.5 -14.5t57 -39t38.5 -58t14 -71.5zM-39 720q0 29 -11 55t-30 46t-44.5 31.5t-54.5 11.5t-54 -11.5t-44 -31.5t-30 -46t-11 -55
q0 -30 11 -56t30 -45.5t44 -31t54 -11.5t54.5 11.5t44.5 31t30 45.5t11 56zM-394 832q-11 15 -29.5 24t-47.5 9q-27 0 -45.5 -11.5t-30.5 -28t-17 -33.5t-5 -28q32 5 63 -4t55.5 -27.5t40 -43.5t15.5 -52q-17 -17 -36.5 -23t-45.5 -6q-23 0 -46 8.5t-42.5 27t-31.5 47
t-12 67.5q0 28 10 54.5t28 46.5t43.5 32t56.5 12q39 0 65 -12.5t43 -34.5zM-437 657q-12 25 -29 40.5t-35 22.5t-35.5 7.5t-30.5 -2.5q4 -15 12.5 -29t20.5 -25t26.5 -17.5t30.5 -6.5q8 0 18.5 1.5t21.5 8.5z" />
    <glyph glyph-name="u101B.kinzi_u102E" 
d="M0 720q0 -38 -14 -71.5t-38.5 -58.5t-57 -39t-69.5 -14q-36 0 -68.5 14t-57 39t-38.5 58.5t-14 71.5t14 71.5t38.5 58t57 39t68.5 14.5q37 0 69.5 -14.5t57 -39t38.5 -58t14 -71.5zM-39 720q0 29 -11 55.5t-30 46t-44.5 31t-54.5 11.5t-54 -11.5t-44 -31t-30 -46
t-11 -55.5q0 -26 10 -53q31 31 64 42.5t65 11.5t67 -11.5t64 -42.5q9 25 9 53zM-65 634q-14 16 -30.5 26t-32 16t-29 8.5t-22.5 2.5q-18 0 -49 -10.5t-62 -42.5q17 -23 48 -40.5t63 -17.5q35 0 65 15t49 43zM-394 832q-11 15 -29.5 24t-47.5 9q-27 0 -45.5 -11.5t-30.5 -28
t-17 -33.5t-5 -28q32 5 63 -4t55.5 -27.5t40 -43.5t15.5 -52q-17 -17 -36.5 -23t-45.5 -6q-23 0 -46 8.5t-42.5 27t-31.5 47t-12 67.5q0 28 10 54.5t28 46.5t43.5 32t56.5 12q39 0 65 -12.5t43 -34.5zM-437 657q-12 25 -29 40.5t-35 22.5t-35.5 7.5t-30.5 -2.5
q4 -15 12.5 -29t20.5 -25t26.5 -17.5t30.5 -6.5q8 0 18.5 1.5t21.5 8.5z" />
    <glyph glyph-name="u101B.kinzi_u103A" 
d="M-29 802q-21 35 -51.5 48.5t-56.5 13.5q-25 0 -50 -10t-44.5 -28.5t-32 -45.5t-12.5 -60q0 -41 17.5 -69.5t41 -46t47.5 -25.5t38 -8v-39q-27 0 -59 12t-59.5 36t-46 59t-18.5 81q0 40 15 74t39.5 58t56.5 37.5t66 13.5q46 0 83.5 -21t54.5 -56zM-394 832
q-11 15 -29.5 24t-47.5 9q-27 0 -45.5 -11.5t-30.5 -28t-17 -33.5t-5 -28q32 5 63 -4t55.5 -27.5t40 -43.5t15.5 -52q-17 -17 -36.5 -23t-45.5 -6q-23 0 -46 8.5t-42.5 27t-31.5 47t-12 67.5q0 28 10 54.5t28 46.5t43.5 32t56.5 12q39 0 65 -12.5t43 -34.5zM-437 657
q-12 25 -29 40.5t-35 22.5t-35.5 7.5t-30.5 -2.5q4 -15 12.5 -29t20.5 -25t26.5 -17.5t30.5 -6.5q8 0 18.5 1.5t21.5 8.5z" />
    <glyph glyph-name="u101C" unicode="&#x101c;" horiz-adv-x="960" 
d="M904 222q0 -49 -17 -92t-47 -75.5t-71.5 -51t-89.5 -18.5t-86 18.5t-66 51t-46.5 75.5t-26.5 92q-6 37 -19.5 71t-35 59.5t-51.5 40.5t-68 15q-37 0 -68.5 -15t-55 -40.5t-37 -59t-13.5 -71.5q0 -39 13.5 -72.5t37 -59t55 -40t68.5 -14.5q29 0 50 10l19 -46
q-32 -15 -69 -15q-48 0 -89 18.5t-71 51t-47.5 75.5t-17.5 92q0 48 17.5 91.5t47.5 75.5t71 51t89 19t86.5 -19t67 -51.5t46.5 -75.5t25 -91q6 -38 20 -71.5t35.5 -59t51.5 -40.5t67 -15t69 14.5t55 40t36.5 59t13.5 72.5q0 38 -13.5 71.5t-36.5 59t-55 40.5t-69 15
q-25 0 -49 -11l-20 47q31 15 69 15q48 0 89.5 -19t71.5 -51t47 -75.5t17 -91.5z" />
    <glyph glyph-name="u101C.med" 
d="M-56 -267q0 -38 -13.5 -71.5t-36.5 -58.5t-55 -39t-69 -14q-36 0 -65 14.5t-50.5 39.5t-36 58t-20.5 71q-5 28 -15.5 54t-27.5 45.5t-39.5 31t-51.5 11.5t-54 -11t-43 -30.5t-28 -45.5t-10 -55t10 -55t28 -45.5t43 -31t54 -11.5q20 0 38 8l16 -36q-14 -7 -26.5 -9.5
t-27.5 -2.5q-37 0 -69 14t-55 39t-36.5 58.5t-13.5 71.5t13.5 71.5t36.5 58t55 39t69 14.5t66.5 -14.5t51.5 -39.5t35.5 -58.5t19.5 -70.5q4 -29 15 -55t28 -45.5t39.5 -31t50.5 -11.5q29 0 54 11.5t43 31t28 45.5t10 55t-10 55t-28 45.5t-43 30.5t-54 11q-10 0 -19 -1
t-18 -6l-17 34q14 8 27 11t27 3q37 0 69 -14.5t55 -39t36.5 -58t13.5 -71.5z" />
    <glyph glyph-name="u101D" unicode="&#x101d;" horiz-adv-x="575" 
d="M520 222q0 -49 -18 -92t-49.5 -75.5t-73.5 -51t-90 -18.5q-49 0 -91.5 18.5t-74 51t-50 75.5t-18.5 92q0 48 18 91.5t49.5 75.5t73.5 51t90 19q49 0 92 -19t74.5 -51t49.5 -75.5t18 -91.5zM469 222q0 38 -14 72t-38.5 59.5t-57.5 40t-70 14.5q-38 0 -71.5 -14.5
t-58.5 -40t-39 -59.5t-14 -72t14 -72t38.5 -59.5t57.5 -40t70 -14.5q38 0 71.5 14.5t58 40t39 59.5t14.5 72z" />
    <glyph glyph-name="u101E" unicode="&#x101e;" horiz-adv-x="990" 
d="M934 222q0 -49 -18.5 -92t-50 -75.5t-74 -51t-89.5 -18.5q-33 0 -63.5 11t-57.5 30t-49.5 45t-38.5 56q-28 -63 -86 -102.5t-131 -39.5q-35 0 -68 8.5t-62 26t-52.5 43t-38.5 58.5l45 26q27 -54 74.5 -82.5t101.5 -28.5q42 0 76.5 15t58.5 41t37.5 61t13.5 76
q0 36 -16 68.5t-42 57t-59.5 39t-68.5 14.5q-54 0 -101.5 -29.5t-74.5 -81.5l-45 25q13 32 36 57.5t52.5 43t63.5 27t69 9.5q43 0 85 -17.5t75.5 -47t54 -68.5t20.5 -83q0 -33 14.5 -69t40.5 -67t60.5 -51t75.5 -20q37 0 70 14.5t58 40t39 59t14 72.5q0 38 -14 71.5t-39 59
t-58 40.5t-70 15q-27 0 -51 -11l-20 47q31 15 71 15q47 0 89.5 -19t74 -51t50 -75.5t18.5 -91.5z" />
    <glyph glyph-name="u101E.med" 
d="M-56 -267q0 -38 -14.5 -71.5t-39 -58t-57 -39t-69.5 -14.5q-51 0 -93 32t-67 77q-22 -48 -66 -78.5t-101 -30.5q-26 0 -51.5 6.5t-48 20t-41 33t-30.5 45.5l36 19q20 -42 56.5 -63.5t78.5 -21.5q32 0 58.5 11.5t45 32t29 47.5t10.5 59q0 28 -12 53t-32.5 43.5t-46 29
t-52.5 10.5q-42 0 -78.5 -21.5t-56.5 -63.5l-36 21q12 26 30.5 45.5t41 33t48 20t51.5 6.5q33 0 66 -13.5t58.5 -36.5t41.5 -53t16 -64q0 -25 11 -53t30.5 -52t46 -39.5t57.5 -15.5q29 0 55 11.5t45 31t30 46t11 55.5t-11 55t-30 45.5t-45 30.5t-55 11q-10 0 -19 -1t-20 -6
l-15 36q12 5 26 8.5t28 3.5q37 0 69.5 -14.5t57 -39.5t39 -58.5t14.5 -70.5z" />
    <glyph glyph-name="u101E_u1010_u103C" horiz-adv-x="1174" 
d="M1119 -185q0 -20 -2.5 -45t-9.5 -51.5t-20 -52.5t-34 -47q-22 -23 -46 -36.5t-49 -21t-51.5 -9.5t-53.5 -2h-517q-54 0 -98.5 14t-86.5 53q-23 21 -38.5 47t-25 53t-13.5 52.5t-4 45.5v875q0 21 4 46t13.5 51t25 51.5t38.5 47.5q42 40 86.5 54.5t98.5 14.5h517
q54 0 104 -13t94 -57q16 -17 28.5 -36.5t21 -39t13 -37t5.5 -30.5h-51q0 16 -14 48.5t-40 61.5q-15 16 -36.5 26t-46.5 16t-51 8t-48 2h-466q-42 0 -88.5 -8t-87.5 -44q-21 -18 -34.5 -41.5t-21 -48.5t-10.5 -48t-3 -41v-840q0 -17 3 -40.5t11 -48.5t21 -49t34 -43
q20 -18 42 -28t45 -15.5t45.5 -6.5t43.5 -1h466q21 0 45.5 1t48.5 6.5t47 16t41 28.5q19 20 30 43.5t16.5 48t6.5 47.5t1 41v57h51v-75zM1104 222q0 -49 -18.5 -92t-50 -75.5t-74 -51t-90.5 -18.5q-33 0 -63.5 11t-57.5 30.5t-49 45t-38 55.5q-28 -63 -86.5 -102.5
t-131.5 -39.5q-33 0 -66.5 8.5t-63 25.5t-53 42.5t-37.5 59.5l43 26q29 -54 76 -82.5t101 -28.5q42 0 76.5 15t59 41t37.5 61t13 76q0 37 -16 69.5t-42 57t-59.5 38.5t-68.5 14q-54 0 -101 -28.5t-76 -82.5l-43 25q14 34 37.5 59.5t53 42.5t63 26t66.5 9q43 0 85.5 -17.5
t76 -47t54 -69t20.5 -82.5q0 -33 14.5 -69t40 -67t60 -51t75.5 -20q38 0 71 14.5t58 40t39 59.5t14 72t-14 72t-39 59.5t-58 40t-71 14.5q-25 0 -49 -11l-21 47q33 15 70 15q48 0 90.5 -19t74 -51t50 -75.5t18.5 -91.5zM952 -213q0 -33 -12 -62t-33 -50.5t-49 -33.5t-60 -12
q-9 0 -24 2t-27 9l16 37q18 -7 35 -7q23 0 43.5 9t36.5 24.5t25 37t9 46.5q0 24 -9 45.5t-25 37.5t-36.5 25.5t-43.5 9.5q-27 0 -49.5 -14.5t-38.5 -36t-25 -46t-9 -44.5q0 -18 -10.5 -41.5t-30 -44t-48 -35t-64.5 -14.5q-32 0 -60 12t-49 33.5t-33 50.5t-12 62t12 61.5
t33 49.5t49 33.5t60 12.5q48 0 84 -24.5t56 -63.5q23 39 58 63.5t77 24.5q32 0 60 -12.5t49 -33.5t33 -49.5t12 -61.5zM637 -213q0 24 -9 45.5t-24.5 37.5t-36 25.5t-44.5 9.5t-44.5 -9.5t-36 -25.5t-24.5 -37.5t-9 -45.5t9 -45.5t24 -37.5t36 -25t45 -9t45 9t36.5 25
t24 37.5t8.5 45.5z" />
    <glyph glyph-name="u101F" unicode="&#x101f;" horiz-adv-x="1002" 
d="M946 222q0 -49 -18.5 -92t-50 -75.5t-74 -51t-89.5 -18.5q-18 0 -36 3.5t-35 11.5l20 46q21 -10 51 -10q37 0 70 14.5t58 40t39 59.5t14 72t-14 72t-39 59.5t-58 40t-70 14.5q-39 0 -73 -20t-58.5 -49.5t-39 -62t-14.5 -56.5q0 -39 -15 -81t-45 -76t-74.5 -56t-102.5 -22
q-49 0 -92 18.5t-75.5 52t-51 80.5t-18.5 104q0 41 7.5 73.5t20.5 58.5t31 47t39 38l30 -43q-35 -32 -56 -74.5t-21 -99.5q0 -45 14.5 -82.5t40 -64.5t59.5 -42t72 -15t72 15t59.5 42t40 64.5t14.5 82.5q0 57 -20.5 99.5t-55.5 74.5l30 43q28 -23 50.5 -52.5t34.5 -71.5
q33 54 85 90t112 36q47 0 89.5 -19t74 -51t50 -75.5t18.5 -91.5z" />
    <glyph glyph-name="u1020" unicode="&#x1020;" horiz-adv-x="583" 
d="M513 -89q-51 -32 -106 -50.5t-115 -18.5q-42 0 -81 8t-75 25v-139q0 -27 9.5 -53.5t31.5 -44.5q13 -11 23 -18.5t22 -11.5t28 -5.5t41 -1.5h114q18 0 29.5 4.5t17.5 12t8 17t2 18.5q0 22 -15 36.5t-45 14.5q-13 0 -29 -10l-34 39q9 10 26 16t37 6q26 0 46.5 -9t35 -23.5
t22 -32.5t7.5 -37q0 -45 -22 -74t-74 -29h-156q-26 0 -46.5 6.5t-36 15t-26 17.5t-16.5 15q-17 16 -34 49t-17 72v234q48 -29 97.5 -47.5t109.5 -18.5q45 0 86.5 12.5t83.5 34.5v109q-35 -32 -80 -48t-90 -16q-49 0 -92 18.5t-75.5 51t-51 75.5t-18.5 92q0 48 18.5 91.5
t51 75.5t75.5 51t92 19q33 0 66.5 -9t63 -26t53.5 -42.5t38 -59.5l-44 -25q-28 54 -75.5 82.5t-101.5 28.5q-38 0 -72 -14.5t-59.5 -40t-40 -59.5t-14.5 -72t14.5 -72t40 -59.5t59.5 -40t72 -14.5q54 0 101.5 28.5t75.5 82.5l44 -26v-210v0z" />
    <glyph glyph-name="u1020.long" horiz-adv-x="568" 
d="M417 -450v319q-35 -14 -68.5 -20.5t-72.5 -6.5q-60 0 -115 18.5t-106 50.5v210l45 26q27 -54 74.5 -82.5t101.5 -28.5q38 0 72 14.5t59.5 40t40 59.5t14.5 72t-14.5 72t-40 59.5t-59.5 40t-72 14.5q-54 0 -101.5 -29t-74.5 -82l-45 25q14 34 38 59.5t53.5 42.5t63 26
t66.5 9q49 0 92 -19t75 -51t51 -75.5t19 -91.5q0 -49 -19 -92t-51 -75.5t-75 -51t-92 -18.5q-45 0 -90 16t-80 48v-109q41 -22 83 -34.5t87 -12.5q49 0 96.5 15t95.5 41v-399h-51z" />
    <glyph glyph-name="u1020_u1020" horiz-adv-x="583" 
d="M513 -347q0 -45 -22 -74t-74 -29h-156q-26 0 -46.5 6.5t-36 15t-26 17.5t-16.5 15q-17 16 -34 49t-17 72v234q48 -29 97.5 -47.5t109.5 -18.5q45 0 86.5 12.5t83.5 34.5v109q-35 -32 -80 -48t-90 -16q-49 0 -92 18.5t-75.5 51t-51 75.5t-18.5 92q0 48 18.5 91.5t51 75.5
t75.5 51t92 19q33 0 66.5 -9t63 -26t53.5 -42.5t38 -59.5l-44 -25q-28 54 -75.5 82.5t-101.5 28.5q-38 0 -72 -14.5t-59.5 -40t-40 -59.5t-14.5 -72t14.5 -72t40 -59.5t59.5 -40t72 -14.5q54 0 101.5 28.5t75.5 82.5l44 -26v-210q-51 -32 -106 -50.5t-115 -18.5q-42 0 -81 8
t-75 25v-139q0 -27 9.5 -53.5t31.5 -44.5q13 -11 23 -18.5t22 -11.5t28 -5.5t41 -1.5h114q18 0 29.5 4.5t17.5 12t8 17t2 18.5q0 22 -15 36.5t-45 14.5q-8 0 -20 -5l-19 49q8 4 18 5.5t21 1.5q26 0 46.5 -9t35 -23.5t22 -32.5t7.5 -37zM297 -378v72q-8 -2 -16 -2.5t-19 -0.5
q-9 0 -24.5 1.5t-30.5 8t-25.5 20t-10.5 38.5q0 21 11.5 34.5t26.5 21t30 10.5t23 3q27 0 46.5 -4.5t38.5 -18.5l-21 -33q-17 13 -33.5 15t-30.5 2q-4 0 -12.5 -1t-17.5 -4t-15.5 -9t-6.5 -16q0 -11 5.5 -16.5t13 -8.5t16.5 -3.5t17 -0.5q14 0 33 2.5t41 10.5v-82h51v-39
h-90z" />
    <glyph glyph-name="u1020_u103E" horiz-adv-x="583" 
d="M513 -347q0 -45 -22 -74t-74 -29h-156q-36 0 -68 14.5t-56 38.5q-24 25 -38 56.5t-14 65.5v234q48 -29 97.5 -47.5t109.5 -18.5q45 0 86.5 12.5t83.5 34.5v109q-35 -32 -80 -48t-90 -16q-49 0 -92 18.5t-75.5 51t-51 75.5t-18.5 92q0 48 18.5 91.5t51 75.5t75.5 51t92 19
q33 0 66.5 -9t63 -26t53.5 -42.5t38 -59.5l-44 -25q-28 54 -75.5 82.5t-101.5 28.5q-38 0 -72 -14.5t-59.5 -40t-40 -59.5t-14.5 -72t14.5 -72t40 -59.5t59.5 -40t72 -14.5q54 0 101.5 28.5t75.5 82.5l44 -26v-210q-51 -32 -106 -50.5t-115 -18.5q-42 0 -81 8t-75 25v-139
q0 -32 9.5 -54.5t26.5 -39.5q14 -14 26.5 -22t25.5 -12.5t29 -5.5t38 -1h114q18 0 29.5 4.5t17.5 12t8 17t2 18.5q0 22 -15 36.5t-45 14.5q-13 0 -29 -10l-34 39q9 10 26 16t37 6q26 0 46.5 -9t35 -23.5t22 -32.5t7.5 -37zM283 -365l-95 34l14 38l56 -20l50 133l37 -14z" />
    <glyph glyph-name="u1021" unicode="&#x1021;" horiz-adv-x="940" 
d="M885 222q0 -53 -20 -96.5t-53.5 -75t-77.5 -48.5t-91 -17q-54 0 -102 22q10 33 21.5 62.5t28 55t40 47t59.5 38.5q16 8 35.5 13.5t39 8t37.5 2.5t33 -3q0 36 -15 68t-41 56t-60 38.5t-71 14.5q-51 0 -96 -25.5t-75 -73.5q-5 -32 -26 -56t-57 -31q39 -8 61.5 -36.5
t22.5 -62.5q0 -57 -50 -98q-49 -40 -161 -40q-105 0 -158.5 36.5t-53.5 93.5l47 18q0 -51 43.5 -73.5t121.5 -23.5q29 0 58 4t51.5 14t36.5 26.5t14 42.5q0 21 -15.5 35t-37.5 22t-46 11.5t-42 4.5v51q18 2 42 5.5t46 11t37.5 21t15.5 36.5q0 24 -14 41t-36.5 27t-51.5 14.5
t-58 4.5q-78 0 -121.5 -23.5t-43.5 -74.5l-47 18q0 57 53.5 94t158.5 37q82 0 129.5 -22.5t68.5 -57.5q74 80 183 80q49 0 92 -18.5t75 -51t51 -75.5t19 -92zM829 180q-35 5 -63 1t-54 -16q-45 -21 -67.5 -50.5t-35.5 -74.5q39 -8 77 -0.5t69 29.5q54 37 74 111z" />
    <glyph glyph-name="u1021.med" 
d="M-30 -267q0 -41 -15.5 -74.5t-41.5 -57.5t-59.5 -37t-69.5 -13q-41 0 -78 17q8 26 16.5 49t21.5 42.5t31 35.5t45 29q23 11 51.5 16t61.5 0q-1 28 -13 52.5t-31.5 43t-45.5 29t-54 10.5q-38 0 -73.5 -19.5t-58.5 -55.5q-4 -25 -20 -43.5t-43 -23.5q29 -6 46.5 -28
t17.5 -49q0 -44 -39 -75t-124 -31q-79 0 -121.5 28.5t-42.5 71.5l36 15q0 -39 34.5 -57t93.5 -19q22 0 44.5 3.5t39.5 11t28 20.5t11 32q0 16 -12 27t-29 17t-35.5 9t-31.5 4v39q13 1 31.5 4t35.5 9.5t29 17t12 26.5q0 19 -11 32t-28 20.5t-39.5 10.5t-44.5 3
q-59 0 -93.5 -17.5t-34.5 -57.5l-36 15q0 43 42.5 72t121.5 29q63 0 100 -17.5t53 -44.5q28 32 64 47t77 15q37 0 70 -14.5t58 -39t39 -58t14 -71.5zM-73 -302q-29 6 -51.5 2t-37.5 -11q-35 -17 -52 -40t-27 -56q28 -6 55.5 -1t50 18.5t39 36t23.5 51.5z" />
    <glyph glyph-name="u1022" unicode="&#x1022;" horiz-adv-x="999" 
d="M943 222q0 -48 -18.5 -91.5t-50 -75.5t-74 -51t-89.5 -19q-18 0 -36 3.5t-35 11.5l20 46q23 -10 51 -10q37 0 70 14.5t58 40t39 59.5t14 72t-14 72t-39 59.5t-58 40t-70 14.5q-36 0 -70 -19t-60.5 -49t-42.5 -66t-16 -70q0 -78 -26.5 -129.5t-71.5 -86.5l-30 43
q12 10 26 25t25 35t18.5 45t7.5 57q0 44 -12.5 83t-36.5 68.5t-58.5 47t-78.5 17.5q-48 0 -82 -17.5t-55.5 -40t-31.5 -44t-10 -30.5q0 -22 10.5 -36.5t26 -25t33.5 -20t33.5 -22.5t26 -31t10.5 -46q0 -25 -8.5 -44.5t-23 -33.5t-33.5 -21.5t-39 -7.5q-14 0 -28.5 4.5
t-26.5 12t-20.5 17t-11.5 20.5l43 26q14 -29 44 -29q20 0 36.5 13.5t16.5 42.5q0 17 -10.5 28.5t-26 21t-33.5 19t-33.5 24t-26 35.5t-10.5 53q0 30 16 62.5t46 59t72.5 44t95.5 17.5q72 0 129.5 -39.5t86.5 -107.5q16 31 38 58t49 46.5t58.5 30.5t64.5 11q47 0 89.5 -19
t74 -51t50 -75t18.5 -92z" />
    <glyph glyph-name="u1023" unicode="&#x1023;" horiz-adv-x="1008" 
d="M952 202q0 -42 -7.5 -74.5t-20.5 -58.5t-30.5 -46.5t-38.5 -37.5l-30 43q35 32 55.5 74.5t20.5 99.5q0 45 -14.5 82.5t-40 64.5t-59.5 42t-72 15t-72 -15t-59.5 -42t-40 -64.5t-14.5 -82.5v-108h-51v108q0 45 -14.5 82.5t-40 64.5t-59.5 42t-72 15t-72 -15t-59.5 -42
t-40 -64.5t-14.5 -82.5q0 -57 21 -99.5t56 -74.5l-30 -43q-21 17 -39 37.5t-31 46.5t-20.5 58.5t-7.5 74.5q0 57 18.5 104t51 80.5t75.5 52t92 18.5q69 0 125 -36t87 -99q30 63 86 99t125 36q49 0 92 -18.5t75.5 -52t51 -80.5t18.5 -104zM753 -450v33q19 19 38 52t19 83
q0 36 -11 65t-30.5 49.5t-45.5 31.5t-56 11t-56 -11t-45.5 -31.5t-31 -49.5t-11.5 -65v-84h-39v84q0 36 -11.5 65t-31 49.5t-45.5 31.5t-56 11q-29 0 -55 -11t-45.5 -31.5t-30.5 -49.5t-11 -65q0 -45 13 -77t44 -58l-21 -33q-34 26 -54.5 65t-20.5 103q0 43 14 79t39 62
t57.5 40.5t70.5 14.5q54 0 97 -27.5t67 -75.5q23 48 66 75.5t97 27.5q38 0 71 -14.5t58 -40.5t39 -62t14 -79q0 -50 -11 -78t-28 -51h73v-39h-130z" />
    <glyph glyph-name="u1024" unicode="&#x1024;" horiz-adv-x="1180" 
d="M946 -275q0 -39 -17 -71t-34 -49q-6 -6 -16.5 -15.5t-25.5 -18t-35.5 -15t-46.5 -6.5h-605q-30 0 -51 11t-34.5 27t-19.5 33.5t-6 31.5q0 77 72 112t197 35q65 0 117.5 -7t92 -18.5t66 -24.5t39.5 -25l-30 -36q-19 10 -41.5 20.5t-55.5 19.5t-78.5 14.5t-109.5 5.5
q-218 0 -218 -96q0 -6 3 -15t10.5 -17.5t18.5 -14t28 -5.5h575q25 0 41.5 1.5t28 5.5t21.5 11t23 19q20 19 30 45t10 53v486q0 38 -14 72t-39 59.5t-58 40t-70 14.5t-70.5 -19.5t-59 -50.5t-40.5 -69.5t-15 -76.5q0 -40 -7.5 -71.5t-20.5 -56t-30.5 -44t-38.5 -35.5l-30 43
q35 32 55.5 74.5t20.5 99.5q0 45 -14.5 82.5t-40 64.5t-59.5 42t-72 15t-72 -15t-59.5 -42t-40 -64.5t-14.5 -82.5q0 -57 21 -99.5t56 -74.5l-30 -43q-21 17 -39 37.5t-31 46.5t-20.5 58.5t-7.5 74.5q0 57 18.5 104t51 80.5t75.5 52t92 18.5q72 0 130 -37.5t86 -106.5
q31 63 85 104.5t121 41.5q47 0 89.5 -19t74 -51t50 -75.5t18.5 -91.5v-497zM1059 -450v840q0 42 -18 71t-45.5 52t-59 43t-59 43t-45.5 53t-18 74q0 37 14 69.5t38.5 56.5t57 38t70.5 14q28 0 50.5 -8t38.5 -21t26.5 -28.5t15.5 -30.5l-47 -20q-8 26 -33 41.5t-51 15.5
t-49.5 -9.5t-41 -27t-28 -40.5t-10.5 -50q0 -34 18 -58.5t45.5 -45.5t59 -41t59 -46t45.5 -60.5t18 -84.5v-840h-51z" />
    <glyph glyph-name="u1025" unicode="&#x1025;" horiz-adv-x="568" 
d="M498 -350q0 -25 -4.5 -45.5t-19.5 -34.5t-33 -17t-47 -3h-163q-26 0 -46.5 6.5t-36 15t-26 17.5t-16.5 15q-17 16 -34 49t-17 72v396l45 26q27 -54 74.5 -82.5t101.5 -28.5q38 0 72 14.5t59.5 40t40 59.5t14.5 72t-14.5 72t-40 59.5t-59.5 40t-72 14.5q-54 0 -101.5 -29
t-74.5 -82l-45 25q14 34 38 59.5t53.5 42.5t63 26t66.5 9q49 0 92 -19t75 -51t51 -75.5t19 -91.5q0 -49 -19 -92t-51 -75.5t-75 -51t-92 -18.5q-45 0 -90 16t-80 48v-313q0 -27 9 -53.5t30 -44.5q20 -17 44.5 -27t54.5 -10h147q34 0 45 8.5t11 40.5v48h51v-48z" />
    <glyph glyph-name="u1026" unicode="&#x1026;" horiz-adv-x="568" 
d="M455 720q0 -38 -14 -71.5t-38.5 -58.5t-57 -39t-69.5 -14q-36 0 -68.5 14t-57 39t-38.5 58.5t-14 71.5t14 71.5t38.5 58t57 39t68.5 14.5q37 0 69.5 -14.5t57 -39t38.5 -58t14 -71.5zM416 720q0 29 -11 55.5t-30 46t-44.5 31t-54.5 11.5t-54 -11.5t-44 -31t-30 -46
t-11 -55.5q0 -26 10 -53q31 31 64 42.5t65 11.5t67 -11.5t64 -42.5q9 25 9 53zM390 634q-14 16 -30.5 26t-32 16t-29 8.5t-22.5 2.5q-18 0 -49 -10.5t-62 -42.5q17 -23 48 -40.5t63 -17.5q35 0 65 15t49 43zM498 -350q0 -25 -4.5 -45.5t-19.5 -34.5t-33 -17t-47 -3h-163
q-26 0 -46.5 6.5t-36 15t-26 17.5t-16.5 15q-17 16 -34 49t-17 72v396l45 26q27 -54 74.5 -82.5t101.5 -28.5q38 0 72 14.5t59.5 40t40 59.5t14.5 72t-14.5 72t-40 59.5t-59.5 40t-72 14.5q-54 0 -101.5 -29t-74.5 -82l-45 25q14 34 38 59.5t53.5 42.5t63 26t66.5 9
q49 0 92 -19t75 -51t51 -75.5t19 -91.5q0 -49 -19 -92t-51 -75.5t-75 -51t-92 -18.5q-45 0 -90 16t-80 48v-313q0 -27 9 -53.5t30 -44.5q20 -17 44.5 -27t54.5 -10h147q34 0 45 8.5t11 40.5v48h51v-48z" />
    <glyph glyph-name="u1027" unicode="&#x1027;" horiz-adv-x="576" 
d="M520 136q-12 -27 -31 -54t-46.5 -48.5t-64.5 -35t-86 -13.5t-92 18.5t-75.5 51t-51 75.5t-18.5 92q0 48 18.5 91.5t51 75.5t75.5 51t92 19q39 0 74 -10.5t64.5 -30t52 -47.5t36.5 -64q-70 -52 -156 -52q-66 0 -113.5 27.5t-83.5 75.5q-30 -25 -45 -62t-15 -74
q0 -39 16 -75t44 -62q36 49 86 76.5t114 27.5q25 0 48.5 -5.5t43 -13.5t35.5 -17t27 -17zM457 321q-26 44 -72 65.5t-93 21.5q-26 0 -47 -6t-41 -16q35 -46 71 -68t88 -22q26 0 50.5 7t43.5 18zM456 121q-24 12 -45 19t-45 7q-32 0 -55.5 -6.5t-42.5 -18.5t-34 -28.5
t-29 -36.5q45 -21 87 -21q51 0 94 21t70 64z" />
    <glyph glyph-name="u1028" unicode="&#x1028;" horiz-adv-x="576" 
d="M520 -214q0 -42 -16 -84t-46 -76t-72 -55t-94 -21q-56 0 -100 21t-74.5 55t-46.5 76.5t-16 84.5v438q0 43 16 85t46.5 75t74.5 53.5t100 20.5q52 0 94 -22t72 -56t46 -75.5t16 -81.5q0 -41 -9.5 -83.5t-31.5 -77t-57 -56.5t-86 -22q-19 0 -39 5t-36 15.5t-26 27.5t-10 41
q0 28 17 41t38 20t38 12t17 18q0 30 -17.5 43t-35.5 13q-17 0 -30 -12t-13 -18l-44 27q1 6 8.5 15t19 18t27 15t32.5 6q20 0 39 -7.5t33.5 -21.5t23 -33.5t8.5 -44.5q0 -29 -17 -42.5t-38 -21t-38 -12.5t-17 -15q0 -14 6.5 -21.5t15.5 -11t19.5 -4.5t18.5 -1q26 0 50 11
t42.5 34t29.5 58.5t11 84.5q0 40 -15.5 73.5t-40.5 58t-57 38.5t-64 14q-38 0 -72 -13.5t-59.5 -38t-40 -59t-14.5 -75.5v-435q0 -40 14.5 -74t40 -59t59.5 -39t72 -14q39 0 72 16.5t56 43t36 59.5t13 66h51v0z" />
    <glyph glyph-name="u1029" unicode="&#x1029;" horiz-adv-x="1174" 
d="M1104 222q0 -49 -18.5 -92t-50 -75.5t-74 -51t-90.5 -18.5q-33 0 -63.5 11t-57.5 30.5t-49 45t-38 55.5q-28 -63 -86.5 -102.5t-131.5 -39.5q-33 0 -66.5 8.5t-63 25.5t-53 42.5t-37.5 59.5l43 26q29 -54 76 -82.5t101 -28.5q42 0 76.5 15t59 41t37.5 61t13 76
q0 37 -16 69.5t-42 57t-59.5 38.5t-68.5 14q-54 0 -101 -28.5t-76 -82.5l-43 25q14 34 37.5 59.5t53 42.5t63 26t66.5 9q43 0 85.5 -17.5t76 -47t54 -69t20.5 -82.5q0 -33 14.5 -69t40 -67t60 -51t75.5 -20q38 0 71 14.5t58 40t39 59.5t14 72t-14 72t-39 59.5t-58 40
t-71 14.5q-25 0 -49 -11l-21 47q33 15 70 15q48 0 90.5 -19t74 -51t50 -75.5t18.5 -91.5zM1119 -185q0 -20 -2.5 -45t-9.5 -51.5t-20 -52.5t-34 -47q-22 -23 -46 -36.5t-49 -21t-51.5 -9.5t-53.5 -2h-517q-54 0 -98.5 14t-86.5 53q-23 21 -38.5 47t-25 53t-13.5 52.5
t-4 45.5v875q0 21 4 46t13.5 51t25 51.5t38.5 47.5q42 40 86.5 54.5t98.5 14.5h517q58 0 106 -13t92 -57q16 -17 28.5 -36.5t21 -39t13 -37t5.5 -30.5h-51q0 16 -14 48.5t-40 61.5q-17 18 -37.5 28.5t-44.5 15.5t-49.5 6.5t-50.5 1.5h-466q-42 0 -88.5 -8t-87.5 -44
q-21 -18 -34.5 -41.5t-21 -48.5t-10.5 -48t-3 -41v-840q0 -17 3 -40.5t11 -48.5t21 -49t34 -43q20 -18 42 -28t45 -15.5t45.5 -6.5t43.5 -1h466q21 0 45 1t48 5.5t47 15t42 30.5t30 43.5t16.5 48t6.5 47.5t1 41v57h51v-75z" />
    <glyph glyph-name="u102A" unicode="&#x102a;" horiz-adv-x="2149" 
d="M1636 742q0 7 -4.5 20.5t-12 28.5t-17.5 30.5t-22 28.5q-18 19 -40.5 30t-46.5 16.5t-48 6.5t-45 1h-466q-42 0 -88.5 -8t-87.5 -44q-21 -18 -34.5 -41.5t-21 -48.5t-10.5 -49t-3 -43v-837q0 -17 3 -40.5t11 -48.5t21 -49t34 -43q20 -18 42 -28t45 -15.5t45.5 -6.5
t43.5 -1h466q21 0 45 1t48 5.5t47 15t42 30.5t30 43.5t16.5 48t6.5 47.5t1 41v57h51v-75q0 -20 -2.5 -45t-9.5 -51.5t-20 -52.5t-34 -47q-22 -23 -46 -36.5t-49 -21t-51.5 -9.5t-53.5 -2h-517q-54 0 -98.5 14t-86.5 53q-23 21 -38.5 47t-25 53t-13.5 52.5t-4 45.5v875
q0 21 4 46t13.5 51t25 51.5t38.5 47.5q42 40 86.5 54.5t98.5 14.5h517q54 0 104 -13t94 -57q16 -17 28.5 -36.5t21 -39t13 -37t5.5 -30.5h-51zM2094 222q0 -49 -18.5 -92t-50.5 -75.5t-74.5 -51t-89.5 -18.5q-21 0 -45.5 5t-41.5 13l20 46q12 -6 33 -9.5t34 -3.5
q37 0 70.5 14.5t58 40t39 59t14.5 72.5q0 38 -14.5 71.5t-39 59t-58 40.5t-70.5 15q-27 0 -50.5 -7t-47.5 -20t-49.5 -32l-56.5 -44q15 -41 15 -83q0 -49 -18.5 -92t-50 -75.5t-74 -51t-89.5 -18.5q-33 0 -63.5 11t-57.5 30t-49.5 45t-38.5 56q-28 -63 -86 -102.5
t-131 -39.5q-35 0 -69 9t-63.5 26.5t-52.5 43t-36 57.5l45 26q27 -54 74.5 -82.5t101.5 -28.5q42 0 76.5 15t58.5 41t37.5 61t13.5 76q0 36 -16 68.5t-42 57t-59.5 39t-68.5 14.5q-54 0 -101.5 -29.5t-74.5 -81.5l-45 25q15 33 38.5 58.5t52.5 43t62 26.5t68 9
q43 0 85 -17.5t75.5 -47t54 -68.5t20.5 -83q0 -33 14.5 -69t40.5 -67t60.5 -51t75.5 -20q37 0 70 14.5t58 40t39 59t14 72.5q0 38 -14 71.5t-39 59t-58 40.5t-70 15q-27 0 -51 -11l-20 47q31 15 71 15q59 0 111 -29.5t81 -77.5q34 28 63 48.5t55.5 33.5t53.5 19t57 6
q47 0 89.5 -19t74.5 -51t50.5 -75.5t18.5 -91.5zM520 153q-1 -18 -15 -46.5t-41.5 -55.5t-70 -46.5t-101.5 -19.5q-49 0 -92 18.5t-75.5 51t-51 75.5t-18.5 92q0 48 18.5 91.5t51 75.5t75.5 51t92 19q35 0 69 -9.5t63.5 -27t52.5 -43t36 -57.5l-44 -25q-28 52 -75.5 81.5
t-101.5 29.5q-38 0 -72 -15t-59.5 -40.5t-40 -59t-14.5 -71.5q0 -39 14.5 -72t38.5 -59q37 55 90.5 83t116.5 28q40 0 76 -13.5t78 -35.5zM460 127q-48 24 -97 24q-57 0 -96.5 -25.5t-64.5 -67.5q21 -10 43 -16t47 -6q51 0 96 21.5t72 69.5zM2063 802q-21 35 -51.5 48.5
t-56.5 13.5q-25 0 -50 -10t-44.5 -28.5t-32 -45.5t-12.5 -60q0 -41 17.5 -69.5t41 -46t47.5 -25.5t38 -8v-39q-27 0 -59 12t-59.5 36t-46 59t-18.5 81q0 40 15 74t39.5 58t56.5 37.5t66 13.5q46 0 83.5 -21t54.5 -56z" />
    <glyph glyph-name="u102B" unicode="&#x102b;" horiz-adv-x="177" 
d="M70 0v714q0 37 -8 62.5t-23.5 41t-37 22.5t-48.5 7q-54 0 -85.5 -30.5t-31.5 -102.5h-51q0 82 43 133t125 51q78 0 123 -46.5t45 -137.5v-714h-51z" />
    <glyph glyph-name="u102B_u103A" horiz-adv-x="462" 
d="M355 714q0 72 -30.5 102.5t-84.5 30.5q-27 0 -48.5 -6.5t-37.5 -22.5t-24.5 -41.5t-8.5 -62.5v-714h-51v714q0 75 -31.5 104t-85.5 29t-85.5 -30.5t-31.5 -102.5h-51q0 82 43 133t125 51q56 0 89.5 -21t53.5 -59q20 38 54 59t90 21q82 0 124 -51t42 -133h-51z" />
    <glyph glyph-name="u102C" unicode="&#x102c;" horiz-adv-x="421" 
d="M366 222q0 -49 -18.5 -92t-50.5 -75.5t-74.5 -51t-89.5 -18.5q-21 0 -45.5 5t-41.5 13l20 46q12 -6 33 -9.5t34 -3.5q37 0 70.5 14.5t58 40t39 59t14.5 72.5q0 38 -14.5 71.5t-39 59t-58 40.5t-70.5 15q-29 0 -56 -8.5t-53.5 -24t-53.5 -37l-57 -46.5l-30 45l62 49
t58 38.5t60.5 25.5t69.5 9q47 0 89.5 -19t74.5 -51t50.5 -75.5t18.5 -91.5z" />
    <glyph glyph-name="u102D" unicode="&#x102d;" 
d="M-55 720q0 -39 -14 -72t-38.5 -58t-57 -39t-69.5 -14t-69.5 14t-56.5 39t-38 58t-14 72q0 38 14 71.5t38 58t56.5 39t69.5 14.5t69.5 -14.5t57 -39t38.5 -58t14 -71.5zM-94 720q0 29 -11 55t-30 46t-44.5 31.5t-54.5 11.5t-54 -11.5t-44 -31.5t-30 -46t-11 -55
q0 -30 11 -56t30 -45.5t44 -31t54 -11.5t54.5 11.5t44.5 31t30 45.5t11 56z" />
    <glyph glyph-name="u102D_u1036" horiz-adv-x="55" 
d="M-180 720q0 -38 -14 -71.5t-38.5 -58.5t-57 -39t-69.5 -14q-36 0 -68.5 14t-57 39t-38.5 58.5t-14 71.5t14 71.5t38.5 58t57 39t68.5 14.5q37 0 69.5 -14.5t57 -39t38.5 -58t14 -71.5zM-219 720q0 29 -11 55.5t-30 46t-44.5 31t-54.5 11.5t-54 -11.5t-44 -31t-30 -46
t-11 -55.5t11 -55.5t30 -46t44 -31t54 -11.5t54.5 11.5t44.5 31t30 46t11 55.5zM0 720q0 -32 -22.5 -54.5t-52.5 -22.5q-31 0 -53 22.5t-22 54.5q0 30 22 52.5t53 22.5q30 0 52.5 -22.5t22.5 -52.5zM-29 720q0 19 -13.5 32t-32.5 13q-20 0 -33.5 -13t-13.5 -32
q0 -22 13.5 -35t33.5 -13q19 0 32.5 13t13.5 35z" />
    <glyph glyph-name="u102E" unicode="&#x102e;" 
d="M-55 720q0 -38 -14 -71.5t-38.5 -58.5t-57 -39t-69.5 -14q-36 0 -68.5 14t-57 39t-38.5 58.5t-14 71.5t14 71.5t38.5 58t57 39t68.5 14.5q37 0 69.5 -14.5t57 -39t38.5 -58t14 -71.5zM-234 864q-29 0 -54 -11.5t-44 -31t-30 -46t-11 -55.5q0 -26 10 -53q31 31 64 42.5
t65 11.5t67 -11.5t64 -42.5q9 25 9 53q0 29 -11 55.5t-30 46t-44.5 31t-54.5 11.5zM-120 634q-14 16 -30.5 26t-32 16t-29 8.5t-22.5 2.5q-18 0 -49 -10.5t-62 -42.5q17 -23 48 -40.5t63 -17.5q35 0 65 15t49 43z" />
    <glyph glyph-name="u102F" unicode="&#x102f;" horiz-adv-x="147" 
d="M40 -450v894h51v-843h83v-51h-134z" />
    <glyph glyph-name="u102F.med" 
d="M-107 -450v355h51v-304h83v-51h-134z" />
    <glyph glyph-name="u1030" unicode="&#x1030;" horiz-adv-x="295" 
d="M189 -450v894h51v-843h81v-51h-132zM40 -450v894h51v-894h-51z" />
    <glyph glyph-name="u1030.med" 
d="M-106 -450v355h51v-304h82v-51h-133zM-255 -450v355h51v-355h-51z" />
    <glyph glyph-name="u1031" unicode="&#x1031;" horiz-adv-x="576" 
d="M520 153q-1 -18 -15 -46.5t-41.5 -55.5t-70 -46.5t-101.5 -19.5q-49 0 -92 18.5t-75.5 51t-51 75.5t-18.5 92q0 48 18.5 91.5t51 75.5t75.5 51t92 19q35 0 69.5 -9t63.5 -26.5t52 -43t36 -58.5l-44 -25q-28 52 -75.5 81.5t-101.5 29.5q-38 0 -72 -15t-59.5 -40.5t-40 -59
t-14.5 -71.5q0 -39 14.5 -72t38.5 -59q75 111 207 111q40 0 76 -13.5t78 -35.5zM460 127q-48 24 -97 24q-54 0 -93.5 -23.5t-67.5 -69.5q21 -10 43 -16t47 -6q51 0 96 21.5t72 69.5z" />
    <glyph glyph-name="u1032" unicode="&#x1032;" 
d="M-78 610l-298 237l22 33l299 -237z" />
    <glyph glyph-name="u1032_u102D" horiz-adv-x="55" 
d="M-410 610l-298 237l22 33l299 -237zM0 720q0 -39 -14 -72t-38.5 -58t-57 -39t-69.5 -14t-69.5 14t-56.5 39t-38 58t-14 72q0 38 14 71.5t38 58t56.5 39t69.5 14.5t69.5 -14.5t57 -39t38.5 -58t14 -71.5zM-39 720q0 29 -11 55t-30 46t-44.5 31.5t-54.5 11.5t-54 -11.5
t-44 -31.5t-30 -46t-11 -55q0 -30 11 -56t30 -45.5t44 -31t54 -11.5t54.5 11.5t44.5 31t30 45.5t11 56z" />
    <glyph glyph-name="u1033" unicode="&#x1033;" 
d="M-55 720q0 -38 -14 -71.5t-38 -58t-56 -39t-69 -14.5q-38 0 -71 14.5t-57.5 39t-38.5 58t-14 71.5q0 37 14 70t38 58t56.5 39.5t69.5 14.5q38 0 71 -14.5t57 -39.5t38 -58t14 -70zM-94 720q0 29 -11 55t-29.5 45.5t-44 31t-53.5 11.5q-30 0 -55.5 -11.5t-44.5 -31
t-30 -45.5t-11 -55q0 -30 11 -56t29.5 -45.5t43.5 -30.5t54 -11q30 0 55.5 11t44.5 30.5t30 45.5t11 56zM-157 720q0 -31 -22.5 -54t-52.5 -23q-31 0 -53 23t-22 54q0 30 22 52.5t53 22.5q30 0 52.5 -22.5t22.5 -52.5zM-186 720q0 19 -13.5 32.5t-32.5 13.5
q-20 0 -33.5 -13.5t-13.5 -32.5q0 -20 13.5 -34t33.5 -14q19 0 32.5 14t13.5 34z" />
    <glyph glyph-name="u1034" unicode="&#x1034;" 
d="M-355 610l-23 33l300 239l23 -33z" />
    <glyph glyph-name="u1035" unicode="&#x1035;" 
d="M-55 670q0 -14 -11 -36t-32.5 -43t-54.5 -36t-78 -15q-38 0 -70.5 14t-57.5 39t-39 58.5t-14 71.5t14 71.5t39 58t57.5 39t70.5 14.5q25 0 50.5 -7t48.5 -20.5t41.5 -33t29.5 -44.5l-33 -21q-22 42 -58.5 64.5t-78.5 22.5q-30 0 -55.5 -11.5t-45 -31t-30.5 -46t-11 -55.5
q0 -59 42 -101q23 37 62 62t95 25q31 0 58.5 -10.5t60.5 -28.5zM-99 654q-18 10 -36.5 15.5t-38.5 5.5q-39 0 -75.5 -21t-54.5 -56q17 -8 35.5 -13.5t37.5 -5.5q40 0 77.5 19.5t54.5 55.5z" />
    <glyph glyph-name="u1036" unicode="&#x1036;" 
d="M-55 663q0 -31 -22.5 -54t-52.5 -23q-31 0 -53 23t-22 54q0 30 22 52.5t53 22.5q30 0 52.5 -22.5t22.5 -52.5zM-84 663q0 19 -13.5 32.5t-32.5 13.5q-20 0 -33.5 -13.5t-13.5 -32.5q0 -20 13.5 -34t33.5 -14q19 0 32.5 14t13.5 34z" />
    <glyph glyph-name="u1037" unicode="&#x1037;" 
d="M0 -227q0 -30 -22.5 -53t-52.5 -23q-31 0 -53 23t-22 53q0 31 22 53t53 22q30 0 52.5 -22t22.5 -53zM-29 -227q0 20 -13.5 33.5t-32.5 13.5q-20 0 -33.5 -13.5t-13.5 -33.5q0 -19 13.5 -33.5t33.5 -14.5q19 0 32.5 14.5t13.5 33.5z" />
    <glyph glyph-name="u1038" unicode="&#x1038;" horiz-adv-x="260" 
d="M205 75q0 -31 -22.5 -53t-52.5 -22q-31 0 -53 22t-22 53q0 32 22 54t53 22q30 0 52.5 -22t22.5 -54zM176 75q0 17 -12.5 32.5t-33.5 15.5q-22 0 -34.5 -15.5t-12.5 -32.5t12 -32t35 -15q21 0 33.5 15t12.5 32zM205 384q0 -32 -22.5 -54.5t-52.5 -22.5q-31 0 -53 22.5
t-22 54.5t22 53.5t53 21.5q30 0 52.5 -21.5t22.5 -53.5zM176 384q0 17 -12.5 31.5t-33.5 14.5q-22 0 -34.5 -14.5t-12.5 -31.5t12.5 -32.5t34.5 -15.5q21 0 33.5 15.5t12.5 32.5z" />
    <glyph glyph-name="u1039" unicode="&#x1039;" horiz-adv-x="55" 
d="M0 -266q0 -17 -17 -17t-17 17t17 17t17 -17zM-13 -203q0 -16 -16 -16q-17 0 -17 16q0 17 17 17q16 0 16 -17zM-49 -149q0 -17 -17 -17t-17 17t17 17t17 -17zM-104 -112q0 -17 -16 -17q-17 0 -17 17t17 17q16 0 16 -17zM-168 -100q0 -16 -15 -16q-17 0 -17 16q0 17 17 17
q15 0 15 -17zM-231 -112q0 -17 -17 -17t-17 17t17 17t17 -17zM-286 -149q0 -17 -16 -17q-17 0 -17 17t17 17q16 0 16 -17zM-322 -203q0 -16 -16 -16q-17 0 -17 16q0 17 17 17q16 0 16 -17zM-335 -266q0 -17 -16 -17q-17 0 -17 17t17 17q16 0 16 -17zM-322 -331
q0 -16 -16 -16q-17 0 -17 16q0 17 17 17q16 0 16 -17zM-286 -385q0 -17 -16 -17q-17 0 -17 17t17 17q16 0 16 -17zM-231 -421q0 -15 -17 -15t-17 15q0 17 17 17t17 -17zM-168 -434q0 -15 -15 -15q-17 0 -17 15q0 17 17 17q15 0 15 -17zM-104 -421q0 -15 -16 -15
q-17 0 -17 15q0 17 17 17q16 0 16 -17zM-49 -385q0 -17 -17 -17t-17 17t17 17t17 -17zM-13 -331q0 -16 -16 -16q-17 0 -17 16q0 17 17 17q16 0 16 -17z" />
    <glyph glyph-name="u103A" unicode="&#x103a;" horiz-adv-x="55" 
d="M-29 802q-21 35 -51.5 48.5t-56.5 13.5q-25 0 -50 -10t-44.5 -28.5t-32 -45.5t-12.5 -60q0 -41 17.5 -69.5t41 -46t47.5 -25.5t38 -8v-39q-27 0 -59 12t-59.5 36t-46 59t-18.5 81q0 40 15 74t39.5 58t56.5 37.5t66 13.5q46 0 83.5 -21t54.5 -56z" />
    <glyph glyph-name="u103A_u1036" horiz-adv-x="55" 
d="M-29 802q-21 35 -52 47.5t-56 12.5t-49.5 -10t-44.5 -28.5t-32.5 -44.5t-12.5 -59q0 -41 17.5 -69.5t41.5 -46t48 -25.5t37 -8v-39q-27 0 -59 12t-59.5 36t-46 59t-18.5 81q0 41 15 74.5t40 57.5t57 37.5t66 13.5q45 0 82.5 -21t54.5 -56zM-89 720q0 -20 -13.5 -34
t-32.5 -14q-20 0 -33.5 14t-13.5 34q0 19 13.5 32.5t33.5 13.5q19 0 32.5 -13.5t13.5 -32.5z" />
    <glyph glyph-name="u103B" unicode="&#x103b;" horiz-adv-x="162" 
d="M-207 -369v415h51v-375l211 -55v828h51v-894z" />
    <glyph glyph-name="u103B_u103D" horiz-adv-x="162" 
d="M-107 -395q-23 -18 -51 -29t-60 -11q-37 0 -69.5 14.5t-56.5 39.5t-38 58.5t-14 70.5q0 38 14 71.5t38 58t56.5 39t69.5 14.5t69.5 -14.5t57 -39t38.5 -58t14 -71.5q0 -56 -29 -99l123 -33v828h51v-894zM-78 -252q0 29 -11 55.5t-30 46t-44.5 31t-54.5 11.5t-54 -11.5
t-44 -31t-30 -46t-11 -55.5t11 -55.5t30 -46t44 -31t54 -11.5t54.5 11.5t44.5 31t30 46t11 55.5z" />
    <glyph glyph-name="u103B_u103D_u103E" horiz-adv-x="162" 
d="M-107 -395q-23 -16 -47 -28t-62 -12q-35 0 -66 12.5t-55 34t-39.5 50.5t-19.5 63l-73 -117l-140 80l21 34l105 -58l102 166q33 54 72 77.5t93 23.5q36 0 68 -14.5t56.5 -39t38.5 -58t14 -71.5q0 -36 -8.5 -57.5t-20.5 -41.5l123 -33v828h51v-894zM-78 -252q0 29 -11 55.5
t-30 46t-44.5 31t-54.5 11.5t-54 -11.5t-44 -31t-30 -46t-11 -55.5t11 -55.5t30 -46t44 -31t54 -11.5t54.5 11.5t44.5 31t30 46t11 55.5z" />
    <glyph glyph-name="u103B_u103E" horiz-adv-x="202" 
d="M-207 -369v189l-126 -219l-116 66l26 46l72 -43l151 264l44 -26v-237l211 -55v828h51v-894z" />
    <glyph glyph-name="u103C" unicode="&#x103c;" horiz-adv-x="172" 
d="M697 -185q0 -20 -2.5 -45t-9.5 -51t-20 -52t-34 -48q-22 -23 -45.5 -36.5t-49 -21t-51.5 -9.5t-53 -2h-96q-27 0 -53.5 2t-51.5 9.5t-49 21t-46 36.5q-21 22 -34 47.5t-20 52t-9.5 51.5t-2.5 45v875q0 20 2.5 45.5t9.5 52t20 52t34 46.5q44 44 95.5 56.5t104.5 12.5h96
q53 0 103.5 -13t94.5 -57q33 -35 50 -76t17 -67h-51q0 7 -4 20.5t-11 28.5t-17.5 31t-22.5 28q-19 20 -41.5 31t-46.5 16t-47.5 6t-44.5 1h-54q-21 0 -44.5 -1t-47.5 -6t-47 -15.5t-43 -29.5q-19 -19 -30 -43t-16 -48.5t-6.5 -48t-1.5 -42.5v-837q0 -18 1.5 -41t6.5 -47.5
t16 -48.5t30 -43q18 -18 39.5 -28t45.5 -15.5t49 -7t49 -1.5h51q25 0 50.5 1.5t49 7t45 16t38.5 27.5q18 18 28.5 40.5t16.5 46.5t7.5 48t1.5 45v72h51v-90z" />
    <glyph glyph-name="u103C.alt.narr" horiz-adv-x="172" 
d="M697 -185q0 -20 -2.5 -45t-9.5 -51t-20 -52t-34 -48q-22 -23 -45.5 -36.5t-49 -21t-51.5 -9.5t-53 -2h-96q-27 0 -53.5 2t-51.5 9.5t-49 21t-46 36.5q-21 22 -34 47.5t-20 52t-9.5 51.5t-2.5 45v875q0 20 2.5 45t9.5 51t20 51.5t34 46.5q44 44 97.5 56.5t118.5 12.5v-51
q-46 0 -93.5 -9t-83.5 -43q-20 -19 -30.5 -42.5t-16 -47.5t-6.5 -47.5t-1 -42.5v-837q0 -18 1.5 -41t6.5 -47.5t16 -48.5t30 -43q18 -18 39.5 -28t45.5 -15.5t49 -7t49 -1.5h51q25 0 50.5 1.5t49 7t45 16t38.5 27.5q18 18 28.5 40.5t16.5 46.5t7.5 48t1.5 45v72h51v-90z" />
    <glyph glyph-name="u103C.alt.wide" horiz-adv-x="172" 
d="M1119 -185q0 -20 -2.5 -45t-9.5 -51.5t-20 -52.5t-34 -47q-22 -23 -46 -36.5t-49 -21t-51.5 -9.5t-53.5 -2h-517q-54 0 -98.5 14t-86.5 53q-23 21 -38.5 47t-25 53t-13.5 52.5t-4 45.5v875q0 21 4 46t13.5 51t25 51.5t38.5 47.5q42 40 86.5 54.5t98.5 14.5h358v-51h-328
q-42 0 -88.5 -8t-87.5 -44q-21 -18 -34.5 -41.5t-21 -48.5t-10.5 -49t-3 -43v-837q0 -17 3 -40.5t11 -48.5t21 -49t34 -43q20 -18 42 -28t45 -15.5t45.5 -6.5t43.5 -1h466q26 0 51.5 2t49 7.5t44 15.5t37.5 27q34 35 44 81t10 99v72h51v-90z" />
    <glyph glyph-name="u103C.wide" horiz-adv-x="172" 
d="M1119 -185q0 -20 -2.5 -45t-9.5 -51.5t-20 -52.5t-34 -47q-22 -23 -46 -36.5t-49 -21t-51.5 -9.5t-53.5 -2h-517q-54 0 -98.5 14t-86.5 53q-23 21 -38.5 47t-25 53t-13.5 52.5t-4 45.5v875q0 21 4 46t13.5 51t25 51.5t38.5 47.5q42 40 86.5 54.5t98.5 14.5h517
q57 0 105.5 -13t92.5 -57q16 -17 29 -36.5t21.5 -39t13 -37t4.5 -30.5h-51q0 7 -4.5 20.5t-12 28.5t-17.5 30.5t-22 28.5q-18 19 -40.5 30t-46.5 16.5t-48 6.5t-45 1h-466q-42 0 -88.5 -8t-87.5 -44q-21 -18 -34.5 -41.5t-21 -48.5t-10.5 -49t-3 -43v-837q0 -17 3 -40.5
t11 -48.5t21 -49t34 -43q20 -18 42 -28t45 -15.5t45.5 -6.5t43.5 -1h466q26 0 51.5 2t49 7.5t44 15.5t37.5 27q34 35 44 81t10 99v57h51v-75z" />
    <glyph glyph-name="u103C_u103D.narr" horiz-adv-x="172" 
d="M613 -267q0 29 -11 55.5t-30 46t-44.5 31t-53.5 11.5q-29 0 -55 -11.5t-45 -31t-30 -46t-11 -55.5q0 -45 24.5 -80t63.5 -52q13 -4 22 -4.5t31 -0.5q28 0 53.5 10.5t44.5 29t30 43.5t11 54zM648 742q-1 20 -14.5 50.5t-39.5 59.5q-16 18 -37 28t-45 15.5t-49.5 7
t-50.5 1.5h-67q-18 0 -40.5 -2t-45.5 -7.5t-45 -15.5t-39 -27q-19 -19 -30 -42.5t-16 -48t-6.5 -47.5t-1.5 -41v-840q0 -18 1.5 -41t6.5 -47.5t16 -48t30 -41.5q34 -32 75.5 -43t74.5 -11h24q-54 54 -54 132q0 38 14 71.5t38.5 58t57 39t69.5 14.5q36 0 68.5 -14.5t57 -39
t38.5 -58t14 -71.5t-14 -71.5t-38.5 -58.5t-57 -39t-68.5 -14h-138q-29 0 -55.5 2.5t-51 9.5t-48 20.5t-45.5 36.5q-21 21 -33.5 46.5t-20 52t-10 52t-2.5 45.5v875q0 20 2.5 45.5t9.5 52t20 52t34 46.5q44 44 95.5 56.5t104.5 12.5h97q61 0 108.5 -13t91.5 -57
q33 -35 48.5 -74.5t17.5 -68.5h-51z" />
    <glyph glyph-name="u103C_u103D.wide" horiz-adv-x="172" 
d="M1068 742q-1 20 -14.5 50.5t-39.5 59.5q-16 18 -37 28t-45 15.5t-49.5 7t-50.5 1.5h-466q-21 0 -43.5 -1.5t-45.5 -6.5t-45 -15.5t-42 -28.5q-21 -19 -34 -42t-21 -47.5t-11 -47.5t-3 -42v-840q0 -17 3 -40.5t10.5 -48.5t21 -49t34.5 -42q41 -36 87.5 -44t88.5 -8h385
q-54 54 -54 132q0 38 14 71.5t38.5 58t57 39t69.5 14.5q36 0 68.5 -14.5t57 -39t38.5 -58t14 -71.5t-14 -71.5t-38.5 -58.5t-57 -39t-68.5 -14h-540q-54 0 -98 13.5t-87 54.5q-23 21 -38 47t-25 53t-14 52t-4 45v875q0 21 4 46.5t13.5 51.5t25 51.5t38.5 46.5
q42 40 86.5 54.5t98.5 14.5h517q61 0 108 -13t91 -57q33 -35 49 -74.5t18 -68.5h-51zM1015 -267q0 29 -11 55.5t-30 46t-44.5 31t-53.5 11.5q-29 0 -55 -11.5t-45 -31t-30 -46t-11 -55.5q0 -45 24.5 -80t63.5 -52q13 -4 22 -4.5t31 -0.5q28 0 53.5 10.5t44.5 29t30 43.5
t11 54z" />
    <glyph glyph-name="u103C_u103D.alt.narr" horiz-adv-x="172" 
d="M652 -267q0 -38 -14 -71.5t-38.5 -58.5t-57 -39t-68.5 -14h-138q-29 0 -55.5 2.5t-51 9.5t-48 20.5t-45.5 36.5q-21 21 -33.5 46.5t-20 52t-10 52t-2.5 45.5v875q0 20 2.5 45.5t9.5 52t20 52t34 46.5q44 44 95.5 56.5t104.5 12.5h16v-51q-20 0 -44 -2t-48 -7.5t-46 -15.5
t-39 -27q-19 -19 -30 -42.5t-16 -48t-6.5 -47.5t-1.5 -41v-840q0 -18 1.5 -41t6.5 -47.5t16 -48t30 -41.5q34 -32 75.5 -43t74.5 -11h24q-54 54 -54 132q0 38 14 71.5t38.5 58t57 39t69.5 14.5q36 0 68.5 -14.5t57 -39t38.5 -58t14 -71.5zM613 -267q0 29 -11 55.5t-30 46
t-44.5 31t-53.5 11.5q-29 0 -54.5 -11.5t-44.5 -31t-30 -46t-11 -55.5q0 -23 7.5 -44t19.5 -38.5t28 -30.5t33 -19q8 -3 19 -4t33 -1q28 0 53.5 10.5t44.5 29t30 43.5t11 54z" />
    <glyph glyph-name="u103C_u103D.alt.wide" horiz-adv-x="172" 
d="M1054 -267q0 -38 -14 -71.5t-38.5 -58.5t-57 -39t-68.5 -14h-540q-54 0 -98 13.5t-87 54.5q-23 21 -38 47t-25 53t-14 52t-4 45v875q0 21 4 46.5t13.5 51.5t25 51.5t38.5 46.5q42 40 86.5 54.5t98.5 14.5h358v-51h-328q-21 0 -43.5 -1.5t-45.5 -6.5t-45 -15.5t-42 -28.5
q-21 -19 -34 -42t-21 -47.5t-11 -47.5t-3 -42v-840q0 -17 3 -40.5t10.5 -48.5t21 -49t34.5 -42q41 -36 87.5 -44t88.5 -8h385q-54 54 -54 132q0 38 14 71.5t38.5 58t57 39t69.5 14.5q36 0 68.5 -14.5t57 -39t38.5 -58t14 -71.5zM1015 -267q0 29 -11 55.5t-30 46t-44.5 31
t-53.5 11.5q-29 0 -55 -11.5t-45 -31t-30 -46t-11 -55.5q0 -21 7 -42t19.5 -38.5t29 -31t34.5 -20.5q11 -4 20 -4.5t31 -0.5q28 0 53.5 10.5t44.5 29t30 43.5t11 54z" />
    <glyph glyph-name="u103C_u102F.narr" horiz-adv-x="172" 
d="M648 742q0 10 -4.5 23.5t-12 28.5t-17.5 29.5t-22 26.5q-35 35 -78.5 44.5t-102.5 9.5h-54q-53 0 -100 -9t-82 -43q-18 -18 -28.5 -40.5t-16.5 -46.5t-7.5 -48.5t-1.5 -46.5v-837q0 -18 1.5 -41t7 -47t16.5 -48t29 -44q24 -27 48 -39.5t64 -12.5h31q39 0 63.5 6t35.5 16
q16 14 19 32.5t3 35.5v214h51v-213q0 -27 -6.5 -56.5t-30.5 -53.5q-18 -18 -49.5 -25t-61.5 -7h-62q-48 0 -81 16.5t-63 52.5q-20 22 -32.5 48.5t-20 52.5t-10.5 50.5t-3 44.5v875q0 19 2.5 44.5t9.5 52t20 52.5t34 47q44 44 95.5 56.5t104.5 12.5h97q53 0 103.5 -13
t94.5 -57q35 -36 51.5 -76.5t16.5 -66.5h-51zM586 -450v355h51v-304h83v-51h-134z" />
    <glyph glyph-name="u103C_u102F.wide" horiz-adv-x="172" 
d="M1000 -450v355h51v-304h83v-51h-134zM904 -305q0 -26 -3.5 -52t-20.5 -48q-7 -9 -16.5 -17t-25 -14.5t-38.5 -10t-56 -3.5h-408q-54 0 -98 14t-87 55q-23 21 -38 47t-25 52.5t-14 51.5t-4 45v875q0 19 4 44.5t13.5 52t25 52.5t38.5 47q42 40 86.5 54.5t98.5 14.5h517
q54 0 104 -13t94 -57q16 -17 28.5 -36.5t21 -39t13 -37t5.5 -30.5h-51q0 7 -4.5 20.5t-12 28.5t-17.5 30.5t-22 28.5q-18 19 -40.5 30t-46.5 16.5t-48 6.5t-45 1h-466q-42 0 -88.5 -8t-87.5 -44q-21 -18 -34.5 -41.5t-21 -48.5t-10.5 -49t-3 -43v-837q0 -17 3 -40.5
t10.5 -48.5t21 -49t34.5 -42q41 -36 87.5 -44t88.5 -8h363q50 0 72 7t36 23q10 12 13 34t3 48v192h51v-210z" />
    <glyph glyph-name="u103C_u102F.alt.narr" horiz-adv-x="172" 
d="M586 -450v355h51v-304h83v-51h-134zM490 -308q0 -27 -6 -57t-30 -54q-18 -18 -50 -24.5t-62 -6.5h-62q-48 0 -80.5 16.5t-63.5 52.5q-20 22 -32.5 48.5t-20 53t-10.5 51t-3 43.5v875q0 20 2.5 45.5t9.5 52t20 52t34 46.5q44 44 95.5 56.5t104.5 12.5h16v-51h-7
q-19 0 -40.5 -1.5t-44 -6.5t-44 -15.5t-40.5 -29.5q-20 -19 -31 -42.5t-16 -48t-6.5 -48t-1.5 -42.5v-837q0 -18 1.5 -41t7 -47t16.5 -48t29 -44q13 -14 24.5 -24t24.5 -16t30 -9t41 -3h23q39 0 63 5.5t36 16.5q16 14 19 33t3 35v214h51v-213z" />
    <glyph glyph-name="u103C_u102F.alt.wide" horiz-adv-x="172" 
d="M1000 -450v355h51v-304h83v-51h-134zM904 -305q0 -26 -3.5 -52t-20.5 -48q-7 -9 -16.5 -17t-25 -14.5t-38.5 -10t-56 -3.5h-408q-54 0 -98 14t-87 55q-23 21 -38 47t-25 52.5t-14 51.5t-4 45v875q0 19 4 44.5t13.5 52t25 52.5t38.5 47q42 40 86.5 54.5t98.5 14.5h358v-51
h-328q-42 0 -88.5 -8t-87.5 -44q-21 -18 -34.5 -41.5t-21 -48.5t-10.5 -49t-3 -43v-837q0 -17 3 -40.5t10.5 -48.5t21 -49t34.5 -42q41 -36 87.5 -44t88.5 -8h363q26 0 43.5 1.5t29.5 5.5t20 9.5t15 13.5q11 11 13.5 33.5t2.5 48.5v192h51v-210z" />
    <glyph glyph-name="u103D" unicode="&#x103d;" 
d="M-55 -267q0 -38 -14 -71.5t-38.5 -58.5t-57 -39t-68.5 -14q-37 0 -69.5 14t-57 39t-38.5 58.5t-14 71.5t14 71.5t38.5 58t57 39t69.5 14.5q36 0 68.5 -14.5t57 -39t38.5 -58t14 -71.5zM-94 -267q0 29 -11 55.5t-30 46t-44.5 31t-53.5 11.5q-29 0 -54.5 -11.5t-44.5 -31
t-30 -46t-11 -55.5t11 -55.5t30 -46t44.5 -31t54.5 -11.5q28 0 53.5 11.5t44.5 31t30 46t11 55.5z" />
    <glyph glyph-name="u103D_u103E" 
d="M-56 -267q0 -38 -14 -71.5t-38.5 -58.5t-56.5 -39t-68 -14q-35 0 -66 12.5t-55 34t-39.5 50.5t-19.5 63l-73 -117l-140 80l21 34l105 -58l102 166q33 54 72 77.5t93 23.5q38 0 70.5 -14.5t56 -39t37 -58t13.5 -71.5zM-95 -267q0 29 -11 55.5t-30 46t-44 31t-53 11.5
q-26 0 -51.5 -10t-45.5 -29t-32 -45.5t-12 -59.5q0 -29 11 -55.5t30 -46t45 -31t55 -11.5q30 0 55.5 11.5t43.5 31t28.5 46t10.5 55.5z" />
    <glyph glyph-name="u103D_u103E.small" 
d="M-110 -228q0 -30 -11 -57t-30.5 -47t-46 -31.5t-56.5 -11.5q-52 0 -91 33t-50 90l-55 -92l-101 59l20 31l69 -40l78 132q26 43 57 61t73 18q30 0 56 -11.5t45.5 -31t31 -46t11.5 -56.5zM-144 -228q0 21 -9 41t-24 35.5t-35 25t-42 9.5q-18 0 -37 -8.5t-35 -23t-26 -35
t-10 -44.5q0 -23 8.5 -43.5t23.5 -36t34.5 -24.5t41.5 -9t42 9t35 24.5t24 36t9 43.5z" />
    <glyph glyph-name="u103E" unicode="&#x103e;" 
d="M-189 -450v51h83v304h51v-355h-134z" />
    <glyph glyph-name="u103E.alt" 
d="M-156 -357l-126 45l18 49l75 -28l80 213l48 -18z" />
    <glyph glyph-name="u103E_u102F" 
d="M-174 -450v355h51v-304h83v-51h-134zM-405 -450v51h83v304h51v-355h-134z" />
    <glyph glyph-name="u103E_u1030" 
d="M-174 -450v355h51v-304h82v-51h-133zM-320 -450v355h51v-355h-51zM-548 -450v51h83v304h51v-355h-134z" />
    <glyph glyph-name="u103F" unicode="&#x103f;" horiz-adv-x="1411" 
d="M1356 222q0 -49 -18 -92t-49.5 -75.5t-74 -51t-91.5 -18.5q-67 0 -121 39.5t-87 102.5q-27 -63 -84 -102.5t-129 -39.5q-33 0 -63.5 11t-57.5 30t-49.5 45t-38.5 56q-28 -63 -86 -102.5t-131 -39.5q-35 0 -68 8.5t-62 26t-52.5 43t-38.5 58.5l45 26q27 -54 74.5 -82.5
t101.5 -28.5q40 0 74 15t59 40.5t39 60.5t14 74q0 37 -15 70.5t-40.5 58t-59.5 39t-71 14.5q-54 0 -101.5 -29.5t-74.5 -81.5l-45 25q13 32 36 57.5t52.5 43t63.5 27t69 9.5q48 0 91 -19t75.5 -50.5t51.5 -72.5t19 -86q0 -15 11 -47.5t34.5 -65.5t59 -57.5t84.5 -24.5
q39 0 72.5 15t57.5 41t37.5 60.5t13.5 73.5q0 31 -13 63.5t-36.5 59t-57 43t-74.5 16.5q-27 0 -51 -11l-20 47q31 15 71 15q52 0 95 -21t73.5 -54t47 -73.5t16.5 -79.5q0 -11 5 -29.5t16 -40.5t26.5 -44t36.5 -40t47 -29.5t58 -11.5q37 0 70.5 14.5t58 40t39 59t14.5 72.5
q0 38 -14.5 71.5t-39 59t-58 40.5t-70.5 15q-25 0 -49 -11l-21 47q31 15 70 15q49 0 91.5 -19t74 -51t49.5 -75.5t18 -91.5z" />
    <glyph glyph-name="u1040" unicode="&#x1040;" horiz-adv-x="576" 
d="M520 222q0 -49 -18 -92t-49.5 -75.5t-73.5 -51t-90 -18.5q-50 0 -92.5 18.5t-74 51t-49.5 75.5t-18 92q0 48 18 91.5t49.5 75.5t73.5 51t90 19q49 0 92 -19t74.5 -51t49.5 -75.5t18 -91.5zM469 222q0 38 -14 72t-38.5 59.5t-57.5 40t-70 14.5q-38 0 -71.5 -14.5
t-58.5 -40t-39 -59.5t-14 -72t14 -72t38.5 -59.5t57 -40t70.5 -14.5t71.5 14.5t58 40t39 59.5t14.5 72z" />
    <glyph glyph-name="u1041" unicode="&#x1041;" horiz-adv-x="576" 
d="M516 222q0 -49 -19 -92t-51 -75.5t-75 -51t-92 -18.5q-33 0 -66.5 8.5t-63 25.5t-53.5 42.5t-38 59.5l44 26q28 -54 75.5 -82.5t101.5 -28.5q38 0 72 14.5t59.5 40t40 59.5t14.5 72t-14.5 72t-40 59.5t-59.5 40t-72 14.5q-54 0 -101.5 -29t-75.5 -82l-44 25
q14 34 38 59.5t53.5 42.5t63 26t66.5 9q49 0 92 -19t75 -51t51 -75.5t19 -91.5z" />
    <glyph glyph-name="u1042" unicode="&#x1042;" horiz-adv-x="503" 
d="M448 -285q0 -33 -12 -63t-36.5 -52.5t-61.5 -36t-86 -13.5q-99 0 -148 50t-49 131h51q0 -37 12 -62t32.5 -40t46.5 -21.5t55 -6.5q28 0 54.5 7.5t46.5 23t32 40t12 59.5v714h51v-730z" />
    <glyph glyph-name="u1043" unicode="&#x1043;" horiz-adv-x="576" 
d="M516 222q0 -49 -19 -92t-51 -75.5t-75 -51t-92 -18.5q-44 0 -92 16l270 -451h-61l-312 526q-19 27 -26 45l44 26q28 -54 75.5 -82.5t101.5 -28.5q38 0 71.5 14.5t59 40t40.5 59t15 72.5q0 38 -15 71.5t-40.5 59t-59 40.5t-71.5 15q-54 0 -101.5 -29.5t-75.5 -81.5l-44 25
q15 33 38.5 58.5t52.5 43t62 26.5t68 9q49 0 92 -19t75 -51t51 -75.5t19 -91.5z" />
    <glyph glyph-name="u1044" unicode="&#x1044;" horiz-adv-x="576" 
d="M517 121q-12 -26 -27 -45l-310 -526h-62l270 451q-48 -16 -91 -16q-49 0 -92 18.5t-75.5 51t-51 75.5t-18.5 92q0 48 18.5 91.5t51 75.5t75.5 51t92 19q35 0 69 -9.5t63 -27t52 -43t36 -57.5l-43 -25q-29 52 -77 81.5t-100 29.5q-39 0 -72.5 -15t-59 -40.5t-40 -59
t-14.5 -71.5q0 -39 14.5 -72.5t40 -59t59 -40t72.5 -14.5q52 0 100 28.5t77 82.5l43 -26v0z" />
    <glyph glyph-name="u1045" unicode="&#x1045;" horiz-adv-x="576" 
d="M520 -216q0 -43 -16 -85t-46.5 -75t-74.5 -53.5t-100 -20.5q-52 0 -94 21t-72 54.5t-46 75.5t-16 84h51q0 -33 13 -66t36.5 -59t56 -42.5t71.5 -16.5t72.5 13.5t59 38t40 59t14.5 75.5v435q0 40 -14.5 74t-40 59t-59 39t-72.5 14q-45 0 -81.5 -22t-60.5 -56q21 6 45 1
t44 -19t33 -36.5t13 -50.5q0 -23 -9 -43.5t-24.5 -36t-35.5 -24.5t-42 -9q-23 0 -43 9.5t-35 25t-23.5 36t-8.5 42.5v9q2 40 19 80t46.5 72.5t70.5 52.5t92 20q56 0 100 -21t74.5 -55t46.5 -76.5t16 -84.5v-438zM225 225q0 24 -17.5 40.5t-42.5 16.5q-26 0 -42.5 -16.5
t-16.5 -40.5q0 -26 17.5 -44t41.5 -18t42 18t18 44z" />
    <glyph glyph-name="u1046" unicode="&#x1046;" horiz-adv-x="576" 
d="M520 220q0 -41 -16 -82.5t-46 -75.5t-72 -55.5t-94 -21.5q-56 0 -100 20.5t-74.5 53.5t-46.5 75t-16 85v438q0 42 16 84.5t46.5 76.5t74.5 55t100 21q52 0 94 -21t72 -55t46 -76t16 -84h-51q0 33 -13 66t-36 59.5t-56 43t-72 16.5q-38 0 -72 -14t-59.5 -39t-40 -59
t-14.5 -74v-435q0 -41 14.5 -75.5t40 -59t59.5 -38t72 -13.5q32 0 61 12.5t52 33t38.5 47t21.5 55.5l-153 48q-90 27 -90 108q0 22 8.5 42t23.5 35t34.5 24t42.5 9t43 -9t35 -24.5t23.5 -35.5t8.5 -41q0 -53 -39 -84zM390 340q0 26 -16.5 42.5t-42.5 16.5q-24 0 -41 -16.5
t-17 -42.5q0 -25 17 -43t41 -18q26 0 42.5 18t16.5 43z" />
    <glyph glyph-name="u1047" unicode="&#x1047;" horiz-adv-x="576" 
d="M421 -414q-21 -23 -40 -29.5t-45 -6.5q-36 0 -58.5 18t-35.5 42.5t-17.5 49t-4.5 38.5q0 42 18.5 89.5t46 97t60 98l60 93t46 82t18.5 64.5q0 51 -18 86.5t-45.5 57.5t-59.5 32t-60 10q-43 0 -76.5 -17.5t-56.5 -44.5t-35 -60t-12 -64h-51q0 39 15 80.5t44 76.5
t72.5 57.5t99.5 22.5q37 0 78.5 -15t76 -45t57 -74.5t22.5 -102.5q0 -29 -18.5 -69.5t-46 -86.5t-60 -95.5t-60 -98t-46 -93.5t-18.5 -81q0 -5 2.5 -20.5t10 -32.5t20 -30.5t32.5 -13.5q17 0 29.5 6.5t21.5 15.5l34 -37v0z" />
    <glyph glyph-name="u1048" unicode="&#x1048;" horiz-adv-x="585" 
d="M529 202q0 -42 -7 -75t-20 -59t-31 -46t-39 -37l-30 43q34 32 55 74.5t21 99.5q0 45 -14.5 82.5t-40 64.5t-59 42t-72.5 15q-68 0 -114 -40q45 -36 66 -77.5t21 -104.5q0 -21 -3.5 -45t-13 -49.5t-26 -52t-42.5 -52.5q-21 16 -43 36t-40.5 46.5t-30 59.5t-11.5 75
q0 58 18.5 105t51 80.5t75.5 51.5t92 18t92 -18t75.5 -51.5t51 -80.5t18.5 -105zM214 184q0 48 -18.5 82t-53.5 59q-16 -24 -26 -55.5t-10 -67.5q0 -43 21 -76t50 -62q22 35 29.5 65.5t7.5 54.5z" />
    <glyph glyph-name="u1049" unicode="&#x1049;" horiz-adv-x="576" 
d="M520 -185q0 -57 -16 -105.5t-46 -84t-72 -55.5t-94 -20q-56 0 -100 21t-74.5 54.5t-46.5 76t-16 85.5v438q0 42 16 84t46.5 75.5t74.5 54t100 20.5q53 0 95 -20t71.5 -56t45.5 -84.5t16 -105.5l-118 -36q39 -35 39 -84q0 -23 -9 -42.5t-24 -34.5t-35 -23.5t-42 -8.5
q-23 0 -42.5 8.5t-34.5 23.5t-23.5 34.5t-8.5 42.5q0 83 90 110l154 46q-9 81 -55.5 130t-118.5 49q-38 0 -72 -14t-59.5 -39t-40 -59t-14.5 -74v-435q0 -41 14.5 -75.5t40 -59t59.5 -38t72 -13.5q39 0 71.5 15t56 42.5t36.5 67t13 89.5h51zM390 73q0 26 -17.5 43t-41.5 17
t-41 -17t-17 -43q0 -24 16.5 -41t41.5 -17q26 0 42.5 17t16.5 41z" />
    <glyph glyph-name="u104A" unicode="&#x104a;" horiz-adv-x="162" 
d="M55 0v444h51v-444h-51z" />
    <glyph glyph-name="u104B" unicode="&#x104b;" horiz-adv-x="310" 
d="M204 0v444h51v-444h-51zM55 0v444h51v-444h-51z" />
    <glyph glyph-name="u104C" unicode="&#x104c;" horiz-adv-x="568" 
d="M513 222q0 -49 -19 -92t-51 -75.5t-75 -51t-92 -18.5q-45 0 -90 16t-80 48v-109q42 -22 83.5 -34.5t86.5 -12.5q57 0 108 18t99 48v-234q0 -39 -16.5 -71t-33.5 -49q-6 -6 -17 -15.5t-27 -18t-36.5 -15t-45.5 -6.5h-151q-25 0 -44 9t-31.5 23t-19 32.5t-6.5 38.5
q0 19 7 37t21.5 32.5t35 23.5t47.5 9q41 0 63 -22l-34 -39q-16 10 -29 10q-30 0 -45 -14.5t-15 -36.5q0 -18 13 -35t37 -17h121q24 0 40.5 1.5t29 5.5t23 11.5t23.5 18.5q21 18 30 44.5t9 53.5v139q-38 -17 -77.5 -25t-78.5 -8q-60 0 -115 18.5t-106 50.5v210l45 26
q27 -54 74.5 -82.5t101.5 -28.5q38 0 72 14.5t59.5 40t40 59.5t14.5 72t-14.5 72t-40 59.5t-59.5 40t-72 14.5q-54 0 -101.5 -28.5t-74.5 -82.5l-45 25q14 34 38 59.5t53.5 42.5t63 26t66.5 9q49 0 92 -19t75 -51t51 -75.5t19 -91.5zM469 802q-23 35 -52.5 48.5t-55.5 13.5
q-25 0 -49.5 -10t-44.5 -29t-32.5 -45.5t-12.5 -59.5q0 -41 18 -69.5t42 -46t48 -25.5t36 -8v-39q-28 0 -60 12t-59.5 36t-45.5 59t-18 81q0 40 15 74t40 58t57 37.5t66 13.5q45 0 82.5 -21t54.5 -56z" />
    <glyph glyph-name="u104D" unicode="&#x104d;" horiz-adv-x="766" 
d="M696 -275q0 -39 -17 -71t-34 -49q-6 -6 -17 -15.5t-26.5 -18t-36 -15t-45.5 -6.5h-349q-24 0 -43 9t-32 23t-19.5 32.5t-6.5 38.5q0 19 7.5 37t21.5 32.5t35 23.5t47 9q41 0 63 -22l-34 -39q-16 10 -29 10q-30 0 -45 -14.5t-15 -36.5q0 -18 13.5 -35t36.5 -17h319
q25 0 41 1.5t28 5.5t22 11.5t23 18.5q22 18 31.5 44.5t9.5 53.5v654q0 42 -18 71t-45.5 52t-59 43t-59 43t-45.5 53t-18 74q0 37 14.5 69.5t39 56.5t57.5 38t69 14q28 0 50.5 -8t38.5 -21t26.5 -28.5t15.5 -30.5l-47 -20q-8 26 -32.5 41.5t-51.5 15.5q-26 0 -49.5 -9.5
t-41 -27t-28 -40.5t-10.5 -50q0 -34 18 -58.5t45.5 -45.5t59 -41t59 -46t45.5 -60.5t18 -84.5v-665zM481 -306v508q0 46 -15 84t-41 65t-60.5 42t-72.5 15q-37 0 -70 -14t-58 -38.5t-40.5 -57t-17.5 -68.5q38 8 75.5 2t70.5 -22q34 -17 57 -38t39.5 -46t28 -55t22.5 -64
q-47 -22 -107 -22q-49 0 -92 18.5t-75.5 51t-51 75.5t-18.5 92q0 48 18.5 90.5t51 74.5t75.5 51t92 19t92.5 -18.5t76.5 -52t52 -80.5t19 -104v-508h-51zM333 39q-15 43 -38.5 75t-65.5 51q-29 13 -58.5 15t-58.5 -3q7 -30 24 -56t40.5 -44.5t53 -29.5t62.5 -11
q13 0 21.5 0.5t19.5 2.5z" />
    <glyph glyph-name="u104E" unicode="&#x104e;" horiz-adv-x="568" 
d="M462 -450v499q-35 -32 -80 -48t-90 -16q-49 0 -92 18.5t-75.5 51t-51 75.5t-18.5 92q0 48 18.5 91.5t51 75.5t75.5 51t92 19q33 0 66.5 -9t63 -26t53.5 -42.5t38 -59.5l-44 -25q-28 54 -75.5 82.5t-101.5 28.5q-38 0 -72 -14.5t-59.5 -40t-40 -59.5t-14.5 -72t14.5 -72
t40 -59.5t59.5 -40t72 -14.5q54 0 101.5 28.5t75.5 82.5l44 -26v-571h-51z" />
    <glyph glyph-name="u104F" unicode="&#x104f;" horiz-adv-x="912" 
d="M627 0v319q0 48 -20.5 68.5t-51.5 20.5q-44 0 -77 -33q25 -31 41 -68q-23 -15 -42.5 -25t-37.5 -16t-36.5 -8.5t-39.5 -2.5q-67 0 -114.5 28t-82.5 75q-30 -25 -45 -62t-15 -74q0 -39 16 -75t44 -62q34 48 85.5 76t114.5 28q22 0 45 -5t44 -13t37.5 -17t27.5 -18
q-12 -27 -31 -54t-46.5 -48.5t-64.5 -35t-86 -13.5t-92 18.5t-75.5 51t-51 75.5t-18.5 92q0 48 18.5 91.5t51 75.5t75.5 51t92 19q81 0 147 -48q26 25 56 36.5t60 11.5q34 0 57.5 -11t38 -29.5t21 -44t6.5 -55.5v-319h-51zM790 0v390q0 42 -18 71t-45 51.5t-59 42.5
t-59 43.5t-45 53.5t-18 74q0 37 14 69.5t38.5 56.5t57.5 38t70 14q46 0 79.5 -21.5t50.5 -66.5l-46 -20q-8 26 -32.5 41.5t-51.5 15.5q-26 0 -49.5 -9.5t-41 -26.5t-28 -40.5t-10.5 -50.5q0 -35 18 -59t45 -45t59 -41t59 -45.5t45 -60.5t18 -85v-390h-51zM456 121
q-25 13 -46 20t-44 7q-58 0 -95 -24.5t-66 -66.5q45 -21 87 -21q51 0 94 21t70 64zM456 322q-26 44 -71.5 65t-92.5 21q-27 0 -46.5 -6t-40.5 -15q27 -42 64.5 -66.5t93.5 -24.5q22 0 46 6.5t47 19.5z" />
    <glyph glyph-name="u1050" unicode="&#x1050;" horiz-adv-x="585" 
d="M529 202q0 -42 -7 -74.5t-20 -58.5t-30.5 -46.5t-39.5 -37.5l-30 43q35 32 55.5 74.5t20.5 99.5q0 45 -14.5 82.5t-40 64.5t-59.5 42t-72 15t-72 -15t-59.5 -42t-40 -64.5t-14.5 -82.5q0 -57 21 -99.5t56 -74.5l-30 -43q-21 17 -39 37.5t-31 46.5t-20.5 58.5t-7.5 74.5
q0 57 18.5 104t51 80.5t75.5 52t92 18.5t92 -18.5t75.5 -52t51 -80.5t18.5 -104zM389 202q0 -19 -7.5 -37t-20.5 -32t-31 -22.5t-38 -8.5t-37.5 8t-31 22t-21.5 32t-8 38q0 19 8 37t21.5 31t31 21t37.5 8q19 0 37 -8t31 -21t21 -31t8 -37zM352 202q0 25 -17.5 42.5
t-42.5 17.5q-26 0 -43.5 -17.5t-17.5 -42.5q0 -26 17.5 -44t43.5 -18q25 0 42.5 18t17.5 44z" />
    <glyph glyph-name="u1050.med" 
d="M-55 -285q0 -33 -5.5 -58.5t-16 -45.5t-24.5 -36t-30 -30l-23 34q27 25 43 58t16 78q0 34 -11.5 63.5t-31.5 50.5t-46.5 33t-55.5 12q-30 0 -56.5 -12t-46 -33t-31 -50.5t-11.5 -63.5q0 -45 16 -78t44 -58l-24 -34q-16 14 -30 30t-24 36t-16 45.5t-6 58.5q0 44 14.5 80.5
t39.5 62.5t59 40.5t72 14.5t71.5 -14.5t59 -40.5t40 -62.5t14.5 -80.5zM-165 -285q0 -32 -22.5 -55t-52.5 -23q-15 0 -29 6t-24.5 16.5t-17 25t-6.5 30.5q0 30 23 52.5t54 22.5q30 0 52.5 -22.5t22.5 -52.5zM-193 -285q0 19 -14 32.5t-33 13.5q-21 0 -34.5 -13.5
t-13.5 -32.5q0 -21 13.5 -35t34.5 -14q19 0 33 14t14 35z" />
    <glyph glyph-name="u1051" unicode="&#x1051;" horiz-adv-x="585" 
d="M529 240q0 -57 -18.5 -104t-51 -80.5t-75.5 -52t-92 -18.5t-92 18.5t-75.5 52t-51 80.5t-18.5 104q0 42 7.5 74.5t20.5 58.5t31 46.5t39 37.5l30 -43q-35 -32 -56 -74.5t-21 -99.5q0 -45 14.5 -82.5t40 -64.5t59.5 -42t72 -15t72 15t59.5 42t40 64.5t14.5 82.5
q0 57 -20.5 99.5t-55.5 74.5l30 43q22 -17 39.5 -37.5t30.5 -46.5t20 -58.5t7 -74.5zM389 240q0 -19 -7.5 -37t-20.5 -32t-31 -22.5t-38 -8.5t-37.5 8t-31 22t-21.5 32t-8 38q0 19 8 37t21.5 31t31 21t37.5 8q19 0 37 -8t31 -21t21 -31t8 -37zM352 240q0 25 -17.5 42.5
t-42.5 17.5q-26 0 -43.5 -17.5t-17.5 -42.5q0 -26 17.5 -44t43.5 -18q25 0 42.5 18t17.5 44z" />
    <glyph glyph-name="u1051.med" 
d="M-55 -257q0 -44 -14.5 -80.5t-40 -62.5t-59 -40.5t-71.5 -14.5t-72 14.5t-59 40.5t-39.5 62.5t-14.5 80.5q0 33 6 58.5t16 45.5t24 36t30 30l24 -34q-28 -25 -44 -58t-16 -78q0 -35 11.5 -64t31 -50t46 -33t56.5 -12q29 0 55.5 12t46.5 33t31.5 50t11.5 64q0 45 -16 78
t-43 58l23 34q16 -14 30 -30t24.5 -36t16 -45.5t5.5 -58.5zM-165 -257q0 -30 -22.5 -52.5t-52.5 -22.5q-31 0 -54 22.5t-23 52.5q0 16 6.5 30.5t17 25t24.5 16.5t29 6q30 0 52.5 -23t22.5 -55zM-193 -257q0 21 -14 35t-33 14q-21 0 -34.5 -14t-13.5 -35q0 -19 13.5 -32.5
t34.5 -13.5q19 0 33 13.5t14 32.5z" />
    <glyph glyph-name="u1051_u100C" horiz-adv-x="568" 
d="M529 240q0 -57 -18.5 -104t-51 -80.5t-75.5 -52t-92 -18.5t-92 18.5t-75.5 52t-51 80.5t-18.5 104q0 41 7.5 73.5t20.5 58.5t31 47t39 38l30 -43q-35 -32 -56 -74.5t-21 -99.5q0 -45 14.5 -82.5t40 -64.5t59.5 -42t72 -15t72 15t59.5 42t40 64.5t14.5 82.5
q0 57 -20.5 99.5t-55.5 74.5l30 43q44 -35 70.5 -85t26.5 -132zM364 240q0 -32 -22.5 -54t-52.5 -22q-31 0 -53 22t-22 54t22 53.5t53 21.5q30 0 52.5 -21.5t22.5 -53.5zM498 -275q0 -39 -17 -71t-34 -49q-6 -6 -17 -15.5t-26.5 -18t-36 -15t-45.5 -6.5h-166q-25 0 -44 9
t-31.5 23t-19 32.5t-6.5 38.5q0 19 7 37t21.5 32.5t35 23.5t47.5 9q41 0 63 -22l-34 -39q-16 10 -29 10q-30 0 -45 -14.5t-15 -36.5q0 -18 12 -35t38 -17h136q25 0 41 1.5t28 5.5t22 11.5t23 18.5q22 18 31.5 44.5t9.5 53.5v141q-36 -17 -73 -26t-82 -9q-55 0 -107 15
t-100 45v57q48 -29 97.5 -47.5t109.5 -18.5q30 0 55 4.5t49.5 13t49 20.5l52.5 27v-233z" />
    <glyph glyph-name="u1051_u100D" horiz-adv-x="568" 
d="M529 240q0 -57 -18.5 -104t-51 -80.5t-75.5 -52t-92 -18.5t-92 18.5t-75.5 52t-51 80.5t-18.5 104q0 41 7.5 73.5t20.5 58.5t31 47t39 38l30 -43q-35 -32 -56 -74.5t-21 -99.5q0 -45 14.5 -82.5t40 -64.5t59.5 -42t72 -15t72 15t59.5 42t40 64.5t14.5 82.5
q0 57 -20.5 99.5t-55.5 74.5l30 43q44 -35 70.5 -85t26.5 -132zM364 240q0 -32 -22.5 -54t-52.5 -22q-31 0 -53 22t-22 54t22 53.5t53 21.5q30 0 52.5 -21.5t22.5 -53.5zM447 -450v327q-38 -17 -74 -26t-81 -9q-55 0 -107 15t-100 45v57q48 -29 97.5 -47.5t109.5 -18.5
q30 0 55 4.5t49.5 13t49 20.5l52.5 27v-357h76v-51h-127z" />
    <glyph glyph-name="u1052" unicode="&#x1052;" horiz-adv-x="577" 
d="M522 168q0 -30 -16 -62.5t-46 -59t-72.5 -44t-95.5 -17.5q-50 0 -93 18.5t-75 52t-50.5 80.5t-18.5 104q0 82 26.5 132t71.5 85l30 -43q-35 -32 -56 -74.5t-21 -99.5q0 -45 14.5 -82.5t40 -64.5t59.5 -42t72 -15q48 0 82 17.5t55.5 40t31.5 44t10 30.5q0 33 -22 50.5
t-48 32t-48 33.5t-22 55q0 28 8.5 50t23 37t33.5 22.5t39 7.5q29 0 55 -17t32 -37l-44 -27q-2 10 -15 20t-28 10q-19 0 -36 -14.5t-17 -51.5q0 -13 10.5 -22.5t26 -18l33.5 -18t33.5 -24t26 -35.5t10.5 -53z" />
    <glyph glyph-name="u1053" unicode="&#x1053;" horiz-adv-x="630" 
d="M531 376q-2 2 -5 7t-8 10t-12.5 9t-18.5 4q-18 0 -35 -14t-17 -52q0 -20 17 -32l37.5 -27t37.5 -40.5t17 -72.5q0 -30 -16 -62.5t-45.5 -59t-72 -44t-95.5 -17.5t-95.5 17.5t-72.5 44t-46 59t-16 62.5q0 47 17 72.5t38 40.5l38 27t17 32q0 37 -17.5 51.5t-35.5 14.5
q-11 0 -18 -4t-12.5 -9t-8.5 -10t-4 -7l-44 27q2 6 8.5 15.5t17.5 18t26 14.5t35 6t39 -7.5t33.5 -22t23 -36.5t8.5 -51q0 -24 -8 -40t-20.5 -28t-26.5 -21.5t-26.5 -20.5t-20.5 -25.5t-8 -36.5q0 -9 10 -31t31.5 -44.5t55.5 -39.5t82 -17t82 17t55.5 39.5t31 44.5t9.5 31
q0 22 -8 36.5t-20 25.5t-26.5 20.5t-26.5 21.5t-20 28t-8 40q0 29 8.5 51t22.5 36.5t33 22t39 7.5t35 -6t26 -14.5t17.5 -18t8.5 -15.5z" />
    <glyph glyph-name="u1054" unicode="&#x1054;" horiz-adv-x="576" 
d="M520 291q-26 -14 -46.5 -23.5t-38.5 -15.5t-34.5 -9t-35.5 -3q-31 0 -61.5 8.5t-57.5 23.5t-49.5 36t-38.5 45q-24 -26 -38 -59t-14 -72q0 -38 14.5 -71.5t40 -59t59 -40.5t72.5 -15q55 0 101.5 29t75.5 82l43 -25q-31 -67 -91 -102t-129 -35q-49 0 -92 19t-75.5 51
t-51 75.5t-18.5 91.5q0 49 18.5 92t51 75.5t75.5 51t92 18.5q59 0 101.5 -19.5t70 -46.5t41 -55.5t15.5 -46.5zM460 317q-27 48 -72 69.5t-96 21.5q-26 0 -47.5 -6t-42.5 -16q27 -45 69 -70t91 -25q41 0 98 26z" />
    <glyph glyph-name="u1055" unicode="&#x1055;" horiz-adv-x="576" 
d="M520 291q-42 -22 -77.5 -35.5t-77.5 -13.5q-64 0 -118.5 30t-88.5 81q-24 -26 -38 -59t-14 -72q0 -28 7.5 -60.5t21 -60t32 -46.5t41.5 -19q11 0 19 17l17 38t22 38.5t36 17.5q22 0 35.5 -17.5t22.5 -38l17 -38t19 -17.5q10 0 19.5 7.5t17.5 19.5t14.5 26t10.5 27l47 -20
q-6 -19 -16 -38.5t-23.5 -35.5t-31 -26.5t-38.5 -10.5q-26 0 -41.5 17.5t-24.5 38t-15 38t-13 17.5q-8 0 -14 -17.5t-15.5 -38t-25 -38t-41.5 -17.5q-35 0 -63 22.5t-47.5 57t-30 76.5t-10.5 81q0 49 18.5 92t51 75.5t75.5 51t92 18.5q59 0 101.5 -19.5t70 -46.5t41 -55.5
t15.5 -46.5zM460 317q-27 48 -72 69.5t-96 21.5q-26 0 -47.5 -6t-42.5 -16q28 -46 69 -69.5t91 -23.5q21 0 45.5 5.5t52.5 18.5z" />
    <glyph glyph-name="u1056" unicode="&#x1056;" horiz-adv-x="502" 
d="M447 175q0 -50 -16.5 -86t-43.5 -59t-62.5 -33.5t-73.5 -10.5q-21 0 -47.5 5t-54 18.5t-52.5 36t-42 58.5l43 29q11 -26 29 -44.5t39 -30t43 -17t40 -5.5q23 0 49 6t47.5 22t36 43t14.5 68q0 28 -14.5 44.5t-36 27t-46.5 19t-46.5 20.5t-36 30t-14.5 48q0 24 8.5 42
t21 30t28 18t30.5 6q10 0 23 -1.5t27.5 -6.5t29 -14.5t27.5 -25.5l-33 -39q-15 13 -25.5 20.5t-18.5 11t-15 4t-15 0.5q-15 0 -26 -13t-11 -32q0 -16 14.5 -25.5t36 -17.5l46.5 -17.5t46.5 -25t36 -40.5t14.5 -63z" />
    <glyph glyph-name="u1057" unicode="&#x1057;" horiz-adv-x="511" 
d="M456 175q0 -30 -9 -63.5t-24 -61.5t-33.5 -46.5t-36.5 -18.5q-26 0 -41 17.5t-24.5 38t-16 38t-13.5 17.5q-8 0 -13.5 -17.5t-14.5 -38t-24.5 -38t-41.5 -17.5q-19 0 -36 9t-30.5 24.5t-24.5 35.5t-18 42l47 20q12 -36 28.5 -58t33.5 -22q11 0 19 17.5l17 38t22 38
t36 17.5q22 0 35.5 -17.5t22.5 -38l17 -38t19 -17.5q9 0 18.5 14.5t17 36t12.5 45.5t5 43q0 28 -14.5 44.5t-36 27t-46.5 19t-46.5 20.5t-36 30t-14.5 48q0 24 8.5 42t21 30t28 18t30.5 6q10 0 23 -1.5t27.5 -6.5t29 -14.5t27.5 -25.5l-33 -39q-15 13 -25.5 20.5t-18.5 11
t-15 4t-15 0.5q-15 0 -26 -13t-11 -32q0 -16 14.5 -25.5t36 -17.5l46.5 -17.5t46.5 -25t36 -40.5t14.5 -63z" />
    <glyph glyph-name="u1058" unicode="&#x1058;" horiz-adv-x="1" 
d="M-112 -214q-33 -18 -60.5 -29.5t-58.5 -11.5q-20 0 -43.5 6.5t-45.5 18.5t-40 28.5t-28 35.5q-42 -42 -42 -101q0 -29 11 -55t30.5 -45.5t45 -30.5t55.5 -11q42 0 78.5 21.5t58.5 63.5l33 -21q-11 -25 -29.5 -44.5t-41.5 -33t-48.5 -20.5t-50.5 -7q-38 0 -70.5 14.5
t-57.5 39t-39 58t-14 71.5t14 71.5t39 58t57.5 39t70.5 14.5q45 0 78 -15t54.5 -36t32.5 -43t11 -36zM-156 -198q-17 36 -54.5 55t-77.5 19q-19 0 -37.5 -5t-35.5 -13q8 -17 22 -31t31.5 -24t37 -16t39.5 -6t38.5 5.5t36.5 15.5z" />
    <glyph glyph-name="u1059" unicode="&#x1059;" horiz-adv-x="1" 
d="M-118 -213q-32 -17 -59.5 -27.5t-59.5 -10.5q-52 0 -92.5 23.5t-66.5 62.5q-19 -20 -29.5 -46t-10.5 -56q0 -21 5.5 -46t16 -46.5t25 -36t31.5 -14.5q9 0 14.5 13.5t13 29t17.5 29t28 13.5q17 0 27.5 -13.5t17.5 -29t12.5 -29t14.5 -13.5q8 0 16.5 9.5t16.5 22.5t14 27.5
t9 25.5l33 -19q-4 -16 -12 -34.5t-20 -34.5t-26.5 -26.5t-30.5 -10.5q-20 0 -32 13.5t-19 29.5t-11 29.5t-10 13.5t-10.5 -13.5t-12 -29.5t-19.5 -29.5t-32 -13.5q-27 0 -48.5 17t-37 44t-23.5 59.5t-8 62.5q0 38 14.5 71.5t39 58t58 39t71.5 14.5q45 0 78 -15t54 -35.5
t31.5 -42.5t11.5 -36zM-164 -193q-21 37 -55.5 53.5t-73.5 16.5q-20 0 -36.5 -4.5t-32.5 -12.5q44 -71 123 -71q16 0 35 4t40 14z" />
    <glyph glyph-name="u105A" unicode="&#x105a;" horiz-adv-x="568" 
d="M513 121q-14 -34 -38 -59.5t-53.5 -42.5t-63 -25.5t-66.5 -8.5q-49 0 -92 18.5t-75.5 51t-51 75.5t-18.5 92q0 48 18.5 91.5t51 75.5t75.5 51t92 19q33 0 66.5 -9t63 -26t53.5 -42.5t38 -59.5l-44 -25q-28 54 -75.5 82.5t-101.5 28.5q-38 0 -72 -14.5t-59.5 -40
t-40 -59.5t-14.5 -72t14.5 -72t40 -59.5t59.5 -40t72 -14.5q54 0 101.5 28.5t75.5 82.5zM380 -192q0 -21 -15 -44t-32.5 -46.5t-32.5 -46.5t-15 -44q0 -10 6 -18t20 -8q15 0 28 11l14 -45q-7 -7 -18 -12t-24 -5q-14 0 -28 3.5t-25 12t-18 23.5t-7 38q0 28 15 56t33.5 52.5
l33.5 43.5t15 29q0 26 -13 33t-27 7q-17 0 -27 -11.5t-10 -28.5h-50q0 15 5.5 31t16.5 29.5t27 22t38 8.5q15 0 31 -4.5t29 -15.5t21.5 -28.5t8.5 -42.5z" />
    <glyph glyph-name="u105A.med" 
d="M-56 -192q0 -21 -15 -44t-32.5 -46.5t-32.5 -46.5t-15 -44q0 -10 6 -18t20 -8q15 0 28 11l14 -45q-7 -7 -18 -12t-24 -5q-14 0 -28 3.5t-25 12t-18 23.5t-7 38q0 28 15 56t33.5 52.5l33.5 43.5t15 29q0 26 -13 33t-27 7q-17 0 -27 -11.5t-10 -28.5h-50q0 15 5.5 31
t16.5 29.5t27 22t38 8.5q15 0 31 -4.5t29 -15.5t21.5 -28.5t8.5 -42.5z" />
    <glyph glyph-name="u105B" unicode="&#x105b;" horiz-adv-x="721" 
d="M353 -369v362q-32 -8 -67 -8q-51 0 -93 18.5t-73 51t-48 75.5t-17 92q0 48 18 91t49.5 75.5t73.5 51.5t90 19q46 0 83 -14.5t62.5 -39t39.5 -58.5t16 -73q26 -29 45.5 -60l35.5 -58l-40 -29l-26 43l-28 44q-17 -30 -48.5 -45.5t-64.5 -15.5q-20 0 -38.5 5.5t-32.5 16
t-22.5 27t-8.5 38.5q0 45 27 72.5t75 27.5q15 0 30.5 -3.5t32.5 -11.5q-12 32 -44.5 57.5t-90.5 25.5q-39 0 -72.5 -15.5t-58 -41t-38.5 -59.5t-14 -70q0 -40 14 -74t38 -59t57 -39t71 -14q44 0 76 14.5t67 46.5l33 -40q-15 -14 -29.5 -25t-28.5 -19v-342l211 -55v828h51
v-894zM436 261q-17 14 -34.5 21t-40.5 7t-37 -11.5t-14 -37.5q0 -17 15 -26.5t36 -9.5q25 0 48 12t27 45z" />
    <glyph glyph-name="u105B.med" horiz-adv-x="162" 
d="M-103 -396q-27 -17 -52 -28t-62 -11q-39 0 -72 14t-57 39t-37.5 58.5t-13.5 71.5q0 37 14 70.5t39 58.5t57.5 39.5t70.5 14.5q35 0 63.5 -11t48 -30t30 -44.5t10.5 -55.5q20 -23 35.5 -46.5t27.5 -46.5l-31 -23l-19.5 33.5t-22.5 34.5q-14 -23 -37.5 -35t-49.5 -12
q-31 0 -54.5 15.5t-23.5 50.5t20 56.5t58 21.5q25 0 49 -12q-9 24 -33 43.5t-71 19.5q-30 0 -56 -11.5t-45 -31t-29.5 -45.5t-10.5 -54q0 -32 10.5 -58t29.5 -45t44.5 -29.5t55.5 -10.5q18 0 32.5 3t28 9.5t27.5 16.5l31 23l153 -41v828h51v-894zM-104 -222q-13 12 -26.5 17
t-30.5 5q-39 0 -39 -39q0 -12 11 -19.5t28 -7.5q18 0 35.5 10t21.5 34z" />
    <glyph glyph-name="u105C" unicode="&#x105c;" horiz-adv-x="575" 
d="M520 222q0 -50 -18 -93t-49.5 -75.5t-73 -51t-89.5 -18.5q-50 0 -92.5 18.5t-74.5 51t-50 75.5t-18 93q0 48 18 91t49 75.5t73.5 51.5t90.5 19q49 0 92 -19t74.5 -51.5t49.5 -75.5t18 -91zM469 222q0 37 -14 71t-38.5 59.5t-57 40.5t-69.5 15q-39 0 -72 -15t-58 -40.5
t-39 -59.5t-14 -71q0 -39 14 -73t38 -59t56.5 -39.5t70.5 -14.5q39 0 72 14.5t58 39.5t39 59t14 73zM387 222q0 -20 -8 -38.5t-21 -32t-31 -21.5t-37 -8q-20 0 -37.5 8t-31 22t-21.5 32t-8 38q0 19 8 37t21.5 31t31 21t37.5 8q19 0 37 -8t31 -21t21 -31t8 -37zM350 222
q0 25 -17.5 42.5t-42.5 17.5q-26 0 -43.5 -17.5t-17.5 -42.5q0 -26 17.5 -44t43.5 -18q25 0 42.5 18t17.5 44z" />
    <glyph glyph-name="u105C.med" 
d="M-56 -267q0 -38 -14 -71.5t-38 -58t-56 -39t-69 -14.5q-38 0 -71 14.5t-57.5 39t-38.5 58t-14 71.5q0 37 14 70t38 58t56.5 39.5t69.5 14.5q38 0 71 -14.5t57 -39.5t38 -58t14 -70zM-95 -267q0 29 -11 55t-29.5 45.5t-44 31t-53.5 11.5q-30 0 -55.5 -11.5t-44.5 -31
t-30 -45.5t-11 -55q0 -30 11 -56t29.5 -45.5t43.5 -30.5t54 -11q30 0 55.5 11t44.5 30.5t30 45.5t11 56zM-158 -267q0 -31 -22.5 -54t-52.5 -23q-31 0 -53 23t-22 54q0 30 22 52.5t53 22.5q30 0 52.5 -22.5t22.5 -52.5zM-187 -267q0 19 -13.5 32.5t-32.5 13.5
q-20 0 -33.5 -13.5t-13.5 -32.5q0 -20 13.5 -34t33.5 -14q19 0 32.5 14t13.5 34z" />
    <glyph glyph-name="u105D" unicode="&#x105d;" horiz-adv-x="584" 
d="M529 -265q0 -41 -14.5 -74.5t-39 -58.5t-58 -38.5t-70.5 -13.5h-160q-24 0 -43 9t-32 23t-19.5 32.5t-6.5 38.5q0 19 7.5 37t21.5 32.5t35 23.5t47 9q41 0 63 -22l-34 -39q-16 10 -29 10q-30 0 -45 -14.5t-15 -36.5q0 -18 13.5 -35t36.5 -17h156q36 0 61.5 12.5t42 32.5
t24 43.5t7.5 46.5v340q-33 -45 -83 -68t-103 -23q-49 0 -92 18t-75.5 51.5t-51 80.5t-18.5 105q0 82 28 132.5t70 84.5l30 -43q-35 -32 -56 -74.5t-21 -99.5q0 -43 17 -89q40 39 84.5 55t84.5 16q42 0 86.5 -15t83.5 -54q16 41 16 87q0 57 -21 99.5t-55 74.5l30 43
q43 -34 70 -84.5t27 -132.5v-505zM436 106q-40 39 -79 52t-65 13q-12 0 -28.5 -3t-35.5 -10.5t-39 -20t-39 -32.5q25 -33 62 -51t80 -18q90 0 144 70z" />
    <glyph glyph-name="u105E" unicode="&#x105e;" 
d="M51 -293q-27 18 -54 27t-52 13v-107q0 -51 -19.5 -70.5t-68.5 -19.5q-8 0 -29 4.5t-43 18t-38.5 38t-16.5 64.5q0 37 15.5 61t39.5 38t53 19.5t56 6.5v105h51v-107q35 -5 65.5 -19t60.5 -42zM-106 -251q-19 -1 -39 -4.5t-36.5 -11.5t-27 -22t-10.5 -36q0 -15 6.5 -28.5
t17.5 -23.5t24.5 -16t27.5 -6q23 0 30 10.5t7 29.5v108z" />
    <glyph glyph-name="u105F" unicode="&#x105f;" 
d="M61 -387q-37 -34 -75 -48.5t-86 -14.5q-20 0 -49 3t-56 15.5t-46 37.5t-19 69q0 40 18.5 65t45 38t54.5 17.5t46 4.5v105h51v-159q-17 3 -45 3q-19 0 -40 -3t-38.5 -11.5t-29 -23t-11.5 -36.5q0 -24 11 -38.5t28.5 -22.5t38.5 -10.5t41 -2.5q29 0 66.5 8.5t74.5 33.5
l20 -30v0z" />
    <glyph glyph-name="u1060" unicode="&#x1060;" 
d="M-384 -450l195 355h57l-165 -304h242v-51h-329z" />
    <glyph glyph-name="u1061" unicode="&#x1061;" horiz-adv-x="588" 
d="M481 -450v652q0 46 -15 84t-41 65t-60.5 42t-72.5 15q-37 0 -70 -14.5t-58 -39t-40.5 -56.5t-17.5 -68q38 5 74.5 1t71.5 -21q32 -15 54.5 -35t39 -44.5t29 -55.5t24.5 -68q-48 -22 -107 -22q-49 0 -92 18.5t-75.5 51t-51 75.5t-18.5 92q0 48 18.5 90.5t51 75t75.5 51
t92 18.5t93 -18t76.5 -51.5t51.5 -80.5t19 -105v-652h-51zM333 39q-14 43 -36.5 74.5t-67.5 51.5q-32 14 -60 15.5t-57 -3.5q7 -30 24 -56t40.5 -44.5t53 -29.5t62.5 -11q12 0 21 0.5t20 2.5zM250 -450v51h83v304h51v-355h-134z" />
    <glyph glyph-name="u1062" unicode="&#x1062;" horiz-adv-x="271" 
d="M165 0v393h-125v51h176v-444h-51z" />
    <glyph glyph-name="u1062_u103A" horiz-adv-x="426" 
d="M342 714q-22 35 -52 47.5t-56 12.5q-25 0 -50 -10t-45 -28.5t-32.5 -45t-12.5 -59.5q0 -41 17.5 -69t41.5 -45.5t48 -25.5t37 -8v-39q-31 0 -63.5 13t-59 37.5t-43.5 59t-17 77.5q0 40 15 74t40 58t57 37.5t67 13.5q45 0 82 -20.5t54 -55.5zM190 0v387h-127v57h175v-444
h-48z" />
    <glyph glyph-name="u1063" unicode="&#x1063;" horiz-adv-x="568" 
d="M513 222q0 -49 -19 -92t-51 -75.5t-75 -51t-92 -18.5q-45 0 -90 16t-80 48v-499h-51v571l44 26q28 -54 75.5 -82.5t101.5 -28.5q38 0 72 14.5t59.5 40t40 59.5t14.5 72t-14.5 72t-40 59.5t-59.5 40t-72 14.5q-54 0 -101.5 -29t-75.5 -82l-44 25q11 27 31.5 52t48.5 43.5
t63.5 30t77.5 11.5q49 0 92 -19t75 -51t51 -75.5t19 -91.5z" />
    <glyph glyph-name="u1063_u103A" horiz-adv-x="568" 
d="M513 222q0 -49 -19 -92t-51 -75.5t-75 -51t-92 -18.5q-45 0 -90 16t-80 48v-499h-51v571l44 26q28 -54 75.5 -82.5t101.5 -28.5q38 0 72 14.5t59.5 40t40 59.5t14.5 72t-14.5 72t-40 59.5t-59.5 40t-72 14.5q-54 0 -101.5 -29t-75.5 -82l-44 25q23 54 68 87t99 44
q-24 8 -47 23.5t-41 38t-29.5 52t-11.5 64.5q0 40 15 74t40 58t57 37.5t66 13.5q45 0 82.5 -20.5t54.5 -55.5l-29 -24q-21 35 -51.5 48t-56.5 13q-25 0 -49.5 -10t-44.5 -28.5t-32.5 -45.5t-12.5 -60q0 -41 17.5 -69t41.5 -45.5t48 -25.5t37 -8v-24q49 0 92 -19t75 -51
t51 -75.5t19 -91.5z" />
    <glyph glyph-name="u1064" unicode="&#x1064;" horiz-adv-x="384" 
d="M165 0v393h-125v51h176v-393h127v-51h-178z" />
    <glyph glyph-name="u1065" unicode="&#x1065;" horiz-adv-x="576" 
d="M516 222q0 -49 -19 -92t-51 -75.5t-75 -51t-92 -18.5q-33 0 -66.5 8.5t-63 25.5t-53.5 42.5t-38 59.5l44 26q28 -54 75.5 -82.5t101.5 -28.5q38 0 72 14.5t59.5 40t40 59.5t14.5 72t-14.5 72t-40 59.5t-59.5 40t-72 14.5q-54 0 -101.5 -29t-75.5 -82l-44 25
q14 34 38 59.5t53.5 42.5t63 26t66.5 9q49 0 92 -19t75 -51t51 -75.5t19 -91.5z" />
    <glyph glyph-name="u1066" unicode="&#x1066;" horiz-adv-x="584" 
d="M529 240q0 -57 -18.5 -104t-51 -80.5t-75.5 -52t-92 -18.5t-92 18.5t-75.5 52t-51 80.5t-18.5 104q0 41 7.5 73.5t20.5 58.5t31 47t39 38l30 -43q-35 -32 -56 -74.5t-21 -99.5q0 -45 14.5 -82.5t40 -64.5t59.5 -42t72 -15t72 15t59.5 42t40 64.5t14.5 82.5
q0 57 -20.5 99.5t-55.5 74.5l30 43q44 -35 70.5 -85t26.5 -132zM184 -450v51h83v304h51v-355h-134z" />
    <glyph glyph-name="u1067" unicode="&#x1067;" horiz-adv-x="277" 
d="M237 97q0 -51 -27.5 -81.5t-71.5 -30.5q-20 0 -37.5 8t-31 21.5t-21.5 31.5t-8 38q0 19 8 37t21.5 31t31 21t37.5 8q26 0 48 -13v291h51v-362zM184 84q0 19 -13.5 32.5t-32.5 13.5q-20 0 -33.5 -13.5t-13.5 -32.5q0 -20 13.5 -34t33.5 -14q21 0 33.5 15t12.5 33z" />
    <glyph glyph-name="u1068" unicode="&#x1068;" horiz-adv-x="336" 
d="M281 663q0 -31 -22.5 -54t-52.5 -23q-31 0 -53 23t-22 54q0 30 22 52.5t53 22.5q30 0 52.5 -22.5t22.5 -52.5zM252 663q0 19 -13.5 32.5t-32.5 13.5q-20 0 -33.5 -13.5t-13.5 -32.5q0 -20 13.5 -34t33.5 -14q19 0 32.5 14t13.5 34zM55 0v51h125v393h51v-444h-176z" />
    <glyph glyph-name="u1069" unicode="&#x1069;" horiz-adv-x="354" 
d="M313 334q0 -26 -8.5 -45t-22.5 -31q-16 -15 -36 -23.5t-40.5 -14.5t-38.5 -10t-29 -9q-47 -22 -47 -63q0 -32 10 -51.5t24 -31t29 -15.5t26 -4q18 0 40 7t44 29l33 -39q-23 -29 -56 -38.5t-61 -9.5q-19 0 -43.5 7.5t-46 25.5t-36 47.5t-14.5 73.5q0 9 2.5 22t10 27.5
t20.5 28.5t33 25q13 7 32 12.5l38 11t37 12t30 16.5q9 8 14 17t5 23q0 13 -5 26.5t-14.5 24t-24 17.5t-32.5 7q-17 0 -35.5 -5t-48.5 -31l-33 39q13 16 29 25.5t32 14.5t31 6.5t25 1.5q26 0 49 -8t40.5 -24t27.5 -39.5t10 -54.5z" />
    <glyph glyph-name="u106A" unicode="&#x106a;" horiz-adv-x="291" 
d="M251 97q0 -51 -27.5 -81.5t-70.5 -30.5q-46 0 -71.5 29t-25.5 68h51q0 -21 14.5 -33.5t31.5 -12.5t32 14.5t15 46.5v347h51v-347z" />
    <glyph glyph-name="u106B" unicode="&#x106b;" horiz-adv-x="291" 
d="M184 0v346q0 33 -14.5 47.5t-31.5 14.5t-32 -12.5t-15 -34.5h-51q0 40 25.5 69t72.5 29q43 0 70 -31t27 -82v-346h-51z" />
    <glyph glyph-name="u106C" unicode="&#x106c;" horiz-adv-x="291" 
d="M235 82q0 -39 -25.5 -68t-71.5 -29q-43 0 -70.5 30.5t-27.5 81.5v347h51v-347q0 -32 15 -46.5t32 -14.5t31.5 12.5t14.5 33.5h51v0z" />
    <glyph glyph-name="u106D" unicode="&#x106d;" horiz-adv-x="354" 
d="M313 139q0 -44 -14.5 -73.5t-36 -47.5t-45.5 -25.5t-43 -7.5q-29 0 -61.5 9.5t-55.5 38.5l33 39q21 -22 43.5 -29t40.5 -7q8 0 22.5 4t29 15.5t25.5 31t11 51.5q0 42 -46 63q-11 5 -29 9t-38.5 10t-40.5 14.5t-36 23.5q-14 12 -23 31t-9 45q0 31 10.5 54.5t28 39.5
t40.5 24t49 8q10 0 24.5 -1.5t31 -6.5t32.5 -14.5t29 -25.5l-33 -39q-31 26 -49.5 31t-34.5 5q-19 0 -33.5 -7t-24 -17.5t-14.5 -24t-5 -26.5q0 -14 5.5 -23t14.5 -17q12 -10 29.5 -16.5t36.5 -12l37.5 -11t32.5 -12.5q20 -11 33 -25t20.5 -28.5t10 -27.5t2.5 -22z" />
    <glyph glyph-name="u106E" unicode="&#x106e;" horiz-adv-x="1185" 
d="M1130 222q0 -49 -18.5 -92t-50 -75.5t-74 -51t-89.5 -18.5q-18 0 -36 3.5t-35 11.5l20 46q23 -10 51 -10q37 0 70 14.5t58 40t39 59.5t14 72t-14 72t-39 59.5t-58 40t-70 14.5t-70.5 -19.5t-59 -50.5t-40.5 -69.5t-15 -76.5q0 -40 -7.5 -71.5t-20.5 -56t-30.5 -44
t-38.5 -35.5l-30 43q35 32 55.5 74.5t20.5 99.5q0 45 -14.5 82.5t-40 64.5t-59.5 42t-72 15q-13 0 -22 -1t-12 -2q41 -33 64 -84t23 -117q0 -42 -7 -74.5t-19.5 -58.5t-30.5 -46t-40 -38l-30 43q35 32 55.5 74.5t20.5 99.5q0 45 -14.5 82.5t-40 64.5t-59.5 42t-72 15
t-72 -15t-59.5 -42t-40 -64.5t-14.5 -82.5q0 -57 21 -99.5t56 -74.5l-30 -43q-21 17 -39 37.5t-31 46.5t-20.5 58.5t-7.5 74.5q0 57 18.5 104t51 80.5t75.5 52t92 18.5q27 0 49 -4t43 -14q21 11 48 14.5t44 3.5q72 0 130 -38t86 -106q15 31 37 58t48 46.5t57 30.5t64 11
q47 0 89.5 -19t74 -51t50 -75.5t18.5 -91.5z" />
    <glyph glyph-name="u106F" unicode="&#x106f;" horiz-adv-x="1002" 
d="M946 222q0 -49 -18.5 -92t-50 -75.5t-74 -51t-89.5 -18.5q-18 0 -36 3.5t-35 11.5l20 46q21 -10 51 -10q37 0 70 14.5t58 40t39 59.5t14 72t-14 72t-39 59.5t-58 40t-70 14.5q-39 0 -73 -20t-58.5 -49.5t-39 -62t-14.5 -56.5q0 -39 -15 -81t-45 -76t-74.5 -56t-102.5 -22
q-49 0 -92 18.5t-75.5 52t-51 80.5t-18.5 104q0 41 7.5 73.5t20.5 58.5t31 47t39 38l30 -43q-35 -32 -56 -74.5t-21 -99.5q0 -45 14.5 -82.5t40 -64.5t59.5 -42t72 -15t72 15t59.5 42t40 64.5t14.5 82.5q0 57 -20.5 99.5t-55.5 74.5l30 43q28 -23 50.5 -52.5t34.5 -71.5
q33 54 85 90t112 36q47 0 89.5 -19t74 -51t50 -75.5t18.5 -91.5zM603 -450v51h83v304h51v-355h-134z" />
    <glyph glyph-name="u1070" unicode="&#x1070;" horiz-adv-x="999" 
d="M943 222q0 -49 -18.5 -92t-50 -75.5t-74 -51t-89.5 -18.5q-68 0 -123 41t-87 104q-29 -69 -86.5 -107t-129.5 -38q-53 0 -95.5 17.5t-72.5 44t-46 59t-16 62.5q0 31 10.5 52.5t26 36t33.5 24l33.5 18t26 17.5t10.5 23q0 37 -17.5 51.5t-35.5 14.5q-15 0 -26.5 -9.5
t-16.5 -20.5l-44 27q10 19 34 36.5t53 17.5q20 0 39 -7.5t33.5 -22.5t23 -37t8.5 -50q0 -36 -22 -55t-48 -33.5t-48 -32t-22 -50.5q0 -9 10 -31t31.5 -44.5t55.5 -39.5t82 -17q44 0 78.5 17.5t58.5 47t36.5 68.5t12.5 83q0 31 -9.5 58t-22.5 48t-26 35.5t-19 20.5l30 43
q45 -35 71.5 -85t26.5 -132q0 -35 16 -71t42.5 -65.5t60.5 -48.5t70 -19q37 0 70 14.5t58 40t39 59.5t14 72t-14 72t-39 59.5t-58 40t-70 14.5q-13 0 -26 -2.5t-25 -8.5l-20 47q34 15 71 15q47 0 89.5 -19t74 -51t50 -75.5t18.5 -91.5zM603 -450v51h83v304h51v-355h-134z
" />
    <glyph glyph-name="u1071" unicode="&#x1071;" horiz-adv-x="1" 
d="M-320 614q0 -32 -22.5 -54.5t-52.5 -22.5t-52.5 22.5t-22.5 54.5q0 31 22.5 53t52.5 22t52.5 -22t22.5 -53zM-349 614q0 16 -12.5 31t-33.5 15t-34 -15t-13 -31q0 -17 13 -32.5t34 -15.5t33.5 15.5t12.5 32.5zM-116 614q0 -32 -22.5 -54.5t-52.5 -22.5t-52.5 22.5
t-22.5 54.5q0 31 22.5 53t52.5 22t52.5 -22t22.5 -53zM-145 614q0 16 -12.5 31t-33.5 15t-34 -15t-13 -31q0 -17 13 -32.5t34 -15.5t33.5 15.5t12.5 32.5z" />
    <glyph glyph-name="u1072" unicode="&#x1072;" 
d="M-84 802q-21 35 -51.5 48.5t-56.5 13.5q-25 0 -50 -10t-44.5 -28.5t-32 -45.5t-12.5 -60q0 -41 17.5 -69.5t41 -46t47.5 -25.5t38 -8v-39q-27 0 -59 12t-59.5 36t-46 59t-18.5 81q0 40 15 74t39.5 58t56.5 37.5t66 13.5q46 0 83.5 -21t54.5 -56z" />
    <glyph glyph-name="u1073" unicode="&#x1073;" horiz-adv-x="1" 
d="M-95 612l-198 199l-198 -199l-28 28l226 227l227 -227z" />
    <glyph glyph-name="u1074" unicode="&#x1074;" 
d="M-282 612l-226 227l28 28l198 -199l198 199l29 -28z" />
    <glyph glyph-name="u1075" unicode="&#x1075;" horiz-adv-x="577" 
d="M522 202q0 -82 -26.5 -132t-71.5 -85l-30 43q35 32 56 74.5t21 99.5q0 45 -14.5 82.5t-40 64.5t-59.5 42t-72 15q-48 0 -82 -17.5t-55.5 -40t-31.5 -44t-10 -30.5q0 -33 22 -50.5t48 -32t48 -33.5t22 -55q0 -29 -8.5 -50.5t-23 -36.5t-33.5 -22.5t-39 -7.5q-15 0 -29.5 5
t-26.5 13t-20 17.5t-11 18.5l44 27q3 -11 15.5 -20.5t27.5 -9.5q9 0 18.5 3.5t17 11t12.5 20t5 31.5q0 14 -10.5 23t-26 17.5l-33.5 18t-33.5 24t-26 35.5t-10.5 53q0 30 16 62.5t46 59t72.5 44t95.5 17.5q49 0 92.5 -18.5t75.5 -52t50.5 -80.5t18.5 -104z" />
    <glyph glyph-name="u1076" unicode="&#x1076;" horiz-adv-x="582" 
d="M526 222q0 -49 -18.5 -92t-51 -75.5t-75.5 -51t-92 -18.5q-59 0 -101 19.5t-70 46.5t-41.5 55.5t-15.5 46.5q42 23 78 37t77 14q60 0 116 -30.5t91 -82.5q23 26 37.5 58.5t14.5 72.5q0 42 -16.5 76.5t-42 58.5t-55.5 37.5t-57 13.5q-19 0 -29 -10.5t-15.5 -26
t-10.5 -33.5t-14 -33.5t-25.5 -26t-44.5 -10.5q-18 0 -37 6t-35.5 19t-27 32t-10.5 45q0 22 11 47.5t42 41.5l27 -44q-15 -7 -22 -18t-7 -25q0 -20 15 -36.5t44 -16.5q17 0 26.5 10.5t15 26t11 33.5t15 33.5t26 26t45.5 10.5q43 0 83.5 -19.5t71 -52t49 -75.5t18.5 -90z
M379 58q-26 42 -67 68.5t-93 26.5q-48 0 -98 -26q27 -48 72 -69.5t96 -21.5q26 0 47.5 6t42.5 16z" />
    <glyph glyph-name="u1077" unicode="&#x1077;" horiz-adv-x="577" 
d="M522 202q0 -41 -12 -73.5t-30 -58.5t-40 -47t-42 -38q-27 26 -43.5 52t-26 51t-13 48.5t-3.5 44.5q0 63 22 106t65 79q-46 40 -114 40q-48 0 -82 -17.5t-55.5 -40t-31.5 -44t-10 -30.5q0 -33 22 -50.5t48 -32t48 -33.5t22 -55q0 -29 -8.5 -50.5t-23 -36.5t-33.5 -22.5
t-39 -7.5q-17 0 -32 6t-27 15t-19.5 18t-8.5 15l44 27q0 -6 13 -18t30 -12q18 0 35.5 14.5t17.5 51.5q0 14 -10.5 23t-26 17.5l-33.5 18t-33.5 24t-26 35.5t-10.5 53q0 30 16 62.5t46 59t72.5 44t95.5 17.5q49 0 92 -18t75.5 -51.5t51 -80.5t18.5 -105zM471 202
q0 73 -36 123q-72 -54 -72 -142q0 -23 7.5 -53.5t30.5 -65.5q28 29 49 62t21 76z" />
    <glyph glyph-name="u1078" unicode="&#x1078;" horiz-adv-x="997" 
d="M942 222q0 -49 -18 -92t-49.5 -75.5t-74.5 -51t-92 -18.5q-56 0 -99.5 23t-72.5 57t-44 72.5t-15 70.5q0 21 -12 55t-36 66t-59.5 55.5t-81.5 23.5q-38 0 -71 -14.5t-58 -40t-39 -59.5t-14 -72t14 -72t39 -59.5t58 -40t71 -14.5q12 0 24.5 2.5t24.5 7.5l21 -46
q-17 -7 -35.5 -11t-34.5 -4q-47 0 -89.5 18.5t-74.5 51t-50.5 75.5t-18.5 92q0 48 18.5 91.5t50.5 75.5t74.5 51t89.5 19q32 0 62.5 -11t57.5 -30.5t49.5 -45.5t38.5 -56q13 31 35 57.5t50 45.5t61 29.5t69 10.5q48 0 90 -19t73.5 -51t49.5 -75.5t18 -91.5zM891 222
q0 38 -14.5 72t-39 59.5t-58 40t-71.5 14.5q-39 0 -72 -15t-57 -41.5t-37.5 -61t-13.5 -73.5q0 -34 13.5 -66.5t37.5 -58t57.5 -41t74.5 -15.5q37 0 70 14.5t57.5 40t38.5 59.5t14 72z" />
    <glyph glyph-name="u1079" unicode="&#x1079;" horiz-adv-x="937" 
d="M882 222q0 -49 -18.5 -92t-50 -75.5t-74 -51t-91.5 -18.5q-48 0 -90 18.5t-73.5 51t-49.5 75.5t-18 92q0 60 28 112q-29 35 -69.5 54.5t-83.5 19.5q-38 0 -71 -14t-58.5 -38t-40.5 -56.5t-17 -68.5q36 5 72.5 1t71.5 -21t59 -38t41 -46.5t28.5 -55.5t21.5 -64
q-48 -22 -102 -22q-47 0 -91 17t-77.5 48t-53.5 75t-20 97q0 49 18.5 92.5t51 75.5t75.5 50.5t92 18.5q52 0 99 -19t84 -61q33 36 78.5 58t97.5 22q48 0 90 -19t73.5 -51t49.5 -75.5t18 -91.5zM831 222q0 38 -14.5 72t-39 59.5t-58 40t-71.5 14.5t-70.5 -14.5t-57 -40
t-38.5 -59.5t-14 -72t14.5 -72t39 -59.5t58 -40t71.5 -14.5q37 0 70 14.5t57.5 40t38.5 59.5t14 72zM112 177q8 -36 29.5 -65t51 -47.5t65 -25.5t73.5 1q-14 43 -36 73t-67 52q-53 25 -116 12z" />
    <glyph glyph-name="u107A" unicode="&#x107a;" horiz-adv-x="1008" 
d="M952 222q0 -49 -18.5 -92t-50 -75.5t-73.5 -51t-90 -18.5q-58 0 -106.5 31.5t-81.5 76.5v-492h83v-51h-134v652q0 46 -16 84t-43 65t-62.5 42t-73.5 15q-37 0 -70 -15t-57.5 -40.5t-38.5 -59t-14 -70.5q0 -43 15.5 -77.5t41 -59t58 -37.5t65.5 -13q23 0 43.5 4.5
t34.5 11.5l18 -48q-16 -8 -42 -13.5t-54 -5.5q-46 0 -88 18t-73.5 49.5t-50.5 75t-19 94.5q0 48 17.5 90.5t48.5 74.5t73 51t92 19q48 0 91.5 -17.5t77 -49.5t54.5 -77t23 -100q6 -32 23.5 -63.5t43 -56.5t56.5 -41t65 -16q37 0 70 14.5t58 40t39 59.5t14 72t-14 72
t-39 59.5t-58 40t-70 14.5q-13 0 -26.5 -2.5t-24.5 -8.5l-20 47q34 15 71 15q48 0 90 -19t73.5 -51t50 -75.5t18.5 -91.5z" />
    <glyph glyph-name="u107B" unicode="&#x107b;" horiz-adv-x="937" 
d="M882 222q0 -53 -20 -97t-53.5 -75t-77.5 -48t-91 -17q-26 0 -51.5 5.5t-50.5 16.5q11 40 24.5 71.5t31 56t40.5 43t53 32.5q39 18 74 22t71 -1q-2 36 -17 68.5t-40.5 56.5t-58.5 38t-71 14q-43 0 -83.5 -19.5t-69.5 -54.5q28 -52 28 -112q0 -49 -18 -92t-49.5 -75.5
t-73.5 -51t-90 -18.5q-49 0 -91.5 18.5t-74 51t-50 75.5t-18.5 92q0 48 18 91.5t49.5 75.5t73.5 51t90 19q52 0 97.5 -22t78.5 -58q37 42 84 61t99 19q49 0 92 -18.5t75 -50.5t51 -75.5t19 -92.5zM469 222q0 38 -14 72t-38.5 59.5t-57.5 40t-70 14.5q-38 0 -71.5 -14.5
t-58.5 -40t-39 -59.5t-14 -72t14 -72t38.5 -59.5t57 -40t70.5 -14.5t71.5 14.5t58 40t39 59.5t14.5 72zM825 177q-32 6 -60.5 3.5t-55.5 -15.5q-45 -22 -67 -52t-36 -73q37 -8 72.5 -1t65 26t51 47.5t30.5 64.5z" />
    <glyph glyph-name="u107C" unicode="&#x107c;" horiz-adv-x="990" 
d="M928 129q-4 -12 -17 -36t-39 -48t-67 -42t-99 -18q-70 0 -126 35.5t-85 93.5q-29 -58 -86 -93.5t-126 -35.5q-59 0 -99 18t-66 42t-39.5 48t-17.5 36q20 35 46 58.5t55 38t60 20.5t61 6q51 0 94 -17.5t86 -62.5q4 11 5 23t1 23q0 41 -15 75.5t-40.5 60t-59.5 40t-71 14.5
q-53 0 -100.5 -29t-76.5 -82l-43 25q14 34 37.5 59.5t53 42.5t63 26t66.5 9q69 0 126 -36.5t86 -94.5q29 58 85 94.5t126 36.5q33 0 66.5 -9t63 -26t53.5 -42.5t38 -59.5l-44 -25q-28 53 -75.5 82t-101.5 29q-38 0 -72 -14.5t-59.5 -40t-40 -60t-14.5 -75.5q0 -25 6 -46
q42 45 84 62.5t96 17.5q30 0 61 -6t60 -20.5t55 -38t46 -58.5zM441 121q-32 36 -74.5 58t-83.5 22q-45 0 -84.5 -16.5t-75.5 -58.5q25 -46 70 -68t90 -22q41 0 81.5 17.5t76.5 67.5zM865 126q-36 44 -76.5 59.5t-82.5 15.5q-34 0 -77.5 -19t-81.5 -61q38 -49 78 -67t81 -18
q21 0 44 5.5t44.5 16.5t40 28t30.5 40z" />
    <glyph glyph-name="u107D" unicode="&#x107d;" horiz-adv-x="1002" 
d="M943 153q-1 -18 -15 -46.5t-41.5 -55.5t-70.5 -46.5t-101 -19.5q-70 0 -127 36.5t-86 95.5q-29 -63 -85 -97.5t-125 -34.5q-53 0 -95.5 17.5t-72.5 44t-46 59t-16 62.5q0 31 10.5 52.5t26 36t33.5 24l33.5 18t26 17.5t10.5 23q0 37 -17 51.5t-34 14.5q-16 0 -28 -9.5
t-17 -20.5l-44 27q9 20 33 37t54 17q20 0 39 -7.5t33.5 -22.5t23 -37t8.5 -50q0 -24 -10.5 -40t-26 -27.5t-33.5 -21t-33.5 -20.5t-26 -25.5t-10.5 -36.5q0 -9 10 -31t31.5 -44.5t55.5 -39.5t82 -17q38 0 72 15t59.5 42t40 64.5t14.5 82.5q0 57 -20.5 99.5t-55.5 74.5l30 43
q27 -21 47.5 -48.5t33.5 -63.5q32 51 85 82.5t117 31.5q33 0 66 -9t63 -26t54 -43t38 -59l-44 -25q-28 53 -75.5 82t-101.5 29q-38 0 -71.5 -14t-59 -38.5t-40.5 -57t-15 -69.5q0 -44 14.5 -78t38.5 -60q16 24 38.5 45t48.5 36t56 23.5t61 8.5q41 0 79.5 -14t77.5 -37z
M883 127q-25 12 -48.5 19t-48.5 7q-50 0 -91.5 -25.5t-69.5 -69.5q20 -10 42.5 -16t47.5 -6q51 0 96 21.5t72 69.5z" />
    <glyph glyph-name="u107E" unicode="&#x107e;" horiz-adv-x="1002" 
d="M603 -450v51h83v304h51v-355h-134zM943 153q-1 -18 -15 -46.5t-41.5 -55.5t-70.5 -46.5t-101 -19.5q-70 0 -127 36.5t-86 95.5q-29 -63 -85 -97.5t-125 -34.5q-53 0 -95.5 17.5t-72.5 44t-46 59t-16 62.5q0 31 10.5 52.5t26 36t33.5 24l33.5 18t26 17.5t10.5 23
q0 37 -17 51.5t-34 14.5q-16 0 -28 -9.5t-17 -20.5l-44 27q9 20 33 37t54 17q20 0 39 -7.5t33.5 -22.5t23 -37t8.5 -50q0 -24 -10.5 -40t-26 -27.5t-33.5 -21t-33.5 -20.5t-26 -25.5t-10.5 -36.5q0 -9 10 -31t31.5 -44.5t55.5 -39.5t82 -17q38 0 72 15t59.5 42t40 64.5
t14.5 82.5q0 57 -20.5 99.5t-55.5 74.5l30 43q27 -21 47.5 -48.5t33.5 -63.5q32 51 85 82.5t117 31.5q33 0 66 -9t63 -26t54 -43t38 -59l-44 -25q-28 53 -75.5 82t-101.5 29q-38 0 -71.5 -14t-59 -38.5t-40.5 -57t-15 -69.5q0 -44 14.5 -78t38.5 -60q16 24 38.5 45t48.5 36
t56 23.5t61 8.5q41 0 79.5 -14t77.5 -37zM883 127q-25 12 -48.5 19t-48.5 7q-50 0 -91.5 -25.5t-69.5 -69.5q20 -10 42.5 -16t47.5 -6q51 0 96 21.5t72 69.5z" />
    <glyph glyph-name="u107F" unicode="&#x107f;" horiz-adv-x="585" 
d="M529 240q0 -58 -19 -105t-51 -80.5t-75 -51.5t-92 -18t-92 18t-75.5 51.5t-51 80.5t-18.5 105q0 69 33.5 119.5t90.5 97.5q27 -26 43.5 -52t26 -51t13 -48.5t3.5 -44.5q0 -63 -22 -106t-65 -79q47 -40 114 -40q38 0 72 15t59.5 42t40 64.5t14.5 82.5q0 57 -21 99.5
t-56 74.5l30 43q42 -34 70 -84.5t28 -132.5zM214 259q0 23 -7.5 53.5t-30.5 65.5q-29 -28 -49.5 -61.5t-20.5 -76.5q0 -73 36 -123q72 54 72 142z" />
    <glyph glyph-name="u1080" unicode="&#x1080;" horiz-adv-x="997" 
d="M942 222q0 -49 -18.5 -92t-50 -75.5t-74 -51t-90.5 -18.5q-33 0 -63.5 11t-57.5 30t-49 45t-38 56q-14 -32 -36.5 -58t-51 -44.5t-61.5 -29t-69 -10.5q-59 0 -101 19.5t-70 46.5t-41.5 55.5t-15.5 46.5q42 23 78.5 37t76.5 14q60 0 116 -30.5t91 -82.5q23 26 37.5 58.5
t14.5 72.5q0 33 -12.5 66t-36 59.5t-58 43.5t-79.5 17q-53 0 -100.5 -29t-76.5 -82l-43 25q14 34 37.5 59.5t53 42.5t63 26t66.5 9q48 0 90.5 -18.5t74.5 -50t51 -73.5t21 -89q4 -36 21.5 -70.5t43 -61.5t57.5 -43.5t67 -16.5q38 0 71 14.5t58 40t39 59.5t14 72t-14 72
t-39 59.5t-58 40t-71 14.5q-12 0 -26 -3t-25 -8l-19 47q16 7 34.5 11t35.5 4q48 0 90.5 -19t74 -51t50 -75.5t18.5 -91.5zM373 58q-26 42 -67 68.5t-93 26.5q-48 0 -98 -26q27 -48 72 -69.5t96 -21.5q26 0 47.5 6t42.5 16z" />
    <glyph glyph-name="u1081" unicode="&#x1081;" horiz-adv-x="585" 
d="M529 202q0 -42 -7 -74.5t-20 -58.5t-30.5 -46.5t-39.5 -37.5l-30 43q35 32 55.5 74.5t20.5 99.5q0 45 -14.5 82.5t-40 64.5t-59.5 42t-72 15t-72 -15t-59.5 -42t-40 -64.5t-14.5 -82.5q0 -57 21 -99.5t56 -74.5l-30 -43q-21 17 -39 37.5t-31 46.5t-20.5 58.5t-7.5 74.5
q0 57 18.5 104t51 80.5t75.5 52t92 18.5t92 -18.5t75.5 -52t51 -80.5t18.5 -104zM184 -450v51h83v304h51v-355h-134z" />
    <glyph glyph-name="u1082" unicode="&#x1082;" horiz-adv-x="1" 
d="M-62 -389q-17 -35 -54 -55.5t-82 -20.5q-35 0 -67 13.5t-57 37.5t-40 57.5t-15 74.5q0 45 18.5 80t46 59t59.5 36t59 12v-39q-13 0 -37 -8t-48 -25.5t-41.5 -46t-17.5 -68.5q0 -33 12.5 -59.5t32.5 -45t45 -28.5t50 -10q26 0 56 12.5t52 47.5l28 -24v0z" />
    <glyph glyph-name="u1083" unicode="&#x1083;" horiz-adv-x="283" 
d="M148 -450v843h-128v51h176v-843h127v-51h-175z" />
    <glyph glyph-name="u1084" unicode="&#x1084;" horiz-adv-x="534" 
d="M478 115q0 -57 -53 -93.5t-158 -36.5q-56 0 -96 10.5t-66 29.5t-38 44t-12 54q0 35 22.5 63t61.5 36q-39 8 -61.5 36t-22.5 63q0 28 12 53.5t38 44t66 29.5t96 11q105 0 158 -36.5t53 -94.5l-46 -18q0 51 -43.5 74.5t-121.5 23.5q-29 0 -58 -4.5t-52 -14.5t-37 -26.5
t-14 -41.5q0 -18 11.5 -31t31 -22t45 -14t53.5 -7v-51q-27 -2 -52.5 -6.5t-45 -13t-31.5 -21.5t-12 -32q0 -25 14 -41.5t37 -26.5t52 -14.5t58 -4.5q78 1 121.5 23.5t43.5 73.5l46 -18v0z" />
    <glyph glyph-name="u1085" unicode="&#x1085;" 
d="M-55 639q0 -45 -41.5 -73t-122.5 -28q-43 0 -74 8.5t-50.5 23t-29 34t-9.5 41.5q0 27 17.5 49t48.5 27q-31 6 -48.5 28t-17.5 49q0 45 38.5 75.5t124.5 30.5q81 0 122.5 -27.5t41.5 -72.5l-36 -15q0 39 -34 57.5t-94 18.5q-23 0 -45 -3t-39.5 -11t-28.5 -21t-11 -32
q0 -15 10 -25.5t26 -17.5t35.5 -10.5t37.5 -3.5v-39q-17 -1 -36 -4.5t-35.5 -10t-27 -17t-10.5 -25.5q0 -20 11 -33t28.5 -21t39.5 -11t45 -3q57 0 92.5 18.5t35.5 58.5l36 -15v0z" />
    <glyph glyph-name="u1086" unicode="&#x1086;" 
d="M-55 786q0 -49 -14 -89.5t-36 -72t-47.5 -53.5t-48.5 -33l-16 12q34 22 57.5 58.5t33.5 69.5q-22 -5 -43 -5q-23 0 -43.5 9.5t-36 25.5t-24.5 38t-9 46t9 44.5t24.5 35.5t36 23.5t43.5 8.5q24 0 44.5 -8.5t36 -23.5t24.5 -35.5t9 -44.5v-6zM-94 792q0 13 -5.5 26
t-15 23.5t-23.5 17t-31 6.5t-30.5 -6.5t-23 -17t-15 -23.5t-5.5 -26t5.5 -27t15 -26t23 -19.5t30.5 -7.5q35 0 55 25t20 55z" />
    <glyph glyph-name="u1087" unicode="&#x1087;" horiz-adv-x="258" 
d="M204 73q0 -32 -9.5 -59t-24 -47.5t-31 -34.5t-31.5 -21l-11 8q23 14 38 38t21 47q-12 -4 -27 -4q-31 0 -53 22t-22 54t22 53.5t53 21.5q30 0 52.5 -21.5t22.5 -53.5v-3zM175 76q0 17 -12.5 32t-33.5 15q-22 0 -34.5 -15t-12.5 -32t12.5 -32.5t34.5 -15.5t34 14t12 34z
" />
    <glyph glyph-name="u1088" unicode="&#x1088;" horiz-adv-x="258" 
d="M204 69q0 -30 -10 -56t-24 -47t-30.5 -35t-31.5 -20l-11 8q23 15 38 39t21 46q-12 -4 -27 -4q-30 0 -52.5 22.5t-22.5 53.5q0 32 22.5 53.5t52.5 21.5t52.5 -22.5t22.5 -58.5v-1zM175 76q0 17 -12.5 32t-33.5 15t-34 -15t-13 -32q0 -16 13 -32t34 -16t33.5 16t12.5 32z
M204 384q0 -32 -22.5 -54.5t-52.5 -22.5t-52.5 22.5t-22.5 54.5q0 31 22.5 53t52.5 22t52.5 -22t22.5 -53zM175 384q0 16 -12.5 31t-33.5 15t-34 -15t-13 -31q0 -17 13 -32.5t34 -15.5t33.5 15.5t12.5 32.5z" />
    <glyph glyph-name="u1089" unicode="&#x1089;" horiz-adv-x="258" 
d="M204 76q0 -32 -22.5 -54t-52.5 -22q-31 0 -53 22t-22 54t22 53.5t53 21.5q30 0 52.5 -21.5t22.5 -53.5zM175 76q0 17 -12.5 32t-33.5 15q-22 0 -34.5 -15t-12.5 -32t12.5 -32.5t34.5 -15.5q21 0 33.5 15.5t12.5 32.5z" />
    <glyph glyph-name="u108A" unicode="&#x108a;" horiz-adv-x="351" 
d="M295 405q-7 -15 -20.5 -31.5t-34 -30.5t-47.5 -23.5t-60 -10.5h-3q-32 0 -53.5 22t-21.5 53q0 30 21.5 52.5t53.5 22.5t54.5 -22.5t22.5 -52.5q0 -12 -5 -27q23 5 47 20t39 38zM178 384q0 21 -15.5 33.5t-32.5 12.5t-31.5 -12.5t-14.5 -33.5q0 -22 14.5 -34.5t31.5 -12.5
t32.5 12.5t15.5 34.5zM295 96q-7 -15 -21 -32t-34.5 -31t-47 -23.5t-59.5 -9.5h-3q-32 0 -53.5 22t-21.5 53q0 30 21.5 52.5t53.5 22.5t54.5 -22.5t22.5 -52.5q0 -12 -5 -27q23 5 47 20t39 38zM178 75q0 21 -15.5 33.5t-32.5 12.5t-31.5 -12.5t-14.5 -33.5q0 -22 14.5 -34.5
t31.5 -12.5t32.5 12.5t15.5 34.5z" />
    <glyph glyph-name="u108B" unicode="&#x108b;" horiz-adv-x="258" 
d="M204 229q0 -32 -22.5 -54.5t-52.5 -22.5t-52.5 22.5t-22.5 54.5q0 31 22.5 53t52.5 22t52.5 -22t22.5 -53zM175 229q0 16 -12.5 31t-33.5 15t-34 -15t-13 -31q0 -17 13 -32.5t34 -15.5t33.5 15.5t12.5 32.5z" />
    <glyph glyph-name="u108C" unicode="&#x108c;" horiz-adv-x="462" 
d="M204 229q0 -32 -22.5 -54.5t-52.5 -22.5t-52.5 22.5t-22.5 54.5q0 31 22.5 53t52.5 22t52.5 -22t22.5 -53zM175 229q0 16 -12.5 31t-33.5 15t-34 -15t-13 -31q0 -17 13 -32.5t34 -15.5t33.5 15.5t12.5 32.5zM408 229q0 -32 -22.5 -54.5t-52.5 -22.5t-52.5 22.5
t-22.5 54.5q0 31 22.5 53t52.5 22t52.5 -22t22.5 -53zM379 229q0 16 -12.5 31t-33.5 15t-34 -15t-13 -31q0 -17 13 -32.5t34 -15.5t33.5 15.5t12.5 32.5z" />
    <glyph glyph-name="u108D" unicode="&#x108d;" horiz-adv-x="1" 
d="M-528 -135v51h470v-51h-470z" />
    <glyph glyph-name="u108E" unicode="&#x108e;" horiz-adv-x="576" 
d="M520 222q0 -49 -18.5 -92t-50 -75.5t-74.5 -51t-91 -18.5q-49 0 -91 18.5t-73 51t-49 75.5t-18 92q0 48 18 91.5t49.5 75.5t73.5 51t90 19q49 0 92 -19t74.5 -51t49.5 -75.5t18 -91.5zM469 222q0 37 -13 70q-39 -39 -85 -54.5t-85 -15.5q-42 0 -84.5 15t-81.5 54
q-14 -36 -14 -69q0 -39 14.5 -72.5t39 -59t57 -40t69.5 -14.5q38 0 71.5 14.5t58 40t39 59t14.5 72.5zM429 337q-26 33 -63.5 52t-79.5 19q-43 0 -79 -19.5t-62 -51.5q19 -20 39 -32.5t38.5 -19.5t35 -9.5t28.5 -2.5q26 0 65 12t78 52z" />
    <glyph glyph-name="u108F" unicode="&#x108f;" horiz-adv-x="258" 
d="M204 76q0 -32 -22.5 -54t-52.5 -22q-15 0 -27 4q5 -23 20 -47t38 -38l-10 -8q-15 7 -31.5 20.5t-31 33.5t-24 46t-9.5 58v1q0 36 22 58.5t53 22.5q30 0 52.5 -21.5t22.5 -53.5zM175 76q0 17 -12.5 32t-33.5 15q-22 0 -34.5 -15t-12.5 -32t12.5 -32.5t34.5 -15.5
q21 0 33.5 15.5t12.5 32.5zM204 384q0 -32 -22.5 -54.5t-52.5 -22.5q-31 0 -53 22.5t-22 54.5t22 53.5t53 21.5q30 0 52.5 -21.5t22.5 -53.5zM175 384q0 17 -12.5 31.5t-33.5 14.5q-22 0 -34.5 -14.5t-12.5 -31.5t12.5 -32.5t34.5 -15.5q21 0 33.5 15.5t12.5 32.5z" />
    <glyph glyph-name="u1090" unicode="&#x1090;" horiz-adv-x="575" 
d="M520 -216q0 -43 -15.5 -85t-45 -75t-73 -53.5t-99.5 -20.5t-99 20.5t-72.5 53.5t-45 75t-15.5 85v438q0 42 15.5 84.5t45 76.5t72.5 55t99 21t99.5 -21t73 -55t45 -76.5t15.5 -84.5v-438zM469 222q0 40 -14 74t-38.5 59t-57.5 39t-72 14t-72 -14t-57.5 -39t-38.5 -59
t-14 -74v-435q0 -41 14 -75.5t38.5 -59t57.5 -38t72 -13.5t72 13.5t57.5 38t38.5 59t14 75.5v435z" />
    <glyph glyph-name="u1091" unicode="&#x1091;" horiz-adv-x="605" 
d="M277 -450v823l-202 -97l-20 46l273 131v-823l202 97l20 -46z" />
    <glyph glyph-name="u1092" unicode="&#x1092;" horiz-adv-x="584" 
d="M529 222q0 -73 -31.5 -126.5t-78.5 -97.5t-101.5 -83.5t-101.5 -83.5t-78.5 -97.5t-31.5 -125.5v-58h-51v53q0 62 18 111.5t48 90t68 74t77.5 64l77.5 60t68 62.5t48 71t18 86q0 36 -14.5 69.5t-39.5 59.5t-58.5 42t-70.5 16q-36 0 -70.5 -14t-60.5 -41.5t-42 -68
t-16 -93.5h-51v266h50v-95q26 38 75 66.5t115 28.5q49 0 91.5 -19t74 -51t50 -75t18.5 -91z" />
    <glyph glyph-name="u1093" unicode="&#x1093;" horiz-adv-x="654" 
d="M548 -450v222q0 40 -14 74t-38.5 59t-57.5 39t-72 14q-5 0 -18.5 -1.5t-32.5 -6t-40.5 -14.5t-40.5 -26l-126 -360h-53l320 899h50l-164 -463q25 11 53.5 17t51.5 6q56 0 99.5 -21t73 -55t45 -76.5t15.5 -84.5v-222h-51z" />
    <glyph glyph-name="u1094" unicode="&#x1094;" horiz-adv-x="720" 
d="M392 -450v751l-284 -751h-53l338 899h50v-819l202 97l20 -46z" />
    <glyph glyph-name="u1095" unicode="&#x1095;" horiz-adv-x="647" 
d="M529 -27v-167q0 -58 -19 -105t-51.5 -80.5t-76.5 -52t-93 -18.5t-92 18.5t-74.5 51t-49.5 75.5t-18 91q0 49 17.5 92t53 75.5t89 51t124.5 18.5h139v435h51v-435h63v-50h-63zM478 -27h-139q-59 0 -102.5 -14.5t-72.5 -39.5t-43.5 -59t-14.5 -74q0 -36 15 -70t40 -60
t58.5 -41.5t69.5 -15.5q38 0 72.5 15t60.5 42.5t41 65.5t15 84v167z" />
    <glyph glyph-name="u1096" unicode="&#x1096;" horiz-adv-x="647" 
d="M529 -15v-435h-51v435h-139q-71 0 -124.5 18.5t-89 51t-53 75.5t-17.5 92q0 48 18.5 91t50 75t74 51t91.5 19t93 -18.5t76.5 -52t51.5 -80.5t19 -105v-167h62v-50h-62zM478 202q0 46 -15 84t-41 65.5t-60.5 42.5t-72.5 15q-37 0 -70.5 -14.5t-58.5 -40t-39.5 -59.5
t-14.5 -73q0 -41 14.5 -75t43.5 -59t72.5 -39t102.5 -14h139v167z" />
    <glyph glyph-name="u1097" unicode="&#x1097;" horiz-adv-x="526" 
d="M105 -450l250 843h-300v51h366l-250 -843h300v-51h-366z" />
    <glyph glyph-name="u1098" unicode="&#x1098;" horiz-adv-x="584" 
d="M527 -212q0 -43 -17 -85.5t-47.5 -76.5t-73.5 -55t-95 -21t-94.5 21t-73 55t-47.5 76.5t-17 85.5q0 31 8.5 63.5t25.5 61t43 52t62 38.5q-20 9 -45 25.5t-47.5 44.5t-38 69t-15.5 98q0 41 7.5 73.5t20.5 58.5t31 47t39 38l30 -43q-35 -32 -56 -74.5t-21 -99.5
q0 -45 14.5 -82.5t40 -64.5t59.5 -42t72 -15t72 15t59.5 42t40 64.5t14.5 82.5q0 57 -20.5 99.5t-55.5 74.5l30 43q44 -35 70.5 -85t26.5 -132q0 -57 -16 -98.5t-38.5 -70t-47.5 -45t-44 -23.5q37 -15 64.5 -38.5t45 -52t26 -61t8.5 -63.5zM476 -212q0 40 -16 76t-41.5 62.5
t-58.5 42t-67 15.5q-33 0 -65.5 -15.5t-58 -42.5t-41.5 -62.5t-16 -75.5q0 -41 15.5 -75.5t41 -59.5t58 -38.5t67.5 -13.5t67.5 14t58 39t41 59.5t15.5 74.5z" />
    <glyph glyph-name="u1099" unicode="&#x1099;" horiz-adv-x="584" 
d="M529 -233q0 -82 -26.5 -132t-70.5 -85l-30 43q35 32 55.5 74.5t20.5 99.5q0 45 -14.5 82.5t-40 64.5t-59.5 42t-72 15t-72 -15t-59.5 -42t-40 -64.5t-14.5 -82.5q0 -57 21 -99.5t56 -74.5l-30 -43q-21 17 -39 38t-31 47t-20.5 58.5t-7.5 73.5q0 57 15.5 98t38 69
t47.5 44.5t45 25.5q-36 15 -62 38.5t-43 52t-25.5 60.5t-8.5 64q0 43 17 85.5t47.5 76.5t73 55t94.5 21t95 -21t73.5 -55t47.5 -76.5t17 -85.5q0 -32 -8.5 -64t-26 -60.5t-45 -52t-64.5 -38.5q19 -7 44 -23.5t47.5 -45t38.5 -70t16 -98.5zM476 219q0 40 -15.5 74.5t-41 59.5
t-58 39t-67.5 14t-67.5 -14t-58 -38.5t-41 -59t-15.5 -75.5q0 -40 16 -75.5t41.5 -62.5t58 -42.5t65.5 -15.5q34 0 67 15.5t58.5 42t41.5 62t16 76.5z" />
    <glyph glyph-name="u109A" unicode="&#x109a;" horiz-adv-x="258" 
d="M204 384q0 -32 -22.5 -54.5t-52.5 -22.5t-52.5 22.5t-22.5 54.5q0 31 22.5 53t52.5 22t52.5 -22t22.5 -53zM175 384q0 16 -12.5 31t-33.5 15t-34 -15t-13 -31q0 -17 13 -32.5t34 -15.5t33.5 15.5t12.5 32.5z" />
    <glyph glyph-name="u109B" unicode="&#x109b;" horiz-adv-x="258" 
d="M204 614q0 -33 -9.5 -60.5t-23.5 -48.5t-31 -35t-32 -21l-11 8q23 14 38 38t21 47q-12 -4 -27 -4q-31 0 -53 22t-22 54t22 53.5t53 21.5q30 0 52.5 -21.5t22.5 -53.5zM175 614q0 17 -12.5 32t-33.5 15q-22 0 -34.5 -15t-12.5 -32t12.5 -32.5t34.5 -15.5q21 0 33.5 15.5
t12.5 32.5z" />
    <glyph glyph-name="u109C" unicode="&#x109c;" horiz-adv-x="351" 
d="M288 353q-15 23 -39 38t-47 20q5 -15 5 -27q0 -30 -22.5 -52.5t-54.5 -22.5t-53.5 22.5t-21.5 52.5q0 31 21.5 53t53.5 22h1q33 0 60 -9t48 -23.5t35 -31.5t21 -32zM178 384q0 21 -15 34t-33 13q-17 0 -31.5 -12.5t-14.5 -34.5q0 -21 14.5 -33.5t31.5 -12.5t32.5 12.5
t15.5 33.5zM288 44q-15 23 -39 38t-47 20q5 -15 5 -27q0 -30 -22.5 -52.5t-54.5 -22.5t-53.5 22.5t-21.5 52.5q0 31 21.5 53t53.5 22h1q33 0 60 -9t48 -23.5t35 -31.5t21 -32zM178 75q0 22 -15.5 34.5t-32.5 12.5t-31.5 -12.5t-14.5 -34.5q0 -21 14.5 -33.5t31.5 -12.5
t32.5 12.5t15.5 33.5z" />
    <glyph glyph-name="u109D" unicode="&#x109d;" horiz-adv-x="55" 
d="M-139 347v279q0 12 -5.5 25t-15 23.5t-23.5 17.5t-31 7t-35 -9.5t-29 -27.5l-30 27q20 30 47 39.5t47 9.5q23 0 44 -9t36.5 -24t24.5 -35.5t9 -43.5v-279h-39z" />
    <glyph glyph-name="u109E" unicode="&#x109e;" horiz-adv-x="283" 
d="M148 -450v843h-128v51h176v-843h127v-51h-175zM215 614q0 -32 -22.5 -54.5t-52.5 -22.5t-52.5 22.5t-22.5 54.5q0 31 22.5 53t52.5 22t52.5 -22t22.5 -53zM186 614q0 16 -12.5 31t-33.5 15t-34 -15t-13 -31q0 -17 13 -32.5t34 -15.5t33.5 15.5t12.5 32.5z" />
    <glyph glyph-name="u109F" unicode="&#x109f;" horiz-adv-x="766" 
d="M696 -328q0 -35 -11 -58.5t-27.5 -37.5t-35 -20t-34.5 -6t-34.5 6t-34.5 20t-27 37.5t-11 58.5v530q0 46 -15 84t-41 65t-60.5 42t-72.5 15t-72 -15t-59.5 -42t-40 -65t-14.5 -83q0 -57 21 -99.5t56 -74.5l-30 -43q-21 17 -39 37.5t-31 46.5t-20.5 58.5t-7.5 74.5
q0 57 18.5 103.5t51 80t75.5 52t92 18.5t92.5 -18.5t76.5 -52t52 -80.5t19 -104v-530q0 -42 17 -56.5t39 -14.5t39.5 14.5t17.5 56.5v718q0 42 -18 71t-45.5 52t-59 43t-59 43t-45.5 53t-18 74q0 37 14.5 69.5t39 56.5t57.5 38t69 14q28 0 50.5 -8t38.5 -21t26.5 -28.5
t15.5 -30.5l-47 -20q-8 26 -32.5 41.5t-51.5 15.5q-26 0 -49.5 -9.5t-41 -27t-28 -40.5t-10.5 -50q0 -34 18 -58.5t45.5 -45.5t59 -41t59 -46t45.5 -60.5t18 -84.5v-718v0z" />
    <glyph glyph-name="u200B" unicode="&#x200b;" 
 />
    <glyph glyph-name="u200C" unicode="&#x200c;" 
 />
    <glyph glyph-name="u200D" unicode="&#x200d;" 
 />
    <glyph glyph-name="quotedblleft" unicode="&#x201c;" horiz-adv-x="464" 
d="M191 679q0 -18 -6.5 -33t-17.5 -25.5t-24.5 -16t-27.5 -5.5q-29 0 -52 20.5t-23 59.5q0 38 9.5 72.5t24.5 61.5t33.5 45.5t35.5 24.5l14 -9q-30 -21 -48 -57t-18 -81q0 -15 0.5 -20.5t2.5 -10.5q3 3 12 7.5t19.5 9t21.5 7.5t19 3t13 -5.5t7.5 -13.5t3.5 -17.5t1 -16.5z
M424 679q0 -18 -6.5 -33t-17.5 -25.5t-24.5 -16t-27.5 -5.5q-29 0 -52 20.5t-23 59.5q0 38 9.5 72.5t24.5 61.5t33.5 45.5t35.5 24.5l14 -9q-30 -21 -48 -57t-18 -81q0 -15 0.5 -20.5t2.5 -10.5q3 3 12 7.5t19.5 9t21.5 7.5t19 3t13 -5.5t7.5 -13.5t3.5 -17.5t1 -16.5z" />
    <glyph glyph-name="quotedblright" unicode="&#x201d;" horiz-adv-x="464" 
d="M424 803q0 -38 -9.5 -72.5t-24.5 -61.5t-33.5 -45.5t-35.5 -24.5l-14 9q30 21 48 57t18 81q0 15 -0.5 20.5t-2.5 10.5q-3 -3 -12 -7.5t-19.5 -9t-21.5 -7.5t-19 -3t-13 5.5t-7.5 13.5t-3.5 17t-1 17q0 18 6.5 32.5t17.5 25t24.5 16.5t27.5 6q29 0 52 -20.5t23 -59.5z
M191 803q0 -38 -9.5 -72.5t-24.5 -61.5t-33.5 -45.5t-35.5 -24.5l-14 9q30 21 48 57t18 81q0 15 -0.5 20.5t-2.5 10.5q-3 -3 -12 -7.5t-19.5 -9t-21.5 -7.5t-19 -3t-13 5.5t-7.5 13.5t-3.5 17t-1 17q0 18 6.5 32.5t17.5 25t24.5 16.5t27.5 6q29 0 52 -20.5t23 -59.5z" />
    <glyph glyph-name="quoteleft" unicode="&#x2018;" horiz-adv-x="231" 
d="M191 679q0 -18 -6.5 -33t-17.5 -25.5t-24.5 -16t-27.5 -5.5q-29 0 -52 20.5t-23 59.5q0 38 9.5 72.5t24.5 61.5t33.5 45.5t35.5 24.5l14 -9q-30 -21 -48 -57t-18 -81q0 -15 0.5 -20.5t2.5 -10.5q3 3 12 7.5t19.5 9t21.5 7.5t19 3t13 -5.5t7.5 -13.5t3.5 -17.5t1 -16.5z
" />
    <glyph glyph-name="quoteright" unicode="&#x2019;" horiz-adv-x="233" 
d="M191 803q0 -38 -9.5 -72.5t-24.5 -61.5t-33.5 -45.5t-35.5 -24.5l-14 9q30 21 48 57t18 81q0 15 -0.5 20.5t-2.5 10.5q-3 -3 -12 -7.5t-19.5 -9t-21.5 -7.5t-19 -3t-13 5.5t-7.5 13.5t-3.5 17t-1 17q0 18 6.5 32.5t17.5 25t24.5 16.5t27.5 6q29 0 52 -20.5t23 -59.5z" />
    <glyph glyph-name="endash" unicode="&#x2013;" horiz-adv-x="465" 
d="M0 196v51h465v-51h-465z" />
    <glyph glyph-name="emdash" unicode="&#x2014;" horiz-adv-x="824" 
d="M0 196v51h824v-51h-824z" />
    <glyph glyph-name="u2060" unicode="&#x2060;" 
 />
    <glyph glyph-name="notequal" unicode="&#x2260;" horiz-adv-x="576" 
d="M219 111l-132 -149l-35 38l98 111h-95v51h140l106 120h-246v51h291l122 136l39 -36l-90 -100h103v-51h-150l-106 -120h256v-51h-301z" />
    <glyph glyph-name="circledash" unicode="&#x25cc;" horiz-adv-x="636" 
d="M580 231q0 -24 -24 -24t-24 24t24 24t24 -24zM561 322q0 -24 -23 -24q-24 0 -24 24q0 23 24 23q23 0 23 -23zM510 399q0 -24 -24 -24t-24 24t24 24t24 -24zM432 451q0 -24 -24 -24q-23 0 -23 24t23 24q24 0 24 -24zM340 469q0 -24 -22 -24q-24 0 -24 24t24 24
q22 0 22 -24zM250 451q0 -24 -24 -24t-24 24t24 24t24 -24zM172 399q0 -24 -24 -24t-24 24t24 24t24 -24zM120 322q0 -24 -23 -24q-24 0 -24 24q0 23 24 23q23 0 23 -23zM102 231q0 -24 -24 -24q-23 0 -24 24q1 24 24 24q24 0 24 -24zM120 139q0 -24 -23 -24q-24 0 -24 24
t24 24q23 0 23 -24zM172 61q0 -24 -24 -24t-24 24t24 24t24 -24zM250 10q0 -22 -24 -22t-24 22q0 24 24 24t24 -24zM340 -8q0 -22 -22 -22q-24 0 -24 22q0 23 24 23q22 0 22 -23zM432 10q0 -22 -24 -22q-23 0 -23 22q0 24 23 24q24 0 24 -24zM510 61q0 -24 -24 -24t-24 24
t24 24t24 -24zM561 139q0 -24 -23 -24q-24 0 -24 24t24 24q23 0 23 -24z" />
    <glyph glyph-name="u1700" unicode="&#x1700;" horiz-adv-x="636" 
d="M580 231q0 -24 -24 -24t-24 24t24 24t24 -24zM561 322q0 -24 -23 -24q-24 0 -24 24q0 23 24 23q23 0 23 -23zM510 399q0 -24 -24 -24t-24 24t24 24t24 -24zM432 451q0 -24 -24 -24q-23 0 -23 24t23 24q24 0 24 -24zM340 469q0 -24 -22 -24q-24 0 -24 24t24 24
q22 0 22 -24zM250 451q0 -24 -24 -24t-24 24t24 24t24 -24zM172 399q0 -24 -24 -24t-24 24t24 24t24 -24zM120 322q0 -24 -23 -24q-24 0 -24 24q0 23 24 23q23 0 23 -23zM102 231q0 -24 -24 -24q-23 0 -24 24q1 24 24 24q24 0 24 -24zM120 139q0 -24 -23 -24q-24 0 -24 24
t24 24q23 0 23 -24zM172 61q0 -24 -24 -24t-24 24t24 24t24 -24zM250 10q0 -22 -24 -22t-24 22q0 24 24 24t24 -24zM340 -8q0 -22 -22 -22q-24 0 -24 22q0 23 24 23q22 0 22 -23zM432 10q0 -22 -24 -22q-23 0 -23 22q0 24 23 24q24 0 24 -24zM510 61q0 -24 -24 -24t-24 24
t24 24t24 -24zM561 139q0 -24 -23 -24q-24 0 -24 24t24 24q23 0 23 -24z" />
    <glyph glyph-name="uA92E" unicode="&#xa92e;" horiz-adv-x="548" 
d="M492 176q-35 18 -63 30.5t-53.5 20t-50 11t-51.5 3.5q-26 0 -51 -3t-51 -10.5t-54.5 -20.5t-62.5 -32v39q62 41 113 59t106 18q107 0 218 -77v-38v0z" />
    <glyph glyph-name="uAA60" unicode="&#xaa60;" horiz-adv-x="938" 
d="M883 222q0 -53 -20.5 -97t-54 -75t-77.5 -48t-91 -17q-26 0 -51.5 5.5t-50.5 16.5q10 34 21.5 64t28.5 55.5t40.5 46.5t58.5 37q41 19 72.5 23.5t72.5 -2.5q0 36 -15 68.5t-41 56.5t-60 38t-71 14q-28 0 -51 -6.5t-41.5 -16.5t-33 -22t-24.5 -23q16 -28 25 -62.5t9 -73.5
q0 -44 -7.5 -77.5t-20.5 -60t-30.5 -46t-38.5 -35.5l-30 43q35 32 55.5 74.5t20.5 99.5q0 45 -14.5 82.5t-40 64.5t-59.5 42t-72 15t-72 -15t-59.5 -42t-40 -64.5t-14.5 -82.5q0 -57 21 -99.5t56 -74.5l-30 -43q-21 17 -39 37.5t-31 46.5t-20.5 58.5t-7.5 74.5
q0 57 18.5 104t51 80.5t75.5 52t92 18.5q32 0 58 -6.5t47 -17.5t38 -24.5t30 -26.5q13 13 31 27t40.5 25t49.5 18t59 7q49 0 92 -18.5t75.5 -50.5t51.5 -75.5t19 -92.5zM825 177q-38 8 -67 2.5t-49 -14.5q-45 -22 -67 -52t-36 -73q36 -7 71.5 -1t65.5 24t51.5 47t30.5 67z
" />
    <glyph glyph-name="uAA60.med" 
d="M-56 -267q0 -41 -16 -75t-42.5 -58.5t-60.5 -38t-71 -13.5q-39 0 -79 17q14 54 38.5 93.5t77.5 65.5q32 15 56.5 18.5t56.5 -2.5q0 28 -12 53.5t-32 44t-46.5 29.5t-55.5 11q-44 0 -72.5 -17.5t-44.5 -35.5q13 -22 20 -48.5t7 -57.5q0 -68 -22.5 -107t-53.5 -64l-23 34
q27 25 43 58t16 78q0 34 -11.5 63.5t-31.5 50.5t-46.5 33t-55.5 12q-30 0 -56.5 -12t-46 -33t-31 -50.5t-11.5 -63.5q0 -39 13 -71q9 8 20 13.5t24 5.5q24 0 41.5 -17t17.5 -41t-17.5 -42t-41.5 -18t-42 16t-30 40.5t-18.5 54.5t-6.5 59q0 44 14.5 80.5t39.5 62.5t59 40.5
t72 14.5q50 0 79.5 -16.5t55.5 -41.5q24 26 57 43t83 17q37 0 71 -14.5t59.5 -39.5t40.5 -59t15 -72zM-102 -302q-29 6 -51.5 2.5t-38.5 -11.5q-36 -17 -52.5 -40.5t-27.5 -57.5q28 -5 55.5 -0.5t50.5 18.5t40 36.5t24 52.5z" />
    <glyph glyph-name="uAA60.med.kham" 
d="M-56 -267q0 -41 -16 -75t-42.5 -58.5t-60.5 -38t-71 -13.5q-39 0 -79 17q14 54 38.5 93.5t77.5 65.5q32 15 56.5 18.5t56.5 -2.5q0 28 -12 53.5t-32 44t-46.5 29.5t-55.5 11q-44 0 -72.5 -17.5t-44.5 -35.5q13 -22 20 -48.5t7 -57.5q0 -68 -22.5 -107t-53.5 -64l-23 34
q27 25 43 58t16 78q0 34 -11.5 63.5t-31.5 50.5t-46.5 33t-55.5 12q-30 0 -56.5 -12t-46 -33t-31 -50.5t-11.5 -63.5q0 -39 13 -71q9 8 20 13.5t24 5.5q24 0 41.5 -17t17.5 -41t-17.5 -42t-41.5 -18t-42 16t-30 40.5t-18.5 54.5t-6.5 59q0 44 14.5 80.5t39.5 62.5t59 40.5
t72 14.5q50 0 79.5 -16.5t55.5 -41.5q24 26 57 43t83 17q37 0 71 -14.5t59.5 -39.5t40.5 -59t15 -72zM-102 -302q-29 6 -51.5 2.5t-38.5 -11.5q-36 -17 -52.5 -40.5t-27.5 -57.5q28 -5 55.5 -0.5t50.5 18.5t40 36.5t24 52.5z" />
    <glyph glyph-name="uAA61" unicode="&#xaa61;" horiz-adv-x="991" 
d="M936 222q0 -48 -18 -91.5t-49.5 -75.5t-74.5 -51t-92 -19q-63 0 -114 30t-83 81q-10 -23 -25.5 -50.5t-55.5 -60.5l-30 43q10 10 23.5 25t25.5 35.5t20 46.5t8 58q0 43 -12.5 82.5t-36.5 69t-58.5 47t-78.5 17.5q-48 0 -82 -17.5t-55.5 -40t-31.5 -44t-10 -30.5
q0 -33 22 -50.5t48 -32t48 -33.5t22 -55q0 -29 -8.5 -50.5t-23 -36.5t-33.5 -22.5t-39 -7.5q-15 0 -30 6t-27.5 14t-20.5 17.5t-9 16.5l44 27q1 -5 12.5 -17.5t30.5 -12.5q18 0 35.5 14.5t17.5 51.5q0 14 -10.5 23t-26 17.5l-33.5 18t-33.5 24t-26 35.5t-10.5 53
q0 30 16 62.5t46 59t72.5 44t95.5 17.5q72 0 126.5 -36.5t83.5 -96.5q28 60 83 96t127 36q48 0 90 -19t73.5 -51t49.5 -75t18 -92zM885 222q0 38 -14.5 72t-39 59.5t-58 40t-71.5 14.5t-70.5 -14.5t-57 -40t-38.5 -59.5t-14 -72t14 -72t39 -59.5t58.5 -40t71.5 -14.5
q37 0 70 14.5t57.5 40t38.5 59.5t14 72z" />
    <glyph glyph-name="uAA62" unicode="&#xaa62;" horiz-adv-x="640" 
d="M585 222q0 -48 -12 -91.5t-33.5 -75.5t-51.5 -51t-65 -19q-32 0 -57 15.5t-44.5 38.5t-34 50l-26 50t-21 38.5t-18.5 15.5t-22.5 -21t-29.5 -51.5l-32.5 -63.5t-31.5 -57h-51v444h51v-335q24 49 42 77t32 42t24 17.5t18 3.5q20 0 36.5 -16t31 -39.5t28 -51t29 -51
t34 -39.5t42.5 -16t44.5 14.5t35 40t23 59.5t8.5 72q0 52 -14 87.5t-36.5 57.5t-49.5 31.5t-52 9.5q-9 0 -17.5 -2t-16.5 -7l-21 45q11 8 26 11.5t29 3.5q48 0 85.5 -19t64 -51t40 -75t13.5 -92z" />
    <glyph glyph-name="uAA63" unicode="&#xaa63;" horiz-adv-x="990" 
d="M935 222q0 -49 -18 -92t-49.5 -75.5t-73.5 -51t-90 -18.5q-67 0 -120.5 32.5t-83.5 86.5q-19 -40 -47.5 -69t-55.5 -50q-52 52 -68.5 103.5t-16.5 92.5q0 61 22 105t65 80q-23 19 -52.5 29.5t-61.5 10.5q-48 0 -82 -15.5t-55.5 -37t-31.5 -43t-10 -33.5q0 -22 10.5 -36.5
t26 -25.5t33.5 -20.5t33.5 -21t26 -27.5t10.5 -40q0 -29 -8.5 -50.5t-23 -36.5t-33.5 -22.5t-39 -7.5q-15 0 -30 6t-27.5 14t-20.5 17.5t-9 16.5l44 27q1 -5 12.5 -17.5t30.5 -12.5q18 0 35.5 14.5t17.5 51.5q0 14 -10.5 23t-26 17.5l-33.5 18t-33.5 24t-26 35.5t-10.5 53
q0 28 16 59.5t46 58.5t72.5 44.5t95.5 17.5q69 0 124 -35t85 -95q29 58 83.5 95t123.5 37q49 0 92 -19t74.5 -51t49.5 -75.5t18 -91.5zM884 222q0 37 -14 71t-38.5 59.5t-57.5 40.5t-70 15q-39 0 -72 -14.5t-58 -40t-39 -59.5t-14 -72q0 -39 14 -73t38.5 -59t57.5 -39.5
t70 -14.5q38 0 71.5 14.5t58 40t39 59t14.5 72.5zM471 222q0 25 -10.5 53.5t-25.5 49.5q-34 -26 -53 -59.5t-19 -81.5q0 -23 7 -54t30 -66q38 35 54.5 71t16.5 87z" />
    <glyph glyph-name="uAA64" unicode="&#xaa64;" horiz-adv-x="999" 
d="M943 222q0 -49 -18 -92t-49.5 -75.5t-73.5 -51t-90 -18.5q-72 0 -127.5 37t-83.5 97q-27 -60 -80 -96t-129 -36q-49 0 -92 18.5t-75.5 52t-51 80.5t-18.5 104q0 41 7.5 73t20.5 58t31 46.5t39 37.5l30 -43q-35 -32 -56 -73.5t-21 -98.5q0 -45 14.5 -82.5t40 -64.5
t59.5 -42t72 -15t72 15t59.5 42t40 64.5t14.5 82.5q0 57 -20.5 99.5t-55.5 74.5l30 43q27 -20 47.5 -46.5t34.5 -64.5q31 51 81.5 81t113.5 30q49 0 92 -19t74.5 -51t49.5 -75.5t18 -91.5zM892 222q0 38 -14 72t-38.5 59.5t-57.5 40t-70 14.5q-38 0 -71.5 -14.5t-58.5 -40
t-39 -59.5t-14 -72t14 -72t38.5 -59.5t57 -40t70.5 -14.5t71.5 14.5t58 40t39 59.5t14.5 72z" />
    <glyph glyph-name="uAA65" unicode="&#xaa65;" horiz-adv-x="1006" 
d="M951 222q0 -48 -18.5 -91.5t-50 -75.5t-74 -51t-90.5 -19q-18 0 -35.5 3.5t-34.5 11.5l19 46q11 -5 25 -7.5t26 -2.5q38 0 71 14.5t58 40t39 59.5t14 72t-14 72t-39 59.5t-58 40t-71 14.5q-43 0 -78 -21.5t-59.5 -51t-38 -60.5t-13.5 -49v-501q0 -36 -11.5 -68t-33 -56
t-53.5 -37.5t-73 -13.5h-159q-33 0 -57 10.5t-40 27t-24 37t-8 40.5v33h51v-21q0 -23 7 -37.5t18 -23t25 -12t28 -3.5h165q21 0 41.5 9.5t36.5 27t26 42.5t10 56v340q-32 -45 -80.5 -68t-105.5 -23q-49 0 -92 18.5t-75.5 52t-51 80.5t-18.5 104q0 41 7.5 73.5t20.5 58.5
t31 47t39 38l30 -43q-35 -32 -56 -74.5t-21 -99.5q0 -45 14.5 -82.5t40 -64.5t59.5 -42t72 -15q35 0 68.5 13.5t59.5 39t42 62.5t16 84q0 61 -20.5 104t-55.5 75l30 43q29 -23 51 -52.5t34 -71.5q16 26 37.5 49t47 40t55 27t61.5 10q48 0 90.5 -19t74 -51t50 -75t18.5 -92z
" />
    <glyph glyph-name="uAA66" unicode="&#xaa66;" horiz-adv-x="997" 
d="M942 222q0 -48 -18.5 -91.5t-50 -75.5t-74 -51t-89.5 -19q-18 0 -36 3.5t-35 11.5l20 46q21 -10 51 -10q37 0 70 14.5t58 40t39 59.5t14 72t-14 72t-39 59.5t-58 40t-71 14.5q-47 0 -82 -23.5t-59 -55.5t-36 -66t-12 -55q0 -32 -15 -70.5t-44.5 -72.5t-72.5 -57t-99 -23
q-50 0 -92.5 18.5t-74 51t-49.5 75.5t-18 92q0 48 18 91.5t49.5 75.5t73.5 51t90 19q36 0 68.5 -10.5t60.5 -29.5t50 -45.5t36 -57.5q16 30 38.5 56t49.5 45.5t57.5 30.5t62.5 11q47 0 89.5 -19t74.5 -51t50.5 -75.5t18.5 -91.5zM469 217q0 39 -13.5 73.5t-37.5 61t-57 41.5
t-72 15q-38 0 -71.5 -14.5t-58.5 -40t-39 -59.5t-14 -72t14 -72t38.5 -59.5t57 -40t70.5 -14.5q40 0 74 15.5t58 41t37.5 58t13.5 66.5zM364 222q0 -32 -22.5 -54t-52.5 -22q-31 0 -53 22t-22 54t22 53.5t53 21.5q30 0 52.5 -21.5t22.5 -53.5z" />
    <glyph glyph-name="uAA67" unicode="&#xaa67;" horiz-adv-x="990" 
d="M934 222q0 -49 -18.5 -92t-50 -75.5t-74 -51t-89.5 -18.5q-69 0 -124 35.5t-83 93.5q-31 -58 -84 -93.5t-122 -35.5q-50 0 -92.5 18.5t-74 51t-49.5 75.5t-18 92q0 48 18 91.5t49.5 75.5t73.5 51t90 19q69 0 123.5 -36t85.5 -93q28 57 83 93t124 36q47 0 89.5 -19t74 -51
t50 -75.5t18.5 -91.5zM883 222q0 38 -14 72t-39 59.5t-58 40t-70 14.5q-38 0 -71 -14.5t-58 -40t-39 -59.5t-14 -72t14 -72t39 -59.5t58 -40t71 -14.5q37 0 70 14.5t58 40t39 59.5t14 72zM469 222q0 38 -14 72t-38.5 59.5t-57.5 40t-70 14.5q-38 0 -71.5 -14.5t-58.5 -40
t-39 -59.5t-14 -72t14 -72t38.5 -59.5t57 -40t70.5 -14.5t71.5 14.5t58 40t39 59.5t14.5 72zM364 222q0 -32 -22.5 -54t-52.5 -22q-31 0 -53 22t-22 54t22 53.5t53 21.5q30 0 52.5 -21.5t22.5 -53.5z" />
    <glyph glyph-name="uAA68" unicode="&#xaa68;" horiz-adv-x="937" 
d="M882 222q0 -53 -20 -97t-53.5 -75t-77.5 -48t-91 -17q-26 0 -51.5 5.5t-50.5 16.5q11 40 24.5 71.5t31 56t40.5 43t53 32.5q39 18 74 22t71 -1q-2 36 -17 68.5t-40.5 56.5t-58.5 38t-71 14q-43 0 -83.5 -19.5t-69.5 -54.5q28 -52 28 -112q0 -49 -18 -92t-49.5 -75.5
t-73.5 -51t-90 -18.5q-49 0 -91.5 18.5t-74 51t-50 75.5t-18.5 92q0 48 18 91.5t49.5 75.5t73.5 51t90 19q52 0 97.5 -22t78.5 -58q37 42 84 61t99 19q49 0 92 -18.5t75 -50.5t51 -75.5t19 -92.5zM825 177q-32 6 -60.5 3.5t-55.5 -15.5q-45 -22 -67 -52t-36 -73
q37 -8 72.5 -1t65 26t51 47.5t30.5 64.5zM469 222q0 38 -14 72t-38.5 59.5t-57.5 40t-70 14.5q-38 0 -71.5 -14.5t-58.5 -40t-39 -59.5t-14 -72t14 -72t38.5 -59.5t57 -40t70.5 -14.5t71.5 14.5t58 40t39 59.5t14.5 72zM364 222q0 -32 -22.5 -54t-52.5 -22q-31 0 -53 22
t-22 54t22 53.5t53 21.5q30 0 52.5 -21.5t22.5 -53.5z" />
    <glyph glyph-name="uAA69" unicode="&#xaa69;" horiz-adv-x="990" 
d="M934 222q0 -49 -18 -92t-49.5 -75.5t-73.5 -51t-89 -18.5q-70 0 -125 35.5t-84 93.5q-29 -58 -83 -93.5t-123 -35.5q-50 0 -92.5 18.5t-74 51t-49.5 75.5t-18 92q0 48 18 91.5t49.5 75.5t73.5 51t90 19q70 0 125 -36.5t84 -93.5q29 57 83.5 93.5t122.5 36.5
q47 0 89.5 -19t74.5 -51t50.5 -75.5t18.5 -91.5zM884 222q0 38 -14 72t-38.5 59.5t-57.5 40t-70 14.5q-36 0 -69 -14.5t-58 -39t-40.5 -56.5t-16.5 -67q36 5 72 1t73 -22q25 -12 44 -26t34 -31t28 -39t25 -52q48 32 68 73t20 87zM746 40q-14 43 -36 73t-67 52
q-29 14 -56.5 16.5t-59.5 -4.5q8 -33 25.5 -59t41.5 -44.5t53 -28t60 -9.5q26 0 39 4zM469 222q0 37 -14 71t-38.5 59.5t-57.5 40.5t-70 15q-38 0 -71.5 -15t-58.5 -40.5t-39 -59.5t-14 -71q0 -39 14.5 -72.5t39 -59t57 -40t69.5 -14.5q38 0 71.5 14.5t58 40t39 59
t14.5 72.5zM364 222q0 -32 -22.5 -54t-52.5 -22q-31 0 -53 22t-22 54t22 53.5t53 21.5q30 0 52.5 -21.5t22.5 -53.5z" />
    <glyph glyph-name="uAA6A" unicode="&#xaa6a;" horiz-adv-x="990" 
d="M934 222q0 -49 -18 -92t-49.5 -75.5t-73.5 -51t-89 -18.5q-70 0 -125 35.5t-84 93.5q-29 -58 -83 -93.5t-123 -35.5q-50 0 -92.5 18.5t-74 51t-49.5 75.5t-18 92q0 48 18 91.5t49.5 75.5t73.5 51t90 19q70 0 125 -36.5t84 -93.5q29 57 83.5 93.5t122.5 36.5
q47 0 89.5 -19t74.5 -51t50.5 -75.5t18.5 -91.5zM884 222q0 38 -14 72t-38.5 59.5t-57.5 40t-70 14.5q-36 0 -69 -14.5t-58 -39t-40.5 -56.5t-16.5 -67q39 5 76 0.5t69 -21.5q27 -14 46.5 -28.5t34 -31.5t26.5 -38.5t24 -49.5q48 32 68 73t20 87zM746 40q-14 43 -36 73
t-67 52q-29 14 -58 16t-58 -4q8 -33 25.5 -59t41.5 -44.5t53 -28t60 -9.5q26 0 39 4zM469 222q0 37 -14 71t-38.5 59.5t-57.5 40.5t-70 15q-38 0 -71.5 -15t-58.5 -40.5t-39 -59.5t-14 -71q0 -39 14.5 -72.5t39 -59t57 -40t69.5 -14.5q38 0 71.5 14.5t58 40t39 59t14.5 72.5
z" />
    <glyph glyph-name="uAA6B" unicode="&#xaa6b;" horiz-adv-x="714" 
d="M658 202q0 -42 -7 -74.5t-20 -58.5t-31 -46.5t-39 -37.5l-30 43q34 32 55 74.5t21 99.5q0 46 -14.5 83.5t-40 64.5t-59.5 41.5t-72 14.5q-36 0 -66 -12.5t-53 -32t-38 -44.5t-21 -49q69 -26 99.5 -67t30.5 -92q0 -36 -18.5 -68.5t-45.5 -55.5q-32 13 -56 35t-40 50
t-24 60t-8 66q0 10 1.5 20.5l3.5 23.5q-56 23 -91 58t-35 97q0 11 2 23t5 26h51q-3 -12 -4.5 -25.5t-1.5 -23.5q0 -28 11 -46.5t25.5 -30.5t28.5 -18.5t21 -10.5q24 79 84.5 123.5t138.5 44.5q49 0 92 -18.5t75.5 -52t51 -80.5t18.5 -104zM325 109q0 38 -24.5 67t-66.5 41
q-2 -7 -2.5 -14t-0.5 -15q0 -16 4 -35.5t12.5 -39t21 -37t29.5 -28.5q8 5 17.5 21.5t9.5 39.5z" />
    <glyph glyph-name="uAA6C" unicode="&#xaa6c;" horiz-adv-x="990" 
d="M934 222q0 -48 -16 -91.5t-45 -75.5t-69 -51t-87 -19q-57 0 -89 16t-49.5 39.5t-24 51l-12.5 51t-15.5 39.5t-31.5 16t-32 -16t-15.5 -39.5l-12.5 -51t-24 -51t-49.5 -39.5t-88.5 -16q-48 0 -88.5 19t-69 51t-44.5 75.5t-16 91.5q0 49 13.5 92t40 75t64 51t85.5 19
q14 0 29 -3.5t26 -11.5l-21 -45q-14 9 -34 9q-38 0 -66.5 -14.5t-47.5 -40t-28.5 -59.5t-9.5 -72t12 -72t34 -59.5t53 -40t68 -14.5q47 0 71.5 16t36.5 39.5t17 51t14 51t27 39.5t56 16t56 -16t27 -39.5t14 -51t17 -51t36.5 -39.5t71.5 -16q37 0 67.5 14.5t52.5 40t34 59.5
t12 72t-9.5 72t-28.5 59.5t-47.5 40t-65.5 14.5q-9 0 -18.5 -2t-16.5 -7l-21 45q11 8 26.5 11.5t29.5 3.5q48 0 85.5 -19t63.5 -51t39.5 -75t13.5 -92z" />
    <glyph glyph-name="uAA6D" unicode="&#xaa6d;" horiz-adv-x="843" 
d="M787 222q0 -49 -18.5 -92t-50 -75.5t-73.5 -51t-90 -18.5q-18 0 -36 3.5t-35 11.5l20 46q11 -5 24.5 -7.5t26.5 -2.5q37 0 70 14.5t58 40t39 59.5t14 72t-14 72t-38 59.5t-57 40t-72 14.5q-38 0 -72.5 -18t-60.5 -46.5t-41.5 -64t-15.5 -69.5v-483q0 -39 -13 -72
t-35.5 -56t-54 -36t-67.5 -13h-41q-33 0 -57 10.5t-40 27t-24 37t-8 40.5v33h51v-21q0 -23 7 -37.5t18 -23t25 -12t28 -3.5h47q21 0 41.5 8.5t36 25.5t25 42.5t9.5 58.5v520q-14 -9 -30 -13.5t-30 -4.5q-20 0 -39 8t-35 22.5t-25.5 35t-9.5 45.5t9 45t24 34.5t35 22.5t41 8
q25 0 45.5 -9t35 -24.5t22.5 -36t8 -43.5q22 33 47.5 54.5t51 34.5t49.5 18.5t43 5.5q48 0 90 -19t73.5 -51t50 -75.5t18.5 -91.5zM313 348q0 23 -17 41.5t-43 18.5t-42 -18.5t-16 -41.5q0 -26 17.5 -42.5t40.5 -16.5q24 0 42 16.5t18 42.5z" />
    <glyph glyph-name="uAA6E" unicode="&#xaa6e;" horiz-adv-x="960" 
d="M904 222q0 -49 -17 -92t-47 -75.5t-71.5 -51t-89.5 -18.5t-86 18.5t-66.5 51t-46.5 75.5t-26 92q-6 37 -19.5 71t-35 59.5t-51.5 40.5t-68 15q-36 0 -67 -13t-53.5 -36.5t-37 -56t-17.5 -71.5q79 11 145 -21q35 -16 59 -37t40.5 -46.5t28 -55.5t21.5 -64
q-47 -22 -102 -22q-47 0 -91 17t-77.5 48t-53.5 75t-20 97q0 48 17.5 91.5t47.5 75.5t71 51t89 19t86.5 -19t66.5 -51.5t46 -75.5t26 -91q6 -38 20 -71.5t36 -59t51.5 -40.5t66.5 -15t69 14.5t55 40t36.5 59t13.5 72.5q0 37 -13.5 71t-36.5 59.5t-55 40.5t-69 15
q-24 0 -49 -11l-20 47q31 15 69 15q48 0 89.5 -19t71.5 -51t47 -75.5t17 -91.5zM331 40q-14 43 -36 73t-67 52q-29 14 -58 16t-58 -4q8 -35 28.5 -64t50 -48t65.5 -26t75 1z" />
    <glyph glyph-name="uAA6F" unicode="&#xaa6f;" horiz-adv-x="726" 
d="M670 222q0 -49 -18 -92t-49.5 -75.5t-73.5 -51t-90 -18.5q-46 0 -86.5 17t-72 46.5t-51.5 69t-24 84.5l-23.5 36.5l-27 41l-26.5 39.5l-22 32v-351h-51v444h51l24.5 -34.5l29.5 -43l29 -43.5l25 -37q10 37 30.5 68.5t50 54.5t65.5 36.5t76 13.5q49 0 92 -19t74.5 -51
t49.5 -75.5t18 -91.5zM619 222q0 38 -14 72t-38.5 59.5t-57.5 40t-70 14.5q-38 0 -71.5 -14.5t-58.5 -40t-39 -59.5t-14 -72t14 -72t38.5 -59.5t57 -40t70.5 -14.5t71.5 14.5t58 40t39 59.5t14.5 72z" />
    <glyph glyph-name="uAA70" unicode="&#xaa70;" horiz-adv-x="534" 
d="M435 756q-11 15 -28 30.5t-38.5 27.5t-47.5 19.5t-54 7.5q-57 0 -100.5 -26t-68.5 -59l-28 31q38 45 91.5 70t105.5 25q50 0 104 -25t92 -70zM420 597q-29 38 -68 60.5t-85 22.5t-85.5 -22.5t-68.5 -60.5l-28 31q33 45 81.5 69t100.5 24q51 0 99.5 -24t81.5 -69z" />
    <glyph glyph-name="uAA71" unicode="&#xaa71;" horiz-adv-x="1002" 
d="M946 222q0 -49 -18.5 -92t-50 -75.5t-73.5 -51t-90 -18.5q-18 0 -36 4t-35 11l20 46q11 -4 24.5 -7t26.5 -3q37 0 70 14.5t58 40t39 59.5t14 72t-14 72t-39 59.5t-58 40t-70 14.5t-70.5 -19t-58.5 -49t-40 -67.5t-16 -74.5v-5q-1 -38 -8 -67.5t-19.5 -54.5t-30 -45.5
t-39.5 -40.5l-30 43q36 32 56 72.5t20 96.5q0 49 -14.5 88t-40 66t-59.5 41t-72 14q-32 0 -61.5 -10.5t-52.5 -29.5q43 -36 65 -80t22 -105q0 -41 -16.5 -92.5t-68.5 -103.5q-21 17 -43 37.5t-40.5 46.5t-30 58.5t-11.5 74.5q0 57 18.5 104t51 80.5t75.5 52t92 18.5
q72 0 130 -38.5t86 -106.5q15 31 37 57.5t48.5 46.5t57 31.5t63.5 11.5q48 0 90 -19t73.5 -51t50 -75.5t18.5 -91.5zM214 184q0 47 -19 81t-53 60q-17 -23 -26.5 -55t-9.5 -68q0 -43 21 -76t50 -62q23 35 30 66t7 54z" />
    <glyph glyph-name="uAA72" unicode="&#xaa72;" horiz-adv-x="1207" 
d="M1151 222q0 -48 -18 -91.5t-49.5 -75.5t-74.5 -51t-92 -19q-62 0 -114 30.5t-82 81.5q-13 -36 -33.5 -62.5t-47.5 -48.5l-30 44q35 32 55.5 74t20.5 100q0 45 -14.5 82.5t-40 64.5t-59.5 42t-72 15q-53 0 -89 -22t-57.5 -53.5t-30.5 -66.5t-9 -62q0 -25 4.5 -51.5
t4.5 -55.5q0 -18 -4.5 -38t-16.5 -36.5t-32.5 -27t-51.5 -10.5q-35 0 -65 21t-52 53.5t-34 70.5t-12 72q0 14 1.5 30t5 32t9.5 30t15 24q58 -17 93.5 -53.5t58.5 -83.5q15 -32 19.5 -64t5.5 -57q6 11 7.5 19.5t1.5 17.5q0 20 -1.5 34t-3 25l-3 22t-1.5 26q0 39 12.5 84
t40.5 83t73.5 63t110.5 25q69 0 124.5 -35t85.5 -97q29 59 84 95.5t126 36.5q48 0 90 -19t73.5 -51t49.5 -75t18 -92zM1100 222q0 38 -14.5 72t-39 59.5t-58 40t-71.5 14.5q-37 0 -70 -14.5t-57.5 -40t-38.5 -59.5t-14 -72t14 -72t39 -59.5t58.5 -40t71.5 -14.5
q37 0 70 14.5t57.5 40t38.5 59.5t14 72zM191 160q-19 34 -40 59t-41 33q-5 -23 -5 -43q0 -33 10 -63.5t26 -54.5t36 -39t41 -16q0 27 -6.5 62.5t-20.5 61.5z" />
    <glyph glyph-name="uAA73" unicode="&#xaa73;" horiz-adv-x="640" 
d="M585 222q0 -42 -10.5 -84t-31 -76t-51 -55.5t-69.5 -21.5q-46 0 -84 34.5t-74.5 88t-74.5 118.5t-84 125v-351h-51v444h51q61 -82 106.5 -156l82 -130t67 -89t61.5 -33q28 0 49 17.5t34.5 44.5t20.5 60t7 64q0 52 -14 87.5t-36.5 57.5t-49.5 31.5t-52 9.5q-9 0 -17.5 -2
t-16.5 -7l-21 45q11 8 26 11.5t29 3.5q48 0 85.5 -19t64 -51t40 -75t13.5 -92z" />
    <glyph glyph-name="uAA74" unicode="&#xaa74;" horiz-adv-x="749" 
d="M633 796q-8 26 -32.5 41.5t-51.5 15.5q-26 0 -49 -9.5t-41 -27t-28.5 -40.5t-10.5 -50q0 -35 18 -59.5t45 -45t59 -40.5t59 -45.5t45 -60.5t18 -85v-683q0 -70 -27.5 -113.5t-88.5 -43.5q-26 0 -63 21.5t-75 62.5q0 -8 -5 -22.5t-16.5 -28t-30 -23.5t-44.5 -10
q-19 0 -36.5 7t-31 19.5t-21.5 30.5t-8 40t8 39.5t21.5 30t31 19.5t36.5 7q10 0 22.5 -2t23.5 -9v248q-31 -10 -68 -10q-49 0 -92 18.5t-75.5 52t-51 80.5t-18.5 104q0 46 7 81.5t20 62.5t31 48.5t40 39.5l30 -43q-17 -16 -31.5 -33.5t-24.5 -39.5t-15.5 -50.5t-5.5 -65.5
q0 -45 14.5 -82.5t40 -64.5t59.5 -42t72 -15q36 0 68 12v334q0 40 11 66t41 26q13 0 33 -17.5t38.5 -47.5t32 -70t13.5 -86q0 -85 -31.5 -144t-86.5 -93v-298q47 -50 82 -76t55 -26q21 0 34 11t20 29.5t9.5 43t2.5 51.5v654q0 42 -18 71t-45.5 52t-59 42.5t-59 43
t-45.5 53.5t-18 74q0 37 14 69.5t38.5 56.5t57 38t70.5 14q44 0 78.5 -23t51.5 -65zM314 -399q16 0 31 13.5t15 36.5v16q-3 5 -15.5 15t-30.5 10q-20 0 -33 -13.5t-13 -31.5t13 -32t33 -14zM478 238q0 34 -9 64.5t-20 53t-21.5 36t-14.5 13.5q-3 0 -3 -14v-328q32 30 50 74
t18 101z" />
    <glyph glyph-name="uAA75" unicode="&#xaa75;" horiz-adv-x="1120" 
d="M1043 796q-8 26 -32.5 41.5t-51.5 15.5t-50.5 -10.5t-41 -27.5t-27.5 -40.5t-10 -48.5q0 -35 18 -59.5t45 -45t59 -40.5t59 -45.5t45 -60.5t18 -85v-683q0 -47 -11.5 -77t-30 -48t-43 -25t-51.5 -7q-26 0 -52 7t-51 18t-47 26t-40 31q-2 -12 -9 -26.5t-19 -26.5
t-28.5 -20.5t-37.5 -8.5q-19 0 -36.5 7t-31 19.5t-21.5 30.5t-8 40t8 39.5t21.5 30t31 19.5t36.5 7q10 0 22.5 -3t23.5 -11v308q8 -2 15 -2h14q40 0 70 17t49.5 43.5t29.5 60t10 66.5q0 38 -14 72t-39 59.5t-58 40t-71 14.5q-37 0 -70 -19t-58 -49t-40 -67.5t-16 -74.5
q-2 -80 -28.5 -129.5t-69.5 -83.5l-30 43q35 32 56 74.5t21 99.5q0 45 -14.5 82.5t-39.5 65t-59 42.5t-72 15q-48 0 -82 -17.5t-56 -40t-32 -44t-10 -28.5q0 -33 22 -50.5t48 -32t48 -33.5t22 -55q0 -29 -8.5 -50.5t-23 -36.5t-33.5 -22.5t-39 -7.5q-15 0 -30 6t-27.5 14
t-20.5 17.5t-9 16.5l44 27q1 -5 12.5 -17.5t30.5 -12.5q18 0 35.5 14.5t17.5 51.5q0 14 -10.5 23t-26 17.5l-33.5 18t-33.5 24t-26 35.5t-10.5 53q0 28 16 59.5t46 58.5t72.5 44.5t95.5 17.5q72 0 129.5 -38t86.5 -107q15 31 36.5 57.5t48 46.5t57 31.5t63.5 11.5
q48 0 90.5 -19t74 -51t50 -75.5t18.5 -91.5t-15 -88.5t-40.5 -70.5t-59.5 -49.5t-73 -25.5v-289q19 -17 43.5 -34t50 -31t50 -23t43.5 -9q30 0 47 9t26 27.5t11.5 47.5t2.5 70v634q0 42 -18 71t-45.5 52t-59.5 42.5t-59.5 43t-45.5 53.5t-18 74q0 37 14 69.5t38.5 56.5
t57 38t70.5 14q44 0 80 -23.5t50 -64.5zM654 -399q12 0 28 11t18 37v18q-3 5 -15.5 15t-30.5 10q-20 0 -33 -13.5t-13 -31.5t13 -32t33 -14z" />
    <glyph glyph-name="uAA76" unicode="&#xaa76;" horiz-adv-x="1139" 
d="M1053 796q-8 26 -32.5 41.5t-51.5 15.5t-50.5 -10.5t-41 -27.5t-27.5 -40.5t-10 -48.5q0 -35 18 -59.5t45 -45t59 -40.5t59 -45.5t45 -60.5t18 -85v-683q0 -47 -11.5 -77t-30 -48t-43 -25t-51.5 -7q-26 0 -52.5 7t-51.5 19t-47.5 27t-40.5 31q0 -9 -6 -23.5t-18 -28
t-29 -23t-39 -9.5q-19 0 -36.5 7t-31 19.5t-21.5 30.5t-8 40t8 39.5t21.5 30t31 19.5t36.5 7q10 0 22.5 -3t23.5 -11v309q6 -1 14.5 -1.5t13.5 -0.5q40 0 70.5 17t50 43.5t29.5 59.5t10 66q0 38 -14 72t-39 59.5t-58 40t-71 14.5q-37 0 -70.5 -18.5t-58.5 -48.5t-40 -67
t-15 -74v-475q0 -35 -14 -66t-38 -55q-25 -25 -57 -39.5t-67 -14.5h-166q-24 0 -43 9t-32 23t-19.5 32.5t-6.5 38.5q0 19 7.5 37t21.5 32.5t35 23.5t47 9q41 0 63 -22l-34 -39q-16 10 -29 10q-30 0 -45 -14.5t-15 -36.5q0 -18 13.5 -35t36.5 -17h136q24 0 40.5 1.5t29 5.5
t23 11t23.5 19q19 18 29 44.5t10 53.5v466q0 46 -15 84t-41 65t-60.5 42t-72.5 15q-54 0 -101.5 -29.5t-74.5 -83.5l-45 25q14 34 38 59.5t53.5 42.5t63 26t66.5 9q49 0 87.5 -16.5t66 -39.5t43.5 -47.5t22 -41.5q15 31 36.5 57.5t48 46.5t57 31.5t63.5 11.5q48 0 90.5 -19
t74 -51t50 -75.5t18.5 -91.5t-15 -88.5t-40.5 -71t-59.5 -49.5t-73 -25v-289q19 -17 43.5 -34t50 -31t50 -23t43.5 -9q28 0 45 8t26 26t12 47.5t3 72.5v634q0 42 -18 71t-45.5 52t-59 42.5t-59 43t-45.5 53.5t-18 74q0 37 14 69.5t38.5 56.5t57 38t70.5 14q44 0 80.5 -23.5
t49.5 -64.5zM664 -399q12 0 28 11t18 37v18q-3 5 -15.5 15t-30.5 10q-20 0 -33 -13.5t-13 -31.5t13 -32t33 -14z" />
    </font>
</defs>
</svg>
