<?xml version="1.0" standalone="no"?>
<!DOCTYPE svg PUBLIC "-//W3C//DTD SVG 1.1//EN" "http://www.w3.org/Graphics/SVG/1.1/DTD/svg11.dtd" >
<svg>
<metadata>
Created by FontForge 20100429 at Mon Apr 25 22:11:57 2011
 By Santhosh Thottingal,,,
Copyright (c) 2010 by Sai Zin Di Di Zone. All rights reserved.
</metadata>
<defs>
<font id="Yunghkio" horiz-adv-x="0" >
  <font-face 
    font-family="Yunghkio"
    font-weight="400"
    font-stretch="normal"
    units-per-em="1000"
    panose-1="2 0 5 3 0 0 0 2 0 3"
    ascent="800"
    descent="-200"
    x-height="547"
    cap-height="729"
    bbox="-1036 -415 2338 968"
    underline-thickness="130"
    underline-position="-885"
    unicode-range="U+0020-AA7B"
  />
<missing-glyph horiz-adv-x="318" 
 />
    <glyph glyph-name="S_TA" unicode="&#x1039;&#x1010;" horiz-adv-x="764" 
d="M474 -318q26 -6 46 -6q55 0 91 36.5t36 91.5t-36 91t-91 36q-56 0 -93 -36q-25 -24 -37 -80l-58 87q17 29 38 51q60 58 150 58t147.5 -58.5t57.5 -148.5t-58 -149t-147 -59q-33 0 -73 11zM209 -409q-86 0 -147 61t-61 149t61 149q60 60 149 60q88 0 147 -60
q58 -61 58 -149q0 -84 -61 -147q-60 -63 -146 -63zM209 -73q-56 0 -90.5 -35t-34.5 -91q0 -27 9 -49t25.5 -38.5t38.5 -25.5t49 -9q56 0 90 33t36 89q0 56 -33.5 91t-89.5 35zM110 306q12 0 21 -8.5t9 -20.5q0 -13 -9 -22t-21 -9q-13 0 -21.5 9t-8.5 22q0 12 8.5 20.5
t21.5 8.5zM359 547q12 0 21 -8.5t9 -22.5q0 -11 -9 -20t-21 -9q-13 0 -21.5 9t-8.5 20q0 14 8.5 22.5t21.5 8.5zM359 59q12 0 21 -8.5t9 -20.5q0 -13 -9 -22t-21 -9q-13 0 -21.5 9t-8.5 22q0 12 8.5 20.5t21.5 8.5zM187 128q12 0 21 -8.5t9 -22.5q0 -11 -9 -20t-21 -9
q-13 0 -21.5 9t-8.5 20q0 14 8.5 22.5t21.5 8.5zM129 204q14 0 23 -8.5t9 -22.5q0 -11 -9 -21t-23 -10q-11 0 -20.5 10t-9.5 21q0 14 9.5 22.5t20.5 8.5zM261 78q14 0 23 -8.5t9 -22.5q0 -11 -9 -21t-23 -10q-11 0 -19.5 10t-8.5 21q0 14 8.5 22.5t19.5 8.5zM187 420
q-13 0 -21.5 8.5t-8.5 22.5q0 11 8.5 20t21.5 9q12 0 21 -9t9 -20q0 -14 -9 -22.5t-21 -8.5zM129 344q-11 0 -20.5 9t-9.5 22q0 11 9.5 21t20.5 10q14 0 23 -10t9 -21q0 -13 -9 -22t-23 -9zM261 470q-11 0 -19.5 8.5t-8.5 22.5q0 11 8.5 21t19.5 10q14 0 23 -10t9 -21
q0 -14 -9 -22.5t-23 -8.5zM599 306q13 0 21.5 -8.5t8.5 -20.5q0 -13 -8.5 -22t-21.5 -9q-12 0 -21 9t-9 22q0 12 9 20.5t21 8.5zM522 128q13 0 21.5 -8.5t8.5 -22.5q0 -11 -8.5 -20t-21.5 -9q-12 0 -21 9t-9 20q0 14 9 22.5t21 8.5zM580 204q11 0 20.5 -8.5t9.5 -22.5
q0 -11 -9.5 -21t-20.5 -10q-14 0 -23 10t-9 21q0 14 9 22.5t23 8.5zM448 78q11 0 19.5 -8.5t8.5 -22.5q0 -11 -8.5 -21t-19.5 -10q-14 0 -23 10t-9 21q0 14 9 22.5t23 8.5zM522 420q-12 0 -21 8.5t-9 22.5q0 11 9 20t21 9q13 0 21.5 -9t8.5 -20q0 -14 -8.5 -22.5t-21.5 -8.5
zM580 344q-14 0 -23 9t-9 22q0 11 9 21t23 10q11 0 20.5 -10t9.5 -21q0 -13 -9.5 -22t-20.5 -9zM448 470q-14 0 -23 8.5t-9 22.5q0 11 9 21t23 10q11 0 19.5 -10t8.5 -21q0 -14 -8.5 -22.5t-19.5 -8.5z" />
    <glyph glyph-name="S_THA" unicode="&#x1039;&#x1011;" horiz-adv-x="764" 
d="M209 -409q-86 0 -147 61t-61 149t61 149q60 60 149 60q88 0 147 -60q58 -61 58 -149q0 -84 -61 -147q-60 -63 -146 -63zM209 -73q-56 0 -90.5 -35t-34.5 -91q0 -27 9 -49t25.5 -38.5t38.5 -25.5t49 -9q56 0 90 33t36 89q0 56 -33.5 91t-89.5 35zM393 -209
q15 -62 46.5 -87.5t76.5 -25.5q56 0 90 33t36 89q0 56 -33.5 91t-89.5 35q-48 0 -80.5 -26t-46.5 -95l-57 95q11 17 18.5 27.5t18.5 21.5q60 60 149 60q88 0 147 -60q58 -61 58 -149q0 -84 -61 -147q-60 -63 -146 -63t-147 61q-24 24 -41 57zM110 306q12 0 21 -8.5t9 -20.5
q0 -13 -9 -22t-21 -9q-13 0 -21.5 9t-8.5 22q0 12 8.5 20.5t21.5 8.5zM359 547q12 0 21 -8.5t9 -22.5q0 -11 -9 -20t-21 -9q-13 0 -21.5 9t-8.5 20q0 14 8.5 22.5t21.5 8.5zM359 59q12 0 21 -8.5t9 -20.5q0 -13 -9 -22t-21 -9q-13 0 -21.5 9t-8.5 22q0 12 8.5 20.5t21.5 8.5
zM187 128q12 0 21 -8.5t9 -22.5q0 -11 -9 -20t-21 -9q-13 0 -21.5 9t-8.5 20q0 14 8.5 22.5t21.5 8.5zM129 204q14 0 23 -8.5t9 -22.5q0 -11 -9 -21t-23 -10q-11 0 -20.5 10t-9.5 21q0 14 9.5 22.5t20.5 8.5zM261 78q14 0 23 -8.5t9 -22.5q0 -11 -9 -21t-23 -10
q-11 0 -19.5 10t-8.5 21q0 14 8.5 22.5t19.5 8.5zM187 420q-13 0 -21.5 8.5t-8.5 22.5q0 11 8.5 20t21.5 9q12 0 21 -9t9 -20q0 -14 -9 -22.5t-21 -8.5zM129 344q-11 0 -20.5 9t-9.5 22q0 11 9.5 21t20.5 10q14 0 23 -10t9 -21q0 -13 -9 -22t-23 -9zM261 470
q-11 0 -19.5 8.5t-8.5 22.5q0 11 8.5 21t19.5 10q14 0 23 -10t9 -21q0 -14 -9 -22.5t-23 -8.5zM599 306q13 0 21.5 -8.5t8.5 -20.5q0 -13 -8.5 -22t-21.5 -9q-12 0 -21 9t-9 22q0 12 9 20.5t21 8.5zM522 128q13 0 21.5 -8.5t8.5 -22.5q0 -11 -8.5 -20t-21.5 -9q-12 0 -21 9
t-9 20q0 14 9 22.5t21 8.5zM580 204q11 0 20.5 -8.5t9.5 -22.5q0 -11 -9.5 -21t-20.5 -10q-14 0 -23 10t-9 21q0 14 9 22.5t23 8.5zM448 78q11 0 19.5 -8.5t8.5 -22.5q0 -11 -8.5 -21t-19.5 -10q-14 0 -23 10t-9 21q0 14 9 22.5t23 8.5zM522 420q-12 0 -21 8.5t-9 22.5
q0 11 9 20t21 9q13 0 21.5 -9t8.5 -20q0 -14 -8.5 -22.5t-21.5 -8.5zM580 344q-14 0 -23 9t-9 22q0 11 9 21t23 10q11 0 20.5 -10t9.5 -21q0 -13 -9.5 -22t-20.5 -9zM448 470q-14 0 -23 8.5t-9 22.5q0 11 9 21t23 10q11 0 19.5 -10t8.5 -21q0 -14 -8.5 -22.5t-19.5 -8.5z
" />
    <glyph glyph-name="S_DA" unicode="&#x1039;&#x1012;" horiz-adv-x="609" 
d="M159 -242q14 -33 31 -51q37 -35 95 -35q55 0 94 40v0l4 -20q-45 0 -76.5 31.5t-31.5 77.5q0 22 8.5 42t23 34.5t34.5 23.5t42 9v0l-4 -20q-39 40 -94 40q-57 0 -94 -37q-17 -17 8 -62l-94 -2q-41 65 24 123t156 58t150 -59q40 -54 29.5 -87.5t-79.5 -35.5
q-11 0 -18.5 -7.5t-7.5 -18.5t7.5 -18.5t18.5 -7.5q62 -3 78.5 -33.5t-29.5 -92.5q-59 -59 -149 -59q-93 0 -152 59q-29 27 -49 74zM40 306q12 0 21 -8.5t9 -20.5q0 -13 -9 -22t-21 -9q-13 0 -21.5 9t-8.5 22q0 12 8.5 20.5t21.5 8.5zM289 547q12 0 21 -8.5t9 -22.5
q0 -11 -9 -20t-21 -9q-13 0 -21.5 9t-8.5 20q0 14 8.5 22.5t21.5 8.5zM289 59q12 0 21 -8.5t9 -20.5q0 -13 -9 -22t-21 -9q-13 0 -21.5 9t-8.5 22q0 12 8.5 20.5t21.5 8.5zM117 128q12 0 21 -8.5t9 -22.5q0 -11 -9 -20t-21 -9q-13 0 -21.5 9t-8.5 20q0 14 8.5 22.5t21.5 8.5
zM59 204q14 0 23 -8.5t9 -22.5q0 -11 -9 -21t-23 -10q-11 0 -20.5 10t-9.5 21q0 14 9.5 22.5t20.5 8.5zM191 78q14 0 23 -8.5t9 -22.5q0 -11 -9 -21t-23 -10q-11 0 -19.5 10t-8.5 21q0 14 8.5 22.5t19.5 8.5zM117 420q-13 0 -21.5 8.5t-8.5 22.5q0 11 8.5 20t21.5 9
q12 0 21 -9t9 -20q0 -14 -9 -22.5t-21 -8.5zM59 344q-11 0 -20.5 9t-9.5 22q0 11 9.5 21t20.5 10q14 0 23 -10t9 -21q0 -13 -9 -22t-23 -9zM191 470q-11 0 -19.5 8.5t-8.5 22.5q0 11 8.5 21t19.5 10q14 0 23 -10t9 -21q0 -14 -9 -22.5t-23 -8.5zM529 306q13 0 21.5 -8.5
t8.5 -20.5q0 -13 -8.5 -22t-21.5 -9q-12 0 -21 9t-9 22q0 12 9 20.5t21 8.5zM452 128q13 0 21.5 -8.5t8.5 -22.5q0 -11 -8.5 -20t-21.5 -9q-12 0 -21 9t-9 20q0 14 9 22.5t21 8.5zM510 204q11 0 20.5 -8.5t9.5 -22.5q0 -11 -9.5 -21t-20.5 -10q-14 0 -23 10t-9 21
q0 14 9 22.5t23 8.5zM378 78q11 0 19.5 -8.5t8.5 -22.5q0 -11 -8.5 -21t-19.5 -10q-14 0 -23 10t-9 21q0 14 9 22.5t23 8.5zM452 420q-12 0 -21 8.5t-9 22.5q0 11 9 20t21 9q13 0 21.5 -9t8.5 -20q0 -14 -8.5 -22.5t-21.5 -8.5zM510 344q-14 0 -23 9t-9 22q0 11 9 21t23 10
q11 0 20.5 -10t9.5 -21q0 -13 -9.5 -22t-20.5 -9zM378 470q-14 0 -23 8.5t-9 22.5q0 11 9 21t23 10q11 0 19.5 -10t8.5 -21q0 -14 -8.5 -22.5t-19.5 -8.5z" />
    <glyph glyph-name="S_DHA" unicode="&#x1039;&#x1013;" horiz-adv-x="609" 
d="M40 306q12 0 21 -8.5t9 -20.5q0 -13 -9 -22t-21 -9q-13 0 -21.5 9t-8.5 22q0 12 8.5 20.5t21.5 8.5zM289 547q12 0 21 -8.5t9 -22.5q0 -11 -9 -20t-21 -9q-13 0 -21.5 9t-8.5 20q0 14 8.5 22.5t21.5 8.5zM289 59q12 0 21 -8.5t9 -20.5q0 -13 -9 -22t-21 -9q-13 0 -21.5 9
t-8.5 22q0 12 8.5 20.5t21.5 8.5zM117 128q12 0 21 -8.5t9 -22.5q0 -11 -9 -20t-21 -9q-13 0 -21.5 9t-8.5 20q0 14 8.5 22.5t21.5 8.5zM59 204q14 0 23 -8.5t9 -22.5q0 -11 -9 -21t-23 -10q-11 0 -20.5 10t-9.5 21q0 14 9.5 22.5t20.5 8.5zM191 78q14 0 23 -8.5t9 -22.5
q0 -11 -9 -21t-23 -10q-11 0 -19.5 10t-8.5 21q0 14 8.5 22.5t19.5 8.5zM117 420q-13 0 -21.5 8.5t-8.5 22.5q0 11 8.5 20t21.5 9q12 0 21 -9t9 -20q0 -14 -9 -22.5t-21 -8.5zM59 344q-11 0 -20.5 9t-9.5 22q0 11 9.5 21t20.5 10q14 0 23 -10t9 -21q0 -13 -9 -22t-23 -9z
M191 470q-11 0 -19.5 8.5t-8.5 22.5q0 11 8.5 21t19.5 10q14 0 23 -10t9 -21q0 -14 -9 -22.5t-23 -8.5zM529 306q13 0 21.5 -8.5t8.5 -20.5q0 -13 -8.5 -22t-21.5 -9q-12 0 -21 9t-9 22q0 12 9 20.5t21 8.5zM452 128q13 0 21.5 -8.5t8.5 -22.5q0 -11 -8.5 -20t-21.5 -9
q-12 0 -21 9t-9 20q0 14 9 22.5t21 8.5zM510 204q11 0 20.5 -8.5t9.5 -22.5q0 -11 -9.5 -21t-20.5 -10q-14 0 -23 10t-9 21q0 14 9 22.5t23 8.5zM378 78q11 0 19.5 -8.5t8.5 -22.5q0 -11 -8.5 -21t-19.5 -10q-14 0 -23 10t-9 21q0 14 9 22.5t23 8.5zM452 420q-12 0 -21 8.5
t-9 22.5q0 11 9 20t21 9q13 0 21.5 -9t8.5 -20q0 -14 -8.5 -22.5t-21.5 -8.5zM510 344q-14 0 -23 9t-9 22q0 11 9 21t23 10q11 0 20.5 -10t9.5 -21q0 -13 -9.5 -22t-20.5 -9zM378 470q-14 0 -23 8.5t-9 22.5q0 11 9 21t23 10q11 0 19.5 -10t8.5 -21q0 -14 -8.5 -22.5
t-19.5 -8.5zM285 -409q-86 0 -147 61t-61 149t61 149q60 60 149 60q88 0 147 -60q58 -61 58 -149q0 -84 -61 -147q-60 -63 -146 -63zM285 -73q-56 0 -90.5 -35t-34.5 -91q0 -11 1 -21q53 40 126 40q68 0 119 -36q1 8 2 17q0 56 -33.5 91t-89.5 35zM233 -312q22 -9 49 -9
q52 0 86 29q-32 29 -83 29t-85 -29q14 -12 33 -20z" />
    <glyph glyph-name="S_PA" unicode="&#x1039;&#x1015;" horiz-adv-x="609" 
d="M230 -66q-21 -12 -32 -26t-19.5 -31.5t-13 -37.5t-4.5 -38q0 -56 34.5 -91t90.5 -35t89.5 35t33.5 91q-1 19 -5.5 39t-13.5 37.5t-20 31t-33 25.5l42 76q34 -20 53 -41q15 -16 26.5 -36t19.5 -42.5t11.5 -45t3.5 -44.5q0 -88 -58 -149q-59 -60 -147 -60q-89 0 -149 60
q-61 61 -61 149q0 22 3.5 45t11.5 46t19.5 43.5t26.5 35.5q10 11 21.5 19l32.5 22zM40 306q12 0 21 -8.5t9 -20.5q0 -13 -9 -22t-21 -9q-13 0 -21.5 9t-8.5 22q0 12 8.5 20.5t21.5 8.5zM289 547q12 0 21 -8.5t9 -22.5q0 -11 -9 -20t-21 -9q-13 0 -21.5 9t-8.5 20
q0 14 8.5 22.5t21.5 8.5zM289 59q12 0 21 -8.5t9 -20.5q0 -13 -9 -22t-21 -9q-13 0 -21.5 9t-8.5 22q0 12 8.5 20.5t21.5 8.5zM117 128q12 0 21 -8.5t9 -22.5q0 -11 -9 -20t-21 -9q-13 0 -21.5 9t-8.5 20q0 14 8.5 22.5t21.5 8.5zM59 204q14 0 23 -8.5t9 -22.5q0 -11 -9 -21
t-23 -10q-11 0 -20.5 10t-9.5 21q0 14 9.5 22.5t20.5 8.5zM191 78q14 0 23 -8.5t9 -22.5q0 -11 -9 -21t-23 -10q-11 0 -19.5 10t-8.5 21q0 14 8.5 22.5t19.5 8.5zM117 420q-13 0 -21.5 8.5t-8.5 22.5q0 11 8.5 20t21.5 9q12 0 21 -9t9 -20q0 -14 -9 -22.5t-21 -8.5zM59 344
q-11 0 -20.5 9t-9.5 22q0 11 9.5 21t20.5 10q14 0 23 -10t9 -21q0 -13 -9 -22t-23 -9zM191 470q-11 0 -19.5 8.5t-8.5 22.5q0 11 8.5 21t19.5 10q14 0 23 -10t9 -21q0 -14 -9 -22.5t-23 -8.5zM529 306q13 0 21.5 -8.5t8.5 -20.5q0 -13 -8.5 -22t-21.5 -9q-12 0 -21 9t-9 22
q0 12 9 20.5t21 8.5zM452 128q13 0 21.5 -8.5t8.5 -22.5q0 -11 -8.5 -20t-21.5 -9q-12 0 -21 9t-9 20q0 14 9 22.5t21 8.5zM510 204q11 0 20.5 -8.5t9.5 -22.5q0 -11 -9.5 -21t-20.5 -10q-14 0 -23 10t-9 21q0 14 9 22.5t23 8.5zM378 78q11 0 19.5 -8.5t8.5 -22.5
q0 -11 -8.5 -21t-19.5 -10q-14 0 -23 10t-9 21q0 14 9 22.5t23 8.5zM452 420q-12 0 -21 8.5t-9 22.5q0 11 9 20t21 9q13 0 21.5 -9t8.5 -20q0 -14 -8.5 -22.5t-21.5 -8.5zM510 344q-14 0 -23 9t-9 22q0 11 9 21t23 10q11 0 20.5 -10t9.5 -21q0 -13 -9.5 -22t-20.5 -9z
M378 470q-14 0 -23 8.5t-9 22.5q0 11 9 21t23 10q11 0 19.5 -10t8.5 -21q0 -14 -8.5 -22.5t-19.5 -8.5z" />
    <glyph glyph-name="S_PHA" unicode="&#x1039;&#x1016;" horiz-adv-x="609" 
d="M232 -66q-21 -12 -32 -26t-19.5 -31.5t-13 -37.5t-4.5 -38q0 -56 34.5 -91t90.5 -35q26 0 47 8q-55 59 -55 143q0 88 61 149q8 9 17 16l19 13l4 6q34 -20 53 -41q15 -16 26.5 -36t19.5 -42.5t11.5 -45t3.5 -44.5q0 -88 -58 -149q-59 -60 -147 -60q-89 0 -149 60
q-61 61 -61 149q0 22 3.5 45t11.5 46t19.5 43.5t26.5 35.5q10 11 21.5 19l32.5 22zM411 -199q-1 19 -5.5 39t-13.5 38q-5 10 -11 18l-4 -7q-14 -27 -14 -63q0 -35 16 -63q7 -12 19 -23q13 26 13 61zM40 306q12 0 21 -8.5t9 -20.5q0 -13 -9 -22t-21 -9q-13 0 -21.5 9t-8.5 22
q0 12 8.5 20.5t21.5 8.5zM289 547q12 0 21 -8.5t9 -22.5q0 -11 -9 -20t-21 -9q-13 0 -21.5 9t-8.5 20q0 14 8.5 22.5t21.5 8.5zM289 59q12 0 21 -8.5t9 -20.5q0 -13 -9 -22t-21 -9q-13 0 -21.5 9t-8.5 22q0 12 8.5 20.5t21.5 8.5zM117 128q12 0 21 -8.5t9 -22.5
q0 -11 -9 -20t-21 -9q-13 0 -21.5 9t-8.5 20q0 14 8.5 22.5t21.5 8.5zM59 204q14 0 23 -8.5t9 -22.5q0 -11 -9 -21t-23 -10q-11 0 -20.5 10t-9.5 21q0 14 9.5 22.5t20.5 8.5zM191 78q14 0 23 -8.5t9 -22.5q0 -11 -9 -21t-23 -10q-11 0 -19.5 10t-8.5 21q0 14 8.5 22.5
t19.5 8.5zM117 420q-13 0 -21.5 8.5t-8.5 22.5q0 11 8.5 20t21.5 9q12 0 21 -9t9 -20q0 -14 -9 -22.5t-21 -8.5zM59 344q-11 0 -20.5 9t-9.5 22q0 11 9.5 21t20.5 10q14 0 23 -10t9 -21q0 -13 -9 -22t-23 -9zM191 470q-11 0 -19.5 8.5t-8.5 22.5q0 11 8.5 21t19.5 10
q14 0 23 -10t9 -21q0 -14 -9 -22.5t-23 -8.5zM529 306q13 0 21.5 -8.5t8.5 -20.5q0 -13 -8.5 -22t-21.5 -9q-12 0 -21 9t-9 22q0 12 9 20.5t21 8.5zM452 128q13 0 21.5 -8.5t8.5 -22.5q0 -11 -8.5 -20t-21.5 -9q-12 0 -21 9t-9 20q0 14 9 22.5t21 8.5zM510 204
q11 0 20.5 -8.5t9.5 -22.5q0 -11 -9.5 -21t-20.5 -10q-14 0 -23 10t-9 21q0 14 9 22.5t23 8.5zM378 78q11 0 19.5 -8.5t8.5 -22.5q0 -11 -8.5 -21t-19.5 -10q-14 0 -23 10t-9 21q0 14 9 22.5t23 8.5zM452 420q-12 0 -21 8.5t-9 22.5q0 11 9 20t21 9q13 0 21.5 -9t8.5 -20
q0 -14 -8.5 -22.5t-21.5 -8.5zM510 344q-14 0 -23 9t-9 22q0 11 9 21t23 10q11 0 20.5 -10t9.5 -21q0 -13 -9.5 -22t-20.5 -9zM378 470q-14 0 -23 8.5t-9 22.5q0 11 9 21t23 10q11 0 19.5 -10t8.5 -21q0 -14 -8.5 -22.5t-19.5 -8.5z" />
    <glyph glyph-name="S_BA" unicode="&#x1039;&#x1017;" horiz-adv-x="609" 
d="M380 10q34 -20 53 -41q15 -16 26.5 -36t19.5 -42.5t11.5 -45t3.5 -44.5q0 -88 -58 -149q-59 -60 -147 -60q-89 0 -149 60q-61 61 -61 149q0 22 3.5 45t11.5 46t19.5 43.5t26.5 35.5q10 11 21.5 19l32.5 22l22 -47q9 -6 17 -10q24 -10 54 -10q27 0 49 9q9 4 18 10z
M179 -123q-8 -18 -12.5 -38t-4.5 -38q0 -56 34.5 -91t90.5 -35t89.5 35t33.5 91q-1 19 -5.5 39t-13.5 38q-3 4 -5 8q-45 -24 -97 -24q-42 0 -79 14q-12 4 -25 12q-3 -6 -6 -11zM40 306q12 0 21 -8.5t9 -20.5q0 -13 -9 -22t-21 -9q-13 0 -21.5 9t-8.5 22q0 12 8.5 20.5
t21.5 8.5zM289 547q12 0 21 -8.5t9 -22.5q0 -11 -9 -20t-21 -9q-13 0 -21.5 9t-8.5 20q0 14 8.5 22.5t21.5 8.5zM289 59q12 0 21 -8.5t9 -20.5q0 -13 -9 -22t-21 -9q-13 0 -21.5 9t-8.5 22q0 12 8.5 20.5t21.5 8.5zM117 128q12 0 21 -8.5t9 -22.5q0 -11 -9 -20t-21 -9
q-13 0 -21.5 9t-8.5 20q0 14 8.5 22.5t21.5 8.5zM59 204q14 0 23 -8.5t9 -22.5q0 -11 -9 -21t-23 -10q-11 0 -20.5 10t-9.5 21q0 14 9.5 22.5t20.5 8.5zM191 78q14 0 23 -8.5t9 -22.5q0 -11 -9 -21t-23 -10q-11 0 -19.5 10t-8.5 21q0 14 8.5 22.5t19.5 8.5zM117 420
q-13 0 -21.5 8.5t-8.5 22.5q0 11 8.5 20t21.5 9q12 0 21 -9t9 -20q0 -14 -9 -22.5t-21 -8.5zM59 344q-11 0 -20.5 9t-9.5 22q0 11 9.5 21t20.5 10q14 0 23 -10t9 -21q0 -13 -9 -22t-23 -9zM191 470q-11 0 -19.5 8.5t-8.5 22.5q0 11 8.5 21t19.5 10q14 0 23 -10t9 -21
q0 -14 -9 -22.5t-23 -8.5zM529 306q13 0 21.5 -8.5t8.5 -20.5q0 -13 -8.5 -22t-21.5 -9q-12 0 -21 9t-9 22q0 12 9 20.5t21 8.5zM452 128q13 0 21.5 -8.5t8.5 -22.5q0 -11 -8.5 -20t-21.5 -9q-12 0 -21 9t-9 20q0 14 9 22.5t21 8.5zM510 204q11 0 20.5 -8.5t9.5 -22.5
q0 -11 -9.5 -21t-20.5 -10q-14 0 -23 10t-9 21q0 14 9 22.5t23 8.5zM378 78q11 0 19.5 -8.5t8.5 -22.5q0 -11 -8.5 -21t-19.5 -10q-14 0 -23 10t-9 21q0 14 9 22.5t23 8.5zM452 420q-12 0 -21 8.5t-9 22.5q0 11 9 20t21 9q13 0 21.5 -9t8.5 -20q0 -14 -8.5 -22.5t-21.5 -8.5
zM510 344q-14 0 -23 9t-9 22q0 11 9 21t23 10q11 0 20.5 -10t9.5 -21q0 -13 -9.5 -22t-20.5 -9zM378 470q-14 0 -23 8.5t-9 22.5q0 11 9 21t23 10q11 0 19.5 -10t8.5 -21q0 -14 -8.5 -22.5t-19.5 -8.5z" />
    <glyph glyph-name="S_BHA" unicode="&#x1039;&#x1018;" horiz-adv-x="764" 
d="M475 -318q27 -6 47 -6q55 0 91 36.5t36 91.5t-36 91t-91 36q-56 0 -93 -36q-15 -14 -26 -40q6 -25 6 -54q0 -84 -61 -147q-60 -63 -146 -63t-147 61q-11 10 -26 31l67 50q22 -29 47 -41.5t56 -12.5q56 0 90 33t36 89q0 56 -33.5 91t-89.5 35q-36 0 -62.5 -14.5
t-48.5 -46.5l-66 48q15 21 30 36q60 60 149 60q88 0 147 -60l9 -10l12 13q60 58 150 58t147.5 -58.5t57.5 -148.5t-58 -149t-147 -59q-34 0 -73 11zM129 204q14 0 23 -8.5t9 -22.5q0 -11 -9 -21t-23 -10q-11 0 -20.5 10t-9.5 21q0 14 9.5 22.5t20.5 8.5zM580 204
q11 0 20.5 -8.5t9.5 -22.5q0 -11 -9.5 -21t-20.5 -10q-14 0 -23 10t-9 21q0 14 9 22.5t23 8.5zM129 344q-11 0 -20.5 9t-9.5 22q0 11 9.5 21t20.5 10q14 0 23 -10t9 -21q0 -13 -9 -22t-23 -9zM580 344q-14 0 -23 9t-9 22q0 11 9 21t23 10q11 0 20.5 -10t9.5 -21
q0 -13 -9.5 -22t-20.5 -9zM261 78q14 0 23 -8.5t9 -22.5q0 -11 -9 -21t-23 -10q-11 0 -19.5 10t-8.5 21q0 14 8.5 22.5t19.5 8.5zM261 470q-11 0 -19.5 8.5t-8.5 22.5q0 11 8.5 21t19.5 10q14 0 23 -10t9 -21q0 -14 -9 -22.5t-23 -8.5zM448 78q11 0 19.5 -8.5t8.5 -22.5
q0 -11 -8.5 -21t-19.5 -10q-14 0 -23 10t-9 21q0 14 9 22.5t23 8.5zM448 470q-14 0 -23 8.5t-9 22.5q0 11 9 21t23 10q11 0 19.5 -10t8.5 -21q0 -14 -8.5 -22.5t-19.5 -8.5zM187 420q-13 0 -21.5 8.5t-8.5 22.5q0 11 8.5 20t21.5 9q12 0 21 -9t9 -20q0 -14 -9 -22.5
t-21 -8.5zM522 420q-12 0 -21 8.5t-9 22.5q0 11 9 20t21 9q13 0 21.5 -9t8.5 -20q0 -14 -8.5 -22.5t-21.5 -8.5zM110 306q12 0 21 -8.5t9 -20.5q0 -13 -9 -22t-21 -9q-13 0 -21.5 9t-8.5 22q0 12 8.5 20.5t21.5 8.5zM359 59q12 0 21 -8.5t9 -20.5q0 -13 -9 -22t-21 -9
q-13 0 -21.5 9t-8.5 22q0 12 8.5 20.5t21.5 8.5zM359 547q12 0 21 -8.5t9 -22.5q0 -11 -9 -20t-21 -9q-13 0 -21.5 9t-8.5 20q0 14 8.5 22.5t21.5 8.5zM187 128q12 0 21 -8.5t9 -22.5q0 -11 -9 -20t-21 -9q-13 0 -21.5 9t-8.5 20q0 14 8.5 22.5t21.5 8.5zM522 128
q13 0 21.5 -8.5t8.5 -22.5q0 -11 -8.5 -20t-21.5 -9q-12 0 -21 9t-9 20q0 14 9 22.5t21 8.5zM599 306q13 0 21.5 -8.5t8.5 -20.5q0 -13 -8.5 -22t-21.5 -9q-12 0 -21 9t-9 22q0 12 9 20.5t21 8.5z" />
    <glyph glyph-name="S_MA" unicode="&#x1039;&#x1019;" horiz-adv-x="609" 
d="M222 -66q-21 -12 -32 -26t-19.5 -31.5t-13 -37.5t-4.5 -38q0 -16 2 -30q53 39 125 39q68 0 119 -36q2 13 2 27q-1 19 -5.5 39t-13.5 37.5t-20 31t-33 25.5l42 76q34 -20 53 -41q15 -16 26.5 -36t19.5 -42.5t11.5 -45t3.5 -44.5q0 -88 -58 -149q-59 -60 -147 -60
q-89 0 -149 60q-61 61 -61 149q0 22 3.5 45t11.5 46t19.5 43.5t26.5 35.5q10 11 21.5 19l32.5 22zM278 -325q47 0 78 26q-12 10 -24 15q-24 11 -54 11q-35 0 -62 -14q-9 -5 -18 -12q32 -26 80 -26zM40 306q12 0 21 -8.5t9 -20.5q0 -13 -9 -22t-21 -9q-13 0 -21.5 9t-8.5 22
q0 12 8.5 20.5t21.5 8.5zM289 547q12 0 21 -8.5t9 -22.5q0 -11 -9 -20t-21 -9q-13 0 -21.5 9t-8.5 20q0 14 8.5 22.5t21.5 8.5zM289 59q12 0 21 -8.5t9 -20.5q0 -13 -9 -22t-21 -9q-13 0 -21.5 9t-8.5 22q0 12 8.5 20.5t21.5 8.5zM117 128q12 0 21 -8.5t9 -22.5
q0 -11 -9 -20t-21 -9q-13 0 -21.5 9t-8.5 20q0 14 8.5 22.5t21.5 8.5zM59 204q14 0 23 -8.5t9 -22.5q0 -11 -9 -21t-23 -10q-11 0 -20.5 10t-9.5 21q0 14 9.5 22.5t20.5 8.5zM191 78q14 0 23 -8.5t9 -22.5q0 -11 -9 -21t-23 -10q-11 0 -19.5 10t-8.5 21q0 14 8.5 22.5
t19.5 8.5zM117 420q-13 0 -21.5 8.5t-8.5 22.5q0 11 8.5 20t21.5 9q12 0 21 -9t9 -20q0 -14 -9 -22.5t-21 -8.5zM59 344q-11 0 -20.5 9t-9.5 22q0 11 9.5 21t20.5 10q14 0 23 -10t9 -21q0 -13 -9 -22t-23 -9zM191 470q-11 0 -19.5 8.5t-8.5 22.5q0 11 8.5 21t19.5 10
q14 0 23 -10t9 -21q0 -14 -9 -22.5t-23 -8.5zM529 306q13 0 21.5 -8.5t8.5 -20.5q0 -13 -8.5 -22t-21.5 -9q-12 0 -21 9t-9 22q0 12 9 20.5t21 8.5zM452 128q13 0 21.5 -8.5t8.5 -22.5q0 -11 -8.5 -20t-21.5 -9q-12 0 -21 9t-9 20q0 14 9 22.5t21 8.5zM510 204
q11 0 20.5 -8.5t9.5 -22.5q0 -11 -9.5 -21t-20.5 -10q-14 0 -23 10t-9 21q0 14 9 22.5t23 8.5zM378 78q11 0 19.5 -8.5t8.5 -22.5q0 -11 -8.5 -21t-19.5 -10q-14 0 -23 10t-9 21q0 14 9 22.5t23 8.5zM452 420q-12 0 -21 8.5t-9 22.5q0 11 9 20t21 9q13 0 21.5 -9t8.5 -20
q0 -14 -8.5 -22.5t-21.5 -8.5zM510 344q-14 0 -23 9t-9 22q0 11 9 21t23 10q11 0 20.5 -10t9.5 -21q0 -13 -9.5 -22t-20.5 -9zM378 470q-14 0 -23 8.5t-9 22.5q0 11 9 21t23 10q11 0 19.5 -10t8.5 -21q0 -14 -8.5 -22.5t-19.5 -8.5z" />
    <glyph glyph-name="S_YA" unicode="&#x1039;&#x101a;" horiz-adv-x="764" 
d="M447 -3q40 11 73 11q89 0 147 -59t58 -149t-57.5 -148.5t-147.5 -58.5t-150 58q-3 3 -6 7l-6 -6q-58 -59 -148 -59t-149.5 58.5t-59.5 148.5q0 104 58 167q29 30 76 47l30 -74q-31 -13 -48 -30q-36 -41 -36 -110q0 -55 36.5 -91t92.5 -36q55 0 91 36t36 91q0 67 -36 109
q-19 19 -54 33l37 72q46 -19 73 -47q59 -65 59 -167q0 -34 -9 -64q9 -16 20 -27q37 -36 93 -36q55 0 91 36t36 91t-36 91.5t-91 36.5q-20 0 -46 -6zM100 306q12 0 21 -8.5t9 -20.5q0 -13 -9 -22t-21 -9q-13 0 -21.5 9t-8.5 22q0 12 8.5 20.5t21.5 8.5zM349 547q12 0 21 -8.5
t9 -22.5q0 -11 -9 -20t-21 -9q-13 0 -21.5 9t-8.5 20q0 14 8.5 22.5t21.5 8.5zM349 59q12 0 21 -8.5t9 -20.5q0 -13 -9 -22t-21 -9q-13 0 -21.5 9t-8.5 22q0 12 8.5 20.5t21.5 8.5zM177 128q12 0 21 -8.5t9 -22.5q0 -11 -9 -20t-21 -9q-13 0 -21.5 9t-8.5 20q0 14 8.5 22.5
t21.5 8.5zM119 204q14 0 23 -8.5t9 -22.5q0 -11 -9 -21t-23 -10q-11 0 -20.5 10t-9.5 21q0 14 9.5 22.5t20.5 8.5zM251 78q14 0 23 -8.5t9 -22.5q0 -11 -9 -21t-23 -10q-11 0 -19.5 10t-8.5 21q0 14 8.5 22.5t19.5 8.5zM177 420q-13 0 -21.5 8.5t-8.5 22.5q0 11 8.5 20
t21.5 9q12 0 21 -9t9 -20q0 -14 -9 -22.5t-21 -8.5zM119 344q-11 0 -20.5 9t-9.5 22q0 11 9.5 21t20.5 10q14 0 23 -10t9 -21q0 -13 -9 -22t-23 -9zM251 470q-11 0 -19.5 8.5t-8.5 22.5q0 11 8.5 21t19.5 10q14 0 23 -10t9 -21q0 -14 -9 -22.5t-23 -8.5zM589 306
q13 0 21.5 -8.5t8.5 -20.5q0 -13 -8.5 -22t-21.5 -9q-12 0 -21 9t-9 22q0 12 9 20.5t21 8.5zM512 128q13 0 21.5 -8.5t8.5 -22.5q0 -11 -8.5 -20t-21.5 -9q-12 0 -21 9t-9 20q0 14 9 22.5t21 8.5zM570 204q11 0 20.5 -8.5t9.5 -22.5q0 -11 -9.5 -21t-20.5 -10q-14 0 -23 10
t-9 21q0 14 9 22.5t23 8.5zM438 78q11 0 19.5 -8.5t8.5 -22.5q0 -11 -8.5 -21t-19.5 -10q-14 0 -23 10t-9 21q0 14 9 22.5t23 8.5zM512 420q-12 0 -21 8.5t-9 22.5q0 11 9 20t21 9q13 0 21.5 -9t8.5 -20q0 -14 -8.5 -22.5t-21.5 -8.5zM570 344q-14 0 -23 9t-9 22q0 11 9 21
t23 10q11 0 20.5 -10t9.5 -21q0 -13 -9.5 -22t-20.5 -9zM438 470q-14 0 -23 8.5t-9 22.5q0 11 9 21t23 10q11 0 19.5 -10t8.5 -21q0 -14 -8.5 -22.5t-19.5 -8.5z" />
    <glyph glyph-name="S_NA" unicode="&#x1039;&#x1014;" horiz-adv-x="609" 
d="M257 -406q-47 5 -84 25q-17 9 -34 26q-4 3 -7 7q-26 26 -41 61q-13 41 1.5 65t38.5 35t49.5 13t38.5 2q22 0 42 -8.5t34.5 -23t23.5 -34.5t9 -42v-1v-5v-36q23 5 50 32q16 16 25 35q5 15 -10 28.5t-44.5 26.5t-67 24.5t-70.5 24.5t-56 31t-18 45q27 83 149 88
q73 0 133 -45l-46 -67q-41 31 -87 31q-35 0 -45 -9l16 -7t44.5 -14.5t61.5 -17.5t62 -24t49 -34.5t19 -51.5q-8 -73 -58 -122q-47 -48 -116 -57zM176 -262q18 -57 71 -62v44q0 11 -8 19t-19 8q-7 0 -15.5 -0.5t-15.5 -2.5t-10 -4zM40 306q12 0 21 -8.5t9 -20.5q0 -13 -9 -22
t-21 -9q-13 0 -21.5 9t-8.5 22q0 12 8.5 20.5t21.5 8.5zM289 547q12 0 21 -8.5t9 -22.5q0 -11 -9 -20t-21 -9q-13 0 -21.5 9t-8.5 20q0 14 8.5 22.5t21.5 8.5zM289 59q12 0 21 -8.5t9 -20.5q0 -13 -9 -22t-21 -9q-13 0 -21.5 9t-8.5 22q0 12 8.5 20.5t21.5 8.5zM117 128
q12 0 21 -8.5t9 -22.5q0 -11 -9 -20t-21 -9q-13 0 -21.5 9t-8.5 20q0 14 8.5 22.5t21.5 8.5zM59 204q14 0 23 -8.5t9 -22.5q0 -11 -9 -21t-23 -10q-11 0 -20.5 10t-9.5 21q0 14 9.5 22.5t20.5 8.5zM191 78q14 0 23 -8.5t9 -22.5q0 -11 -9 -21t-23 -10q-11 0 -19.5 10
t-8.5 21q0 14 8.5 22.5t19.5 8.5zM117 420q-13 0 -21.5 8.5t-8.5 22.5q0 11 8.5 20t21.5 9q12 0 21 -9t9 -20q0 -14 -9 -22.5t-21 -8.5zM59 344q-11 0 -20.5 9t-9.5 22q0 11 9.5 21t20.5 10q14 0 23 -10t9 -21q0 -13 -9 -22t-23 -9zM191 470q-11 0 -19.5 8.5t-8.5 22.5
q0 11 8.5 21t19.5 10q14 0 23 -10t9 -21q0 -14 -9 -22.5t-23 -8.5zM529 306q13 0 21.5 -8.5t8.5 -20.5q0 -13 -8.5 -22t-21.5 -9q-12 0 -21 9t-9 22q0 12 9 20.5t21 8.5zM452 128q13 0 21.5 -8.5t8.5 -22.5q0 -11 -8.5 -20t-21.5 -9q-12 0 -21 9t-9 20q0 14 9 22.5t21 8.5z
M510 204q11 0 20.5 -8.5t9.5 -22.5q0 -11 -9.5 -21t-20.5 -10q-14 0 -23 10t-9 21q0 14 9 22.5t23 8.5zM378 78q11 0 19.5 -8.5t8.5 -22.5q0 -11 -8.5 -21t-19.5 -10q-14 0 -23 10t-9 21q0 14 9 22.5t23 8.5zM452 420q-12 0 -21 8.5t-9 22.5q0 11 9 20t21 9q13 0 21.5 -9
t8.5 -20q0 -14 -8.5 -22.5t-21.5 -8.5zM510 344q-14 0 -23 9t-9 22q0 11 9 21t23 10q11 0 20.5 -10t9.5 -21q0 -13 -9.5 -22t-20.5 -9zM378 470q-14 0 -23 8.5t-9 22.5q0 11 9 21t23 10q11 0 19.5 -10t8.5 -21q0 -14 -8.5 -22.5t-19.5 -8.5z" />
    <glyph glyph-name="S_NNA" unicode="&#x1039;&#x100f;" horiz-adv-x="869" 
d="M499 -364q-14 -21 -36.5 -33t-50.5 -12q-27 0 -50 11.5t-37 33.5q-30 47 -16 80l17.5 30.5t9.5 26.5q3 14 3 28q0 13 -3 26q-1 13 -7.5 27.5t-21.5 32.5l-5 5q-36 36 -91 36q-56 0 -93 -36t-37 -91q0 -58 36.5 -93.5t93.5 -35.5q29 0 63 15l19 -81q-42 -14 -82 -14
q-93 0 -151.5 58t-58.5 151q0 90 60 149t150 59q76 0 120 -35q8 12 30.5 24t50.5 12t51 -12.5t32 -25.5q46 37 125 37q90 0 148 -59t58 -149q0 -91 -58 -150t-148 -59q-42 0 -86 14l19 81q36 -15 67 -15q55 0 91.5 37t36.5 92t-36.5 91t-91.5 36q-56 0 -93 -36
q-6 -5 -10 -10q-8 -13 -14 -25.5t-10 -25.5q-3 -14 -3 -30q0 -17 3 -33q2 -12 10 -25l17 -29q0 -58 -21 -78zM418 -210q-3 -59 -28 -100q0 -4 7.5 -9.5t15.5 -5.5q9 0 16 5.5t8 8.5q-24 39 -27 96v23q1 60 29 103q-1 5 -8.5 11.5t-17.5 6.5q-9 0 -16 -6t-8 -11
q26 -42 29 -102v-20zM160 306q12 0 21 -8.5t9 -20.5q0 -13 -9 -22t-21 -9q-13 0 -21.5 9t-8.5 22q0 12 8.5 20.5t21.5 8.5zM409 547q12 0 21 -8.5t9 -22.5q0 -11 -9 -20t-21 -9q-13 0 -21.5 9t-8.5 20q0 14 8.5 22.5t21.5 8.5zM409 59q12 0 21 -8.5t9 -20.5q0 -13 -9 -22
t-21 -9q-13 0 -21.5 9t-8.5 22q0 12 8.5 20.5t21.5 8.5zM237 128q12 0 21 -8.5t9 -22.5q0 -11 -9 -20t-21 -9q-13 0 -21.5 9t-8.5 20q0 14 8.5 22.5t21.5 8.5zM179 204q14 0 23 -8.5t9 -22.5q0 -11 -9 -21t-23 -10q-11 0 -20.5 10t-9.5 21q0 14 9.5 22.5t20.5 8.5zM311 78
q14 0 23 -8.5t9 -22.5q0 -11 -9 -21t-23 -10q-11 0 -19.5 10t-8.5 21q0 14 8.5 22.5t19.5 8.5zM237 420q-13 0 -21.5 8.5t-8.5 22.5q0 11 8.5 20t21.5 9q12 0 21 -9t9 -20q0 -14 -9 -22.5t-21 -8.5zM179 344q-11 0 -20.5 9t-9.5 22q0 11 9.5 21t20.5 10q14 0 23 -10t9 -21
q0 -13 -9 -22t-23 -9zM311 470q-11 0 -19.5 8.5t-8.5 22.5q0 11 8.5 21t19.5 10q14 0 23 -10t9 -21q0 -14 -9 -22.5t-23 -8.5zM649 306q13 0 21.5 -8.5t8.5 -20.5q0 -13 -8.5 -22t-21.5 -9q-12 0 -21 9t-9 22q0 12 9 20.5t21 8.5zM572 128q13 0 21.5 -8.5t8.5 -22.5
q0 -11 -8.5 -20t-21.5 -9q-12 0 -21 9t-9 20q0 14 9 22.5t21 8.5zM630 204q11 0 20.5 -8.5t9.5 -22.5q0 -11 -9.5 -21t-20.5 -10q-14 0 -23 10t-9 21q0 14 9 22.5t23 8.5zM498 78q11 0 19.5 -8.5t8.5 -22.5q0 -11 -8.5 -21t-19.5 -10q-14 0 -23 10t-9 21q0 14 9 22.5t23 8.5
zM572 420q-12 0 -21 8.5t-9 22.5q0 11 9 20t21 9q13 0 21.5 -9t8.5 -20q0 -14 -8.5 -22.5t-21.5 -8.5zM630 344q-14 0 -23 9t-9 22q0 11 9 21t23 10q11 0 20.5 -10t9.5 -21q0 -13 -9.5 -22t-20.5 -9zM498 470q-14 0 -23 8.5t-9 22.5q0 11 9 21t23 10q11 0 19.5 -10t8.5 -21
q0 -14 -8.5 -22.5t-19.5 -8.5z" />
    <glyph glyph-name="S_NNYA" unicode="&#x1039;&#x100a;" horiz-adv-x="764" 
d="M409 -244q-21 10 -35 19q-22 -16 -51 -25q-30 -10 -65 -10q-40 0 -77 13v-84q13 0 39 -0.5t50 -0.5h275v62q52 0 82 -12t33 -47v-23q-6 -46 -61 -54h-436q-33 0 -50 13t-17 42v21q0 12 0.5 25t0.5 26v21q1 23 1 45v52l37 12l46 17v-25l9 -11q14 -9 31.5 -14.5t36.5 -5.5
q38 0 60.5 18t22.5 42q0 25 -22.5 42t-60.5 17q-20 0 -36.5 -6t-29.5 -13q-3 -2 -9 -8.5t-15 -19.5q-24 5 -38 9.5l-44 13.5q19 29 29 42t22 20q50 36 121 36q35 0 65.5 -9.5t53.5 -26.5t36 -42.5t13 -54.5q0 -19 -6 -35l5 -5q14 -9 31.5 -14.5t36.5 -5.5q37 0 60 18t23 42
q0 25 -23 42t-60 17h-22l-23 70q21 3 29 3.5t16 0.5q35 0 65.5 -9.5t53.5 -26.5t35.5 -42.5t12.5 -54.5t-12.5 -53.5t-35.5 -42t-53.5 -27t-65.5 -9.5q-40 0 -84 16zM139 204q14 0 23 -8.5t9 -22.5q0 -11 -9 -21t-23 -10q-11 0 -20.5 10t-9.5 21q0 14 9.5 22.5t20.5 8.5z
M590 204q11 0 20.5 -8.5t9.5 -22.5q0 -11 -9.5 -21t-20.5 -10q-14 0 -23 10t-9 21q0 14 9 22.5t23 8.5zM139 344q-11 0 -20.5 9t-9.5 22q0 11 9.5 21t20.5 10q14 0 23 -10t9 -21q0 -13 -9 -22t-23 -9zM590 344q-14 0 -23 9t-9 22q0 11 9 21t23 10q11 0 20.5 -10t9.5 -21
q0 -13 -9.5 -22t-20.5 -9zM271 78q14 0 23 -8.5t9 -22.5q0 -11 -9 -21t-23 -10q-11 0 -19.5 10t-8.5 21q0 14 8.5 22.5t19.5 8.5zM271 470q-11 0 -19.5 8.5t-8.5 22.5q0 11 8.5 21t19.5 10q14 0 23 -10t9 -21q0 -14 -9 -22.5t-23 -8.5zM458 78q11 0 19.5 -8.5t8.5 -22.5
q0 -11 -8.5 -21t-19.5 -10q-14 0 -23 10t-9 21q0 14 9 22.5t23 8.5zM458 470q-14 0 -23 8.5t-9 22.5q0 11 9 21t23 10q11 0 19.5 -10t8.5 -21q0 -14 -8.5 -22.5t-19.5 -8.5zM197 420q-13 0 -21.5 8.5t-8.5 22.5q0 11 8.5 20t21.5 9q12 0 21 -9t9 -20q0 -14 -9 -22.5
t-21 -8.5zM532 420q-12 0 -21 8.5t-9 22.5q0 11 9 20t21 9q13 0 21.5 -9t8.5 -20q0 -14 -8.5 -22.5t-21.5 -8.5zM120 306q12 0 21 -8.5t9 -20.5q0 -13 -9 -22t-21 -9q-13 0 -21.5 9t-8.5 22q0 12 8.5 20.5t21.5 8.5zM369 59q12 0 21 -8.5t9 -20.5q0 -13 -9 -22t-21 -9
q-13 0 -21.5 9t-8.5 22q0 12 8.5 20.5t21.5 8.5zM369 547q12 0 21 -8.5t9 -22.5q0 -11 -9 -20t-21 -9q-13 0 -21.5 9t-8.5 20q0 14 8.5 22.5t21.5 8.5zM197 128q12 0 21 -8.5t9 -22.5q0 -11 -9 -20t-21 -9q-13 0 -21.5 9t-8.5 20q0 14 8.5 22.5t21.5 8.5zM532 128
q13 0 21.5 -8.5t8.5 -22.5q0 -11 -8.5 -20t-21.5 -9q-12 0 -21 9t-9 20q0 14 9 22.5t21 8.5zM609 306q13 0 21.5 -8.5t8.5 -20.5q0 -13 -8.5 -22t-21.5 -9q-12 0 -21 9t-9 22q0 12 9 20.5t21 8.5z" />
    <glyph glyph-name="S_NYA" unicode="&#x1039;&#x1009;" horiz-adv-x="764" 
d="M143 -407q-33 0 -50 13t-17 42v21t0.5 25t0.5 25.5v21.5q1 23 1 45v52l37 12l46 17v-25l9 -11q14 -9 31.5 -14.5t36.5 -5.5q38 0 60.5 18t22.5 42q0 25 -22.5 42t-60.5 17q-20 0 -36.5 -6t-29.5 -13q-3 -2 -9 -8.5t-15 -19.5q-24 5 -38 9.5l-44 13.5q19 29 29 42t22 20
q50 36 121 36q35 0 65.5 -9.5t53.5 -26.5t36 -42.5t13 -54.5q0 -30 -13.5 -54t-36 -41.5t-53 -27t-65.5 -9.5q-40 0 -77 13v-84q13 0 39 -0.5t50 -0.5h275v62q52 0 82 -12t33 -47v-23q-6 -46 -61 -54h-436zM120 306q12 0 21 -8.5t9 -20.5q0 -13 -9 -22t-21 -9q-13 0 -21.5 9
t-8.5 22q0 12 8.5 20.5t21.5 8.5zM369 547q12 0 21 -8.5t9 -22.5q0 -11 -9 -20t-21 -9q-13 0 -21.5 9t-8.5 20q0 14 8.5 22.5t21.5 8.5zM369 59q12 0 21 -8.5t9 -20.5q0 -13 -9 -22t-21 -9q-13 0 -21.5 9t-8.5 22q0 12 8.5 20.5t21.5 8.5zM197 128q12 0 21 -8.5t9 -22.5
q0 -11 -9 -20t-21 -9q-13 0 -21.5 9t-8.5 20q0 14 8.5 22.5t21.5 8.5zM139 204q14 0 23 -8.5t9 -22.5q0 -11 -9 -21t-23 -10q-11 0 -20.5 10t-9.5 21q0 14 9.5 22.5t20.5 8.5zM271 78q14 0 23 -8.5t9 -22.5q0 -11 -9 -21t-23 -10q-11 0 -19.5 10t-8.5 21q0 14 8.5 22.5
t19.5 8.5zM197 420q-13 0 -21.5 8.5t-8.5 22.5q0 11 8.5 20t21.5 9q12 0 21 -9t9 -20q0 -14 -9 -22.5t-21 -8.5zM139 344q-11 0 -20.5 9t-9.5 22q0 11 9.5 21t20.5 10q14 0 23 -10t9 -21q0 -13 -9 -22t-23 -9zM271 470q-11 0 -19.5 8.5t-8.5 22.5q0 11 8.5 21t19.5 10
q14 0 23 -10t9 -21q0 -14 -9 -22.5t-23 -8.5zM609 306q13 0 21.5 -8.5t8.5 -20.5q0 -13 -8.5 -22t-21.5 -9q-12 0 -21 9t-9 22q0 12 9 20.5t21 8.5zM532 128q13 0 21.5 -8.5t8.5 -22.5q0 -11 -8.5 -20t-21.5 -9q-12 0 -21 9t-9 20q0 14 9 22.5t21 8.5zM590 204
q11 0 20.5 -8.5t9.5 -22.5q0 -11 -9.5 -21t-20.5 -10q-14 0 -23 10t-9 21q0 14 9 22.5t23 8.5zM458 78q11 0 19.5 -8.5t8.5 -22.5q0 -11 -8.5 -21t-19.5 -10q-14 0 -23 10t-9 21q0 14 9 22.5t23 8.5zM532 420q-12 0 -21 8.5t-9 22.5q0 11 9 20t21 9q13 0 21.5 -9t8.5 -20
q0 -14 -8.5 -22.5t-21.5 -8.5zM590 344q-14 0 -23 9t-9 22q0 11 9 21t23 10q11 0 20.5 -10t9.5 -21q0 -13 -9.5 -22t-20.5 -9zM458 470q-14 0 -23 8.5t-9 22.5q0 11 9 21t23 10q11 0 19.5 -10t8.5 -21q0 -14 -8.5 -22.5t-19.5 -8.5z" />
    <glyph glyph-name="S_JHA" unicode="&#x1039;&#x1008;" horiz-adv-x="846" 
d="M40 306q12 0 21 -8.5t9 -20.5q0 -13 -9 -22t-21 -9q-13 0 -21.5 9t-8.5 22q0 12 8.5 20.5t21.5 8.5zM289 547q12 0 21 -8.5t9 -22.5q0 -11 -9 -20t-21 -9q-13 0 -21.5 9t-8.5 20q0 14 8.5 22.5t21.5 8.5zM289 59q12 0 21 -8.5t9 -20.5q0 -13 -9 -22t-21 -9q-13 0 -21.5 9
t-8.5 22q0 12 8.5 20.5t21.5 8.5zM117 128q12 0 21 -8.5t9 -22.5q0 -11 -9 -20t-21 -9q-13 0 -21.5 9t-8.5 20q0 14 8.5 22.5t21.5 8.5zM59 204q14 0 23 -8.5t9 -22.5q0 -11 -9 -21t-23 -10q-11 0 -20.5 10t-9.5 21q0 14 9.5 22.5t20.5 8.5zM191 78q14 0 23 -8.5t9 -22.5
q0 -11 -9 -21t-23 -10q-11 0 -19.5 10t-8.5 21q0 14 8.5 22.5t19.5 8.5zM117 420q-13 0 -21.5 8.5t-8.5 22.5q0 11 8.5 20t21.5 9q12 0 21 -9t9 -20q0 -14 -9 -22.5t-21 -8.5zM59 344q-11 0 -20.5 9t-9.5 22q0 11 9.5 21t20.5 10q14 0 23 -10t9 -21q0 -13 -9 -22t-23 -9z
M191 470q-11 0 -19.5 8.5t-8.5 22.5q0 11 8.5 21t19.5 10q14 0 23 -10t9 -21q0 -14 -9 -22.5t-23 -8.5zM529 306q13 0 21.5 -8.5t8.5 -20.5q0 -13 -8.5 -22t-21.5 -9q-12 0 -21 9t-9 22q0 12 9 20.5t21 8.5zM452 128q13 0 21.5 -8.5t8.5 -22.5q0 -11 -8.5 -20t-21.5 -9
q-12 0 -21 9t-9 20q0 14 9 22.5t21 8.5zM510 204q11 0 20.5 -8.5t9.5 -22.5q0 -11 -9.5 -21t-20.5 -10q-14 0 -23 10t-9 21q0 14 9 22.5t23 8.5zM378 78q11 0 19.5 -8.5t8.5 -22.5q0 -11 -8.5 -21t-19.5 -10q-14 0 -23 10t-9 21q0 14 9 22.5t23 8.5zM452 420q-12 0 -21 8.5
t-9 22.5q0 11 9 20t21 9q13 0 21.5 -9t8.5 -20q0 -14 -8.5 -22.5t-21.5 -8.5zM510 344q-14 0 -23 9t-9 22q0 11 9 21t23 10q11 0 20.5 -10t9.5 -21q0 -13 -9.5 -22t-20.5 -9zM378 470q-14 0 -23 8.5t-9 22.5q0 11 9 21t23 10q11 0 19.5 -10t8.5 -21q0 -14 -8.5 -22.5
t-19.5 -8.5zM279 -410q-86 0 -147 61t-61 149t61 149q60 60 149 60q88 0 147 -60q58 -61 58 -149q0 -23 -5 -44l182 -56v859h83v-970l-299 91q-10 -14 -22 -27q-60 -63 -146 -63zM279 -74q-28 0 -38 -4q35 -42 35 -122q0 -73 -36 -117q2 0 11 -2q12 -3 25 -3q56 0 90 33
t36 89q0 56 -33.5 91t-89.5 35zM154 -200q0 -23 7 -43t12 -26q4 6 11 26t8 43q0 50 -19 73q-5 -6 -12 -27.5t-7 -45.5z" />
    <glyph glyph-name="S_JA" unicode="&#x1039;&#x1007;" horiz-adv-x="609" 
d="M260 -139q0 25 11.5 48t11.5 22q14 -1 3 -1q-56 0 -92.5 -35.5t-36.5 -90.5q0 -57 36 -92.5t93 -35.5q51 0 93 39l57 -57q-64 -62 -150 -62q-92 0 -150.5 58t-58.5 150q0 89 59.5 147.5t149.5 58.5q89 0 147 -58q14 -15 28 -34l-1 -2q5 -9 10 -23.5t5 -31.5
q0 -9 -1 -15.5t-3 -11.5q2 -50 37 -84l11 -11l-57 -58l-11 11q-34 34 -45 68q-11 -6 -39 -6q-45 0 -76 31t-31 76zM343 -138q0 -10 7.5 -17.5t18.5 -7.5q8 0 15 5t9 12q1 7 1 13q-1 8 -8.5 14.5t-16.5 6.5q-11 0 -18.5 -8t-7.5 -18zM40 306q12 0 21 -8.5t9 -20.5
q0 -13 -9 -22t-21 -9q-13 0 -21.5 9t-8.5 22q0 12 8.5 20.5t21.5 8.5zM289 547q12 0 21 -8.5t9 -22.5q0 -11 -9 -20t-21 -9q-13 0 -21.5 9t-8.5 20q0 14 8.5 22.5t21.5 8.5zM289 59q12 0 21 -8.5t9 -20.5q0 -13 -9 -22t-21 -9q-13 0 -21.5 9t-8.5 22q0 12 8.5 20.5t21.5 8.5
zM117 128q12 0 21 -8.5t9 -22.5q0 -11 -9 -20t-21 -9q-13 0 -21.5 9t-8.5 20q0 14 8.5 22.5t21.5 8.5zM59 204q14 0 23 -8.5t9 -22.5q0 -11 -9 -21t-23 -10q-11 0 -20.5 10t-9.5 21q0 14 9.5 22.5t20.5 8.5zM191 78q14 0 23 -8.5t9 -22.5q0 -11 -9 -21t-23 -10
q-11 0 -19.5 10t-8.5 21q0 14 8.5 22.5t19.5 8.5zM117 420q-13 0 -21.5 8.5t-8.5 22.5q0 11 8.5 20t21.5 9q12 0 21 -9t9 -20q0 -14 -9 -22.5t-21 -8.5zM59 344q-11 0 -20.5 9t-9.5 22q0 11 9.5 21t20.5 10q14 0 23 -10t9 -21q0 -13 -9 -22t-23 -9zM191 470q-11 0 -19.5 8.5
t-8.5 22.5q0 11 8.5 21t19.5 10q14 0 23 -10t9 -21q0 -14 -9 -22.5t-23 -8.5zM529 306q13 0 21.5 -8.5t8.5 -20.5q0 -13 -8.5 -22t-21.5 -9q-12 0 -21 9t-9 22q0 12 9 20.5t21 8.5zM452 128q13 0 21.5 -8.5t8.5 -22.5q0 -11 -8.5 -20t-21.5 -9q-12 0 -21 9t-9 20
q0 14 9 22.5t21 8.5zM510 204q11 0 20.5 -8.5t9.5 -22.5q0 -11 -9.5 -21t-20.5 -10q-14 0 -23 10t-9 21q0 14 9 22.5t23 8.5zM378 78q11 0 19.5 -8.5t8.5 -22.5q0 -11 -8.5 -21t-19.5 -10q-14 0 -23 10t-9 21q0 14 9 22.5t23 8.5zM452 420q-12 0 -21 8.5t-9 22.5q0 11 9 20
t21 9q13 0 21.5 -9t8.5 -20q0 -14 -8.5 -22.5t-21.5 -8.5zM510 344q-14 0 -23 9t-9 22q0 11 9 21t23 10q11 0 20.5 -10t9.5 -21q0 -13 -9.5 -22t-20.5 -9zM378 470q-14 0 -23 8.5t-9 22.5q0 11 9 21t23 10q11 0 19.5 -10t8.5 -21q0 -14 -8.5 -22.5t-19.5 -8.5z" />
    <glyph glyph-name="S_CHA" unicode="&#x1039;&#x1006;" horiz-adv-x="764" 
d="M156 -170q91 0 149 -59q18 -19 22 -26q10 16 10 56q0 55 -36.5 91.5t-91.5 36.5q-57 0 -94 -36q-18 -19 -31 -50l-75 31q19 47 49 76q60 59 151 59t149 -59l7 -7q3 3 7 6q60 60 149 60q88 0 147 -60q58 -61 58 -149q0 -84 -61 -147q-60 -63 -146 -63t-147 61q-4 4 -7 8
l-8 -8q-58 -60 -148 -60q-93 0 -152 58q-23 22 -37 50q-13 22 -19.5 45.5t7.5 43t48.5 31t99.5 11.5zM416 -199q0 -31 -7 -58q13 -25 30 -39q31 -26 77 -26q56 0 90 33t36 89q0 56 -33.5 91t-89.5 35q-49 0 -81 -26q-17 -13 -29 -39q7 -28 7 -60zM115 -293q37 -35 94 -35
q38 0 60 12q-5 12 -22 29q-36 36 -91 36q-40 0 -63 -14q5 -12 22 -28zM139 204q14 0 23 -8.5t9 -22.5q0 -11 -9 -21t-23 -10q-11 0 -20.5 10t-9.5 21q0 14 9.5 22.5t20.5 8.5zM590 204q11 0 20.5 -8.5t9.5 -22.5q0 -11 -9.5 -21t-20.5 -10q-14 0 -23 10t-9 21q0 14 9 22.5
t23 8.5zM139 344q-11 0 -20.5 9t-9.5 22q0 11 9.5 21t20.5 10q14 0 23 -10t9 -21q0 -13 -9 -22t-23 -9zM590 344q-14 0 -23 9t-9 22q0 11 9 21t23 10q11 0 20.5 -10t9.5 -21q0 -13 -9.5 -22t-20.5 -9zM271 78q14 0 23 -8.5t9 -22.5q0 -11 -9 -21t-23 -10q-11 0 -19.5 10
t-8.5 21q0 14 8.5 22.5t19.5 8.5zM271 470q-11 0 -19.5 8.5t-8.5 22.5q0 11 8.5 21t19.5 10q14 0 23 -10t9 -21q0 -14 -9 -22.5t-23 -8.5zM458 78q11 0 19.5 -8.5t8.5 -22.5q0 -11 -8.5 -21t-19.5 -10q-14 0 -23 10t-9 21q0 14 9 22.5t23 8.5zM458 470q-14 0 -23 8.5
t-9 22.5q0 11 9 21t23 10q11 0 19.5 -10t8.5 -21q0 -14 -8.5 -22.5t-19.5 -8.5zM197 420q-13 0 -21.5 8.5t-8.5 22.5q0 11 8.5 20t21.5 9q12 0 21 -9t9 -20q0 -14 -9 -22.5t-21 -8.5zM532 420q-12 0 -21 8.5t-9 22.5q0 11 9 20t21 9q13 0 21.5 -9t8.5 -20q0 -14 -8.5 -22.5
t-21.5 -8.5zM369 59q12 0 21 -8.5t9 -20.5q0 -13 -9 -22t-21 -9q-13 0 -21.5 9t-8.5 22q0 12 8.5 20.5t21.5 8.5zM120 306q12 0 21 -8.5t9 -20.5q0 -13 -9 -22t-21 -9q-13 0 -21.5 9t-8.5 22q0 12 8.5 20.5t21.5 8.5zM197 128q12 0 21 -8.5t9 -22.5q0 -11 -9 -20t-21 -9
q-13 0 -21.5 9t-8.5 20q0 14 8.5 22.5t21.5 8.5zM369 547q12 0 21 -8.5t9 -22.5q0 -11 -9 -20t-21 -9q-13 0 -21.5 9t-8.5 20q0 14 8.5 22.5t21.5 8.5zM532 128q13 0 21.5 -8.5t8.5 -22.5q0 -11 -8.5 -20t-21.5 -9q-12 0 -21 9t-9 20q0 14 9 22.5t21 8.5zM609 306
q13 0 21.5 -8.5t8.5 -20.5q0 -13 -8.5 -22t-21.5 -9q-12 0 -21 9t-9 22q0 12 9 20.5t21 8.5z" />
    <glyph glyph-name="S_TTA" unicode="&#x1039;&#x100b;" horiz-adv-x="609" 
d="M485 -167q-46 -29 -70.5 -41t-46.5 -19l-10 -3h10h83v-100h70v-78h-169v97q-34 -8 -68 -8q-72 0 -143 34l46 61q-25 8 -46 19q-31 16 -49 39.5t-18 49.5q0 27 19 50.5t48 40.5q30 16 68 25t77 9q43 0 79 -9t65 -25q11 -7 21 -16.5t18 -24.5l-80 -32q-37 33 -105 33
q-52 0 -81 -14.5t-29 -36.5q0 -18 29 -33.5t78 -15.5q36 0 62 8.5t47 28.5zM326 -236q-20 -3 -42 -3q-40 0 -77 9l-3 1q15 -7 29 -11q21 -5 48 -5q40 0 71 12v2q-13 -4 -26 -5zM40 306q12 0 21 -8.5t9 -20.5q0 -13 -9 -22t-21 -9q-13 0 -21.5 9t-8.5 22q0 12 8.5 20.5
t21.5 8.5zM289 547q12 0 21 -8.5t9 -22.5q0 -11 -9 -20t-21 -9q-13 0 -21.5 9t-8.5 20q0 14 8.5 22.5t21.5 8.5zM289 59q12 0 21 -8.5t9 -20.5q0 -13 -9 -22t-21 -9q-13 0 -21.5 9t-8.5 22q0 12 8.5 20.5t21.5 8.5zM117 128q12 0 21 -8.5t9 -22.5q0 -11 -9 -20t-21 -9
q-13 0 -21.5 9t-8.5 20q0 14 8.5 22.5t21.5 8.5zM59 204q14 0 23 -8.5t9 -22.5q0 -11 -9 -21t-23 -10q-11 0 -20.5 10t-9.5 21q0 14 9.5 22.5t20.5 8.5zM191 78q14 0 23 -8.5t9 -22.5q0 -11 -9 -21t-23 -10q-11 0 -19.5 10t-8.5 21q0 14 8.5 22.5t19.5 8.5zM117 420
q-13 0 -21.5 8.5t-8.5 22.5q0 11 8.5 20t21.5 9q12 0 21 -9t9 -20q0 -14 -9 -22.5t-21 -8.5zM59 344q-11 0 -20.5 9t-9.5 22q0 11 9.5 21t20.5 10q14 0 23 -10t9 -21q0 -13 -9 -22t-23 -9zM191 470q-11 0 -19.5 8.5t-8.5 22.5q0 11 8.5 21t19.5 10q14 0 23 -10t9 -21
q0 -14 -9 -22.5t-23 -8.5zM529 306q13 0 21.5 -8.5t8.5 -20.5q0 -13 -8.5 -22t-21.5 -9q-12 0 -21 9t-9 22q0 12 9 20.5t21 8.5zM452 128q13 0 21.5 -8.5t8.5 -22.5q0 -11 -8.5 -20t-21.5 -9q-12 0 -21 9t-9 20q0 14 9 22.5t21 8.5zM510 204q11 0 20.5 -8.5t9.5 -22.5
q0 -11 -9.5 -21t-20.5 -10q-14 0 -23 10t-9 21q0 14 9 22.5t23 8.5zM378 78q11 0 19.5 -8.5t8.5 -22.5q0 -11 -8.5 -21t-19.5 -10q-14 0 -23 10t-9 21q0 14 9 22.5t23 8.5zM452 420q-12 0 -21 8.5t-9 22.5q0 11 9 20t21 9q13 0 21.5 -9t8.5 -20q0 -14 -8.5 -22.5t-21.5 -8.5
zM510 344q-14 0 -23 9t-9 22q0 11 9 21t23 10q11 0 20.5 -10t9.5 -21q0 -13 -9.5 -22t-20.5 -9zM378 470q-14 0 -23 8.5t-9 22.5q0 11 9 21t23 10q11 0 19.5 -10t8.5 -21q0 -14 -8.5 -22.5t-19.5 -8.5z" />
    <glyph glyph-name="S_SSA" unicode="&#x1039;&#x1051;" horiz-adv-x="609" 
d="M228 -66q-21 -12 -32 -26t-19.5 -31.5t-13 -37.5t-4.5 -38q0 -56 34.5 -91t90.5 -35t89.5 35t33.5 91q-1 19 -5.5 39t-13.5 37.5t-20 31t-33 25.5l42 76q34 -20 53 -41q15 -16 26.5 -36t19.5 -42.5t11.5 -45t3.5 -44.5q0 -88 -58 -149q-59 -60 -147 -60q-89 0 -149 60
q-61 61 -61 149q0 22 3.5 45t11.5 46t19.5 43.5t26.5 35.5q10 11 21.5 19l32.5 22zM219 -207q0 30 19 49.5t46 19.5q28 0 48.5 -19.5t20.5 -49.5q0 -27 -20.5 -46t-48.5 -19q-27 0 -46 19t-19 46zM40 306q12 0 21 -8.5t9 -20.5q0 -13 -9 -22t-21 -9q-13 0 -21.5 9t-8.5 22
q0 12 8.5 20.5t21.5 8.5zM289 547q12 0 21 -8.5t9 -22.5q0 -11 -9 -20t-21 -9q-13 0 -21.5 9t-8.5 20q0 14 8.5 22.5t21.5 8.5zM289 59q12 0 21 -8.5t9 -20.5q0 -13 -9 -22t-21 -9q-13 0 -21.5 9t-8.5 22q0 12 8.5 20.5t21.5 8.5zM117 128q12 0 21 -8.5t9 -22.5
q0 -11 -9 -20t-21 -9q-13 0 -21.5 9t-8.5 20q0 14 8.5 22.5t21.5 8.5zM59 204q14 0 23 -8.5t9 -22.5q0 -11 -9 -21t-23 -10q-11 0 -20.5 10t-9.5 21q0 14 9.5 22.5t20.5 8.5zM191 78q14 0 23 -8.5t9 -22.5q0 -11 -9 -21t-23 -10q-11 0 -19.5 10t-8.5 21q0 14 8.5 22.5
t19.5 8.5zM117 420q-13 0 -21.5 8.5t-8.5 22.5q0 11 8.5 20t21.5 9q12 0 21 -9t9 -20q0 -14 -9 -22.5t-21 -8.5zM59 344q-11 0 -20.5 9t-9.5 22q0 11 9.5 21t20.5 10q14 0 23 -10t9 -21q0 -13 -9 -22t-23 -9zM191 470q-11 0 -19.5 8.5t-8.5 22.5q0 11 8.5 21t19.5 10
q14 0 23 -10t9 -21q0 -14 -9 -22.5t-23 -8.5zM529 306q13 0 21.5 -8.5t8.5 -20.5q0 -13 -8.5 -22t-21.5 -9q-12 0 -21 9t-9 22q0 12 9 20.5t21 8.5zM452 128q13 0 21.5 -8.5t8.5 -22.5q0 -11 -8.5 -20t-21.5 -9q-12 0 -21 9t-9 20q0 14 9 22.5t21 8.5zM510 204
q11 0 20.5 -8.5t9.5 -22.5q0 -11 -9.5 -21t-20.5 -10q-14 0 -23 10t-9 21q0 14 9 22.5t23 8.5zM378 78q11 0 19.5 -8.5t8.5 -22.5q0 -11 -8.5 -21t-19.5 -10q-14 0 -23 10t-9 21q0 14 9 22.5t23 8.5zM452 420q-12 0 -21 8.5t-9 22.5q0 11 9 20t21 9q13 0 21.5 -9t8.5 -20
q0 -14 -8.5 -22.5t-21.5 -8.5zM510 344q-14 0 -23 9t-9 22q0 11 9 21t23 10q11 0 20.5 -10t9.5 -21q0 -13 -9.5 -22t-20.5 -9zM378 470q-14 0 -23 8.5t-9 22.5q0 11 9 21t23 10q11 0 19.5 -10t8.5 -21q0 -14 -8.5 -22.5t-19.5 -8.5z" />
    <glyph glyph-name="S_SHA" unicode="&#x1039;&#x1050;" horiz-adv-x="609" 
d="M191 -413l-32.5 22t-21.5 19q-15 15 -26.5 35.5t-19.5 43t-11.5 46t-3.5 45.5q0 88 61 149q60 60 149 60q88 0 147 -60q58 -61 58 -149q0 -22 -3.5 -44.5t-11.5 -45t-19.5 -42.5t-26.5 -36q-19 -21 -53 -41l-42 76q22 12 33 25.5t20 31t13.5 37.5t5.5 39q0 56 -33.5 91
t-89.5 35t-90.5 -35t-34.5 -91q0 -19 4.5 -38.5t13 -37.5t19.5 -31.5t32 -25.5zM219 -207q0 30 19 49.5t46 19.5q28 0 48.5 -19.5t20.5 -49.5q0 -27 -20.5 -46t-48.5 -19q-27 0 -46 19t-19 46zM40 306q12 0 21 -8.5t9 -20.5q0 -13 -9 -22t-21 -9q-13 0 -21.5 9t-8.5 22
q0 12 8.5 20.5t21.5 8.5zM289 547q12 0 21 -8.5t9 -22.5q0 -11 -9 -20t-21 -9q-13 0 -21.5 9t-8.5 20q0 14 8.5 22.5t21.5 8.5zM289 59q12 0 21 -8.5t9 -20.5q0 -13 -9 -22t-21 -9q-13 0 -21.5 9t-8.5 22q0 12 8.5 20.5t21.5 8.5zM117 128q12 0 21 -8.5t9 -22.5
q0 -11 -9 -20t-21 -9q-13 0 -21.5 9t-8.5 20q0 14 8.5 22.5t21.5 8.5zM59 204q14 0 23 -8.5t9 -22.5q0 -11 -9 -21t-23 -10q-11 0 -20.5 10t-9.5 21q0 14 9.5 22.5t20.5 8.5zM191 78q14 0 23 -8.5t9 -22.5q0 -11 -9 -21t-23 -10q-11 0 -19.5 10t-8.5 21q0 14 8.5 22.5
t19.5 8.5zM117 420q-13 0 -21.5 8.5t-8.5 22.5q0 11 8.5 20t21.5 9q12 0 21 -9t9 -20q0 -14 -9 -22.5t-21 -8.5zM59 344q-11 0 -20.5 9t-9.5 22q0 11 9.5 21t20.5 10q14 0 23 -10t9 -21q0 -13 -9 -22t-23 -9zM191 470q-11 0 -19.5 8.5t-8.5 22.5q0 11 8.5 21t19.5 10
q14 0 23 -10t9 -21q0 -14 -9 -22.5t-23 -8.5zM529 306q13 0 21.5 -8.5t8.5 -20.5q0 -13 -8.5 -22t-21.5 -9q-12 0 -21 9t-9 22q0 12 9 20.5t21 8.5zM452 128q13 0 21.5 -8.5t8.5 -22.5q0 -11 -8.5 -20t-21.5 -9q-12 0 -21 9t-9 20q0 14 9 22.5t21 8.5zM510 204
q11 0 20.5 -8.5t9.5 -22.5q0 -11 -9.5 -21t-20.5 -10q-14 0 -23 10t-9 21q0 14 9 22.5t23 8.5zM378 78q11 0 19.5 -8.5t8.5 -22.5q0 -11 -8.5 -21t-19.5 -10q-14 0 -23 10t-9 21q0 14 9 22.5t23 8.5zM452 420q-12 0 -21 8.5t-9 22.5q0 11 9 20t21 9q13 0 21.5 -9t8.5 -20
q0 -14 -8.5 -22.5t-21.5 -8.5zM510 344q-14 0 -23 9t-9 22q0 11 9 21t23 10q11 0 20.5 -10t9.5 -21q0 -13 -9.5 -22t-20.5 -9zM378 470q-14 0 -23 8.5t-9 22.5q0 11 9 21t23 10q11 0 19.5 -10t8.5 -21q0 -14 -8.5 -22.5t-19.5 -8.5z" />
    <glyph glyph-name="SK_EU_ASAT" unicode="&#x1062;&#x103a;" horiz-adv-x="874" 
d="M690 -9l-1 483h-138v86h223v-569h-84zM40 306q12 0 21 -8.5t9 -20.5q0 -13 -9 -22t-21 -9q-13 0 -21.5 9t-8.5 22q0 12 8.5 20.5t21.5 8.5zM289 547q12 0 21 -8.5t9 -22.5q0 -11 -9 -20t-21 -9q-13 0 -21.5 9t-8.5 20q0 14 8.5 22.5t21.5 8.5zM289 59q12 0 21 -8.5
t9 -20.5q0 -13 -9 -22t-21 -9q-13 0 -21.5 9t-8.5 22q0 12 8.5 20.5t21.5 8.5zM117 128q12 0 21 -8.5t9 -22.5q0 -11 -9 -20t-21 -9q-13 0 -21.5 9t-8.5 20q0 14 8.5 22.5t21.5 8.5zM59 204q14 0 23 -8.5t9 -22.5q0 -11 -9 -21t-23 -10q-11 0 -20.5 10t-9.5 21
q0 14 9.5 22.5t20.5 8.5zM191 78q14 0 23 -8.5t9 -22.5q0 -11 -9 -21t-23 -10q-11 0 -19.5 10t-8.5 21q0 14 8.5 22.5t19.5 8.5zM117 420q-13 0 -21.5 8.5t-8.5 22.5q0 11 8.5 20t21.5 9q12 0 21 -9t9 -20q0 -14 -9 -22.5t-21 -8.5zM59 344q-11 0 -20.5 9t-9.5 22
q0 11 9.5 21t20.5 10q14 0 23 -10t9 -21q0 -13 -9 -22t-23 -9zM191 470q-11 0 -19.5 8.5t-8.5 22.5q0 11 8.5 21t19.5 10q14 0 23 -10t9 -21q0 -14 -9 -22.5t-23 -8.5zM529 306q13 0 21.5 -8.5t8.5 -20.5q0 -13 -8.5 -22t-21.5 -9q-12 0 -21 9t-9 22q0 12 9 20.5t21 8.5z
M452 128q13 0 21.5 -8.5t8.5 -22.5q0 -11 -8.5 -20t-21.5 -9q-12 0 -21 9t-9 20q0 14 9 22.5t21 8.5zM510 204q11 0 20.5 -8.5t9.5 -22.5q0 -11 -9.5 -21t-20.5 -10q-14 0 -23 10t-9 21q0 14 9 22.5t23 8.5zM378 78q11 0 19.5 -8.5t8.5 -22.5q0 -11 -8.5 -21t-19.5 -10
q-14 0 -23 10t-9 21q0 14 9 22.5t23 8.5zM452 420q-12 0 -21 8.5t-9 22.5q0 11 9 20t21 9q13 0 21.5 -9t8.5 -20q0 -14 -8.5 -22.5t-21.5 -8.5zM510 344q-14 0 -23 9t-9 22q0 11 9 21t23 10q11 0 20.5 -10t9.5 -21q0 -13 -9.5 -22t-20.5 -9zM378 470q-14 0 -23 8.5t-9 22.5
q0 11 9 21t23 10q11 0 19.5 -10t8.5 -21q0 -14 -8.5 -22.5t-19.5 -8.5zM717 554q-36 -8 -59 -8q-86 0 -147 61q-60 60 -60 149q0 88 60 148q61 60 150 60q88 0 145 -60q14 -14 23 -27t22 -39l-79 -34q-7 19 -12.5 26t-12.5 15q-35 36 -89 36q-56 0 -90 -34.5t-34 -90.5
q0 -27 9 -49t25 -38.5t38 -25.5t49 -9q7 0 10 -0.5t14 1.5z" />
    <glyph glyph-name="KINZI" unicode="&#x1004;&#x103a;&#x1039;" horiz-adv-x="609" 
d="M358 728h-52q-11 0 -24 -6t-24 -16t-18 -21.5t-7 -21.5q0 -22 15.5 -37.5t37.5 -15.5q21 0 37 14q15 13 19 42l81 -17q-9 -42 -31 -70q-19 -24 -47 -37.5t-59 -13.5q-28 0 -53.5 11t-44 29.5t-29.5 44t-11 53.5q0 38 19 69t38 43q-7 6 -17.5 27t-10.5 46q0 22 9 42
t23.5 34.5t34.5 23t42 8.5q45 0 76 -31q24 -24 32 -67l-85 -28v17q0 5 -3 10t-7 9q-8 5 -14 5q-9 0 -16 -7t-7 -17q0 -4 4 -11.5t11 -15t14.5 -12t13.5 -4.5h52zM40 306q12 0 21 -8.5t9 -20.5q0 -13 -9 -22t-21 -9q-13 0 -21.5 9t-8.5 22q0 12 8.5 20.5t21.5 8.5zM289 547
q12 0 21 -8.5t9 -22.5q0 -11 -9 -20t-21 -9q-13 0 -21.5 9t-8.5 20q0 14 8.5 22.5t21.5 8.5zM289 59q12 0 21 -8.5t9 -20.5q0 -13 -9 -22t-21 -9q-13 0 -21.5 9t-8.5 22q0 12 8.5 20.5t21.5 8.5zM117 128q12 0 21 -8.5t9 -22.5q0 -11 -9 -20t-21 -9q-13 0 -21.5 9t-8.5 20
q0 14 8.5 22.5t21.5 8.5zM59 204q14 0 23 -8.5t9 -22.5q0 -11 -9 -21t-23 -10q-11 0 -20.5 10t-9.5 21q0 14 9.5 22.5t20.5 8.5zM191 78q14 0 23 -8.5t9 -22.5q0 -11 -9 -21t-23 -10q-11 0 -19.5 10t-8.5 21q0 14 8.5 22.5t19.5 8.5zM117 420q-13 0 -21.5 8.5t-8.5 22.5
q0 11 8.5 20t21.5 9q12 0 21 -9t9 -20q0 -14 -9 -22.5t-21 -8.5zM59 344q-11 0 -20.5 9t-9.5 22q0 11 9.5 21t20.5 10q14 0 23 -10t9 -21q0 -13 -9 -22t-23 -9zM191 470q-11 0 -19.5 8.5t-8.5 22.5q0 11 8.5 21t19.5 10q14 0 23 -10t9 -21q0 -14 -9 -22.5t-23 -8.5zM529 306
q13 0 21.5 -8.5t8.5 -20.5q0 -13 -8.5 -22t-21.5 -9q-12 0 -21 9t-9 22q0 12 9 20.5t21 8.5zM452 128q13 0 21.5 -8.5t8.5 -22.5q0 -11 -8.5 -20t-21.5 -9q-12 0 -21 9t-9 20q0 14 9 22.5t21 8.5zM510 204q11 0 20.5 -8.5t9.5 -22.5q0 -11 -9.5 -21t-20.5 -10q-14 0 -23 10
t-9 21q0 14 9 22.5t23 8.5zM378 78q11 0 19.5 -8.5t8.5 -22.5q0 -11 -8.5 -21t-19.5 -10q-14 0 -23 10t-9 21q0 14 9 22.5t23 8.5zM452 420q-12 0 -21 8.5t-9 22.5q0 11 9 20t21 9q13 0 21.5 -9t8.5 -20q0 -14 -8.5 -22.5t-21.5 -8.5zM510 344q-14 0 -23 9t-9 22q0 11 9 21
t23 10q11 0 20.5 -10t9.5 -21q0 -13 -9.5 -22t-20.5 -9zM378 470q-14 0 -23 8.5t-9 22.5q0 11 9 21t23 10q11 0 19.5 -10t8.5 -21q0 -14 -8.5 -22.5t-19.5 -8.5z" />
    <glyph glyph-name="VS_I_ANUSVARA" unicode="&#x102d;&#x1036;" horiz-adv-x="609" 
d="M286 546q-87 0 -147 61q-60 60 -60 149q0 88 60 148t149 60q87 0 147 -60q58 -61 58 -148q0 -84 -61 -148q-59 -62 -146 -62zM286 881q-56 0 -90.5 -34.5t-34.5 -90.5q0 -27 9 -49t25.5 -38.5t38.5 -25.5t49 -9q56 0 90 33t36 89q0 28 -9 50.5t-25 39.5t-38.5 26t-50.5 9
zM500 759q0 21 8.5 40t22.5 32.5t33 22t41 8.5q21 0 40.5 -8.5t33 -22t22 -32.5t8.5 -40q0 -22 -8.5 -41.5t-22 -33.5t-33 -22.5t-40.5 -8.5q-22 0 -41 8.5t-33 22.5t-22.5 33.5t-8.5 41.5zM567 759q0 -16 11.5 -27.5t26.5 -11.5q16 0 28.5 11.5t12.5 27.5t-12.5 28
t-28.5 12q-15 0 -26.5 -12t-11.5 -28zM40 306q12 0 21 -8.5t9 -20.5q0 -13 -9 -22t-21 -9q-13 0 -21.5 9t-8.5 22q0 12 8.5 20.5t21.5 8.5zM289 547q12 0 21 -8.5t9 -22.5q0 -11 -9 -20t-21 -9q-13 0 -21.5 9t-8.5 20q0 14 8.5 22.5t21.5 8.5zM289 59q12 0 21 -8.5t9 -20.5
q0 -13 -9 -22t-21 -9q-13 0 -21.5 9t-8.5 22q0 12 8.5 20.5t21.5 8.5zM117 128q12 0 21 -8.5t9 -22.5q0 -11 -9 -20t-21 -9q-13 0 -21.5 9t-8.5 20q0 14 8.5 22.5t21.5 8.5zM59 204q14 0 23 -8.5t9 -22.5q0 -11 -9 -21t-23 -10q-11 0 -20.5 10t-9.5 21q0 14 9.5 22.5
t20.5 8.5zM191 78q14 0 23 -8.5t9 -22.5q0 -11 -9 -21t-23 -10q-11 0 -19.5 10t-8.5 21q0 14 8.5 22.5t19.5 8.5zM117 420q-13 0 -21.5 8.5t-8.5 22.5q0 11 8.5 20t21.5 9q12 0 21 -9t9 -20q0 -14 -9 -22.5t-21 -8.5zM59 344q-11 0 -20.5 9t-9.5 22q0 11 9.5 21t20.5 10
q14 0 23 -10t9 -21q0 -13 -9 -22t-23 -9zM191 470q-11 0 -19.5 8.5t-8.5 22.5q0 11 8.5 21t19.5 10q14 0 23 -10t9 -21q0 -14 -9 -22.5t-23 -8.5zM529 306q13 0 21.5 -8.5t8.5 -20.5q0 -13 -8.5 -22t-21.5 -9q-12 0 -21 9t-9 22q0 12 9 20.5t21 8.5zM452 128q13 0 21.5 -8.5
t8.5 -22.5q0 -11 -8.5 -20t-21.5 -9q-12 0 -21 9t-9 20q0 14 9 22.5t21 8.5zM510 204q11 0 20.5 -8.5t9.5 -22.5q0 -11 -9.5 -21t-20.5 -10q-14 0 -23 10t-9 21q0 14 9 22.5t23 8.5zM378 78q11 0 19.5 -8.5t8.5 -22.5q0 -11 -8.5 -21t-19.5 -10q-14 0 -23 10t-9 21
q0 14 9 22.5t23 8.5zM452 420q-12 0 -21 8.5t-9 22.5q0 11 9 20t21 9q13 0 21.5 -9t8.5 -20q0 -14 -8.5 -22.5t-21.5 -8.5zM510 344q-14 0 -23 9t-9 22q0 11 9 21t23 10q11 0 20.5 -10t9.5 -21q0 -13 -9.5 -22t-20.5 -9zM378 470q-14 0 -23 8.5t-9 22.5q0 11 9 21t23 10
q11 0 19.5 -10t8.5 -21q0 -14 -8.5 -22.5t-19.5 -8.5z" />
    <glyph glyph-name="DOUBLE_ASAT" unicode="&#x103a;&#x103a;" horiz-adv-x="609" 
d="M293 538q-93 1 -156 47q-67 48 -67 110q0 54 54 119v6q-13 -20 -6.5 -15t11.5 10q61 52 150 52q91 0 156 -44q67 -43 67 -115v-17h-87v11q0 22 -34 50q-37 31 -93 34q-29 0 -60 -10q-33 -8 -48 -30q-16 -23 -16 -42t10.5 -37t21.5 -24q14 -7 37.5 -15t60.5 -9zM134 858
q-30 -21 -111 -151q63 164 121.5 206t140.5 50q10 1 20.5 1.5t19.5 0.5q105 0 173 -41v1q125 -79 136 -233h-94q-31 192 -257 203q-89 0 -149 -37zM40 306q12 0 21 -8.5t9 -20.5q0 -13 -9 -22t-21 -9q-13 0 -21.5 9t-8.5 22q0 12 8.5 20.5t21.5 8.5zM289 547q12 0 21 -8.5
t9 -22.5q0 -11 -9 -20t-21 -9q-13 0 -21.5 9t-8.5 20q0 14 8.5 22.5t21.5 8.5zM289 59q12 0 21 -8.5t9 -20.5q0 -13 -9 -22t-21 -9q-13 0 -21.5 9t-8.5 22q0 12 8.5 20.5t21.5 8.5zM117 128q12 0 21 -8.5t9 -22.5q0 -11 -9 -20t-21 -9q-13 0 -21.5 9t-8.5 20q0 14 8.5 22.5
t21.5 8.5zM59 204q14 0 23 -8.5t9 -22.5q0 -11 -9 -21t-23 -10q-11 0 -20.5 10t-9.5 21q0 14 9.5 22.5t20.5 8.5zM191 78q14 0 23 -8.5t9 -22.5q0 -11 -9 -21t-23 -10q-11 0 -19.5 10t-8.5 21q0 14 8.5 22.5t19.5 8.5zM117 420q-13 0 -21.5 8.5t-8.5 22.5q0 11 8.5 20
t21.5 9q12 0 21 -9t9 -20q0 -14 -9 -22.5t-21 -8.5zM59 344q-11 0 -20.5 9t-9.5 22q0 11 9.5 21t20.5 10q14 0 23 -10t9 -21q0 -13 -9 -22t-23 -9zM191 470q-11 0 -19.5 8.5t-8.5 22.5q0 11 8.5 21t19.5 10q14 0 23 -10t9 -21q0 -14 -9 -22.5t-23 -8.5zM529 306
q13 0 21.5 -8.5t8.5 -20.5q0 -13 -8.5 -22t-21.5 -9q-12 0 -21 9t-9 22q0 12 9 20.5t21 8.5zM452 128q13 0 21.5 -8.5t8.5 -22.5q0 -11 -8.5 -20t-21.5 -9q-12 0 -21 9t-9 20q0 14 9 22.5t21 8.5zM510 204q11 0 20.5 -8.5t9.5 -22.5q0 -11 -9.5 -21t-20.5 -10q-14 0 -23 10
t-9 21q0 14 9 22.5t23 8.5zM378 78q11 0 19.5 -8.5t8.5 -22.5q0 -11 -8.5 -21t-19.5 -10q-14 0 -23 10t-9 21q0 14 9 22.5t23 8.5zM452 420q-12 0 -21 8.5t-9 22.5q0 11 9 20t21 9q13 0 21.5 -9t8.5 -20q0 -14 -8.5 -22.5t-21.5 -8.5zM510 344q-14 0 -23 9t-9 22q0 11 9 21
t23 10q11 0 20.5 -10t9.5 -21q0 -13 -9.5 -22t-20.5 -9zM378 470q-14 0 -23 8.5t-9 22.5q0 11 9 21t23 10q11 0 19.5 -10t8.5 -21q0 -14 -8.5 -22.5t-19.5 -8.5z" />
    <glyph glyph-name="M_RA1_ND" unicode="&#x103c;&#x103d;&#x103e;" horiz-adv-x="150" 
d="M716 -298q-24 -2 -53 10l-51 38.5l-58 44.5l52 68l97 -73l58 78q15 46 52 83q60 60 149 60q88 0 147 -60q58 -61 58 -149q0 -84 -61 -147q-57 -60 -138 -63h-275q-75 0 -171.5 -0.5t-171.5 -0.5h-267q-42 2 -64 24t-19 60v1203q-6 86 83 83h1000q84 6 84 -83v-189h-83
v190h-1001l1 -1204h709q-20 27 -30 57l-8 -11q-14 -18 -39 -19zM960 -72q-56 0 -90.5 -35t-34.5 -91q0 -27 9 -49t25 -38.5t38.5 -25.5t49.5 -9q56 0 90 33t36 89q0 56 -34 91t-89 35z" />
    <glyph glyph-name="S_DDHA" unicode="&#x1039;&#x100e;" horiz-adv-x="609" 
d="M76 -201q1 36 13.5 51.5t27.5 20t25.5 3t11.5 -0.5q15 0 23 8t8 19q0 10 -8 17.5t-19 7.5q-15 0 -30 -29l-51 79q38 34 80 34q45 0 76.5 -31.5t31.5 -76.5t-31.5 -76.5t-76.5 -31.5h-1v6q0 -55 37 -91.5t94 -36.5q54 0 90.5 36.5t36.5 91.5q0 68 -37 110q-19 19 -54 33
l38 72q45 -19 73 -47q59 -65 59 -168q0 -90 -58 -149t-148 -59q-91 0 -151 59t-60 149zM50 316q16 0 28 -11.5t12 -27.5q0 -17 -12 -29t-28 -12q-17 0 -28.5 12t-11.5 29q0 16 11.5 27.5t28.5 11.5zM299 557q16 0 28 -11.5t12 -29.5q0 -15 -12 -27t-28 -12q-17 0 -28.5 12
t-11.5 27q0 18 11.5 29.5t28.5 11.5zM299 69q16 0 28 -11.5t12 -27.5q0 -17 -12 -29t-28 -12q-17 0 -28.5 12t-11.5 29q0 16 11.5 27.5t28.5 11.5zM127 138q16 0 28 -11.5t12 -29.5q0 -15 -12 -27t-28 -12q-17 0 -28.5 12t-11.5 27q0 18 11.5 29.5t28.5 11.5zM69 214
q18 0 30 -11.5t12 -29.5q0 -15 -12 -28t-30 -13q-15 0 -27.5 13t-12.5 28q0 18 12.5 29.5t27.5 11.5zM201 88q18 0 30 -11.5t12 -29.5q0 -15 -12 -28t-30 -13q-16 0 -27 13t-11 28q0 18 11.5 29.5t26.5 11.5zM127 410q-17 0 -28.5 11.5t-11.5 29.5q0 15 11.5 27t28.5 12
q16 0 28 -12t12 -27q0 -18 -12 -29.5t-28 -11.5zM69 334q-15 0 -27.5 12t-12.5 29q0 15 12.5 28t27.5 13q18 0 30 -13t12 -28q0 -17 -12 -29t-30 -12zM201 460q-15 0 -26.5 11.5t-11.5 29.5q0 15 11 28t27 13q18 0 30 -13t12 -28q0 -18 -12 -29.5t-30 -11.5zM539 316
q17 0 28.5 -11.5t11.5 -27.5q0 -17 -11.5 -29t-28.5 -12q-16 0 -28 12t-12 29q0 16 12 27.5t28 11.5zM462 138q17 0 28.5 -11.5t11.5 -29.5q0 -15 -11.5 -27t-28.5 -12q-16 0 -28 12t-12 27q0 18 12 29.5t28 11.5zM520 214q15 0 27.5 -11.5t12.5 -29.5q0 -15 -12.5 -28
t-27.5 -13q-18 0 -30 13t-12 28q0 18 12 29.5t30 11.5zM388 88q15 0 26.5 -11.5t11.5 -29.5q0 -15 -11 -28t-27 -13q-18 0 -30 13t-12 28q0 18 12 29.5t30 11.5zM462 410q-16 0 -28 11.5t-12 29.5q0 15 12 27t28 12q17 0 28.5 -12t11.5 -27q0 -18 -11.5 -29.5t-28.5 -11.5z
M520 334q-18 0 -30 12t-12 29q0 15 12 28t30 13q15 0 27.5 -13t12.5 -28q0 -17 -12.5 -29t-27.5 -12zM388 460q-18 0 -30 11.5t-12 29.5q0 15 12 28t30 13q16 0 27 -13t11 -28q0 -18 -11.5 -29.5t-26.5 -11.5z" />
    <glyph glyph-name="S_DDA" unicode="&#x1039;&#x100d;" horiz-adv-x="609" 
d="M344 -342q-5 -3 -23 -6.5t-36 -3.5q-47 0 -80 17v0l-62 31v126l67 28q13 -29 24 -39q21 -21 51 -21q29 0 49.5 20.5t20.5 51.5q0 29 -20.5 50t-49.5 21t-51 -22q-11 -11 -24 -41l-74 32q12 29 21 43t18 23q43 43 110 43q32 0 59.5 -11.5t47.5 -31t30.5 -47t10.5 -59.5
q0 -33 -11 -61t-30.5 -48t-47 -30.5t-59.5 -10.5q-25 0 -44 4t-22 6v8q12 -7 28.5 -12t34.5 -5t35 5.5t40 20.5l63 5v-79h30v-75h-50q-29 -1 -42.5 13.5t-13.5 41.5v13zM50 316q16 0 28 -11.5t12 -27.5q0 -17 -12 -29t-28 -12q-17 0 -28.5 12t-11.5 29q0 16 11.5 27.5
t28.5 11.5zM299 557q16 0 28 -11.5t12 -29.5q0 -15 -12 -27t-28 -12q-17 0 -28.5 12t-11.5 27q0 18 11.5 29.5t28.5 11.5zM299 69q16 0 28 -11.5t12 -27.5q0 -17 -12 -29t-28 -12q-17 0 -28.5 12t-11.5 29q0 16 11.5 27.5t28.5 11.5zM127 138q16 0 28 -11.5t12 -29.5
q0 -15 -12 -27t-28 -12q-17 0 -28.5 12t-11.5 27q0 18 11.5 29.5t28.5 11.5zM69 214q18 0 30 -11.5t12 -29.5q0 -15 -12 -28t-30 -13q-15 0 -27.5 13t-12.5 28q0 18 12.5 29.5t27.5 11.5zM201 88q18 0 30 -11.5t12 -29.5q0 -15 -12 -28t-30 -13q-16 0 -27 13t-11 28
q0 18 11.5 29.5t26.5 11.5zM127 410q-17 0 -28.5 11.5t-11.5 29.5q0 15 11.5 27t28.5 12q16 0 28 -12t12 -27q0 -18 -12 -29.5t-28 -11.5zM69 334q-15 0 -27.5 12t-12.5 29q0 15 12.5 28t27.5 13q18 0 30 -13t12 -28q0 -17 -12 -29t-30 -12zM201 460q-15 0 -26.5 11.5
t-11.5 29.5q0 15 11 28t27 13q18 0 30 -13t12 -28q0 -18 -12 -29.5t-30 -11.5zM539 316q17 0 28.5 -11.5t11.5 -27.5q0 -17 -11.5 -29t-28.5 -12q-16 0 -28 12t-12 29q0 16 12 27.5t28 11.5zM462 138q17 0 28.5 -11.5t11.5 -29.5q0 -15 -11.5 -27t-28.5 -12q-16 0 -28 12
t-12 27q0 18 12 29.5t28 11.5zM520 214q15 0 27.5 -11.5t12.5 -29.5q0 -15 -12.5 -28t-27.5 -13q-18 0 -30 13t-12 28q0 18 12 29.5t30 11.5zM388 88q15 0 26.5 -11.5t11.5 -29.5q0 -15 -11 -28t-27 -13q-18 0 -30 13t-12 28q0 18 12 29.5t30 11.5zM462 410q-16 0 -28 11.5
t-12 29.5q0 15 12 27t28 12q17 0 28.5 -12t11.5 -27q0 -18 -11.5 -29.5t-28.5 -11.5zM520 334q-18 0 -30 12t-12 29q0 15 12 28t30 13q15 0 27.5 -13t12.5 -28q0 -17 -12.5 -29t-27.5 -12zM388 460q-18 0 -30 11.5t-12 29.5q0 15 12 28t30 13q16 0 27 -13t11 -28
q0 -18 -11.5 -29.5t-26.5 -11.5z" />
    <glyph glyph-name="S_SA" unicode="&#x1039;&#x101e;" horiz-adv-x="764" 
d="M449 -5q39 11 73 11q89 0 147 -59t58 -149t-57.5 -148.5t-147.5 -58.5t-150 58q-6 6 -12 13l-9 -10q-59 -60 -147 -60q-89 0 -149 60q-15 15 -30 36l66 48q22 -32 48.5 -46.5t62.5 -14.5q56 0 89.5 35t33.5 91q-2 56 -36 89t-90 33q-31 0 -56 -12.5t-47 -41.5l-67 50
q15 21 26 31q61 61 147 61t146 -63q61 -63 61 -147q0 -28 -6 -53q11 -26 26 -41q37 -36 93 -36q55 0 91 36t36 91t-36 91.5t-91 36.5q-20 0 -47 -6zM604 214q15 0 27.5 -11.5t12.5 -29.5q0 -15 -12.5 -28t-27.5 -13q-19 0 -30.5 13t-11.5 28q0 18 12 29.5t30 11.5zM153 214
q18 0 30 -11.5t12 -29.5q0 -15 -12 -28t-30 -13q-15 0 -27.5 13t-12.5 28q0 18 12.5 29.5t27.5 11.5zM604 334q-18 0 -30 12t-12 29q0 15 11.5 28t30.5 13q15 0 27.5 -13t12.5 -28q0 -17 -12.5 -29t-27.5 -12zM153 334q-15 0 -27.5 12t-12.5 29q0 15 12.5 28t27.5 13
q18 0 30 -13t12 -28q0 -17 -12 -29t-30 -12zM472 460q-18 0 -30 11.5t-12 29.5q0 15 11.5 28t30.5 13q15 0 26.5 -13t11.5 -28q0 -18 -11.5 -29.5t-26.5 -11.5zM285 88q18 0 30 -11.5t12 -29.5q0 -15 -12 -28t-30 -13q-16 0 -27 13t-11 28q0 18 11.5 29.5t26.5 11.5z
M285 460q-15 0 -26.5 11.5t-11.5 29.5q0 15 11 28t27 13q18 0 30 -13t12 -28q0 -18 -12 -29.5t-30 -11.5zM472 88q15 0 26.5 -11.5t11.5 -29.5q0 -15 -11.5 -28t-26.5 -13q-19 0 -30.5 13t-11.5 28q0 18 12 29.5t30 11.5zM211 410q-17 0 -28.5 11.5t-11.5 29.5q0 15 11 27
t29 12q16 0 28 -12t12 -27q0 -18 -12 -29.5t-28 -11.5zM383 69q16 0 28 -11.5t12 -27.5q0 -17 -12 -29t-28 -12q-18 0 -29 12t-11 29q0 16 11.5 27.5t28.5 11.5zM134 316q16 0 28 -11.5t12 -27.5q0 -17 -12 -29t-28 -12q-18 0 -29 12t-11 29q0 16 11.5 27.5t28.5 11.5z
M383 557q16 0 28 -11.5t12 -29.5q0 -15 -12 -27t-28 -12q-18 0 -29 12t-11 27q0 18 11.5 29.5t28.5 11.5zM211 138q16 0 28 -11.5t12 -29.5q0 -15 -12 -27t-28 -12q-18 0 -29 12t-11 27q0 18 11.5 29.5t28.5 11.5zM546 410q-16 0 -28 11.5t-12 29.5q0 15 12 27t28 12
q17 0 28.5 -12t11.5 -27q0 -18 -11.5 -29.5t-28.5 -11.5zM623 316q17 0 28.5 -11.5t11.5 -27.5q0 -17 -11.5 -29t-28.5 -12q-16 0 -28 12t-12 29q0 16 12 27.5t28 11.5zM546 138q17 0 28.5 -11.5t11.5 -29.5q0 -15 -11.5 -27t-28.5 -12q-16 0 -28 12t-12 27q0 18 12 29.5
t28 11.5z" />
    <glyph glyph-name="S_HA" unicode="&#x1039;&#x101f;" horiz-adv-x="764" 
d="M472 -321q26 -6 46 -6q55 0 91 36.5t36 91.5t-36 91t-91 36q-56 0 -93 -36q-11 -10 -19 -25q8 -31 8 -67q0 -90 -58 -148.5t-148 -58.5t-149.5 58.5t-59.5 148.5q0 104 58 167q29 30 76 47l30 -74q-31 -13 -48 -30q-36 -41 -36 -110q0 -55 36.5 -91t92.5 -36q55 0 91 36
t36 91q0 67 -36 109q-19 19 -54 33l37 72q46 -19 73 -47q7 -8 13 -16q60 57 150 57t147.5 -58.5t57.5 -148.5t-58 -149t-147 -59q-33 0 -73 11zM130 306q12 0 21 -8.5t9 -20.5q0 -13 -9 -22t-21 -9q-13 0 -21.5 9t-8.5 22q0 12 8.5 20.5t21.5 8.5zM379 547q12 0 21 -8.5
t9 -22.5q0 -11 -9 -20t-21 -9q-13 0 -21.5 9t-8.5 20q0 14 8.5 22.5t21.5 8.5zM379 59q12 0 21 -8.5t9 -20.5q0 -13 -9 -22t-21 -9q-13 0 -21.5 9t-8.5 22q0 12 8.5 20.5t21.5 8.5zM207 128q12 0 21 -8.5t9 -22.5q0 -11 -9 -20t-21 -9q-13 0 -21.5 9t-8.5 20q0 14 8.5 22.5
t21.5 8.5zM149 204q14 0 23 -8.5t9 -22.5q0 -11 -9 -21t-23 -10q-11 0 -20.5 10t-9.5 21q0 14 9.5 22.5t20.5 8.5zM281 78q14 0 23 -8.5t9 -22.5q0 -11 -9 -21t-23 -10q-11 0 -19.5 10t-8.5 21q0 14 8.5 22.5t19.5 8.5zM207 420q-13 0 -21.5 8.5t-8.5 22.5q0 11 8.5 20
t21.5 9q12 0 21 -9t9 -20q0 -14 -9 -22.5t-21 -8.5zM149 344q-11 0 -20.5 9t-9.5 22q0 11 9.5 21t20.5 10q14 0 23 -10t9 -21q0 -13 -9 -22t-23 -9zM281 470q-11 0 -19.5 8.5t-8.5 22.5q0 11 8.5 21t19.5 10q14 0 23 -10t9 -21q0 -14 -9 -22.5t-23 -8.5zM619 306
q13 0 21.5 -8.5t8.5 -20.5q0 -13 -8.5 -22t-21.5 -9q-12 0 -21 9t-9 22q0 12 9 20.5t21 8.5zM542 128q13 0 21.5 -8.5t8.5 -22.5q0 -11 -8.5 -20t-21.5 -9q-12 0 -21 9t-9 20q0 14 9 22.5t21 8.5zM600 204q11 0 20.5 -8.5t9.5 -22.5q0 -11 -9.5 -21t-20.5 -10q-14 0 -23 10
t-9 21q0 14 9 22.5t23 8.5zM468 78q11 0 19.5 -8.5t8.5 -22.5q0 -11 -8.5 -21t-19.5 -10q-14 0 -23 10t-9 21q0 14 9 22.5t23 8.5zM542 420q-12 0 -21 8.5t-9 22.5q0 11 9 20t21 9q13 0 21.5 -9t8.5 -20q0 -14 -8.5 -22.5t-21.5 -8.5zM600 344q-14 0 -23 9t-9 22q0 11 9 21
t23 10q11 0 20.5 -10t9.5 -21q0 -13 -9.5 -22t-20.5 -9zM468 470q-14 0 -23 8.5t-9 22.5q0 11 9 21t23 10q11 0 19.5 -10t8.5 -21q0 -14 -8.5 -22.5t-19.5 -8.5z" />
    <glyph glyph-name="S_A" unicode="&#x1039;&#x1021;" horiz-adv-x="764" 
d="M93 -242q14 -33 31 -51q37 -35 95 -35q41 0 73 23q-29 6 -52 29q-31 31 -31 77q0 22 8 42t23 34.5t35 23.5q8 4 17 7q-32 22 -73 22q-57 0 -94 -37q-18 -17 8 -62l-95 -2q-40 65 25 123t156 58t150 -59h1q60 58 150 58t147.5 -58.5t57.5 -148.5t-58 -149t-147 -59
q-27 0 -58 7l-12 1v2l-3 1l3 9q4 89 61 146q55 55 135 60q-5 43 -35 73q-36 36 -91 36q-56 0 -93 -36q-25 -24 -54 -55q-20 -9 -54 -10q-11 0 -18.5 -7.5t-7.5 -18.5t7.5 -18.5t18.5 -7.5q62 -3 78.5 -33.5t-29.5 -92.5q-59 -59 -149 -59q-93 0 -152 59q-29 27 -49 74z
M149 204q14 0 23 -8.5t9 -22.5q0 -11 -9 -21t-23 -10q-11 0 -20.5 10t-9.5 21q0 14 9.5 22.5t20.5 8.5zM600 204q11 0 20.5 -8.5t9.5 -22.5q0 -11 -9.5 -21t-20.5 -10q-14 0 -23 10t-9 21q0 14 9 22.5t23 8.5zM149 344q-11 0 -20.5 9t-9.5 22q0 11 9.5 21t20.5 10
q14 0 23 -10t9 -21q0 -13 -9 -22t-23 -9zM600 344q-14 0 -23 9t-9 22q0 11 9 21t23 10q11 0 20.5 -10t9.5 -21q0 -13 -9.5 -22t-20.5 -9zM281 78q14 0 23 -8.5t9 -22.5q0 -11 -9 -21t-23 -10q-11 0 -19.5 10t-8.5 21q0 14 8.5 22.5t19.5 8.5zM281 470q-11 0 -19.5 8.5
t-8.5 22.5q0 11 8.5 21t19.5 10q14 0 23 -10t9 -21q0 -14 -9 -22.5t-23 -8.5zM468 78q11 0 19.5 -8.5t8.5 -22.5q0 -11 -8.5 -21t-19.5 -10q-14 0 -23 10t-9 21q0 14 9 22.5t23 8.5zM468 470q-14 0 -23 8.5t-9 22.5q0 11 9 21t23 10q11 0 19.5 -10t8.5 -21q0 -14 -8.5 -22.5
t-19.5 -8.5zM207 420q-13 0 -21.5 8.5t-8.5 22.5q0 11 8.5 20t21.5 9q12 0 21 -9t9 -20q0 -14 -9 -22.5t-21 -8.5zM542 420q-12 0 -21 8.5t-9 22.5q0 11 9 20t21 9q13 0 21.5 -9t8.5 -20q0 -14 -8.5 -22.5t-21.5 -8.5zM130 306q12 0 21 -8.5t9 -20.5q0 -13 -9 -22t-21 -9
q-13 0 -21.5 9t-8.5 22q0 12 8.5 20.5t21.5 8.5zM379 59q12 0 21 -8.5t9 -20.5q0 -13 -9 -22t-21 -9q-13 0 -21.5 9t-8.5 22q0 12 8.5 20.5t21.5 8.5zM207 128q12 0 21 -8.5t9 -22.5q0 -11 -9 -20t-21 -9q-13 0 -21.5 9t-8.5 20q0 14 8.5 22.5t21.5 8.5zM379 547
q12 0 21 -8.5t9 -22.5q0 -11 -9 -20t-21 -9q-13 0 -21.5 9t-8.5 20q0 14 8.5 22.5t21.5 8.5zM542 128q13 0 21.5 -8.5t8.5 -22.5q0 -11 -8.5 -20t-21.5 -9q-12 0 -21 9t-9 20q0 14 9 22.5t21 8.5zM619 306q13 0 21.5 -8.5t8.5 -20.5q0 -13 -8.5 -22t-21.5 -9q-12 0 -21 9
t-9 22q0 12 9 20.5t21 8.5zM611 -289q11 11 19 24q-37 -7 -63 -33q-11 -11 -19 -25q37 7 63 34z" />
    <glyph glyph-name="NNYA_NNYA" unicode="&#x100a;&#x1039;&#x100a;" horiz-adv-x="1548" 
d="M642 552q39 8 74 8q123 0 203 -80q79 -79 79 -204q0 -32 -4.5 -58.5t-8.5 -40.5l16 -22.5t19 -23.5q56 -55 146 -55q85 0 141 57q57 57 57 143q0 85 -57 141q-56 57 -141 57q-22 0 -51 -4l-25 82q42 8 76 8q123 0 203 -80q79 -79 79 -204q0 -124 -80 -206
q-80 -80 -202 -80q-129 0 -208 79q-1 1 -9.5 10.5t-10.5 11.5q4 4 -3.5 -4l-16.5 -17q-80 -80 -202 -80q-129 0 -208 79q-1 1 -9.5 10.5t-10.5 11.5l-8 -10.5t-10 -10.5q-80 -80 -202 -80q-108 0 -183 57v-364l1284 -3v60q-3 16 -18.5 23t-45.5 6v78q64 1 102.5 -26
t40.5 -82v-51q-2 -39 -23 -63t-58 -33h-1281q-86 -3 -86 90v472q24 11 39 19t41 20q12 -25 21 -38t21 -24q60 -55 146 -55q85 0 141 57q57 57 57 143q0 85 -57 141q-56 57 -141 57q-86 0 -145 -56q-13 -13 -22 -26t-21 -37q-27 11 -40.5 17.5t-39.5 17.5q13 31 28.5 52
t32.5 38q83 80 207 80q123 0 203 -80q79 -79 79 -204q0 -55 -15 -99l16 -22.5t19 -23.5q58 -55 146 -55q85 0 141 57q57 57 57 143q0 85 -57 141q-56 57 -141 57q-22 0 -51 -4z" />
    <glyph glyph-name="A_TTA_TTA" unicode="&#x100b;&#x1039;&#x100b;" horiz-adv-x="673" 
d="M553 155q-30 -56 -67 -91q-93 -74 -205 -74q-122 0 -202 80q-79 80 -79 206q0 125 79 204q80 80 202 80q124 0 207 -80q19 -18 33.5 -38t28.5 -52l-41 -18.5t-40 -15.5q-17 36 -42 62q-57 56 -146 56q-85 0 -141 -57q-57 -57 -57 -141q0 -83 57 -143q56 -57 141 -57
q89 0 147 55q10 10 20 25t21 37zM422 -229q-52 -32 -82 -44h54v-73h51v-62h-129v69q-22 -4 -46 -4q-54 0 -110 26l35 45q-16 5 -31 12q-22 12 -36 29t-14 38q0 20 14 38.5t36 30.5q24 11 51 18l12 3q-26 4 -54 11q-29 8 -60 21t-68 41l49 70q100 -55 193 -55q43 0 86.5 10.5
t95.5 37.5q25 -19 40.5 -32.5t39.5 -31.5v-301h64v-75h-63q-83 -1 -81 75v267q-44 -23 -94 -32q-27 -5 -53 -7l7 -2q27 -7 48 -18l54 -31h3l-88 -27q-30 24 -76 24q-37 0 -57.5 -10.5t-20.5 -24.5q0 -11 20.5 -22t54.5 -11q26 0 44.5 6.5t34.5 21.5z" />
    <glyph glyph-name="A_TTA_TTHA" unicode="&#x100b;&#x1039;&#x100c;" horiz-adv-x="670" 
d="M549 156q-24 -54 -59 -87q-79 -79 -208 -79q-123 0 -203 80q-79 80 -79 206q0 125 79 204q80 80 203 80q124 0 207 -80q19 -18 33.5 -38t27.5 -52q-27 -12 -40.5 -18.5t-39.5 -15.5q-12 23 -21 36t-22 26q-56 56 -145 56q-85 0 -142 -57q-56 -58 -56 -141q0 -82 56 -143
q57 -57 142 -57q90 0 146 55q10 10 20.5 25t22.5 37zM96 24q54 -31 104.5 -43t87.5 -12q41 0 86 13.5t94 41.5l81 -54v-319q0 -61 -86 -58h-355q-35 8 -56.5 24t-23.5 41v82q1 28 12 49.5t28.5 37t41 23.5t60.5 8v-88q-30 1 -45.5 -6t-17.5 -23v-60l356 3v246
q-30 -15 -74.5 -29t-94.5 -16q-62 0 -122.5 17.5t-113.5 48.5z" />
    <glyph glyph-name="SS_CA" unicode="&#x1039;&#x1078;" horiz-adv-x="764" 
d="M517 -409q-86 0 -146 63q-61 63 -61 147q0 35 9 66q-9 17 -20 28q-37 36 -93 36q-55 0 -91 -36t-36 -91t36 -91.5t91 -36.5q20 0 46 6l27 -75q-40 -11 -73 -11q-89 0 -147 59t-58 149t57.5 148.5t147.5 58.5t150 -58q4 -4 7 -8q2 3 5 5q58 60 147 60t149 -60
q61 -61 61 -149t-61 -149t-147 -61zM517 -73q-56 0 -89.5 -35t-33.5 -91q2 -56 36 -89t90 -33q26 0 48.5 9t39 25.5t25.5 38.5t9 49q0 56 -34.5 91t-90.5 35zM110 306q12 0 21 -8.5t9 -20.5q0 -13 -9 -22t-21 -9q-13 0 -21.5 9t-8.5 22q0 12 8.5 20.5t21.5 8.5zM359 547
q12 0 21 -8.5t9 -22.5q0 -11 -9 -20t-21 -9q-13 0 -21.5 9t-8.5 20q0 14 8.5 22.5t21.5 8.5zM359 59q12 0 21 -8.5t9 -20.5q0 -13 -9 -22t-21 -9q-13 0 -21.5 9t-8.5 22q0 12 8.5 20.5t21.5 8.5zM187 128q12 0 21 -8.5t9 -22.5q0 -11 -9 -20t-21 -9q-13 0 -21.5 9t-8.5 20
q0 14 8.5 22.5t21.5 8.5zM129 204q14 0 23 -8.5t9 -22.5q0 -11 -9 -21t-23 -10q-11 0 -20.5 10t-9.5 21q0 14 9.5 22.5t20.5 8.5zM261 78q14 0 23 -8.5t9 -22.5q0 -11 -9 -21t-23 -10q-11 0 -19.5 10t-8.5 21q0 14 8.5 22.5t19.5 8.5zM187 420q-13 0 -21.5 8.5t-8.5 22.5
q0 11 8.5 20t21.5 9q12 0 21 -9t9 -20q0 -14 -9 -22.5t-21 -8.5zM129 344q-11 0 -20.5 9t-9.5 22q0 11 9.5 21t20.5 10q14 0 23 -10t9 -21q0 -13 -9 -22t-23 -9zM261 470q-11 0 -19.5 8.5t-8.5 22.5q0 11 8.5 21t19.5 10q14 0 23 -10t9 -21q0 -14 -9 -22.5t-23 -8.5z
M599 306q13 0 21.5 -8.5t8.5 -20.5q0 -13 -8.5 -22t-21.5 -9q-12 0 -21 9t-9 22q0 12 9 20.5t21 8.5zM522 128q13 0 21.5 -8.5t8.5 -22.5q0 -11 -8.5 -20t-21.5 -9q-12 0 -21 9t-9 20q0 14 9 22.5t21 8.5zM580 204q11 0 20.5 -8.5t9.5 -22.5q0 -11 -9.5 -21t-20.5 -10
q-14 0 -23 10t-9 21q0 14 9 22.5t23 8.5zM448 78q11 0 19.5 -8.5t8.5 -22.5q0 -11 -8.5 -21t-19.5 -10q-14 0 -23 10t-9 21q0 14 9 22.5t23 8.5zM522 420q-12 0 -21 8.5t-9 22.5q0 11 9 20t21 9q13 0 21.5 -9t8.5 -20q0 -14 -8.5 -22.5t-21.5 -8.5zM580 344q-14 0 -23 9
t-9 22q0 11 9 21t23 10q11 0 20.5 -10t9.5 -21q0 -13 -9.5 -22t-20.5 -9zM448 470q-14 0 -23 8.5t-9 22.5q0 11 9 21t23 10q11 0 19.5 -10t8.5 -21q0 -14 -8.5 -22.5t-19.5 -8.5z" />
    <glyph glyph-name="SS_KHA" unicode="&#x1039;&#x1076;" horiz-adv-x="609" 
d="M191 -293q37 -35 94 -35q38 0 60 12q-5 12 -22 29q-36 36 -91 36q-40 0 -63 -14q5 -12 22 -28zM233 -169h8q14 -1 26 -2q9 -1 18 -4q1 0 0 0q5 0 9 -2q6 -1 13 -3q11 -4 19 -9q12 -4 21 -12q17 -10 32 -24l3 -3q4 -4 4 -5q11 -12 22 -28q3 -4 -5 8q11 24 11 55
q0 55 -37 92q-33 33 -72 35q-1 -11 -10 -29t-23 -32t-33.5 -21.5t-41.5 -7.5q-45 0 -76.5 31.5t-31.5 76.5q0 10 1.5 20.5t10.5 28.5l75 -34q-3 -10 -3 -13q0 -11 7.5 -18.5t18.5 -7.5q10 0 18 7.5t8 18.5q0 14 -23 30q19 17 34.5 22.5t42.5 9.5h7q91 0 149 -59t58 -150
t-58.5 -150.5t-148.5 -59.5q-93 0 -153 58q-23 22 -37 50q-13 21 -19.5 44.5t6 43t46 31t95.5 12.5h9zM40 306q12 0 21 -8.5t9 -20.5q0 -13 -9 -22t-21 -9q-13 0 -21.5 9t-8.5 22q0 12 8.5 20.5t21.5 8.5zM289 547q12 0 21 -8.5t9 -22.5q0 -11 -9 -20t-21 -9q-13 0 -21.5 9
t-8.5 20q0 14 8.5 22.5t21.5 8.5zM289 59q12 0 21 -8.5t9 -20.5q0 -13 -9 -22t-21 -9q-13 0 -21.5 9t-8.5 22q0 12 8.5 20.5t21.5 8.5zM117 128q12 0 21 -8.5t9 -22.5q0 -11 -9 -20t-21 -9q-13 0 -21.5 9t-8.5 20q0 14 8.5 22.5t21.5 8.5zM59 204q14 0 23 -8.5t9 -22.5
q0 -11 -9 -21t-23 -10q-11 0 -20.5 10t-9.5 21q0 14 9.5 22.5t20.5 8.5zM191 78q14 0 23 -8.5t9 -22.5q0 -11 -9 -21t-23 -10q-11 0 -19.5 10t-8.5 21q0 14 8.5 22.5t19.5 8.5zM117 420q-13 0 -21.5 8.5t-8.5 22.5q0 11 8.5 20t21.5 9q12 0 21 -9t9 -20q0 -14 -9 -22.5
t-21 -8.5zM59 344q-11 0 -20.5 9t-9.5 22q0 11 9.5 21t20.5 10q14 0 23 -10t9 -21q0 -13 -9 -22t-23 -9zM191 470q-11 0 -19.5 8.5t-8.5 22.5q0 11 8.5 21t19.5 10q14 0 23 -10t9 -21q0 -14 -9 -22.5t-23 -8.5zM529 306q13 0 21.5 -8.5t8.5 -20.5q0 -13 -8.5 -22t-21.5 -9
q-12 0 -21 9t-9 22q0 12 9 20.5t21 8.5zM452 128q13 0 21.5 -8.5t8.5 -22.5q0 -11 -8.5 -20t-21.5 -9q-12 0 -21 9t-9 20q0 14 9 22.5t21 8.5zM510 204q11 0 20.5 -8.5t9.5 -22.5q0 -11 -9.5 -21t-20.5 -10q-14 0 -23 10t-9 21q0 14 9 22.5t23 8.5zM378 78q11 0 19.5 -8.5
t8.5 -22.5q0 -11 -8.5 -21t-19.5 -10q-14 0 -23 10t-9 21q0 14 9 22.5t23 8.5zM452 420q-12 0 -21 8.5t-9 22.5q0 11 9 20t21 9q13 0 21.5 -9t8.5 -20q0 -14 -8.5 -22.5t-21.5 -8.5zM510 344q-14 0 -23 9t-9 22q0 11 9 21t23 10q11 0 20.5 -10t9.5 -21q0 -13 -9.5 -22
t-20.5 -9zM378 470q-14 0 -23 8.5t-9 22.5q0 11 9 21t23 10q11 0 19.5 -10t8.5 -21q0 -14 -8.5 -22.5t-19.5 -8.5z" />
    <glyph glyph-name="SS_KA" unicode="&#x1039;&#x1075;" horiz-adv-x="609" 
d="M76 -197q0 90 60 149t151 59q90 0 148 -59t58 -149q0 -103 -59 -168q-28 -28 -73 -47l-38 72q35 14 54 33q37 42 37 110q0 55 -36.5 91.5t-90.5 36.5q-57 0 -94 -36.5t-37 -91.5v6h1q45 0 76.5 -31.5t31.5 -76.5t-31.5 -76.5t-76.5 -31.5q-42 0 -80 34l51 79
q15 -29 30 -29q11 0 19 7.5t8 17.5q0 11 -8 19t-23 8q-1 1 -11.5 -0.5t-25.5 3t-27.5 20t-13.5 51.5zM40 306q12 0 21 -8.5t9 -20.5q0 -13 -9 -22t-21 -9q-13 0 -21.5 9t-8.5 22q0 12 8.5 20.5t21.5 8.5zM289 547q12 0 21 -8.5t9 -22.5q0 -11 -9 -20t-21 -9q-13 0 -21.5 9
t-8.5 20q0 14 8.5 22.5t21.5 8.5zM289 59q12 0 21 -8.5t9 -20.5q0 -13 -9 -22t-21 -9q-13 0 -21.5 9t-8.5 22q0 12 8.5 20.5t21.5 8.5zM117 128q12 0 21 -8.5t9 -22.5q0 -11 -9 -20t-21 -9q-13 0 -21.5 9t-8.5 20q0 14 8.5 22.5t21.5 8.5zM59 204q14 0 23 -8.5t9 -22.5
q0 -11 -9 -21t-23 -10q-11 0 -20.5 10t-9.5 21q0 14 9.5 22.5t20.5 8.5zM191 78q14 0 23 -8.5t9 -22.5q0 -11 -9 -21t-23 -10q-11 0 -19.5 10t-8.5 21q0 14 8.5 22.5t19.5 8.5zM117 420q-13 0 -21.5 8.5t-8.5 22.5q0 11 8.5 20t21.5 9q12 0 21 -9t9 -20q0 -14 -9 -22.5
t-21 -8.5zM59 344q-11 0 -20.5 9t-9.5 22q0 11 9.5 21t20.5 10q14 0 23 -10t9 -21q0 -13 -9 -22t-23 -9zM191 470q-11 0 -19.5 8.5t-8.5 22.5q0 11 8.5 21t19.5 10q14 0 23 -10t9 -21q0 -14 -9 -22.5t-23 -8.5zM529 306q13 0 21.5 -8.5t8.5 -20.5q0 -13 -8.5 -22t-21.5 -9
q-12 0 -21 9t-9 22q0 12 9 20.5t21 8.5zM452 128q13 0 21.5 -8.5t8.5 -22.5q0 -11 -8.5 -20t-21.5 -9q-12 0 -21 9t-9 20q0 14 9 22.5t21 8.5zM510 204q11 0 20.5 -8.5t9.5 -22.5q0 -11 -9.5 -21t-20.5 -10q-14 0 -23 10t-9 21q0 14 9 22.5t23 8.5zM378 78q11 0 19.5 -8.5
t8.5 -22.5q0 -11 -8.5 -21t-19.5 -10q-14 0 -23 10t-9 21q0 14 9 22.5t23 8.5zM452 420q-12 0 -21 8.5t-9 22.5q0 11 9 20t21 9q13 0 21.5 -9t8.5 -20q0 -14 -8.5 -22.5t-21.5 -8.5zM510 344q-14 0 -23 9t-9 22q0 11 9 21t23 10q11 0 20.5 -10t9.5 -21q0 -13 -9.5 -22
t-20.5 -9zM378 470q-14 0 -23 8.5t-9 22.5q0 11 9 21t23 10q11 0 19.5 -10t8.5 -21q0 -14 -8.5 -22.5t-19.5 -8.5z" />
    <glyph glyph-name="A_HA3" unicode="&#x1081;&#x1082;" horiz-adv-x="670" 
d="M556 -288q-8 -21 -14 -33t-15 -24q-44 -64 -107 -64t-107 62q-43 61 -43 148t43 148t109 61q9 0 16 -1t24 -6l-18 -89q-19 6 -26 6q-25 0 -45 -33.5t-20 -91.5q0 -26 5.5 -47t14.5 -36.5t21 -23.5t24 -8q19 0 35 16.5t28 58.5zM424 101q62 72 62 174q0 84 -57 141
q-56 57 -141 57q-88 0 -145 -56q-58 -57 -58 -142q0 -54 14.5 -100t41.5 -77q12 -12 33 -25v210h84l-1 -627q-2 -48 -69 -64h-107q-77 7 -81 65v84h79v-64h95v310q-29 7 -52.5 22.5t-41.5 33.5q-80 86 -80 232q0 124 81 204q83 80 207 80q123 0 203 -80q79 -79 79 -204
q0 -142 -80 -231l-8 -9z" />
    <glyph glyph-name="A_HA2" unicode="&#x1081;&#x103d;" horiz-adv-x="670" 
d="M420 -409q-63 0 -107 62q-43 61 -43 148t43 148t109 61q65 0 107 -61q41 -60 41 -148q0 -84 -43 -146q-44 -64 -107 -64zM418 -80q-25 0 -45 -33.5t-20 -91.5q0 -26 5.5 -47t14.5 -36.5t21 -23.5t24 -8q26 0 45.5 31t21.5 84q0 58 -19 91.5t-48 33.5zM424 101
q62 72 62 174q0 84 -57 141q-56 57 -141 57q-88 0 -145 -56q-58 -57 -58 -142q0 -54 14.5 -100t41.5 -77q12 -12 33 -25v210h84l-1 -627q-2 -48 -69 -64h-107q-77 7 -81 65v84h79v-64h95v310q-29 7 -52.5 22.5t-41.5 33.5q-80 86 -80 232q0 124 81 204q83 80 207 80
q123 0 203 -80q79 -79 79 -204q0 -142 -80 -231l-8 -9z" />
    <glyph glyph-name="SM_NGA" unicode="&#x1039;&#x105a;" horiz-adv-x="609" 
d="M325 -261q-6 -7 -14.5 -16t-4.5 -4h-3q9 0 21.5 -0.5t31.5 -0.5q-4 -45 -23.5 -69.5t-47.5 -24.5q-29 0 -49.5 20.5t-20.5 48.5q0 29 15.5 51.5t35.5 43.5l23 27v-2q-2 -2 12.5 19t21.5 44q-2 15 -12.5 27t-26.5 12q-19 0 -30.5 -11t-11.5 -29t29 -47h8l-21 14
q3 0 3.5 -0.5t1.5 -0.5l19 -17l-20 -30q-5 -6 -8.5 -11t-13.5 -22q-23 15 -30.5 21t-10.5 9q-33 33 -33 84t33.5 83.5t84.5 32.5q50 0 82.5 -33t32.5 -83q-1 -22 -8.5 -41t-18.5 -36t-23.5 -32t-23.5 -27zM50 316q16 0 28 -11.5t12 -27.5q0 -17 -12 -29t-28 -12
q-17 0 -28.5 12t-11.5 29q0 16 11.5 27.5t28.5 11.5zM299 557q16 0 28 -11.5t12 -29.5q0 -15 -12 -27t-28 -12q-17 0 -28.5 12t-11.5 27q0 18 11.5 29.5t28.5 11.5zM299 69q16 0 28 -11.5t12 -27.5q0 -17 -12 -29t-28 -12q-17 0 -28.5 12t-11.5 29q0 16 11.5 27.5t28.5 11.5
zM127 138q16 0 28 -11.5t12 -29.5q0 -15 -12 -27t-28 -12q-17 0 -28.5 12t-11.5 27q0 18 11.5 29.5t28.5 11.5zM69 214q18 0 30 -11.5t12 -29.5q0 -15 -12 -28t-30 -13q-15 0 -27.5 13t-12.5 28q0 18 12.5 29.5t27.5 11.5zM201 88q18 0 30 -11.5t12 -29.5q0 -15 -12 -28
t-30 -13q-16 0 -27 13t-11 28q0 18 11.5 29.5t26.5 11.5zM127 410q-17 0 -28.5 11.5t-11.5 29.5q0 15 11.5 27t28.5 12q16 0 28 -12t12 -27q0 -18 -12 -29.5t-28 -11.5zM69 334q-15 0 -27.5 12t-12.5 29q0 15 12.5 28t27.5 13q18 0 30 -13t12 -28q0 -17 -12 -29t-30 -12z
M201 460q-15 0 -26.5 11.5t-11.5 29.5q0 15 11 28t27 13q18 0 30 -13t12 -28q0 -18 -12 -29.5t-30 -11.5zM539 316q17 0 28.5 -11.5t11.5 -27.5q0 -17 -11.5 -29t-28.5 -12q-16 0 -28 12t-12 29q0 16 12 27.5t28 11.5zM462 138q17 0 28.5 -11.5t11.5 -29.5q0 -15 -11.5 -27
t-28.5 -12q-16 0 -28 12t-12 27q0 18 12 29.5t28 11.5zM520 214q15 0 27.5 -11.5t12.5 -29.5q0 -15 -12.5 -28t-27.5 -13q-18 0 -30 13t-12 28q0 18 12 29.5t30 11.5zM388 88q15 0 26.5 -11.5t11.5 -29.5q0 -15 -11 -28t-27 -13q-18 0 -30 13t-12 28q0 18 12 29.5t30 11.5z
M462 410q-16 0 -28 11.5t-12 29.5q0 15 12 27t28 12q17 0 28.5 -12t11.5 -27q0 -18 -11.5 -29.5t-28.5 -11.5zM520 334q-18 0 -30 12t-12 29q0 15 12 28t30 13q15 0 27.5 -13t12.5 -28q0 -17 -12.5 -29t-27.5 -12zM388 460q-18 0 -30 11.5t-12 29.5q0 15 12 28t30 13
q16 0 27 -13t11 -28q0 -18 -11.5 -29.5t-26.5 -11.5z" />
    <glyph glyph-name="S_LA" unicode="&#x1039;&#x101c;" horiz-adv-x="764" 
d="M408 -263q8 -15 22 -29q37 -36 95 -36q55 0 91.5 37.5t36.5 92.5t-36.5 92t-91.5 37q-35 0 -71 -17l-35 72q52 25 106 25q90 0 148.5 -59t58.5 -150t-58.5 -150.5t-148.5 -59.5q-94 0 -153 58q-7 8 -15 16q-20 33 -22.5 56.5t-0.5 44.5t2 44t-12 56q-8 14 -21 27
q-36 37 -91 37q-57 0 -94.5 -36.5t-37.5 -92.5q0 -58 37 -94t95 -36q29 0 62 15l37 -73q-51 -22 -99 -22q-94 0 -153 58.5t-59 151.5q0 91 60 150t152 59q90 0 149 -59q7 -7 14 -16q20 -29 27 -58.5t7 -56t-2 -49t1 -35.5zM123 316q16 0 28 -11.5t12 -27.5q0 -17 -12 -29
t-28 -12q-17 0 -28.5 12t-11.5 29q0 16 11.5 27.5t28.5 11.5zM372 557q16 0 28 -11.5t12 -29.5q0 -15 -12 -27t-28 -12q-17 0 -28.5 12t-11.5 27q0 18 11.5 29.5t28.5 11.5zM372 69q16 0 28 -11.5t12 -27.5q0 -17 -12 -29t-28 -12q-17 0 -28.5 12t-11.5 29q0 16 11.5 27.5
t28.5 11.5zM200 138q16 0 28 -11.5t12 -29.5q0 -15 -12 -27t-28 -12q-17 0 -28.5 12t-11.5 27q0 18 11.5 29.5t28.5 11.5zM142 214q18 0 30 -11.5t12 -29.5q0 -15 -12 -28t-30 -13q-15 0 -27.5 13t-12.5 28q0 18 12.5 29.5t27.5 11.5zM274 88q18 0 30 -11.5t12 -29.5
q0 -15 -12 -28t-30 -13q-16 0 -27 13t-11 28q0 18 11.5 29.5t26.5 11.5zM200 410q-17 0 -28.5 11.5t-11.5 29.5q0 15 11.5 27t28.5 12q16 0 28 -12t12 -27q0 -18 -12 -29.5t-28 -11.5zM142 334q-15 0 -27.5 12t-12.5 29q0 15 12.5 28t27.5 13q18 0 30 -13t12 -28
q0 -17 -12 -29t-30 -12zM274 460q-15 0 -26.5 11.5t-11.5 29.5q0 15 11 28t27 13q18 0 30 -13t12 -28q0 -18 -12 -29.5t-30 -11.5zM612 316q17 0 28.5 -11.5t11.5 -27.5q0 -17 -11.5 -29t-28.5 -12q-16 0 -28 12t-12 29q0 16 12 27.5t28 11.5zM535 138q17 0 28.5 -11.5
t11.5 -29.5q0 -15 -11.5 -27t-28.5 -12q-16 0 -28 12t-12 27q0 18 12 29.5t28 11.5zM593 214q15 0 27.5 -11.5t12.5 -29.5q0 -15 -12.5 -28t-27.5 -13q-18 0 -30 13t-12 28q0 18 12 29.5t30 11.5zM461 88q15 0 26.5 -11.5t11.5 -29.5q0 -15 -11 -28t-27 -13q-18 0 -30 13
t-12 28q0 18 12 29.5t30 11.5zM535 410q-16 0 -28 11.5t-12 29.5q0 15 12 27t28 12q17 0 28.5 -12t11.5 -27q0 -18 -11.5 -29.5t-28.5 -11.5zM593 334q-18 0 -30 12t-12 29q0 15 12 28t30 13q15 0 27.5 -13t12.5 -28q0 -17 -12.5 -29t-27.5 -12zM461 460q-18 0 -30 11.5
t-12 29.5q0 15 12 28t30 13q16 0 27 -13t11 -28q0 -18 -11.5 -29.5t-26.5 -11.5z" />
    <glyph glyph-name="SM_BBA" unicode="&#x1039;&#x105c;" horiz-adv-x="609" 
d="M282 -409q-86 0 -147 61t-61 149t61 149q60 60 149 60q88 0 147 -60q58 -61 58 -149q0 -84 -61 -147q-60 -63 -146 -63zM282 -73q-56 0 -90.5 -35t-34.5 -91q0 -27 9 -49t25.5 -38.5t38.5 -25.5t49 -9q56 0 90 33t36 89q0 56 -33.5 91t-89.5 35zM184 -202q0 20 7.5 37
t20 29.5t30 20t36.5 7.5q40 0 67.5 -27.5t27.5 -66.5t-27.5 -67t-67.5 -28q-19 0 -36.5 7.5t-30 20t-20 30t-7.5 37.5zM246 -202q0 -13 9.5 -23t22.5 -10q15 0 26 10t11 23q0 14 -11 25t-26 11q-13 0 -22.5 -11t-9.5 -25zM50 316q16 0 28 -11.5t12 -27.5q0 -17 -12 -29
t-28 -12q-17 0 -28.5 12t-11.5 29q0 16 11.5 27.5t28.5 11.5zM299 557q16 0 28 -11.5t12 -29.5q0 -15 -12 -27t-28 -12q-17 0 -28.5 12t-11.5 27q0 18 11.5 29.5t28.5 11.5zM299 69q16 0 28 -11.5t12 -27.5q0 -17 -12 -29t-28 -12q-17 0 -28.5 12t-11.5 29q0 16 11.5 27.5
t28.5 11.5zM127 138q16 0 28 -11.5t12 -29.5q0 -15 -12 -27t-28 -12q-17 0 -28.5 12t-11.5 27q0 18 11.5 29.5t28.5 11.5zM69 214q18 0 30 -11.5t12 -29.5q0 -15 -12 -28t-30 -13q-15 0 -27.5 13t-12.5 28q0 18 12.5 29.5t27.5 11.5zM201 88q18 0 30 -11.5t12 -29.5
q0 -15 -12 -28t-30 -13q-16 0 -27 13t-11 28q0 18 11.5 29.5t26.5 11.5zM127 410q-17 0 -28.5 11.5t-11.5 29.5q0 15 11.5 27t28.5 12q16 0 28 -12t12 -27q0 -18 -12 -29.5t-28 -11.5zM69 334q-15 0 -27.5 12t-12.5 29q0 15 12.5 28t27.5 13q18 0 30 -13t12 -28
q0 -17 -12 -29t-30 -12zM201 460q-15 0 -26.5 11.5t-11.5 29.5q0 15 11 28t27 13q18 0 30 -13t12 -28q0 -18 -12 -29.5t-30 -11.5zM539 316q17 0 28.5 -11.5t11.5 -27.5q0 -17 -11.5 -29t-28.5 -12q-16 0 -28 12t-12 29q0 16 12 27.5t28 11.5zM462 138q17 0 28.5 -11.5
t11.5 -29.5q0 -15 -11.5 -27t-28.5 -12q-16 0 -28 12t-12 27q0 18 12 29.5t28 11.5zM520 214q15 0 27.5 -11.5t12.5 -29.5q0 -15 -12.5 -28t-27.5 -13q-18 0 -30 13t-12 28q0 18 12 29.5t30 11.5zM388 88q15 0 26.5 -11.5t11.5 -29.5q0 -15 -11 -28t-27 -13q-18 0 -30 13
t-12 28q0 18 12 29.5t30 11.5zM462 410q-16 0 -28 11.5t-12 29.5q0 15 12 27t28 12q17 0 28.5 -12t11.5 -27q0 -18 -11.5 -29.5t-28.5 -11.5zM520 334q-18 0 -30 12t-12 29q0 15 12 28t30 13q15 0 27.5 -13t12.5 -28q0 -17 -12.5 -29t-27.5 -12zM388 460q-18 0 -30 11.5
t-12 29.5q0 15 12 28t30 13q16 0 27 -13t11 -28q0 -18 -11.5 -29.5t-26.5 -11.5z" />
    <glyph glyph-name="A_DDHA_DDA" unicode="&#x100e;&#x1039;&#x100d;" horiz-adv-x="670" 
d="M0 270q1 35 10.5 53.5t24 27.5t29 9.5t24.5 0.5q7 0 9.5 -0.5t6.5 1.5q23 1 37.5 16.5t14.5 36.5q0 22 -15.5 36.5t-37.5 14.5t-45 -26l-52 80q25 20 47 28.5t48 8.5q29 0 55 -11t45 -30t30.5 -44.5t11.5 -54.5t-11.5 -55t-30.5 -45t-45 -30.5t-55 -11.5h-10l-6 1v-6
q0 -87 58 -142q15 -16 33 -27v71l52 22q10 -24 17 -29q14 -15 35 -15q20 0 34.5 14t14.5 35t-14.5 35.5t-34.5 14.5q-19 0 -35 -15q-7 -8 -17 -31l-57 25q16 36 29 49q31 32 80 32q48 0 78.5 -31t30.5 -79t-29 -78.5t-71.5 -30.5t-53.5 6l-4 -18q27 -7 57 -7q84 0 141 57
t57 142q0 103 -57 168q-13 11 -27.5 22t-40.5 23l42 77q52 -24 87 -59q80 -91 80 -231q0 -125 -79 -204q-46 -46 -105 -66v-335h39v-60h-55q-21 -1 -35 9.5t-14 31.5v342q-16 -2 -33 -2q-124 0 -207 80q-81 79 -81 204z" />
    <glyph glyph-name="A_HA1" unicode="&#x1081;&#x1030;" horiz-adv-x="720" 
d="M620 -408h-137q-65 16 -69 63l-1 368h84v-345h123v-86zM298 -408l-1 431h83v-431h-82zM424 101q62 72 62 174q0 84 -57 141q-56 57 -141 57q-88 0 -145 -56q-58 -57 -58 -142q0 -54 14.5 -100t41.5 -77q12 -12 33 -25v210h84l-1 -627q-2 -48 -69 -64h-107q-77 7 -81 65
v84h79v-64h95v310q-29 7 -52.5 22.5t-41.5 33.5q-80 86 -80 232q0 124 81 204q83 80 207 80q123 0 203 -80q79 -79 79 -204q0 -142 -80 -231l-8 -9z" />
    <glyph glyph-name="SS_PHA" unicode="&#x1039;&#x107d;" horiz-adv-x="764" 
d="M686 -204q19 -17 27 -33t7 -32v-5l2 -1l-4 -8q-2 -8 -6 -16q-8 -13 -18 -26q-9 -12 -19 -23q-59 -58 -152 -58q-87 0 -145 57l-1 -1q-58 -58 -149 -58q-90 0 -150 58.5t-60 148.5q1 36 13.5 51.5t27.5 20t25 3.5t12 0q15 0 23 7.5t8 18.5q0 10 -8 17.5t-19 7.5
q-15 0 -30 -29l-51 79q38 34 80 34q45 0 76.5 -31.5t31.5 -76.5t-31.5 -76.5t-76.5 -31.5h-1q2 -51 37 -85q37 -36 93 -36q55 0 91 36q4 4 12 14q-14 37 -14 81q0 91 58 149.5t148 58.5q91 0 151 -59q29 -29 49 -75l-75 -32q-14 31 -31 50q-37 36 -94 36q-55 0 -91.5 -36.5
t-36.5 -90.5q58 51 143 51q90 0 148 -59zM431 -288q37 -37 92 -37q57 0 94 35q9 10 17 23q-2 3 -6 7q-35 35 -90 35q-57 0 -93 -36q-10 -9 -18 -23zM139 204q14 0 23 -8.5t9 -22.5q0 -11 -9 -21t-23 -10q-11 0 -20.5 10t-9.5 21q0 14 9.5 22.5t20.5 8.5zM590 204
q11 0 20.5 -8.5t9.5 -22.5q0 -11 -9.5 -21t-20.5 -10q-14 0 -23 10t-9 21q0 14 9 22.5t23 8.5zM139 344q-11 0 -20.5 9t-9.5 22q0 11 9.5 21t20.5 10q14 0 23 -10t9 -21q0 -13 -9 -22t-23 -9zM590 344q-14 0 -23 9t-9 22q0 11 9 21t23 10q11 0 20.5 -10t9.5 -21
q0 -13 -9.5 -22t-20.5 -9zM271 78q14 0 23 -8.5t9 -22.5q0 -11 -9 -21t-23 -10q-11 0 -19.5 10t-8.5 21q0 14 8.5 22.5t19.5 8.5zM271 470q-11 0 -19.5 8.5t-8.5 22.5q0 11 8.5 21t19.5 10q14 0 23 -10t9 -21q0 -14 -9 -22.5t-23 -8.5zM458 78q11 0 19.5 -8.5t8.5 -22.5
q0 -11 -8.5 -21t-19.5 -10q-14 0 -23 10t-9 21q0 14 9 22.5t23 8.5zM458 470q-14 0 -23 8.5t-9 22.5q0 11 9 21t23 10q11 0 19.5 -10t8.5 -21q0 -14 -8.5 -22.5t-19.5 -8.5zM197 420q-13 0 -21.5 8.5t-8.5 22.5q0 11 8.5 20t21.5 9q12 0 21 -9t9 -20q0 -14 -9 -22.5
t-21 -8.5zM532 420q-12 0 -21 8.5t-9 22.5q0 11 9 20t21 9q13 0 21.5 -9t8.5 -20q0 -14 -8.5 -22.5t-21.5 -8.5zM369 59q12 0 21 -8.5t9 -20.5q0 -13 -9 -22t-21 -9q-13 0 -21.5 9t-8.5 22q0 12 8.5 20.5t21.5 8.5zM120 306q12 0 21 -8.5t9 -20.5q0 -13 -9 -22t-21 -9
q-13 0 -21.5 9t-8.5 22q0 12 8.5 20.5t21.5 8.5zM197 128q12 0 21 -8.5t9 -22.5q0 -11 -9 -20t-21 -9q-13 0 -21.5 9t-8.5 20q0 14 8.5 22.5t21.5 8.5zM369 547q12 0 21 -8.5t9 -22.5q0 -11 -9 -20t-21 -9q-13 0 -21.5 9t-8.5 20q0 14 8.5 22.5t21.5 8.5zM532 128
q13 0 21.5 -8.5t8.5 -22.5q0 -11 -8.5 -20t-21.5 -9q-12 0 -21 9t-9 20q0 14 9 22.5t21 8.5zM609 306q13 0 21.5 -8.5t8.5 -20.5q0 -13 -8.5 -22t-21.5 -9q-12 0 -21 9t-9 22q0 12 9 20.5t21 8.5z" />
    <glyph glyph-name="SS_NA" unicode="&#x1039;&#x107c;" horiz-adv-x="764" 
d="M368 -170h-9v8q9 67 49 116q66 57 126 57q107 1 174 -93l-68 -38q-38 54 -106 51q-44 0 -70 -36t-24 -65q26 0 58.5 1.5t60.5 0t53 -7t43.5 -17.5t30.5 -32.5t17 -52.5q-3 -61 -46.5 -92t-125.5 -39q-38 2 -65.5 11.5t-46.5 24.5t-30.5 34t-18 38t-9 38t-3.5 24h10
q0 -5 -2.5 -24t-9 -38t-18 -38t-30.5 -34t-46 -24.5t-66 -11.5q-83 8 -126 39t-45 92q2 40 23 63t57.5 33t85 11.5t95.5 0.5q3 29 -22.5 65t-70.5 36q-68 3 -106 -51l-69 38q69 94 175 93q59 0 128 -55q37 -51 47 -118v-8zM284 -238q-35 2 -71 -1t-60.5 -9.5t-33.5 -14
t-7 -13.5q1 -13 7 -22.5t15.5 -15.5t24.5 -9.5t37 -3.5q19 -1 33.5 3t25.5 15t19 30.5t10 40.5zM443 -238q2 -21 10 -40.5t19 -30.5t26 -15t33 -3q22 0 37 3.5t24.5 9.5t15 15t7.5 23q2 8 -8 16.5t-33.5 14t-59 7.5t-71.5 0zM120 306q12 0 21 -8.5t9 -20.5q0 -13 -9 -22
t-21 -9q-13 0 -21.5 9t-8.5 22q0 12 8.5 20.5t21.5 8.5zM369 547q12 0 21 -8.5t9 -22.5q0 -11 -9 -20t-21 -9q-13 0 -21.5 9t-8.5 20q0 14 8.5 22.5t21.5 8.5zM369 59q12 0 21 -8.5t9 -20.5q0 -13 -9 -22t-21 -9q-13 0 -21.5 9t-8.5 22q0 12 8.5 20.5t21.5 8.5zM197 128
q12 0 21 -8.5t9 -22.5q0 -11 -9 -20t-21 -9q-13 0 -21.5 9t-8.5 20q0 14 8.5 22.5t21.5 8.5zM139 204q14 0 23 -8.5t9 -22.5q0 -11 -9 -21t-23 -10q-11 0 -20.5 10t-9.5 21q0 14 9.5 22.5t20.5 8.5zM271 78q14 0 23 -8.5t9 -22.5q0 -11 -9 -21t-23 -10q-11 0 -19.5 10
t-8.5 21q0 14 8.5 22.5t19.5 8.5zM197 420q-13 0 -21.5 8.5t-8.5 22.5q0 11 8.5 20t21.5 9q12 0 21 -9t9 -20q0 -14 -9 -22.5t-21 -8.5zM139 344q-11 0 -20.5 9t-9.5 22q0 11 9.5 21t20.5 10q14 0 23 -10t9 -21q0 -13 -9 -22t-23 -9zM271 470q-11 0 -19.5 8.5t-8.5 22.5
q0 11 8.5 21t19.5 10q14 0 23 -10t9 -21q0 -14 -9 -22.5t-23 -8.5zM609 306q13 0 21.5 -8.5t8.5 -20.5q0 -13 -8.5 -22t-21.5 -9q-12 0 -21 9t-9 22q0 12 9 20.5t21 8.5zM532 128q13 0 21.5 -8.5t8.5 -22.5q0 -11 -8.5 -20t-21.5 -9q-12 0 -21 9t-9 20q0 14 9 22.5t21 8.5z
M590 204q11 0 20.5 -8.5t9.5 -22.5q0 -11 -9.5 -21t-20.5 -10q-14 0 -23 10t-9 21q0 14 9 22.5t23 8.5zM458 78q11 0 19.5 -8.5t8.5 -22.5q0 -11 -8.5 -21t-19.5 -10q-14 0 -23 10t-9 21q0 14 9 22.5t23 8.5zM532 420q-12 0 -21 8.5t-9 22.5q0 11 9 20t21 9q13 0 21.5 -9
t8.5 -20q0 -14 -8.5 -22.5t-21.5 -8.5zM590 344q-14 0 -23 9t-9 22q0 11 9 21t23 10q11 0 20.5 -10t9.5 -21q0 -13 -9.5 -22t-20.5 -9zM458 470q-14 0 -23 8.5t-9 22.5q0 11 9 21t23 10q11 0 19.5 -10t8.5 -21q0 -14 -8.5 -22.5t-19.5 -8.5z" />
    <glyph glyph-name="M_HA_I_U" unicode="&#x103e;&#x102d;&#x102f;" 
d="M-604 -322h122v345h84l-1 -369q-2 -46 -69 -62h-136v86zM-146 -408h-137q-66 16 -68 62l-1 369h83v-345h123v-86zM-370 538q-88 0 -150 62q-60 60 -60 151q0 88 61 149q62 62 151 62t148 -62q59 -61 59 -149q0 -86 -61 -150q-62 -63 -148 -63zM-370 878q-57 0 -91.5 -35
t-34.5 -92q0 -27 9.5 -50.5t25.5 -40.5t38.5 -26.5t49.5 -9.5q56 0 90.5 35t36.5 92q0 56 -34 91.5t-90 35.5z" />
    <glyph glyph-name="S_TTHA" unicode="&#x1039;&#x100c;" horiz-adv-x="705" 
d="M1 -82q13 59 54 65h57q47 -2 63 -35t15 -88h-78q3 23 1.5 32t-3.5 9h-22q0 -52 1 -109.5t1 -109.5h203q-25 36 -25 104q0 84 56 142q58 55 145 55t143 -55q56 -58 56 -142q0 -87 -56 -146q-30 -28 -78 -48l-33 82q23 8 32 14.5t17 13.5q32 32 32 84q0 24 -8.5 44
t-23.5 35.5t-36 24t-45 8.5q-25 0 -46 -8.5t-36 -24t-23.5 -35.5t-8.5 -44q0 -52 15 -67v1q23 -22 32 -29t13 -9h26l-23 -49l-16 -37h-349q-54 0 -52 71v251zM40 306q12 0 21 -8.5t9 -20.5q0 -13 -9 -22t-21 -9q-13 0 -21.5 9t-8.5 22q0 12 8.5 20.5t21.5 8.5zM289 547
q12 0 21 -8.5t9 -22.5q0 -11 -9 -20t-21 -9q-13 0 -21.5 9t-8.5 20q0 14 8.5 22.5t21.5 8.5zM289 59q12 0 21 -8.5t9 -20.5q0 -13 -9 -22t-21 -9q-13 0 -21.5 9t-8.5 22q0 12 8.5 20.5t21.5 8.5zM117 128q12 0 21 -8.5t9 -22.5q0 -11 -9 -20t-21 -9q-13 0 -21.5 9t-8.5 20
q0 14 8.5 22.5t21.5 8.5zM59 204q14 0 23 -8.5t9 -22.5q0 -11 -9 -21t-23 -10q-11 0 -20.5 10t-9.5 21q0 14 9.5 22.5t20.5 8.5zM191 78q14 0 23 -8.5t9 -22.5q0 -11 -9 -21t-23 -10q-11 0 -19.5 10t-8.5 21q0 14 8.5 22.5t19.5 8.5zM117 420q-13 0 -21.5 8.5t-8.5 22.5
q0 11 8.5 20t21.5 9q12 0 21 -9t9 -20q0 -14 -9 -22.5t-21 -8.5zM59 344q-11 0 -20.5 9t-9.5 22q0 11 9.5 21t20.5 10q14 0 23 -10t9 -21q0 -13 -9 -22t-23 -9zM191 470q-11 0 -19.5 8.5t-8.5 22.5q0 11 8.5 21t19.5 10q14 0 23 -10t9 -21q0 -14 -9 -22.5t-23 -8.5zM529 306
q13 0 21.5 -8.5t8.5 -20.5q0 -13 -8.5 -22t-21.5 -9q-12 0 -21 9t-9 22q0 12 9 20.5t21 8.5zM452 128q13 0 21.5 -8.5t8.5 -22.5q0 -11 -8.5 -20t-21.5 -9q-12 0 -21 9t-9 20q0 14 9 22.5t21 8.5zM510 204q11 0 20.5 -8.5t9.5 -22.5q0 -11 -9.5 -21t-20.5 -10q-14 0 -23 10
t-9 21q0 14 9 22.5t23 8.5zM378 78q11 0 19.5 -8.5t8.5 -22.5q0 -11 -8.5 -21t-19.5 -10q-14 0 -23 10t-9 21q0 14 9 22.5t23 8.5zM452 420q-12 0 -21 8.5t-9 22.5q0 11 9 20t21 9q13 0 21.5 -9t8.5 -20q0 -14 -8.5 -22.5t-21.5 -8.5zM510 344q-14 0 -23 9t-9 22q0 11 9 21
t23 10q11 0 20.5 -10t9.5 -21q0 -13 -9.5 -22t-20.5 -9zM378 470q-14 0 -23 8.5t-9 22.5q0 11 9 21t23 10q11 0 19.5 -10t8.5 -21q0 -14 -8.5 -22.5t-19.5 -8.5z" />
    <glyph glyph-name="LLA_LLA" unicode="&#x1020;&#x1039;&#x1020;" horiz-adv-x="650" 
d="M417 -224l-17 -11v-33h48v-52h22v60q-2 17 -13 23.5t-40 5.5v80l7 -5h6q-8 4 -13 7v6q65 1 97.5 -31.5t34.5 -86.5v-82q-2 -25 -23.5 -41t-56.5 -24h-355q-86 -3 -86 58v320q24 12 39.5 26.5t41.5 27.5q49 -28 94 -41.5t86 -13.5q47 0 93 15t88 41v26q-76 -61 -188 -61
q-123 0 -203 80q-79 80 -79 206q0 125 79 204q80 80 203 80q124 0 207 -80q19 -18 33.5 -38t27.5 -52q-27 -12 -40.5 -18.5t-39.5 -15.5q-12 23 -21 36t-22 26q-56 56 -145 56q-85 0 -142 -57q-56 -58 -56 -141q0 -82 56 -143q57 -57 142 -57q90 0 146 55q10 10 20.5 25
t22.5 37l40.5 -19l37.5 -18v-183l-43 -22h8q-89 -39 -136 -52q-19 -6 -39 -9q19 -6 36 -15l33 -21q-21 8 -3 -12l-70 -23q-16 13 -25.5 16t-32.5 3q-63 0 -63 -28q0 -24 58 -24q24 0 37 5.5t28 19.5l59 -26h4v-1zM197 -103q-45 12 -83 32v-246l212 -2v49q-25 -7 -52 -7
q-54 0 -99 23q-22 12 -34.5 28.5t-12.5 35.5q0 20 13.5 36.5t33.5 28.5q21 11 44 17q-10 2 -22 5zM408 -146l9 -5v2q-5 2 -9 3z" />
    <glyph glyph-name="M_YA1" unicode="&#x103b;&#x103d;" horiz-adv-x="853" 
d="M40 306q12 0 21 -8.5t9 -20.5q0 -13 -9 -22t-21 -9q-13 0 -21.5 9t-8.5 22q0 12 8.5 20.5t21.5 8.5zM289 547q12 0 21 -8.5t9 -22.5q0 -11 -9 -20t-21 -9q-13 0 -21.5 9t-8.5 20q0 14 8.5 22.5t21.5 8.5zM289 59q12 0 21 -8.5t9 -20.5q0 -13 -9 -22t-21 -9q-13 0 -21.5 9
t-8.5 22q0 12 8.5 20.5t21.5 8.5zM117 128q12 0 21 -8.5t9 -22.5q0 -11 -9 -20t-21 -9q-13 0 -21.5 9t-8.5 20q0 14 8.5 22.5t21.5 8.5zM59 204q14 0 23 -8.5t9 -22.5q0 -11 -9 -21t-23 -10q-11 0 -20.5 10t-9.5 21q0 14 9.5 22.5t20.5 8.5zM191 78q14 0 23 -8.5t9 -22.5
q0 -11 -9 -21t-23 -10q-11 0 -19.5 10t-8.5 21q0 14 8.5 22.5t19.5 8.5zM117 420q-13 0 -21.5 8.5t-8.5 22.5q0 11 8.5 20t21.5 9q12 0 21 -9t9 -20q0 -14 -9 -22.5t-21 -8.5zM59 344q-11 0 -20.5 9t-9.5 22q0 11 9.5 21t20.5 10q14 0 23 -10t9 -21q0 -13 -9 -22t-23 -9z
M191 470q-11 0 -19.5 8.5t-8.5 22.5q0 11 8.5 21t19.5 10q14 0 23 -10t9 -21q0 -14 -9 -22.5t-23 -8.5zM529 306q13 0 21.5 -8.5t8.5 -20.5q0 -13 -8.5 -22t-21.5 -9q-12 0 -21 9t-9 22q0 12 9 20.5t21 8.5zM452 128q13 0 21.5 -8.5t8.5 -22.5q0 -11 -8.5 -20t-21.5 -9
q-12 0 -21 9t-9 20q0 14 9 22.5t21 8.5zM510 204q11 0 20.5 -8.5t9.5 -22.5q0 -11 -9.5 -21t-20.5 -10q-14 0 -23 10t-9 21q0 14 9 22.5t23 8.5zM378 78q11 0 19.5 -8.5t8.5 -22.5q0 -11 -8.5 -21t-19.5 -10q-14 0 -23 10t-9 21q0 14 9 22.5t23 8.5zM452 420q-12 0 -21 8.5
t-9 22.5q0 11 9 20t21 9q13 0 21.5 -9t8.5 -20q0 -14 -8.5 -22.5t-21.5 -8.5zM510 344q-14 0 -23 9t-9 22q0 11 9 21t23 10q11 0 20.5 -10t9.5 -21q0 -13 -9.5 -22t-20.5 -9zM378 470q-14 0 -23 8.5t-9 22.5q0 11 9 21t23 10q11 0 19.5 -10t8.5 -21q0 -14 -8.5 -22.5
t-19.5 -8.5zM445 -231l225 -69v859h83v-970l-341 103zM288 -409q-86 0 -147 61t-61 149t61 149q60 60 149 60q88 0 147 -60q58 -61 58 -149q0 -84 -61 -147q-60 -63 -146 -63zM288 -73q-56 0 -90.5 -35t-34.5 -91q0 -27 9 -49t25.5 -38.5t38.5 -25.5t49 -9q56 0 90 33t36 89
q0 56 -33.5 91t-89.5 35z" />
    <glyph glyph-name="M_YA2" unicode="&#x103b;&#x103e;" horiz-adv-x="853" 
d="M21 -159l97 -73l202 269v26h83v-301l267 -82v879h83v-966h-81l-352 107v199l-39 -52l-111 -148q-14 -18 -38.5 -19.5t-53.5 10.5l-51 38.5l-58 44.5zM40 306q12 0 21 -8.5t9 -20.5q0 -13 -9 -22t-21 -9q-13 0 -21.5 9t-8.5 22q0 12 8.5 20.5t21.5 8.5zM289 547
q12 0 21 -8.5t9 -22.5q0 -11 -9 -20t-21 -9q-13 0 -21.5 9t-8.5 20q0 14 8.5 22.5t21.5 8.5zM289 59q12 0 21 -8.5t9 -20.5q0 -13 -9 -22t-21 -9q-13 0 -21.5 9t-8.5 22q0 12 8.5 20.5t21.5 8.5zM117 128q12 0 21 -8.5t9 -22.5q0 -11 -9 -20t-21 -9q-13 0 -21.5 9t-8.5 20
q0 14 8.5 22.5t21.5 8.5zM59 204q14 0 23 -8.5t9 -22.5q0 -11 -9 -21t-23 -10q-11 0 -20.5 10t-9.5 21q0 14 9.5 22.5t20.5 8.5zM191 78q14 0 23 -8.5t9 -22.5q0 -11 -9 -21t-23 -10q-11 0 -19.5 10t-8.5 21q0 14 8.5 22.5t19.5 8.5zM117 420q-13 0 -21.5 8.5t-8.5 22.5
q0 11 8.5 20t21.5 9q12 0 21 -9t9 -20q0 -14 -9 -22.5t-21 -8.5zM59 344q-11 0 -20.5 9t-9.5 22q0 11 9.5 21t20.5 10q14 0 23 -10t9 -21q0 -13 -9 -22t-23 -9zM191 470q-11 0 -19.5 8.5t-8.5 22.5q0 11 8.5 21t19.5 10q14 0 23 -10t9 -21q0 -14 -9 -22.5t-23 -8.5zM529 306
q13 0 21.5 -8.5t8.5 -20.5q0 -13 -8.5 -22t-21.5 -9q-12 0 -21 9t-9 22q0 12 9 20.5t21 8.5zM452 128q13 0 21.5 -8.5t8.5 -22.5q0 -11 -8.5 -20t-21.5 -9q-12 0 -21 9t-9 20q0 14 9 22.5t21 8.5zM510 204q11 0 20.5 -8.5t9.5 -22.5q0 -11 -9.5 -21t-20.5 -10q-14 0 -23 10
t-9 21q0 14 9 22.5t23 8.5zM378 78q11 0 19.5 -8.5t8.5 -22.5q0 -11 -8.5 -21t-19.5 -10q-14 0 -23 10t-9 21q0 14 9 22.5t23 8.5zM452 420q-12 0 -21 8.5t-9 22.5q0 11 9 20t21 9q13 0 21.5 -9t8.5 -20q0 -14 -8.5 -22.5t-21.5 -8.5zM510 344q-14 0 -23 9t-9 22q0 11 9 21
t23 10q11 0 20.5 -10t9.5 -21q0 -13 -9.5 -22t-20.5 -9zM378 470q-14 0 -23 8.5t-9 22.5q0 11 9 21t23 10q11 0 19.5 -10t8.5 -21q0 -14 -8.5 -22.5t-19.5 -8.5z" />
    <glyph glyph-name="M_YA3" unicode="&#x103b;&#x103d;&#x103e;" horiz-adv-x="853" 
d="M40 306q12 0 21 -8.5t9 -20.5q0 -13 -9 -22t-21 -9q-13 0 -21.5 9t-8.5 22q0 12 8.5 20.5t21.5 8.5zM289 547q12 0 21 -8.5t9 -22.5q0 -11 -9 -20t-21 -9q-13 0 -21.5 9t-8.5 20q0 14 8.5 22.5t21.5 8.5zM289 59q12 0 21 -8.5t9 -20.5q0 -13 -9 -22t-21 -9q-13 0 -21.5 9
t-8.5 22q0 12 8.5 20.5t21.5 8.5zM117 128q12 0 21 -8.5t9 -22.5q0 -11 -9 -20t-21 -9q-13 0 -21.5 9t-8.5 20q0 14 8.5 22.5t21.5 8.5zM59 204q14 0 23 -8.5t9 -22.5q0 -11 -9 -21t-23 -10q-11 0 -20.5 10t-9.5 21q0 14 9.5 22.5t20.5 8.5zM191 78q14 0 23 -8.5t9 -22.5
q0 -11 -9 -21t-23 -10q-11 0 -19.5 10t-8.5 21q0 14 8.5 22.5t19.5 8.5zM117 420q-13 0 -21.5 8.5t-8.5 22.5q0 11 8.5 20t21.5 9q12 0 21 -9t9 -20q0 -14 -9 -22.5t-21 -8.5zM59 344q-11 0 -20.5 9t-9.5 22q0 11 9.5 21t20.5 10q14 0 23 -10t9 -21q0 -13 -9 -22t-23 -9z
M191 470q-11 0 -19.5 8.5t-8.5 22.5q0 11 8.5 21t19.5 10q14 0 23 -10t9 -21q0 -14 -9 -22.5t-23 -8.5zM529 306q13 0 21.5 -8.5t8.5 -20.5q0 -13 -8.5 -22t-21.5 -9q-12 0 -21 9t-9 22q0 12 9 20.5t21 8.5zM452 128q13 0 21.5 -8.5t8.5 -22.5q0 -11 -8.5 -20t-21.5 -9
q-12 0 -21 9t-9 20q0 14 9 22.5t21 8.5zM510 204q11 0 20.5 -8.5t9.5 -22.5q0 -11 -9.5 -21t-20.5 -10q-14 0 -23 10t-9 21q0 14 9 22.5t23 8.5zM378 78q11 0 19.5 -8.5t8.5 -22.5q0 -11 -8.5 -21t-19.5 -10q-14 0 -23 10t-9 21q0 14 9 22.5t23 8.5zM452 420q-12 0 -21 8.5
t-9 22.5q0 11 9 20t21 9q13 0 21.5 -9t8.5 -20q0 -14 -8.5 -22.5t-21.5 -8.5zM510 344q-14 0 -23 9t-9 22q0 11 9 21t23 10q11 0 20.5 -10t9.5 -21q0 -13 -9.5 -22t-20.5 -9zM378 470q-14 0 -23 8.5t-9 22.5q0 11 9 21t23 10q11 0 19.5 -10t8.5 -21q0 -14 -8.5 -22.5
t-19.5 -8.5zM288 -409q-86 0 -147 61q-35 35 -50 79l-8 -10q-14 -18 -38.5 -19.5t-53.5 10.5l-51 38.5l-58 44.5l52 68l97 -73l59 79q15 45 51 81q60 60 149 60q88 0 147 -60q58 -61 58 -149q0 -24 -5 -46l180 -55v859h83v-970l-298 90q-10 -13 -21 -25q-60 -63 -146 -63z
M289 -73q-56 0 -90.5 -35t-34.5 -91q0 -27 9 -49t25.5 -38.5t38.5 -25.5t49 -9q56 0 90 33t36 89q0 56 -33.5 91t-89.5 35z" />
    <glyph glyph-name="M_WA1" unicode="&#x103d;&#x103e;" horiz-adv-x="588" 
d="M289 -409q-86 0 -147 61q-7 7 -13 14l-40 -54q-14 -18 -38.5 -19.5t-53.5 10.5l-51 38.5l-58 44.5l52 68l97 -73l50 67q-6 25 -6 53q0 88 61 149q60 60 149 60q88 0 147 -60q58 -61 58 -149q0 -84 -61 -147q-60 -63 -146 -63zM289 -73q-56 0 -90.5 -35t-34.5 -91v-13
l15 -48q8 -15 19 -26q17 -17 39 -26t49 -9q56 0 90 33t36 89q0 56 -33.5 91t-89.5 35zM40 306q12 0 21 -8.5t9 -20.5q0 -13 -9 -22t-21 -9q-13 0 -21.5 9t-8.5 22q0 12 8.5 20.5t21.5 8.5zM289 547q12 0 21 -8.5t9 -22.5q0 -11 -9 -20t-21 -9q-13 0 -21.5 9t-8.5 20
q0 14 8.5 22.5t21.5 8.5zM289 59q12 0 21 -8.5t9 -20.5q0 -13 -9 -22t-21 -9q-13 0 -21.5 9t-8.5 22q0 12 8.5 20.5t21.5 8.5zM117 128q12 0 21 -8.5t9 -22.5q0 -11 -9 -20t-21 -9q-13 0 -21.5 9t-8.5 20q0 14 8.5 22.5t21.5 8.5zM59 204q14 0 23 -8.5t9 -22.5q0 -11 -9 -21
t-23 -10q-11 0 -20.5 10t-9.5 21q0 14 9.5 22.5t20.5 8.5zM191 78q14 0 23 -8.5t9 -22.5q0 -11 -9 -21t-23 -10q-11 0 -19.5 10t-8.5 21q0 14 8.5 22.5t19.5 8.5zM117 420q-13 0 -21.5 8.5t-8.5 22.5q0 11 8.5 20t21.5 9q12 0 21 -9t9 -20q0 -14 -9 -22.5t-21 -8.5zM59 344
q-11 0 -20.5 9t-9.5 22q0 11 9.5 21t20.5 10q14 0 23 -10t9 -21q0 -13 -9 -22t-23 -9zM191 470q-11 0 -19.5 8.5t-8.5 22.5q0 11 8.5 21t19.5 10q14 0 23 -10t9 -21q0 -14 -9 -22.5t-23 -8.5zM529 306q13 0 21.5 -8.5t8.5 -20.5q0 -13 -8.5 -22t-21.5 -9q-12 0 -21 9t-9 22
q0 12 9 20.5t21 8.5zM452 128q13 0 21.5 -8.5t8.5 -22.5q0 -11 -8.5 -20t-21.5 -9q-12 0 -21 9t-9 20q0 14 9 22.5t21 8.5zM510 204q11 0 20.5 -8.5t9.5 -22.5q0 -11 -9.5 -21t-20.5 -10q-14 0 -23 10t-9 21q0 14 9 22.5t23 8.5zM378 78q11 0 19.5 -8.5t8.5 -22.5
q0 -11 -8.5 -21t-19.5 -10q-14 0 -23 10t-9 21q0 14 9 22.5t23 8.5zM452 420q-12 0 -21 8.5t-9 22.5q0 11 9 20t21 9q13 0 21.5 -9t8.5 -20q0 -14 -8.5 -22.5t-21.5 -8.5zM510 344q-14 0 -23 9t-9 22q0 11 9 21t23 10q11 0 20.5 -10t9.5 -21q0 -13 -9.5 -22t-20.5 -9z
M378 470q-14 0 -23 8.5t-9 22.5q0 11 9 21t23 10q11 0 19.5 -10t8.5 -21q0 -14 -8.5 -22.5t-19.5 -8.5z" />
    <glyph glyph-name="A_DDA_DDA" unicode="&#x100d;&#x1039;&#x100d;" horiz-adv-x="650" 
d="M225 -286q-19 4 -23 6v-2q11 -3 28 -6q13 -2 27 -3q-18 1 -32 5zM328 -350q-6 -2 -23.5 -3.5t-35.5 -1.5q-47 0 -81 10v-1l-62 16v117l66 14q12 -14 24 -19q22 -12 53 -12t50.5 10.5t19.5 23.5q0 11 -19.5 22t-50.5 11q-29 0 -53 -12q-6 -3 -11 -6.5t-13 -14.5l-78 18
q28 33 46 44q29 15 70 20q-30 4 -59 12q-46 14 -135 53h8l-43 22v183l79 36q12 -25 20.5 -36t21.5 -25q56 -55 146 -55q85 0 141 57q57 58 57 143q0 84 -57 141q-56 57 -141 57q-88 0 -145 -56q-13 -13 -22 -26t-21 -37q-27 11 -40.5 17.5t-39.5 17.5q13 31 28.5 52t32.5 38
q83 80 207 80q123 0 203 -80q79 -79 79 -204q0 -124 -80 -206q-80 -80 -202 -80q-111 0 -188 61v-26q42 -26 88 -41t93 -15q42 0 86.5 13.5t93.5 41.5q26 -13 41.5 -27.5t39.5 -26.5v-303h64v-75h-63q-83 -1 -81 75v265q-40 -21 -86 -34q-27 -8 -52 -11q41 -5 71 -22
q43 -23 43 -61q0 -20 -12 -37t-32 -30q-13 -8 -27 -14l58 2v-64h30v-69h-50q-57 -1 -57 34v24z" />
    <glyph glyph-name="A_NNA_DDA" unicode="&#x100f;&#x1039;&#x100d;" horiz-adv-x="1258" 
d="M691 48q-18 -28 -48.5 -43.5t-66.5 -15.5q-34 0 -64.5 15.5t-30.5 16.5v-5q-56 91 -21 179v-18l-9 -14l19.5 36t11.5 34q2 9 3 20.5t1 22.5t-1 21t-3 20q-2 18 -12.5 42t-32.5 50q-3 1 -5 3.5t-3 4.5q-57 57 -141 57q-88 0 -145 -56q-58 -57 -58 -142q0 -88 57 -145
q56 -55 146 -55q19 0 36 2.5t43 11.5l10.5 -45l9.5 -41q-52 -14 -99 -14q-129 0 -208 79q-80 80 -80 207q0 124 81 204q83 80 207 80q103 0 175 -56q15 22 46.5 40t66.5 18q37 0 69 -20t48 -42q73 60 183 60q123 0 203 -80q79 -79 79 -204q0 -124 -80 -206q-80 -80 -202 -80
q-27 0 -49.5 2.5t-55.5 12.5l9.5 42l10.5 43q28 -10 45.5 -12t39.5 -2q87 0 141 57q58 58 58 143q0 84 -58 141q-54 57 -141 57q-86 0 -145 -56l-15 -17q-13 -18 -22.5 -39.5t-16.5 -42.5q-3 -17 -3 -43q0 -14 1 -26.5t3 -23.5q3 -17 11.5 -32l17.5 -32l10 -15
q0 -73 -26 -99zM570 260q-2 -40 -13 -76.5t-29 -64.5q3 -15 17.5 -27t33.5 -12q18 0 32 11.5t18 24.5q-37 58 -41 138v32q1 44 12.5 80t29.5 66q-2 16 -17 29.5t-34 13.5t-34 -13t-17 -29q39 -60 42 -144v-29zM594 -142q5 -11 10 -34t5 -47q0 -31 -8.5 -61.5t-17.5 -47.5h1
l-37 -75h-163l-34 84q38 17 49 31q29 27 29 69q0 20 -7.5 37.5t-21 31t-31 21t-38.5 7.5q-20 0 -37.5 -7.5t-31 -21t-21 -31t-7.5 -37.5q0 -21 7.5 -37.5t21.5 -31.5q14 -14 52 -31l-39 -92q-35 15 -53 27t-30 23q-56 56 -56 142q0 42 14.5 77.5t40 61t61.5 39.5t78 14
q43 0 79 -14t61.5 -39.5t40 -61t14.5 -77.5q0 -33 -5.5 -57t-10.5 -33h-4q11 17 17.5 39t6.5 47q0 24 -7.5 47.5t-26.5 53.5l-7 79h444v39h93v-63q1 -36 -17 -53.5t-53 -17.5h-361z" />
    <glyph glyph-name="M_RA3" unicode="&#x103c;&#x103d;" horiz-adv-x="1267" 
d="M959 -408h-9h-867q-42 2 -64 24t-19 60l1 1202q-6 86 83 83h999q84 6 84 -83v-202h-83v203h-1000v-1203l708 -1q-41 55 -41 127q0 88 61 149q60 60 149 60q88 0 147 -60q58 -61 58 -149q0 -84 -61 -147q-57 -59 -136 -63h-2h-8zM959 -72q-56 0 -90.5 -35t-34.5 -91
q0 -27 9 -49t25 -38.5t38.5 -25.5t49.5 -9q56 0 90 33t36 89q0 56 -34 91t-89 35zM360 204q14 0 23 -8.5t9 -22.5q0 -11 -9 -21t-23 -10q-11 0 -20.5 10t-9.5 21q0 14 9.5 22.5t20.5 8.5zM811 204q11 0 20.5 -8.5t9.5 -22.5q0 -11 -9.5 -21t-20.5 -10q-14 0 -23 10t-9 21
q0 14 9 22.5t23 8.5zM360 344q-11 0 -20.5 9t-9.5 22q0 11 9.5 21t20.5 10q14 0 23 -10t9 -21q0 -13 -9 -22t-23 -9zM811 344q-14 0 -23 9t-9 22q0 11 9 21t23 10q11 0 20.5 -10t9.5 -21q0 -13 -9.5 -22t-20.5 -9zM492 78q14 0 23 -8.5t9 -22.5q0 -11 -9 -21t-23 -10
q-11 0 -19.5 10t-8.5 21q0 14 8.5 22.5t19.5 8.5zM492 470q-11 0 -19.5 8.5t-8.5 22.5q0 11 8.5 21t19.5 10q14 0 23 -10t9 -21q0 -14 -9 -22.5t-23 -8.5zM679 78q11 0 19.5 -8.5t8.5 -22.5q0 -11 -8.5 -21t-19.5 -10q-14 0 -23 10t-9 21q0 14 9 22.5t23 8.5zM679 470
q-14 0 -23 8.5t-9 22.5q0 11 9 21t23 10q11 0 19.5 -10t8.5 -21q0 -14 -8.5 -22.5t-19.5 -8.5zM418 420q-13 0 -21.5 8.5t-8.5 22.5q0 11 8.5 20t21.5 9q12 0 21 -9t9 -20q0 -14 -9 -22.5t-21 -8.5zM753 420q-12 0 -21 8.5t-9 22.5q0 11 9 20t21 9q13 0 21.5 -9t8.5 -20
q0 -14 -8.5 -22.5t-21.5 -8.5zM590 59q12 0 21 -8.5t9 -20.5q0 -13 -9 -22t-21 -9q-13 0 -21.5 9t-8.5 22q0 12 8.5 20.5t21.5 8.5zM341 306q12 0 21 -8.5t9 -20.5q0 -13 -9 -22t-21 -9q-13 0 -21.5 9t-8.5 22q0 12 8.5 20.5t21.5 8.5zM418 128q12 0 21 -8.5t9 -22.5
q0 -11 -9 -20t-21 -9q-13 0 -21.5 9t-8.5 20q0 14 8.5 22.5t21.5 8.5zM590 547q12 0 21 -8.5t9 -22.5q0 -11 -9 -20t-21 -9q-13 0 -21.5 9t-8.5 20q0 14 8.5 22.5t21.5 8.5zM753 128q13 0 21.5 -8.5t8.5 -22.5q0 -11 -8.5 -20t-21.5 -9q-12 0 -21 9t-9 20q0 14 9 22.5
t21 8.5zM830 306q13 0 21.5 -8.5t8.5 -20.5q0 -13 -8.5 -22t-21.5 -9q-12 0 -21 9t-9 22q0 12 9 20.5t21 8.5z" />
    <glyph glyph-name="SSA_DDA" unicode="&#x1051;&#x1039;&#x100d;" horiz-adv-x="670" 
d="M204 479q-24 -12 -38.5 -21t-24.5 -19q-56 -64 -56 -170q0 -87 58 -142q58 -57 145 -57q84 0 141 57t57 142q0 103 -57 168q-13 11 -27.5 21.5t-40.5 22.5l42 78q52 -24 87 -59q80 -91 80 -231q0 -125 -79 -204q-80 -80 -203 -80q-124 0 -207 80q-81 79 -81 204
q0 146 80 232q18 18 37.5 31t51.5 29zM212 272q0 30 19 49.5t46 19.5q28 0 48.5 -19.5t20.5 -49.5q0 -27 -20.5 -46t-48.5 -19q-27 0 -46 19t-19 46zM102 25q51 -30 93.5 -43t87.5 -13q42 0 86.5 13.5t93.5 41.5q26 -13 41.5 -27.5t39.5 -26.5v-302h64v-75h-63
q-83 -1 -81 75v264q-40 -21 -86.5 -34.5t-88.5 -13.5q-49 0 -95.5 14t-135.5 53h8l-21 11z" />
    <glyph glyph-name="SSA_TTHA" unicode="&#x1051;&#x1039;&#x100c;" horiz-adv-x="670" 
d="M204 479q-24 -12 -38.5 -21t-24.5 -19q-56 -64 -56 -170q0 -87 58 -142q58 -57 145 -57q84 0 141 57t57 142q0 103 -57 168q-13 11 -27.5 21.5t-40.5 22.5l42 78q52 -24 87 -59q80 -91 80 -231q0 -125 -79 -204q-80 -80 -203 -80q-124 0 -207 80q-81 79 -81 204
q0 146 80 232q18 18 37.5 31t51.5 29zM212 272q0 30 19 49.5t46 19.5q28 0 48.5 -19.5t20.5 -49.5q0 -27 -20.5 -46t-48.5 -19q-27 0 -46 19t-19 46zM94 24q54 -31 104.5 -43t87.5 -12q41 0 86 13.5t94 41.5q26 -13 41.5 -27.5t39.5 -26.5v-320q0 -61 -86 -58h-355
q-35 8 -56.5 24t-23.5 41v82q1 28 12 49.5t28.5 37t41 23.5t60.5 8v-88q-30 1 -45.5 -6t-17.5 -23v-60l356 3v247q-30 -15 -74.5 -29t-94.5 -16q-62 0 -122.5 17.5t-113.5 48.5z" />
    <glyph glyph-name="S_RA" unicode="&#x1039;&#x101b;" horiz-adv-x="659" 
d="M352 -94q-24 25 -65 25q-43 0 -72 -29q-20 -19 -23 -38q58 -1 107 -49q17 -18 28 -38.5t17 -46.5v-7l1 -20l3 -38q-38 -7 -61 -7q-39 0 -71.5 12.5t-55.5 35.5t-36.5 55.5t-13.5 71.5q0 77 50 127q49 49 127 49q77 0 125 -50q48 -51 49 -123v-171q0 -4 3 -4h49v-74h-67
q-61 1 -61 55l-1 194q-2 39 -32 69v1zM213 -234q16 -15 29.5 -21.5t15.5 -6.5q-1 2 -16 19q-13 13 -27 20t-17 8q3 -8 14 -19h1zM40 306q12 0 21 -8.5t9 -20.5q0 -13 -9 -22t-21 -9q-13 0 -21.5 9t-8.5 22q0 12 8.5 20.5t21.5 8.5zM289 547q12 0 21 -8.5t9 -22.5
q0 -11 -9 -20t-21 -9q-13 0 -21.5 9t-8.5 20q0 14 8.5 22.5t21.5 8.5zM289 59q12 0 21 -8.5t9 -20.5q0 -13 -9 -22t-21 -9q-13 0 -21.5 9t-8.5 22q0 12 8.5 20.5t21.5 8.5zM117 128q12 0 21 -8.5t9 -22.5q0 -11 -9 -20t-21 -9q-13 0 -21.5 9t-8.5 20q0 14 8.5 22.5t21.5 8.5
zM59 204q14 0 23 -8.5t9 -22.5q0 -11 -9 -21t-23 -10q-11 0 -20.5 10t-9.5 21q0 14 9.5 22.5t20.5 8.5zM191 78q14 0 23 -8.5t9 -22.5q0 -11 -9 -21t-23 -10q-11 0 -19.5 10t-8.5 21q0 14 8.5 22.5t19.5 8.5zM117 420q-13 0 -21.5 8.5t-8.5 22.5q0 11 8.5 20t21.5 9
q12 0 21 -9t9 -20q0 -14 -9 -22.5t-21 -8.5zM59 344q-11 0 -20.5 9t-9.5 22q0 11 9.5 21t20.5 10q14 0 23 -10t9 -21q0 -13 -9 -22t-23 -9zM191 470q-11 0 -19.5 8.5t-8.5 22.5q0 11 8.5 21t19.5 10q14 0 23 -10t9 -21q0 -14 -9 -22.5t-23 -8.5zM529 306q13 0 21.5 -8.5
t8.5 -20.5q0 -13 -8.5 -22t-21.5 -9q-12 0 -21 9t-9 22q0 12 9 20.5t21 8.5zM452 128q13 0 21.5 -8.5t8.5 -22.5q0 -11 -8.5 -20t-21.5 -9q-12 0 -21 9t-9 20q0 14 9 22.5t21 8.5zM510 204q11 0 20.5 -8.5t9.5 -22.5q0 -11 -9.5 -21t-20.5 -10q-14 0 -23 10t-9 21
q0 14 9 22.5t23 8.5zM378 78q11 0 19.5 -8.5t8.5 -22.5q0 -11 -8.5 -21t-19.5 -10q-14 0 -23 10t-9 21q0 14 9 22.5t23 8.5zM452 420q-12 0 -21 8.5t-9 22.5q0 11 9 20t21 9q13 0 21.5 -9t8.5 -20q0 -14 -8.5 -22.5t-21.5 -8.5zM510 344q-14 0 -23 9t-9 22q0 11 9 21t23 10
q11 0 20.5 -10t9.5 -21q0 -13 -9.5 -22t-20.5 -9zM378 470q-14 0 -23 8.5t-9 22.5q0 11 9 21t23 10q11 0 19.5 -10t8.5 -21q0 -14 -8.5 -22.5t-19.5 -8.5z" />
    <glyph glyph-name="KINZI_RA" unicode="&#x101b;&#x103a;&#x1039;" horiz-adv-x="659" 
d="M399 704q3 34 0 60.5t-18 56.5q-13 24 -32 39t-41.5 20.5t-47.5 1t-50 -20.5q-36 -21 -51 -54q6 0 23 -1.5t29 -5.5q82 -19 129 -96q66 -109 10 -140q-18 -13 -56 -16q-18 -1 -35.5 0t-35.5 6q-82 19 -128 93t-24 158q21 81 97 128q73 45 157 26q41 -11 73.5 -35.5
t54.5 -61.5q19 -29 24 -69t3 -89h-81zM169 695q15 -23 33 -38t42 -21q18 -6 38 -5q-1 5 -5 15t-8 17q-31 49 -77 58q-8 2 -19.5 2.5t-17.5 -0.5q5 -13 14 -28zM40 306q12 0 21 -8.5t9 -20.5q0 -13 -9 -22t-21 -9q-13 0 -21.5 9t-8.5 22q0 12 8.5 20.5t21.5 8.5zM289 547
q12 0 21 -8.5t9 -22.5q0 -11 -9 -20t-21 -9q-13 0 -21.5 9t-8.5 20q0 14 8.5 22.5t21.5 8.5zM289 59q12 0 21 -8.5t9 -20.5q0 -13 -9 -22t-21 -9q-13 0 -21.5 9t-8.5 22q0 12 8.5 20.5t21.5 8.5zM117 128q12 0 21 -8.5t9 -22.5q0 -11 -9 -20t-21 -9q-13 0 -21.5 9t-8.5 20
q0 14 8.5 22.5t21.5 8.5zM59 204q14 0 23 -8.5t9 -22.5q0 -11 -9 -21t-23 -10q-11 0 -20.5 10t-9.5 21q0 14 9.5 22.5t20.5 8.5zM191 78q14 0 23 -8.5t9 -22.5q0 -11 -9 -21t-23 -10q-11 0 -19.5 10t-8.5 21q0 14 8.5 22.5t19.5 8.5zM117 420q-13 0 -21.5 8.5t-8.5 22.5
q0 11 8.5 20t21.5 9q12 0 21 -9t9 -20q0 -14 -9 -22.5t-21 -8.5zM59 344q-11 0 -20.5 9t-9.5 22q0 11 9.5 21t20.5 10q14 0 23 -10t9 -21q0 -13 -9 -22t-23 -9zM191 470q-11 0 -19.5 8.5t-8.5 22.5q0 11 8.5 21t19.5 10q14 0 23 -10t9 -21q0 -14 -9 -22.5t-23 -8.5zM529 306
q13 0 21.5 -8.5t8.5 -20.5q0 -13 -8.5 -22t-21.5 -9q-12 0 -21 9t-9 22q0 12 9 20.5t21 8.5zM452 128q13 0 21.5 -8.5t8.5 -22.5q0 -11 -8.5 -20t-21.5 -9q-12 0 -21 9t-9 20q0 14 9 22.5t21 8.5zM510 204q11 0 20.5 -8.5t9.5 -22.5q0 -11 -9.5 -21t-20.5 -10q-14 0 -23 10
t-9 21q0 14 9 22.5t23 8.5zM378 78q11 0 19.5 -8.5t8.5 -22.5q0 -11 -8.5 -21t-19.5 -10q-14 0 -23 10t-9 21q0 14 9 22.5t23 8.5zM452 420q-12 0 -21 8.5t-9 22.5q0 11 9 20t21 9q13 0 21.5 -9t8.5 -20q0 -14 -8.5 -22.5t-21.5 -8.5zM510 344q-14 0 -23 9t-9 22q0 11 9 21
t23 10q11 0 20.5 -10t9.5 -21q0 -13 -9.5 -22t-20.5 -9zM378 470q-14 0 -23 8.5t-9 22.5q0 11 9 21t23 10q11 0 19.5 -10t8.5 -21q0 -14 -8.5 -22.5t-19.5 -8.5z" />
    <glyph glyph-name="TA_WA" unicode="&#x1039;&#x1010;&#x103d;" horiz-adv-x="659" 
d="M336 -191l35 -7q1 1 5 1h7h5q20 3 35 16q16 19 16 45t-17 43.5t-43 17.5q-27 0 -45 -18q-9 -8 -11 -12q3 -12 3 -33q0 -54 -40 -96q-37 -41 -95 -41q-57 0 -97 40t-40 97t40 97q39 39 98 39q58 0 95 -38l-4 3l-2 -2q39 38 98 38t97 -38t38 -97q0 -58 -39 -97
q-4 -4 -8 -7.5t0 -0.5q6 -7 12.5 -23t6.5 -37q0 -22 -8.5 -39.5t-23.5 -32.5q-30 -33 -72 -33t-74 32q-29 29 -29 73q0 42 29 74q14 13 27 19zM191 -78q-28 0 -44 -16.5t-16 -43.5q0 -25 16.5 -41.5t41.5 -16.5q28 0 43.5 15.5t16.5 42.5q0 27 -15.5 43.5t-42.5 16.5z
M382 -273q-13 0 -20.5 -7.5t-7.5 -20.5t7.5 -20t18.5 -7q27 0 28 27q0 13 -6.5 20.5t-19.5 7.5zM40 306q12 0 21 -8.5t9 -20.5q0 -13 -9 -22t-21 -9q-13 0 -21.5 9t-8.5 22q0 12 8.5 20.5t21.5 8.5zM289 547q12 0 21 -8.5t9 -22.5q0 -11 -9 -20t-21 -9q-13 0 -21.5 9
t-8.5 20q0 14 8.5 22.5t21.5 8.5zM289 59q12 0 21 -8.5t9 -20.5q0 -13 -9 -22t-21 -9q-13 0 -21.5 9t-8.5 22q0 12 8.5 20.5t21.5 8.5zM117 128q12 0 21 -8.5t9 -22.5q0 -11 -9 -20t-21 -9q-13 0 -21.5 9t-8.5 20q0 14 8.5 22.5t21.5 8.5zM59 204q14 0 23 -8.5t9 -22.5
q0 -11 -9 -21t-23 -10q-11 0 -20.5 10t-9.5 21q0 14 9.5 22.5t20.5 8.5zM191 78q14 0 23 -8.5t9 -22.5q0 -11 -9 -21t-23 -10q-11 0 -19.5 10t-8.5 21q0 14 8.5 22.5t19.5 8.5zM117 420q-13 0 -21.5 8.5t-8.5 22.5q0 11 8.5 20t21.5 9q12 0 21 -9t9 -20q0 -14 -9 -22.5
t-21 -8.5zM59 344q-11 0 -20.5 9t-9.5 22q0 11 9.5 21t20.5 10q14 0 23 -10t9 -21q0 -13 -9 -22t-23 -9zM191 470q-11 0 -19.5 8.5t-8.5 22.5q0 11 8.5 21t19.5 10q14 0 23 -10t9 -21q0 -14 -9 -22.5t-23 -8.5zM529 306q13 0 21.5 -8.5t8.5 -20.5q0 -13 -8.5 -22t-21.5 -9
q-12 0 -21 9t-9 22q0 12 9 20.5t21 8.5zM452 128q13 0 21.5 -8.5t8.5 -22.5q0 -11 -8.5 -20t-21.5 -9q-12 0 -21 9t-9 20q0 14 9 22.5t21 8.5zM510 204q11 0 20.5 -8.5t9.5 -22.5q0 -11 -9.5 -21t-20.5 -10q-14 0 -23 10t-9 21q0 14 9 22.5t23 8.5zM378 78q11 0 19.5 -8.5
t8.5 -22.5q0 -11 -8.5 -21t-19.5 -10q-14 0 -23 10t-9 21q0 14 9 22.5t23 8.5zM452 420q-12 0 -21 8.5t-9 22.5q0 11 9 20t21 9q13 0 21.5 -9t8.5 -20q0 -14 -8.5 -22.5t-21.5 -8.5zM510 344q-14 0 -23 9t-9 22q0 11 9 21t23 10q11 0 20.5 -10t9.5 -21q0 -13 -9.5 -22
t-20.5 -9zM378 470q-14 0 -23 8.5t-9 22.5q0 11 9 21t23 10q11 0 19.5 -10t8.5 -21q0 -14 -8.5 -22.5t-19.5 -8.5z" />
    <glyph glyph-name="SM_JHA" unicode="&#x1039;&#x105b;" horiz-adv-x="848" 
d="M286 -404q-92 0 -150.5 58t-58.5 150q0 89 59.5 147.5t149.5 58.5q89 0 147 -58q14 -15 28 -34l-1 -2q5 -9 10 -23.5t5 -31.5q0 -9 -1 -15.5t-3 -11.5q2 -50 37 -84l11 -11l-44 -44l190 -19v886h83v-971h-81l-273 35q-49 -30 -108 -30zM260 -139q0 25 11 48l11 21
q-54 -1 -89 -35q-36 -36 -36 -91q0 -57 36 -92.5t93 -35.5q51 0 93 39l8 -8l57 -8q-28 31 -38 61q-11 -6 -39 -6q-45 0 -76 31t-31 76zM343 -138q0 -10 7.5 -17.5t18.5 -7.5q8 0 15 5t9 12q1 7 1 13q-1 8 -8.5 14.5t-16.5 6.5q-11 0 -18.5 -8t-7.5 -18zM40 306q12 0 21 -8.5
t9 -20.5q0 -13 -9 -22t-21 -9q-13 0 -21.5 9t-8.5 22q0 12 8.5 20.5t21.5 8.5zM289 547q12 0 21 -8.5t9 -22.5q0 -11 -9 -20t-21 -9q-13 0 -21.5 9t-8.5 20q0 14 8.5 22.5t21.5 8.5zM289 59q12 0 21 -8.5t9 -20.5q0 -13 -9 -22t-21 -9q-13 0 -21.5 9t-8.5 22q0 12 8.5 20.5
t21.5 8.5zM117 128q12 0 21 -8.5t9 -22.5q0 -11 -9 -20t-21 -9q-13 0 -21.5 9t-8.5 20q0 14 8.5 22.5t21.5 8.5zM59 204q14 0 23 -8.5t9 -22.5q0 -11 -9 -21t-23 -10q-11 0 -20.5 10t-9.5 21q0 14 9.5 22.5t20.5 8.5zM191 78q14 0 23 -8.5t9 -22.5q0 -11 -9 -21t-23 -10
q-11 0 -19.5 10t-8.5 21q0 14 8.5 22.5t19.5 8.5zM117 420q-13 0 -21.5 8.5t-8.5 22.5q0 11 8.5 20t21.5 9q12 0 21 -9t9 -20q0 -14 -9 -22.5t-21 -8.5zM59 344q-11 0 -20.5 9t-9.5 22q0 11 9.5 21t20.5 10q14 0 23 -10t9 -21q0 -13 -9 -22t-23 -9zM191 470q-11 0 -19.5 8.5
t-8.5 22.5q0 11 8.5 21t19.5 10q14 0 23 -10t9 -21q0 -14 -9 -22.5t-23 -8.5zM529 306q13 0 21.5 -8.5t8.5 -20.5q0 -13 -8.5 -22t-21.5 -9q-12 0 -21 9t-9 22q0 12 9 20.5t21 8.5zM452 128q13 0 21.5 -8.5t8.5 -22.5q0 -11 -8.5 -20t-21.5 -9q-12 0 -21 9t-9 20
q0 14 9 22.5t21 8.5zM510 204q11 0 20.5 -8.5t9.5 -22.5q0 -11 -9.5 -21t-20.5 -10q-14 0 -23 10t-9 21q0 14 9 22.5t23 8.5zM378 78q11 0 19.5 -8.5t8.5 -22.5q0 -11 -8.5 -21t-19.5 -10q-14 0 -23 10t-9 21q0 14 9 22.5t23 8.5zM452 420q-12 0 -21 8.5t-9 22.5q0 11 9 20
t21 9q13 0 21.5 -9t8.5 -20q0 -14 -8.5 -22.5t-21.5 -8.5zM510 344q-14 0 -23 9t-9 22q0 11 9 21t23 10q11 0 20.5 -10t9.5 -21q0 -13 -9.5 -22t-20.5 -9zM378 470q-14 0 -23 8.5t-9 22.5q0 11 9 21t23 10q11 0 19.5 -10t8.5 -21q0 -14 -8.5 -22.5t-19.5 -8.5z" />
    <glyph glyph-name="S_KA" unicode="&#x1039;&#x1000;" horiz-adv-x="764" 
d="M474 -318q26 -6 46 -6q55 0 91 36.5t36 91.5t-36 91t-91 36q-56 0 -93 -36q-11 -10 -20 -27q9 -29 9 -64q0 -102 -59 -167q-27 -28 -73 -47l-37 72q35 14 54 33q36 42 36 109q0 55 -36 91t-91 36q-56 0 -92.5 -36t-36.5 -91q0 -69 36 -110q17 -17 48 -30l-30 -74
q-47 17 -76 47q-58 63 -58 167q0 90 59.5 148.5t149.5 58.5t148 -58l6 -6l6 6q60 58 150 58t147.5 -58.5t57.5 -148.5t-58 -149t-147 -59q-33 0 -73 11zM110 306q12 0 21 -8.5t9 -20.5q0 -13 -9 -22t-21 -9q-13 0 -21.5 9t-8.5 22q0 12 8.5 20.5t21.5 8.5zM359 547
q12 0 21 -8.5t9 -22.5q0 -11 -9 -20t-21 -9q-13 0 -21.5 9t-8.5 20q0 14 8.5 22.5t21.5 8.5zM359 59q12 0 21 -8.5t9 -20.5q0 -13 -9 -22t-21 -9q-13 0 -21.5 9t-8.5 22q0 12 8.5 20.5t21.5 8.5zM187 128q12 0 21 -8.5t9 -22.5q0 -11 -9 -20t-21 -9q-13 0 -21.5 9t-8.5 20
q0 14 8.5 22.5t21.5 8.5zM129 204q14 0 23 -8.5t9 -22.5q0 -11 -9 -21t-23 -10q-11 0 -20.5 10t-9.5 21q0 14 9.5 22.5t20.5 8.5zM261 78q14 0 23 -8.5t9 -22.5q0 -11 -9 -21t-23 -10q-11 0 -19.5 10t-8.5 21q0 14 8.5 22.5t19.5 8.5zM187 420q-13 0 -21.5 8.5t-8.5 22.5
q0 11 8.5 20t21.5 9q12 0 21 -9t9 -20q0 -14 -9 -22.5t-21 -8.5zM129 344q-11 0 -20.5 9t-9.5 22q0 11 9.5 21t20.5 10q14 0 23 -10t9 -21q0 -13 -9 -22t-23 -9zM261 470q-11 0 -19.5 8.5t-8.5 22.5q0 11 8.5 21t19.5 10q14 0 23 -10t9 -21q0 -14 -9 -22.5t-23 -8.5z
M599 306q13 0 21.5 -8.5t8.5 -20.5q0 -13 -8.5 -22t-21.5 -9q-12 0 -21 9t-9 22q0 12 9 20.5t21 8.5zM522 128q13 0 21.5 -8.5t8.5 -22.5q0 -11 -8.5 -20t-21.5 -9q-12 0 -21 9t-9 20q0 14 9 22.5t21 8.5zM580 204q11 0 20.5 -8.5t9.5 -22.5q0 -11 -9.5 -21t-20.5 -10
q-14 0 -23 10t-9 21q0 14 9 22.5t23 8.5zM448 78q11 0 19.5 -8.5t8.5 -22.5q0 -11 -8.5 -21t-19.5 -10q-14 0 -23 10t-9 21q0 14 9 22.5t23 8.5zM522 420q-12 0 -21 8.5t-9 22.5q0 11 9 20t21 9q13 0 21.5 -9t8.5 -20q0 -14 -8.5 -22.5t-21.5 -8.5zM580 344q-14 0 -23 9
t-9 22q0 11 9 21t23 10q11 0 20.5 -10t9.5 -21q0 -13 -9.5 -22t-20.5 -9zM448 470q-14 0 -23 8.5t-9 22.5q0 11 9 21t23 10q11 0 19.5 -10t8.5 -21q0 -14 -8.5 -22.5t-19.5 -8.5z" />
    <glyph glyph-name="S_KHA" unicode="&#x1039;&#x1001;" horiz-adv-x="609" 
d="M233 -170q91 0 149 -59q18 -19 22 -26q10 16 10 56q0 55 -36.5 91.5t-91.5 36.5q-57 0 -94 -36q-17 -19 -31 -50l-75 31q20 47 49 76q60 59 151 59t149 -59t58 -149q0 -91 -58.5 -150.5t-148.5 -59.5q-93 0 -152 58q-23 22 -37 50q-13 22 -19.5 45.5t7.5 43t48.5 31
t99.5 11.5zM192 -293q37 -35 94 -35q38 0 60 12q-5 12 -22 29q-36 36 -91 36q-40 0 -63 -14q5 -12 22 -28zM40 306q12 0 21 -8.5t9 -20.5q0 -13 -9 -22t-21 -9q-13 0 -21.5 9t-8.5 22q0 12 8.5 20.5t21.5 8.5zM289 547q12 0 21 -8.5t9 -22.5q0 -11 -9 -20t-21 -9
q-13 0 -21.5 9t-8.5 20q0 14 8.5 22.5t21.5 8.5zM289 59q12 0 21 -8.5t9 -20.5q0 -13 -9 -22t-21 -9q-13 0 -21.5 9t-8.5 22q0 12 8.5 20.5t21.5 8.5zM117 128q12 0 21 -8.5t9 -22.5q0 -11 -9 -20t-21 -9q-13 0 -21.5 9t-8.5 20q0 14 8.5 22.5t21.5 8.5zM59 204
q14 0 23 -8.5t9 -22.5q0 -11 -9 -21t-23 -10q-11 0 -20.5 10t-9.5 21q0 14 9.5 22.5t20.5 8.5zM191 78q14 0 23 -8.5t9 -22.5q0 -11 -9 -21t-23 -10q-11 0 -19.5 10t-8.5 21q0 14 8.5 22.5t19.5 8.5zM117 420q-13 0 -21.5 8.5t-8.5 22.5q0 11 8.5 20t21.5 9q12 0 21 -9
t9 -20q0 -14 -9 -22.5t-21 -8.5zM59 344q-11 0 -20.5 9t-9.5 22q0 11 9.5 21t20.5 10q14 0 23 -10t9 -21q0 -13 -9 -22t-23 -9zM191 470q-11 0 -19.5 8.5t-8.5 22.5q0 11 8.5 21t19.5 10q14 0 23 -10t9 -21q0 -14 -9 -22.5t-23 -8.5zM529 306q13 0 21.5 -8.5t8.5 -20.5
q0 -13 -8.5 -22t-21.5 -9q-12 0 -21 9t-9 22q0 12 9 20.5t21 8.5zM452 128q13 0 21.5 -8.5t8.5 -22.5q0 -11 -8.5 -20t-21.5 -9q-12 0 -21 9t-9 20q0 14 9 22.5t21 8.5zM510 204q11 0 20.5 -8.5t9.5 -22.5q0 -11 -9.5 -21t-20.5 -10q-14 0 -23 10t-9 21q0 14 9 22.5t23 8.5z
M378 78q11 0 19.5 -8.5t8.5 -22.5q0 -11 -8.5 -21t-19.5 -10q-14 0 -23 10t-9 21q0 14 9 22.5t23 8.5zM452 420q-12 0 -21 8.5t-9 22.5q0 11 9 20t21 9q13 0 21.5 -9t8.5 -20q0 -14 -8.5 -22.5t-21.5 -8.5zM510 344q-14 0 -23 9t-9 22q0 11 9 21t23 10q11 0 20.5 -10
t9.5 -21q0 -13 -9.5 -22t-20.5 -9zM378 470q-14 0 -23 8.5t-9 22.5q0 11 9 21t23 10q11 0 19.5 -10t8.5 -21q0 -14 -8.5 -22.5t-19.5 -8.5z" />
    <glyph glyph-name="S_GA" unicode="&#x1039;&#x1002;" horiz-adv-x="609" 
d="M191 -413l-32.5 22t-21.5 19q-15 15 -26.5 35.5t-19.5 43t-11.5 46t-3.5 45.5q0 88 61 149q60 60 149 60q88 0 147 -60q58 -61 58 -149q0 -22 -3.5 -44.5t-11.5 -45t-19.5 -42.5t-26.5 -36q-19 -21 -53 -41l-42 76q22 12 33 25.5t20 31t13.5 37.5t5.5 39q0 56 -33.5 91
t-89.5 35t-90.5 -35t-34.5 -91q0 -19 4.5 -38.5t13 -37.5t19.5 -31.5t32 -25.5zM40 306q12 0 21 -8.5t9 -20.5q0 -13 -9 -22t-21 -9q-13 0 -21.5 9t-8.5 22q0 12 8.5 20.5t21.5 8.5zM289 547q12 0 21 -8.5t9 -22.5q0 -11 -9 -20t-21 -9q-13 0 -21.5 9t-8.5 20q0 14 8.5 22.5
t21.5 8.5zM289 59q12 0 21 -8.5t9 -20.5q0 -13 -9 -22t-21 -9q-13 0 -21.5 9t-8.5 22q0 12 8.5 20.5t21.5 8.5zM117 128q12 0 21 -8.5t9 -22.5q0 -11 -9 -20t-21 -9q-13 0 -21.5 9t-8.5 20q0 14 8.5 22.5t21.5 8.5zM59 204q14 0 23 -8.5t9 -22.5q0 -11 -9 -21t-23 -10
q-11 0 -20.5 10t-9.5 21q0 14 9.5 22.5t20.5 8.5zM191 78q14 0 23 -8.5t9 -22.5q0 -11 -9 -21t-23 -10q-11 0 -19.5 10t-8.5 21q0 14 8.5 22.5t19.5 8.5zM117 420q-13 0 -21.5 8.5t-8.5 22.5q0 11 8.5 20t21.5 9q12 0 21 -9t9 -20q0 -14 -9 -22.5t-21 -8.5zM59 344
q-11 0 -20.5 9t-9.5 22q0 11 9.5 21t20.5 10q14 0 23 -10t9 -21q0 -13 -9 -22t-23 -9zM191 470q-11 0 -19.5 8.5t-8.5 22.5q0 11 8.5 21t19.5 10q14 0 23 -10t9 -21q0 -14 -9 -22.5t-23 -8.5zM529 306q13 0 21.5 -8.5t8.5 -20.5q0 -13 -8.5 -22t-21.5 -9q-12 0 -21 9t-9 22
q0 12 9 20.5t21 8.5zM452 128q13 0 21.5 -8.5t8.5 -22.5q0 -11 -8.5 -20t-21.5 -9q-12 0 -21 9t-9 20q0 14 9 22.5t21 8.5zM510 204q11 0 20.5 -8.5t9.5 -22.5q0 -11 -9.5 -21t-20.5 -10q-14 0 -23 10t-9 21q0 14 9 22.5t23 8.5zM378 78q11 0 19.5 -8.5t8.5 -22.5
q0 -11 -8.5 -21t-19.5 -10q-14 0 -23 10t-9 21q0 14 9 22.5t23 8.5zM452 420q-12 0 -21 8.5t-9 22.5q0 11 9 20t21 9q13 0 21.5 -9t8.5 -20q0 -14 -8.5 -22.5t-21.5 -8.5zM510 344q-14 0 -23 9t-9 22q0 11 9 21t23 10q11 0 20.5 -10t9.5 -21q0 -13 -9.5 -22t-20.5 -9z
M378 470q-14 0 -23 8.5t-9 22.5q0 11 9 21t23 10q11 0 19.5 -10t8.5 -21q0 -14 -8.5 -22.5t-19.5 -8.5z" />
    <glyph glyph-name="S_GHA" unicode="&#x1039;&#x1003;" horiz-adv-x="754" 
d="M0 -202q1 34 13 50.5t27.5 20.5t26 2.5t12.5 0.5q13 0 21 8t8 18q0 11 -8 18.5t-18 7.5q-15 0 -30 -29l-51 78q38 34 79 34q45 0 76.5 -31t31.5 -76t-31.5 -76.5t-76.5 -31.5q-9 0 0 -3v9q0 -55 36.5 -90.5t92.5 -35.5q54 0 90.5 36t36.5 90q0 68 -37 109q-19 19 -53 33
l37 72q45 -19 73 -47q58 -64 58 -167q0 -38 -9 -66q6 -12 21 -25q36 -36 92 -36q55 0 91 36t36 91t-36 91.5t-91 36.5q-20 0 -47 -7l-25 76q39 10 72 10q89 0 147 -58.5t58 -148.5t-57.5 -148.5t-147.5 -58.5t-150 59q-7 7 -6 6q1 1 -6 -6q-57 -58 -147 -58t-149.5 58.5
t-59.5 147.5zM110 306q12 0 21 -8.5t9 -20.5q0 -13 -9 -22t-21 -9q-13 0 -21.5 9t-8.5 22q0 12 8.5 20.5t21.5 8.5zM359 547q12 0 21 -8.5t9 -22.5q0 -11 -9 -20t-21 -9q-13 0 -21.5 9t-8.5 20q0 14 8.5 22.5t21.5 8.5zM359 59q12 0 21 -8.5t9 -20.5q0 -13 -9 -22t-21 -9
q-13 0 -21.5 9t-8.5 22q0 12 8.5 20.5t21.5 8.5zM187 128q12 0 21 -8.5t9 -22.5q0 -11 -9 -20t-21 -9q-13 0 -21.5 9t-8.5 20q0 14 8.5 22.5t21.5 8.5zM129 204q14 0 23 -8.5t9 -22.5q0 -11 -9 -21t-23 -10q-11 0 -20.5 10t-9.5 21q0 14 9.5 22.5t20.5 8.5zM261 78
q14 0 23 -8.5t9 -22.5q0 -11 -9 -21t-23 -10q-11 0 -19.5 10t-8.5 21q0 14 8.5 22.5t19.5 8.5zM187 420q-13 0 -21.5 8.5t-8.5 22.5q0 11 8.5 20t21.5 9q12 0 21 -9t9 -20q0 -14 -9 -22.5t-21 -8.5zM129 344q-11 0 -20.5 9t-9.5 22q0 11 9.5 21t20.5 10q14 0 23 -10t9 -21
q0 -13 -9 -22t-23 -9zM261 470q-11 0 -19.5 8.5t-8.5 22.5q0 11 8.5 21t19.5 10q14 0 23 -10t9 -21q0 -14 -9 -22.5t-23 -8.5zM599 306q13 0 21.5 -8.5t8.5 -20.5q0 -13 -8.5 -22t-21.5 -9q-12 0 -21 9t-9 22q0 12 9 20.5t21 8.5zM522 128q13 0 21.5 -8.5t8.5 -22.5
q0 -11 -8.5 -20t-21.5 -9q-12 0 -21 9t-9 20q0 14 9 22.5t21 8.5zM580 204q11 0 20.5 -8.5t9.5 -22.5q0 -11 -9.5 -21t-20.5 -10q-14 0 -23 10t-9 21q0 14 9 22.5t23 8.5zM448 78q11 0 19.5 -8.5t8.5 -22.5q0 -11 -8.5 -21t-19.5 -10q-14 0 -23 10t-9 21q0 14 9 22.5t23 8.5
zM522 420q-12 0 -21 8.5t-9 22.5q0 11 9 20t21 9q13 0 21.5 -9t8.5 -20q0 -14 -8.5 -22.5t-21.5 -8.5zM580 344q-14 0 -23 9t-9 22q0 11 9 21t23 10q11 0 20.5 -10t9.5 -21q0 -13 -9.5 -22t-20.5 -9zM448 470q-14 0 -23 8.5t-9 22.5q0 11 9 21t23 10q11 0 19.5 -10t8.5 -21
q0 -14 -8.5 -22.5t-19.5 -8.5z" />
    <glyph glyph-name="S_NGA" unicode="&#x1039;&#x1004;" horiz-adv-x="609" 
d="M462 -308q-10 -16 -17 -23.5l-14 -15.5q-60 -63 -146 -63t-147 61t-61 149t61 149q60 60 149 60q88 0 147 -60l12 -13.5t16 -23.5l-68 -50q-21 36 -47.5 50t-61.5 14q-56 0 -90.5 -35t-34.5 -91q0 -27 9 -49t25.5 -38.5t38.5 -25.5t49 -9q37 0 64.5 14.5t48.5 51.5z
M40 306q12 0 21 -8.5t9 -20.5q0 -13 -9 -22t-21 -9q-13 0 -21.5 9t-8.5 22q0 12 8.5 20.5t21.5 8.5zM289 547q12 0 21 -8.5t9 -22.5q0 -11 -9 -20t-21 -9q-13 0 -21.5 9t-8.5 20q0 14 8.5 22.5t21.5 8.5zM289 59q12 0 21 -8.5t9 -20.5q0 -13 -9 -22t-21 -9q-13 0 -21.5 9
t-8.5 22q0 12 8.5 20.5t21.5 8.5zM117 128q12 0 21 -8.5t9 -22.5q0 -11 -9 -20t-21 -9q-13 0 -21.5 9t-8.5 20q0 14 8.5 22.5t21.5 8.5zM59 204q14 0 23 -8.5t9 -22.5q0 -11 -9 -21t-23 -10q-11 0 -20.5 10t-9.5 21q0 14 9.5 22.5t20.5 8.5zM191 78q14 0 23 -8.5t9 -22.5
q0 -11 -9 -21t-23 -10q-11 0 -19.5 10t-8.5 21q0 14 8.5 22.5t19.5 8.5zM117 420q-13 0 -21.5 8.5t-8.5 22.5q0 11 8.5 20t21.5 9q12 0 21 -9t9 -20q0 -14 -9 -22.5t-21 -8.5zM59 344q-11 0 -20.5 9t-9.5 22q0 11 9.5 21t20.5 10q14 0 23 -10t9 -21q0 -13 -9 -22t-23 -9z
M191 470q-11 0 -19.5 8.5t-8.5 22.5q0 11 8.5 21t19.5 10q14 0 23 -10t9 -21q0 -14 -9 -22.5t-23 -8.5zM529 306q13 0 21.5 -8.5t8.5 -20.5q0 -13 -8.5 -22t-21.5 -9q-12 0 -21 9t-9 22q0 12 9 20.5t21 8.5zM452 128q13 0 21.5 -8.5t8.5 -22.5q0 -11 -8.5 -20t-21.5 -9
q-12 0 -21 9t-9 20q0 14 9 22.5t21 8.5zM510 204q11 0 20.5 -8.5t9.5 -22.5q0 -11 -9.5 -21t-20.5 -10q-14 0 -23 10t-9 21q0 14 9 22.5t23 8.5zM378 78q11 0 19.5 -8.5t8.5 -22.5q0 -11 -8.5 -21t-19.5 -10q-14 0 -23 10t-9 21q0 14 9 22.5t23 8.5zM452 420q-12 0 -21 8.5
t-9 22.5q0 11 9 20t21 9q13 0 21.5 -9t8.5 -20q0 -14 -8.5 -22.5t-21.5 -8.5zM510 344q-14 0 -23 9t-9 22q0 11 9 21t23 10q11 0 20.5 -10t9.5 -21q0 -13 -9.5 -22t-20.5 -9zM378 470q-14 0 -23 8.5t-9 22.5q0 11 9 21t23 10q11 0 19.5 -10t8.5 -21q0 -14 -8.5 -22.5
t-19.5 -8.5z" />
    <glyph glyph-name="S_CA" unicode="&#x1039;&#x1005;" horiz-adv-x="609" 
d="M284 -410q-86 0 -147 61t-61 149t61 149q60 60 149 60q88 0 147 -60q58 -61 58 -149q0 -84 -61 -147q-60 -63 -146 -63zM284 -74q-28 0 -38 -4q35 -42 35 -122q0 -74 -36 -118q-1 1 11 -1.5t25 -2.5q56 0 90 33t36 89q0 56 -33.5 91t-89.5 35zM159 -200q0 -23 7 -43
t12 -26q4 6 11 26t8 43q0 50 -19 73q-5 -6 -12 -27.5t-7 -45.5zM40 306q12 0 21 -8.5t9 -20.5q0 -13 -9 -22t-21 -9q-13 0 -21.5 9t-8.5 22q0 12 8.5 20.5t21.5 8.5zM289 547q12 0 21 -8.5t9 -22.5q0 -11 -9 -20t-21 -9q-13 0 -21.5 9t-8.5 20q0 14 8.5 22.5t21.5 8.5z
M289 59q12 0 21 -8.5t9 -20.5q0 -13 -9 -22t-21 -9q-13 0 -21.5 9t-8.5 22q0 12 8.5 20.5t21.5 8.5zM117 128q12 0 21 -8.5t9 -22.5q0 -11 -9 -20t-21 -9q-13 0 -21.5 9t-8.5 20q0 14 8.5 22.5t21.5 8.5zM59 204q14 0 23 -8.5t9 -22.5q0 -11 -9 -21t-23 -10q-11 0 -20.5 10
t-9.5 21q0 14 9.5 22.5t20.5 8.5zM191 78q14 0 23 -8.5t9 -22.5q0 -11 -9 -21t-23 -10q-11 0 -19.5 10t-8.5 21q0 14 8.5 22.5t19.5 8.5zM117 420q-13 0 -21.5 8.5t-8.5 22.5q0 11 8.5 20t21.5 9q12 0 21 -9t9 -20q0 -14 -9 -22.5t-21 -8.5zM59 344q-11 0 -20.5 9t-9.5 22
q0 11 9.5 21t20.5 10q14 0 23 -10t9 -21q0 -13 -9 -22t-23 -9zM191 470q-11 0 -19.5 8.5t-8.5 22.5q0 11 8.5 21t19.5 10q14 0 23 -10t9 -21q0 -14 -9 -22.5t-23 -8.5zM529 306q13 0 21.5 -8.5t8.5 -20.5q0 -13 -8.5 -22t-21.5 -9q-12 0 -21 9t-9 22q0 12 9 20.5t21 8.5z
M452 128q13 0 21.5 -8.5t8.5 -22.5q0 -11 -8.5 -20t-21.5 -9q-12 0 -21 9t-9 20q0 14 9 22.5t21 8.5zM510 204q11 0 20.5 -8.5t9.5 -22.5q0 -11 -9.5 -21t-20.5 -10q-14 0 -23 10t-9 21q0 14 9 22.5t23 8.5zM378 78q11 0 19.5 -8.5t8.5 -22.5q0 -11 -8.5 -21t-19.5 -10
q-14 0 -23 10t-9 21q0 14 9 22.5t23 8.5zM452 420q-12 0 -21 8.5t-9 22.5q0 11 9 20t21 9q13 0 21.5 -9t8.5 -20q0 -14 -8.5 -22.5t-21.5 -8.5zM510 344q-14 0 -23 9t-9 22q0 11 9 21t23 10q11 0 20.5 -10t9.5 -21q0 -13 -9.5 -22t-20.5 -9zM378 470q-14 0 -23 8.5t-9 22.5
q0 11 9 21t23 10q11 0 19.5 -10t8.5 -21q0 -14 -8.5 -22.5t-19.5 -8.5z" />
    <glyph glyph-name="M_RA16_ND" unicode="&#x103c;&#x103e;" horiz-adv-x="150" 
d="M1166 689h-83v190h-999l1 -1204h998v334h83v-334q1 -45 -22.5 -64t-60.5 -19h-999q-42 2 -64 24t-19 60v1202q-6 86 83 83h998q84 6 84 -83v-189zM721 -203h122v226h84l-1 -250q-3 -47 -69 -63h-136v87z" />
    <glyph glyph-name="S_ASAT_DUPLICATION" unicode="&#x103a;&#xaa70;" 
d="M-314 546q-21 -4 -33 -5t-23 -1q-88 0 -150 62q-60 60 -60 151q0 88 61 149q62 62 151 62t148 -62q25 -25 43 -66l-78 -34q-7 19 -12.5 27t-12.5 15q-35 36 -90 36q-57 0 -91.5 -35t-34.5 -92q0 -27 10 -50.5t28.5 -41t42 -27.5t50.5 -10q5 0 15.5 -0.5t25.5 2.5z
M-327 764q-11 20 -21 26.5t-22 6.5q-15 0 -27 -13.5t-12 -29.5q0 -13 15 -32l-63 -46q-29 40 -29 78q0 24 9.5 45.5t25 36.5t36.5 24.5t45 9.5q34 0 60 -16t47 -49z" />
    <glyph glyph-name="M_HA_ASAT" unicode="&#x103e;&#x103a;" 
d="M-552 -321h122v344h84l-1 -368q-2 -47 -69 -63l-136 1v86zM-326 546q-21 -4 -33 -5t-23 -1q-88 0 -150 62q-60 60 -60 151q0 88 61 149q62 62 151 62t148 -62q25 -25 43 -66l-78 -34q-7 19 -12.5 27t-12.5 15q-35 36 -90 36q-57 0 -91.5 -35t-34.5 -92q0 -27 10 -50.5
t28.5 -41t42 -27.5t50.5 -10q5 0 15.5 -0.5t25.5 2.5z" />
    <glyph glyph-name=".notdef" horiz-adv-x="318" 
 />
    <glyph glyph-name="space" unicode=" " horiz-adv-x="318" 
 />
    <glyph glyph-name="exclam" unicode="!" horiz-adv-x="401" 
d="M151 124h99v-124h-99v124zM151 729h99v-320l-10 -174h-79l-10 174v320z" />
    <glyph glyph-name="quotedbl" unicode="&#x22;" horiz-adv-x="460" 
d="M179 729v-271h-83v271h83zM364 729v-271h-83v271h83z" />
    <glyph glyph-name="numbersign" unicode="#" horiz-adv-x="838" 
d="M511 440h-142l-41 -163h143zM438 718l-51 -203h143l51 203h78l-50 -203h152v-75h-171l-40 -163h155v-75h-174l-51 -202h-78l50 202h-143l-50 -202h-79l51 202h-154v75h172l41 163h-157v75h176l50 203h79z" />
    <glyph glyph-name="dollar" unicode="$" horiz-adv-x="636" 
d="M338 -147h-49v147q-52 1 -103 12t-103 33v88q50 -31 101 -47t105 -17v223q-108 18 -157 60t-49 115q0 79 53 125t153 53v115h49v-114q45 -1 87.5 -9t83.5 -21v-85q-41 20 -83.5 31.5t-87.5 13.5v-209q111 -17 163 -61t52 -120q0 -82 -55.5 -130t-159.5 -55v-148zM289 376
v200q-57 -6 -86.5 -32t-29.5 -69q0 -42 27.5 -65.5t88.5 -33.5zM338 282v-211q62 8 93.5 35t31.5 71q0 43 -30 68.5t-95 36.5z" />
    <glyph glyph-name="percent" unicode="%" horiz-adv-x="950" 
d="M727 321q-42 0 -66.5 -36t-24.5 -101q0 -63 24.5 -99.5t66.5 -36.5t66 36.5t24 99.5q0 64 -24 100.5t-66 36.5zM727 383q77 0 122.5 -54t45.5 -145t-45.5 -144.5t-122.5 -53.5q-78 0 -123.5 53.5t-45.5 144.5q0 92 45.5 145.5t123.5 53.5zM223 680q-42 0 -66 -36.5
t-24 -99.5q0 -65 24 -101t66 -36q43 0 67 36t24 101q0 63 -24.5 99.5t-66.5 36.5zM664 742h78l-456 -756h-78zM223 742q77 0 123 -53.5t46 -144.5q0 -92 -45.5 -145.5t-123.5 -53.5q-77 0 -122.5 53.5t-45.5 145.5q0 91 45.5 144.5t122.5 53.5z" />
    <glyph glyph-name="ampersand" unicode="&#x26;" horiz-adv-x="780" 
d="M243 392q-44 -39 -65 -78.5t-21 -82.5q0 -71 52 -118.5t130 -47.5q46 0 86.5 15.5t76.5 46.5zM312 447l248 -254q29 43 45 92.5t19 105.5h91q-6 -64 -31.5 -127t-70.5 -125l136 -139h-123l-70 72q-51 -44 -106.5 -65t-119.5 -21q-118 0 -192.5 67t-74.5 172
q0 63 32.5 117.5t98.5 103.5q-24 31 -36 61.5t-12 59.5q0 79 54 127t144 48q41 0 81 -8.5t82 -26.5v-89q-43 23 -81.5 35t-71.5 12q-51 0 -83 -27t-32 -70q0 -25 14.5 -50t58.5 -71z" />
    <glyph glyph-name="quotesingle" unicode="'" horiz-adv-x="275" 
d="M179 729v-271h-83v271h83z" />
    <glyph glyph-name="parenleft" unicode="(" horiz-adv-x="390" 
d="M310 759q-65 -113 -97 -222.5t-32 -222.5t32 -223.5t97 -222.5h-78q-73 115 -109.5 226t-36.5 220t36 219.5t110 225.5h78z" />
    <glyph glyph-name="parenright" unicode=")" horiz-adv-x="390" 
d="M80 759h78q73 -115 109.5 -225.5t36.5 -219.5t-36.5 -220t-109.5 -226h-78q65 112 97 222.5t32 223.5t-32 222.5t-97 222.5z" />
    <glyph glyph-name="asterisk" unicode="*" horiz-adv-x="500" 
d="M470 609l-175 -95l175 -95l-28 -48l-164 99v-184h-56v184l-164 -99l-28 48l175 95l-175 95l28 48l164 -99v184h56v-184l164 99z" />
    <glyph glyph-name="plus" unicode="+" horiz-adv-x="838" 
d="M460 627v-272h272v-83h-272v-272h-82v272h-272v83h272v272h82z" />
    <glyph glyph-name="comma" unicode="," horiz-adv-x="318" 
d="M117 124h103v-84l-80 -156h-63l40 156v84z" />
    <glyph glyph-name="hyphen" unicode="-" horiz-adv-x="361" 
d="M49 314h263v-80h-263v80z" />
    <glyph glyph-name="period" unicode="." horiz-adv-x="318" 
d="M107 124h103v-124h-103v124z" />
    <glyph glyph-name="slash" unicode="/" horiz-adv-x="337" 
d="M254 729h83l-254 -822h-83z" />
    <glyph glyph-name="zero" unicode="0" horiz-adv-x="636" 
d="M318 664q-76 0 -114.5 -75t-38.5 -225t38.5 -225t114.5 -75q77 0 115 75t38 225t-38 225t-115 75zM318 742q122 0 187 -97t65 -281t-65 -281t-187 -97q-123 0 -187.5 97t-64.5 281t64.5 281t187.5 97z" />
    <glyph glyph-name="one" unicode="1" horiz-adv-x="636" 
d="M124 83h161v556l-175 -35v90l174 35h99v-646h161v-83h-420v83z" />
    <glyph glyph-name="two" unicode="2" horiz-adv-x="636" 
d="M192 83h344v-83h-463v83l153 156t122 126q48 53 66.5 90t18.5 73q0 58 -40.5 94.5t-106.5 36.5q-46 0 -97.5 -16t-110.5 -49v100q60 24 111.5 36t94.5 12q113 0 180.5 -56.5t67.5 -151.5q0 -45 -16.5 -85t-61.5 -95q-12 -14 -77.5 -81.5z" />
    <glyph glyph-name="three" unicode="3" horiz-adv-x="636" 
d="M406 393q71 -15 110.5 -63t39.5 -118q0 -108 -74 -167t-211 -59q-46 0 -94.5 9t-100.5 27v95q41 -24 90 -36t102 -12q93 0 141.5 36.5t48.5 106.5q0 64 -45 100.5t-126 36.5h-85v81h89q73 0 111.5 29t38.5 84q0 56 -40 86t-114 30q-40 0 -86.5 -8.5t-102.5 -27.5v88
q56 16 105 23.5t93 7.5q112 0 177.5 -51t65.5 -138q0 -60 -34.5 -102t-98.5 -58z" />
    <glyph glyph-name="four" unicode="4" horiz-adv-x="636" 
d="M378 643l-249 -389h249v389zM352 729h124v-475h104v-82h-104v-172h-98v172h-329v95z" />
    <glyph glyph-name="five" unicode="5" horiz-adv-x="636" 
d="M108 729h387v-83h-297v-179q22 8 43.5 11.5t42.5 3.5q122 0 193.5 -67t71.5 -181q0 -118 -73.5 -183t-206.5 -65q-46 0 -93.5 7.5t-98.5 23.5v99q44 -24 91 -35.5t99 -11.5q85 0 134 44.5t49 120.5t-49 120.5t-134 44.5q-39 0 -78.5 -9t-80.5 -27v366z" />
    <glyph glyph-name="six" unicode="6" horiz-adv-x="636" 
d="M330 404q-66 0 -105 -45.5t-39 -124.5t39 -124.5t105 -45.5t105 45.5t39 124.5t-39 124.5t-105 45.5zM526 713v-90q-37 18 -75 27t-75 9q-98 0 -149.5 -66t-58.5 -199q29 43 72.5 65.5t95.5 22.5q110 0 173.5 -66.5t63.5 -181.5q0 -112 -66.5 -180t-176.5 -68
q-126 0 -193 97t-67 281q0 173 82 275.5t220 102.5q37 0 75 -7t79 -22z" />
    <glyph glyph-name="seven" unicode="7" horiz-adv-x="636" 
d="M82 729h469v-42l-265 -687h-103l249 646h-350v83z" />
    <glyph glyph-name="eight" unicode="8" horiz-adv-x="636" 
d="M318 346q-70 0 -110.5 -37.5t-40.5 -103.5t40.5 -103.5t110.5 -37.5t110.5 38t40.5 103q0 66 -40 103.5t-111 37.5zM219 388q-63 16 -98.5 59.5t-35.5 105.5q0 88 62 138.5t171 50.5t171 -50.5t62 -138.5q0 -62 -35.5 -105.5t-98.5 -59.5q71 -16 111 -64.5t40 -118.5
q0 -106 -65 -162.5t-185 -56.5q-121 0 -185.5 56.5t-64.5 162.5q0 70 40 118.5t111 64.5zM183 544q0 -57 35.5 -88.5t99.5 -31.5q63 0 99 31.5t36 88.5t-36 88.5t-99 31.5q-64 0 -99.5 -31.5t-35.5 -88.5z" />
    <glyph glyph-name="nine" unicode="9" horiz-adv-x="636" 
d="M110 15v90q37 -18 75 -27t75 -9q97 0 148.5 65.5t59.5 199.5q-29 -42 -72 -64.5t-96 -22.5q-110 0 -173.5 66t-63.5 181q0 112 66.5 180t176.5 68q127 0 193.5 -97t66.5 -281q0 -173 -82 -275.5t-220 -102.5q-37 0 -75 7t-79 22zM306 324q67 0 105.5 45.5t38.5 124.5
t-38.5 124.5t-105.5 45.5q-66 0 -105 -45.5t-39 -124.5t39 -124.5t105 -45.5z" />
    <glyph glyph-name="colon" unicode=":" horiz-adv-x="337" 
d="M117 124h103v-124h-103v124zM117 517h103v-124h-103v124z" />
    <glyph glyph-name="semicolon" unicode=";" horiz-adv-x="337" 
d="M117 517h103v-124h-103v124zM117 124h103v-84l-80 -156h-63l40 156v84z" />
    <glyph glyph-name="less" unicode="&#x3c;" horiz-adv-x="838" 
d="M732 492l-504 -179l504 -178v-89l-626 227v81l626 227v-89z" />
    <glyph glyph-name="equal" unicode="=" horiz-adv-x="838" 
d="M106 454h626v-82h-626v82zM106 255h626v-83h-626v83z" />
    <glyph glyph-name="greater" unicode="&#x3e;" horiz-adv-x="838" 
d="M106 492v89l626 -227v-81l-626 -227v89l503 178z" />
    <glyph glyph-name="question" unicode="?" horiz-adv-x="531" 
d="M191 124h99v-124h-99v124zM287 196h-93v75q0 49 13.5 81t57.5 74l44 43q28 26 40.5 49t12.5 47q0 43 -32 70t-85 27q-38 0 -82 -17t-91 -50v92q46 28 93 41.5t97 13.5q90 0 144.5 -47.5t54.5 -124.5q0 -37 -17.5 -70.5t-61.5 -75.5l-43 -42q-23 -23 -32.5 -36t-13.5 -25
q-3 -10 -4.5 -25t-1.5 -40v-60z" />
    <glyph glyph-name="at" unicode="@" horiz-adv-x="1000" 
d="M372 262q0 -70 34.5 -109.5t95.5 -39.5q60 0 94.5 40t34.5 109t-35 109t-95 40q-59 0 -94 -40t-35 -109zM638 116q-29 -37 -67 -55t-88 -18q-84 0 -136.5 61t-52.5 158q0 98 52.5 159t136.5 61q50 0 88 -18.5t67 -55.5v64h70v-359q71 11 111.5 65t40.5 141q0 52 -15.5 98
t-46.5 85q-51 64 -124 98t-159 34q-60 0 -115 -16t-102 -47q-77 -50 -120 -131t-43 -175q0 -78 28 -145.5t81 -119.5q51 -51 118.5 -77.5t144.5 -26.5q63 0 123.5 21t111.5 61l44 -54q-61 -48 -133 -73t-146 -25q-90 0 -170.5 32t-142.5 93q-63 61 -95.5 141.5t-32.5 172.5
q0 89 33 169.5t95 141.5q63 62 145.5 95t174.5 33q104 0 192.5 -42.5t148.5 -120.5q37 -48 56 -104t19 -116q0 -129 -77.5 -203t-214.5 -77v75z" />
    <glyph glyph-name="A" unicode="A" horiz-adv-x="684" 
d="M342 632l-134 -363h268zM286 729h112l278 -729h-103l-66 187h-329l-66 -187h-104z" />
    <glyph glyph-name="B" unicode="B" horiz-adv-x="686" 
d="M197 348v-267h158q80 0 118 33t38 101t-38 100.5t-118 32.5h-158zM197 648v-220h146q72 0 107.5 27t35.5 83q0 55 -35.5 82.5t-107.5 27.5h-146zM98 729h252q113 0 174 -47t61 -133q0 -67 -31.5 -106.5t-91.5 -49.5q73 -16 113 -65.5t40 -123.5q0 -98 -66.5 -151
t-188.5 -53h-262v729z" />
    <glyph glyph-name="C" unicode="C" horiz-adv-x="698" 
d="M644 673v-104q-50 46 -106.5 69t-119.5 23q-125 0 -191.5 -76.5t-66.5 -220.5t66.5 -220.5t191.5 -76.5q63 0 119.5 23t106.5 69v-103q-52 -35 -109.5 -52.5t-122.5 -17.5q-165 0 -260.5 101t-95.5 277t95.5 277t260.5 101q66 0 123.5 -17t108.5 -52z" />
    <glyph glyph-name="D" unicode="D" horiz-adv-x="770" 
d="M197 648v-567h119q151 0 221 68.5t70 215.5t-70 215t-221 68h-119zM98 729h203q212 0 311 -88t99 -276t-99.5 -276.5t-310.5 -88.5h-203v729z" />
    <glyph glyph-name="E" unicode="E" horiz-adv-x="632" 
d="M98 729h461v-83h-362v-216h347v-83h-347v-264h371v-83h-470v729z" />
    <glyph glyph-name="F" unicode="F" horiz-adv-x="575" 
d="M98 729h419v-83h-320v-215h289v-83h-289v-348h-99v729z" />
    <glyph glyph-name="G" unicode="G" horiz-adv-x="775" 
d="M595 104v196h-161v81h259v-313q-57 -41 -126 -61.5t-147 -20.5q-171 0 -267.5 100t-96.5 278t96.5 278t267.5 100q71 0 135.5 -17.5t118.5 -51.5v-105q-55 46 -116.5 69.5t-129.5 23.5q-134 0 -201 -74.5t-67 -222.5t67 -222.5t201 -74.5q52 0 93 9t74 28z" />
    <glyph glyph-name="H" unicode="H" horiz-adv-x="752" 
d="M98 729h99v-299h358v299h99v-729h-99v347h-358v-347h-99v729z" />
    <glyph glyph-name="I" unicode="I" horiz-adv-x="295" 
d="M98 729h99v-729h-99v729z" />
    <glyph glyph-name="J" unicode="J" horiz-adv-x="295" 
d="M98 729h99v-678q0 -132 -50 -191.5t-161 -59.5h-38v83h31q65 0 92 36.5t27 131.5v678z" />
    <glyph glyph-name="K" unicode="K" horiz-adv-x="656" 
d="M98 729h99v-308l327 308h127l-362 -340l388 -389h-130l-350 351v-351h-99v729z" />
    <glyph glyph-name="L" unicode="L" horiz-adv-x="557" 
d="M98 729h99v-646h355v-83h-454v729z" />
    <glyph glyph-name="M" unicode="M" horiz-adv-x="863" 
d="M98 729h147l186 -496l187 496h147v-729h-96v640l-188 -500h-99l-188 500v-640h-96v729z" />
    <glyph glyph-name="N" unicode="N" horiz-adv-x="748" 
d="M98 729h133l323 -610v610h96v-729h-133l-323 610v-610h-96v729z" />
    <glyph glyph-name="O" unicode="O" horiz-adv-x="787" 
d="M394 662q-107 0 -170.5 -80t-63.5 -218t63.5 -218t170.5 -80t170 80t63 218t-63 218t-170 80zM394 742q153 0 245 -102.5t92 -275.5t-92 -275.5t-245 -102.5q-154 0 -246 102.5t-92 275.5t92 275.5t246 102.5z" />
    <glyph glyph-name="P" unicode="P" horiz-adv-x="603" 
d="M197 648v-274h124q69 0 106.5 35.5t37.5 101.5t-37.5 101.5t-106.5 35.5h-124zM98 729h223q122 0 185 -55.5t63 -162.5q0 -108 -63 -163t-185 -55h-124v-293h-99v729z" />
    <glyph glyph-name="Q" unicode="Q" horiz-adv-x="787" 
d="M394 662q-107 0 -170.5 -80t-63.5 -218t63.5 -218t170.5 -80t170 80t63 218t-63 218t-170 80zM532 13l130 -142h-119l-108 117l-24.5 -1.5t-16.5 -0.5q-154 0 -246 102.5t-92 275.5t92 275.5t246 102.5q153 0 245 -102.5t92 -275.5q0 -127 -51 -217.5t-148 -133.5z" />
    <glyph glyph-name="R" unicode="R" horiz-adv-x="695" 
d="M444 342q32 -11 62 -46t60 -97l100 -199h-106l-93 187q-36 73 -70 97t-93 24h-107v-308h-99v729h223q125 0 186.5 -52t61.5 -158q0 -69 -32 -114.5t-93 -62.5zM197 648v-259h124q71 0 107.5 33t36.5 97t-36.5 96.5t-107.5 32.5h-124z" />
    <glyph glyph-name="S" unicode="S" horiz-adv-x="635" 
d="M535 705v-96q-56 27 -106 40t-96 13q-81 0 -124.5 -31t-43.5 -89q0 -48 29 -73t110 -40l60 -12q110 -21 162.5 -74t52.5 -142q0 -106 -71 -160.5t-208 -54.5q-52 0 -110.5 11.5t-120.5 34.5v102q60 -34 117.5 -51t113.5 -17q84 0 130 33t46 95q0 54 -33 84t-108 45
l-60 12q-110 22 -159.5 69t-49.5 130q0 97 68 152.5t188 55.5q51 0 104 -9t109 -28z" />
    <glyph glyph-name="T" unicode="T" horiz-adv-x="611" 
d="M-3 729h617v-83h-259v-646h-99v646h-259v83z" />
    <glyph glyph-name="U" unicode="U" horiz-adv-x="732" 
d="M87 729h99v-443q0 -117 42.5 -168.5t137.5 -51.5t137.5 51.5t42.5 168.5v443h99v-455q0 -143 -70.5 -215.5t-208.5 -72.5t-208.5 72.5t-70.5 215.5v455z" />
    <glyph glyph-name="V" unicode="V" horiz-adv-x="684" 
d="M286 0l-278 729h103l231 -614l231 614h103l-278 -729h-112z" />
    <glyph glyph-name="W" unicode="W" horiz-adv-x="989" 
d="M33 729h100l153 -616l153 616h111l153 -616l153 616h100l-183 -729h-124l-154 633l-155 -633h-124z" />
    <glyph glyph-name="X" unicode="X" horiz-adv-x="685" 
d="M63 729h106l181 -271l182 271h106l-234 -350l250 -379h-106l-205 310l-207 -310h-106l260 389z" />
    <glyph glyph-name="Y" unicode="Y" horiz-adv-x="611" 
d="M-2 729h106l202 -300l201 300h106l-258 -382v-347h-99v347z" />
    <glyph glyph-name="Z" unicode="Z" horiz-adv-x="685" 
d="M56 729h573v-75l-461 -571h472v-83h-595v75l461 571h-450v83z" />
    <glyph glyph-name="bracketleft" unicode="[" horiz-adv-x="390" 
d="M86 760h207v-70h-117v-752h117v-70h-207v892z" />
    <glyph glyph-name="backslash" unicode="\" horiz-adv-x="337" 
d="M83 729l254 -822h-83l-254 822h83z" />
    <glyph glyph-name="bracketright" unicode="]" horiz-adv-x="390" 
d="M304 760v-892h-207v70h117v752h-117v70h207z" />
    <glyph glyph-name="asciicircum" unicode="^" horiz-adv-x="838" 
d="M467 729l265 -272h-98l-215 193l-215 -193h-98l265 272h96z" />
    <glyph glyph-name="underscore" unicode="_" horiz-adv-x="500" 
d="M510 -166v-70h-520v70h520z" />
    <glyph glyph-name="grave" unicode="`" horiz-adv-x="500" 
d="M179 800l138 -183h-75l-159 183h96z" />
    <glyph glyph-name="a" unicode="a" horiz-adv-x="613" 
d="M343 275q-109 0 -151 -25t-42 -85q0 -48 31.5 -76t85.5 -28q75 0 120 53t45 141v20h-89zM522 312v-312h-90v83q-31 -50 -76.5 -73.5t-112.5 -23.5q-84 0 -133.5 47t-49.5 126q0 92 62 139t184 47h126v9q0 62 -40.5 96t-114.5 34q-47 0 -91.5 -11.5t-85.5 -33.5v83
q49 19 95.5 28.5t90.5 9.5q119 0 177.5 -61.5t58.5 -186.5z" />
    <glyph glyph-name="b" unicode="b" horiz-adv-x="635" 
d="M487 273q0 99 -41 155.5t-112 56.5t-112 -56.5t-41 -155.5t41 -155.5t112 -56.5t112 56.5t41 155.5zM181 464q28 49 71.5 72.5t103.5 23.5q100 0 162 -79t62 -208t-62 -208t-162 -79q-60 0 -103.5 23.5t-71.5 72.5v-82h-90v760h90v-296z" />
    <glyph glyph-name="c" unicode="c" horiz-adv-x="550" 
d="M488 526v-84q-38 21 -76.5 31.5t-77.5 10.5q-87 0 -135.5 -55.5t-48.5 -155.5t48.5 -155.5t135.5 -55.5q39 0 77.5 10.5t76.5 31.5v-83q-38 -18 -78 -26.5t-86 -8.5q-123 0 -196 77.5t-73 209.5q0 134 73.5 210.5t201.5 76.5q42 0 81.5 -8.5t76.5 -25.5z" />
    <glyph glyph-name="d" unicode="d" horiz-adv-x="635" 
d="M454 464v296h90v-760h-90v82q-28 -49 -71.5 -72.5t-103.5 -23.5q-99 0 -161.5 79t-62.5 208t62.5 208t161.5 79q60 0 103.5 -23.5t71.5 -72.5zM148 273q0 -99 40.5 -155.5t112.5 -56.5q71 0 112 56.5t41 155.5t-41 155.5t-112 56.5q-72 0 -112.5 -56.5t-40.5 -155.5z" />
    <glyph glyph-name="e" unicode="e" horiz-adv-x="615" 
d="M562 296v-44h-413q6 -93 56 -141.5t139 -48.5q52 0 100.5 12.5t96.5 38.5v-85q-48 -21 -99 -31.5t-103 -10.5q-131 0 -207.5 76t-76.5 206q0 134 72.5 213t195.5 79q111 0 175 -71t64 -193zM472 322q-1 74 -41 118t-107 44q-75 0 -120 -42.5t-52 -119.5h320z" />
    <glyph glyph-name="f" unicode="f" horiz-adv-x="352" 
d="M371 760v-75h-86q-48 0 -67 -19.5t-19 -70.5v-48h148v-70h-148v-477h-90v477h-86v70h86v38q0 91 42.5 133t134.5 42h85z" />
    <glyph glyph-name="g" unicode="g" horiz-adv-x="635" 
d="M454 280q0 97 -40 151t-113 54q-72 0 -112.5 -54t-40.5 -151t40.5 -151t112.5 -54q73 0 113 54t40 151zM544 68q0 -140 -62 -208t-190 -68q-47 0 -89 7t-82 22v87q40 -21 78.5 -31.5t78.5 -10.5q88 0 132 46t44 140v44q-28 -48 -71.5 -72t-103.5 -24q-101 0 -162.5 76.5
t-61.5 203.5t61.5 203.5t162.5 76.5q60 0 103.5 -24t71.5 -72v83h90v-479z" />
    <glyph glyph-name="h" unicode="h" horiz-adv-x="634" 
d="M549 330v-330h-90v327q0 78 -30.5 116.5t-90.5 38.5q-73 0 -115 -46.5t-42 -126.5v-309h-90v760h90v-298q32 49 76 73.5t101 24.5q94 0 142.5 -58.5t48.5 -171.5z" />
    <glyph glyph-name="i" unicode="i" horiz-adv-x="278" 
d="M94 547h90v-547h-90v547zM94 760h90v-114h-90v114z" />
    <glyph glyph-name="j" unicode="j" horiz-adv-x="278" 
d="M94 547h90v-557q0 -104 -40 -151t-128 -47h-34v76h24q51 0 69.5 24t18.5 98v557zM94 760h90v-114h-90v114z" />
    <glyph glyph-name="k" unicode="k" horiz-adv-x="579" 
d="M91 760h90v-449l268 236h115l-290 -256l302 -291h-117l-278 267v-267h-90v760z" />
    <glyph glyph-name="l" unicode="l" horiz-adv-x="278" 
d="M94 760h90v-760h-90v760z" />
    <glyph glyph-name="m" unicode="m" horiz-adv-x="974" 
d="M520 442q34 60 80.5 89t110.5 29q85 0 131.5 -60t46.5 -170v-330h-90v327q0 79 -28 117t-85 38q-70 0 -110.5 -46.5t-40.5 -126.5v-309h-90v327q0 79 -28 117t-86 38q-69 0 -109.5 -46.5t-40.5 -126.5v-309h-90v547h90v-85q31 50 74 74t102 24q60 0 101.5 -30t61.5 -88z
" />
    <glyph glyph-name="n" unicode="n" horiz-adv-x="634" 
d="M549 330v-330h-90v327q0 78 -30.5 116.5t-90.5 38.5q-73 0 -115 -46.5t-42 -126.5v-309h-90v547h90v-85q32 49 76 73.5t101 24.5q94 0 142.5 -58.5t48.5 -171.5z" />
    <glyph glyph-name="o" unicode="o" horiz-adv-x="612" 
d="M306 484q-72 0 -114 -56.5t-42 -154.5t41.5 -154.5t114.5 -56.5q72 0 114 56.5t42 154.5q0 97 -42 154t-114 57zM306 560q117 0 184 -76t67 -211q0 -134 -67 -210.5t-184 -76.5q-118 0 -184.5 76.5t-66.5 210.5q0 135 66.5 211t184.5 76z" />
    <glyph glyph-name="p" unicode="p" horiz-adv-x="635" 
d="M181 82v-290h-90v755h90v-83q28 49 71.5 72.5t103.5 23.5q100 0 162 -79t62 -208t-62 -208t-162 -79q-60 0 -103.5 23.5t-71.5 72.5zM487 273q0 99 -41 155.5t-112 56.5t-112 -56.5t-41 -155.5t41 -155.5t112 -56.5t112 56.5t41 155.5z" />
    <glyph glyph-name="q" unicode="q" horiz-adv-x="635" 
d="M148 273q0 -99 40.5 -155.5t112.5 -56.5q71 0 112 56.5t41 155.5t-41 155.5t-112 56.5q-72 0 -112.5 -56.5t-40.5 -155.5zM454 82q-28 -49 -71.5 -72.5t-103.5 -23.5q-99 0 -161.5 79t-62.5 208t62.5 208t161.5 79q60 0 103.5 -23.5t71.5 -72.5v83h90v-755h-90v290z" />
    <glyph glyph-name="r" unicode="r" horiz-adv-x="411" 
d="M411 463q-15 9 -33 13t-39 4q-76 0 -117 -49.5t-41 -142.5v-288h-90v547h90v-85q28 50 73.5 74t110.5 24q10 0 21 -1t25 -4v-92z" />
    <glyph glyph-name="s" unicode="s" horiz-adv-x="521" 
d="M443 531v-85q-38 19 -79 29t-85 10q-67 0 -100.5 -20.5t-33.5 -61.5q0 -31 24 -49t96 -34l31 -7q96 -21 136 -58t40 -104q0 -76 -60 -120.5t-166 -44.5q-44 0 -91.5 8.5t-100.5 25.5v93q50 -26 98.5 -39t95.5 -13q64 0 98 21.5t34 61.5q0 37 -24.5 56.5t-108.5 37.5
l-31 7q-84 18 -121 54t-37 100q0 77 54.5 119t155.5 42q50 0 94 -7.5t81 -21.5z" />
    <glyph glyph-name="t" unicode="t" horiz-adv-x="392" 
d="M183 702v-155h185v-70h-185v-297q0 -67 18.5 -86t74.5 -19h92v-75h-92q-104 0 -143.5 39t-39.5 141v297h-66v70h66v155h90z" />
    <glyph glyph-name="u" unicode="u" horiz-adv-x="634" 
d="M85 216v331h90v-328q0 -77 30 -116t91 -39q73 0 115 46.5t42 126.5v310h90v-547h-90v84q-33 -50 -76 -74t-100 -24q-94 0 -143 58.5t-49 171.5z" />
    <glyph glyph-name="v" unicode="v" horiz-adv-x="592" 
d="M30 547h95l171 -459l171 459h95l-205 -547h-122z" />
    <glyph glyph-name="w" unicode="w" horiz-adv-x="818" 
d="M42 547h90l112 -427l112 427h106l112 -427l112 427h90l-143 -547h-106l-118 448l-118 -448h-106z" />
    <glyph glyph-name="x" unicode="x" horiz-adv-x="592" 
d="M549 547l-198 -266l208 -281h-106l-159 215l-159 -215h-106l212 286l-194 261h106l145 -195l145 195h106z" />
    <glyph glyph-name="y" unicode="y" horiz-adv-x="592" 
d="M322 -51q-38 -97 -74.5 -127t-96.5 -30h-72v75h53q37 0 57.5 17.5t45.5 83.5l16 41l-221 538h95l171 -428l171 428h95z" />
    <glyph glyph-name="z" unicode="z" horiz-adv-x="525" 
d="M55 547h427v-82l-338 -393h338v-72h-439v82l338 393h-326v72z" />
    <glyph glyph-name="braceleft" unicode="{" horiz-adv-x="636" 
d="M511 -93v-70h-30q-122 0 -163 36t-41 144v117q0 74 -26.5 102t-95.5 28h-30v70h30q70 0 96 28t26 101v117q0 108 41 144t163 36h30v-70h-33q-69 0 -90 -21.5t-21 -90.5v-121q0 -77 -22 -111.5t-76 -46.5q54 -13 76 -48t22 -111v-121q0 -69 21 -90.5t90 -21.5h33z" />
    <glyph glyph-name="bar" unicode="|" horiz-adv-x="337" 
d="M210 764v-1000h-83v1000h83z" />
    <glyph glyph-name="braceright" unicode="}" horiz-adv-x="636" 
d="M125 -93h34q69 0 89.5 21t20.5 91v121q0 76 22 111t76 48q-54 12 -76 46.5t-22 111.5v121q0 69 -20.5 90.5t-89.5 21.5h-34v70h31q121 0 162 -36t41 -144v-117q0 -73 26.5 -101t95.5 -28h30v-70h-30q-69 0 -95.5 -28t-26.5 -102v-117q0 -108 -41 -144t-162 -36h-31v70z
" />
    <glyph glyph-name="asciitilde" unicode="~" horiz-adv-x="838" 
d="M732 399v-87q-51 -39 -95 -55.5t-91 -16.5q-54 0 -125 29q-5 2 -8 3t-11 4q-75 30 -121 30q-43 0 -85 -18.5t-90 -59.5v87q51 39 95 55.5t91 16.5q54 0 125 -29q5 -2 8 -3q4 -1 11 -4q75 -30 121 -30q42 0 83.5 18.5t91.5 59.5z" />
    <glyph glyph-name="cent" unicode="&#xa2;" horiz-adv-x="636" 
d="M331 64v418q-72 -9 -112 -64t-40 -145t40 -145.5t112 -63.5zM517 526v-84q-36 20 -69 30t-67 12v-422q34 2 67.5 12.5t68.5 29.5v-83q-32 -15 -65.5 -23.5t-70.5 -11.5v-139h-50v141q-118 10 -182.5 84.5t-64.5 200.5t64.5 200.5t182.5 85.5v140h50v-140q36 -2 69.5 -10
t66.5 -23z" />
    <glyph glyph-name="cent" unicode="&#xc7;" horiz-adv-x="636" 
d="M331 64v418q-72 -9 -112 -64t-40 -145t40 -145.5t112 -63.5zM517 526v-84q-36 20 -69 30t-67 12v-422q34 2 67.5 12.5t68.5 29.5v-83q-32 -15 -65.5 -23.5t-70.5 -11.5v-139h-50v141q-118 10 -182.5 84.5t-64.5 200.5t64.5 200.5t182.5 85.5v140h50v-140q36 -2 69.5 -10
t66.5 -23z" />
    <glyph glyph-name="sterling" unicode="&#xa3;" horiz-adv-x="636" 
d="M538 713v-89q-37 20 -70 30t-63 10q-72 0 -100.5 -38t-28.5 -141v-105h191v-70h-191v-227h272v-83h-485v83h115v227h-97v70h97v116q0 128 52.5 187t165.5 59q30 0 67 -7.5t75 -21.5z" />
    <glyph glyph-name="sterling" unicode="&#xc9;" horiz-adv-x="636" 
d="M538 713v-89q-37 20 -70 30t-63 10q-72 0 -100.5 -38t-28.5 -141v-105h191v-70h-191v-227h272v-83h-485v83h115v227h-97v70h97v116q0 128 52.5 187t165.5 59q30 0 67 -7.5t75 -21.5z" />
    <glyph glyph-name="yen" unicode="&#xa5;" horiz-adv-x="636" 
d="M569 222h-202v-222h-98v222h-203v60h203v25l-41 76h-162v60h129l-155 286h93l185 -342l184 342h93l-155 -286h129v-60h-162l-41 -76v-25h203v-60z" />
    <glyph glyph-name="brokenbar" unicode="&#xa6;" horiz-adv-x="337" 
d="M210 199v-370h-83v370h83zM210 699v-370h-83v370h83z" />
    <glyph glyph-name="copyright" unicode="&#xa9;" horiz-adv-x="1000" 
d="M500 725q74 0 138.5 -27t117.5 -80t79.5 -117t26.5 -139q0 -74 -26.5 -138t-79.5 -117t-117.5 -80t-138.5 -27t-138.5 27t-117.5 80t-79.5 117t-26.5 138q0 75 26.5 139t79.5 117t117.5 80t138.5 27zM500 675q-64 0 -119 -23t-101 -69t-69.5 -102t-23.5 -119t23.5 -118.5
t69.5 -101.5t101 -69t119 -23t119.5 23t101.5 69q46 45 68.5 100.5t22.5 119.5q0 65 -23 120.5t-68 100.5q-46 46 -101.5 69t-119.5 23zM646 555v-63q-32 16 -64 24t-64 8q-73 0 -113.5 -43t-40.5 -119q0 -78 41.5 -120.5t117.5 -42.5q31 0 61 7.5t62 24.5v-62
q-33 -14 -66.5 -21t-67.5 -7q-105 0 -166.5 59.5t-61.5 161.5t61.5 161t166.5 59q36 0 69 -7t65 -20z" />
    <glyph glyph-name="copyright" unicode="&#xe2;" horiz-adv-x="1000" 
d="M500 725q74 0 138.5 -27t117.5 -80t79.5 -117t26.5 -139q0 -74 -26.5 -138t-79.5 -117t-117.5 -80t-138.5 -27t-138.5 27t-117.5 80t-79.5 117t-26.5 138q0 75 26.5 139t79.5 117t117.5 80t138.5 27zM500 675q-64 0 -119 -23t-101 -69t-69.5 -102t-23.5 -119t23.5 -118.5
t69.5 -101.5t101 -69t119 -23t119.5 23t101.5 69q46 45 68.5 100.5t22.5 119.5q0 65 -23 120.5t-68 100.5q-46 46 -101.5 69t-119.5 23zM646 555v-63q-32 16 -64 24t-64 8q-73 0 -113.5 -43t-40.5 -119q0 -78 41.5 -120.5t117.5 -42.5q31 0 61 7.5t62 24.5v-62
q-33 -14 -66.5 -21t-67.5 -7q-105 0 -166.5 59.5t-61.5 161.5t61.5 161t166.5 59q36 0 69 -7t65 -20z" />
    <glyph glyph-name="guillemotleft" unicode="&#xab;" horiz-adv-x="612" 
d="M518 517v-93l-147 -131l147 -131v-93l-229 204v40zM306 517v-93l-147 -131l147 -131v-93l-229 204v40z" />
    <glyph glyph-name="guillemotleft" unicode="&#xe3;" horiz-adv-x="612" 
d="M518 517v-93l-147 -131l147 -131v-93l-229 204v40zM306 517v-93l-147 -131l147 -131v-93l-229 204v40z" />
    <glyph glyph-name="registered" unicode="&#xae;" horiz-adv-x="1000" 
d="M500 675q-64 0 -119 -23t-101 -69t-69.5 -102t-23.5 -119t23.5 -118.5t69.5 -101.5t101 -69t119 -23t119.5 23t101.5 69q46 45 68.5 100.5t22.5 119.5q0 65 -23 120.5t-68 100.5q-46 46 -101.5 69t-119.5 23zM500 725q74 0 138.5 -27t117.5 -80t79.5 -117t26.5 -139
q0 -74 -26.5 -138t-79.5 -117t-117.5 -80t-138.5 -27t-138.5 27t-117.5 80t-79.5 117t-26.5 138q0 75 26.5 139t79.5 117t117.5 80t138.5 27zM487 523h-60v-135h60q54 0 75 15t21 52t-21.5 52.5t-74.5 15.5zM490 573q86 0 128.5 -29t42.5 -88q0 -42 -25.5 -69.5t-72.5 -35.5
q12 -4 28 -22.5t39 -54.5l67 -109h-84l-63 102q-29 47 -47 59.5t-44 12.5h-32v-174h-76v408h139z" />
    <glyph glyph-name="registered" unicode="&#xe9;" horiz-adv-x="1000" 
d="M500 675q-64 0 -119 -23t-101 -69t-69.5 -102t-23.5 -119t23.5 -118.5t69.5 -101.5t101 -69t119 -23t119.5 23t101.5 69q46 45 68.5 100.5t22.5 119.5q0 65 -23 120.5t-68 100.5q-46 46 -101.5 69t-119.5 23zM500 725q74 0 138.5 -27t117.5 -80t79.5 -117t26.5 -139
q0 -74 -26.5 -138t-79.5 -117t-117.5 -80t-138.5 -27t-138.5 27t-117.5 80t-79.5 117t-26.5 138q0 75 26.5 139t79.5 117t117.5 80t138.5 27zM487 523h-60v-135h60q54 0 75 15t21 52t-21.5 52.5t-74.5 15.5zM490 573q86 0 128.5 -29t42.5 -88q0 -42 -25.5 -69.5t-72.5 -35.5
q12 -4 28 -22.5t39 -54.5l67 -109h-84l-63 102q-29 47 -47 59.5t-44 12.5h-32v-174h-76v408h139z" />
    <glyph glyph-name="degree" unicode="&#xb0;" horiz-adv-x="500" 
d="M250 679q-39 0 -66 -27t-27 -66t27 -65.5t66 -26.5t66 26.5t27 65.5t-27 66t-66 27zM250 742q31 0 60 -12t50 -34q22 -22 33.5 -50t11.5 -60q0 -65 -45.5 -109.5t-110.5 -44.5q-66 0 -110 44t-44 110q0 65 45 110.5t110 45.5z" />
    <glyph glyph-name="degree" unicode="&#xea;" horiz-adv-x="500" 
d="M250 679q-39 0 -66 -27t-27 -66t27 -65.5t66 -26.5t66 26.5t27 65.5t-27 66t-66 27zM250 742q31 0 60 -12t50 -34q22 -22 33.5 -50t11.5 -60q0 -65 -45.5 -109.5t-110.5 -44.5q-66 0 -110 44t-44 110q0 65 45 110.5t110 45.5z" />
    <glyph glyph-name="paragraph" unicode="&#xb6;" horiz-adv-x="636" 
d="M309 729h219v-825h-69v765h-93v-765h-69v413q-105 8 -162.5 62t-57.5 144q0 93 63.5 149.5t168.5 56.5z" />
    <glyph glyph-name="paragraph" unicode="&#xf1;" horiz-adv-x="636" 
d="M309 729h219v-825h-69v765h-93v-765h-69v413q-105 8 -162.5 62t-57.5 144q0 93 63.5 149.5t168.5 56.5z" />
    <glyph glyph-name="guillemotright" unicode="&#xbb;" horiz-adv-x="612" 
d="M94 517l229 -204v-40l-229 -204v93l147 131l-147 131v93zM306 517l229 -204v-40l-229 -204v93l147 131l-147 131v93z" />
    <glyph glyph-name="guillemotright" unicode="&#xf5;" horiz-adv-x="612" 
d="M94 517l229 -204v-40l-229 -204v93l147 131l-147 131v93zM306 517l229 -204v-40l-229 -204v93l147 131l-147 131v93z" />
    <glyph glyph-name="Odieresis" unicode="&#xd6;" horiz-adv-x="787" 
d="M394 662q-107 0 -170.5 -80t-63.5 -218t63.5 -218t170.5 -80t170 80t63 218t-63 218t-170 80zM394 742q153 0 245 -102.5t92 -275.5t-92 -275.5t-245 -102.5q-154 0 -246 102.5t-92 275.5t92 275.5t246 102.5zM440 913h99v-99h-99v99zM249 913h99v-99h-99v99z" />
    <glyph glyph-name="Odieresis" unicode="&#x2202;" horiz-adv-x="787" 
d="M394 662q-107 0 -170.5 -80t-63.5 -218t63.5 -218t170.5 -80t170 80t63 218t-63 218t-170 80zM394 742q153 0 245 -102.5t92 -275.5t-92 -275.5t-245 -102.5q-154 0 -246 102.5t-92 275.5t92 275.5t246 102.5zM440 913h99v-99h-99v99zM249 913h99v-99h-99v99z" />
    <glyph glyph-name="multiply" unicode="&#xd7;" horiz-adv-x="838" 
d="M701 537l-223 -224l223 -223l-58 -59l-224 224l-224 -224l-58 59l223 223l-223 224l58 59l224 -224l224 224z" />
    <glyph glyph-name="multiply" unicode="&#x2211;" horiz-adv-x="838" 
d="M701 537l-223 -224l223 -223l-58 -59l-224 224l-224 -224l-58 59l223 223l-223 224l58 59l224 -224l224 224z" />
    <glyph glyph-name="Udieresis" unicode="&#xba;" horiz-adv-x="732" 
d="M87 729h99v-443q0 -117 42.5 -168.5t137.5 -51.5t137.5 51.5t42.5 168.5v443h99v-455q0 -143 -70.5 -215.5t-208.5 -72.5t-208.5 72.5t-70.5 215.5v455zM412 913h99v-99h-99v99zM221 913h99v-99h-99v99z" />
    <glyph glyph-name="Udieresis" unicode="&#xdc;" horiz-adv-x="732" 
d="M87 729h99v-443q0 -117 42.5 -168.5t137.5 -51.5t137.5 51.5t42.5 168.5v443h99v-455q0 -143 -70.5 -215.5t-208.5 -72.5t-208.5 72.5t-70.5 215.5v455zM412 913h99v-99h-99v99zM221 913h99v-99h-99v99z" />
    <glyph glyph-name="odieresis" unicode="&#xf6;" horiz-adv-x="612" 
d="M306 484q-72 0 -114 -56.5t-42 -154.5t41.5 -154.5t114.5 -56.5q72 0 114 56.5t42 154.5q0 97 -42 154t-114 57zM306 560q117 0 184 -76t67 -211q0 -134 -67 -210.5t-184 -76.5q-118 0 -184.5 76.5t-66.5 210.5q0 135 66.5 211t184.5 76zM352 758h99v-99h-99v99zM161 758
h99v-99h-99v99z" />
    <glyph glyph-name="divide" unicode="&#xf7;" horiz-adv-x="838" 
d="M359 554h120v-120h-120v120zM359 193h120v-120h-120v120zM106 355h626v-83h-626v83z" />
    <glyph glyph-name="divide" unicode="&#x25ca;" horiz-adv-x="838" 
d="M359 554h120v-120h-120v120zM359 193h120v-120h-120v120zM106 355h626v-83h-626v83z" />
    <glyph glyph-name="udieresis" unicode="&#xfc;" horiz-adv-x="634" 
d="M85 216v331h90v-328q0 -77 30 -116t91 -39q73 0 115 46.5t42 126.5v310h90v-547h-90v84q-33 -50 -76 -74t-100 -24q-94 0 -143 58.5t-49 171.5zM356 758h99v-99h-99v99zM165 758h99v-99h-99v99z" />
    <glyph glyph-name="Amacron" unicode="&#xb7;" horiz-adv-x="684" 
d="M196 899h292v-72h-292v72zM342 632l-134 -363h268zM286 729h112l278 -729h-103l-66 187h-329l-66 -187h-104z" />
    <glyph glyph-name="Amacron" unicode="&#x100;" horiz-adv-x="684" 
d="M196 899h292v-72h-292v72zM342 632l-134 -363h268zM286 729h112l278 -729h-103l-66 187h-329l-66 -187h-104z" />
    <glyph glyph-name="amacron" unicode="&#x101;" horiz-adv-x="613" 
d="M140 745h292v-72h-292v72zM343 275q-109 0 -151 -25t-42 -85q0 -48 31.5 -76t85.5 -28q75 0 120 53t45 141v20h-89zM522 312v-312h-90v83q-31 -50 -76.5 -73.5t-112.5 -23.5q-84 0 -133.5 47t-49.5 126q0 92 62 139t184 47h126v9q0 62 -40.5 96t-114.5 34
q-47 0 -91.5 -11.5t-85.5 -33.5v83q49 19 95.5 28.5t90.5 9.5q119 0 177.5 -61.5t58.5 -186.5z" />
    <glyph glyph-name="Emacron" unicode="&#x112;" horiz-adv-x="632" 
d="M98 729h461v-83h-362v-216h347v-83h-347v-264h371v-83h-470v729zM183 900h292v-72h-292v72z" />
    <glyph glyph-name="Emacron" unicode="&#x201e;" horiz-adv-x="632" 
d="M98 729h461v-83h-362v-216h347v-83h-347v-264h371v-83h-470v729zM183 900h292v-72h-292v72z" />
    <glyph glyph-name="emacron" unicode="&#x113;" horiz-adv-x="615" 
d="M177 745h292v-72h-292v72zM562 296v-44h-413q6 -93 56 -141.5t139 -48.5q52 0 100.5 12.5t96.5 38.5v-85q-48 -21 -99 -31.5t-103 -10.5q-131 0 -207.5 76t-76.5 206q0 134 72.5 213t195.5 79q111 0 175 -71t64 -193zM472 322q-1 74 -41 118t-107 44q-75 0 -120 -42.5
t-52 -119.5h320z" />
    <glyph glyph-name="emacron" unicode="&#x2030;" horiz-adv-x="615" 
d="M177 745h292v-72h-292v72zM562 296v-44h-413q6 -93 56 -141.5t139 -48.5q52 0 100.5 12.5t96.5 38.5v-85q-48 -21 -99 -31.5t-103 -10.5q-131 0 -207.5 76t-76.5 206q0 134 72.5 213t195.5 79q111 0 175 -71t64 -193zM472 322q-1 74 -41 118t-107 44q-75 0 -120 -42.5
t-52 -119.5h320z" />
    <glyph glyph-name="florin" unicode="&#x192;" horiz-adv-x="352" 
d="M371 760v-75h-86q-48 0 -67 -19.5t-19 -70.5v-48h148v-70h-148v-510q0 -92 -42.5 -133.5t-134.5 -41.5h-85v75h86q48 0 67 19.5t19 70.5v520h-86v70h86v38q0 91 42.5 133t134.5 42h85z" />
    <glyph glyph-name="tilde" unicode="&#x2dc;" horiz-adv-x="500" 
d="M248 669l-28 27q-11 10 -19 14.5t-14 4.5q-19 0 -27.5 -18t-9.5 -58h-61q1 66 26 102t69 36q19 0 34.5 -7t33.5 -23l28 -27q11 -10 19 -14.5t14 -4.5q19 0 27.5 18t9.5 58h61q-1 -66 -26 -102t-69 -36q-19 0 -34.5 7t-33.5 23z" />
    <glyph glyph-name="C_KA" unicode="&#x1000;" horiz-adv-x="1118" 
d="M172 -10q-17 0 -17 0.5t7 0.5q-48 21 -82 56q-80 86 -80 229q0 124 81 204q83 80 207 80q123 0 203 -80l19 -21q9 11 19 21q83 80 207 80q123 0 203 -80q79 -79 79 -204q0 -124 -80 -206q-80 -80 -202 -80q-40 0 -74 7q-2 0 -3 0.5t-15 0.5l34 83q19 -3 30.5 -4t27.5 -1
q87 0 141 57q58 58 58 143q0 84 -58 141q-54 57 -141 57q-86 0 -145 -56q-10 -11 -19.5 -23t-14.5 -23q7 -21 10 -45.5t3 -50.5q0 -71 -20 -127t-60 -101q-17 -18 -36.5 -32t-44.5 -24q1 0 0.5 -0.5t-11.5 -0.5l-20 40t-9 19t-3 9v8q23 11 36 21t27 23q29 32 43.5 72.5
t14.5 92.5q0 84 -58 141q-54 57 -141 57q-86 0 -145 -56q-57 -57 -57 -142q0 -54 14 -95t41 -72q13 -13 25.5 -21t29.5 -16l12 -9z" />
    <glyph glyph-name="C_KHA" unicode="&#x1001;" horiz-adv-x="669" 
d="M21 394q13 30 27 49.5t32 36.5q83 80 207 80q123 0 203 -80q79 -79 79 -204q0 -124 -80 -206q-80 -80 -202 -80q-129 0 -208 79q-31 30 -51 68q-11 19 -19.5 38.5t-8.5 38.5t11 36t36.5 28.5t65 18t98.5 6.5q123 0 203 -80q23 -24 41 -56q12 18 21 48t9 61q0 84 -57 141
q-56 57 -141 57q-88 0 -145 -56q-26 -26 -43 -62zM141 131q56 -55 146 -55q58 0 104 27q-5 11 -16 27.5t-23 29.5q-57 57 -141 57q-64 0 -109 -30q13 -30 39 -56z" />
    <glyph glyph-name="C_GA" unicode="&#x1002;" horiz-adv-x="670" 
d="M169 -15q-55 24 -89 59q-80 86 -80 232q0 124 81 204q83 80 207 80q123 0 203 -80q79 -79 79 -204q0 -142 -80 -231q-17 -18 -36.5 -32t-51.5 -27l-20 37.5t-21 39.5q27 12 40.5 22t27.5 23q57 64 57 168q0 84 -57 141q-56 57 -141 57q-88 0 -145 -56q-58 -57 -58 -142
q0 -106 56 -170q12 -13 25 -21t38 -20z" />
    <glyph glyph-name="C_GHA" unicode="&#x1003;" horiz-adv-x="1118" 
d="M0 275q1 35 10.5 53.5t24 27.5t29 9.5t24.5 0.5q8 0 10.5 -0.5t5.5 1.5q23 1 37.5 16t14.5 36q0 11 -4.5 22t-11.5 19.5t-17 14t-19 5.5q-21 0 -46 -25l-52 69q25 20 47.5 28.5t48.5 8.5q29 0 55 -11t44.5 -30t30 -44.5t11.5 -54.5t-11.5 -55t-30 -44.5t-44.5 -30
t-55 -11.5q-4 0 -10.5 0.5t-5.5 0.5v-6q0 -87 57 -142q60 -57 145 -57t141 57q58 57 58 142q0 104 -58 168q-12 11 -26.5 22t-40.5 23l41 77q52 -24 87 -59q80 -91 80 -231q0 -52 -14 -97q5 -10 14.5 -23t20.5 -23q29 -27 65.5 -42t79.5 -15q85 0 141 57q58 57 58 142
t-58 143q-56 57 -141 57q-28 0 -59 -5l-27 80q29 8 47.5 9.5t38.5 1.5q122 0 202 -81q80 -80 80 -205t-79 -204q-80 -80 -203 -80q-124 0 -207 80l-20 20q-1 -1 -7 -7.5l-11 -11.5q-80 -80 -203 -80q-124 0 -207 80q-81 79 -81 204z" />
    <glyph glyph-name="C_NGA" unicode="&#x1004;" horiz-adv-x="670" 
d="M549 156q-24 -54 -59 -87q-79 -79 -208 -79q-123 0 -203 80q-79 80 -79 206q0 125 79 204q80 80 203 80q124 0 207 -80q19 -18 33.5 -38t27.5 -52q-27 -12 -40.5 -18.5t-39.5 -15.5q-12 23 -21 36t-22 26q-56 56 -145 56q-85 0 -142 -57q-56 -58 -56 -141q0 -82 56 -143
q57 -57 142 -57q90 0 146 55q10 10 20.5 25t22.5 37z" />
    <glyph glyph-name="C_CA" unicode="&#x1005;" horiz-adv-x="670" 
d="M0 268q0 129 79 208q80 80 207 80q123 0 204 -82q80 -82 80 -206q0 -123 -80 -203q-80 -79 -204 -79q-126 0 -206 79q-80 80 -80 203zM484 268q0 86 -56 145q-57 57 -142 57q-46 0 -81 -14q63 -75 63 -188q0 -110 -62 -184q12 -4 35 -9.5t45 -5.5q84 0 141 57t57 142z
M85 268q0 -78 49 -132q48 54 48 132q0 80 -51 138q-46 -56 -46 -138z" />
    <glyph glyph-name="C_CHA" unicode="&#x1006;" horiz-adv-x="1117" 
d="M211 303q123 0 203 -80q12 -12 23.5 -29.5l17.5 -26.5q31 48 31 109q0 84 -58 141q-54 57 -141 57q-86 0 -145 -56q-25 -26 -42 -63q-27 11 -41 17.5t-40 17.5q25 54 61 90q83 80 207 80q123 0 203 -80l19 -21q9 11 19 21q83 80 207 80q123 0 203 -80q79 -79 79 -204
q0 -124 -80 -206q-80 -80 -202 -80q-129 0 -208 79q-1 1 -9.5 10.5t-9.5 11.5q-3 -4 -9 -10.5l-10 -10.5q-80 -80 -202 -80q-129 0 -208 79q-16 14 -27.5 31t-23.5 37q-11 19 -19.5 38.5t-8.5 38.5t11 36t36.5 28.5t65 18t98.5 6.5zM589 131q58 -55 146 -55q87 0 141 57
q58 58 58 143q0 84 -58 141q-54 57 -141 57q-86 0 -145 -56q-10 -11 -19.5 -23t-14.5 -23q7 -21 10 -45.5t3 -50.5q0 -54 -14 -99q5 -11 14.5 -23t19.5 -23zM141 131q58 -55 146 -55q59 0 105 27q-13 30 -40 57q-56 57 -141 57q-31 0 -60 -8t-49 -21q6 -12 16 -28t23 -29z
" />
    <glyph glyph-name="C_JA" unicode="&#x1007;" horiz-adv-x="670" 
d="M351 360q0 -25 16 -41t41 -16q19 0 35 11t21 27q2 11 2 18v12q-4 19 -21 33.5t-37 14.5q-25 0 -41 -17t-16 -42zM266 358q0 35 21 69t33 43q24 0 15 1t-18 1.5t-17 1t-12 0.5q-86 0 -145 -56q-57 -57 -57 -142q0 -87 56 -145q58 -55 146 -55q40 0 70.5 10t64.5 41l62 -62
q-46 -44 -92.5 -59.5t-104.5 -15.5q-129 0 -208 79q-80 80 -80 207q0 124 81 204q85 80 207 80q123 0 203 -80l17.5 -19.5t15.5 -21.5q10 -19 16.5 -39t6.5 -42q0 -17 -5 -35q3 -81 64 -142l-62 -62q-31 30 -47.5 60t-24.5 55q-30 -16 -66 -16q-29 0 -54.5 11t-44.5 30
t-30 44.5t-11 54.5z" />
    <glyph glyph-name="C_JHA" unicode="&#x1008;" horiz-adv-x="820" 
d="M429 -407q-17 0 -30 7.5t-22 20t-14 27t-5 29.5l-1 316q-33 -7 -71 -7q-126 0 -206 79q-80 80 -80 203q0 129 79 208q80 80 207 80q125 0 204 -82q80 -82 80 -206q0 -123 -80 -203q-13 -12 -25.5 -21.5l-22.5 -17.5v-291q-1 -16 3.5 -26.5t13 -17t20.5 -10t25 -4.5h44
q24 0 41.5 2t26.5 8t13.5 17t4.5 31v825h86v-878q-1 -38 -18 -64t-54 -26zM484 268q0 88 -56 145t-142 57q-22 0 -45 -4.5t-36 -9.5q63 -75 63 -188q0 -110 -62 -184q12 -4 35 -9.5t45 -5.5q84 0 141 57q57 56 57 142zM86 268q0 -39 13.5 -74t34.5 -58q21 23 34.5 58
t13.5 74q0 81 -50 138q-46 -54 -46 -138z" />
    <glyph glyph-name="C_NYA" unicode="&#x1009;" horiz-adv-x="652" 
d="M86 -408q-86 -3 -86 90v471l53 26l28 14q13 -24 23 -37.5t20 -24.5q58 -55 146 -55q87 0 141 57q58 58 58 143q0 84 -58 141q-54 57 -141 57q-86 0 -145 -56q-24 -24 -42 -63q-27 11 -41 17.5t-40 17.5q25 54 61 90q83 80 207 80q123 0 203 -80q79 -79 79 -204
q0 -124 -80 -206q-80 -80 -202 -80q-110 0 -185 58v-371h835v63q-3 16 -18.5 23t-45.5 6v78q64 1 102.5 -26t40.5 -82v-51q-2 -39 -23.5 -63t-57.5 -33h-832z" />
    <glyph glyph-name="C_NNYA" unicode="&#x100a;" horiz-adv-x="1100" 
d="M642 552q39 8 74 8q123 0 203 -80q79 -79 79 -204q0 -124 -80 -206q-80 -80 -202 -80q-129 0 -208 79q-1 1 -9.5 10.5t-10.5 11.5l-8 -10.5t-10 -10.5q-80 -80 -202 -80q-108 0 -183 57v-370h836v64q-3 16 -18.5 23t-45.5 6v78q64 1 102.5 -26t40.5 -82v-51
q-2 -39 -23 -63t-58 -33h-833q-86 -3 -86 90v471q24 11 39 19t41 20q12 -25 21 -38t21 -24q60 -55 146 -55q85 0 141 57q57 57 57 143q0 85 -57 141q-56 57 -141 57q-86 0 -145 -56q-13 -13 -22 -26t-21 -37q-27 11 -40.5 17.5t-39.5 17.5q13 31 28.5 52t32.5 38
q83 80 207 80q123 0 203 -80q79 -79 79 -204q0 -55 -15 -99l16 -22.5t19 -23.5q58 -55 146 -55q85 0 141 57q57 57 57 143q0 85 -57 141q-56 57 -141 57q-22 0 -51 -4z" />
    <glyph glyph-name="C_TTA" unicode="&#x100b;" horiz-adv-x="670" 
d="M469 -185q-43 -22 -93.5 -36.5t-96.5 -14.5q-45 0 -87.5 11.5t-120.5 50.5h8l-51 31v113q24 12 39.5 26.5t41.5 27.5q48 -28 93.5 -41.5t86.5 -13.5q46 0 92 15t88 41v26q-76 -61 -188 -61q-122 0 -202 80q-79 80 -79 206q0 125 79 204q80 80 202 80q124 0 207 -80
q19 -18 33.5 -38t28.5 -52l-41 -18.5t-40 -15.5q-17 36 -42 62q-57 56 -146 56q-85 0 -141 -57q-57 -57 -57 -141q0 -83 57 -143q56 -57 141 -57q89 0 147 55q10 10 20 25t21 37l42 -19l38 -18v-183l-43 -22h7q-89 -39 -135 -53t-95 -14q-43 0 -89.5 13.5t-86.5 34.5v-29
q87 -48 180 -48q43 0 86.5 10.5t95.5 37.5q25 -19 40.5 -32.5t39.5 -31.5v-172h64v-75h-63q-83 -1 -81 75v148z" />
    <glyph glyph-name="C_TTHA" unicode="&#x100c;" horiz-adv-x="670" 
d="M81 -408q-75 16 -81 64v83q2 56 40 82.5t103 25.5v-78q-29 0 -45 -7t-18 -22v-63h387v371q-76 -58 -185 -58q-123 0 -203 80q-79 80 -79 206q0 125 79 204q80 80 203 80q124 0 207 -80q19 -18 33.5 -38t27.5 -52q-27 -12 -40.5 -18.5t-39.5 -15.5q-12 23 -21 36t-22 26
q-57 56 -145 56q-85 0 -142 -57q-56 -56 -56 -141q0 -84 56 -143q57 -57 142 -57q90 0 146 55q11 11 20.5 24.5t21.5 37.5l82 -39v-504q0 -61 -86 -58h-385z" />
    <glyph glyph-name="C_DDA" unicode="&#x100d;" horiz-adv-x="650" 
d="M442 -78q-40 -21 -86 -34.5t-89 -13.5q-49 0 -95.5 14t-135.5 53h8l-43 22v193l79 36q12 -25 20.5 -36t21.5 -25q56 -55 146 -55q85 0 141 57q57 58 57 143q0 84 -57 141q-56 57 -141 57q-88 0 -145 -56q-13 -13 -22 -26t-21 -37q-27 11 -40.5 17.5t-39.5 17.5
q13 31 28.5 52t32.5 38q83 80 207 80q123 0 203 -80q79 -79 79 -204q0 -124 -80 -206q-80 -80 -202 -80q-111 0 -188 61v-28q43 -26 88.5 -43.5t92.5 -17.5q42 0 86.5 15t93.5 43q26 -13 41.5 -25.5t39.5 -24.5v-303h64v-75h-63q-83 -1 -81 75v255z" />
    <glyph glyph-name="C_DDHA" unicode="&#x100e;" horiz-adv-x="670" 
d="M0 270q1 35 10.5 53.5t24 27.5t29 9.5t24.5 0.5q7 0 9.5 -0.5t6.5 1.5q23 1 37.5 16t14.5 36q0 11 -4.5 22t-11.5 19.5t-17 14t-20 5.5q-22 0 -45 -26l-53 70q26 20 48 28.5t48 8.5q29 0 55 -11t45 -30t30.5 -44.5t11.5 -54.5t-11.5 -55t-30.5 -44.5t-45 -30t-55 -11.5
q-4 0 -10 0.5l-6 0.5v-6q0 -87 58 -142q58 -57 145 -57q84 0 141 57t57 142q0 103 -57 168q-13 11 -27.5 22t-40.5 23l42 77q52 -24 87 -59q80 -91 80 -231q0 -125 -79 -204q-80 -80 -203 -80q-124 0 -207 80q-81 79 -81 204z" />
    <glyph glyph-name="C_NNA" unicode="&#x100f;" horiz-adv-x="1258" 
d="M691 48q-18 -28 -48.5 -43.5t-66.5 -15.5q-34 0 -64.5 15.5t-30.5 16.5v-5q-56 91 -21 179v-18l-9 -14l19.5 36t11.5 34q2 9 3 20.5t1 22.5t-1 21t-3 20q-2 18 -12.5 42t-32.5 50q-3 1 -5 3.5t-3 4.5q-57 57 -141 57q-88 0 -145 -56q-58 -57 -58 -142q0 -88 57 -145
q56 -55 146 -55q19 0 36 2.5t43 11.5l10.5 -45l9.5 -41q-52 -14 -99 -14q-129 0 -208 79q-80 80 -80 207q0 124 81 204q83 80 207 80q103 0 175 -56q15 22 46.5 40t66.5 18q37 0 69 -20t48 -42q73 60 183 60q123 0 203 -80q79 -79 79 -204q0 -124 -80 -206q-80 -80 -202 -80
q-27 0 -49.5 2.5t-55.5 12.5l9.5 42l10.5 43q28 -10 45.5 -12t39.5 -2q87 0 141 57q58 58 58 143q0 84 -58 141q-54 57 -141 57q-86 0 -145 -56l-15 -17q-13 -18 -22.5 -39.5t-16.5 -42.5q-3 -17 -3 -43q0 -14 1 -26.5t3 -23.5q3 -17 11.5 -32l17.5 -32l10 -15
q0 -73 -26 -99zM570 260q-2 -40 -13 -76.5t-29 -64.5q3 -15 17.5 -27t33.5 -12q18 0 32 11.5t18 24.5q-37 58 -41 138v32q1 44 12.5 80t29.5 66q-2 16 -17 29.5t-34 13.5t-34 -13t-17 -29q39 -60 42 -144v-29z" />
    <glyph glyph-name="C_TA" unicode="&#x1010;" horiz-adv-x="1118" 
d="M666 83q12 0 12.5 -0.5t-1.5 -0.5q24 -6 59 -6q87 0 141 57q58 58 58 143q0 84 -58 141q-54 57 -141 57q-86 0 -145 -56q-10 -11 -19.5 -23t-14.5 -23q7 -21 10 -45.5t3 -50.5q0 -124 -80 -206q-80 -80 -202 -80q-129 0 -208 79q-80 80 -80 207q0 124 81 204
q83 80 207 80q123 0 203 -80l19 -21q9 11 19 21q83 80 207 80q123 0 203 -80q79 -79 79 -204q0 -124 -80 -206q-80 -80 -202 -80q-47 0 -84 10q-4 0 -4.5 0.5t-11.5 0.5zM288 474q-86 0 -145 -56q-57 -57 -57 -142q0 -87 56 -145q58 -55 146 -55q87 0 141 57q58 58 58 143
q0 84 -58 141q-54 57 -141 57z" />
    <glyph glyph-name="C_THA" unicode="&#x1011;" horiz-adv-x="1118" 
d="M288 -10q-129 0 -208 79q-80 80 -80 207q0 124 81 204q83 80 207 80q123 0 203 -80l19 -21q9 11 19 21q83 80 207 80q123 0 203 -80q79 -79 79 -204q0 -124 -80 -206q-80 -80 -202 -80q-129 0 -208 79q-1 1 -9.5 10.5t-9.5 11.5q-3 -4 -9 -10.5l-10 -10.5
q-80 -80 -202 -80zM288 474q-86 0 -145 -56q-57 -57 -57 -142q0 -87 56 -145q58 -55 146 -55q87 0 141 57q58 58 58 143q0 84 -58 141q-54 57 -141 57zM570 276q0 -54 -14 -99q5 -11 14.5 -23t19.5 -23q58 -55 146 -55q87 0 141 57q58 58 58 143q0 84 -58 141
q-54 57 -141 57q-86 0 -145 -56q-10 -11 -19.5 -23t-14.5 -23q7 -21 10 -45.5t3 -50.5z" />
    <glyph glyph-name="C_DA" unicode="&#x1012;" horiz-adv-x="651" 
d="M79 194q18 -38 43 -63q56 -55 146 -55q83 0 141 58q-10 0 -40 11t-52.5 30.5t-35.5 45t-13 54.5t13 55t35.5 45t52.5 30t41 11q-57 58 -142 58q-86 0 -145 -56q-10 -10 -14 -18.5t-4 -20.5q0 -7 1.5 -15.5t11.5 -30.5q-39 0 -56 -1t-46 -1q-14 30 -14 53q0 25 15.5 50
t39.5 49q43 37 96.5 57t114.5 20q59 0 111 -21t92 -58q21 -28 32 -51.5t11 -40.5q0 -56 -103 -59q-22 0 -37 -16t-15 -37q0 -22 14.5 -36.5t37.5 -14.5q47 -4 75 -17.5t28 -42.5q0 -36 -44 -97q-40 -37 -91.5 -58t-110.5 -21q-129 0 -208 79q-17 17 -31.5 36.5t-28.5 51.5z
" />
    <glyph glyph-name="C_DHA" unicode="&#x1013;" horiz-adv-x="670" 
d="M288 -10q-129 0 -208 79q-80 80 -80 207q0 124 81 204q83 80 207 80q123 0 203 -80q79 -79 79 -204q0 -124 -80 -206q-80 -80 -202 -80zM288 474q-88 0 -145 -56q-58 -57 -58 -142q0 -41 15 -81q74 63 188 63q108 0 183 -63q15 38 15 81q0 84 -57 141q-56 57 -141 57z
M288 76q79 0 132 48q-53 48 -132 48q-81 0 -138 -50q52 -46 138 -46z" />
    <glyph glyph-name="C_NA" unicode="&#x1014;" horiz-adv-x="653" 
d="M391 440q-31 20 -59.5 27t-59.5 7q-30 0 -57.5 -6.5t-41.5 -20.5q-3 -1 2 -6t28.5 -16.5t55 -23.5t57.5 -21q39 -14 80.5 -27.5t76.5 -29.5t57.5 -37t20.5 -51q-6 -47 -25.5 -89.5t-52.5 -75.5q-31 -32 -74.5 -51.5t-86.5 -25.5v-401h-82v400q-61 6 -113 34
q-26 16 -47.5 35t-37 41t-24 45t-8.5 46q0 38 22.5 59t51 30.5t57.5 11.5t45 2q29 0 53.5 -11t42.5 -29.5t29 -44t11 -54.5v-84q40 9 80 40.5t63 76.5q14 27 2.5 45t-41.5 33.5t-72 27t-82 25.5l-69.5 24.5t-61.5 27t-44 32.5t2 81q21 67 183 74q45 0 86.5 -12.5t83.5 -39.5
zM89 178q15 -45 55.5 -73.5t85.5 -32.5v85q0 22 -15.5 37.5t-36.5 15.5q-12 0 -28 -1t-30.5 -4.5t-22.5 -10t-8 -15.5v-1z" />
    <glyph glyph-name="C_PA" unicode="&#x1015;" horiz-adv-x="670" 
d="M204 479q-24 -12 -38.5 -21t-24.5 -19q-56 -64 -56 -170q0 -87 58 -142q58 -57 145 -57q84 0 141 57t57 142q0 103 -57 168q-13 11 -27.5 21.5t-40.5 22.5l42 78q52 -24 87 -59q80 -91 80 -231q0 -125 -79 -204q-80 -80 -203 -80q-124 0 -207 80q-81 79 -81 204
q0 146 80 232q18 18 37.5 31t51.5 29z" />
    <glyph glyph-name="C_PHA" unicode="&#x1016;" horiz-adv-x="670" 
d="M204 479q-24 -12 -38.5 -21t-24.5 -19q-56 -64 -56 -170q0 -87 58 -142q58 -57 145 -57q49 0 92 22l-6 5v-2q-97 97 -97 224q0 124 81 204q20 20 43 35q29 -13 50 -26.5t39 -31.5q80 -91 80 -231q0 -125 -79 -204q-80 -80 -203 -80q-124 0 -207 80q-81 79 -81 204
q0 146 80 232q18 18 37.5 31t51.5 29zM413 452q-51 -56 -51 -133q0 -90 57 -145q8 -9 17.5 -16t11.5 -9q38 52 38 120q0 104 -58 169z" />
    <glyph glyph-name="C_BA" unicode="&#x1017;" horiz-adv-x="670" 
d="M175 564q-2 -39 2.5 -56t19.5 -25q21 -7 43 -12t48 -5q42 0 79 15q33 17 29 81q59 -27 94 -62q80 -91 80 -231q0 -125 -79 -204q-80 -80 -203 -80q-124 0 -207 80q-81 79 -81 204q0 146 80 232q18 18 37.5 31t57.5 32zM486 269q0 88 -46 151q-65 -39 -152 -39
q-45 0 -87 11.5t-73 30.5q-43 -61 -43 -154q0 -87 58 -142q58 -57 145 -57q84 0 141 57t57 142z" />
    <glyph glyph-name="C_BHA" unicode="&#x1018;" horiz-adv-x="1098" 
d="M665 80q19 -3 28 -3.5t23 -0.5q85 0 141 56q57 57 57 142q0 86 -57 143q-56 57 -141 57q-90 0 -146 -55q-11 -11 -20.5 -23t-14.5 -24q15 -44 15 -98q0 -125 -79 -204q-80 -80 -203 -80q-124 0 -207 80q-19 18 -33.5 38t-27.5 52q27 12 40.5 18.5t39.5 15.5
q12 -23 21 -36t22 -26q59 -56 145 -56q85 0 141 56q57 57 57 142q0 86 -57 143q-56 57 -141 57q-88 0 -146 -55q-13 -14 -21.5 -25t-20.5 -36l-79 36q24 54 59 87q79 79 208 79q122 0 202 -81q5 -5 10.5 -11.5t7.5 -9.5l6 6h-3q96 96 225 96q122 0 202 -81q80 -80 80 -205
t-79 -204q-80 -80 -203 -80q-34 0 -76 8z" />
    <glyph glyph-name="C_MA" unicode="&#x1019;" horiz-adv-x="670" 
d="M204 479q-24 -12 -38.5 -21t-24.5 -19q-56 -64 -56 -170q0 -19 5 -41t9 -34q77 64 189 64q111 0 183 -64q5 12 10 34t5 41q0 103 -57 168q-13 11 -27.5 21.5t-40.5 22.5l42 78q52 -24 87 -59q80 -91 80 -231q0 -125 -79 -204q-80 -80 -203 -80q-124 0 -207 80
q-81 79 -81 204q0 146 80 232q18 18 37.5 31t51.5 29zM288 172q-86 0 -140 -51q54 -51 140 -51q79 0 135 51q-54 51 -135 51z" />
    <glyph glyph-name="C_YA" unicode="&#x101a;" horiz-adv-x="1118" 
d="M650 544q29 8 47.5 9.5t38.5 1.5q122 0 202 -81q80 -80 80 -205t-79 -204q-80 -80 -203 -80q-124 0 -207 80l-19 21q-3 -4 -9 -10.5l-10 -10.5q-80 -80 -203 -80q-124 0 -207 80q-81 79 -81 204q0 146 80 232q18 18 37.5 31t51.5 29q12 -28 18.5 -42t15.5 -40
q-22 -12 -37 -21t-25 -19q-55 -64 -55 -170q0 -87 57 -142q60 -57 145 -57t141 57q58 57 58 142q0 104 -58 168q-12 11 -26.5 21.5t-40.5 22.5l40 78q53 -24 88 -59q80 -91 80 -231q0 -26 -3 -50.5t-10 -45.5q14 -26 34 -46q60 -57 145 -57t141 57q58 57 58 142t-58 143
q-56 57 -141 57q-28 0 -59 -5z" />
    <glyph glyph-name="C_RA" unicode="&#x101b;" horiz-adv-x="670" 
d="M142 131q51 -51 135 -55q-15 51 -49 85q-28 26 -65 41t-72 16q15 -51 51 -87zM429 417q-56 57 -141 57q-88 0 -145 -56q-48 -45 -57 -114q124 0 204 -80q45 -53 60.5 -106t17.5 -119q-25 -6 -43.5 -7.5t-36.5 -1.5q-129 0 -208 79q-80 80 -80 207q0 124 81 204
q83 80 207 80q123 0 203 -80q78 -79 79 -199v-576q-2 -22 7 -28.5t28 -4.5h57v-79h-93q-80 3 -82 73l-1 615q-1 79 -57 136z" />
    <glyph glyph-name="C_LA" unicode="&#x101c;" horiz-adv-x="1118" 
d="M556 176q6 -12 15 -23t19 -22q58 -55 146 -55q87 0 141 57q58 58 58 143q0 84 -58 141q-54 57 -141 57q-23 0 -43.5 -3.5t-49.5 -15.5q-13 26 -20 38t-19 39q36 16 68 22t64 6q123 0 203 -80q79 -79 79 -204q0 -124 -80 -206q-80 -80 -202 -80q-129 0 -208 79l-19 20
q-18 31 -25.5 57.5t-7.5 48.5q0 8 0.5 18t1.5 19q1 11 1.5 22t0.5 23q0 19 -3.5 43.5t-15.5 57.5q-6 9 -13.5 18.5t-18.5 20.5q-54 57 -141 57q-86 0 -145 -56q-57 -57 -57 -142q0 -87 56 -145q58 -55 146 -55q19 0 38 3t44 13q13 -25 20.5 -38t20.5 -41q-36 -13 -64 -18
t-59 -5q-129 0 -208 79q-80 80 -80 207q0 124 81 204q83 80 207 80q123 0 203 -80l19 -21q27 -40 36.5 -81.5t9.5 -77.5q0 -13 -0.5 -25.5t-1.5 -23.5q0 -11 -1 -20t-1 -16q0 -11 1 -20.5t3 -16.5v-2z" />
    <glyph glyph-name="C_WA" unicode="&#x101d;" horiz-adv-x="670" 
d="M288 -10q-129 0 -208 79q-80 80 -80 207q0 124 81 204q83 80 207 80q123 0 203 -80q79 -79 79 -204q0 -124 -80 -206q-80 -80 -202 -80zM288 474q-88 0 -145 -56q-58 -57 -58 -142q0 -88 57 -145q56 -55 146 -55q85 0 141 57q57 58 57 143q0 84 -57 141q-56 57 -141 57z
" />
    <glyph glyph-name="C_SA" unicode="&#x101e;" horiz-adv-x="1098" 
d="M640 552q42 8 76 8q123 0 203 -80q79 -79 79 -204q0 -124 -80 -206q-80 -80 -202 -80q-129 0 -208 79q-1 1 -9.5 10.5t-10.5 11.5l-8 -10.5t-10 -10.5q-80 -80 -202 -80q-129 0 -208 79q-35 33 -59 87l79 36q12 -25 20.5 -36t21.5 -25q58 -55 146 -55q85 0 141 57
q57 57 57 143q0 85 -57 141q-56 57 -141 57q-86 0 -145 -56q-13 -13 -22 -26t-21 -37q-27 11 -40.5 17.5t-39.5 17.5q13 31 28.5 52t32.5 38q83 80 207 80q123 0 203 -80q79 -79 79 -204q0 -55 -15 -99l16 -22.5t19 -23.5q56 -55 146 -55q85 0 141 57q57 57 57 143
q0 85 -57 141q-56 57 -141 57q-22 0 -51 -4z" />
    <glyph glyph-name="C_HA" unicode="&#x101f;" horiz-adv-x="1118" 
d="M677 81q20 -3 31.5 -4t27.5 -1q87 0 141 57q58 58 58 143q0 84 -58 141q-54 57 -141 57q-86 0 -145 -56q-21 -23 -34 -45q7 -23 10 -49.5t3 -54.5q0 -125 -79 -204q-80 -80 -203 -80q-124 0 -207 80q-81 79 -81 204q0 146 80 232q18 18 37.5 31t51.5 29q12 -28 18.5 -42
t15.5 -40q-22 -12 -37 -21t-25 -19q-55 -64 -55 -170q0 -87 57 -142q60 -57 145 -57t141 57q58 57 58 142q0 104 -58 168q-12 11 -26.5 21.5t-40.5 22.5l40 78q53 -24 88 -59q9 -10 17 -21t9 -12l13 13q83 80 207 80q123 0 203 -80q79 -79 79 -204q0 -124 -80 -206
q-80 -80 -202 -80q-40 0 -86 9z" />
    <glyph glyph-name="C_LLA" unicode="&#x1020;" horiz-adv-x="650" 
d="M114 -407q-86 -3 -86 58v319q24 12 39.5 26.5t41.5 27.5q49 -28 94 -41.5t86 -13.5q47 0 93 15t88 41v26q-76 -61 -188 -61q-123 0 -203 80q-79 80 -79 206q0 125 79 204q80 80 203 80q124 0 207 -80q19 -18 33.5 -38t27.5 -52q-27 -12 -40.5 -18.5t-39.5 -15.5
q-12 23 -21 36t-22 26q-56 56 -145 56q-85 0 -142 -57q-56 -58 -56 -141q0 -82 56 -143q57 -57 142 -57q90 0 146 55q10 10 20.5 25t22.5 37l40.5 -19l37.5 -18v-182q-27 -21 -56 -37t-62 -28.5t-70 -19.5t-78 -6q-40 1 -85 8t-84 28v-242h356v44q-2 16 -17.5 23t-45.5 6v88
q37 0 60.5 -8t41 -23.5t28.5 -37t12 -49.5v-62q-2 -25 -23.5 -41t-56.5 -24h-355z" />
    <glyph glyph-name="C_A" unicode="&#x1021;" horiz-adv-x="1078" 
d="M81 194q16 -37 41 -63q58 -55 146 -55q84 0 142 58q-10 0 -40 11t-52.5 30.5t-35.5 45t-13 54.5t13 55t35.5 45t52.5 30t41 11q-58 58 -143 58q-86 0 -144 -56q-9 -10 -14 -18.5t-5 -20.5q0 -7 1.5 -15.5t13.5 -30.5q-40 0 -57 -1t-47 -1q-14 30 -14 53q0 25 16 50t40 49
q42 37 96 57t114 20q59 0 111 -21t92 -58l8 -10l9 10q79 79 208 79q123 0 203 -81q79 -80 79 -205t-78 -204q-80 -80 -204 -80q-42 0 -59 8.5t-17 19.5q0 124 81 204q39 37 89 57.5t103 22.5q-3 28 -17 59t-39 56q-54 57 -141 57q-88 0 -146 -55l-19.5 -22t-19.5 -26
q-13 -38 -99 -41q-22 0 -37 -16t-15 -37q0 -22 14.5 -36.5t36.5 -14.5q47 -4 75.5 -17.5t28.5 -42.5q0 -35 -45 -97q-40 -37 -91.5 -58t-110.5 -21q-129 0 -208 79q-34 34 -60 88zM846 129q19 19 34.5 48.5t15.5 50.5q-35 -3 -71.5 -17.5t-60.5 -38.5q-18 -18 -32 -48.5
t-20 -47.5q32 2 71 15.5t63 37.5z" />
    <glyph glyph-name="CS_A" unicode="&#x1022;" horiz-adv-x="1118" 
d="M0 276q0 124 81 204q83 80 207 80q123 0 203 -80l7 -8q3 -4 6.5 -8t4.5 -6l6 6h-4q101 97 225 97q123 0 203 -80q79 -79 79 -204q0 -124 -80 -206q-80 -80 -202 -80q-40 0 -87 10q12 27 16 42t12 39q20 -3 31.5 -4t27.5 -1q87 0 141 57q58 58 58 143q0 84 -58 141
q-54 57 -141 57q-86 0 -145 -56q-23 -24 -35 -47q14 -44 14 -96q0 -142 -80 -231q-17 -18 -36.5 -32t-51.5 -27q-12 25 -19.5 37.5t-19.5 39.5q26 12 39 22t27 23q58 64 58 168q0 84 -58 141q-54 57 -141 57q-86 0 -145 -56q-57 -57 -57 -142v-7l6 0.5t10 0.5q29 0 55 -11
t44.5 -30t30 -44.5t11.5 -54.5t-11.5 -54.5t-30 -44.5t-44.5 -30t-55 -11q-25 0 -48.5 8t-48.5 30l53 66q23 -23 46 -23q9 0 19 5.5t17 14t11.5 19.5t4.5 22q0 20 -14.5 35.5t-36.5 16.5q-4 2 -6.5 1.5t-10.5 -0.5q-10 0 -24.5 0.5t-29 9.5t-24 27.5t-10.5 53.5z" />
    <glyph glyph-name="IV_I" unicode="&#x1023;" horiz-adv-x="1118" 
d="M465 164v208q-6 11 -18.5 26.5t-15.5 17.5v-2q-35 30 -66 42.5t-77 17.5q-86 0 -145 -56q-57 -57 -57 -142q0 -87 56 -145q17 -16 37.5 -28.5t53.5 -21.5l-16 -42t-14 -39q-76 22 -123 69q-80 80 -80 207q0 124 81 204q83 80 207 80q123 0 203 -80l19 -21q9 11 19 21
q83 80 207 80q123 0 203 -80q79 -79 79 -204q0 -124 -80 -206q-24 -24 -48 -39.5t-65 -27.5l-24 81q44 17 76 49q58 58 58 143q0 84 -58 141q-54 57 -141 57q-86 0 -145 -56q-22 -23 -34 -46q0 -48 -0.5 -98t-0.5 -111zM662 -275q39 17 56 32q29 29 29 73q0 20 -8 40
t-21.5 35t-32 24t-39.5 9q-24 0 -42.5 -8t-34.5 -22l-14 -18v-147q-33 0 -47.5 0.5t-45.5 0.5v144q-2 2 -9.5 10.5t-16.5 15.5q-8 7 -25.5 13.5t-35.5 10.5q-22 -1 -41.5 -9.5t-34.5 -23.5t-23 -34t-8 -41q0 -45 29 -74q19 -18 67 -35l-16 -41.5l-14 -39.5
q-39 11 -60.5 23.5t-39.5 28.5q-54 52 -54 138q0 83 54 137q29 28 64 41t76 13q40 0 75.5 -15.5t58.5 -37.5q26 23 62 38t76 15t74.5 -14t60.5 -40q25 -28 39.5 -62.5t14.5 -74.5t-14 -74.5t-39 -62.5q-2 -2 -8 -6t-12.5 -9.5t-11.5 -11t-1 4.5h156v-78h-243v132z" />
    <glyph glyph-name="IV_II" unicode="&#x1024;" horiz-adv-x="1268" 
d="M2 -213q-3 30 9 57t33 47t50 31t61 8q55 0 105 -8.5t92.5 -23.5t78 -33t71.5 -40q-6 -24 -9.5 -44.5t-9.5 -52.5q-38 31 -68.5 48.5t-69 31t-87 22.5t-108.5 12q-29 -4 -43.5 -17t-19.5 -33v-56q-1 -30 14 -43.5t49 -15.5h785v601q-1 82 -58 139q-54 57 -141 57
q-86 0 -145 -56q-10 -11 -19 -23t-15 -23q7 -21 10 -45.5t3 -50.5q0 -142 -79 -231q-18 -18 -37.5 -32t-51.5 -27q-12 25 -19.5 37.5t-19.5 39.5q26 12 39.5 22t26.5 23q58 64 58 168q0 84 -58 141q-54 57 -141 57q-86 0 -145 -56q-57 -57 -57 -142q0 -106 56 -170
q13 -13 25 -21t37 -20q-11 -27 -17.5 -40.5t-16.5 -39.5q-56 24 -90 59q-80 86 -80 232q0 124 81 204q83 80 207 80q123 0 203 -80l20 -21q8 11 18 21q83 80 207 80q123 0 203 -80q79 -79 79 -204v-599q-2 -38 -23.5 -58t-60.5 -26h-845q-83 10 -86 84zM1082 305
q-1 50 -12.5 86t-30 62.5t-42.5 46.5l-49 40q-22 16 -44 35.5t-40.5 44.5t-31 57.5t-15.5 74.5q1 42 16.5 80.5t44.5 67.5q62 62 151 62q90 0 148 -62q26 -25 43 -66l-77 -34q-9 19 -14 27t-12 15q-35 36 -90 36q-57 0 -92 -35.5t-35 -92.5q3 -30 13 -53t25 -42t35 -36
l41 -34q27 -22 55 -48t50 -61.5t35.5 -83t11.5 -112.5v-688h-84v713z" />
    <glyph glyph-name="IV_U" unicode="&#x1025;" horiz-adv-x="653" 
d="M86 -407q-86 -3 -86 58v502l35 17.5l18.5 9l11.5 5.5l16 8q13 -24 23 -37t21 -25q56 -55 146 -55q85 0 141 57q57 58 57 143q0 84 -57 141q-56 57 -141 57q-88 0 -145 -56q-25 -25 -43 -63q-27 11 -41 17.5l-39 17.5q13 31 28 52t33 38q83 80 207 80q123 0 203 -80
q79 -79 79 -204q0 -124 -80 -206q-80 -80 -202 -80q-111 0 -185 58v-371h387v64q-2 16 -17.5 23t-45.5 6v78q63 1 102 -26.5t41 -81.5v-82q-2 -25 -24 -41t-57 -24h-386z" />
    <glyph glyph-name="IV_UU" unicode="&#x1026;" horiz-adv-x="653" 
d="M86 -407q-86 -3 -86 58v502l35 17.5l18.5 9l11.5 5.5l16 8q13 -24 23 -37t21 -25q56 -55 146 -55q85 0 141 57q57 58 57 143q0 84 -57 141q-56 57 -141 57q-88 0 -145 -56q-25 -25 -43 -63q-27 11 -41 17.5l-39 17.5q13 31 28 52t33 38q83 80 207 80q123 0 203 -80
q79 -79 79 -204q0 -124 -80 -206q-80 -80 -202 -80q-111 0 -185 58v-371h387v64q-2 16 -17.5 23t-45.5 6v78q63 1 102 -26.5t41 -81.5v-82q-2 -25 -24 -41t-57 -24h-386zM271 546q-87 0 -147 61q-60 60 -60 149q0 88 60 148t149 60q87 0 147 -60q58 -61 58 -148
q0 -84 -61 -148q-59 -62 -146 -62zM271 881q-56 0 -90.5 -34.5t-34.5 -90.5q0 -24 8 -44q13 18 45 38.5t67 20.5q38 0 72 -22t47 -41q7 22 9 47q0 28 -9 51.5t-25 40t-38.5 25.5t-50.5 9zM268 634q24 0 50 9q-2 13 -16.5 27.5t-33.5 14.5q-18 0 -32.5 -14.5t-17.5 -27.5
q23 -9 50 -9z" />
    <glyph glyph-name="IV_E" unicode="&#x1027;" horiz-adv-x="670" 
d="M522 188q6 -6 12 -13t14 -20q-12 -28 -26 -48t-32 -38q-79 -79 -208 -79q-123 0 -203 80q-79 80 -79 206q0 125 79 204q80 80 203 80q124 0 207 -80q37 -39 60 -88q-86 -112 -229 -112q-124 0 -207 80l-9 8q-8 -15 -14 -41t-6 -51q0 -52 21 -95l8 7q83 80 207 80
q59 0 110.5 -21.5t91.5 -58.5zM282 474q-71 0 -120 -38l4.5 -6t7.5 -8q30 -28 66.5 -42.5t79.5 -14.5q67 0 120 39l-13 14q-57 56 -145 56zM440 144q-53 39 -120 39q-88 0 -147 -58l-10 -12q49 -37 119 -37q90 0 147 56z" />
    <glyph glyph-name="IVM_E" unicode="&#x1028;" horiz-adv-x="670" 
d="M313 -14q-36 8 -61.5 31.5t-25.5 56.5q0 27 20 64q39 57 53.5 90t14.5 50q0 20 -12 25t-28 5q-18 0 -30 -13.5t-12 -39.5l-69 -28q-6 16 -6 22.5v12.5q0 24 9.5 45.5t25 37t36.5 25t45 9.5t45.5 -9.5t36.5 -25t24.5 -37t9.5 -45.5q0 -23 -11 -46t-24.5 -44.5t-25 -42
t-14.5 -40.5q-1 -7 4.5 -12.5t17.5 -9.5t26.5 -5.5t26.5 1.5q13 2 27.5 11.5t27 24.5t20.5 34.5t8 41.5l-2 180q-13 32 -41 62q-56 57 -141 57q-88 0 -145 -56q-56 -55 -58 -139l-2 -405q1 -41 15.5 -75t42.5 -63q55 -57 141 -57q87 0 145 56q54 54 57 142q27 0 43.5 0.5
t42.5 0.5q-2 -69 -21.5 -118t-59.5 -88q-80 -79 -207 -79q-123 0 -202 81q-40 39 -59 87t-21 106v419q3 118 81 194q83 80 207 80q122 0 196 -74q37 -37 55 -79t19 -89v-159q-3 -44 -22 -77t-42 -55t-46.5 -33.5t-34.5 -8.5z" />
    <glyph glyph-name="IV_O" unicode="&#x1029;" horiz-adv-x="1246" 
d="M785 552q42 8 76 8q123 0 203 -80q78 -79 79 -200l2 -603q1 -46 -22.5 -65t-61.5 -19q-244 0 -487 -0.5t-488 -0.5q-43 2 -65 24.5t-19 60.5l1 1200q-6 87 84 84h970q85 6 85 -84v-186h-84v186h-971v-1200h974v392q-79 -79 -200 -79q-129 0 -208 79q-2 1 -10.5 10.5
t-9.5 11.5q-4 -4 -9 -10.5t-9 -10.5q-80 -80 -202 -80q-129 0 -208 79q-36 33 -59 87l79 36q11 -25 19.5 -36t22.5 -25q58 -55 146 -55q85 0 141 57q57 57 57 143q0 85 -57 141q-56 57 -141 57q-86 0 -145 -56q-14 -13 -23 -26t-20 -37q-27 11 -40.5 17.5t-39.5 17.5
q13 31 28 52t33 38q83 80 207 80q123 0 203 -80q79 -79 79 -204q0 -55 -15 -99q6 -10 15 -22.5t20 -23.5q56 -55 146 -55q85 0 141 57q57 58 57 143q0 84 -57 141q-56 57 -141 57q-23 0 -51 -4z" />
    <glyph glyph-name="IV_AU" unicode="&#x102a;" horiz-adv-x="2438" 
d="M1419 552q42 8 75 8q123 0 203 -80q78 -79 79 -200l2 -603q1 -46 -22 -65t-62 -19q-244 0 -487 -0.5t-487 -0.5q-43 2 -65 24.5t-20 60.5l1 1200q-6 87 84 84h971q84 6 84 -84v-205h-83v205h-972v-1200h975v392q-81 -79 -201 -79q-129 0 -208 79q-1 1 -9.5 10.5
t-9.5 11.5q-3 -4 -9 -10.5l-10 -10.5q-80 -80 -202 -80q-129 0 -208 79q-33 33 -60 87l81 36q11 -25 20 -36l21 -25q58 -55 146 -55q87 0 141 57q58 58 58 143q0 84 -58 141q-54 57 -141 57q-86 0 -145 -56q-25 -26 -42 -63q-27 11 -41 17.5t-41 17.5q15 31 29.5 51.5
t32.5 38.5q85 80 207 80q123 0 203 -80q79 -79 79 -204q0 -54 -14 -99q5 -11 14.5 -23t19.5 -23q58 -55 146 -55q87 0 141 57q58 58 58 143q0 84 -58 141q-54 57 -141 57q-23 0 -50 -4zM505 205q23 -23 29 -30t14 -20q-12 -28 -26 -48t-32 -38q-79 -79 -208 -79
q-123 0 -203 80q-79 80 -79 206q0 125 79 204q80 80 203 80q124 0 207 -80q19 -18 33.5 -38t27.5 -52l-41 -18.5t-39 -16.5q-12 24 -21 37t-22 26q-57 56 -145 56q-85 0 -142 -57q-56 -56 -56 -141q0 -52 21 -95l7 7q85 80 207 80q59 0 111 -21.5t75 -42.5v1zM2006 80
q18 -4 27.5 -4.5t22.5 -0.5q86 0 141 56q58 58 58 142q0 85 -58 143q-54 57 -141 57q-88 0 -146 -55q-15 -15 -25.5 -32t-24.5 -52q-25 32 -35 43t-28 33q13 23 25 39t26 31q55 55 134 72q-42 15 -77 50q-60 60 -60 151q0 88 61 149q62 62 151 62t148 -62q25 -25 43 -66
l-78 -34q-7 19 -12.5 27t-12.5 15q-35 36 -90 36q-57 0 -91.5 -35t-34.5 -92q0 -27 9.5 -49.5t25.5 -39.5t38.5 -26t49.5 -9q6 0 9.5 -0.5t14.5 1.5l36 -76q85 -15 146 -76q80 -80 80 -205t-79 -204q-80 -80 -203 -80q-33 0 -75 8zM440 144q-53 39 -121 39q-87 0 -146 -58
l-10 -12q49 -37 119 -37q88 0 147 56z" />
    <glyph glyph-name="VS_TALL_AA" unicode="&#x102b;" horiz-adv-x="878" 
d="M358 752q3 50 18 84t44 63q62 62 151 62t148 -62q56 -57 59 -142v-767h-85v762q-1 52 -34 89q-35 36 -90 36q-57 0 -91 -35q-30 -32 -37 -90h-83zM40 306q12 0 21 -8.5t9 -20.5q0 -13 -9 -22t-21 -9q-13 0 -21.5 9t-8.5 22q0 12 8.5 20.5t21.5 8.5zM289 547q12 0 21 -8.5
t9 -22.5q0 -11 -9 -20t-21 -9q-13 0 -21.5 9t-8.5 20q0 14 8.5 22.5t21.5 8.5zM289 59q12 0 21 -8.5t9 -20.5q0 -13 -9 -22t-21 -9q-13 0 -21.5 9t-8.5 22q0 12 8.5 20.5t21.5 8.5zM117 128q12 0 21 -8.5t9 -22.5q0 -11 -9 -20t-21 -9q-13 0 -21.5 9t-8.5 20q0 14 8.5 22.5
t21.5 8.5zM59 204q14 0 23 -8.5t9 -22.5q0 -11 -9 -21t-23 -10q-11 0 -20.5 10t-9.5 21q0 14 9.5 22.5t20.5 8.5zM191 78q14 0 23 -8.5t9 -22.5q0 -11 -9 -21t-23 -10q-11 0 -19.5 10t-8.5 21q0 14 8.5 22.5t19.5 8.5zM117 420q-13 0 -21.5 8.5t-8.5 22.5q0 11 8.5 20
t21.5 9q12 0 21 -9t9 -20q0 -14 -9 -22.5t-21 -8.5zM59 344q-11 0 -20.5 9t-9.5 22q0 11 9.5 21t20.5 10q14 0 23 -10t9 -21q0 -13 -9 -22t-23 -9zM191 470q-11 0 -19.5 8.5t-8.5 22.5q0 11 8.5 21t19.5 10q14 0 23 -10t9 -21q0 -14 -9 -22.5t-23 -8.5zM529 306
q13 0 21.5 -8.5t8.5 -20.5q0 -13 -8.5 -22t-21.5 -9q-12 0 -21 9t-9 22q0 12 9 20.5t21 8.5zM452 128q13 0 21.5 -8.5t8.5 -22.5q0 -11 -8.5 -20t-21.5 -9q-12 0 -21 9t-9 20q0 14 9 22.5t21 8.5zM510 204q11 0 20.5 -8.5t9.5 -22.5q0 -11 -9.5 -21t-20.5 -10q-14 0 -23 10
t-9 21q0 14 9 22.5t23 8.5zM378 78q11 0 19.5 -8.5t8.5 -22.5q0 -11 -8.5 -21t-19.5 -10q-14 0 -23 10t-9 21q0 14 9 22.5t23 8.5zM452 420q-12 0 -21 8.5t-9 22.5q0 11 9 20t21 9q13 0 21.5 -9t8.5 -20q0 -14 -8.5 -22.5t-21.5 -8.5zM510 344q-14 0 -23 9t-9 22q0 11 9 21
t23 10q11 0 20.5 -10t9.5 -21q0 -13 -9.5 -22t-20.5 -9zM378 470q-14 0 -23 8.5t-9 22.5q0 11 9 21t23 10q11 0 19.5 -10t8.5 -21q0 -14 -8.5 -22.5t-19.5 -8.5z" />
    <glyph glyph-name="VS_AA" unicode="&#x102c;" horiz-adv-x="1249" 
d="M817 80q18 -4 27.5 -4.5t22.5 -0.5q86 0 141 56q58 58 58 142q0 85 -58 143q-54 57 -141 57q-88 0 -146 -55q-15 -15 -25.5 -32t-24.5 -52q-25 32 -35 43t-28 33q13 23 25 39t26 31q79 79 208 79q122 0 202 -81q80 -80 80 -205t-79 -204q-80 -80 -203 -80q-33 0 -75 8z
M40 306q12 0 21 -8.5t9 -20.5q0 -13 -9 -22t-21 -9q-13 0 -21.5 9t-8.5 22q0 12 8.5 20.5t21.5 8.5zM289 547q12 0 21 -8.5t9 -22.5q0 -11 -9 -20t-21 -9q-13 0 -21.5 9t-8.5 20q0 14 8.5 22.5t21.5 8.5zM289 59q12 0 21 -8.5t9 -20.5q0 -13 -9 -22t-21 -9q-13 0 -21.5 9
t-8.5 22q0 12 8.5 20.5t21.5 8.5zM117 128q12 0 21 -8.5t9 -22.5q0 -11 -9 -20t-21 -9q-13 0 -21.5 9t-8.5 20q0 14 8.5 22.5t21.5 8.5zM59 204q14 0 23 -8.5t9 -22.5q0 -11 -9 -21t-23 -10q-11 0 -20.5 10t-9.5 21q0 14 9.5 22.5t20.5 8.5zM191 78q14 0 23 -8.5t9 -22.5
q0 -11 -9 -21t-23 -10q-11 0 -19.5 10t-8.5 21q0 14 8.5 22.5t19.5 8.5zM117 420q-13 0 -21.5 8.5t-8.5 22.5q0 11 8.5 20t21.5 9q12 0 21 -9t9 -20q0 -14 -9 -22.5t-21 -8.5zM59 344q-11 0 -20.5 9t-9.5 22q0 11 9.5 21t20.5 10q14 0 23 -10t9 -21q0 -13 -9 -22t-23 -9z
M191 470q-11 0 -19.5 8.5t-8.5 22.5q0 11 8.5 21t19.5 10q14 0 23 -10t9 -21q0 -14 -9 -22.5t-23 -8.5zM529 306q13 0 21.5 -8.5t8.5 -20.5q0 -13 -8.5 -22t-21.5 -9q-12 0 -21 9t-9 22q0 12 9 20.5t21 8.5zM452 128q13 0 21.5 -8.5t8.5 -22.5q0 -11 -8.5 -20t-21.5 -9
q-12 0 -21 9t-9 20q0 14 9 22.5t21 8.5zM510 204q11 0 20.5 -8.5t9.5 -22.5q0 -11 -9.5 -21t-20.5 -10q-14 0 -23 10t-9 21q0 14 9 22.5t23 8.5zM378 78q11 0 19.5 -8.5t8.5 -22.5q0 -11 -8.5 -21t-19.5 -10q-14 0 -23 10t-9 21q0 14 9 22.5t23 8.5zM452 420q-12 0 -21 8.5
t-9 22.5q0 11 9 20t21 9q13 0 21.5 -9t8.5 -20q0 -14 -8.5 -22.5t-21.5 -8.5zM510 344q-14 0 -23 9t-9 22q0 11 9 21t23 10q11 0 20.5 -10t9.5 -21q0 -13 -9.5 -22t-20.5 -9zM378 470q-14 0 -23 8.5t-9 22.5q0 11 9 21t23 10q11 0 19.5 -10t8.5 -21q0 -14 -8.5 -22.5
t-19.5 -8.5z" />
    <glyph glyph-name="VS_I" unicode="&#x102d;" horiz-adv-x="659" 
d="M295 538q-88 0 -150 62q-60 60 -60 151q0 88 61 149q62 62 151 62t148 -62q59 -61 59 -149q0 -86 -61 -150q-62 -63 -148 -63zM295 878q-57 0 -91.5 -35t-34.5 -92q0 -27 9.5 -50.5t25.5 -40.5t38.5 -26.5t49.5 -9.5q56 0 90.5 35t36.5 92q0 56 -34 91.5t-90 35.5z
M40 306q12 0 21 -8.5t9 -20.5q0 -13 -9 -22t-21 -9q-13 0 -21.5 9t-8.5 22q0 12 8.5 20.5t21.5 8.5zM289 547q12 0 21 -8.5t9 -22.5q0 -11 -9 -20t-21 -9q-13 0 -21.5 9t-8.5 20q0 14 8.5 22.5t21.5 8.5zM289 59q12 0 21 -8.5t9 -20.5q0 -13 -9 -22t-21 -9q-13 0 -21.5 9
t-8.5 22q0 12 8.5 20.5t21.5 8.5zM117 128q12 0 21 -8.5t9 -22.5q0 -11 -9 -20t-21 -9q-13 0 -21.5 9t-8.5 20q0 14 8.5 22.5t21.5 8.5zM59 204q14 0 23 -8.5t9 -22.5q0 -11 -9 -21t-23 -10q-11 0 -20.5 10t-9.5 21q0 14 9.5 22.5t20.5 8.5zM191 78q14 0 23 -8.5t9 -22.5
q0 -11 -9 -21t-23 -10q-11 0 -19.5 10t-8.5 21q0 14 8.5 22.5t19.5 8.5zM117 420q-13 0 -21.5 8.5t-8.5 22.5q0 11 8.5 20t21.5 9q12 0 21 -9t9 -20q0 -14 -9 -22.5t-21 -8.5zM59 344q-11 0 -20.5 9t-9.5 22q0 11 9.5 21t20.5 10q14 0 23 -10t9 -21q0 -13 -9 -22t-23 -9z
M191 470q-11 0 -19.5 8.5t-8.5 22.5q0 11 8.5 21t19.5 10q14 0 23 -10t9 -21q0 -14 -9 -22.5t-23 -8.5zM529 306q13 0 21.5 -8.5t8.5 -20.5q0 -13 -8.5 -22t-21.5 -9q-12 0 -21 9t-9 22q0 12 9 20.5t21 8.5zM452 128q13 0 21.5 -8.5t8.5 -22.5q0 -11 -8.5 -20t-21.5 -9
q-12 0 -21 9t-9 20q0 14 9 22.5t21 8.5zM510 204q11 0 20.5 -8.5t9.5 -22.5q0 -11 -9.5 -21t-20.5 -10q-14 0 -23 10t-9 21q0 14 9 22.5t23 8.5zM378 78q11 0 19.5 -8.5t8.5 -22.5q0 -11 -8.5 -21t-19.5 -10q-14 0 -23 10t-9 21q0 14 9 22.5t23 8.5zM452 420q-12 0 -21 8.5
t-9 22.5q0 11 9 20t21 9q13 0 21.5 -9t8.5 -20q0 -14 -8.5 -22.5t-21.5 -8.5zM510 344q-14 0 -23 9t-9 22q0 11 9 21t23 10q11 0 20.5 -10t9.5 -21q0 -13 -9.5 -22t-20.5 -9zM378 470q-14 0 -23 8.5t-9 22.5q0 11 9 21t23 10q11 0 19.5 -10t8.5 -21q0 -14 -8.5 -22.5
t-19.5 -8.5z" />
    <glyph glyph-name="VS_II" unicode="&#x102e;" horiz-adv-x="659" 
d="M40 306q12 0 21 -8.5t9 -20.5q0 -13 -9 -22t-21 -9q-13 0 -21.5 9t-8.5 22q0 12 8.5 20.5t21.5 8.5zM289 547q12 0 21 -8.5t9 -22.5q0 -11 -9 -20t-21 -9q-13 0 -21.5 9t-8.5 20q0 14 8.5 22.5t21.5 8.5zM289 59q12 0 21 -8.5t9 -20.5q0 -13 -9 -22t-21 -9q-13 0 -21.5 9
t-8.5 22q0 12 8.5 20.5t21.5 8.5zM117 128q12 0 21 -8.5t9 -22.5q0 -11 -9 -20t-21 -9q-13 0 -21.5 9t-8.5 20q0 14 8.5 22.5t21.5 8.5zM59 204q14 0 23 -8.5t9 -22.5q0 -11 -9 -21t-23 -10q-11 0 -20.5 10t-9.5 21q0 14 9.5 22.5t20.5 8.5zM191 78q14 0 23 -8.5t9 -22.5
q0 -11 -9 -21t-23 -10q-11 0 -19.5 10t-8.5 21q0 14 8.5 22.5t19.5 8.5zM117 420q-13 0 -21.5 8.5t-8.5 22.5q0 11 8.5 20t21.5 9q12 0 21 -9t9 -20q0 -14 -9 -22.5t-21 -8.5zM59 344q-11 0 -20.5 9t-9.5 22q0 11 9.5 21t20.5 10q14 0 23 -10t9 -21q0 -13 -9 -22t-23 -9z
M191 470q-11 0 -19.5 8.5t-8.5 22.5q0 11 8.5 21t19.5 10q14 0 23 -10t9 -21q0 -14 -9 -22.5t-23 -8.5zM529 306q13 0 21.5 -8.5t8.5 -20.5q0 -13 -8.5 -22t-21.5 -9q-12 0 -21 9t-9 22q0 12 9 20.5t21 8.5zM452 128q13 0 21.5 -8.5t8.5 -22.5q0 -11 -8.5 -20t-21.5 -9
q-12 0 -21 9t-9 20q0 14 9 22.5t21 8.5zM510 204q11 0 20.5 -8.5t9.5 -22.5q0 -11 -9.5 -21t-20.5 -10q-14 0 -23 10t-9 21q0 14 9 22.5t23 8.5zM378 78q11 0 19.5 -8.5t8.5 -22.5q0 -11 -8.5 -21t-19.5 -10q-14 0 -23 10t-9 21q0 14 9 22.5t23 8.5zM452 420q-12 0 -21 8.5
t-9 22.5q0 11 9 20t21 9q13 0 21.5 -9t8.5 -20q0 -14 -8.5 -22.5t-21.5 -8.5zM510 344q-14 0 -23 9t-9 22q0 11 9 21t23 10q11 0 20.5 -10t9.5 -21q0 -13 -9.5 -22t-20.5 -9zM378 470q-14 0 -23 8.5t-9 22.5q0 11 9 21t23 10q11 0 19.5 -10t8.5 -21q0 -14 -8.5 -22.5
t-19.5 -8.5zM294 546q-87 0 -147 61q-60 60 -60 149q0 88 60 148t149 60q87 0 147 -60q58 -61 58 -148q0 -84 -61 -148q-59 -62 -146 -62zM294 881q-56 0 -90.5 -34.5t-34.5 -90.5q0 -24 8 -44q13 18 45 38.5t67 20.5q38 0 72 -22t47 -41q7 22 9 47q0 28 -9 51.5t-25 40
t-38.5 25.5t-50.5 9zM291 634q24 0 50 9q-2 13 -16.5 27.5t-33.5 14.5q-18 0 -32.5 -14.5t-17.5 -27.5q23 -9 50 -9z" />
    <glyph glyph-name="VS_U" unicode="&#x102f;" horiz-adv-x="659" 
d="M458 -407q-44 0 -72.5 -0.5t-64.5 -0.5q-66 16 -68 63q0 94 -0.5 179t-0.5 189h83v-344h123v-86zM40 306q12 0 21 -8.5t9 -20.5q0 -13 -9 -22t-21 -9q-13 0 -21.5 9t-8.5 22q0 12 8.5 20.5t21.5 8.5zM289 547q12 0 21 -8.5t9 -22.5q0 -11 -9 -20t-21 -9q-13 0 -21.5 9
t-8.5 20q0 14 8.5 22.5t21.5 8.5zM289 59q12 0 21 -8.5t9 -20.5q0 -13 -9 -22t-21 -9q-13 0 -21.5 9t-8.5 22q0 12 8.5 20.5t21.5 8.5zM117 128q12 0 21 -8.5t9 -22.5q0 -11 -9 -20t-21 -9q-13 0 -21.5 9t-8.5 20q0 14 8.5 22.5t21.5 8.5zM59 204q14 0 23 -8.5t9 -22.5
q0 -11 -9 -21t-23 -10q-11 0 -20.5 10t-9.5 21q0 14 9.5 22.5t20.5 8.5zM191 78q14 0 23 -8.5t9 -22.5q0 -11 -9 -21t-23 -10q-11 0 -19.5 10t-8.5 21q0 14 8.5 22.5t19.5 8.5zM117 420q-13 0 -21.5 8.5t-8.5 22.5q0 11 8.5 20t21.5 9q12 0 21 -9t9 -20q0 -14 -9 -22.5
t-21 -8.5zM59 344q-11 0 -20.5 9t-9.5 22q0 11 9.5 21t20.5 10q14 0 23 -10t9 -21q0 -13 -9 -22t-23 -9zM191 470q-11 0 -19.5 8.5t-8.5 22.5q0 11 8.5 21t19.5 10q14 0 23 -10t9 -21q0 -14 -9 -22.5t-23 -8.5zM529 306q13 0 21.5 -8.5t8.5 -20.5q0 -13 -8.5 -22t-21.5 -9
q-12 0 -21 9t-9 22q0 12 9 20.5t21 8.5zM452 128q13 0 21.5 -8.5t8.5 -22.5q0 -11 -8.5 -20t-21.5 -9q-12 0 -21 9t-9 20q0 14 9 22.5t21 8.5zM510 204q11 0 20.5 -8.5t9.5 -22.5q0 -11 -9.5 -21t-20.5 -10q-14 0 -23 10t-9 21q0 14 9 22.5t23 8.5zM378 78q11 0 19.5 -8.5
t8.5 -22.5q0 -11 -8.5 -21t-19.5 -10q-14 0 -23 10t-9 21q0 14 9 22.5t23 8.5zM452 420q-12 0 -21 8.5t-9 22.5q0 11 9 20t21 9q13 0 21.5 -9t8.5 -20q0 -14 -8.5 -22.5t-21.5 -8.5zM510 344q-14 0 -23 9t-9 22q0 11 9 21t23 10q11 0 20.5 -10t9.5 -21q0 -13 -9.5 -22
t-20.5 -9zM378 470q-14 0 -23 8.5t-9 22.5q0 11 9 21t23 10q11 0 19.5 -10t8.5 -21q0 -14 -8.5 -22.5t-19.5 -8.5z" />
    <glyph glyph-name="VS_UU" unicode="&#x1030;" horiz-adv-x="659" 
d="M529 -407q-45 0 -74 -0.5t-64 -0.5q-68 16 -70 64l-1 368h85v-344h124v-87zM186 -407l-1 431h84v-431h-83zM40 306q12 0 21 -8.5t9 -20.5q0 -13 -9 -22t-21 -9q-13 0 -21.5 9t-8.5 22q0 12 8.5 20.5t21.5 8.5zM289 547q12 0 21 -8.5t9 -22.5q0 -11 -9 -20t-21 -9
q-13 0 -21.5 9t-8.5 20q0 14 8.5 22.5t21.5 8.5zM289 59q12 0 21 -8.5t9 -20.5q0 -13 -9 -22t-21 -9q-13 0 -21.5 9t-8.5 22q0 12 8.5 20.5t21.5 8.5zM117 128q12 0 21 -8.5t9 -22.5q0 -11 -9 -20t-21 -9q-13 0 -21.5 9t-8.5 20q0 14 8.5 22.5t21.5 8.5zM59 204
q14 0 23 -8.5t9 -22.5q0 -11 -9 -21t-23 -10q-11 0 -20.5 10t-9.5 21q0 14 9.5 22.5t20.5 8.5zM191 78q14 0 23 -8.5t9 -22.5q0 -11 -9 -21t-23 -10q-11 0 -19.5 10t-8.5 21q0 14 8.5 22.5t19.5 8.5zM117 420q-13 0 -21.5 8.5t-8.5 22.5q0 11 8.5 20t21.5 9q12 0 21 -9
t9 -20q0 -14 -9 -22.5t-21 -8.5zM59 344q-11 0 -20.5 9t-9.5 22q0 11 9.5 21t20.5 10q14 0 23 -10t9 -21q0 -13 -9 -22t-23 -9zM191 470q-11 0 -19.5 8.5t-8.5 22.5q0 11 8.5 21t19.5 10q14 0 23 -10t9 -21q0 -14 -9 -22.5t-23 -8.5zM529 306q13 0 21.5 -8.5t8.5 -20.5
q0 -13 -8.5 -22t-21.5 -9q-12 0 -21 9t-9 22q0 12 9 20.5t21 8.5zM452 128q13 0 21.5 -8.5t8.5 -22.5q0 -11 -8.5 -20t-21.5 -9q-12 0 -21 9t-9 20q0 14 9 22.5t21 8.5zM510 204q11 0 20.5 -8.5t9.5 -22.5q0 -11 -9.5 -21t-20.5 -10q-14 0 -23 10t-9 21q0 14 9 22.5t23 8.5z
M378 78q11 0 19.5 -8.5t8.5 -22.5q0 -11 -8.5 -21t-19.5 -10q-14 0 -23 10t-9 21q0 14 9 22.5t23 8.5zM452 420q-12 0 -21 8.5t-9 22.5q0 11 9 20t21 9q13 0 21.5 -9t8.5 -20q0 -14 -8.5 -22.5t-21.5 -8.5zM510 344q-14 0 -23 9t-9 22q0 11 9 21t23 10q11 0 20.5 -10
t9.5 -21q0 -13 -9.5 -22t-20.5 -9zM378 470q-14 0 -23 8.5t-9 22.5q0 11 9 21t23 10q11 0 19.5 -10t8.5 -21q0 -14 -8.5 -22.5t-19.5 -8.5z" />
    <glyph glyph-name="VS_E" unicode="&#x1031;" horiz-adv-x="1259" 
d="M538 188l11.5 -13.5t15.5 -19.5q-14 -28 -27.5 -48t-31.5 -38q-79 -79 -208 -79q-123 0 -203 80q-79 80 -79 206q0 125 79 204q80 80 203 80q122 0 207 -80q37 -37 61 -90l-41 -18.5t-40 -15.5q-17 36 -42 62q-57 56 -145 56q-86 0 -142 -57q-57 -57 -57 -141
q0 -27 7 -54t14 -41l8 7q83 80 207 80q59 0 111 -21.5t92 -58.5zM455 144q-51 39 -120 39q-87 0 -146 -58l-10 -12q49 -37 119 -37q88 0 147 56zM640 306q12 0 21 -8.5t9 -20.5q0 -13 -9 -22t-21 -9q-13 0 -21.5 9t-8.5 22q0 12 8.5 20.5t21.5 8.5zM889 547q12 0 21 -8.5
t9 -22.5q0 -11 -9 -20t-21 -9q-13 0 -21.5 9t-8.5 20q0 14 8.5 22.5t21.5 8.5zM889 59q12 0 21 -8.5t9 -20.5q0 -13 -9 -22t-21 -9q-13 0 -21.5 9t-8.5 22q0 12 8.5 20.5t21.5 8.5zM717 128q12 0 21 -8.5t9 -22.5q0 -11 -9 -20t-21 -9q-13 0 -21.5 9t-8.5 20q0 14 8.5 22.5
t21.5 8.5zM659 204q14 0 23 -8.5t9 -22.5q0 -11 -9 -21t-23 -10q-11 0 -20.5 10t-9.5 21q0 14 9.5 22.5t20.5 8.5zM791 78q14 0 23 -8.5t9 -22.5q0 -11 -9 -21t-23 -10q-11 0 -19.5 10t-8.5 21q0 14 8.5 22.5t19.5 8.5zM717 420q-13 0 -21.5 8.5t-8.5 22.5q0 11 8.5 20
t21.5 9q12 0 21 -9t9 -20q0 -14 -9 -22.5t-21 -8.5zM659 344q-11 0 -20.5 9t-9.5 22q0 11 9.5 21t20.5 10q14 0 23 -10t9 -21q0 -13 -9 -22t-23 -9zM791 470q-11 0 -19.5 8.5t-8.5 22.5q0 11 8.5 21t19.5 10q14 0 23 -10t9 -21q0 -14 -9 -22.5t-23 -8.5zM1129 306
q13 0 21.5 -8.5t8.5 -20.5q0 -13 -8.5 -22t-21.5 -9q-12 0 -21 9t-9 22q0 12 9 20.5t21 8.5zM1052 128q13 0 21.5 -8.5t8.5 -22.5q0 -11 -8.5 -20t-21.5 -9q-12 0 -21 9t-9 20q0 14 9 22.5t21 8.5zM1110 204q11 0 20.5 -8.5t9.5 -22.5q0 -11 -9.5 -21t-20.5 -10
q-14 0 -23 10t-9 21q0 14 9 22.5t23 8.5zM978 78q11 0 19.5 -8.5t8.5 -22.5q0 -11 -8.5 -21t-19.5 -10q-14 0 -23 10t-9 21q0 14 9 22.5t23 8.5zM1052 420q-12 0 -21 8.5t-9 22.5q0 11 9 20t21 9q13 0 21.5 -9t8.5 -20q0 -14 -8.5 -22.5t-21.5 -8.5zM1110 344q-14 0 -23 9
t-9 22q0 11 9 21t23 10q11 0 20.5 -10t9.5 -21q0 -13 -9.5 -22t-20.5 -9zM978 470q-14 0 -23 8.5t-9 22.5q0 11 9 21t23 10q11 0 19.5 -10t8.5 -21q0 -14 -8.5 -22.5t-19.5 -8.5z" />
    <glyph glyph-name="VS_AI" unicode="&#x1032;" horiz-adv-x="659" 
d="M503 533q-141 57 -252.5 138.5t-213.5 195.5l42 91q100 -129 201.5 -218t232.5 -143zM40 306q12 0 21 -8.5t9 -20.5q0 -13 -9 -22t-21 -9q-13 0 -21.5 9t-8.5 22q0 12 8.5 20.5t21.5 8.5zM289 547q12 0 21 -8.5t9 -22.5q0 -11 -9 -20t-21 -9q-13 0 -21.5 9t-8.5 20
q0 14 8.5 22.5t21.5 8.5zM289 59q12 0 21 -8.5t9 -20.5q0 -13 -9 -22t-21 -9q-13 0 -21.5 9t-8.5 22q0 12 8.5 20.5t21.5 8.5zM117 128q12 0 21 -8.5t9 -22.5q0 -11 -9 -20t-21 -9q-13 0 -21.5 9t-8.5 20q0 14 8.5 22.5t21.5 8.5zM59 204q14 0 23 -8.5t9 -22.5q0 -11 -9 -21
t-23 -10q-11 0 -20.5 10t-9.5 21q0 14 9.5 22.5t20.5 8.5zM191 78q14 0 23 -8.5t9 -22.5q0 -11 -9 -21t-23 -10q-11 0 -19.5 10t-8.5 21q0 14 8.5 22.5t19.5 8.5zM117 420q-13 0 -21.5 8.5t-8.5 22.5q0 11 8.5 20t21.5 9q12 0 21 -9t9 -20q0 -14 -9 -22.5t-21 -8.5zM59 344
q-11 0 -20.5 9t-9.5 22q0 11 9.5 21t20.5 10q14 0 23 -10t9 -21q0 -13 -9 -22t-23 -9zM191 470q-11 0 -19.5 8.5t-8.5 22.5q0 11 8.5 21t19.5 10q14 0 23 -10t9 -21q0 -14 -9 -22.5t-23 -8.5zM529 306q13 0 21.5 -8.5t8.5 -20.5q0 -13 -8.5 -22t-21.5 -9q-12 0 -21 9t-9 22
q0 12 9 20.5t21 8.5zM452 128q13 0 21.5 -8.5t8.5 -22.5q0 -11 -8.5 -20t-21.5 -9q-12 0 -21 9t-9 20q0 14 9 22.5t21 8.5zM510 204q11 0 20.5 -8.5t9.5 -22.5q0 -11 -9.5 -21t-20.5 -10q-14 0 -23 10t-9 21q0 14 9 22.5t23 8.5zM378 78q11 0 19.5 -8.5t8.5 -22.5
q0 -11 -8.5 -21t-19.5 -10q-14 0 -23 10t-9 21q0 14 9 22.5t23 8.5zM452 420q-12 0 -21 8.5t-9 22.5q0 11 9 20t21 9q13 0 21.5 -9t8.5 -20q0 -14 -8.5 -22.5t-21.5 -8.5zM510 344q-14 0 -23 9t-9 22q0 11 9 21t23 10q11 0 20.5 -10t9.5 -21q0 -13 -9.5 -22t-20.5 -9z
M378 470q-14 0 -23 8.5t-9 22.5q0 11 9 21t23 10q11 0 19.5 -10t8.5 -21q0 -14 -8.5 -22.5t-19.5 -8.5z" />
    <glyph glyph-name="VSM_II" unicode="&#x1033;" horiz-adv-x="659" 
d="M209 753q0 35 25 60t61 25t60.5 -25t24.5 -60q0 -36 -24.5 -61t-60.5 -25t-61 25t-25 61zM263 753q0 -13 9.5 -22.5t22.5 -9.5t23 9.5t10 22.5t-10 22.5t-23 9.5t-22.5 -9.5t-9.5 -22.5zM295 538q-88 0 -150 62q-60 60 -60 151q0 88 61 149q62 62 151 62t148 -62
q59 -61 59 -149q0 -86 -61 -150q-62 -63 -148 -63zM295 878q-57 0 -91.5 -35t-34.5 -92q0 -27 9.5 -50.5t25.5 -40.5t38.5 -26.5t49.5 -9.5q56 0 90.5 35t36.5 92q0 56 -34 91.5t-90 35.5zM40 306q12 0 21 -8.5t9 -20.5q0 -13 -9 -22t-21 -9q-13 0 -21.5 9t-8.5 22
q0 12 8.5 20.5t21.5 8.5zM289 547q12 0 21 -8.5t9 -22.5q0 -11 -9 -20t-21 -9q-13 0 -21.5 9t-8.5 20q0 14 8.5 22.5t21.5 8.5zM289 59q12 0 21 -8.5t9 -20.5q0 -13 -9 -22t-21 -9q-13 0 -21.5 9t-8.5 22q0 12 8.5 20.5t21.5 8.5zM117 128q12 0 21 -8.5t9 -22.5
q0 -11 -9 -20t-21 -9q-13 0 -21.5 9t-8.5 20q0 14 8.5 22.5t21.5 8.5zM59 204q14 0 23 -8.5t9 -22.5q0 -11 -9 -21t-23 -10q-11 0 -20.5 10t-9.5 21q0 14 9.5 22.5t20.5 8.5zM191 78q14 0 23 -8.5t9 -22.5q0 -11 -9 -21t-23 -10q-11 0 -19.5 10t-8.5 21q0 14 8.5 22.5
t19.5 8.5zM117 420q-13 0 -21.5 8.5t-8.5 22.5q0 11 8.5 20t21.5 9q12 0 21 -9t9 -20q0 -14 -9 -22.5t-21 -8.5zM59 344q-11 0 -20.5 9t-9.5 22q0 11 9.5 21t20.5 10q14 0 23 -10t9 -21q0 -13 -9 -22t-23 -9zM191 470q-11 0 -19.5 8.5t-8.5 22.5q0 11 8.5 21t19.5 10
q14 0 23 -10t9 -21q0 -14 -9 -22.5t-23 -8.5zM529 306q13 0 21.5 -8.5t8.5 -20.5q0 -13 -8.5 -22t-21.5 -9q-12 0 -21 9t-9 22q0 12 9 20.5t21 8.5zM452 128q13 0 21.5 -8.5t8.5 -22.5q0 -11 -8.5 -20t-21.5 -9q-12 0 -21 9t-9 20q0 14 9 22.5t21 8.5zM510 204
q11 0 20.5 -8.5t9.5 -22.5q0 -11 -9.5 -21t-20.5 -10q-14 0 -23 10t-9 21q0 14 9 22.5t23 8.5zM378 78q11 0 19.5 -8.5t8.5 -22.5q0 -11 -8.5 -21t-19.5 -10q-14 0 -23 10t-9 21q0 14 9 22.5t23 8.5zM452 420q-12 0 -21 8.5t-9 22.5q0 11 9 20t21 9q13 0 21.5 -9t8.5 -20
q0 -14 -8.5 -22.5t-21.5 -8.5zM510 344q-14 0 -23 9t-9 22q0 11 9 21t23 10q11 0 20.5 -10t9.5 -21q0 -13 -9.5 -22t-20.5 -9zM378 470q-14 0 -23 8.5t-9 22.5q0 11 9 21t23 10q11 0 19.5 -10t8.5 -21q0 -14 -8.5 -22.5t-19.5 -8.5z" />
    <glyph glyph-name="VSM_O" unicode="&#x1034;" horiz-adv-x="659" 
d="M38 597q131 54 232.5 143t201.5 218l42 -91q-102 -114 -213.5 -195.5t-252.5 -138.5zM40 306q12 0 21 -8.5t9 -20.5q0 -13 -9 -22t-21 -9q-13 0 -21.5 9t-8.5 22q0 12 8.5 20.5t21.5 8.5zM289 547q12 0 21 -8.5t9 -22.5q0 -11 -9 -20t-21 -9q-13 0 -21.5 9t-8.5 20
q0 14 8.5 22.5t21.5 8.5zM289 59q12 0 21 -8.5t9 -20.5q0 -13 -9 -22t-21 -9q-13 0 -21.5 9t-8.5 22q0 12 8.5 20.5t21.5 8.5zM117 128q12 0 21 -8.5t9 -22.5q0 -11 -9 -20t-21 -9q-13 0 -21.5 9t-8.5 20q0 14 8.5 22.5t21.5 8.5zM59 204q14 0 23 -8.5t9 -22.5q0 -11 -9 -21
t-23 -10q-11 0 -20.5 10t-9.5 21q0 14 9.5 22.5t20.5 8.5zM191 78q14 0 23 -8.5t9 -22.5q0 -11 -9 -21t-23 -10q-11 0 -19.5 10t-8.5 21q0 14 8.5 22.5t19.5 8.5zM117 420q-13 0 -21.5 8.5t-8.5 22.5q0 11 8.5 20t21.5 9q12 0 21 -9t9 -20q0 -14 -9 -22.5t-21 -8.5zM59 344
q-11 0 -20.5 9t-9.5 22q0 11 9.5 21t20.5 10q14 0 23 -10t9 -21q0 -13 -9 -22t-23 -9zM191 470q-11 0 -19.5 8.5t-8.5 22.5q0 11 8.5 21t19.5 10q14 0 23 -10t9 -21q0 -14 -9 -22.5t-23 -8.5zM529 306q13 0 21.5 -8.5t8.5 -20.5q0 -13 -8.5 -22t-21.5 -9q-12 0 -21 9t-9 22
q0 12 9 20.5t21 8.5zM452 128q13 0 21.5 -8.5t8.5 -22.5q0 -11 -8.5 -20t-21.5 -9q-12 0 -21 9t-9 20q0 14 9 22.5t21 8.5zM510 204q11 0 20.5 -8.5t9.5 -22.5q0 -11 -9.5 -21t-20.5 -10q-14 0 -23 10t-9 21q0 14 9 22.5t23 8.5zM378 78q11 0 19.5 -8.5t8.5 -22.5
q0 -11 -8.5 -21t-19.5 -10q-14 0 -23 10t-9 21q0 14 9 22.5t23 8.5zM452 420q-12 0 -21 8.5t-9 22.5q0 11 9 20t21 9q13 0 21.5 -9t8.5 -20q0 -14 -8.5 -22.5t-21.5 -8.5zM510 344q-14 0 -23 9t-9 22q0 11 9 21t23 10q11 0 20.5 -10t9.5 -21q0 -13 -9.5 -22t-20.5 -9z
M378 470q-14 0 -23 8.5t-9 22.5q0 11 9 21t23 10q11 0 19.5 -10t8.5 -21q0 -14 -8.5 -22.5t-19.5 -8.5z" />
    <glyph glyph-name="VS_E_ABOVE" unicode="&#x1035;" horiz-adv-x="659" 
d="M476 661q-9 -18 -19 -33t-23 -26q-60 -63 -147 -63q-90 0 -150 62q-60 59 -60 151q0 89 61 149q60 62 151 62q88 0 148 -62q8 -7 14.5 -16t17.5 -27l-75 -37q-7 10 -10 13.5t-8 8.5q-35 36 -89 36q-58 0 -92.5 -35t-34.5 -92q0 -42 21 -73q3 5 13.5 19t19.5 22
q60 61 151 61q126 0 126 -65q0 -23 -15 -54v-1zM287 620q28 0 48.5 10.5t39.5 27.5q7 7 15 18.5t9 17.5q-16 4 -36 4q-57 0 -91 -36q-15 -14 -23 -34q2 -1 15 -4.5t23 -3.5zM40 306q12 0 21 -8.5t9 -20.5q0 -13 -9 -22t-21 -9q-13 0 -21.5 9t-8.5 22q0 12 8.5 20.5t21.5 8.5
zM289 547q12 0 21 -8.5t9 -22.5q0 -11 -9 -20t-21 -9q-13 0 -21.5 9t-8.5 20q0 14 8.5 22.5t21.5 8.5zM289 59q12 0 21 -8.5t9 -20.5q0 -13 -9 -22t-21 -9q-13 0 -21.5 9t-8.5 22q0 12 8.5 20.5t21.5 8.5zM117 128q12 0 21 -8.5t9 -22.5q0 -11 -9 -20t-21 -9q-13 0 -21.5 9
t-8.5 20q0 14 8.5 22.5t21.5 8.5zM59 204q14 0 23 -8.5t9 -22.5q0 -11 -9 -21t-23 -10q-11 0 -20.5 10t-9.5 21q0 14 9.5 22.5t20.5 8.5zM191 78q14 0 23 -8.5t9 -22.5q0 -11 -9 -21t-23 -10q-11 0 -19.5 10t-8.5 21q0 14 8.5 22.5t19.5 8.5zM117 420q-13 0 -21.5 8.5
t-8.5 22.5q0 11 8.5 20t21.5 9q12 0 21 -9t9 -20q0 -14 -9 -22.5t-21 -8.5zM59 344q-11 0 -20.5 9t-9.5 22q0 11 9.5 21t20.5 10q14 0 23 -10t9 -21q0 -13 -9 -22t-23 -9zM191 470q-11 0 -19.5 8.5t-8.5 22.5q0 11 8.5 21t19.5 10q14 0 23 -10t9 -21q0 -14 -9 -22.5
t-23 -8.5zM529 306q13 0 21.5 -8.5t8.5 -20.5q0 -13 -8.5 -22t-21.5 -9q-12 0 -21 9t-9 22q0 12 9 20.5t21 8.5zM452 128q13 0 21.5 -8.5t8.5 -22.5q0 -11 -8.5 -20t-21.5 -9q-12 0 -21 9t-9 20q0 14 9 22.5t21 8.5zM510 204q11 0 20.5 -8.5t9.5 -22.5q0 -11 -9.5 -21
t-20.5 -10q-14 0 -23 10t-9 21q0 14 9 22.5t23 8.5zM378 78q11 0 19.5 -8.5t8.5 -22.5q0 -11 -8.5 -21t-19.5 -10q-14 0 -23 10t-9 21q0 14 9 22.5t23 8.5zM452 420q-12 0 -21 8.5t-9 22.5q0 11 9 20t21 9q13 0 21.5 -9t8.5 -20q0 -14 -8.5 -22.5t-21.5 -8.5zM510 344
q-14 0 -23 9t-9 22q0 11 9 21t23 10q11 0 20.5 -10t9.5 -21q0 -13 -9.5 -22t-20.5 -9zM378 470q-14 0 -23 8.5t-9 22.5q0 11 9 21t23 10q11 0 19.5 -10t8.5 -21q0 -14 -8.5 -22.5t-19.5 -8.5z" />
    </font>
</defs>
</svg>
