<svg width="24" height="24" viewBox="0 0 24 24" xmlns="http://www.w3.org/2000/svg">
  <g fill="none" fill-rule="evenodd">
    <path d="M0 0h24v24H0z"/>
    <path d="M21.146 11.163v-2.6h-1.844v2.6h-2.655v1.857h2.655v2.673h1.844V13.02h2.58v-1.857h-2.58zm-13.422-.148v2.97s2.862-.004 4.027-.004c-.63 1.928-1.61 2.976-4.025 2.976-2.444 0-4.35-1.994-4.35-4.455 0-2.46 1.906-4.454 4.35-4.454 1.292 0 2.127.457 2.892 1.094.613-.618.56-.706 2.12-2.188A7.4 7.4 0 0 0 7.724 5C3.61 5 .276 8.358.276 12.5c0 4.142 3.335 7.5 7.448 7.5 6.15 0 7.652-5.39 7.153-8.985H7.724z" fill="#DD4B39"/>
  </g>
</svg>
