<svg width="24" height="24" viewBox="0 0 24 24" xmlns="http://www.w3.org/2000/svg">
  <g fill="none" fill-rule="evenodd">
    <path d="M0 0h23.862v23.862H0z"/>
    <g fill="#999">
      <path d="M20.494 7.792c-1.427 1.37-4.004 1.33-4.962 3.18-.818 2.196 1.107 5.703 1.91 7.703.546 1.033-4.252 2.03-3.665 2.285 3.385-.036 4.83-1.206 4.423-2.64-.39-1.374-2.144-4.115-2.144-6.306.05-1.654 2.004-2.162 3.263-2.836 1.46-.62 2.83-2.006 2.45-3.63-.015-.574-1.07-2.482-.64-1.003.236 1.092.348 2.44-.637 3.247"/>
      <path d="M16.09 5.326c-1.84-.9-3.888-1.444-6.03-.97-1.152.2-2.508.797-3.28 1.794-1.01 1.144-1.05 2.807-.387 4.115.515 1.007 1.3 2.128 2.57 2.296 1.09.157 2.29.017 3.22-.58-1.104.18-2.382.55-3.373-.147-1.66-1.005-2.467-3.287-1.46-4.952.81-1.45 2.44-1.86 4.167-1.93 2.3-.097 4.507 1.146 5.353 1.45.815.24 1.985.55 2.565-.27.34-.38.203-1.43-.072-1.527.08.735-.49 1.66-1.376 1.418-.662-.147-1.27-.45-1.896-.693M3.743 11.824c-1.067 1.592-2.042 3.457-1.67 5.398.342 2.03 2.416 3.46 4.478 3.715 2.117.234 4.23.174 6.352.03.358-.328-1.732-.32-2.612-.44-2.008-.214-4.186-.254-5.907-1.382C2.78 18.01 2.57 15.78 3.338 14.138c.644-1.55 1.607-3.048 2.62-4.343-.79.62-1.52 1.084-2.216 2.03"/>
      <path d="M9.014 16.833c1.25.09 3.326-.03 4.3.616.35.495-.3 3.245-.075 3.562.496.14 1.065-3.222.75-4.057-.24-.637-4.48-.298-4.977-.123"/>
    </g>
  </g>
</svg>
