<svg width="24" height="24" viewBox="0 0 24 24" xmlns="http://www.w3.org/2000/svg">
  <g fill="none" fill-rule="evenodd">
    <path d="M0 0h23.862v23.862H0z"/>
    <path d="M3.852 9.34c.573-.25 1.12-.506 1.68-.728 1.016-.403 2.066-.69 3.17-.714.33-.007.675.04.994.126.992.27 1.496.99 1.602 1.93.082.723.044 1.467-.01 2.197-.118 1.587-.278 3.17-.423 4.75-.09.978-.185 1.954-.268 2.93-.015.175-.082.238-.258.237-.88-.005-1.757-.008-2.634.002-.245.002-.275-.115-.256-.306.084-.86.162-1.718.242-2.577l.37-3.99c.046-.514.085-1.03.14-1.545.078-.7-.21-.986-.93-.91-.7.073-1.333.336-1.948.65-.42.214-.845.426-1.254.662a.467.467 0 0 0-.207.308c-.12 1.165-.226 2.332-.333 3.5-.12 1.292-.242 2.585-.352 3.88-.022.247-.115.336-.38.33-.803-.016-1.605-.005-2.408-.005-.356 0-.366-.002-.337-.337.14-1.61.285-3.22.428-4.83.12-1.34.243-2.678.356-4.017.032-.38.02-.382-.365-.384-.49-.004-.482-.003-.435-.48.053-.532.1-1.066.13-1.6.01-.22.09-.304.32-.3.578.01 1.157.003 1.735.004.98.002 1.36.28 1.632 1.22m9.826-3.946h-.86c0-.182-.013-.342 0-.5.05-.552.114-1.1.16-1.653.013-.176.088-.23.262-.228.83.007 1.66-.006 2.49.008.678.01 1.26.625 1.207 1.28-.12 1.456-.26 2.91-.39 4.364-.1 1.13-.192 2.257-.294 3.386-.103 1.138-.217 2.275-.32 3.413-.103 1.13-.196 2.26-.296 3.387-.03.353-.062.705-.113 1.055-.01.07-.112.18-.172.182-.97.01-1.94.004-2.91 0-.025 0-.05-.02-.113-.05l1.347-14.647m9.08 14.69c-.148.01-.238.018-.328.018-.907 0-1.813-.004-2.718.004-.2 0-.32-.056-.416-.238-1-1.876-2.01-3.75-3.025-5.618-.08-.15-.077-.255.015-.395 1.215-1.843 2.422-3.688 3.64-5.528.06-.09.197-.182.3-.183 1.138-.014 2.276-.01 3.415-.008.045 0 .09.01.178.022-.072.112-.125.202-.186.287-1.297 1.8-2.592 3.6-3.897 5.394-.125.172-.137.296-.035.485.97 1.8 1.926 3.606 2.886 5.41.05.097.096.195.17.347" fill="#999"/>
  </g>
</svg>
