<svg width="24" height="24" viewBox="0 0 24 24" xmlns="http://www.w3.org/2000/svg">
  <g fill="none" fill-rule="evenodd">
    <path d="M0 0h24v24H0z"/>
    <path d="M0 0h24v24H0z"/>
    <path d="M14.29 16.068c.33.32.617.598.908.875.644.613 1.296 1.22 1.934 1.84.67.65.694 1.557.07 2.176-.628.622-1.623.633-2.293-.01-.936-.9-1.846-1.825-2.796-2.766-.16.145-.26.23-.353.32-.81.778-1.624 1.554-2.43 2.337-.39.38-.838.627-1.41.577-.644-.056-1.112-.372-1.353-.953-.248-.598-.13-1.153.33-1.61.673-.672 1.372-1.318 2.06-1.974.268-.253.54-.502.864-.805-.213-.065-.355-.095-.485-.15-.806-.334-1.635-.63-2.407-1.024-.877-.447-1.115-1.38-.635-2.14.466-.732 1.412-.93 2.247-.473 2.342 1.285 4.684 1.284 7.025-.006.828-.455 1.78-.246 2.243.49.468.748.235 1.678-.618 2.117-.772.398-1.598.697-2.403 1.034-.136.058-.284.086-.5.15zM6.694 7.176c.01-2.858 2.42-5.13 5.422-5.118 2.925.013 5.31 2.344 5.29 5.17-.02 2.866-2.414 5.104-5.44 5.09-2.914-.013-5.283-2.325-5.272-5.142zm5.364-2.03c-1.192-.003-2.16.9-2.176 2.035-.017 1.116 1.01 2.103 2.177 2.095 1.164-.01 2.15-.957 2.154-2.077.005-1.123-.967-2.048-2.156-2.05z" fill="#999"/>
  </g>
</svg>
