<svg width="24" height="24" viewBox="0 0 24 24" xmlns="http://www.w3.org/2000/svg">
  <g fill="none" fill-rule="evenodd">
    <path d="M0 0h23.862v23.862H0z"/>
    <path d="M21.602 9.72c-1.418 1.324-2.836 2.65-4.257 3.97-.2.186-.313.387-.236.662l.09.54c-.76.01-1.517-.026-2.275-.06-.796-.034-1.592-.08-2.388-.13-.513-.03-1.026-.075-1.538-.115-.077-.006-.155-.013-.21-.082.21-.176.43-.325.65-.475a684.383 684.383 0 0 0 5.658-3.907c.03-.022.08-.034.07-.08-.008-.05-.06-.04-.097-.045-1.22-.238-2.45-.38-3.69-.44a30.287 30.287 0 0 0-7.275.54c-.168.033-.334.076-.502.114.043.022.083.022.12.022 1.06.02 2.115.053 3.17.1 1.18.053 2.362.114 3.538.252.398.046.793.108 1.19.163.026.002.06.004.07.03.01.036-.023.055-.05.074l-.18.128-6.1 4.3-.04.026c-.045.038-.036.066.02.076.075.01.15.015.224.024 1.24.143 2.488.22 3.737.246 1.32.026 2.64-.02 3.955-.153a23.35 23.35 0 0 0 2.696-.42c.107-.023.066-.054.17-.08.108-.028.176-.053.176-.064v.002c0 .014.13.028.12.042a2.838 2.838 0 0 1-.913.496c-.27.096-.233.097-.166.376.002.007.027.014.03.02.002.026.01.055.014.08.087.474.178.947.266 1.42.06.32.126.64.188.958.026.25.086.493.13.74.08.442.164.884.242 1.328a.58.58 0 0 1-.003.22c-.048.206-.208.294-.42.246a1.175 1.175 0 0 1-.3-.13c-1.68-.97-3.363-1.937-5.042-2.91-.346-.2-.674-.197-1.02.003-1.686.975-3.375 1.945-5.064 2.918a1.067 1.067 0 0 1-.245.112c-.294.08-.532-.153-.465-.453.074-.333.132-.67.19-1.006.042-.257.1-.51.152-.767l.06-.322c.07-.342.14-.684.207-1.027.084-.423.148-.85.236-1.275.088-.41.167-.824.235-1.238.026-.155.082-.303.075-.46.102-.22.062-.357-.16-.56L2.242 9.714a.868.868 0 0 1-.254-.374c.01-.227.133-.357.398-.39.412-.053.826-.096 1.24-.143l1.6-.18 1.568-.173c.5-.055.998-.114 1.497-.166.3-.03.468-.21.588-.46.4-.835.8-1.67 1.203-2.503l1.414-2.933c.05-.102.1-.202.183-.284.16-.158.347-.16.508-.005a.833.833 0 0 1 .18.272c.843 1.868 1.69 3.734 2.525 5.606.132.3.377.354.654.38.695.07 1.39.14 2.086.208.67.066 1.343.128 2.014.195.606.06 1.21.12 1.815.186.187.02.36.082.412.3.002.21-.132.34-.27.47" fill="#F5C13F"/>
  </g>
</svg>
