<svg width="24" height="24" viewBox="0 0 24 24" xmlns="http://www.w3.org/2000/svg">
  <g fill="none" fill-rule="evenodd">
    <path d="M0 0h24v24H0z"/>
    <path d="M20.68 7.328v.577c0 5.915-4.485 12.695-12.734 12.695-2.605 0-4.92-.72-6.946-2.02.434 0 .724.145 1.158.145 2.026 0 4.052-.722 5.644-1.876-1.882 0-3.618-1.3-4.197-3.176.29 0 .58.145.868.145.434 0 .434 0 1.013-.146-2.17-.432-4.052-2.308-4.052-4.472 0 .433 1.592.433 2.316.577-1.158-.866-1.882-2.165-1.882-3.75 0-.867.29-1.588.724-2.31 2.17 2.74 5.644 4.472 9.26 4.76-.143-.432-.143-.72-.143-1.01 0-2.45 2.024-4.47 4.484-4.47 1.302 0 2.46.433 3.328 1.443 1.013-.29 1.882-.577 2.75-1.154-.434 1.152-1.158 1.873-1.88 2.45a13.67 13.67 0 0 0 2.603-.72c-.723.864-1.447 1.73-2.315 2.307z" fill="#2AA9E0"/>
  </g>
</svg>
