<svg width="24" height="24" viewBox="0 0 24 24" xmlns="http://www.w3.org/2000/svg">
  <g fill="none" fill-rule="evenodd">
    <path d="M0 0h23.862v23.862H0z"/>
    <path d="M8.17 7.816a1.16 1.16 0 0 1 .79-.65c.34-.09.69-.157 1.038-.175a28.08 28.08 0 0 1 1.925-.023c.33.006.662.048.984.117.59.126.88.45.924 1.062.033.44.015.882 0 1.322-.02.462-.065.924-.09 1.386-.017.328-.03.655-.024.98.007.385.044.772.285 1.09.234.31.28.34.62.133.19-.115.35-.294.49-.472.963-1.23 1.7-2.59 2.26-4.052.053-.138.123-.27.18-.407.18-.446.526-.63.98-.633.415 0 .83.022 1.245.024.62.002 1.24-.012 1.86-.004a4 4 0 0 1 .798.082c.353.078.477.305.41.666-.094.51-.315.966-.567 1.408-.464.812-1.043 1.54-1.612 2.275a68.25 68.25 0 0 0-1.066 1.42 1.867 1.867 0 0 0-.19.345c-.23.504-.16.905.25 1.32.42.422.856.828 1.277 1.248.62.62 1.19 1.284 1.655 2.03.116.188.204.403.258.616.068.274-.05.5-.278.66-.265.186-.575.247-.884.25-.645.008-1.292-.013-1.937-.02-.328-.004-.655-.01-.978.067-.09.022-.2-.01-.296-.034-.618-.148-1.127-.49-1.587-.916-.455-.422-.834-.91-1.22-1.39a2.68 2.68 0 0 0-.48-.466 1.004 1.004 0 0 0-.443-.19c-.32-.045-.577.108-.678.424-.084.263-.117.543-.156.82-.036.272-.037.55-.077.824-.075.517-.227.743-.878.86-.537.093-1.073.046-1.608-.002-.74-.07-1.468-.207-2.166-.472-1.063-.4-1.96-1.05-2.74-1.874-.82-.873-1.52-1.845-2.185-2.84-1-1.5-1.834-3.092-2.606-4.72-.217-.458-.452-.91-.565-1.41-.04-.178-.06-.36-.09-.54-.02-.106.014-.19.113-.222.21-.07.42-.17.634-.18.528-.026 1.057-.006 1.586-.01.44-.004.88-.02 1.32-.022.1 0 .2.02.298.034.26.04.454.174.574.41.124.25.254.497.363.754.527 1.24 1.18 2.41 1.94 3.517.16.233.32.47.503.684.1.117.238.216.377.284.23.113.435.048.54-.184a2.32 2.32 0 0 0 .204-.662c.13-.972.147-1.95.055-2.925a4.39 4.39 0 0 0-.126-.66c-.078-.313-.28-.526-.57-.653-.164-.073-.33-.147-.493-.222-.05-.02-.095-.05-.147-.08" fill="#999"/>
  </g>
</svg>
