<svg width="24" height="24" viewBox="0 0 24 24" xmlns="http://www.w3.org/2000/svg">
  <g fill="none" fill-rule="evenodd">
    <path d="M0 0h23.862v23.862H0z"/>
    <g fill="#999">
      <path d="M16.562 11.618c-.273-.08-.46-.137-.318-.493.31-.775.342-1.443.006-1.92-.63-.894-2.353-.845-4.328-.024 0 0-.62.27-.46-.217.302-.97.257-1.783-.216-2.253-1.072-1.066-3.92.04-6.365 2.467-1.83 1.82-2.89 3.746-2.89 5.413 0 3.188 4.114 5.126 8.14 5.126 5.274 0 8.784-3.047 8.784-5.465 0-1.46-1.238-2.29-2.35-2.63m-6.425 6.954c-3.21.315-5.985-1.127-6.193-3.223-.21-2.094 2.226-4.05 5.437-4.363 3.212-.316 5.985 1.127 6.193 3.22.208 2.097-2.226 4.052-5.438 4.367m9.925-12.79a5.156 5.156 0 0 0-4.888-1.572.735.735 0 0 0-.57.876c.084.398.48.653.88.568 1.234-.26 2.57.12 3.476 1.117a3.613 3.613 0 0 1 .763 3.55.737.737 0 0 0 .478.93c.39.125.81-.088.936-.475v-.003c.544-1.677.2-3.59-1.075-4.99"/>
      <path d="M18.11 7.54a2.51 2.51 0 0 0-2.382-.766.635.635 0 1 0 .266 1.24c.413-.085.86.04 1.165.375.3.333.383.79.253 1.19a.636.636 0 0 0 .41.8.64.64 0 0 0 .806-.41c.265-.818.1-1.75-.52-2.43m-7.65 5.058c-1.53-.395-3.257.362-3.92 1.7-.676 1.365-.023 2.88 1.52 3.375 1.6.513 3.486-.273 4.14-1.746.648-1.44-.16-2.922-1.74-3.33m-1.17 3.488c-.31.492-.976.708-1.477.48-.494-.223-.64-.795-.33-1.275.308-.48.95-.692 1.448-.485.504.213.665.78.36 1.28m1.023-1.307c-.112.19-.36.283-.555.204-.19-.08-.25-.292-.142-.48.112-.186.35-.277.54-.202.195.07.265.286.157.478"/>
    </g>
  </g>
</svg>
