<svg width="24" height="24" viewBox="0 0 24 24" xmlns="http://www.w3.org/2000/svg">
  <g fill="none" fill-rule="evenodd">
    <path d="M0 0h24v24H0z"/>
    <path d="M6.76 20.985a9.53 9.53 0 0 1-2.192-.45c-2.005-.646-2.99-2.095-3.25-3.988a34.17 34.17 0 0 1-.082-8.58c.308-2.687 2.073-4.3 4.983-4.635 3.066-.353 6.145-.287 9.22-.17 1.113.043 2.237.177 3.32.41 2.427.52 3.736 2.024 3.983 4.35.26 2.448.35 4.9.157 7.35-.092 1.184-.246 2.37-.934 3.413-.927 1.405-2.37 2.057-4.04 2.22-1.94.19-9.4.21-11.166.08zm7.42-2.064c1.315-.074 2.63-.152 3.934-.31.836-.103 1.547-.53 1.87-1.296.262-.622.516-1.29.548-1.95.093-1.902.1-3.81.08-5.715-.008-.66-.153-1.326-.322-1.968-.314-1.19-1.13-1.916-2.448-2.076-.743-.09-1.49-.19-2.24-.202a175.776 175.776 0 0 0-5.53-.018c-1.19.016-2.382.07-3.566.176-1.546.136-2.424.863-2.808 2.222-.05.18-.093.362-.126.546-.345 1.92-.274 3.854-.204 5.784.028.78.155 1.565.317 2.333.23 1.096.928 1.842 2.1 2.132.41.1.834.18 1.254.202 1.654.083 6.42.182 7.14.14z" fill="#367DA9"/>
    <path d="M15.176 6.037L12.6 7.227l3.195 6.103-1.27.6-3.247-6.09L8.66 9.047l3.204 6.117-1.27.6L7.34 9.66l-2.564 1.183 3.87 7.37 10.368-4.836-3.838-7.34" fill="#F58237"/>
  </g>
</svg>
