<svg width="40" height="40" version="1.0" xmlns="http://www.w3.org/2000/svg" xmlns:xlink="http://www.w3.org/1999/xlink" x="0px" y="0px" viewBox="460 260 40 40" style="enable-background:new 460 260 40 40;" xml:space="preserve"><path fill="#ffffff" d="M472.7,276.1l-2.7-2.2c2.7-5.3,10.1-6.6,17.3-0.2l0.1,1.5C477.1,268.9,472.7,276.1,472.7,276.1z"/><path fill="#ffffff" d="M481.1,275.6c-8.5,0-6.9,14.1-6.9,14.1c8.6,0.4,16.4-1.5,16.4-1.5S488.4,275.6,481.1,275.6z M478.9,287.3 c0,0-0.1-3.1,1.1-5.5c0,0,0,0.1,0,0.1c0.7,0.5,1.6,0.4,2.2-0.3c0.6-0.7,0.5-1.6-0.1-2.2c0.4-0.1,0.8-0.3,1.3-0.3 c3.3-0.3,4.8,3.8,5.4,6.1l-3-0.2l2.6,1.8C486.7,287.1,481.7,287.7,478.9,287.3z"/></svg>
