<svg xmlns="http://www.w3.org/2000/svg" width="52" height="52" version="1.0" x="0px" y="0px" viewBox="460 260 52 52" xml:space="preserve"><path style="fill:#ffffff" d="m 475.51,284.0034 -3.51,-2.86 c 3.51,-6.89 13.13,-8.58 22.49,-0.26 l 0.13,1.95 c -13.39,-8.19 -19.11,1.17 -19.11,1.17 z"/><path style="fill:#ffffff" d="m 486.43,283.3534 c -11.05,0 -8.97,18.33 -8.97,18.33 11.18,0.52 21.32,-1.95 21.32,-1.95 0,0 -2.86,-16.38 -12.35,-16.38 z m -2.86,15.21 c 0,0 -0.13,-4.03 1.43,-7.15 0,0 0,0.13 0,0.13 0.91,0.65 2.08,0.52 2.86,-0.39 0.78,-0.91 0.65,-2.08 -0.13,-2.86 0.52,-0.13 1.04,-0.39 1.69,-0.39 4.29,-0.39 6.24,4.94 7.02,7.93 l -3.9,-0.26 3.38,2.34 c -2.21,0.39 -8.71,1.17 -12.35,0.65 z"/></svg>
