<svg xmlns="http://www.w3.org/2000/svg" height="52" width="52" xml:space="preserve" enable-background="new 0 0 52 52" viewBox="0 0 52 52" y="0px" x="0px" version="1.1"><path d="M14.798 17.538h-3.985v18.669c0 0 5.239-0.732 12.8 2.106c0 0-1.752-2.069-4.464-3.176 c-2.793-1.033-4.335-1.457-4.335-1.457L14.798 17.538z" fill="#FFFFFF"/><path d="M24.981 17.919c0 0-3.394-3.037-7.748-2.447v17.523c0 0 5 1.3 7.7 4.097V17.919z" fill="#FFFFFF"/><path d="M37.577 17.454h3.985v18.669c0 0-5.239-0.732-12.839 2.106c0 0 1.752-2.069 4.464-3.176 c2.793-1.033 4.335-1.457 4.335-1.457L37.577 17.454z" fill="#FFFFFF"/><path d="M27.394 17.835c0 0 3.394-3.037 7.748-2.447v17.523c0 0-5.018 1.293-7.748 4.097V17.835z" fill="#FFFFFF"/></svg>