<svg xmlns="http://www.w3.org/2000/svg" height="52" width="52" xml:space="preserve" enable-background="new 0 0 52 52" viewBox="0 0 52 52" y="0px" x="0px" version="1.1"><path d="M26 13.504c-7.732 0-14 5.535-14 12.363s6.268 12.4 14 12.363c1.045 0 2.059-0.109 3.039-0.301 l-0.606 3.713l4.05-4.824C36.949 34.8 40 30.6 40 25.867C40 19 33.7 13.5 26 13.504z M26.114 32.3 c-0.031 0.092-0.089 0.201-0.176 0.328c-0.087 0.127-0.193 0.244-0.32 0.351c-0.128 0.107-0.28 0.198-0.458 0.3 c-0.178 0.076-0.379 0.114-0.603 0.114c-0.478 0.01-0.885-0.117-1.22-0.381c-0.336-0.264-0.493-0.641-0.473-1.129 c0.011-0.213 0.064-0.414 0.16-0.602c0.097-0.188 0.237-0.346 0.42-0.473c0.183-0.127 0.404-0.208 0.664-0.244 c0.259-0.035 0.551-0.007 0.9 0.084c0.275 0.1 0.5 0.2 0.7 0.313c0.173 0.1 0.3 0.3 0.4 0.5 c0.082 0.2 0.1 0.3 0.1 0.488C26.172 32 26.2 32.2 26.1 32.308z M29.057 20.9 c-0.265 0.763-0.526 1.535-0.786 2.318c-0.259 0.783-0.509 1.555-0.747 2.318c-0.239 0.763-0.458 1.497-0.656 2.2 c-0.199 0.707-0.374 1.365-0.527 1.975c-0.051 0.214-0.13 0.346-0.236 0.397c-0.107 0.051-0.277 0.046-0.511-0.015 c-0.285-0.051-0.547-0.114-0.786-0.191c-0.239-0.076-0.47-0.17-0.694-0.282c-0.234-0.122-0.389-0.257-0.465-0.404 c-0.076-0.147-0.089-0.368-0.038-0.663c0.082-0.59 0.196-1.283 0.344-2.082c0.147-0.798 0.313-1.619 0.496-2.463 c0.183-0.844 0.371-1.678 0.564-2.501c0.193-0.824 0.376-1.561 0.549-2.211c0.082-0.315 0.201-0.508 0.359-0.58 c0.158-0.071 0.399-0.051 0.7 0.061c0.305 0.1 0.6 0.2 1 0.351c0.361 0.2 0.7 0.3 0.9 0.5 c0.275 0.2 0.4 0.4 0.5 0.572C29.161 20.4 29.1 20.7 29.1 20.931z" fill="#FFFFFF"/></svg>