<svg version="1.1" xmlns="http://www.w3.org/2000/svg" xmlns:xlink="http://www.w3.org/1999/xlink" x="0px" y="0px" viewBox="0 0 143.6 27" enable-background="new 0 0 143.6 27" xml:space="preserve"><path fill="#c8d2d7" d="M25.7,13.5c0,3.2-1.3,6.3-3.6,8.6c-2.3,2.3-5.4,3.6-8.6,3.6s-6.3-1.3-8.6-3.6c-2.3-2.3-3.6-5.4-3.6-8.6 c0-2.8,0.9-5.5,2.8-7.7c2.3-2.8,5.7-4.4,9.4-4.4c3.2,0,6.3,1.3,8.6,3.6C24.4,7.2,25.7,10.3,25.7,13.5 M27,13.5C27,6.1,20.9,0,13.5,0 C6.1,0,0,6.1,0,13.5C0,20.9,6.1,27,13.5,27C20.9,27,27,20.9,27,13.5 M20.3,22.9l-2.6-8l6.8-4.9l-8.4,0l-2.6-8l-2.6,8l-8.4,0l6.8,4.9 l-2.6,8l6.8-4.9L20.3,22.9z M139.3,10.8c0.9-1.7,2.3-2.5,4.3-2.3l-0.2,4.6c-3.1-0.7-3.6,1.7-3.6,4.2v6h-4.6V12.4 c-0.8-0.1-1.7-0.2-2.5-0.3V9.1c2.3-0.2,4.5-0.4,6.8-0.3v0.1C139.4,9.4,139.4,10.1,139.3,10.8 M124.8,20c1.4,0,2.3-1.2,2.3-2.6v-0.3 c-3,0-3.6,0.9-3.6,1.7C123.5,19.5,124,20,124.8,20 M127.6,21.6c-0.8,1.2-2.4,2-4.2,2c-2.8,0-4.3-1.7-4.3-4c0-3.7,3.5-5.4,8-5.4v-0.4 c0-1.1-0.5-1.6-2.4-1.6c-1.4,0-3,0.4-4.3,1.1l-0.4-3.9c1.7-0.5,3.5-0.9,5.3-0.9c4.9,0,6.4,1.9,6.4,5.2v6c0.8,0.1,1.7,0.2,2.5,0.3V23 c-2.2,0.2-4.5,0.4-6.7,0.3v-0.1C127.5,22.6,127.5,22.1,127.6,21.6 M118.9,19.4v3.7c-1,0.3-2.1,0.4-3.2,0.4c-3.4,0-4.5-1.2-4.5-4.7 v-6.5H109V8.8h2.1V4.6l4.6-1.2v5.4h3.1v3.6h-3.1v5.5c0,1.4,0.3,1.8,1.3,1.8C117.7,19.7,118.3,19.6,118.9,19.4 M106.6,11.8 c1.9,0.8,3.9,2.1,3.9,5.2c0,3.8-3.1,6.6-8,6.6c-1.4,0-2.7-0.1-4.1-0.5l0.2-4.4c1.3,0.5,2.8,0.8,4.2,0.8c1.6,0,2.7-0.7,2.7-1.9 c0-1.3-1.4-1.8-2.3-2.2c-0.5-0.2-0.9-0.3-1.4-0.5c-1.9-0.8-3.9-2-3.9-5.3c0-3.7,2.9-6.2,7.8-6.2c1.2,0,2.5,0.1,3.7,0.4L109,7.9 c-1.2-0.3-2.3-0.6-3.6-0.6c-1.8,0-2.6,0.8-2.6,1.7c0,1.2,1.4,1.7,2.3,2.1C105.7,11.4,106.2,11.6,106.6,11.8 M89.5,14.1h4 c0-1.4-0.7-2.2-1.9-2.2C90.5,11.9,89.6,12.8,89.5,14.1 M91.7,8.5c4.4,0,6.3,3,6.3,6.7c0,0.7-0.1,1.4-0.2,2.1h-8.4 c0.1,1.7,1.1,2.7,3.4,2.7c1.5,0,2.9-0.3,4.3-1l0.4,3.6c-1.7,0.7-3.6,1-5.4,1c-4.7,0-7.4-2.3-7.4-7.4C84.8,11.8,87.2,8.5,91.7,8.5  M56.1,21.6c-0.8,1.2-2.4,2-4.2,2c-2.8,0-4.3-1.7-4.3-4c0-3.7,3.5-5.4,8-5.4v-0.4c0-1.1-0.5-1.6-2.4-1.6c-1.4,0-3,0.4-4.3,1.1 l-0.4-3.9c1.7-0.5,3.5-0.9,5.3-0.9c4.9,0,6.4,1.9,6.4,5.2v6c0.8,0.1,1.4,0.2,2.3,0.3V23c-2.2,0.2-4.3,0.4-6.5,0.3v-0.1 C56.1,22.6,56.1,22.1,56.1,21.6 M53.3,20c1.4,0,2.3-1.2,2.3-2.6v-0.3c-3,0-3.6,0.9-3.6,1.7C52,19.5,52.5,20,53.3,20 M41.6,3.4 c1.9,0,3.9,0.3,5.7,0.9l-0.7,4.4c-1.7-0.7-3.4-1-5.2-1c-3.6,0-5.9,2.2-5.9,5.9c0,3.5,1.8,5.7,5.3,5.7c0.6,0,1.2-0.1,1.7-0.2v-6.3 h4.7v9.6c-2.2,0.9-4.6,1.3-6.9,1.3c-6.3,0-9.9-3.7-9.9-9.6C30.4,7.8,34.7,3.4,41.6,3.4 M67.3,10.7c1-1.3,2.5-2.1,4.3-2.1 c2,0,3.3,1,3.9,2.4c0.8-1.3,2.3-2.4,4.4-2.4c2.8,0,4.4,1.6,4.4,4.9v9.9h-4.6v-9c0-1.2-0.3-1.8-1.1-1.8c-1.2,0-2.6,1.6-2.6,3.9v6.9 h-4.5v-9c0-1.1-0.3-1.8-1.1-1.8c-1.2,0-2.6,1.7-2.6,3.9v6.9h-4.6V12.4c-0.8-0.1-1.6-0.2-2.5-0.3v-3c2.2-0.2,4.5-0.4,6.8-0.3v0.1 C67.4,9.4,67.4,10,67.3,10.7"/></svg>
