<svg xmlns="http://www.w3.org/2000/svg" height="52" width="52" xml:space="preserve" enable-background="new 0 0 52 52" viewBox="0 0 52 52" y="0px" x="0px" version="1.1"><rect height="14.1" width="22" fill="#FFFFFF" y="24.4" x="15.5"/><polygon points="18.5,16.6 18.7,16.3 18.7,16.3" fill="none"/><polygon points="36.1,12.6 33.2,18.8 37.1,17.9" fill="#FFFFFF"/><polygon points="18.5,16.6 18.7,16.3 18.7,16.3 18.7,16.3 14.5,17.2 15.5,22.5 18.5,16.6 18.5,16.6" fill="#FFFFFF"/><polygon points="21.8,15.6 21.8,15.6 18.9,21.8 22.7,21 25.8,14.8 21.8,15.6" fill="#FFFFFF"/><polygon points="26,20.3 29.8,19.5 33,13.3 29,14.1" fill="#FFFFFF"/><polygon points="18.5,16.6 18.5,16.6 18.5,16.6" fill="#27AAE1"/></svg>