<svg xmlns="http://www.w3.org/2000/svg" height="52" width="52" xml:space="preserve" enable-background="new 0 0 52 52" viewBox="0 0 52 52" y="0px" x="0px"><path d="M37.995 20.518c-2.802-8.22-11.882-8.499-12.016-8.501c-0.092 0.002-9.173 0.281-11.974 8.5 c-2.57 7.5 0.5 11.9 1.1 12.613c-0.037 0.406-0.041 0.8 0 1.342c0.443 4.4 4.4 4.5 4.4 4.544l-1.456-9.67 c0 0-1.186 0.253-2.068 1.364c-0.776-1.592-1.688-4.789-0.072-9.53c2.332-6.841 9.759-7.102 10.03-7.109 c0.077 0 7.7 0.2 10.1 7.109c1.542 4.5 0.8 7.6 0 9.294c-0.851-0.912-1.868-1.128-1.868-1.128l-1.456 9.7 c0 0 3.981-0.125 4.424-4.544c0.065-0.646 0.04-1.203-0.037-1.7C38.061 31.4 40.3 27.3 38 20.518z" fill="#FFFFFF"/><rect height="2" width="9.8" fill="#FFFFFF" transform="matrix(-0.1503 -0.9886 0.9886 -0.1503 -8.2444 60.258)" y="32.7" x="16.8"/><rect height="9.8" width="2" fill="#FFFFFF" transform="matrix(-0.9886 -0.1503 0.1503 -0.9886 55.6589 71.5493)" y="28.7" x="29.5"/></svg>
