<svg version="1.0" xmlns="http://www.w3.org/2000/svg" x="0px" y="0px" viewBox="-469 271 20 20" style="enable-background:new -469 271 20 20;" xml:space="preserve"><g transform="translate(2.000000, 1.000000)" ><path style="fill:#FFF;" d="M-453,285.6h-16c0-0.3,0.1-0.6,0.1-0.8
c0.2-0.9,0.8-1.7,1.5-2.3c0.9-0.7,1.4-1.7,1.6-2.8c0.2-0.9,0.2-1.9,0.2-2.8c0-1,0.2-1.9,0.8-2.7c0.6-0.9,1.5-1.5,2.5-1.8
c0.1,0,0.1,0,0.1-0.1c-0.1-0.7,0.5-1.3,1.2-1.3c0.6,0,1.1,0.6,1,1.2c0.3,0.1,0.7,0.2,1,0.4c1.5,0.8,2.3,2.1,2.4,3.8
c0,0.8,0,1.6,0.1,2.4c0.1,1.1,0.4,2.2,1.1,3.1c0.2,0.3,0.5,0.5,0.7,0.7c0.8,0.7,1.4,1.7,1.5,2.8C-453,285.4-453,285.5-453,285.6"/>
<path style="fill:#FFF;" d="M-458.7,286.7c0,0.8-0.3,1.4-1,1.8 c-0.8,0.5-1.6,0.6-2.4,0.1c-0.7-0.4-1.1-1.1-1.1-1.9H-458.7z"/></g></svg>
