<svg version="1.1" id="GLYPHICONS_v1.6" xmlns="http://www.w3.org/2000/svg" xmlns:xlink="http://www.w3.org/1999/xlink" x="0px"
	 y="0px" viewBox="0 0 18 18" enable-background="new 0 0 18 18" xml:space="preserve">
<path fill="#092140" d="M17.9,16.3l-1.6,1.6c-0.1,0.1-0.4,0.1-0.5,0l-4.5-4.5c-1.1,0.7-2.5,1.2-3.9,1.2c-4,0-7.3-3.3-7.3-7.3
	C0,3.3,3.3,0,7.3,0c4,0,7.3,3.3,7.3,7.3c0,1.4-0.4,2.8-1.2,3.9l4.5,4.5C18,15.9,18,16.1,17.9,16.3z M12.2,7.3c0-2.7-2.2-5-5-5
	c-2.7,0-5,2.2-5,5c0,2.7,2.2,5,5,5C10,12.2,12.2,10,12.2,7.3z"/>
</svg>
