<?xml version="1.0" encoding="utf-8"?>
<svg version="1.0" id="Layer_1" xmlns="http://www.w3.org/2000/svg" xmlns:xlink="http://www.w3.org/1999/xlink" x="0px" y="0px"
	 viewBox="0 0 50 37.7" xml:space="preserve">
<path d="M40.8,10.6 M39.5,13.9" fill="white"/>
<path fill="white" class="st0" d="M48.6,10.5h-7v7h-2v-7h-7v-2h7v-7h2v7h7V10.5z"/>
<g fill="white">
	<path d="M35.5,13.6h-7.2c0,0,0,0,0,0l-1-2.1c-0.3-0.5-1-1-1.5-1H12c-0.6,0-1.3,0.4-1.6,1l-1,2.1c0,0,0,0,0,0H1.9
		c-0.6,0-1.1,0.5-1.1,1.1v20.6c0,0.6,0.5,1.1,1.1,1.1h33.6c0.6,0,1.1-0.5,1.1-1.1V14.7C36.6,14.1,36.1,13.6,35.5,13.6z M18.7,33.2
		c-4.7,0-8.4-3.8-8.4-8.5c0-4.7,3.8-8.5,8.4-8.5c4.7,0,8.4,3.8,8.4,8.5C27.1,29.4,23.4,33.2,18.7,33.2z"/>
	<path d="M18.7,20.1c-2.6,0-4.7,2.1-4.7,4.8c0,2.6,2.1,4.8,4.7,4.8c2.6,0,4.7-2.1,4.7-4.8C23.4,22.2,21.3,20.1,18.7,20.1z"/>
</g>
</svg>
