<?xml version="1.0" encoding="utf-8"?>
<!-- Generator: Adobe Illustrator 17.0.0, SVG Export Plug-In . SVG Version: 6.00 Build 0)  -->
<!DOCTYPE svg PUBLIC "-//W3C//DTD SVG 1.1//EN" "http://www.w3.org/Graphics/SVG/1.1/DTD/svg11.dtd">
<svg version="1.1" xmlns="http://www.w3.org/2000/svg" xmlns:xlink="http://www.w3.org/1999/xlink" x="0px" y="0px"
	 width="19.6px" height="19.5px" viewBox="0 0 19.6 19.5" enable-background="new 0 0 19.6 19.5" xml:space="preserve">
<g>
	<path fill="#FFFFFF" d="M6.4,16.4l-3.3-3.3L13.5,2.8l3.3,3.3L6.4,16.4z M5.1,17.6c0.2-0.1,0.3-0.3,0.1-0.4
		l-2.7-2.7c-0.2-0.2-0.4-0.1-0.4,0.1l-1.8,4.6c-0.1,0.2,0,0.3,0.2,0.2L5.1,17.6z M19.4,2.6l-2.5-2.5c-0.2-0.2-0.6-0.2-0.8,0
		l-0.4,0.4l-0.8,0.8l-0.4,0.4l0.4,0.4l2.5,2.5L17.8,5l0.4-0.4L19,3.9l0.4-0.4C19.6,3.2,19.6,2.9,19.4,2.6z"/>
</g>
</svg>
