<?xml version="1.0" standalone="no"?>
<!DOCTYPE svg PUBLIC "-//W3C//DTD SVG 1.1//EN" "http://www.w3.org/Graphics/SVG/1.1/DTD/svg11.dtd" >
<svg xmlns="http://www.w3.org/2000/svg">
<metadata>
This is a custom SVG webfont generated by Font Squirrel.
</metadata>
<defs>
<font id="webfont9jUXe5iO" horiz-adv-x="1167" >
<font-face units-per-em="4096" ascent="3276" descent="-820" />
<missing-glyph horiz-adv-x="1094" />
<glyph unicode=" "  horiz-adv-x="1094" />
<glyph unicode="&#x09;" horiz-adv-x="1094" />
<glyph unicode="&#xa0;" horiz-adv-x="1094" />
<glyph unicode="!" horiz-adv-x="459" d="M360 1724q-22 -242 -47 -490t-39 -405.5t-24 -320.5q-19 0 -49 33q-13 143 -23 355t-18 364t-24.5 331t-49.5 371q0 128 98 164q31 12 58 12q62 0 98 -53q49 -65 49 -148q0 -36 -13 -112.5t-16 -100.5zM365 229q16 -32 16 -73q-8 -119 -98 -148q-34 -8 -50 -8 q-101 0 -143 102q-8 34 -8 54q7 80 57 118q35 29 90 29q93 0 136 -74z" />
<glyph unicode="&#x22;" horiz-adv-x="963" d="M446 2560q29 -79 29 -168q0 -134 -72.5 -256t-214.5 -264q-44 -45 -69 -45q-29 0 -29 49q307 230 307 557q-21 33 -53 33q-20 0 -64 -16.5t-67 -16.5q-45 0 -82 53q-33 48 -33 90q0 35 21 66q67 74 135 74q137 0 192 -156zM860 2560q29 -79 29 -168q0 -134 -72.5 -256 t-214.5 -264q-45 -45 -70 -45q-28 0 -28 49q307 230 307 557q-21 33 -53 33q-20 0 -64 -16.5t-67 -16.5q-46 0 -82 53q-33 46 -33 86q0 33 25 70q67 74 131 74q142 0 192 -156z" />
<glyph unicode="$" horiz-adv-x="1528" d="M1434 438q-35 -130 -134 -206.5t-292 -182.5q-13 -69 -14 -234t-19 -245l-62 12q0 34 2.5 98.5t2.5 122.5q0 144 -21 246q-98 -33 -279 -33q-13 -82 -15 -232.5t-9 -217.5q-16 0 -34.5 4.5t-27.5 7.5l5 451q-161 47 -264.5 109.5t-170.5 189.5q-41 84 -41 155 q0 104 66 164q22 29 66 29q71 -428 311 -492l45 17l-8 745q-218 80 -312 234q-73 109 -73 245q0 95 37 193q45 128 139 212t213 112q0 65 -2 137t-2 88q0 63 20 94q62 -20 62 -119q0 -34 -4.5 -92.5t-4.5 -103.5q24 0 84 4t93 4q81 0 118 -8q25 38 25 106q0 23 -6 91t-6 122 l28 25q58 -71 58 -357q279 -87 315 -258q8 -56 8 -86q0 -85 -53 -143q-53 -40 -90 -45q-13 0 -45 8q-13 13 -13 29q0 15 23 55t23 68q-9 201 -132 237l-24 -20l-8 -631q42 -29 117 -64t125.5 -66.5t93.5 -86.5q110 -153 110 -324q0 -81 -24 -168zM545 1843q-30 0 -52.5 -9 t-36.5 -21t-33 -34l-26 -30q-98 -98 -98 -242q0 -64 33 -135q89 -155 200 -155q21 80 21 241q0 47 -4 173t-4 212zM913 1831q-27 6 -63 16t-66.5 17t-58.5 8q-61 0 -98 -17v-651q132 -45 278 -45q8 205 8 672zM913 168v700q-30 7 -127 14t-151 36v-758l24 -17q123 0 254 25z M1282 655q-23 81 -103 138t-167 63v-672q109 0 205 103q86 86 86 221q0 61 -21 147z" />
<glyph unicode="%" horiz-adv-x="1683" d="M713 1049l151 275l250 468q164 310 168 317h148l-180 -347l-189 -347l-205 -371l-191 -365l-255 -475q-83 -149 -131 -200q0 194 73 393q-4 0 361 652zM799 1716q-55 -204 -267 -254q-54 -12 -110 -12q-157 0 -275 98q-102 80 -102 209q0 58 16 107q34 113 123.5 184 t216.5 86q129 0 207 -28.5t133 -94.5q70 -80 70 -196q0 -49 -12 -99zM684 1954q-70 97 -143 119q-49 16 -111 16q-119 0 -197 -115q-57 -93 -57 -200q0 -49 17 -119q21 -64 79.5 -106.5t133.5 -45.5q93 0 149 16t96 70q82 100 82 209q0 77 -49 156zM1659 262 q-55 -206 -266 -250q-55 -16 -115 -16q-146 0 -270 98q-103 85 -103 209q0 59 17 107q34 113 123.5 184t216.5 86q234 0 340 -123q69 -75 69 -192q0 -53 -12 -103zM1544 500q-68 101 -143 118q-54 17 -115 17q-121 0 -192 -115q-58 -86 -58 -196q0 -53 17 -123 q21 -64 79.5 -106.5t133.5 -45.5q93 0 149 16t96 70q82 100 82 209q0 83 -49 156z" />
<glyph unicode="&#x26;" horiz-adv-x="2179" d="M2097 1204q12 -33 12 -94q0 -103 -69 -184q-75 -82 -201 -82q4 24 48 52t59 50q53 88 53 164q0 69 -45 119q-108 120 -299 127q-46 0 -123 -17q6 -41 15 -141.5t9 -234.5q0 -693 -307 -906q-74 -53 -172 -53q-70 0 -135 16q-164 39 -234 176.5t-106 368.5q-8 66 -8 94 q0 98 33 266t37 226q-179 0 -292 23.5t-204 115.5q-143 157 -143 320q0 62 28 155q81 251 320 303q53 13 114 13q137 0 238 -82q188 -156 188 -475q0 -146 -24 -299q62 34 264 81t322 70q-5 86 -5 230q0 220 -61 352q-18 24 -91 45.5t-77 56.5q67 10 153.5 11t176 2.5 t158.5 11.5l12 -29q-13 -21 -91 -48t-98 -79q-24 -108 -24 -307q0 -164 4 -233q30 2 99.5 15t105.5 13q72 0 123 -20q100 -35 156 -74.5t81 -118.5zM680 1884q-43 135 -205 135q-21 0 -69 -8q-69 -16 -103.5 -56t-85.5 -132q-41 -88 -41 -181q0 -176 139 -327 q111 -111 267 -111q32 0 90 8q53 172 53 365q0 161 -45 307zM1470 1319q-107 -18 -299.5 -59t-281.5 -80q-12 -71 -42.5 -210t-47.5 -247t-17 -207q0 -318 213 -430q52 -25 99 -25q146 0 229 152q156 273 156 676q0 83 -4.5 209.5t-4.5 220.5z" />
<glyph unicode="'" horiz-adv-x="590" d="M446 2560q29 -79 29 -168q0 -134 -72.5 -256t-214.5 -264q-44 -45 -69 -45q-29 0 -29 49q307 230 307 557q-21 33 -53 33q-20 0 -64 -16.5t-67 -16.5q-45 0 -82 53q-33 48 -33 90q0 35 21 66q67 74 135 74q137 0 192 -156z" />
<glyph unicode="(" horiz-adv-x="795" d="M815 20q-110 9 -218 38t-171 77q-377 310 -377 856q0 230 74 500q44 160 158 296t258 220.5t268 101.5q-50 -43 -149 -100t-171 -116t-130 -164.5t-87 -278.5q-24 -222 -24 -369q0 -555 225 -856q34 -45 82 -75t133 -67t129 -63z" />
<glyph unicode=")" horiz-adv-x="844" d="M647 1491q74 -270 74 -500q0 -546 -377 -856q-64 -48 -172 -77t-217 -38q44 26 129 63t133 67t82 75q225 301 225 856q0 147 -24 369q-28 171 -86.5 278.5t-128.5 164.5t-173 117t-149 99q124 -17 268 -101.5t258 -220.5t158 -296z" />
<glyph unicode="*" d="M696 1118q0 -327 -28 -368q-101 100 -131 196q-3 0 4 160q-218 -233 -275 -238q0 152 41 234q10 0 131 123q-336 0 -377 24q109 109 197 135q-5 0 193 -8q-100 105 -234 226l107 106q133 -120 225 -217q0 209 -4 311h147q8 -114 8 -332l114 118l108 112l106 -107 q-71 -79 -221 -221h303v-147q-204 -8 -295 -8q116 -110 175 -173t59 -98q-144 0 -234 45q10 0 -119 127z" />
<glyph unicode="+" d="M545 1225q-43 0 -134 -2t-132 -2q-184 0 -218 28q109 109 197 135l114 -6q74 -3 177 -6q0 291 -4 430h147q8 -147 8 -430h410v-147q-139 -4 -414 -4v-258q0 -180 -28 -213q-101 100 -131 196q-1 0 8 279z" />
<glyph unicode="," horiz-adv-x="590" d="M446 127q29 -79 29 -168q0 -134 -72.5 -256t-214.5 -264q-44 -45 -69 -45q-29 0 -29 49q307 230 307 557q-21 33 -53 33q-20 0 -64 -16.5t-67 -16.5q-45 0 -82 53q-33 48 -33 90q0 35 21 66q67 74 135 74q137 0 192 -156z" />
<glyph unicode="-" d="M582 1372h528v-147h-532q-50 0 -159 -2t-157 -2q-166 0 -201 28q109 109 197 135q-57 0 324 -12z" />
<glyph unicode="." horiz-adv-x="590" d="M393 197q8 -17 8 -50q-6 -58 -36 -94q-47 -53 -115 -53q-17 0 -49 8q-82 32 -82 123q0 44 24 82q35 57 99 70q117 0 151 -86z" />
<glyph unicode="/" horiz-adv-x="1364" d="M541 1049l151 275l250 468q164 310 168 317h147q-171 -339 -573 -1065l-191 -365q-171 -327 -256 -476.5t-131 -198.5q0 192 74 393q-4 0 361 652z" />
<glyph unicode="0" horiz-adv-x="1761" d="M1520 446q-106 -217 -291.5 -331.5t-417.5 -114.5q-61 0 -90 4q-142 14 -295 131q-336 281 -336 807q0 283 86 590q68 245 259 405.5t413 188.5q82 8 115 8q295 0 479 -229q258 -312 258 -738q0 -339 -180 -721zM1339 1733q-80 142 -206 228.5t-269 86.5q-109 0 -209 -53 q-272 -142 -344 -557q-24 -230 -24 -348q0 -317 110 -562t377 -393q88 -45 168 -45q202 0 356 201q226 305 226 737q0 385 -185 705z" />
<glyph unicode="1" horiz-adv-x="979" d="M922 53v-49q-139 -4 -421 -4t-415 -4q-49 7 -49 57q0 21 8 25q39 15 138.5 16.5t148 12.5t49.5 57v1655q-38 -8 -68.5 -32.5t-75 -70t-79 -70t-68.5 -24.5q-21 0 -45 12v33q304 233 414 426q26 37 65 37q24 0 86 -29v-1900q0 -79 107 -111z" />
<glyph unicode="2" horiz-adv-x="1536" d="M1466 344q0 -172 -77 -250q-106 -106 -242 -106q-77 0 -147 23.5t-201.5 80t-213 83t-163.5 26.5q-181 0 -320 -172q-32 32 -32 82q0 43 49 132.5t57 112.5q68 166 194 280t363.5 287.5t346 301t108.5 295.5q0 158 -119 360q-99 168 -315 168q-115 0 -230 -45 q-114 -41 -180 -92t-98 -146q-21 -51 -21 -114q0 -75 45 -181q44 -116 205 -131q56 0 131 50t115 57q20 -20 20 -45t-41 -82q-92 -139 -303 -139q-166 11 -266 159q-53 80 -53 181q0 71 16 131q32 133 119.5 237t210 165t252.5 73q82 8 127 8q333 0 504 -238 q110 -140 110 -294q0 -83 -33 -193q-64 -214 -196.5 -345.5t-371 -273.5t-360.5 -234.5t-206 -256.5q214 67 340 74q92 0 167.5 -23t180 -67.5t186.5 -67t195 -22.5q65 10 65 110q0 38 -8 94q-4 36 -45 75t-45 89q153 -67 180 -217z" />
<glyph unicode="3" horiz-adv-x="1593" d="M1454 971q66 -126 66 -279q0 -213 -123 -389q-208 -311 -643 -311q-118 0 -283 28q-161 33 -268.5 125t-124.5 228q0 217 86 303q24 27 65.5 52.5t69.5 25.5q20 0 20 -21q-4 -43 -36.5 -126t-32.5 -152q17 -212 192 -316q134 -73 295 -73q225 0 398 135q200 154 200 377 q0 73 -24 147q-102 303 -348 336q-100 16 -148 16q-109 0 -139 -82h-41q0 88 48.5 128.5t143 77t127.5 69.5q242 151 242 360q0 48 -12 90q-45 229 -316 303q-84 25 -168 25q-151 0 -258 -106q-143 -145 -143 -246q0 -45 37 -86q60 -66 201 -66q73 0 73 -24q0 -9 -8 -17 q-71 -106 -221 -106q-120 10 -197 139q-28 52 -28 106q0 110 131 271q195 250 499 250q157 0 308 -66q101 -41 163 -93.5t99 -143.5q33 -80 33 -156q0 -71 -33 -172q-32 -89 -82.5 -136.5t-167.5 -138.5l104 -63q98 -60 153.5 -108t90.5 -115z" />
<glyph unicode="4" horiz-adv-x="1769" d="M1667 909q25 -70 25 -127q0 -59 -29 -118q-73 -152 -369 -152q-20 -56 -20 -139q0 -23 4 -95t4 -135q4 -49 46.5 -61t104 -25t78.5 -45q-112 -9 -342.5 -11t-300.5 -5q-8 24 -8 41q26 8 87 14.5t93 21.5t37 54q0 41 8.5 121t8.5 129q0 114 -70 168q-213 59 -322 84.5 t-239 25.5q-71 0 -152 -12q-21 -6 -79 -74.5t-97 -68.5q-25 0 -57 32q0 45 23.5 66.5t76 50.5t76.5 60q33 53 65.5 119.5t72.5 165.5l63 149q49 121 93 256t66 216t66 257l65 258q16 0 56 2t59 2q72 0 86 -49q-144 -659 -565 -1294v-41q122 0 214 -14t241.5 -43.5 t232.5 -37.5q3 26 20 258.5t67 359.5t175 197q-53 -296 -53 -802q8 -29 111 -29q96 5 167 119q21 39 21 65q0 28 -20.5 83.5t-20.5 97.5q103 0 131 -95z" />
<glyph unicode="5" horiz-adv-x="1569" d="M1483 926q28 -92 28 -193q0 -298 -286 -565q-200 -188 -537 -188q-178 0 -348 53q-108 34 -178.5 123.5t-91.5 212.5q-9 54 -9 69q0 107 59 196.5t154 139.5q7 0 19 4t18 4q11 0 21 -20q-99 -112 -99 -258q0 -84 37 -172q39 -97 101.5 -150.5t173.5 -99.5 q103 -41 213 -41q187 0 344 143q221 202 221 463q0 84 -25 168q-148 472 -516 500q-45 4 -131 4q-221 0 -303 -168q-9 -17 -23 -57t-30.5 -60.5t-44.5 -21.5q-70 0 -70 45q2 52 60.5 128.5t70.5 121.5q36 122 39 273l8 295q3 144 39 255q4 8 17 8q32 0 32 -41q0 -16 33 -41 q116 66 271 66q69 0 335 -45q47 -9 62 -9q78 0 233 74q0 -86 -49 -155q-85 -107 -229 -107q-62 0 -197.5 26.5t-208.5 26.5q-123 0 -204 -65q-25 -25 -40.5 -62.5t-23.5 -87t-9.5 -90t-4.5 -84.5l-9 -55q-6 -36 -9 -66t-3 -84q43 6 206 42t261 36q72 0 160 -20 q161 -36 286 -162t177 -309z" />
<glyph unicode="6" horiz-adv-x="1692" d="M1577 909q41 -103 41 -221q0 -231 -176 -446q-208 -254 -541 -254q-157 0 -328 57q-127 47 -206 117.5t-158 197.5q-32 56 -62 132q-90 251 -90 475q0 237 92.5 457.5t272.5 406.5q312 319 639 319q146 0 299 -73q124 -69 151 -160q13 -42 13 -82q0 -93 -70 -152 q-67 -65 -119 -65q-15 0 -49 8q0 28 33 100t33 113q0 67 -78 123q-138 98 -279 98q-86 0 -168 -41q-271 -140 -391.5 -419t-120.5 -625q0 -154 17 -266q62 -442 377 -582q126 -57 249 -57q158 0 275 90q188 145 188 368q0 84 -16 160q-37 172 -101 287.5t-198 167.5 q-96 37 -180 37q-129 0 -262 -82q-38 -23 -70 -72l-56 -86q-25 -37 -63 -51q0 96 74 192q140 195 438 209q190 0 354.5 -101.5t235.5 -279.5z" />
<glyph unicode="7" horiz-adv-x="1638" d="M1565 2044q-27 -78 -79 -116l-115 -82q-64 -43 -93 -105q-116 -171 -200 -367t-136 -405.5t-77.5 -421t-33.5 -461.5q0 -61 -73 -82q-17 -8 -53 -8q-54 0 -70 33q-37 88 -37 225q0 54 8 184q13 194 70.5 366t140.5 328.5t216.5 376t183.5 314.5q-55 32 -132 32 q-20 0 -79 -4t-105 -4q-93 7 -270.5 69t-257.5 62q-140 0 -209 -155q-12 -25 -12 -78q7 -104 81 -156q31 -20 95 -20q40 0 76 6t51 10q-15 -71 -115 -106q-25 -9 -66 -9q-71 0 -139 50q-69 53 -69 172q0 58 16 114q31 114 120.5 195.5t211.5 112.5q82 20 139 20 q82 0 160.5 -22t196.5 -68t190.5 -68t156.5 -26q33 0 56.5 15.5t56 52t48.5 51.5t40 20q107 0 107 -45z" />
<glyph unicode="8" horiz-adv-x="1663" d="M1528 868q61 -115 61 -245q0 -168 -102 -316q-221 -319 -684 -319q-134 0 -271 24q-341 57 -446 377q-25 77 -25 152q0 211 164 356q31 28 78 62t94.5 64t81.5 54q-137 114 -207.5 204.5t-70.5 221.5q0 346 266 516q203 131 434 131q160 0 290.5 -67t201.5 -203 q45 -104 45 -209q0 -182 -107 -307q-37 -43 -120.5 -95t-108.5 -73q42 -31 153 -87.5t176.5 -107.5t96.5 -133zM1282 1569q0 213 -115 340q-145 151 -364 151q-228 0 -357 -172q-86 -110 -86 -237q0 -105 58 -193q39 -64 95 -104.5t119.5 -63t131.5 -36.5l158 -33 q138 35 240.5 126t119.5 222zM1393 684q-40 144 -226 213l-187 75q-82 34 -156.5 55.5t-147.5 21.5q-198 0 -324 -197q-78 -121 -78 -254q0 -116 62 -246q59 -131 143 -184q55 -36 180 -57q92 -17 201 -17q318 7 471 189q90 106 90 233q0 61 -28 168z" />
<glyph unicode="9" horiz-adv-x="1696" d="M1487 1782q131 -233 131 -545q0 -439 -229 -774q-100 -135 -227.5 -243t-274.5 -170t-297 -62q-97 0 -209 32q-187 65 -217 201q-8 50 -8 70q0 58 37 119q38 61 65.5 91.5t69.5 30.5q19 0 45 -12q41 -20 41 -49q0 -24 -37 -82t-37 -94q0 -34 16 -62q102 -155 287 -155 q226 0 395.5 151.5t247.5 368.5q119 342 119 602q0 317 -172 598q-163 266 -447 266q-86 0 -147 -20q-257 -81 -340 -344q-37 -110 -37 -213q0 -295 254 -451q130 -86 258 -86q90 0 197 49q54 25 90 62t83 102t73 90q20 -10 20 -36q0 -49 -37 -103q-104 -131 -237.5 -202.5 t-319.5 -71.5q-350 26 -504 311q-73 129 -73 274q0 171 106 357q191 333 631 352q468 0 684 -352z" />
<glyph unicode=":" horiz-adv-x="590" d="M393 1114q8 -16 8 -49q-6 -60 -36 -94q-47 -53 -115 -53q-17 0 -49 8q-82 30 -82 123q0 45 24 81q36 59 99 70q118 0 151 -86zM393 205q8 -17 8 -49q-6 -59 -36 -95q-48 -53 -115 -53q-17 0 -49 8q-82 32 -82 123q0 46 24 82q36 59 99 70q117 0 151 -86z" />
<glyph unicode=";" horiz-adv-x="590" d="M446 127q29 -79 29 -168q0 -134 -72.5 -256t-214.5 -264q-44 -45 -69 -45q-29 0 -29 49q307 230 307 557q-21 33 -53 33q-20 0 -64 -16.5t-67 -16.5q-45 0 -82 53q-33 48 -33 90q0 35 21 66q67 74 135 74q137 0 192 -156zM393 1114q8 -16 8 -49q-6 -60 -36 -94 q-47 -53 -115 -53q-17 0 -49 8q-82 30 -82 123q0 45 24 81q36 59 99 70q118 0 151 -86z" />
<glyph unicode="&#x3c;" horiz-adv-x="1094" d="M53 831l195 171l302 270l273 256l99 -49q-141 -139 -431.5 -395.5t-306.5 -256.5q2 -3 156 -165l305 -320l256 -272l-86 -54l-499 500q-187 195 -263 315z" />
<glyph unicode="=" d="M582 1372h528v-147h-532q-50 0 -159 -2t-157 -2q-166 0 -201 28q109 109 197 135q-57 0 324 -12zM582 971h528v-148h-532q-50 0 -159 -2t-157 -2q-166 0 -201 29q110 109 197 135q-57 0 324 -12z" />
<glyph unicode="&#x3e;" horiz-adv-x="1094" d="M991 831q-76 -121 -241 -291l-517 -524l-90 54l404 424q309 323 317 333q-17 0 -297.5 248.5t-439.5 403.5l94 49q149 -147 396 -367z" />
<glyph unicode="?" horiz-adv-x="1204" d="M1065 1901q41 -88 41 -177q0 -130 -111 -303q-71 -105 -269.5 -237.5t-292 -231t-93.5 -280.5q11 -80 131 -111q42 -8 57 -8q56 0 140 49q26 17 49 71.5t61 59.5q-8 -163 -151 -229q-57 -29 -123 -29q-88 0 -156 62q-78 90 -78 204q0 88 37 164q54 106 258.5 273.5 t284.5 249.5t80 214q0 113 -90 238q-99 137 -299 143q-109 0 -174.5 -20t-108.5 -90q-57 -88 -57 -127q0 -37 28 -78q15 -22 83.5 -57.5t68.5 -85.5q-24 -37 -102 -37q-112 0 -160 65q-58 64 -58 140q0 32 21 90q128 303 487 303q33 0 107 -8q145 -17 240 -63t149 -154z M651 168q0 -104 -41 -139q-41 -37 -94 -37q-35 0 -65 12q-91 31 -91 127q0 17 9 53q25 84 114 99q136 0 168 -115z" />
<glyph unicode="A" horiz-adv-x="2773" d="M2597 12q-23 -9 -140.5 -11.5t-154.5 -4.5q-291 0 -344 8q0 45 25 60t74 23.5t69 23.5q53 36 53 106q0 34 -11.5 69t-32.5 85t-30 80q-62 191 -94 278.5t-86 183.5q-149 -65 -319 -65q-237 0 -422 131q-159 106 -189 172l-91 -225q-74 -184 -109 -254l-41 -92 q-37 -86 -55 -142.5t-19 -109.5q0 -90 45 -168q13 -21 37 -29.5t66 -16.5t61.5 -19t19.5 -38q0 -19 -12 -45q-6 -8 -332 -16q-364 0 -377 24q0 43 22.5 55t73.5 20t68 24q108 108 185.5 236.5t122 236t121.5 317.5t124 316q-95 153 -173 237t-204 99q-155 0 -221 -62 q-65 -65 -65 -229q3 -21 24 -73.5t21 -74.5t-29 -28q-37 0 -76 48.5t-55 102.5q-12 49 -12 103q7 163 118 254q135 114 291 114q76 0 140 -28q245 -111 327 -205l29 57q19 35 24 57l144 395l136 367l122 336q17 41 45 41q31 0 64 -41.5t47 -77.5l187 -559l224 -681l205 -605 l211 -584q12 -28 39.5 -40.5t75.5 -24t71 -21t23 -28.5q0 -21 -41 -62zM1872 1049l-146 473l-155 476l-113 341q-117 -248 -348 -926q117 -162 208 -252t226 -141q64 -25 135 -25q116 0 193 54z" />
<glyph unicode="B" horiz-adv-x="2380" d="M2220 1090q61 -141 61 -291q0 -263 -188 -475q-162 -188 -386 -262t-527 -74q-177 0 -422 20q-135 12 -242 12q-186 0 -389 -45q-21 12 -21 21q0 6 7.5 15.5t13.5 21.5q35 36 129.5 59.5t134.5 40.5t64 80q5 26 12.5 76.5t7.5 91.5q-1 205 -2.5 888t-1.5 906v369 q-3 47 -48.5 58t-135.5 11q-86 0 -127 21q0 65 33 65q47 2 310 17.5t423 15.5q384 0 641.5 -102t357.5 -377q21 -51 21 -115q0 -84 -91 -262q-47 -88 -121.5 -148t-194.5 -122.5t-138 -73.5q236 -25 315 -53q206 -72 321.5 -152t182.5 -237zM1958 1114q-95 183 -277 253.5 t-432 70.5q-177 0 -356 -21q-21 5 -21 21q0 39 66 78l190 44q85 20 163 49t156 77.5t146 119.5q90 96 90 275q0 156 -61 266q-65 110 -168 165.5t-270 96.5q-103 25 -197 25q-118 0 -258 -41q-5 -179 -7.5 -444t-2.5 -617t-1 -574.5t-9 -498.5q0 -163 28 -258t135 -107 q129 -12 267 -12q606 0 790 364q107 194 107 369q0 149 -78 299z" />
<glyph unicode="C" horiz-adv-x="2286" d="M2183 610q-68 -157 -207 -294.5t-318 -221t-360 -90.5q-362 0 -632 156.5t-445 457.5q-168 294 -168 586q0 303 180 684q116 249 273 423.5t365 277t477 135.5q119 0 276 -49t219 -49q57 0 135 32q26 8 29 8q29 0 45 -27.5t16 -62.5q0 -323 25 -479q-6 -29 -25 -29 q-48 0 -61 66q-18 105 -80.5 208.5t-158 177.5t-199.5 97q-97 25 -197 25q-402 0 -741 -426q-158 -198 -243 -443t-85 -495q0 -479 279 -823q262 -332 708 -332q99 0 221 20q194 42 360.5 174t266.5 310z" />
<glyph unicode="D" horiz-adv-x="2691" d="M2421 2044q159 -296 159 -635q0 -413 -225 -836q-121 -214 -307.5 -341.5t-413 -179.5t-483.5 -52q-262 0 -668 61q-55 0 -149.5 -26.5t-140.5 -26.5q-34 0 -70 12q22 50 69 73.5t129.5 47.5t122 49.5t39.5 75.5v2286q-5 82 -135 82q-22 0 -76 -2t-92 -2q-16 11 -16 28 q0 33 37 33q496 41 717 41q427 0 811 -115q254 -80 410.5 -210.5t281.5 -362.5zM2159 2011q-146 316 -465.5 473.5t-694.5 157.5q-131 0 -270 -21l-4 -2420l33 -49q231 -33 438 -33q282 0 506 88.5t375 308.5q74 115 125.5 249t77.5 279.5t26 290.5q0 362 -147 676z" />
<glyph unicode="E" horiz-adv-x="2331" d="M2191 561q13 -113 13 -270q0 -189 -25 -287q-323 0 -525 1l-403 2q-202 1 -522 1q-185 0 -569 -8q-21 10 -21 33q0 16 8 24q17 13 91 13q65 0 90 24q34 30 43.5 47.5t9.5 67.5l4 2335q0 58 -39 76.5t-116 20.5t-103 9q-37 0 -37 45q0 35 37 41q152 4 471 4q377 0 1049 -8 h254q2 -68 7 -187.5t5 -177.5q0 -53 -8 -159q-29 43 -39 108.5t-35 91.5q-21 25 -45 90.5t-49.5 96.5t-85.5 31l-1045 8v-955l1086 -4q60 0 95.5 43.5t70.5 134.5t38 97l29 -49v-316q0 -134 -24 -213q-31 23 -67 90t-63 99t-79 32l-1090 4v-1507l1221 8q131 0 200 84 t107 232v86q0 61 61 61z" />
<glyph unicode="F" horiz-adv-x="1962" d="M1872 2232q-46 0 -62.5 37.5t-24 105.5t-16.5 87q-32 87 -69 121t-139 34l-1000 4v-946h1077q58 0 87.5 36t55.5 109.5t46 112.5l28 4q17 -208 17 -311q0 -131 -17 -237q-30 10 -74.5 78.5t-75.5 101.5t-83 33h-1077l12 -1409q0 -58 40.5 -70.5t150 -23t165.5 -38.5 q9 -4 9 -12q0 -15 -35 -32t-64 -17h-696q-29 0 -29 45q17 21 92.5 30.5t112.5 25.5t37 71v2384q0 45 -45.5 65t-123 38t-77.5 32q0 17 33 33q7 1 334.5 2.5t670.5 1.5h711q29 0 29 -33q0 2 4 -135t4 -217q0 -111 -8 -111z" />
<glyph unicode="G" horiz-adv-x="2449" d="M2339 1085q0 -32 -51 -60t-60 -62q-46 -642 -475 -844q-288 -131 -557 -131q-353 0 -627 217q-458 358 -458 1012q0 162 24 339q47 390 286 680t587 435q138 61 319 61q190 0 524 -86q41 0 81 16.5t63 16.5q28 0 28 -37q0 -57 18.5 -189.5t18.5 -211.5q0 -80 -20 -136 q-33 20 -47.5 50.5t-33 88.5t-38.5 95q-168 303 -573 303q-15 0 -42 -2t-40 -2q-645 -38 -869 -926q-53 -211 -53 -434q3 -330 131 -609t385 -481q164 -114 373 -114q141 0 311 53q181 56 292 193.5t126 330.5q2 33 11 97.5t9 95.5q0 123 -94 160q-20 8 -74 14.5t-82 21.5 t-28 54q311 0 512 8q28 0 70 8q43 0 53 -25z" />
<glyph unicode="H" horiz-adv-x="2687" d="M2576 2638q-14 -12 -101 -21t-136 -25.5t-49 -64.5v-2339q0 -33 27.5 -48t82 -27.5t79 -22.5t24.5 -37q0 -28 -21 -53h-696q-21 0 -21 20t17 37q11 3 104.5 18t137.5 39.5t44 78.5l5 1359h-1455v-1343q0 -35 20 -49t67.5 -25t83 -27t59.5 -55q0 -15 -15.5 -29t-25.5 -20 h-696q-17 16 -17 37q0 26 21 45q24 30 112.5 40.5t119 20t30.5 62.5l12 2306q0 38 -28.5 57t-83.5 40t-84 46.5t-29 73.5h704q29 -36 29 -66q-22 -38 -58 -50t-101 -22t-94.5 -25.5t-29.5 -57.5l-4 -848h1467v877q0 44 -31.5 55.5t-115 31t-83.5 44.5q0 18 37 57h660 q15 -3 28 -23t13 -43q0 -16 -9 -24z" />
<glyph unicode="I" horiz-adv-x="815" d="M553 209q0 -35 20 -49t67.5 -25t81 -27t56.5 -55q0 -18 -15.5 -34t-25.5 -23q-230 0 -696 8q-21 28 -21 33q0 -2 17 24q22 28 110 45.5t124 33t36 69.5l12 2306q0 38 -28.5 57t-83.5 40t-84 46.5t-29 73.5h705q32 -43 32 -66q-22 -38 -58.5 -50.5t-102 -21.5t-95.5 -25 t-30 -58z" />
<glyph unicode="J" horiz-adv-x="1954" d="M1864 2675q-30 -26 -106 -42t-104 -27t-28 -54q0 -79 2 -281t2 -321q0 -755 -86 -1250q-37 -241 -156 -411.5t-319 -239.5q-140 -49 -283 -49q-151 0 -295.5 53.5t-257.5 155.5q-163 134 -163 360q0 117 41 222q117 307 385 352q72 8 106 8q272 0 352 -197 q33 -70 33 -102q0 -31 -24 -61q-33 16 -63 62.5t-56.5 83t-69.5 50.5q-97 29 -151 29q-65 0 -127 -29q-164 -71 -205 -311q-12 -55 -12 -115q0 -125 60 -230t169 -171q126 -66 250 -66q192 0 344 127q172 139 227 340.5t55 503.5q0 66 -2 205t-2 213v1069q0 42 -36.5 55.5 t-110 14.5t-104 6.5t-35.5 33.5q0 24 16.5 35t58 20.5t43.5 10.5q71 0 207 8t203 8q131 0 225 -24z" />
<glyph unicode="K" horiz-adv-x="2359" d="M2245 160q-6 -129 -156 -176q-33 -13 -107 -13q-159 7 -266 103q-247 226 -405 499q-60 101 -127.5 240t-127.5 279l-159 366l-311 -385q2 -294 2.5 -497t5.5 -379q9 -44 47.5 -57.5t120.5 -33t82 -40.5q0 -27 -70 -74q-53 8 -151 8q-57 0 -166 -6t-170 -6q-36 0 -144 8 q-28 28 -28 102q31 15 99.5 19.5t101 18.5t32.5 65l-8 2277q0 111 -78 111h-45q-37 0 -57 19l-34 33q-14 13 -25 31.5t-11 39.5q176 8 709 8q5 -10 12.5 -34t7.5 -52q-37 -49 -143 -49q-50 0 -74 -17.5t-24 -81.5q0 -208 -0.5 -586.5t-4.5 -646.5l1053 1233q33 28 33 62 q0 30 -36.5 42.5t-109 20t-107 14t-50.5 25.5q0 29 15.5 53.5t33.5 28.5q43 0 173 2t200 2q311 0 311 -29q0 -43 -27.5 -57.5t-95 -34.5t-94.5 -47q-127 -106 -212 -205l-282 -339q-195 -240 -305 -349q127 -331 237 -558.5t283 -485.5q38 -56 110.5 -183t130.5 -195 t157 -118q16 -8 28 -8q28 0 84.5 37t83.5 37q33 0 58 -41z" />
<glyph unicode="L" horiz-adv-x="2130" d="M1999 545v-545h-1880q-33 31 -33 70q0 16 8 24q117 23 157 124.5t40 277.5q0 43 -2 133t-2 133q0 417 1.5 948t2.5 801q0 48 -17 68t-42 25l-56 13h-98q-49 0 -49 33q6 65 86 74q83 0 242 4t241 4q135 0 250 -16q-4 -11 -15 -31t-26 -31q-33 -25 -124 -36t-129 -24.5 t-38 -66.5v-2404h561q439 0 647 41q67 13 83.5 81t35.5 159.5t74 127.5q41 33 61 33z" />
<glyph unicode="M" horiz-adv-x="3178" d="M2937 2720q-4 -38 -46 -58.5t-142.5 -60.5t-172.5 -90q-4 -74 -4 -238q0 -356 21.5 -787.5t46.5 -752t35 -336.5q7 -152 31 -213t112 -90q29 0 68 4t51 4q32 0 37 -24q0 -82 -70 -82q-58 0 -171 -2t-169 -2q-250 0 -360 28q-17 7 -17 29q0 21 8 25q27 24 111 38t107.5 20 t23.5 40q-37 555 -37 1081q0 577 45 1102q-197 -270 -335 -523t-231 -490t-164 -464l-175 -563q-9 -28 -61 -28q-62 22 -62 82q0 29 12 63.5t37.5 90.5t36.5 83q-478 1056 -925 1684q4 -157 5 -436l2 -549q1 -269 8 -528.5t25 -534.5q0 -71 115 -123l176 -29q9 -27 9 -29 q0 -13 -7.5 -20.5t-23.5 -13.5t-27 -9l-29 -6q-73 0 -224 -6t-222 -6q-149 0 -242 20q27 38 121 73.5t132 57.5t42 82q29 456 37 1426q0 565 -4 823q-29 91 -197 152q-46 0 -99 -4t-64 -4q-43 0 -50 28q0 27 24.5 48.5t53.5 21.5q39 2 116 9t114 7q236 0 356 -205l245 -401 l204 -347q93 -162 204.5 -381t231.5 -488l219 563q102 262 227.5 502t310.5 449t439 349q18 12 41 12q33 0 61.5 -21.5t28.5 -51.5z" />
<glyph unicode="N" horiz-adv-x="2777" d="M2675 2662q0 -90 -41 -110q-42 -19 -96 -32.5t-80 -28t-45 -50.5q-110 -207 -149.5 -421t-39.5 -480q0 -75 4 -282t4 -361q0 -173 7 -328t21 -358.5t17 -251.5q0 -37 -49 -37q-41 0 -61 29q-145 258 -365 609l-454 704l-423 632l-315 455q8 -352 8 -541q0 -201 -7 -630.5 t-9 -667.5q0 -26 -2 -82t-2 -82q0 -187 119 -221q21 -6 72.5 -14.5t75.5 -17.5t24 -29q0 -15 -12 -33q-35 -49 -177 -49q-27 0 -114 4t-156 4q-19 0 -61 -8.5t-66 -8.5q-67 0 -82 45q0 41 55.5 81t63.5 51q74 105 107 199t43 185.5t18 266.5q24 504 24 893q0 395 -28 790 q-14 69 -89 81.5t-164 22.5t-104 60q0 55 86 74q30 5 90 18.5t97.5 20t75.5 6.5q107 0 180 -78q214 -255 401 -504.5t351 -496.5t334 -530l364 -632v172q0 1225 98 1729q47 245 242 311q39 13 74 13q130 -10 135 -91z" />
<glyph unicode="O" horiz-adv-x="2470" d="M2257 2032q106 -304 106 -611q0 -227 -60 -445t-180.5 -408t-295.5 -335q-137 -114 -311.5 -173.5t-356.5 -59.5q-173 0 -344 57q-316 111 -488 415.5t-212 666.5q-4 37 -4 106q0 291 99 572t291.5 503.5t452.5 337.5q155 78 328 78q325 0 651 -262 q130 -104 201.5 -199.5t122.5 -242.5zM2093 692q148 298 148 570q0 350 -234 741q-233 400 -553 491q-127 37 -258 37q-352 0 -610 -258q-291 -291 -291 -794q0 -349 143 -688q110 -249 332 -400.5t492 -165.5q585 0 831 467z" />
<glyph unicode="P" horiz-adv-x="2241" d="M2085 2191q69 -161 69 -340q0 -262 -163 -462q-129 -167 -299 -260t-357 -93q-120 0 -258 45q-108 39 -166 81.5t-84 127.5q-16 44 -16 86q0 52 49 156q35 61 127 61q8 -24 8 -37q0 -33 -36.5 -96t-36.5 -104q0 -33 8 -49q61 -177 307 -177q68 0 168 21q200 44 325.5 176 t149.5 324q12 91 12 180q0 411 -290 623q-302 209 -693 217q-63 0 -229 -17l4 -2425q0 -65 43.5 -75t167.5 -24t133 -52q0 -78 -70 -78q-14 0 -52 2t-62 2q-258 -8 -692 -8q-9 8 -9 24q0 28 25 59.5t45 31.5q88 0 163 34t75 113q0 165 1.5 901t2 749t0.5 586q0 66 -32 90.5 t-87 32.5q-119 23 -144.5 36.5t-56.5 70.5q90 4 293 4t322 4q69 4 200 4q274 0 494.5 -46t387.5 -166.5t253 -332.5z" />
<glyph unicode="Q" horiz-adv-x="2556" d="M2441 -217q0 -120 -67 -196.5t-195 -151.5q-130 -74 -266 -74q-209 0 -406 160q-114 92 -165 208t-72 275q-15 0 -46 -2t-44 -2q-586 0 -869 471q-205 351 -205 782q0 281 90.5 553t258.5 484q113 137 245.5 235.5t283 152.5t314.5 54q140 0 254 -33q467 -120 684 -581 q131 -284 131 -615q0 -231 -61 -487q-167 -712 -754 -938q0 -82 -4 -127q0 -152 62 -242q135 -205 356 -205q66 0 143 25q118 44 182 97t64 149q-5 41 -25 69t-65.5 63t-56.5 44q-4 3 -32.5 14t-33.5 31q15 37 62 37q22 0 102 -29q113 -38 135 -221zM2023 2003 q-378 549 -823 549q-32 0 -98 -8q-432 -41 -647 -418q-193 -342 -193 -701q0 -234 83 -458t241 -414q282 -332 581 -332q51 0 107 12q16 116 16 177q0 203 -135 290q-65 41 -192 41q-66 0 -107 9q-8 0 -8 8q0 10 12 24t29 17q129 28 233 28q221 0 324 -131 q40 -51 54.5 -115.5t21 -164.5t18.5 -154q264 32 447 275q266 346 266 757q0 377 -230 709z" />
<glyph unicode="R" horiz-adv-x="2376" d="M2265 197q-49 -180 -192 -205q-74 -8 -111 -8q-162 0 -250 98q-132 144 -232 368l-187 424q-86 200 -214.5 345.5t-353.5 214.5q10 49 70 49q13 0 46 -4t48 -4q235 0 385.5 35.5t261.5 160.5q135 141 135 340q0 80 -29 184q-45 169 -180 273.5t-311 140.5q-86 21 -299 21 q-100 0 -163.5 -3.5t-94.5 -5.5q0 -1634 24 -2404q0 -44 22 -85.5t52 -53.5q18 -4 56.5 -9t61 -16t30.5 -37q-129 -20 -328 -20q-51 0 -179 2t-222 2q13 35 65 45l99 19q47 9 57 47q49 173 49 462v263v1675q0 44 -29.5 70t-85.5 53q-27 9 -73.5 11t-61.5 5q-12 0 -12 16 q0 19 24 25q111 0 345 10.5t376 10.5q231 0 413 -35t335.5 -134t255.5 -278q41 -83 41 -184q0 -157 -86 -361q-206 -279 -721 -360q212 -144 278 -201q114 -97 178.5 -224.5t127 -321t119.5 -312t169 -219.5q33 -25 62 -25q98 0 176 123q20 36 20 82q0 102 -86 205q7 6 23 7 t22 5q82 -100 82 -209q0 -49 -8 -73z" />
<glyph unicode="S" horiz-adv-x="2003" d="M1913 872q4 -28 4 -90q0 -383 -348 -606q-266 -184 -611 -184q-329 0 -577 176q-295 202 -295 487q0 29 8 95q61 386 332 434q33 4 98 4q155 0 226 -86q-27 -17 -93 -19t-96 -14q-262 -110 -262 -467q17 -324 352 -450q192 -78 369 -78q219 0 401 135q287 217 287 463 q0 28 -8 86q-39 229 -170 367t-347 235l-405 182q-189 85 -307 191q-154 167 -160 376q0 84 25 168q43 163 156.5 256.5t306.5 165.5q79 29 168 29q65 0 131.5 -11.5t180 -39.5t151 -35.5t90.5 -7.5q79 0 122 24q66 0 66 -24q2 -67 9 -208t7 -206q0 -57 -8 -147 q0 -13 -16 -13q-42 0 -58 58q-31 158 -145 296.5t-264 186.5q-144 37 -234 37q-187 0 -323 -119q-189 -181 -189 -332q0 -77 45 -135q125 -167 380 -292l464 -219q208 -95 356 -247.5t181 -421.5z" />
<glyph unicode="T" horiz-adv-x="2560" d="M2433 2224q-7 19 -42 132.5t-72.5 159t-123.5 69.5q-168 41 -446 41q-90 0 -197 -2.5t-176 -2.5v-2379q5 -50 25 -69.5t59.5 -29.5t59.5 -24q27 -20 84 -20.5t85.5 -14.5t34.5 -76q-118 -12 -249 -12h-603q-12 12 -12 24q0 22 45 78q26 31 112.5 35t119.5 14t34 74v2400 q-25 0 -112.5 2.5t-177.5 2.5q-533 0 -619 -123q-10 -16 -51.5 -162t-83.5 -162q6 76 7 275.5t5 277.5q1483 0 2282 -4q24 -135 24 -270q0 -42 -5 -121t-7 -113z" />
<glyph unicode="U" horiz-adv-x="2789" d="M2662 2658q-103 -37 -160.5 -70.5t-80.5 -105.5q-57 -250 -61.5 -792t-24.5 -806.5t-163.5 -518.5t-479.5 -336q-202 -49 -394 -49q-537 0 -802 413q-57 85 -88.5 280t-41.5 445.5t-10 569.5v421q0 119 -7.5 261.5t-12.5 214.5q-1 29 -25.5 37t-77 12t-79.5 15t-27 46 l49 33l655 4q50 0 50 -33q0 -12 -13 -24q-28 -26 -111.5 -30.5t-117 -14t-33.5 -62.5q-3 -299 -7.5 -860.5t-4.5 -941.5q3 -234 148 -401.5t380 -233.5q185 -53 320 -53q244 0 454 164q207 156 277 350t84 510q4 98 4 328q0 289 -7.5 571t-12.5 412q0 67 -48.5 131.5 t-111.5 85.5q-119 0 -144 45q5 49 74 49q64 0 186 2t183 2q180 0 274 -12z" />
<glyph unicode="V" horiz-adv-x="2703" d="M2568 2728q0 -40 -18.5 -57.5t-63 -43t-61.5 -47.5q-87 -72 -133.5 -157.5t-101 -230.5t-89.5 -210q-345 -806 -729 -1929q-10 -29 -34.5 -49t-47.5 -20q-30 0 -41 28l-215 604l-229 652l-238 682l-202 577q-17 40 -52 55.5t-87.5 24t-77.5 23.5t-25 53q11 10 36 26.5 t58 22.5q111 -4 326 -4t321 -4q0 -9 8.5 -25t8.5 -28q-28 -23 -102 -36t-105 -26t-31 -57q18 -122 119 -440t222 -665l228 -642l148 -408l179 458l317 815l225 583q33 94 33 164q0 59 -29 118q-10 35 -31.5 54.5t-49.5 28.5t-61 12.5t-63 7.5l-8 24q0 20 15.5 28t51.5 14.5 t39 7.5q99 16 234 16q38 0 119 -2t123 -2q17 0 56 2t58 2z" />
<glyph unicode="W" horiz-adv-x="3723" d="M3617 2675q-210 -54 -287 -242l-229 -603l-243 -656l-228 -618l-193 -511q-18 -49 -53 -49q-16 0 -21 16l-192 459q-36 93 -95 270l-106 303q-46 125 -98 238l-68 -174l-129 -330l-157 -400l-138 -353q-8 -25 -49 -33q-18 0 -24 12l-235 604l-230 638l-248 722l-197 580 q-10 42 -41 60t-81.5 31t-74.5 31.5t-24 61.5h705l13 -13q7 -6 11 -13.5t4 -22.5q-26 -19 -99 -31t-107.5 -26.5t-34.5 -61.5q64 -250 147.5 -506.5t208.5 -603.5l208 -585q85 -238 161 -480q70 139 121 271l148 399q97 266 148 391q-37 113 -120 301t-127 329t-52 320 q0 176 136 299q104 94 241 94q96 0 238 -57q115 -48 147 -151q25 -74 25 -152q0 -121 -44 -253t-141 -344t-106 -234q204 -581 447 -1164l200 523l177 471q94 254 178 507.5t149 497.5q0 180 -90 180q-66 4 -156 37q-20 13 -20 41q0 32 41 37h643q65 0 65 -37q0 -20 -24 -20 zM2101 2171q53 199 53 250q0 103 -77 180q-74 74 -160 74q-32 0 -62 -13q-118 -38 -118 -196q0 -28 8 -78q88 -418 201 -631q112 258 155 414z" />
<glyph unicode="X" horiz-adv-x="2699" d="M2544 70q8 -18 8 -25q0 -18 -17 -28t-51.5 -18.5t-38.5 -10.5q-213 8 -659 8q-33 0 -33 29q0 16 25 41q8 4 96 22t88 47q0 9 -8 25q-58 124 -141 257.5t-230 346.5l-205 300q-57 86 -116 193l-98 -146l-210 -315l-204 -309l-115 -172q-25 -33 -25 -73q0 -49 82 -115 q25 -17 83 -23t86 -24.5t28 -83.5q-78 -4 -225 -4q-58 0 -162.5 2.5t-209 5.5t-165.5 4q-11 3 -24 21t-13 32q0 23 29 29q216 28 377 262l704 1016l-778 1180q-28 43 -79.5 53t-111.5 20t-88 45q20 47 58 58q83 0 243 2t240 2q86 0 250 -8q12 -13 12 -33q0 -45 -57 -45 q-160 0 -160 -78q0 -29 25 -66l598 -950q43 66 209 291.5t255 366t138 284.5q0 91 -119 127q-104 0 -111 33q0 74 41 74q65 0 197 2t197 2q143 0 213 -8l-9 -66q-102 -30 -135.5 -51t-73.5 -84q-152 -237 -334 -491l-407 -554l110 -170l209 -321l278 -430l190 -291 q49 -92 129 -127.5t215 -60.5z" />
<glyph unicode="Y" horiz-adv-x="2691" d="M2560 2605q0 -57 -32 -77t-96 -33.5t-85 -32.5q-296 -220 -491.5 -520t-288 -646.5t-92.5 -722.5q0 -198 24 -401q12 -61 81 -74l136 -25q68 -12 74 -69q-66 -8 -193 -8q-46 0 -166 4t-206 4q-50 0 -164 -8q-137 0 -148 53q13 37 131 37q86 0 137 16.5t64 77.5 q33 206 33 398q0 252 -50 504.5t-145.5 491t-228.5 459.5t-297 421q-57 69 -147 69q-53 0 -99 -29q-31 -17 -46 -46.5t-36.5 -93t-36.5 -88.5t-40 -25q-5 0 -29 8q4 132 32 230.5t111 170.5q113 98 213 98q59 0 103 -32q247 -172 380.5 -401t335.5 -689q20 -48 55 -150.5 t72 -168.5l182 421q94 213 196.5 390.5t247.5 334t333 259.5q24 8 37 8q45 0 87.5 -34.5t51.5 -80.5z" />
<glyph unicode="Z" horiz-adv-x="2011" d="M1909 639q20 -75 20 -139q0 -134 -71 -251t-191 -188q-180 -106 -393 -106q-78 0 -147.5 9.5t-220 38.5t-238 41.5t-181.5 12.5q-181 0 -327 -65q-16 -8 -25 -8q-8 0 -15 5.5t-13.5 14.5t-16.5 21q24 92 208 446l445 831l438 797l257 461q0 66 -41 66q-148 -5 -443 -5 q-363 0 -565 -73q-95 -35 -115 -113t-36 -260q0 -33 -29 -33t-29 33q-1 50 -4.5 151.5t-5.5 201.5t-2 155q0 33 49 33q492 4 812.5 8.5t670.5 15.5q57 0 57 -49q0 -35 -33 -74l-286 -515l-406 -730l-324 -582l-290 -540q73 12 151 12q124 0 232.5 -17t331 -59t337.5 -51 q256 0 336 201q25 66 25 123q0 65 -25 106q-27 55 -81 91t-111 36q-38 0 -66 -16q-11 -6 -22.5 -14t-22.5 -13.5t-24 -5.5q-5 0 -21 8q-16 17 -16 41q0 44 61 107q72 65 156 65q35 0 65 -12q141 -59 185 -213z" />
<glyph unicode="\" horiz-adv-x="1364" d="M1233 4q-38 41 -99.5 145.5t-149.5 268.5l-188 354l-145 272q-355 642 -569 1065h147l570 -1060l209 -375l151 -277q74 -198 74 -393z" />
<glyph unicode="a" horiz-adv-x="1921" d="M1905 475q-15 -169 -69 -289t-185 -153q-79 -17 -107 -17q-116 0 -213 90q-63 65 -86 136q-75 -87 -106 -114t-103 -58q-172 -78 -331 -78q-208 0 -390 127q-225 157 -225 475q0 77 12 151q23 131 70.5 232t126 180t197.5 141q169 86 335 86q198 0 394 -110q36 84 139 90 q16 0 37.5 -3t32.5 -5q-2 -86 -7.5 -242t-5.5 -270q0 -356 37 -627q18 -78 156 -78q78 16 117 71.5t76 152.5t65 133q9 0 17.5 -9.5t15.5 -11.5zM1217 1143q-116 164 -336 164q-125 0 -230 -58q-171 -87 -243 -233t-72 -352q14 -416 291 -529q87 -33 159 -33q230 0 426 226 q0 83 -5 244t-7 243q0 178 17 328z" />
<glyph unicode="b" horiz-adv-x="1462" d="M1282 1094q86 -180 86 -365q0 -235 -123 -442q-179 -297 -577 -303q-173 0 -328 89.5t-180 209.5q-62 281 -62 790q0 60 2.5 172.5t5 208.5t5.5 197q0 110 4 292t4 261q0 229 -8 348q-5 49 -70 49h-57q-70 0 -70 65q139 58 299 58q27 -3 53 -8l41 -9q0 -340 -1 -554 t-2.5 -490.5t-2.5 -526.5l-2 -522q7 -363 262 -475q88 -37 176 -37q143 0 250 82q112 79 163.5 164t57.5 209q0 208 -53.5 338.5t-183.5 218.5q-78 53 -197 53h-98q-35 -4 -87 -49t-77 -45t-49 25q28 105 114.5 171.5t204.5 78.5q29 4 82 4q289 0 418 -258z" />
<glyph unicode="c" horiz-adv-x="1454" d="M1389 475q-9 -108 -88.5 -217t-182.5 -168q-195 -115 -401 -115q-228 0 -398 136q-262 206 -262 512q0 96 41 229q67 194 230 329t364 175q58 8 86 8q66 0 178 -24.5t170 -24.5q54 0 82 8q41 -121 41 -242q0 -69 -20 -151q-33 14 -46.5 46t-30.5 80.5t-42 73.5 q-74 73 -143.5 105.5t-167.5 38.5q-164 0 -263 -73t-171 -214q-74 -157 -74 -311q0 -217 147 -389q169 -201 389 -201q66 0 156 29q88 26 147.5 78.5t138.5 162t87 119.5h33z" />
<glyph unicode="d" horiz-adv-x="1901" d="M1855 467q0 -346 -213 -426q-70 -25 -131 -25q-64 0 -131 29q-111 56 -172 184q-231 -225 -544 -225q-96 0 -181 25q-140 41 -248.5 154t-136.5 255q-12 87 -12 164q0 395 287 615q182 151 426 151q171 0 303 -78q49 0 65 17l-4 962q-4 62 -110 107q-112 0 -131 28 q0 28 21.5 39t54.5 14.5t71 8.5q114 24 176 24q109 0 139 -61v-2015q0 -96 15 -160t71 -102q58 -33 107 -33q34 0 82 20q62 28 90 77t48 133t34 118h24zM1176 307q8 90 8 266q-2 73 -4 221t-4 222v106q-89 176 -295 176q-140 0 -295 -81q-287 -158 -287 -508q0 -94 16 -177 q66 -307 303 -405q69 -29 148 -29q183 0 410 209z" />
<glyph unicode="e" horiz-adv-x="1470" d="M1204 94q-240 -127 -454 -127q-270 0 -476 205q-200 218 -200 475q0 105 20 193q32 156 128.5 269.5t240 178t311.5 76.5q33 4 94 4q388 0 480 -291q16 -55 16 -114q0 -140 -115 -254q-141 -148 -409 -148q-196 0 -373 82q-16 11 -16 21q0 12 16 12q184 -41 311 -41 q197 0 312 94q106 95 106 229q0 51 -20 119q-37 125 -189 185q-80 28 -164 28q-164 0 -311 -123q-199 -164 -205 -426q0 -51 17 -159q37 -189 134 -320t247 -164q60 -12 118 -12q289 0 566 307q-7 -73 -56.5 -166t-128.5 -133z" />
<glyph unicode="f" horiz-adv-x="987" d="M1270 2404q-61 -143 -226 -143q0 45 41 112t41 109q0 41 -32 90q-56 64 -123 70q-34 0 -62 -16q-225 -133 -298.5 -356t-78.5 -578q0 -55 2.5 -154.5t2.5 -185.5q0 -15 2 -39t2 -39q42 0 151 4t156 4q125 0 135 -37q-12 -45 -430 -45q-4 0 -4 -459q0 -356 12 -565 q3 -29 25.5 -43t72 -31.5t74.5 -36t25 -53.5q-103 0 -283 -4t-282 -4q0 29 14 41t26 21q23 -9 37 -9q36 0 61 29t25 66v737q0 209 -8 315q-20 0 -67 -2t-72 -2q-96 0 -127 17q-12 6 -12 20q0 3 8 29q10 7 137.5 9.5t132.5 2.5q4 57 4 176q0 307 38.5 538t174 427.5 t402.5 308.5q28 12 82 12q94 0 168 -74q73 -73 73 -163q0 -44 -20 -99z" />
<glyph unicode="g" horiz-adv-x="1593" d="M1561 1282q-16 -18 -68 -31t-77.5 -25t-35.5 -50q0 -171 16.5 -487t16.5 -509q0 -144 -12 -311q-24 -307 -171 -528t-419 -349q-179 -86 -274 -86q-31 0 -74 9v32q185 52 344.5 161t263 268.5t117.5 353.5q0 67 14 170.5t15 119.5q0 67 -25 156q-19 -10 -93 -62t-132 -73 q-134 -49 -291 -49q-230 0 -369 114q-229 187 -229 508q0 54 16 160q49 248 217.5 401t421.5 189q238 0 426 -107q56 82 172 82q26 0 81 -4t83 -4q22 0 44 -13t22 -36zM1184 1090q-87 184 -340 184q-63 0 -131 -12q-145 -26 -245.5 -137t-135.5 -273q-25 -115 -25 -217 q0 -280 180 -442q125 -107 299 -107q89 0 172 33q78 29 139.5 97t82.5 149z" />
<glyph unicode="h" horiz-adv-x="1962" d="M1937 463q0 -327 -237 -451q-65 -28 -111 -28q-100 0 -184 86q-78 81 -106.5 191t-28.5 259q0 45 2 135t2 136q0 252 -78 393q-42 82 -147 82q-62 0 -119 -37q-217 -152 -346 -410t-129 -536q0 -99 8 -148q6 -32 78.5 -48t72.5 -42q0 -20 -16 -41q-188 -4 -516 -4 q-7 0 -9.5 22t-2.5 23q79 19 105.5 30.5t49.5 55.5q0 818 -3.5 1342t-16.5 1087q-1 46 -48 55t-97.5 17.5t-55.5 50.5q8 45 393 45q16 0 35 -23t19 -55q0 -475 -7 -1032l-10 -877l114 185q76 125 149.5 212.5t169.5 148.5t206 65q136 0 236 -51t125 -162q32 -132 35.5 -315 t6.5 -359.5t35 -296.5q16 -57 107 -57q24 0 74 8q76 12 113.5 64t68 164t31.5 116h32z" />
<glyph unicode="i" horiz-adv-x="971" d="M414 2146q12 -24 12 -57q0 -118 -107 -152q-32 -8 -45 -8q-53 0 -98.5 34.5t-60.5 88.5q-9 36 -9 53q0 79 74 127q31 21 78 21q115 0 156 -107zM926 561q16 -49 16 -98t-29 -148q-69 -226 -229 -286q-66 -25 -139 -25q-130 0 -226 94q-126 139 -126 332v782q-2 49 -52 55 t-101 11t-52 53q69 20 209.5 32t171.5 17q45 -4 45 -73q0 -619 8 -1024q0 -125 139 -172q31 -9 45 -9q131 0 238 205q22 40 40 129.5t42 124.5z" />
<glyph unicode="j" horiz-adv-x="635" d="M492 2146q8 -32 8 -49q0 -110 -103 -143q-16 -8 -53 -8q-58 0 -100 31.5t-56 86.5q0 104 33 144q40 45 107 45q55 0 103.5 -29.5t60.5 -77.5zM492 1331q3 -104 12.5 -381.5t12.5 -403t3 -288.5q0 -532 -74 -893q-36 -165 -133 -272t-243 -113q-101 0 -162.5 18.5 t-108.5 79.5q-49 69 -49 148q0 36 17 106q15 55 58 91t93 36q29 0 53 -12q17 -16 17 -45t-24.5 -99.5t-24.5 -109.5q0 -47 28 -82q37 -49 103 -49q36 0 69 20q91 64 117.5 159.5t34.5 250.5q0 119 2 387t2 412q0 587 -21 921q-7 54 -52 66t-115 15t-70 22q0 16 33 49 q204 8 278 8q18 -2 52 -4t51 -4z" />
<glyph unicode="k" horiz-adv-x="1626" d="M1569 414q0 -216 -82 -303q-103 -115 -234 -115q-50 0 -94 16q-107 35 -159 108t-132 228t-158.5 227t-217.5 72q-86 0 -86 -78q0 -92 1.5 -227t2.5 -207q0 -28 27 -37.5t78.5 -14t70.5 -13.5q0 -66 -90 -66q-70 -4 -205 -4q-160 0 -250 4q4 36 28 41.5t62 10.5t53 30 q29 43 29 90v1454q0 497 -12 959q-4 31 -55 41l-108 20q-58 10 -75 45q70 37 393 37q17 0 17 -172q11 -323 13 -584l3 -610q2 -351 8 -596q79 14 137 60.5t136 146t108 133.5q127 135 205.5 194.5t183.5 59.5q59 0 131 -25q46 -15 72.5 -57t26.5 -90q0 -42 -21 -82 q-34 -78 -90 -78q-24 9 -39.5 56t-30 84t-49.5 45q-108 0 -201.5 -66t-210 -193t-153.5 -159q-24 -26 -24 -33q0 -24 100 -37.5t121 -23.5q120 -53 186 -153l149 -236q82 -135 185 -205q12 -9 33 -9q72 0 139 131q14 28 21 82.5t16 76.5t41 22z" />
<glyph unicode="l" horiz-adv-x="852" d="M868 537q0 -260 -86 -385q-109 -160 -270 -160q-46 0 -90 16q-172 58 -225.5 203t-53.5 375v1937q0 56 -48 75t-120.5 25t-72.5 19q0 15 61 49q54 25 148 25q43 0 109 -4.5t104 -4.5v-691q0 -313 1.5 -789t2.5 -854q8 -211 168 -254q32 -8 49 -8q86 0 192 106 q42 39 55.5 90t30.5 122t45 108z" />
<glyph unicode="m" horiz-adv-x="3080" d="M2994 418q8 -50 8 -66q0 -138 -110 -270q-98 -118 -291 -143q-214 0 -295 266q-33 124 -33 274q0 70 10.5 198.5t10.5 203.5q0 197 -78 344q-28 61 -111 61q-54 0 -110 -29q-132 -75 -289 -263t-186 -359q-21 -180 -21 -504q0 -25 15.5 -35.5t52.5 -21.5t58.5 -25.5 t25.5 -44.5q-246 -8 -377 -8q-111 0 -160 4q4 28 28.5 41.5t67 25t61.5 22.5t19 38v397q0 419 -41 668q-9 39 -55 67t-100 31q-42 0 -82 -20q-198 -101 -338 -272.5t-191 -383.5q-20 -76 -20 -204q0 -32 2 -103t2 -110q0 -104 82 -127q65 0 78 -29q0 -27 -25 -33t-78 -12 q-299 0 -418 8q-32 0 -32 53q17 17 69 31.5t79.5 32.5t27.5 63l4 942q0 69 -66 99q-25 14 -76 19.5t-75 25.5q0 49 41 49h364q16 -107 17 -278.5t12 -278.5q83 201 224 369.5t341 224.5q55 16 119 16q116 0 201 -74q71 -62 92.5 -137.5t32.5 -197.5t35 -185q318 593 618 602 q268 0 348 -245q49 -142 49 -299q0 -74 -14 -216t-14 -219q0 -117 28 -237q16 -73 111 -103q107 0 205 91q37 28 55 84l34 108q15 50 50 74h8z" />
<glyph unicode="n" horiz-adv-x="2015" d="M1978 397q0 -228 -249 -381q-49 -36 -107 -36q-75 0 -152 69q-172 173 -172 467q0 56 6.5 162t6.5 178q0 155 -37 270q-19 64 -66.5 110t-109.5 46q-179 -25 -325 -172.5t-232 -329t-86 -280.5v-357q0 -37 69.5 -60t69.5 -58q0 -5 -8 -29q-279 0 -492 8q-49 0 -49 25 q9 22 67.5 38t85.5 30.5t27 58.5q1 178 2.5 502.5t1.5 517.5q0 26 -30.5 39.5t-93.5 28t-84 22t-21 24.5q0 20 33 41q41 29 213 29q137 0 221 -25q-2 -64 -4.5 -104.5t-5.5 -96t-4.5 -105t-1.5 -83.5q0 -94 12 -192l167 280q89 148 204.5 245t275.5 97q108 -4 163 -16.5 t107 -65.5q164 -164 164 -405q0 -86 -20.5 -249t-20.5 -255q0 -57 4 -90q16 -149 140 -184q29 -9 49 -9q134 0 282 295z" />
<glyph unicode="o" horiz-adv-x="1667" d="M1569 537q-47 -193 -185.5 -326.5t-347.5 -185.5q-107 -25 -213 -25q-298 0 -557 193q-209 171 -209 434q0 90 33 204q46 150 143 263t234 181t307 89q82 8 119 8q338 0 565 -246q139 -163 139 -389q0 -79 -28 -200zM1339 1012q-120 183 -286 229q-137 37 -226 37 q-240 0 -389 -225q-114 -177 -114 -398q0 -116 32 -241q44 -135 158.5 -219.5t271.5 -92.5q15 0 44 -2t42 -2q267 0 402 176q160 213 160 426q0 164 -95 312z" />
<glyph unicode="p" horiz-adv-x="1581" d="M1438 1098q82 -154 82 -328q0 -258 -177 -467q-256 -295 -569 -295q-92 0 -188 25q-33 8 -77.5 29t-86.5 32q-8 -135 -8 -418q0 -110 2 -319t2 -299q0 -22 19 -28.5t64.5 -12t69 -15.5t23.5 -34q0 -13 -16 -45q-361 0 -541 -4q0 28 19.5 40t55 21t55.5 22t21 44 q0 378 4.5 1000.5t4.5 1108.5q-4 43 -34 56t-86 16t-81 10q-21 21 -21 33q0 22 66 41q36 0 123 12t127 12q119 0 139 -110q217 151 492 151q166 0 303 -68.5t213 -209.5zM1221 442q57 176 57 332q0 251 -152 385q-129 111 -311 111q-123 0 -228 -54t-161 -155v-828 q158 -151 315 -151q49 0 99 12q260 66 381 348z" />
<glyph unicode="q" horiz-adv-x="1638" d="M1561 -1044q0 -33 -86 -33q-13 0 -67 2t-101 2q-46 -2 -99.5 -11.5t-93.5 -9.5q-49 0 -131 13q12 29 38.5 39.5t74 18.5t68 18.5t20.5 41.5q-8 362 -8 840q2 55 4 164t4 160q-89 -89 -251 -145t-315 -56q-129 0 -204 33q-161 63 -249 208t-91 337q0 206 99.5 384.5 t268.5 282.5q172 119 381 119q163 0 287 -82q16 -8 25 -8q21 0 48.5 30.5t49.5 30.5q53 0 114 6.5t91 6.5q62 0 102 -33q0 -36 -19.5 -52t-63 -36.5t-64.5 -43t-21 -65.5q4 -271 5.5 -547.5t3 -487t6.5 -535.5t10 -486q0 -33 24.5 -51.5t61.5 -30.5zM1159 1102 q-3 92 -82 134t-200 42q-90 0 -177 -21q-136 -33 -214 -131t-126 -258q-36 -115 -36 -245q0 -259 155 -426q105 -111 295 -111q49 0 131 16q237 76 246 181q16 114 16 360q0 155 -8 459z" />
<glyph unicode="r" horiz-adv-x="1384" d="M1307 1028q-38 -111 -140 -139q-36 -12 -73 -12q-48 0 -82 28q5 11 36 64.5t44.5 84t13.5 60.5q0 23 -12 53q-55 90 -123 99q-140 0 -238 -74t-205 -205q-122 -189 -122 -459q0 -225 81 -376q32 -42 83 -54t130 -12q75 19 124 71.5t83 122.5l68 142h37q0 -132 -74 -244 t-209 -166q-67 -24 -131 -24q-152 0 -283 131q-62 64 -80 132.5t-30 203.5q-4 86 -6.5 209t-3 235t-2.5 272q0 26 -24 33t-73 10t-74 14.5t-26 45.5q207 30 270 33q66 0 131 -13q29 -33 29 -118q0 -25 -2 -93t-2 -120q124 166 280 291.5t310 125.5q134 0 237 -110 q70 -93 70 -164q0 -34 -12 -78z" />
<glyph unicode="s" horiz-adv-x="1200" d="M1122 594q25 -60 25 -131q-7 -199 -152 -324q-177 -147 -426 -147q-134 0 -237 33q-106 31 -159.5 69t-94.5 127q-33 64 -33 127q0 86 66 152q68 57 90 57q16 0 28 -12q37 -37 37 -78q0 -30 -20.5 -89.5t-20.5 -90.5q0 -50 33 -82q121 -139 307 -139q57 0 119 12 q116 27 193 100t86 178q0 183 -132 238q-65 25 -218.5 46t-249.5 46t-166 95t-78 206q0 189 168 295q148 82 340 82q98 0 393 -45q24 -73 24 -156q0 -62 -16 -184q-32 16 -83 97t-78.5 116.5t-92.5 64.5q-83 33 -160 33q-98 0 -208 -49q-119 -63 -119 -184q0 -32 12 -70 q90 -84 325 -125t336.5 -77.5t161.5 -190.5z" />
<glyph unicode="t" d="M1085 483q33 -38 33 -90q0 -61 -33 -119q-86 -196 -311 -262q-60 -16 -131 -16q-120 0 -225 82q-135 111 -135 274q0 192 -1.5 459t-2.5 406h-193q-71 0 -98 32q31 31 119 61t126 74q172 209 189 697q0 57 65 57q41 0 41 -24q-10 -110 -14.5 -386t-5.5 -438h528v-65h-532 q0 -69 -2 -219t-2 -228q0 -438 41 -565q31 -102 176 -102q52 0 102 12q112 19 163 108.5t103 251.5z" />
<glyph unicode="u" horiz-adv-x="1962" d="M1913 520q12 -55 12 -86q0 -45 -29 -102q-135 -303 -356 -303q-118 0 -169.5 44.5t-93 158t-60.5 149.5q-255 -381 -578 -381q-126 12 -193 34t-114 93q-82 139 -82 414q0 42 2 131t2 135q0 102 -4 156v106q0 80 -33 131q-18 29 -80.5 40t-87 21.5t-24.5 61.5 q127 41 430 41q24 0 24 -45q0 -922 41 -1114q28 -99 230 -99q202 32 334.5 171t132.5 333q0 385 -9 607q0 33 -24.5 41t-78 12t-81.5 19.5t-29 58.5q32 0 145 16t171 16q133 0 143 -73q12 -74 12 -254q0 -61 -2 -201t-2 -213q0 -288 33 -446q12 -54 82 -54q63 0 131 41 q60 39 92.5 90.5t66 138.5t46.5 111z" />
<glyph unicode="v" horiz-adv-x="1327" d="M1266 1389q57 -149 57 -299q0 -141 -49.5 -270.5t-110 -224t-182 -264.5t-178.5 -270q-37 -57 -168 -57q-33 99 -97 189t-169.5 209.5t-159.5 191.5q-148 219 -148 438q0 157 78 307q7 2 18 10t19 11q13 0 21 -8q16 -23 16 -49q0 -18 -14.5 -63.5t-14.5 -80.5 q21 -133 85.5 -253.5t146.5 -221t209 -240.5t186 -219q360 388 360 783q0 111 -28 209q-27 127 -197 184q-24 8 -33 8q-36 0 -91 -26.5t-68 -26.5q-28 0 -33 33q0 70 56.5 118t123.5 62q37 12 82 12q93 0 171.5 -52.5t111.5 -139.5z" />
<glyph unicode="w" horiz-adv-x="2068" d="M1905 1561q123 -168 123 -369q0 -96 -26 -198.5t-72 -221.5l-91 -235q-37 -96 -87 -184t-127 -199l-81 -117q-28 -37 -82 -37q-33 0 -45 25q-49 136 -108.5 254t-138.5 252l-150 255q-42 -54 -74 -129l-70 -172q-39 -97 -81 -161q-26 -40 -67 -138.5t-77.5 -144 t-101.5 -45.5q-17 0 -49 8q-31 132 -198 403.5t-220 368.5t-53 240q0 186 176 340h28q-49 -202 -49 -242q0 -66 21 -110q62 -137 125 -244t161.5 -260.5t135.5 -216.5q36 5 57.5 26.5t41.5 63.5t32 61q87 137 119.5 259t71 335.5t79.5 319.5h41q20 -143 69 -278t118 -264.5 t188 -321.5l133 -214q111 150 156 242q143 277 143 582q0 106 -12 217q-22 134 -213 172q-55 0 -120.5 -22.5t-96.5 -22.5q0 116 110 168q84 41 172 41q131 0 189 -86z" />
<glyph unicode="x" horiz-adv-x="1798" d="M1737 61q24 -6 24 -24q0 -41 -73 -41q-94 2 -272.5 2t-264.5 2q0 31 17 38t63.5 19t46.5 29q0 7 -21 41q-76 150 -393 467l-134 -125q-67 -61 -113 -114.5t-75.5 -115.5t-29.5 -128q1 -24 30 -36l60 -25q32 -12 41 -38q-87 -16 -221 -16q-36 0 -138 2t-182 2 q0 39 72.5 62t83.5 36q90 78 173 164l187 200l185 206q-74 74 -223 236l-230 247q-80 84 -149 139q-17 13 -82.5 22.5t-65.5 51.5q90 4 275 4q241 0 331 -4v-25q-90 -38 -90 -98q0 -21 21 -49l161 -176l179 -193l98 79q74 60 121 109t77.5 108t30.5 126q-4 38 -76 67.5 t-87 59.5h524q20 0 20 -33q-11 -22 -62.5 -39t-76.5 -34q-92 -69 -164.5 -147.5t-166 -197t-156.5 -188.5q72 -68 225 -248t264 -282t236 -142z" />
<glyph unicode="y" horiz-adv-x="1872" d="M1880 1368q-4 -39 -24 -49.5t-71.5 -26t-68.5 -39.5q-78 -101 -128.5 -215t-111 -291t-92.5 -251q-62 -137 -194 -457.5t-240 -535t-258 -416.5q-78 -103 -151 -154t-185 -51q-197 14 -254 143q-32 82 -32 139q0 94 69 111q35 0 56.5 -28t45 -84t46.5 -88.5t61 -37.5 q156 0 256.5 91.5t173.5 235.5l164 325q83 154 123 282l-165 299l-270 469q-157 263 -274 424q-47 62 -106 62q-26 0 -49 -13q-70 -39 -70 -131q0 -20 4 -69t4 -74q0 -35 12.5 -87t12.5 -93q-77 106 -94 196q-17 94 -17 144q0 117 74 196q70 83 172 95q174 0 250 -123 q134 -185 333 -516l302 -508q55 106 95 206.5t82 221.5l81 246l78 247q0 45 -66 119q-16 16 -56.5 19.5t-57.5 11.5t-17 47q19 1 230.5 2t326.5 6z" />
<glyph unicode="z" horiz-adv-x="1343" d="M1257 193q-39 -177 -290 -242q-29 -8 -82 -8q-66 0 -131 18t-163.5 53t-173 55.5t-143.5 20.5q-131 0 -237 -90q15 84 62.5 159.5t118.5 156.5l159 180q86 99 238 241.5t224 219.5t128 178q-176 -29 -353 -29q-176 0 -364 29q-29 0 -43 -20.5t-30 -62.5t-32.5 -64 t-50.5 -25q0 211 82 368q40 45 103 45q32 0 73.5 -12t89.5 -32t86 -34q126 -41 254 -41q179 0 394 74q0 -66 -31.5 -124t-95.5 -135t-91 -118q-88 -117 -228 -246l-270 -248q-132 -120 -214 -235q54 0 172 8.5t200 8.5q41 -3 93 -22t116.5 -48t107 -43t81.5 -14 q118 0 172 151q8 26 8 41q0 45 -53 123q-12 20 -63.5 41.5t-51.5 52.5q10 21 41 21q34 0 74 -21q123 -65 123 -245q0 -58 -9 -86z" />
<glyph unicode="&#xa2;" horiz-adv-x="1454" d="M676 1266q-188 -38 -311 -279q-74 -157 -74 -311q0 -217 147 -389q106 -126 230 -168q8 204 8 377v770zM827 1364q43 -5 141 -27t158 -22q26 0 82 8q41 -121 41 -242q0 -69 -20 -151q-33 14 -46.5 46t-30.5 80.5t-42 73.5q-125 121 -283 144v-782q0 -275 4 -406 q82 7 152 29q88 26 147.5 78.5t138.5 162t87 119.5h33q-9 -108 -88.5 -217t-182.5 -168q-131 -81 -287 -106q-7 -233 -32 -271q-95 148 -123 267q-202 7 -357 131q-262 206 -262 512q0 96 41 229q63 189 221.5 322t356.5 178v319h147q0 -36 2 -139t2 -168z" />
<glyph unicode="&#xa9;" horiz-adv-x="2085" d="M1962 668q-40 -160 -130 -287.5t-227 -217.5t-307 -134q-141 -33 -266 -33q-376 0 -700 246q-258 210 -258 544q0 123 37 250q87 284 312 458t544 210q53 8 151 8q427 0 705 -307q172 -195 172 -479q0 -109 -33 -258zM1831 696q29 134 29 213q0 240 -148 414 q-244 262 -606 262q-41 0 -123 -8q-180 -21 -325.5 -94t-248 -194t-151.5 -281q-33 -122 -33 -217q0 -283 217 -459q283 -209 594 -209q97 0 230 29q221 55 368 197t197 347zM1561 709q-6 -81 -66 -161.5t-139 -125.5q-146 -86 -303 -86q-167 0 -295 98q-193 157 -193 385 q0 93 29 172q49 146 170.5 248t271.5 133q90 0 203.5 -14.5t185.5 -14.5q33 -83 33 -176q0 -65 -16 -114q-31 13 -50.5 70.5t-39.5 76.5q-100 100 -234 111q-219 0 -323 -217q-58 -122 -58 -234q0 -156 111 -291q120 -151 291 -151q51 0 118 20q65 20 110 60t100 117t69 94 h25z" />
<glyph unicode="&#xad;" d="M582 1372h528v-147h-532q-50 0 -159 -2t-157 -2q-166 0 -201 28q109 109 197 135q-57 0 324 -12z" />
<glyph unicode="&#xae;" horiz-adv-x="2085" d="M1962 668q-40 -160 -130 -287.5t-227 -217.5t-307 -134q-141 -33 -266 -33q-376 0 -700 246q-258 210 -258 544q0 123 37 250q87 284 312 458t544 210q53 8 151 8q427 0 705 -307q172 -195 172 -479q0 -109 -33 -258zM1831 696q29 134 29 213q0 240 -148 414 q-244 262 -606 262q-41 0 -123 -8q-180 -21 -325.5 -94t-248 -194t-151.5 -281q-33 -122 -33 -217q0 -283 217 -459q283 -209 594 -209q97 0 230 29q221 55 368 197t197 347zM1532 451q-20 -73 -86 -91q-111 0 -148 37q-53 57 -108 190.5t-101.5 201t-154.5 100.5 q12 45 86 45q160 0 213 65q40 54 45 115q0 13 -8 53q-30 110 -160 136q-49 4 -180 4q0 -574 8 -844q0 -27 12 -33l27 -8q14 -4 26 -14.5t17 -30.5q-139 -17 -320 -17q17 34 56 46t43 24q16 82 16 254v606q0 9 -33 25q-6 2 -24.5 2t-24.5 2q-12 0 -12 24q0 29 29 29 q39 0 124 2t125 2q139 0 235 -34t150 -134q21 -39 21 -78q0 -40 -37 -135q-66 -95 -221 -135q49 -33 61 -45q50 -43 78 -117l56 -149q28 -75 79 -119q39 0 54 29q0 60 -29 90q13 16 49 29q37 -58 37 -127z" />
<glyph unicode="&#x2000;" horiz-adv-x="1396" />
<glyph unicode="&#x2001;" horiz-adv-x="2793" />
<glyph unicode="&#x2002;" horiz-adv-x="1396" />
<glyph unicode="&#x2003;" horiz-adv-x="2793" />
<glyph unicode="&#x2004;" horiz-adv-x="931" />
<glyph unicode="&#x2005;" horiz-adv-x="698" />
<glyph unicode="&#x2006;" horiz-adv-x="465" />
<glyph unicode="&#x2007;" horiz-adv-x="465" />
<glyph unicode="&#x2008;" horiz-adv-x="349" />
<glyph unicode="&#x2009;" horiz-adv-x="558" />
<glyph unicode="&#x200a;" horiz-adv-x="155" />
<glyph unicode="&#x2010;" d="M582 1372h528v-147h-532q-50 0 -159 -2t-157 -2q-166 0 -201 28q109 109 197 135q-57 0 324 -12z" />
<glyph unicode="&#x2011;" d="M582 1372h528v-147h-532q-50 0 -159 -2t-157 -2q-166 0 -201 28q109 109 197 135q-57 0 324 -12z" />
<glyph unicode="&#x2013;" horiz-adv-x="1425" d="M582 1372h782v-147h-786q-50 0 -159 -2t-157 -2q-166 0 -201 28q109 109 197 135q-57 0 324 -12z" />
<glyph unicode="&#x2014;" horiz-adv-x="2138" d="M872 1372h1176v-147h-1180q-75 0 -238 -2t-237 -2q-246 0 -303 28q160 108 295 135q-77 0 487 -12z" />
<glyph unicode="&#x2018;" horiz-adv-x="590" d="M483 1876q-7 -49 -28 -49q-25 0 -70 45q-141 141 -214 264t-73 256q0 89 29 168q57 156 192 156q69 0 136 -74q20 -31 20 -66q0 -44 -33 -90q-31 -53 -82 -53q-24 0 -68 18.5t-63 18.5q-28 0 -53 -37q0 -327 307 -557z" />
<glyph unicode="&#x2019;" horiz-adv-x="590" d="M446 2560q29 -79 29 -168q0 -134 -72.5 -256t-214.5 -264q-44 -45 -69 -45q-29 0 -29 49q307 230 307 557q-21 33 -53 33q-20 0 -64 -16.5t-67 -16.5q-45 0 -82 53q-33 48 -33 90q0 35 21 66q67 74 135 74q137 0 192 -156z" />
<glyph unicode="&#x201c;" horiz-adv-x="983" d="M483 1876q-7 -49 -28 -49q-25 0 -70 45q-141 141 -214 264t-73 256q0 89 29 168q57 156 192 156q69 0 136 -74q20 -31 20 -66q0 -44 -33 -90q-31 -53 -82 -53q-24 0 -68 18.5t-63 18.5q-28 0 -53 -37q0 -327 307 -557zM909 1876q-7 -49 -28 -49q-25 0 -70 45 q-141 141 -214 264t-73 256q0 89 29 168q57 156 192 156q69 0 136 -74q20 -31 20 -66q0 -44 -33 -90q-31 -53 -82 -53q-24 0 -68 18.5t-63 18.5q-29 0 -53 -37q0 -327 307 -557z" />
<glyph unicode="&#x201d;" horiz-adv-x="963" d="M446 2560q29 -79 29 -168q0 -134 -72.5 -256t-214.5 -264q-44 -45 -69 -45q-29 0 -29 49q307 230 307 557q-21 33 -53 33q-20 0 -64 -16.5t-67 -16.5q-45 0 -82 53q-33 48 -33 90q0 35 21 66q67 74 135 74q137 0 192 -156zM860 2560q29 -79 29 -168q0 -134 -72.5 -256 t-214.5 -264q-45 -45 -70 -45q-28 0 -28 49q307 230 307 557q-21 33 -53 33q-20 0 -64 -16.5t-67 -16.5q-46 0 -82 53q-33 46 -33 86q0 33 25 70q67 74 131 74q142 0 192 -156z" />
<glyph unicode="&#x2026;" horiz-adv-x="1770" d="M1573 197q8 -17 8 -50q-6 -58 -36 -94q-47 -53 -115 -53q-17 0 -49 8q-82 32 -82 123q0 44 24 82q35 57 99 70q117 0 151 -86zM983 197q8 -17 8 -50q-6 -58 -36 -94q-47 -53 -115 -53q-17 0 -49 8q-82 32 -82 123q0 44 24 82q35 57 99 70q117 0 151 -86zM393 197 q8 -17 8 -50q-6 -58 -36 -94q-47 -53 -115 -53q-17 0 -49 8q-82 32 -82 123q0 44 24 82q35 57 99 70q117 0 151 -86z" />
<glyph unicode="&#x202f;" horiz-adv-x="558" />
<glyph unicode="&#x205f;" horiz-adv-x="698" />
<glyph unicode="&#x2122;" horiz-adv-x="5738" d="M5497 2720q-4 -38 -46 -58.5t-142.5 -60.5t-172.5 -90q-4 -74 -4 -238q0 -356 21.5 -787.5t46.5 -752t35 -336.5q7 -152 31 -213t112 -90q29 0 68 4t51 4q32 0 37 -24q0 -82 -70 -82q-58 0 -171 -2t-169 -2q-250 0 -360 28q-17 7 -17 29q0 21 8 25q27 24 111 38t107.5 20 t23.5 40q-37 555 -37 1081q0 577 45 1102q-197 -270 -335 -523t-231 -490t-164 -464l-175 -563q-9 -28 -61 -28q-62 22 -62 82q0 29 12 63.5t37.5 90.5t36.5 83q-478 1056 -925 1684q4 -157 5 -436l2 -549q1 -269 8 -528.5t25 -534.5q0 -71 115 -123l176 -29q9 -27 9 -29 q0 -13 -7.5 -20.5t-23.5 -13.5t-27 -9l-29 -6q-73 0 -224 -6t-222 -6q-149 0 -242 20q27 38 121 73.5t132 57.5t42 82q29 456 37 1426q0 565 -4 823q-29 91 -197 152q-46 0 -99 -4t-64 -4q-43 0 -50 28q0 27 24.5 48.5t53.5 21.5q39 2 116 9t114 7q236 0 356 -205l245 -401 l204 -347q93 -162 204.5 -381t231.5 -488l219 563q102 262 227.5 502t310.5 449t439 349q18 12 41 12q33 0 61.5 -21.5t28.5 -51.5zM2433 2224q-7 19 -42 132.5t-72.5 159t-123.5 69.5q-168 41 -446 41q-90 0 -197 -2.5t-176 -2.5v-2379q5 -50 25 -69.5t59.5 -29.5t59.5 -24 q27 -20 84 -20.5t85.5 -14.5t34.5 -76q-118 -12 -249 -12h-603q-12 12 -12 24q0 22 45 78q26 31 112.5 35t119.5 14t34 74v2400q-25 0 -112.5 2.5t-177.5 2.5q-533 0 -619 -123q-10 -16 -51.5 -162t-83.5 -162q6 76 7 275.5t5 277.5q1483 0 2282 -4q24 -135 24 -270 q0 -42 -5 -121t-7 -113z" />
</font>
</defs>
</svg>
