<?xml version="1.0" encoding="UTF-8" standalone="no"?>
<!-- Created with Inkscape (http://www.inkscape.org/) -->

<svg
   xmlns:dc="http://purl.org/dc/elements/1.1/"
   xmlns:cc="http://creativecommons.org/ns#"
   xmlns:rdf="http://www.w3.org/1999/02/22-rdf-syntax-ns#"
   xmlns:svg="http://www.w3.org/2000/svg"
   xmlns="http://www.w3.org/2000/svg"
   xmlns:sodipodi="http://sodipodi.sourceforge.net/DTD/sodipodi-0.dtd"
   xmlns:inkscape="http://www.inkscape.org/namespaces/inkscape"
   width="27"
   height="25"
   id="svg2"
   version="1.1"
   inkscape:version="0.48.1 r9760"
   sodipodi:docname="New document 1">
  <defs
     id="defs4" />
  <sodipodi:namedview
     id="base"
     pagecolor="#ffffff"
     bordercolor="#666666"
     borderopacity="1.0"
     inkscape:pageopacity="0.0"
     inkscape:pageshadow="2"
     inkscape:zoom="9.1930139"
     inkscape:cx="-5.0466922"
     inkscape:cy="11.152767"
     inkscape:document-units="px"
     inkscape:current-layer="layer1"
     showgrid="false"
     inkscape:snap-global="false"
     inkscape:window-width="1920"
     inkscape:window-height="1032"
     inkscape:window-x="0"
     inkscape:window-y="0"
     inkscape:window-maximized="0" />
  <metadata
     id="metadata7">
    <rdf:RDF>
      <cc:Work
         rdf:about="">
        <dc:format>image/svg+xml</dc:format>
        <dc:type
           rdf:resource="http://purl.org/dc/dcmitype/StillImage" />
        <dc:title></dc:title>
      </cc:Work>
    </rdf:RDF>
  </metadata>
  <g
     inkscape:label="Layer 1"
     inkscape:groupmode="layer"
     id="layer1"
     transform="translate(0,-1027.3622)">
    <rect
       style="fill:#a2a2a2;fill-opacity:1;stroke:none"
       id="rect3074"
       width="24.692663"
       height="23.169767"
       x="1.9580075"
       y="1028.8661"
       rx="2"
       ry="2" />
    <rect
       style="fill:#e3e3e3;fill-opacity:1;stroke:none"
       id="rect3078"
       width="24.692663"
       height="23.169767"
       x="0.4351117"
       y="1027.6694"
       rx="2"
       ry="2" />
    <g
       id="g3089"
       transform="matrix(0.70710678,0.70710678,-0.70710678,0.70710678,752.03149,313.73167)">
      <path
         inkscape:connector-curvature="0"
         id="path3080"
         d="m -13.28125,1027.5554 c -4.475705,0 -8.09375,3.6493 -8.09375,8.125 0,4.4757 3.618045,8.0937 8.09375,8.0937 4.4757046,0 8.125,-3.618 8.125,-8.0937 0,-4.4757 -3.6492954,-8.125 -8.125,-8.125 z m 0,2.25 c 3.244135,0 5.875,2.6308 5.875,5.875 0,3.2441 -2.630865,5.875 -5.875,5.875 -3.244135,0 -5.875,-2.6309 -5.875,-5.875 0,-3.2442 2.630865,-5.875 5.875,-5.875 z"
         style="fill:#595959;fill-opacity:1;stroke:none" />
      <rect
         ry="2"
         rx="2"
         transform="translate(0,1027.3622)"
         y="6.1813622"
         x="-5.5476909"
         height="4.242352"
         width="10.660269"
         id="rect3087"
         style="fill:#595959;fill-opacity:1;stroke:none" />
    </g>
  </g>
</svg>
