<svg xmlns="http://www.w3.org/2000/svg" version="1.1" x="0px" y="0px" width="300px" height="300px" viewBox="0 0 300 300" enable-background="new 0 0 300 300" xml:space="preserve"><g><polygon points="98.6,126.5 125.9,99.1 78.1,51.2 108.1,21.3 20.8,21.3 20.7,108.5 50.6,78.5" fill="#fff"/><polygon points="249,222.1 201.1,174.2 173.7,201.5 221.5,249.4 191.5,279.3 278.8,279.3 278.9,192.1" fill="#fff"/><polygon points="201,126.4 248.9,78.6 278.8,108.6 278.8,21.3 191.6,21.2 221.6,51.1 173.7,99.1" fill="#fff"/><polygon points="98.6,174.2 50.7,222 20.8,192 20.8,279.3 108,279.4 78,249.5 126,201.6" fill="#fff"/></g></svg>