<svg xmlns="http://www.w3.org/2000/svg" xmlns:xlink="http://www.w3.org/1999/xlink" version="1.1" x="0px" y="0px" viewBox="0 0 300 300" enable-background="new 0 0 300 300" xml:space="preserve"><g><path fill="#2B54B5" d="M149.5 21.2c-71.4 0-129.2 57.8-129.2 129.2c0 71.4 57.8 129.2 129.2 129.2c71.4 0 129.2-57.8 129.2-129.2 C278.7 79.1 220.9 21.2 149.5 21.2z M251.4 105.5c1.7-0.1 2.4-1.6 3.9-2.1c2.8-0.8 1.8 0.9 3.2 2.3c1.2 0-1.4 0.8-1.6 0.8 c-1.2 0.4-1.1 0.2-2 0.2c-0.4 0.5 0.6 2.6 0.8 2.6c0.8 1.2 1.3 0.4 1.2 2.3c-0.1 1.7 1.3 0.1 1.8 0.1c0 1 1.5 1.8 1.6 3 c-0.7 0.1-2.1-0.2-2.4 0c0.1 1.2 0.8 1.2 0.8 2.2c1.3 0-1 3.2 1.2 3.2c-0.5 2-4 1.3-4.4-0.6c-3.4-0.8-1.6-3.2-1.7-5 c-0.1-2.5-2.3-3.3-2.3-5.3C249.6 109.4 251.4 105.9 251.4 105.5z M250.2 222.5c0.2-2.1-0.2-5.8 0.8-5.8c0-1.6 0.9-3.8 1-5.9 c0.3 0 0.7 0 1 0c0-0.4-0.1-1.9 0.6-2.2c0-1.1 2.8-1.6 1.2-3c-0.7-0.2-1.2-3.2-1.2-4.2c-0.9 0.9 0.4 3.4-1.6 3.4 c0-2.4-2.7 1.4-0.4 1.4c0 2.2-2.9 1.2-3.8 0.6c-0.5 1.2-0.8 1.7 0.6 2c-0.6 1.7-1.2 0.6-2 0c-0.8 2.4-2.7 16.5 2.7 15.3 c-22.6 30.4-58.8 50.2-99.5 50.2c-68.3 0-123.9-55.6-123.9-123.9c0-18.9 4.3-36.8 11.9-52.9c0 0 0 0.1 0 0.1 c3.6 2.9 3.6 7.7 3.6 11.5c-0.5 2.2 0.6 4.8 0.6 6.9c1 0.5 2.8 3.6 2.8 4.6c0 0 2.3 3.2 2.4 3.4c2.7 0 4 1.2 4 3.6 c-0.1 0 1.6 3.8 2.2 4.2c0 1.1 1.6 4.9 2.6 5.5c0 3.3 7.9 8.5 3.4 0.8c-0.4-0.7-2.5-4.7-3-4.7c0-1.3-2.7-2.8-2.3-3.9 c0.5-1.7 3.6 2.2 3.6 3.1c0.4 0 1.6 2.6 1.6 2.8c0.7 0 3.6 2.2 3.6 3.4c2.1 0 3.3 5.2 3.4 6.7c0.1 1.2 0.7 4.6 2.5 4.6 c0.8 1.5 4.1 1 4.8 2.4c2.2 0 4.5 1.6 6.9 1.6c2 0 2.4 2.4 4.2 2.4c0.3 0.6 1.2 0.4 1.2 0.8c1.8 0 6.6 2.8 5.9 4.8 c0.9 0.4 3.3 2.9 3 4c0.3 2.4 4.1 2.3 5.7 3c1.4-4.3 3.2-0.2 3.2 1.8c-0.1 0.7 0 3.5 0 4.8c1.8 0-0.5 3-1 1 c-0.7 0.3-1.1 0.8-1.2 1.6c-1 0-3.3 6.1-1 6.9c-0.3 2.4-3 4.4-0.4 5.9c0-0.2 4.9 7.1 4.2 7.1c0 1.1 0.7 2.5 1 3.4 c0 2.1 2.1 6.9 5 6.9c0-0.1 3.1 3.2 2.6 3.2c0.9 5.4-0.4 8.9-0.4 14.7c-1.8 0-0.1 11.8-2.4 12.9c-0.4 1.9-1.8 3.4-1.2 4.6 c0.2 1.9 0 3.8 0 5.4c-0.5 0-1 2.6-1 3.2c-1.3 0-1.4 10-1.3 13.6c3.2 1.2 6.5 2.2 9.8 3.2c-0.4-0.6-0.7-1.2-0.7-2 c-1.4 0 0-3.6 1.4-3.6c0.5-1.7 1.4-1.8 2.2-3c1 0-0.6-1.6-0.6-0.6c-0.2 0-0.2 0.6-0.8 0.8c-0.2-0.5 0.1-1-0.2-1 c0-1.1 0.6-2.2 0.6-3.4c0.4 0 0.9-1.5 1.4-1.8c1.1-1.3 2.2-1.5 2.2-3.2c0.2 0-0.4-2-0.8-2c1.2-1 2.6 0.8 2.6-1.2 c0.4 0 0.6-1.3 0.6-1.6c1.7-1.1 1.4-1.4 4-1.4c0.3-0.6 2.2-1.4 3-1.4c0-0.3 0.2-3 0-3c0-1.5 2.6-1.6 2.6-2.2c1.4-1 1.9-2.2 2-3.9 c0.1-1.4 2.1-3 3.2-3c1.8 0 0.6-0.8 1.7-0.8c-0.3-1 0.4-0.9 0.9-1.5c0.8-0.9 0.5-4.3 0.7-5.7c-0.4 0 1.7-1.9 1.8-2.2 c1 0 1.7-0.8 2.6-0.8c0.5-1 3.8-2.5 5-3.4c0.5-2.1 2-2.6 2-4.8c0.6 0 1.2-4.5 1.2-5.2c0.1 0 0.2-4 0.2-4.4c0.1 0 3-3.3 3-3.6 c2.7-2 2.3-7.9-0.3-10.3c-1.5-1.3-2.5-2.1-4.7-2.9c-0.4 1.1-1.3 0.4-2.3 0.4c-1.6 0-1.8 1.1-3.4 1.1c0.2-1 0.7-3.8-1.2-4 c0 1.9-1.9 1-1.4-0.2c-0.9 0-1.7-1.4-3-1.6c0 2.1-3.1 0.4-2.2 0.4c0-0.3-0.5-3 0.2-3c-0.2-1.2-0.5-3.2-1.4-3.8 c-0.8-1.7 0.5-1.1-1.4-2.6c-0.3-0.7-0.5-0.2-0.8-0.8c-0.6 0-1.8-1.6-2.2-0.2c-1.2-0.1-2.2-0.6-3.3-1c-2-0.6-0.2-0.8-1.5-1.4 c0-0.6-1.8-0.7-1.8-1.6c-0.4-1-1.1-1.1-1.2-1.4c-0.2 0-0.3 0-0.4-0.2c-0.4 0-0.3-0.8-1.2-0.8c-0.1-0.3-1-1-1.2-0.8 c-0.9 0.6-3.5 0.3-4.6 0.3c-2.7-0.2-2.3-3.3-3.7-3.5c-1 0.7-2.1 1.3-3.2 1.3c-0.2-0.4-0.3-0.3-0.9-0.6c-0.1 0-0.9 0.4-1.1 0.6 c-0.7 0.4-1.3 1.7-2.1 1.2c-0.4-0.4-0.7-0.3-0.8 0.3c-1.7 0 0.8 4-3.2 4c0.2-1.4 0-2.8-2-2.8c0 1.7-2.9 1.4-4.2 1.2 c0.3-1.3-0.3-2.3-1.4-3c0-1.1-0.8-2.4-0.8-4c-1.4 0 0.7-4.4-1.6-4.4c0.1 0.2 0.2 0.5 0.2 0.8c-1.6 0-3.2 0.3-4.8 0 c0.4-1.5-0.9-1.6-0.5-3.2c0.3-1.3 0.8-2.4 1.1-3.7c0.6 0 0.5-1.8 1.6-1.8c1.1-0.6-0.4-2.4-0.4-0.8c0 0-2 0.7-2.2 0.8 c0 0.1-2 2-2 0.6c-1 0.4-2.6 2.4-1 2.8c-0.2 0.8-1.4 1.5-1.4 1.6c-2.3 0-1.5-0.1-1.6-1.2c-1.3 0-2.9-3-4.2-3c0-1.3-1.4-2.5-1.4-4.2 c-0.3 0-0.3-6.1 0-6.1c0-3.1 2.2-5.6 5.2-6c1.9-0.2 1.7 1.2 3.5 1.4c1 0.1 1.6-0.3 2.6-0.7c-0.1-0.8-0.6-1.1-0.8-1.8 c1.2 0 4.5 0.2 5 1.2c1.2 0.5 2.6-0.8 3.4 0.3c0.6 0.8 1.6 3.5 1.6 4.3c-0.2 0 1.1 2 1.2 2.2c1.9 0 1.4-1.5 1.1-2.9 c-0.2-1.2-0.5-4.7-1.3-5.5c0-3.4 2.3-3.1 3.6-5.7c2.1 0 2.6-3.4 3.8-4.2c0-0.4 0.8-3.1 1-3.2c0.3-1.6 1-1.6 1.6-2.6 c-0.2 0 2.6-2.1 2.6-1.8c1.1-0.7 2-3 2.4-4.2c0.5 0 1.8-1.1 2-1.6c1.4 0 2.3-0.8 4-0.8c-0.3 0.6 0 0.4 0.2 1.4c0.1 0-1.1 0.2-1.2 0 c-0.2 0.8-1.8 1 1.4 0.6c0.2-0.4 1.3-0.8 1.8-1c0-1 1.5-0.3 1.8-1.2c-1.2-0.1-2.1-0.5-2.9-1.8c-0.8-1.4-2.6-3.2 0.3-3.2 c0-0.4-0.4-0.2-0.4-0.6c-1.5 0.4-1.8 1.4-3.4 1.4c-2 0.7-3 2.7-5.2 2.6c0.2-2 3.8-6.1 5.6-6.7c3.5-1.1 9.3 2 10.3-2.3 c0.7 0.1 3.8 1.2 3.8-0.2c0.7 0-0.6-1.4 0.8-1.4c-0.2-1-1.8-2.2-2.4-2.2c0-2.2-1.2 0.2-1.8 0.2c0-1.5-0.5-1.3-1-1.8 c0-1.1-2.3-2.7-3-3.8c-1 0-2.4-5-3.2-4.4c0 1.2-0.9 2.8-2.2 2.8c0 0.8-2 0.4-2.4 0.4c0-1.2 0.4-0.2 0.4-0.8c-0.7 0-0.6-0.9-0.6-1 c-0.4 0-3.4-3-3.4-3.6c-2.7 0.9-0.6-0.2-3.2-1.4c-0.9 2.4-3.5 0.4-5 0.4c0 0.3-1.3-0.2-1.8 0c0 1.4 1.2 4.4-0.4 4.8 c0.3 1.1 1 0.4 1.6 1.1c0.9 1.1 0.5 3.1 0 4.4c2.3 0.9-1.8 2.8-1.8 1.6c-1.3 0.4-1.5 2-0.2 2.8c0 0.8-0.4 2.2 0.8 2.2 c-0.3 1.4-2.4 1.5-3.6 1c-0.1-0.4 0-0.5 0.4-0.4c-0.2-0.8-1.2-3-0.8-3C98.6 91.8 96 87.8 96 90c-1.5 0-3 0.3-3-1.4 c-0.5-0.2-1.4-0.6-1.6-1c-2.6-0.4-3.7-0.7-6.7-1.2c0.1-1.2-2.5-3.5-3.8-4.2c0-3-0.9-5.8 2.4-6.3c0 0.5 2.9-0.9 3.2-1 c0.8-1.7 2.5 0.9 3.2-1.6c0.4-1.5 2.2-2.4 3.7-1.9c-0.2 1.9-0.8 3.8-2.4 3.8c1.2 1 4.3-0.4 5.7-0.4c0 0.1 2.1 0.4 2.6 0.4 c-0.9-1.2-6.7-2.2-4-4.2c0-0.6 2.3-0.6 2.6-1.8c0.2-1 0.5-3.7 0-3.9c-0.8-0.3-1.6 0.1-2.8-0.1c0-0.4 0-0.8-0.4-0.8 c0 1.3-1.1 0.1-2 0.4c0 0.3 0.8 1.2 0.2 1.2c0 1.9-0.2 3.7-2.6 4c0-1.3-0.7-3.8-2-4.2c0 3.9-3.7-1.6-4.4-2.2c-0.3-1.2-1.1-1.7-2-2 c-0.6 1.6-1.7 0.2-2.6 1.8c-0.8 1.3 0.1 1.2-0.8 2.6c-1.1 0-3.9-0.8-4 0.4c1.2 0 1.7 0.3 1.4 1.4c2 0-0.8 1.2-0.8 1.4 c-1.1 0-1.9 0.5-3.2 0.2c-1.6-0.3-3.3-0.6-4.9-1.1c-1.3-0.5-1.1-1.2-1.6-1.2c-1.8-3 2.6-1.2 2.6-1c1.5 0 3.2 1.9 2.8-1.2 c0.5 0.1 1.1 0.2 1.6 0.2c-0.4-1.4-1.9-0.7-3-0.6c0-0.9-1.2-2.8-1.4-2.8c-0.5-1.5-0.2-1.6-0.2-2.8c-0.3 0.1-2.4 1.5-2.6 1 c22.2-20.7 51.9-33.4 84.5-33.4c38 0 72 17.2 94.7 44.2c-0.7 2-2.5 0.4-3.4 1.9c-0.2 0-0.8 1.8 0.4 1.8c-0.4 1.6-2 1.4-2 0 c-1.1 0-1.8 1.2-3.4 1.2c0.2-1-1.9-4-3-4c0.4-0.7 0-0.1 0-0.8c3.4 0 6.9-0.6 9.5-0.6c0-1.8-5.5-4.2-6.8-3.5 c-0.8 0.4-3.2-0.8-4.3-0.8c0-0.8-6.8-0.8-7.9-0.8c0-1.4-10.8 1.6-11.8 1.7c-2.3 0.2-3.3 1.5-5.1 3.1c0 0-5.6 4.6-2.8 4.6 c-0.4 3.2-8.7 2.8-8.7 4.9c-0.4 0.1-2.8-0.5-1.6 1.6c-0.2 0 1.9 2.4 2 2.6c1.7 0 3.2 0.8 5.4 0.8c0.2-0.5 1.2-0.7 1.8-0.8 c0.1 1.2 1.1 3.8 1.8 3.8c0 1.1 0.6 3-1.6 1.8c-0.3-0.2-0.4-1.9-0.5-2.5c-0.2-1.6-1.9 0.7-3.4 0.5c0 1.1-0.2 4.2 1 4.6 c-0.6 1.7-2.8 0.5-3.8 2c-0.8 0-2.2 2.5-2.2 0.8c-1.3 0.9 0.1 3.2-2.4 1.8c-0.1 0.6 0 1.3-0.2 2.2c1.6 0-0.3 1.2-0.8 1.2 c0 1.8-1.8-0.1-2.2-0.4c0 0.1-0.1 0.2-0.2 0.2c1.5 2.6-2.3 1.4-3.4 0.8c-1.2-0.7 0.5 1.2 1.4 1.4c0 1.3 4.2 3.5 1.8 6.1 c0 0.7 0.1 0.8 0.8 0.8c0 1.8-2.2 1.5-3.4 1.2c0.5-1 0.1-1.6-1.2-1.6c0 1.6-3.2 0.7-4.6 1.2c-0.3-0.5-0.4-0.7-0.8-0.8 c-0.4 0.9-1 7.3-0.8 7.3c0 2.5 2 4.1 4.2 4.8c0-0.6 5.3-0.2 5.5-1.1c0.4-1.7 1.9-1.8 2.2-3.6c0.1-0.8 2.8-7.2 2.8-7.3 c0-0.2 4.8 1.3 5.6-0.4c0.4 0 1.5-0.4 1.8-0.8c1.6 0.2 1.9 3 2.8 3c1.1 1.7 3.8 1.2 4.6 3c1.3 0 1.4 3.4 1.4 4.6 c1.5-1.1 1.7-2.1 1.4-3.3c-0.6-2 1.6 0.4 2.3-0.5c-1 0-0.7-1.9-2.6-1.4c-0.1-0.5-0.2-1.1-0.2-1.6c-2.6 0.4-2.4-3.4-4.4-3 c-0.2-1-1.4-1.2-0.8-2.4c1-1.8 4.4 3.6 5.8 3.6c0.3 0.7 2.6 0.9 2.6 1.4c1.2 0.4 0.6 2.4 0.6 3.4c1.1 0 0.7 0.6 1.2 1.4 c1.6 0.8 0.7 3.9 3.4 4.4c0-1 2.6-3 1-3c0.1-0.8-1.8-4.5 0.9-4c0.9 0.2 2.5 0.3 2.8 1.4c0.6 2.2 0.1 3.4 1.8 5 c1.1 2.2 4.9-0.2 5.4 0.8c0.4 0 2.8 1 2.8 0.2c1.1-0.4 1.4-0.6 2.8-0.6c0 1.4-0.5 3.2-0.8 4.4c-0.2 1-1.2 1.9-0.9 3.1 c-0.9 0-0.8 1.2 0.2 1.2c0 1.9-2.2 1.6-3.6 1.4c0.4 1.4 2.8 4.4 3.8 5c0.4 1.2 1.4 3.4 2.4 4c0.2 0.9 1.1 3.5 1.8 3.8 c0 1.4 4.8 10.3 3.6 10.3c0.4 0.7 0.9 1.1 0.8 1.8c1.8 0 1.1 4.4 4.8 4.4c0.3-0.5 3.3-1.6 4-1.6c0.7-1.4 4.4-2.4 5.4-2.4 c-0.4-1.1 5.6-3.7 5.6-4.2c0.8-0.3 1.4-1.8 1.4-2.7c0-1.4 1-1.5 1-2.5c1.6-1.1 2-3.8-0.2-4.4c0.4 2.3-1.6 1.1-1.3 0.5 c0.4-0.9-0.2-1.3-0.9-2.1c-0.8-0.4 0.2-1.2-0.6-1.8c-1 2.5-3 3.6-5 3.6c-0.6-1.7 1.3 0.5-0.2-1.8c-0.4-0.7-0.6-1.4-0.4-2.2 c-0.3 0-0.2-0.1-0.4-0.2c-0.4 2.1-0.1 2.4-1.6 2.4c-0.3-0.7 1.2-1.1 0-2.2c-0.5-0.4-0.8-1.6-0.8-2.2c-0.7-0.4-2.2-3-1.8-3.7 c1.4-2.6 4.8 3.3 4.5 4.3c0.2-0.1 0.3 0 0.2 0.2c4-1.2 7.5 2.6 11.5 2.6c0.7 0.3 3 0.8 4.6 0.7c0.3 3.4 0.5 6.9 0.5 10.3 C273.4 177.3 264.8 202.2 250.2 222.5z M225.1 112c-0.3-3.3 1.7-5.1 3-8.1c2.3-0.2 3.1 0.3 3 2.4c1.6 0 0.3 1.9 2.5 1.1 c0.5-0.7 1.3-1 2.2-0.7c1.4 0 1.8 0.8 2.8 0.8c1 2 4.2 1.4 4 5c2.3 0-2 2.3-2 1.8c-2.6 0.7-3.2-1.8-4.2-1.8c0 2.4-1.4-0.4-1.6-0.4 c0 0.8-7.8 1.3-9.1 1.2C225.9 112.4 226.1 112.2 225.1 112z"/><path fill="#2B54B5" d="M170.8 72.4c-1 0.5-0.7 1.3-2 0.8c0-2.6-0.7-1-3.1-0.6c-0.5 0.1-3.6 1.1-3.6 0.6c0 0 0.1-1 0-1.4 c-0.6-0.2-0.2 0-0.2-0.4c-0.3 0-2.6 1-2.6 1c2 0-0.2 1.6-0.2 2.2c1.5 0.2 2.5 0.8 3.8 0.8c0 0.4 3.5-0.2 3.9-0.2 c1.5 0 2.5-0.3 3.6-1C171.8 73.4 170.8 73.5 170.8 72.4z"/><path fill="#2B54B5" d="M183.1 89.8c2 0 2.5 0.7 2.6 2.8c2.4 0.8-1.6 0.6-1.8 0.6c0 1-1.5 3.1 0.4 2.5c1.3-0.4 1.6-0.3 1.6 1.1 c1.8 0 4.3 0.1 5.3-1.8c1 0 1-0.9 0-1.2c0 1.1 0.1 1-1 1c0.4-2.2 0.1-4-1.8-4c0.3-0.9-0.5-1.7-1.3-2.3c-1.5-1.2 0-1.4 0.3-2.8 c-1.1 0.3-1.1 1.2-2.6 1.2c0-0.3 0.3-1.3 0.1-1.4c0.4 0 1.8-1.2 0.1-1.2c-0.7 2.6-2.9 0-2.6 2.4C182.6 88.4 183.1 88.3 183.1 89.8z "/><path fill="#2B54B5" d="M177.3 95.4c3 0 3.8-1.8 4.6-4.2c0.8-2.4-0.8-1.1-1.6-1.1c-0.7 0.3-1.2-1.2-1.5-0.5 c-0.3 0.6 0.2 1.3 0.9 1.3c-0.2 0.5-4.2 1.1-2.2 1.6C177.2 93.8 176.2 94.3 177.3 95.4z"/><path fill="#2B54B5" d="M183.1 97.6c0.2 0.7 1.2 0.3 1.2-0.2c-0.3 0-0.7 0-1 0C183.4 97.6 183.3 97.7 183.1 97.6z"/><path fill="#2B54B5" d="M124.7 105.5c1.1-0.1 1.6-0.4 1.6-1.4C125.3 104.7 125 104.5 124.7 105.5z"/><path fill="#2B54B5" d="M200.3 110.2c0.1 0.7-0.3 0.8-1.2 0.4c0.4 1 0.2 1.2 0.8 1.8C200.1 111.5 201.5 110.6 200.3 110.2z"/><path fill="#2B54B5" d="M200.1 113c0 1.3-0.2 1.8-0.6 0.4c-1.2 0-0.6 1.7-0.6 2.6C201.1 116.7 200.9 113 200.1 113z"/><path fill="#2B54B5" d="M208.1 118.4c-1.1 0.5-0.6 1.1-2.2 0.6c-0.7-0.2-1.4-1.1-1.7 0.1C206.3 119.2 208.1 121.7 208.1 118.4z"/><path fill="#2B54B5" d="M247.9 164.2c-2.1-0.2-0.5-0.5-0.6-1.2c-1.6 0-4.6-5.8-4.6-7.3c-0.6-0.3-1.1-2.4-1-2.4 c-0.5-1.4-2.4-2.6-1.6-4c-1.8-1.1-3.7-4.7-4.2-6.5c-1.1-0.8-1.8-3-1.8-4.2c-1.2 0-2.9-3.6-2.6-5c-1.1 0-1.4-2-2.6-2 c0.6-1.7-7.5-1.9-8.9-2c0.2-1.4-0.8-2.2-2-2.2c0 2.1-4.6 2.4-6.1 2.3c-1.1-0.1-3.6-0.4-3.6-1.7c-0.8-0.2-1.9 0-3 0 c0.3-1.4-2.5-7.5-4-7.9c0 0.2 0 0.4 0 0.6c-1.1 0.2-8.3-1.6-8.3-0.2c-0.9 0-4.5 1.3-5 2.4c-0.3 0-3.6 1.6-3.6 0.4 c-0.8 0-1.8 0.4-2.2 1.2c-0.9 0-1.8 1.6-2.4 2.2c-1.6-0.2-0.4-1.2-2 1c0 0.7-1.2 3.8-1.4 3.8c0.5 0.5 0.5 0.8 0 1.4 c-1.1 0.9-1.7 2.7-2.8 3.2c-1.1 1.9-1.4-0.1-2.2 2c-0.5 1.2-1.1 2.1-1.6 3c-1.6 3-1.6 4.3-1.6 7.1c0 1-1.1 1.9-0.8 2.8 c0.3 1.1 1 3.5 0.8 4.3c-0.8 0-1.2 2.7 0.2 3.4c0 1.8 2.6 7.2 4.2 8.3c0 1.5 3 4.6 4.4 4.6c0.6 1.1 6.7 2.9 6.7 1.4 c2.5 0 11.2-1.6 12.5 1c2.2 0 3-0.4 5 0.6c0.3 1.5-0.1 6.1-1.2 7.3c0 2 0.6 4.2 2.2 5.2c0.1 0.5 1.3 2.4 1.6 2.4 c0.6 2.5 1.3 4.8 0.9 8.4c-0.4 3.3-1.5 5.2-1.5 8.2c-0.6 0 0.6 5.6 1.2 5.6c0 2.6 2 4.9 2 7.7c0.1 0 0.8 2.6 0.8 3.4 c-0.6 0 3.2 7.7 3.2 8.3c0.7 0 0.8 2.6 1.4 2.6c0.1 1.7 0.8 3.4 0.8 4.6c0.8 1.2 4.1 0.2 5.4 0.2c0-0.5 6.1-1.6 6.9-1.6 c0.4-0.5 3-4.2 3-4.2c0-1.9 3.8-5.5 5.2-6.5c0-0.3 1.8-4.8 1.6-4.8c0-3.2 0.8-5.3 0.8-8.1c0.6 0 1.2-2.6 2.4-2.6 c0.3-0.7 1.3-1 2-1.4c0-1.7 1.4-3.1 1.4-5.2c0.9 0-0.6-6.8-0.6-7.5c-1.8 0-0.4-8.1-0.4-9.1c-1.1 0 3.8-5.5 3.7-5.1 c0.3-1.4 3-3.4 3.8-4.5c0.8-1 3.4-2.9 3.4-4.1c1.1-0.6 1.3-1.6 2.2-2.2c0-0.5-0.6-2 0.8-2c-0.4-2.6 1.8-4.1 1.8-6.7 c-1.7 0.6-4.1 0.8-5.9 0.8C250.1 164.2 248.2 164.3 247.9 164.2z"/><path fill="#2B54B5" d="M95.2 143.7c-0.2-0.1-0.4-0.1-0.6-0.2c-0.7 1.9 2 1.6 2 0.4C96 144.2 95.5 144.7 95.2 143.7z"/><path fill="#2B54B5" d="M101.3 143.5c-0.6 1.1-1.6 0.7-2.6 0.6c0.6 0.9 2.6 1.8 3.6 1.8c0.7 1.3 2.7 2.2 4.3 2.1 c2.1-0.2-0.1-1.8-0.5-2.5C104.1 145.5 103.8 143.7 101.3 143.5z"/><path fill="#2B54B5" d="M113.6 148.7c-0.4 1.2 0 0.1 0 1c-1.5 0-2.7-0.8-3.8-0.8c0.3 0.6 0.8 1.1 0.8 1.6c-1 0.4-1.8 0-2.8 0 c0.4 0.7 3.1 0.9 3.4 0.2c2.3 0 2.4-0.1 4.6 0.2C115.8 150.3 114.2 148.9 113.6 148.7z"/><path fill="#2B54B5" d="M102.5 150.3c-0.6 1.5 0.7 1.2 1.4 1.2C104 150.9 103.5 150.5 102.5 150.3z"/><path fill="#2B54B5" d="M104.1 151.6c0.4-0.1 0.8-0.1 1.2-0.2C105.1 149.6 104.2 150.6 104.1 151.6z"/><path fill="#2B54B5" d="M118.8 150.3c-0.4 1.2 0.4 0.6 1 0.6C119.9 150.5 119.3 150.3 118.8 150.3z"/><path fill="#2B54B5" d="M117.8 150.5c0 0.2 0 0.4 0 0.6c0.2-0.1 0.4-0.2 0.6-0.2C118.4 150.7 118.1 150.5 117.8 150.5z"/><path fill="#2B54B5" d="M112 160.8c0.7 0 0.6 0 0.8-0.6c-0.2-0.1-0.4-0.1-0.6-0.2C112.1 160.3 112.1 160.6 112 160.8z"/><path fill="#2B54B5" d="M252.2 203.2c1 0.3 0.8 0 0.6-1C252.3 202.6 252.2 202.5 252.2 203.2z"/></g></svg>