<svg xmlns="http://www.w3.org/2000/svg" version="1.1" x="0px" y="0px" viewBox="0 0 612 792" enable-background="new 0 0 612 792" xml:space="preserve"><path fill="#DEDEDE" d="M309.7 133.2c-1.2 0-2.2 0-3.5 0c-1 0-2.4 0-3.5 0c-102.6 0-185.8 84.3-185.8 185.8s189.3 341.1 189.3 341.1 s189.3-239.9 189.3-341.1S412.3 133.2 309.7 133.2z M445.9 322.6c0 77.1-62.6 139.7-139.7 139.7s-139.7-62.6-139.7-139.7 s62.6-139.7 139.7-139.7C383.5 182.8 445.9 245.4 445.9 322.6z"/><line fill="none" stroke="#DEDEDE" stroke-width="14" stroke-miterlimit="10" x1="224.2" y1="323.6" x2="387.8" y2="323.6"/><line fill="none" stroke="#DEDEDE" stroke-width="14" stroke-miterlimit="10" x1="306" y1="405.4" x2="306" y2="242"/></svg>