<?xml version="1.0" encoding="utf-8"?>
<!-- Generator: Adobe Illustrator 16.2.1, SVG Export Plug-In . SVG Version: 6.00 Build 0)  -->
<!DOCTYPE svg PUBLIC "-//W3C//DTD SVG 1.1//EN" "http://www.w3.org/Graphics/SVG/1.1/DTD/svg11.dtd">
<svg version="1.1" id="Layer_1" xmlns="http://www.w3.org/2000/svg" xmlns:xlink="http://www.w3.org/1999/xlink" x="0px" y="0px"
	 width="24px" height="24px" viewBox="0 0 24 24" enable-background="new 0 0 24 24" xml:space="preserve">
<g>
	<g>
		<g>
			<path fill-rule="evenodd" clip-rule="evenodd" fill="#3D3D3D" d="M1.788,3.566c4.246,0,8.474,0,12.715,0c0,1.401,0,2.791,0,4.201
				c-0.397,0-0.793,0-1.217,0c0-0.155,0-0.313,0-0.484c-0.287,0-0.539,0-0.822,0c0,0.156,0,0.314,0,0.503
				c-0.205,0-0.386,0.015-0.561-0.003c-0.225-0.026-0.377,0.041-0.463,0.259c-0.027,0.075-0.086,0.139-0.167,0.261
				c0-1.06,0-2.059,0-3.079c-2.069,0-4.12,0-6.186,0c0,1.361,0,2.724,0,4.103c1.845,0,3.685,0,5.527,0
				c-0.108,0.456-0.256,0.574-0.689,0.574c-0.886,0-1.769,0-2.679,0c0,0.205,0,0.398,0,0.62c-0.732,0-1.44,0-2.162,0
				c0,1.381,0,2.738,0,4.121c0.709,0,1.417,0,2.14,0c0,0.561,0,1.091,0,1.641c-1.801,0-3.609,0-5.436,0
				C1.788,12.056,1.788,7.821,1.788,3.566z M3.819,6.434c0-0.42,0-0.811,0-1.214c-0.271,0-0.53,0-0.796,0c0,0.414,0,0.812,0,1.214
				C3.295,6.434,3.549,6.434,3.819,6.434z M13.264,6.433c0-0.421,0-0.813,0-1.211c-0.273,0-0.533,0-0.792,0c0,0.413,0,0.812,0,1.211
				C12.742,6.433,12.998,6.433,13.264,6.433z M3.813,8.499c0-0.424,0-0.823,0-1.214c-0.277,0-0.531,0-0.79,0c0,0.413,0,0.81,0,1.214
				C3.294,8.499,3.549,8.499,3.813,8.499z M3.027,9.344c0,0.425,0,0.823,0,1.215c0.274,0,0.529,0,0.791,0c0-0.41,0-0.808,0-1.215
				C3.548,9.344,3.294,9.344,3.027,9.344z M3.019,12.574c0.283,0,0.538,0,0.799,0c0-0.413,0-0.812,0-1.207c-0.276,0-0.536,0-0.799,0
				C3.019,11.776,3.019,12.167,3.019,12.574z M3.025,13.427c0,0.415,0,0.812,0,1.207c0.276,0,0.537,0,0.794,0
				c0-0.412,0-0.806,0-1.207C3.554,13.427,3.299,13.427,3.025,13.427z"/>
		</g>
	</g>
	<g>
		<g>
			<path fill-rule="evenodd" clip-rule="evenodd" fill="#3D3D3D" d="M15.629,18.902c1.977-0.002,3.581-1.608,3.572-3.579
				c-0.005-1.961-1.603-3.558-3.562-3.563c-1.975-0.003-3.583,1.598-3.587,3.57C12.048,17.299,13.652,18.903,15.629,18.902z
				 M8.291,10.925c0.889,0,1.766-0.005,2.64,0.005c0.202,0.003,0.324-0.056,0.428-0.238c0.321-0.567,0.669-1.119,0.997-1.685
				c0.085-0.146,0.178-0.192,0.344-0.192c1.947,0.007,3.89,0.008,5.832-0.001c0.199,0,0.282,0.066,0.349,0.247
				c0.204,0.554,0.44,1.099,0.649,1.652c0.061,0.158,0.14,0.22,0.317,0.218c1.033-0.009,2.063-0.005,3.114-0.005
				c0,3.215,0,6.419,0,9.641c-4.879,0-9.766,0-14.671,0C8.291,17.37,8.291,14.169,8.291,10.925z"/>
		</g>
	</g>
	<g>
		<path fill-rule="evenodd" clip-rule="evenodd" fill="#3D3D3D" d="M15.633,13.869c0.821,0.004,1.472,0.66,1.466,1.481
			c-0.009,0.798-0.671,1.451-1.469,1.457c-0.805,0.004-1.476-0.664-1.476-1.475C14.155,14.518,14.815,13.863,15.633,13.869z"/>
	</g>
</g>
</svg>
