<?xml version="1.0" encoding="utf-8"?>
<!-- Generator: Adobe Illustrator 16.2.1, SVG Export Plug-In . SVG Version: 6.00 Build 0)  -->
<!DOCTYPE svg PUBLIC "-//W3C//DTD SVG 1.1//EN" "http://www.w3.org/Graphics/SVG/1.1/DTD/svg11.dtd">
<svg version="1.1" id="Layer_1" xmlns="http://www.w3.org/2000/svg" xmlns:xlink="http://www.w3.org/1999/xlink" x="0px" y="0px"
	 width="24px" height="24px" viewBox="0 0 24 24" enable-background="new 0 0 24 24" xml:space="preserve">
<g>
	<g>
		<g>
			<path fill="#232323" d="M15.342,18.902c1.977-0.002,3.58-1.608,3.572-3.579c-0.006-1.962-1.455-3.558-3.414-3.563
				c-1.975-0.003-3.73,1.598-3.736,3.57C11.76,17.299,13.365,18.902,15.342,18.902z M8.5,11.5c0.889,0,1,0,2,0s2-1,2-2s0-1,0-1h6
				c0,0,0,0,0,1s1.003,1.781,2,2c1.042,0.229,1.795,0,2,0c0,3.215,0,5.777,0,9c-4.879,0-9.096,0-14,0
				C8.5,17.305,8.5,14.743,8.5,11.5z"/>
		</g>
	</g>
	<g>
		<path fill="#232323" d="M15.508,14.02c0.82,0.004,1.471,0.66,1.465,1.481c-0.008,0.798-0.67,1.451-1.469,1.457
			c-0.805,0.004-1.475-0.664-1.475-1.476C14.029,14.668,14.689,14.014,15.508,14.02z"/>
	</g>
	<g>
		<g>
			<path fill="#232323" d="M1.5,3.566c0,4.254,0,8.707,0,12.934c1.827,0,4.199,0,6,0c0-0.55,0-1.298,0-1.857c-0.722,0-2.291,0-3,0
				c0-1.384,0-2.762,0-4.143c0.568,0,5,0,5,0v-1c0,0-3.155,0-5,0c0-1.378,0-2.639,0-4c2.065,0,4.93,0,7,0c0,1.02,0,2,0,2
				c0.176,0.018,2.604,0,3,0c0-1.41,0-2.532,0-3.934C10.26,3.566,5.746,3.566,1.5,3.566z"/>
		</g>
	</g>
	<path fill="#232323" d="M19.5,10.5"/>
</g>
</svg>
