<svg xmlns="http://www.w3.org/2000/svg" xmlns:xlink="http://www.w3.org/1999/xlink" version="1.1" x="0px" y="0px" viewBox="0 0 32 26" enable-background="new 0 0 32 26" xml:space="preserve"><g><rect x="4" y="4" fill="#D5D4D4" width="14" height="2"/><rect x="4" y="8" fill="#D5D4D4" width="14" height="2"/><polygon fill="#D5D4D4" points="12.8,26 0,26 0,0 22,0 22,16.4 20,16.4 20,2 1.9,2 1.9,24.1 12.8,24"/><path fill="#D5D4D4" d="M30.2 22c0 1.1-0.9 2-2 2L24 24c0.5 1.1 1 2 2 2h3c1.7 0 3-2.3 3-4s-1.3-4-3-4h-3 c-1 0-1.5 0.9-2 2l4.2 0C29.3 20 30.2 20.9 30.2 22z"/><path fill="#D5D4D4" d="M19 21.8c0 0.5 0.4 1 0.9 1H26c0.5 0 0.9-0.5 0.9-1c0-0.5-0.4-1-0.9-1h-6.1 C19.4 20.8 19 21.3 19 21.8z"/><path fill="#D5D4D4" d="M15.8 22c0-1.1 0.9-2 2-2l4.2 0c-0.5-1.1-1-2-2-2h-3c-1.7 0-3 2.3-3 4s1.3 4 3 4h3 c1 0 1.5-0.9 2-2l-4.2 0C16.7 24 15.8 23.1 15.8 22z"/></g></svg>