<svg xmlns="http://www.w3.org/2000/svg" xmlns:xlink="http://www.w3.org/1999/xlink" version="1.1" x="0px" y="0px" viewBox="0 0 74 65" enable-background="new 0 0 74 65" xml:space="preserve"><g><g><rect x="52.8" y="40.2" transform="matrix(0.7071 0.7071 -0.7071 0.7071 50.6742 -24.9472)" fill="#3A3B3B" width="5.4" height="17"/><rect x="35.7" y="41" transform="matrix(0.7071 0.7071 -0.7071 0.7071 48.4853 -11.622)" fill="#3A3B3B" width="5.2" height="23.4"/><rect x="45.7" y="42.9" transform="matrix(-0.7071 0.7071 -0.7071 -0.7071 117.6904 50.9619)" fill="#3A3B3B" width="5.2" height="13.8"/><polygon fill="#3A3B3B" points="69,52.4 74,31.3 52.1,35.5"/></g><rect x="10" y="9.8" fill="#3A3B3B" width="35" height="5"/><polyline fill="#3A3B3B" points="45,19.8 45,24.8 10,24.8 10,19.8"/><g><polygon fill="#3A3B3B" points="27,64.8 0,64.8 0,-0.2 55,-0.2 55,28.8 50,29.8 50,4.8 5,4.8 5,59.8 22,59.8"/></g></g></svg>