<svg xmlns="http://www.w3.org/2000/svg" xmlns:xlink="http://www.w3.org/1999/xlink" version="1.1" x="0px" y="0px" viewBox="0 0 74 65" enable-background="new 0 0 74 65" xml:space="preserve"><g><g><rect x="52.8" y="40.4" transform="matrix(0.7071 0.7071 -0.7071 0.7071 50.7987 -24.8956)" fill="#D6D5D4" width="5.4" height="17"/><rect x="35.7" y="41.2" transform="matrix(0.7071 0.7071 -0.7071 0.7071 48.6098 -11.5704)" fill="#D6D5D4" width="5.2" height="23.4"/><rect x="45.7" y="43.1" transform="matrix(-0.7071 0.7071 -0.7071 -0.7071 117.8149 51.2626)" fill="#D6D5D4" width="5.2" height="13.8"/><polygon fill="#D6D5D4" points="69,52.6 74,31.5 52.1,35.7"/></g><rect x="10" y="10" fill="#D6D5D4" width="35" height="5"/><polyline fill="#D6D5D4" points="45,20 45,25 10,25 10,20"/><g><polygon fill="#D6D5D4" points="27,65 0,65 0,0 55,0 55,29 50,30 50,5 5,5 5,60 22,60"/></g></g></svg>