<svg xmlns="http://www.w3.org/2000/svg" xmlns:xlink="http://www.w3.org/1999/xlink" version="1.1" x="0px" y="0px" viewBox="0 0 33.18 26" enable-background="new 0 0 33.18 26" xml:space="preserve"><g><rect x="4" y="4" fill="#3A3B3B" width="14" height="2"/><rect x="4" y="8" fill="#3A3B3B" width="14" height="2"/><g><polygon fill="#3A3B3B" points="12,26 0,26 0,0 22,0 22,12 20,12 20,2 2,2 2,24 12,24"/></g><path fill="#3A3B3B" d="M28.171 14.033c0.859 1 4.1 4.7 4.8 5.586c0.232 0.3 0.2 0.5 0 0.8 c-1.015 1.171-4.208 4.869-4.798 5.538c-0.046 0.052-0.145 0.078-0.22 0.078C27.101 26 26.2 26 25.3 26 c-3.09 0-7.709 0-10.799 0C14.13 26 14 25.9 14 25.476c0-3.651 0-7.301 0-10.952C14 14.1 14.1 14 14.5 14 c3.964 0 9.5 0 13.4 0.002C28.038 14 28.1 14 28.2 14.033z M26.125 18.543c-0.8 0.803-0.794 2.1 0 2.9 c0.771 0.8 2 0.8 2.788-0.003c0.803-0.802 0.806-2.124 0.005-2.926C28.15 17.8 26.9 17.8 26.1 18.543z"/></g></svg>