<svg xmlns="http://www.w3.org/2000/svg" xmlns:xlink="http://www.w3.org/1999/xlink" version="1.1" x="0px" y="0px" viewBox="0 0 33.2 26" enable-background="new 0 0 33.2 26" xml:space="preserve"><g><rect x="4" y="4" fill="#D5D4D4" width="14" height="2"/><rect x="4" y="8" fill="#D5D4D4" width="14" height="2"/><g><polygon fill="#D5D4D4" points="12,26 0,26 0,0 22,0 22,12 20,12 20,2 2,2 2,24 12,24"/></g><path fill="#D5D4D4" d="M28.2 14c0.9 1 4.1 4.7 4.8 5.6c0.2 0.3 0.2 0.5 0 0.8c-1 1.2-4.2 4.9-4.8 5.5c0 0.1-0.1 0.1-0.2 0.1 c-0.9 0-1.8 0-2.7 0c-3.1 0-7.7 0-10.8 0c-0.4 0-0.5-0.1-0.5-0.5c0-3.7 0-7.3 0-11c0-0.4 0.1-0.5 0.5-0.5c4 0 9.5 0 13.4 0 C28 14 28.1 14 28.2 14z M26.1 18.5c-0.8 0.8-0.8 2.1 0 2.9c0.8 0.8 2 0.8 2.8 0c0.8-0.8 0.8-2.1 0-2.9 C28.1 17.8 26.9 17.8 26.1 18.5z"/></g></svg>