<svg xmlns="http://www.w3.org/2000/svg" xmlns:xlink="http://www.w3.org/1999/xlink" version="1.1" x="0px" y="0px" viewBox="0 0 28 26" enable-background="new 0 0 28 26" xml:space="preserve"><g><path fill="#3A3A3A" d="M21.1 11.9c-3.811 0-6.9 3.089-6.9 6.9c0 3.8 3.1 6.9 6.9 6.9c3.811 0 6.9-3.089 6.9-6.9 C28 15 24.9 11.9 21.1 11.9z M22.149 23.417h-1.851v-1.815h1.851V23.417z M24.052 18 c-0.099 0.244-0.22 0.452-0.366 0.625s-0.306 0.32-0.483 0.442c-0.177 0.122-0.344 0.243-0.501 0.365s-0.296 0.262-0.418 0.4 c-0.122 0.157-0.198 0.354-0.229 0.589v0.448h-1.592v-0.53c0.024-0.338 0.089-0.621 0.195-0.85c0.106-0.228 0.23-0.422 0.371-0.583 c0.142-0.161 0.291-0.301 0.448-0.419c0.157-0.117 0.302-0.235 0.436-0.354c0.133-0.117 0.242-0.247 0.324-0.389 s0.12-0.318 0.112-0.53c0-0.361-0.088-0.629-0.265-0.802s-0.422-0.26-0.737-0.26c-0.212 0-0.395 0.042-0.548 0.1 c-0.153 0.083-0.279 0.192-0.377 0.33s-0.171 0.299-0.218 0.483c-0.047 0.185-0.071 0.383-0.071 0.596H18.4 c0.007-0.425 0.08-0.813 0.218-1.167c0.138-0.354 0.33-0.66 0.578-0.92s0.546-0.462 0.896-0.607s0.741-0.218 1.173-0.218 c0.558 0 1 0.1 1.4 0.229c0.373 0.2 0.7 0.3 0.9 0.572c0.228 0.2 0.4 0.5 0.5 0.7 c0.098 0.3 0.1 0.5 0.1 0.737C24.2 17.5 24.2 17.8 24.1 18.006z"/><polygon fill="#3A3A3A" points="15.2,26 0,26 0,0 22,0 22,10 20,10 20,2 1.9,2 1.9,24.1 13.2,24"/></g></svg>