<svg xmlns="http://www.w3.org/2000/svg" xmlns:xlink="http://www.w3.org/1999/xlink" version="1.1" x="0px" y="0px" viewBox="0 0 28 26" enable-background="new 0 0 28 26" xml:space="preserve"><g><path fill="#D5D4D4" d="M21.1 11.9c-3.8 0-6.9 3.1-6.9 6.9c0 3.8 3.1 6.9 6.9 6.9c3.8 0 6.9-3.1 6.9-6.9C28 15 24.9 11.9 21.1 11.9 z M22.1 23.4h-1.9v-1.8h1.9V23.4z M24.1 18c-0.1 0.2-0.2 0.5-0.4 0.6s-0.3 0.3-0.5 0.4c-0.2 0.1-0.3 0.2-0.5 0.4s-0.3 0.3-0.4 0.4 c-0.1 0.2-0.2 0.4-0.2 0.6v0.4h-1.6v-0.5c0-0.3 0.1-0.6 0.2-0.8c0.1-0.2 0.2-0.4 0.4-0.6c0.1-0.2 0.3-0.3 0.4-0.4 c0.2-0.1 0.3-0.2 0.4-0.4c0.1-0.1 0.2-0.2 0.3-0.4s0.1-0.3 0.1-0.5c0-0.4-0.1-0.6-0.3-0.8s-0.4-0.3-0.7-0.3c-0.2 0-0.4 0-0.5 0.1 c-0.2 0.1-0.3 0.2-0.4 0.3s-0.2 0.3-0.2 0.5c0 0.2-0.1 0.4-0.1 0.6h-1.7c0-0.4 0.1-0.8 0.2-1.2c0.1-0.4 0.3-0.7 0.6-0.9 s0.5-0.5 0.9-0.6s0.7-0.2 1.2-0.2c0.6 0 1 0.1 1.4 0.2c0.4 0.2 0.7 0.3 0.9 0.6c0.2 0.2 0.4 0.5 0.5 0.7c0.1 0.3 0.1 0.5 0.1 0.7 C24.2 17.5 24.2 17.8 24.1 18z"/><polygon fill="#D5D4D4" points="15.2,26 0,26 0,0 22,0 22,10 20,10 20,2 1.9,2 1.9,24.1 13.2,24"/></g></svg>