<svg xmlns="http://www.w3.org/2000/svg" width="18" height="14" style=""><rect id="backgroundrect" width="100%" height="100%" x="0" y="0" fill="none" stroke="none"/><g class="currentLayer" style=""><title>Layer 1</title><g id="svg_1" class="" fill="#ffffff" fill-opacity="1"><path d="M8.45.17L4.664 4.28H1.036C.256 4.28 0 4.74 0 5.175v3.522c0 .436.256.985 1.036.985h3.646l3.785 4.176c.165.092.35.143.533.143a.964.964 0 0 0 .5-.136c.33-.185.5-.526.5-.897V1.013c0-.37-.17-.713-.5-.898-.33-.186-.72-.13-1.05.054zm4.95 10.156a4.393 4.393 0 0 0 0-6.19.708.708 0 0 0-1.004 1 2.978 2.978 0 0 1 0 4.192.707.707 0 1 0 1.003.998z" id="svg_2" fill="#ffffff" fill-opacity="1"/><path d="M17.515 7.23A6.186 6.186 0 0 0 15.7 2.84a.707.707 0 1 0-1.003.998A4.777 4.777 0 0 1 16.1 7.23a4.778 4.778 0 0 1-1.4 3.395.708.708 0 1 0 1.002 1 6.186 6.186 0 0 0 1.814-4.394z" id="svg_3" fill="#ffffff" fill-opacity="1"/></g></g></svg>
