<svg id="Layer_4" data-name="Layer 4" xmlns="http://www.w3.org/2000/svg" viewBox="0 0 28 28"><defs><style>.cls-1{fill:#fff;opacity:0.4;}.cls-2{fill:#231f20;}</style></defs><title>sound_on_button</title><circle class="cls-1" cx="13.96" cy="14.06" r="13.74"/><path class="cls-2" d="M16,2.93A13.07,13.07,0,1,1,2.93,16,13.08,13.08,0,0,1,16,2.93M16,2A14,14,0,1,0,30,16,14,14,0,0,0,16,2Z" transform="translate(-2 -2)"/><g id="Page-1"><g id="Video-Player-Skin"><g id="Video-Copy"><g id="volume"><path id="Shape" class="cls-2" d="M14.24,9.17l-3.79,4.11H6.82c-.78,0-1,.46-1,.89V17.7a1,1,0,0,0,1,1h3.65l3.79,4.18a1.09,1.09,0,0,0,.53.14,1,1,0,0,0,.5-.14,1,1,0,0,0,.5-.9V10a1,1,0,0,0-.5-.9,1.06,1.06,0,0,0-1,.05Z" transform="translate(-2 -2)"/><path id="Shape-2" data-name="Shape" class="cls-2" d="M19.18,19.33a4.39,4.39,0,0,0,0-6.19.71.71,0,0,0-1,1,3,3,0,0,1,0,4.19.71.71,0,0,0,1,1Z" transform="translate(-2 -2)"/><path id="Shape-3" data-name="Shape" class="cls-2" d="M23.3,16.23a6.19,6.19,0,0,0-1.81-4.39.71.71,0,1,0-1,1,4.81,4.81,0,0,1,0,6.79.71.71,0,1,0,1,1,6.19,6.19,0,0,0,1.81-4.39Z" transform="translate(-2 -2)"/></g></g></g></g></svg>