<?xml version="1.0" encoding="utf-8"?>
<!-- Generator: Adobe Illustrator 18.1.1, SVG Export Plug-In . SVG Version: 6.00 Build 0)  -->
<svg version="1.1" id="Layer_1" xmlns="http://www.w3.org/2000/svg" xmlns:xlink="http://www.w3.org/1999/xlink" x="0px" y="0px"
	 viewBox="0 0 30 30" style="enable-background:new 0 0 30 30;" xml:space="preserve">
<g>
	<path style="fill-rule:evenodd;clip-rule:evenodd;fill:#3A3A3A;" d="M4.5,19h8v1h-8V19z M4.5,16h8v1h-8V16z M4.5,13h8v1h-8V13z
		 M4.5,10l8,0v1h-8V10z M2.5,23h12V7h-12V23z"/>
	<path style="fill-rule:evenodd;clip-rule:evenodd;fill:#3A3A3A;" d="M17.5,10l8,0v1h-8V10z M17.5,13h8v1h-8V13z M17.5,16h8v1h-8V16
		z M17.5,19h5v1h-5V19z M15.5,23h12V7h-12V23z"/>
</g>
</svg>
