<?xml version="1.0" standalone="no"?>
<!DOCTYPE svg PUBLIC "-//W3C//DTD SVG 1.1//EN" "http://www.w3.org/Graphics/SVG/1.1/DTD/svg11.dtd" >
<svg xmlns="http://www.w3.org/2000/svg">
<metadata>
This is a custom SVG webfont generated by Font Squirrel.
Foundry     : Steve Deffeyes
</metadata>
<defs>
<font id="webfontZqT2GzQA" horiz-adv-x="540" >
<font-face units-per-em="1000" ascent="800" descent="-200" />
<missing-glyph horiz-adv-x="600" />
<glyph unicode=" "  horiz-adv-x="600" />
<glyph unicode="&#x09;" horiz-adv-x="600" />
<glyph unicode="&#xa0;" horiz-adv-x="600" />
<glyph unicode="!" horiz-adv-x="283" d="M183 274q-33 -15 -97 -49h-24l-5 682q0 44 -27 44l-30 -7q44 30 76 40l13 -2q9 0 38 17h13q7 -21 7 -68q0 -90 -2 -299l-3 -299q0 -20 11.5 -38.5t29.5 -20.5zM174 83q0 -35 -24 -66t-57 -31q-50 0 -50 66q0 40 21 70.5t57 30.5q10 0 33 -8q20 -29 20 -62z" />
<glyph unicode="&#x22;" horiz-adv-x="357" d="M91 1011q7 -54 -18 -122q-28 -73 -73 -97q17 30 23.5 78.5t-3.5 82.5q20 5 71 58zM250 1011q7 -53 -19 -122q-29 -73 -72 -97q17 30 22.5 78.5t-3.5 81.5q21 6 72 59z" />
<glyph unicode="#" horiz-adv-x="782" d="M441 691l-100 -204q59 -18 114 -22q35 87 97 255l59 -29l-110 -226q67 5 181 35l-75 -75q-82 -21 -139 -28l-20 -44l-21 -45q26 -3 52 -3q70 0 203 35l-75 -75q-123 -32 -191 -32h-22l-96 -235l-48 20l104 220q-40 5 -80 19q-16 5 -36 8l-110 -267l-48 20q52 105 117 249 q-120 0 -197 -39l80 80q53 26 149 29l36 81l1 1q-28 8 -69 8q-120 0 -197 -39l80 80q61 30 179 30q21 0 38 -2l85 224zM337 329q26 -9 52 -15l35 79h-8q-56 0 -113 15l-25 -55l-8 -15q42 -1 67 -9z" />
<glyph unicode="$" horiz-adv-x="602" d="M289 1032q-9 -48 -17 -97q24 3 44 3h8l9 110l76 -16l-18 -100q7 -1 13 -1h14q29 0 44 3q9 2 15 4q-32 -48 -43.5 -102.5t-6.5 -96.5h-9q0 28 -12 51t-32 41l-48 -296q34 -21 66 -44t56.5 -50t39 -58.5t14.5 -70.5q0 -61 -22.5 -103.5t-57 -70t-75.5 -42.5t-79 -21 q-6 -53 -12 -112l-62 7l16 100h-4h-31q-14 0 -27 1q-6 -51 -12 -108l-62 7l17 106q-11 1 -21 1.5t-19 0.5q-8 0 -17 -2l-16 -4q-9 -3 -18 -5q20 18 31 50q9 27 10.5 70.5t-16.5 109.5h16q0 -29 18.5 -57.5t48.5 -53.5l47 311q-28 19 -52 40t-42 46t-28 54.5t-10 64.5 q0 48 15 84t40 62.5t57.5 44t66.5 28.5l11 127zM296 117q23 0 47 4t44 16t33 34.5t13 60.5q0 28 -10 52t-27 45t-40 39.5t-49 35.5q-14 -111 -34 -286q5 -1 11 -1h12zM220 128l45 301q-17 11 -34.5 20.5t-34.5 20.5q-15 -109 -39 -316q32 -17 63 -26zM263 880l-46 -276 l33 -22l34 -21q2 18 5 36q11 79 28 268q-26 10 -54 15zM97 780q0 -45 21.5 -79.5t55.5 -63.5q11 85 25 247q-15 -2 -32.5 -8t-33 -18.5t-26 -31.5t-10.5 -46z" />
<glyph unicode="%" horiz-adv-x="974" d="M354 676q0 -96 -31 -188q-33 -95 -91 -154q-52 -53 -83 -53q-17 0 -51 23q-52 33 -78 134q-20 79 -20 172q0 138 43 250q54 137 154 137q90 0 127 -111q30 -82 30 -210zM298 610q0 116 -33 201q-41 114 -124 114q-49 0 -70 -106q-20 -75 -20 -156q0 -100 38 -188 q45 -107 115 -107q94 0 94 242zM874 389q0 -96 -32 -188q-32 -95 -90 -154q-51 -53 -83 -53q-17 0 -51 23q-51 33 -78 134q-21 79 -21 172q0 138 44 250q54 137 154 137q90 0 128 -111q29 -82 29 -210zM818 323q0 116 -33 201q-41 114 -124 114q-49 0 -70 -106 q-20 -75 -20 -156q0 -100 38 -188q45 -107 115 -107q94 0 94 242zM604 912l-162 -446q-46 -130 -147 -467l-48 26q77 209 183 527q35 106 116 398z" />
<glyph unicode="&#x26;" horiz-adv-x="959" d="M1223 1112q0 -75 -49.5 -151t-130 -148t-183 -138.5t-208.5 -123.5q0 -13 1 -50.5t6.5 -86.5t18 -102.5t35.5 -98t58.5 -73.5t87.5 -29q-18 -15 -36 -34t-37 -36t-40 -29t-43 -12q-26 0 -50 9.5t-43.5 27.5t-31 45t-11.5 62v20l-33 -36q-26 -27 -66.5 -55.5t-92.5 -50.5 t-112 -22q-53 0 -100.5 17.5t-83.5 51t-57.5 81.5t-21.5 109q0 54 17 95t45 71.5t62 52t69 35.5q53 23 88 32.5t58 9.5q28 0 52 -7t42.5 -17t32 -21t21.5 -19q16 6 33 15l35 18v35q0 251 -4.5 388t-18.5 165q34 0 69 16.5t72 41t75.5 53t79.5 53t84.5 41t90.5 16.5 q63 0 105.5 -18.5t68 -49t36 -70.5t10.5 -83zM703 1100q-8 -22 -14.5 -63t-11.5 -92t-9 -106t-6.5 -106t-4 -93t-1.5 -65q69 38 137 80t130 87t115.5 91t92.5 93t61.5 94t22.5 92q0 43 -10.5 81t-35.5 66t-65.5 44.5t-100.5 16.5q-65 0 -117 -25t-90 -59.5t-61.5 -72.5 t-31.5 -63zM212 491q-16 0 -30.5 -8.5t-25.5 -22.5t-17.5 -31.5t-6.5 -35.5q0 -16 0.5 -31.5t3.5 -30.5q6 6 27.5 12.5t52.5 20.5l111 51q-12 21 -29 38q-14 14 -35.5 26t-50.5 12zM567 164l-4 71q-2 34 -3.5 72.5t-3 86t-1.5 110.5q-14 -10 -29 -16.5t-31 -12.5h5l-9 -4 q-87 -42 -159 -73.5t-120 -50.5l-72 -30q9 -46 26.5 -82.5t46.5 -62t72.5 -39.5t103.5 -14q28 0 57.5 6.5t54 14.5t42.5 15t24 9z" />
<glyph unicode="'" horiz-adv-x="197" d="M90 1010q7 -54 -18 -121q-28 -73 -72 -97q17 29 23 77.5t-3 82.5q19 5 70 58z" />
<glyph unicode="(" horiz-adv-x="323" d="M12 485q-12 340 148 625q-75 -286 -75 -481q0 -35 3 -62q16 -181 135 -456l-97 -111q-32 87 -56 167q-54 192 -58 318z" />
<glyph unicode=")" horiz-adv-x="323" d="M211 515q12 -340 -148 -625q75 286 75 481q0 35 -3 62q-16 181 -135 456l97 111q32 -87 56 -167q54 -192 58 -318z" />
<glyph unicode="*" horiz-adv-x="438" d="M338 781l-100 -15l4 -101l-74 69l-76 -67l8 101l-100 17l83 58l-48 88l97 -29l39 93l38 -94l97 27l-50 -88z" />
<glyph unicode="+" horiz-adv-x="654" d="M554 306l-61 -72q-100 -31 -155 -31h-15v-106q1 -9 3 -19q1 -11 8 -17l19 -6q0 -2 -3 -5h-113l13 97l2 68q-15 5 -29 11q-24 10 -63 10q-97 0 -160 -38l65 77q50 29 145 29q25 0 43 -3l-1 68q0 6 -1 15l-2 38q-1 19 -20 33h42q26 0 45 3q17 2 17 3h5q-11 -77 -14 -180v-2 q33 -7 65 -7q57 0 165 34z" />
<glyph unicode="," horiz-adv-x="245" d="M145 40q-28 -21 -53 -46q-21 -21 -41.5 -47.5t-29.5 -54.5q7 20 14 38l13 30q6 16 12 24q-20 27 -40 42l-20 14q13 10 25 21q11 10 23 23t22 28q11 -17 24 -30.5t24 -22.5q13 -11 27 -19z" />
<glyph unicode="-" d="M415 351l-43 -75q-70 -32 -109 -32q-40 0 -81 24q-17 10 -44 10q-69 0 -113 -39l46 80q35 30 102 30q29 0 45 -9q42 -24 81 -24q40 0 116 35z" />
<glyph unicode="." horiz-adv-x="245" d="M145 41l-26 -21l-25 -23q-13 -13 -24 -27q-11 18 -23 31t-23 22q-12 11 -24 18q13 10 25 21q11 10 23 23t22 28q11 -17 24 -30.5t24 -22.5q13 -11 27 -19z" />
<glyph unicode="/" horiz-adv-x="541" d="M441 912l-200 -446q-57 -130 -182 -467l-59 26q95 209 226 527q43 106 143 398z" />
<glyph unicode="0" horiz-adv-x="684" d="M584 521q0 -128 -52 -250q-53 -127 -149 -205q-84 -71 -136 -71q-28 0 -84 31q-86 44 -128 178q-35 105 -35 229q0 184 72 334q90 183 254 183q147 0 210 -148q48 -110 48 -281zM492 433q0 155 -54 269q-68 151 -204 151q-80 0 -117 -141q-31 -100 -31 -208 q0 -133 62 -251q74 -142 190 -142q154 0 154 322z" />
<glyph unicode="1" horiz-adv-x="368" d="M268 54q-27 -41 -56 -57q-13 -6 -76 -37q20 192 20 278v466q0 152 -42 152q-3 0 -52 -24.5t-62 -27.5q47 54 268 176v-926z" />
<glyph unicode="2" horiz-adv-x="658" d="M558 115q-9 -28 -50 -71q-41 -50 -59 -50l-449 3q172 203 234 296q146 214 146 374q0 88 -43 143t-107 55q-55 0 -85 -33q-44 -46 -63 -57q32 78 105 140.5t133 62.5q68 0 109 -60t41 -157q0 -141 -70 -276q-32 -60 -139 -203q-81 -105 -93 -174z" />
<glyph unicode="3" horiz-adv-x="546" d="M446 295q0 -194 -215 -286q-81 -37 -104 -37q-16 0 -66 29t-61 45q38 46 79 55q116 -49 158 -49q36 0 79 55t43 102q0 186 -134 252q-6 2 -119 48l139 95q23 17 36 65q14 41 14 77q0 158 -136 158q-45 0 -70 -20q-56 -39 -60 -42q34 61 109 106q71 37 131 37 q48 0 86.5 -55t38.5 -123q0 -65 -36 -114q-21 -29 -69 -70q-39 -32 -41 -51q13 -11 59 -28q63 -29 101 -92.5t38 -156.5z" />
<glyph unicode="4" horiz-adv-x="759" d="M659 312q-47 -57 -97 -74q-33 -13 -111 -13v-72l1 -73q0 -57 -14 -73l-51 -38h-28v256q-151 0 -333 17q-10 0 -26 -19v32q12 54 64 138l74 124l136 276q84 160 184 199v-656q0 -27 13 -32q7 -3 33 -3q53 0 155 11zM359 319v483l-256 -463h7v-19q13 13 22 13q13 0 45 -5 q27 -6 46 -6z" />
<glyph unicode="5" horiz-adv-x="627" d="M527 948q-17 -26 -47.5 -48.5t-54.5 -22.5h-157q-20 20 -35 20q-5 0 -13 -3q-11 -36 -27 -123q-17 -94 -17 -120q0 -17 80 -39q97 -27 159 -92q77 -81 77 -203q0 -146 -158 -278q-69 -66 -114 -66h-129q-34 0 -91 66q36 18 87 57q69 -55 93 -52l117 19q58 16 83 64 q20 44 20 135q0 121 -66 188q-45 51 -141 79q-50 16 -111 42q30 61 40 163q1 52 9 178q66 64 130 64q37 0 107.5 -10t105.5 -10q28 0 53 23v-31z" />
<glyph unicode="6" horiz-adv-x="633" d="M533 306q0 -113 -92 -214.5t-199 -101.5q-110 0 -180 108q-62 95 -62 216q0 33 25 158q27 151 129 291t235 197l-100 -91q-194 -171 -194 -480q0 -127 56 -218q66 -105 181 -105q55 0 83 64q21 49 21 112q0 99 -56 170q-59 78 -149 78q-11 0 -118 -65q127 125 219 125 q93 0 150 -75q51 -68 51 -169z" />
<glyph unicode="7" horiz-adv-x="706" d="M606 961q-105 -206 -259 -476q-205 -368 -268 -434q-22 -25 -79 -56l256 438q140 242 234 448q-35 7 -209 7q-186 0 -223 -23v34q84 67 102 67h310q24 0 68.5 -2.5t67.5 -2.5z" />
<glyph unicode="8" horiz-adv-x="602" d="M502 281q0 -99 -93.5 -192.5t-189.5 -93.5q-97 0 -158 66t-61 167q0 81 66 151q62 66 137 90q-71 -62 -81 -76q-32 -42 -32 -103q0 -94 61 -159t149 -65q96 0 96 149q0 118 -92 196q-25 25 -83 68t-86 68q-89 78 -89 193q0 83 84.5 156.5t162.5 73.5q70 0 127 -58.5 t57 -133.5q0 -61 -56 -122q-48 -52 -109 -79q73 119 73 156q0 64 -54.5 117t-116.5 53q-72 0 -72 -117q0 -34 18 -75q17 -35 106 -112q114 -93 157 -140q79 -93 79 -178z" />
<glyph unicode="9" horiz-adv-x="611" d="M511 683q0 -182 -153 -404q-134 -197 -299 -311v29q187 150 315 410v19l-90 -50q-60 -31 -94 -31q-79 0 -138 99q-52 85 -52 172q0 129 81 237q88 114 208 114q110 0 168 -89q54 -76 54 -195zM409 623q0 98 -47 179q-60 89 -148 89q-60 0 -96 -68q-31 -56 -31 -125 q0 -94 64 -178q68 -92 149 -92q74 0 97 63q12 38 12 132z" />
<glyph unicode=":" horiz-adv-x="278" d="M178 373q0 -6 -27 -24q-9 -7 -23 -17q-31 -21 -52 -21q-19 0 -33.5 45t-19.5 46q-3 0 -7 -1.5t-7 -2.5q-9 0 -9 9q0 8 35 27q14 8 44 22q7 3 19 5q21 0 31.5 -41t22.5 -42q4 0 8 2l8 2q9 0 10 -9zM178 81q0 -6 -5 -9l-46 -32q-33 -20 -48 -21q-22 -1 -36.5 44.5 t-19.5 46.5q-3 0 -7 -1.5t-7 -2.5q-9 0 -9 8t35 28q12 7 44 22q8 6 23 6q16 0 28 -42q9 -42 18 -42q8 0 12 2l8 2q9 0 10 -9z" />
<glyph unicode=";" horiz-adv-x="283" d="M183 371q0 -5 -27 -23q-9 -7 -23 -17q-29 -20 -49 -22q-24 0 -37 45.5t-16 45.5q-5 1 -9.5 -1t-7.5 -3q-9 0 -9 9t35 28q14 8 44 22q7 3 19 5q21 0 31.5 -41t22.5 -42q4 0 8 2l8 2q9 0 10 -10zM177 79l-127 -154q24 63 24 96q0 32 -11 59q-14 33 -26 33q-13 0 -19 -3 l-9 -2q-9 0 -9 7q0 9 45 35q42 24 63 25q54 2 69 -96z" />
<glyph unicode="&#x3c;" horiz-adv-x="396" d="M91 358q72 -41 117 -120l67 -153l-80 -50q-73 150 -77 156l-118 120q30 20 82 92l88 126l126 67q-6 -6 -93 -129q-57 -81 -112 -109z" />
<glyph unicode="=" d="M415 291l-43 -75q-70 -32 -109 -32q-40 0 -81 24q-17 10 -44 10q-69 0 -113 -39l46 80q35 30 102 30q29 0 45 -9q42 -24 81 -24q40 0 116 35zM415 421l-43 -75q-70 -32 -109 -32q-40 0 -81 24q-17 10 -44 10q-69 0 -113 -39l46 80q35 30 102 30q29 0 45 -9q42 -24 81 -24 q40 0 116 35z" />
<glyph unicode="&#x3e;" horiz-adv-x="404" d="M205 263q-72 41 -117 120l-67 153l88 50q65 -150 69 -156q44 -78 126 -120q-38 -20 -90 -92l-88 -126l-126 -67q6 6 93 129q57 81 112 109z" />
<glyph unicode="?" horiz-adv-x="516" d="M416 713q0 -83 -42.5 -185.5t-97.5 -149.5l-28 -23q-17 -17 -21 -30q-9 -29 -9 -59v-17q0 -33 -82 -70q-2 9 -16 16l-2 76q0 107 57 182q12 17 103 126q54 84 54 202q0 73 -12 106q-19 49 -70 49q-76 0 -128 -67t-52 -163q0 -61 23 -103q14 -24 63 -74q-57 20 -105 91 q-51 75 -51 146q0 105 49.5 170t132.5 65q80 0 157 -93.5t77 -194.5zM215 83q0 -33 -19 -64.5t-44 -31.5q-38 0 -38 64q0 39 14 68q17 34 46 34q6 0 24 -8q17 -29 17 -62z" />
<glyph unicode="@" horiz-adv-x="843" d="M529 609q5 -14 17 -45l26 -67l31 -75q16 -39 30 -68l4 4q55 87 55 201q0 163 -99 279q-85 99 -223 99q-137 0 -237 -93q-81 -122 -81 -303q0 -102 28 -194q29 -95 82 -159q42 -49 118 -84q82 -37 163 -37q96 0 163 54l-64 -75q-55 -45 -138 -45q-82 0 -167 40 q-81 36 -125 88q-54 64 -83 160q-29 94 -29 196q0 211 106 335l48 60q49 56 118 87.5t144 31.5q142 0 228 -103q46 -55 72.5 -140t26.5 -175q0 -177 -92 -249l-4 -4q12 -26 20 -28q-26 -17 -53 -40.5t-47 -49.5q-2 11 -12 39l-23 62l-28 69l-23 57q-16 -19 -40 -44.5 t-52 -48.5t-57.5 -39t-56.5 -16q-20 0 -40 6.5t-37 19t-27.5 30.5t-10.5 41q0 28 24 60t60 63.5t78 61.5l78 56q-26 39 -49 56.5t-51 17.5q-11 0 -28.5 -7.5t-35 -16.5t-30.5 -17t-16 -10q2 2 16 12l33 26q20 16 45 33l49 32q24 15 46 24.5t36 9.5q21 0 39 -21.5t32 -50.5 t25 -59t18 -47zM365 386q21 0 39.5 7t32.5 20t22 31t8 39q-8 13 -15.5 28.5t-13.5 29.5l-14 35q-6 16 -14 27q-18 -8 -44.5 -22.5t-51 -34t-42 -42.5t-17.5 -48q0 -14 8.5 -26.5t23.5 -22t35 -15.5t43 -6z" />
<glyph unicode="A" horiz-adv-x="776" d="M221 506h196l-107 396zM188 1001q18 -2 40 -3q19 -2 45 -2.5t58 -0.5t62.5 0.5t54.5 2.5q28 1 53 3v-6l-66 -11q47 -266 92 -475q19 -90 40 -176t41 -154t39 -111t35 -46l18 -4q8 -1 14 -3q7 -2 12 -4v-11q-17 2 -36 5q-17 2 -39 4t-47 2q-31 0 -52.5 -2t-35.5 -4l-26 -5 v11l32 11l-87 406h-225q0 2 -4 -27t-8.5 -73t-8 -96.5t-2.5 -98.5t7 -77.5t22 -34.5q20 -4 29 -6t12 -3q4 -1 1 -1v-11q-18 2 -39 5q-18 2 -41.5 4t-50.5 2q-25 0 -48 -2t-40 -4q-21 -3 -39 -5v11l49 11q82 267 139 477l46 176q21 86 33.5 154t14.5 110.5t-13 44.5 q-29 2 -45 4t-24 4q-10 2 -12 3v6z" />
<glyph unicode="B" horiz-adv-x="693" d="M0 1000q25 -2 50 -3q21 -1 43.5 -1.5t39.5 -0.5q18 0 40 1t45 1.5t46.5 1.5t43.5 1q38 0 72.5 -15.5t61 -44t42 -68t15.5 -87.5q0 -29 -8.5 -53t-22.5 -44t-32 -36t-36 -28q-43 -29 -98 -46q81 -11 145 -46q27 -15 53.5 -37t47 -52.5t33 -70.5t12.5 -92 q0 -60 -23.5 -111.5t-62.5 -89t-88.5 -58.5t-101.5 -21q-43 0 -73.5 2t-53 4t-39 4t-31.5 2q-25 0 -41.5 -2t-26.5 -4q-12 -3 -19 -6v12l33 9q6 47 11 116q4 59 7.5 148t3.5 214q0 40 -1.5 91t-4 104t-6 104.5t-8.5 92t-11 65.5t-13 26q-12 2 -20.5 4.5t-13.5 4.5 q-6 2 -10 4v5zM181 597q0 -57 1 -119.5t3 -126t5 -125.5t7 -118q14 -45 46 -66t70 -21q37 0 63.5 24t42.5 62.5t23.5 88t7.5 100.5q0 95 -24.5 150t-61 83t-78.5 35.5t-77 7.5q49 4 79.5 20.5t46.5 45t21.5 69t5.5 93.5q0 36 -12 72.5t-33.5 63.5t-52 41t-67.5 5 q-8 -78 -12 -172.5t-4 -212.5z" />
<glyph unicode="C" horiz-adv-x="604" d="M0 468q0 129 29.5 228.5t79.5 167t115.5 102t137.5 34.5l93 -6q27 0 36 3q5 1 8 3h5q-8 -21 -15 -42.5t-13 -45.5t-10 -52t-6 -63h-11q0 19 -9 46t-29 52t-54 42.5t-83 17.5q-83 0 -121 -99t-38 -289q0 -51 6.5 -107.5t20 -112t34 -106t48.5 -89t63.5 -61.5t79.5 -23 q37 0 60.5 10.5t37.5 24.5q16 16 23 36l11 -11q-17 -36 -47 -63q-26 -24 -66.5 -43.5t-100.5 -19.5q-27 0 -59 8t-63.5 28.5t-61 54.5t-52 86t-36 123t-13.5 166z" />
<glyph unicode="D" horiz-adv-x="791" d="M308 17q46 0 81.5 22.5t62.5 61t46 89t31 106.5t17.5 113.5t5.5 110.5q0 80 -22 162.5t-60 149.5t-89.5 109.5t-111.5 42.5q-26 0 -45.5 -5.5t-32.5 -19.5q-5 -33 -7.5 -73t-4.5 -88.5t-2.5 -107.5t-0.5 -131q0 -51 1.5 -111t3.5 -121.5t5 -121t5 -110.5q25 -78 117 -78z M81 617q0 67 -3 132.5t-7.5 117t-10 84t-11.5 33.5l-46 10v10q17 -3 36 -5q17 -2 37.5 -3.5t43.5 -1.5q18 0 36.5 1.5t39 3.5t44 3.5t53.5 1.5q86 0 159 -34.5t126 -97.5t83 -151.5t30 -196.5q0 -104 -18 -183t-48 -137.5t-69.5 -97t-81 -62t-83 -33.5t-76.5 -10 q-49 0 -101 4.5t-97 4.5q-26 0 -47 -2t-37 -4q-18 -3 -33 -6v12l52 7q8 65 14 155q5 77 10 188t5 257z" />
<glyph unicode="E" horiz-adv-x="634" d="M107 574q0 82 -7 155.5t-15 129.5q-10 65 -21 120l-64 6v14q24 -3 59 -5q29 -2 74 -3.5t105 -1.5q63 0 124 2.5t134 7.5q-17 -32 -30 -82t-15 -98q-10 40 -33.5 70t-56.5 49t-72.5 28.5t-80.5 9.5q-6 -62 -7.5 -134t-1.5 -135q0 -73 3 -146q44 1 89 7q38 5 82.5 16 t83.5 31q-5 -33 -6.5 -64t-1.5 -55q0 -28 2 -54l-10 4q1 31 -21 49t-57 27.5t-78 11.5t-83 1q-2 -30 -2.5 -65.5t0 -72t1.5 -73.5t3 -71l8 -162q82 -8 149 -4q28 1 56.5 5t52 11.5t40 19t21.5 29.5l3 -6l-22 -59q-9 -24 -17 -49l-12 -37q-92 0 -173 6t-165 6q-31 0 -53.5 -2 t-37.5 -4q-18 -3 -31 -6v12l58 8q7 108 13 210q2 43 4.5 90t4.5 92t3 86.5t1 74.5z" />
<glyph unicode="F" horiz-adv-x="596" d="M106 572q0 84 -6.5 158t-14.5 130q-9 65 -20 120l-65 9v10q24 -2 59 -4q58 -3 180 -3q61 0 123 3t134 8q-15 -35 -28 -83.5t-15 -98.5q-9 42 -33 72t-56.5 49.5t-72 28.5t-80.5 9q-8 -63 -10 -135.5t-1 -136.5q1 -75 4 -149q44 1 89 7q38 5 83 17t84 34q-5 -33 -6.5 -64 t-1.5 -56q0 -29 1 -54l-9 3q1 31 -21.5 49.5t-57.5 28t-78 11.5t-83 1q-2 -30 -2.5 -68.5t0.5 -80.5l2 -85q1 -44 3 -85q4 -96 10 -199l68 -9v-7q-15 1 -35 3q-18 2 -44.5 3t-62.5 1q-29 0 -52 -1.5t-38 -3.5l-31 -5v13l59 6q7 108 12 211q2 44 4.5 90.5t4.5 91.5t3 86.5 t1 74.5z" />
<glyph unicode="G" horiz-adv-x="751" d="M0 467q0 120 27 218.5t76.5 168.5t119 108.5t154.5 38.5q57 0 99 -6.5t71 -14.5q33 -9 56 -20l26 41l6 -3q-38 -58 -55 -126.5t-19 -155.5h-10q3 73 -18 130q-9 24 -24.5 47.5t-39.5 42t-58 29.5t-80 11q-43 0 -75 -23t-54.5 -60.5t-37 -87t-23 -102t-11.5 -105.5t-3 -98 q0 -94 18 -180.5t51 -152.5t79 -105.5t102 -39.5q48 0 78.5 26.5t47.5 63.5t23 75t6 62q0 51 -11.5 90.5t-30.5 66.5t-44 40.5t-53 13.5q-27 0 -47.5 -8t-34.5 -18q-17 -11 -28 -26q12 21 36 39q20 14 53.5 26.5t84.5 12.5q60 0 97.5 -20t59 -51t29.5 -68.5t8 -71.5 q0 -77 -25.5 -129.5t-66.5 -84.5t-92 -46.5t-101 -14.5q-111 0 -182 40.5t-112 106.5t-56.5 150t-15.5 170z" />
<glyph unicode="H" horiz-adv-x="815" d="M90 546q0 79 -5.5 156.5t-12.5 139.5q-8 72 -17 138l-49 9v10q12 -3 29 -5q14 -2 34 -3.5t44 -1.5q33 0 60 1.5t47 3.5q23 2 42 5v-10l-61 -9q-4 -22 -7 -75q-2 -45 -4 -126.5t-2 -215.5h346q0 106 -3 184t-7 130q-4 61 -10 103l-55 9v10q16 -3 35 -5q17 -2 40 -3.5 t52 -1.5q26 0 49 1.5t41 3.5q21 2 39 5v-10l-65 -9q-6 -57 -10 -128q-4 -61 -7 -145t-3 -186q0 -140 4 -235.5t9 -155.5q6 -70 14 -114l48 -6v-10q-14 2 -32 5q-16 2 -37.5 3.5t-49.5 1.5q-31 0 -54 -1.5t-40 -3.5q-19 -3 -33 -5v10l46 6q8 60 14 134q5 63 10 150.5t5 193.5 h-346q0 -103 2 -190.5t4 -151.5q3 -75 7 -136l64 -6v-10q-17 2 -38 5q-18 2 -42.5 3.5t-52.5 1.5q-29 0 -52.5 -1.5t-40.5 -3.5q-20 -3 -36 -5l-3 6l62 10q8 61 14 141q5 69 9.5 166.5t4.5 222.5z" />
<glyph unicode="I" horiz-adv-x="368" d="M85 576q0 77 -5 149.5t-10 129.5q-7 67 -15 126l-55 9v10q16 -3 36 -5q17 -2 40.5 -3.5t52.5 -1.5q32 0 55.5 1.5t39.5 3.5q18 2 31 5v-10l-51 -9q-6 -54 -10 -117q-4 -54 -6.5 -125t-2.5 -150q0 -101 4.5 -202t9.5 -183q6 -96 15 -184l54 -10v-9q-16 2 -37 4 q-18 2 -43.5 3.5t-58.5 1.5t-56.5 -1.5t-38.5 -3.5q-18 -2 -28 -4v10l43 6q10 67 18 153q7 74 12.5 176.5t5.5 229.5z" />
<glyph unicode="J" horiz-adv-x="428" d="M85 -113q18 32 30 80.5t19.5 106t11.5 120t6 123t2 114.5v94q0 118 -5.5 203t-12.5 142q-8 66 -18 110l-63 9v10q18 -3 39 -5q18 -2 41.5 -3.5t51.5 -1.5q38 0 64.5 1.5t43.5 3.5q20 2 33 5v-10l-37 -13q-10 -50 -17 -120q-7 -60 -12 -146t-5 -199q0 -27 -0.5 -68 t-1.5 -88.5t-1.5 -98.5t-0.5 -97.5t1 -86t3 -63.5q-20 -6 -47 -19t-54 -48l-52 -57q-28 -31 -62.5 -57t-77 -43.5t-95.5 -17.5q-23 0 -44.5 7.5t-38.5 16.5q-20 11 -38 24l6 8q17 -13 35 -23q16 -8 34.5 -15t38.5 -7q31 0 64 7t63 21t55 34.5t41 46.5z" />
<glyph unicode="K" horiz-adv-x="785" d="M479 311l79 -135q39 -66 76.5 -117t74 -82.5t71.5 -31.5l-3 -7q-9 -2 -23.5 3t-30.5 14t-33 20l-29 19q-14 11 -35 20l-46 20q-24 11 -47 24t-40 30q-15 15 -37 47l-50 73l-56 86l-56 88l-50 80l-40 60q-2 -2 -5 -4l-8 -7v-28q0 -111 3 -197.5t7 -146.5q4 -70 10 -123 l62 -6v-10q-16 2 -37 5q-18 2 -43 3.5t-57 1.5q-33 0 -58.5 -1.5t-42.5 -3.5q-20 -3 -35 -5v7l62 9q9 68 17 153q7 73 12.5 172.5t5.5 220.5q0 98 -4 176t-9 132q-5 63 -12 112l-62 9v10q17 -3 37 -5q17 -2 40.5 -3.5t51.5 -1.5q32 0 57 1.5t44 3.5q21 2 39 5v-10l-59 -9 q-6 -59 -11 -129q-5 -60 -9 -140.5t-5 -171.5q22 17 48.5 46.5t55 66t57.5 79t55 86t48 85t37 77.5l-40 10v9q11 -3 26 -5q13 -2 32.5 -3t45.5 -1q32 0 54.5 1t37.5 3q18 2 30 5v-9l-49 -10q-38 -28 -78 -70t-82 -91l-85 -102q-43 -52 -87 -100q42 -65 88 -144t90 -163z" />
<glyph unicode="L" horiz-adv-x="621" d="M78 507q0 142 -3 233.5t-6 144.5q-4 62 -8 94l-61 10v10q15 -3 33 -5q16 -2 39 -3.5t53 -1.5q37 0 66 1.5t49 3.5q24 2 41 5v-10l-54 -10q-12 -61 -21 -132q-8 -61 -14.5 -142t-6.5 -172q0 -130 2 -217t4 -141q3 -63 7 -100q64 0 121 4q24 1 49.5 3t48.5 5t42.5 6t32.5 8 l19 73l10 -3l-16 -62q-7 -26 -14 -56t-12 -54q-37 6 -76.5 7.5t-79 1.5t-78 -1.5t-73.5 -1.5q-47 0 -78 -1t-51 -2q-23 -2 -37 -3v6l43 10q8 32 14 96q5 55 10 150.5t5 245.5z" />
<glyph unicode="M" horiz-adv-x="927" d="M827 2l-30 5q-15 2 -37 3.5t-50 1.5q-29 0 -51 -1.5t-36 -3.5l-29 -5v10l39 6q0 111 -2 239q-2 110 -6 253t-11 303q-11 -53 -29.5 -134.5t-47 -185t-67 -224t-88.5 -251.5q-18 38 -38 94l-42 122l-42 140l-42 147l-41 143l-37 127q-3 -58 -3.5 -122.5t0.5 -129.5t3 -129 l4 -122q5 -136 14 -270l62 -6v-13q-16 3 -34 6l-35 5q-20 2 -41 2q-27 0 -47.5 -1.5t-34.5 -3.5l-28 -5v10l48 6q11 39 24 140q6 43 12 104t13 143.5t14 188t15 239.5q-23 66 -38.5 106t-25.5 43q-22 4 -27 7q-4 1 -5 2v9q14 -3 29 -5q13 -2 28 -3t29 -1t33 1t36 3 q19 2 39 5q6 -42 17.5 -99.5t26.5 -122.5l34 -132l34 -134q40 -153 88 -319l61 228l60 231l65 261q-2 23 -3 44.5t-4 42.5q6 -3 17 -5q9 -2 23.5 -3t34.5 -1q24 0 44.5 1t34.5 3q17 2 31 5v-9l-48 -9q-6 -49 -7 -116.5t1 -144.5t6.5 -159t9.5 -160q12 -183 32 -384l45 -9v-7 z" />
<glyph unicode="N" horiz-adv-x="884" d="M717 982q-8 -42 -13 -105.5t-9 -139.5t-6 -158.5t-3 -162.5q-3 -187 -2 -399l-154 213l-141 212l-125 194l-105 161q2 -61 7 -140l10 -161q6 -83 13 -164t14.5 -147.5t15.5 -111.5t15 -56l65 -10l3 -7q-18 2 -39 5q-18 2 -42 3.5t-52 1.5q-32 0 -56 -1.5t-41 -3.5 q-19 -3 -33 -5v10l52 7q9 14 15.5 64t11 122t7 159.5t3 176t-1 171.5t-3.5 146q-38 54 -62.5 85.5t-34.5 31.5h-22l-4 9q35 1 70 4q30 2 64 5.5t61 10.5q16 -41 45 -94l62 -114l74 -122l77 -121l192 -288q-1 163 -7 306q-3 61 -7 123t-9.5 117.5t-13.5 100.5t-18 72l-77 10 l-3 10q19 -3 40 -5q18 -2 41 -3.5t48 -1.5q28 0 53.5 1.5t45.5 3.5q23 2 43 5l3 -10z" />
<glyph unicode="O" horiz-adv-x="792" d="M362 26q57 0 94 36t58.5 100t30 150.5t8.5 188.5q0 39 -5.5 89.5t-16.5 103t-29 103t-43.5 90t-58.5 64t-75 24.5q-49 0 -84.5 -40t-59 -106.5t-34.5 -153.5t-11 -180q0 -36 4.5 -85t15 -101t27.5 -103t42 -91t59 -64.5t78 -24.5zM0 476q0 111 29 207t77 166.5t110 110.5 t128 40q79 0 143.5 -38t110 -103t70 -152t24.5 -186q0 -131 -27.5 -228.5t-75 -162.5t-110 -97.5t-132.5 -32.5q-74 0 -128.5 21.5t-93 58t-63 84.5t-38.5 100.5t-19 107t-5 104.5z" />
<glyph unicode="P" horiz-adv-x="621" d="M97 535q0 79 -5 157.5t-12 141.5t-16 103t-16 41l-18 4q-8 1 -15 3q-8 2 -15 3v9q12 -3 28 -5q14 -2 33.5 -3t45.5 -1q56 0 108.5 4.5t110.5 4.5q40 0 83 -12.5t79 -43t59.5 -80.5t23.5 -125q0 -60 -14 -105.5t-36.5 -79t-51 -56t-58.5 -37.5q-70 -34 -159 -38 q51 -6 91 25q17 13 33.5 35t29.5 56.5t21 83.5t8 116q0 54 -14 99t-36.5 76.5t-52 49t-60.5 17.5q-20 0 -32.5 -4.5t-20.5 -15.5q-11 -65 -13 -174.5t-2 -277.5q0 -134 5 -226t12 -150q8 -68 18 -110l74 -14v-6q-19 1 -41 3q-19 1 -45 2t-56 1q-37 0 -64 -1t-46 -2 q-22 -2 -38 -3v6q7 1 16 4l17 4l21 6q10 1 14 45t5.5 116t1 164t-0.5 190z" />
<glyph unicode="Q" horiz-adv-x="791" d="M1044 -103q-27 -12 -59 -22q-27 -8 -61.5 -14.5t-72.5 -6.5q-34 0 -81.5 7t-106 24.5t-126.5 45.5t-142 70q-12 0 -25 -2t-27 -2q-73 0 -127 21.5t-92.5 58t-62.5 84.5t-37.5 101t-18.5 107.5t-5 103.5q0 111 28.5 207.5t76 168t108.5 112t127 40.5q80 0 145 -38.5 t110.5 -104t70 -152.5t24.5 -184q0 -89 -12.5 -162t-35.5 -132t-55 -103.5t-71 -74.5q25 0 64 -15q13 -4 37 -15l55 -24l64 -29l66 -29q33 -14 62 -24t49 -13q24 -5 47 -6.5t42 -0.5q22 1 42 3zM132 497q0 -37 4.5 -87t15 -102t27.5 -103t42.5 -91t59.5 -64.5t78 -24.5 q57 0 94.5 36.5t59 100t30 150.5t8.5 188q0 38 -5 88t-16.5 102.5t-29.5 103t-43.5 90t-59 63.5t-76.5 24q-48 0 -83.5 -39.5t-59 -105.5t-35 -151.5t-11.5 -177.5z" />
<glyph unicode="R" horiz-adv-x="754" d="M203 462q-1 -3 5 -6q5 -2 17.5 -4t38.5 -2q64 0 101.5 25t57.5 63t26 84.5t6 88.5q0 70 -17 121t-43.5 83.5t-57.5 48t-58 15.5q-24 0 -37 -4t-20 -9q-8 -5 -9 -12q-4 -59 -6 -123t-3 -127.5t-1 -125.5v-116zM106 531q0 44 -2 93.5t-5 99t-7 95.5t-9 81t-10 56.5t-9 22.5 q-10 2 -20.5 3.5t-20.5 3.5l-23 4v9q18 -3 39 -5q18 -2 41.5 -3t49.5 -1q25 0 46 2l42 2q22 2 49.5 3.5t66.5 1.5q61 0 110 -23.5t83.5 -61t52.5 -83t18 -90.5q0 -42 -10 -76.5t-26 -62t-37 -49t-42 -37.5q-51 -38 -115 -57q53 0 92.5 -33t70.5 -82.5t57.5 -108t53 -109.5 t57 -86.5t71.5 -39.5q-65 0 -110.5 9.5t-77 27t-53 42t-38.5 54t-33 63t-38 69.5l-55 93q-20 35 -39.5 53t-46.5 23.5t-76 5.5q0 -63 5 -137t11 -137q7 -74 17 -147l68 -9v-10l-40 5q-18 2 -42.5 3.5t-51.5 1.5q-36 0 -63 -1.5t-45 -3.5l-35 -5v7q9 2 19 4q8 2 18 4l21 4 q16 2 18.5 126t2.5 386z" />
<glyph unicode="S" horiz-adv-x="617" d="M23 727q0 79 31.5 131.5t77.5 83.5t99 44t95 13q34 0 55.5 -4.5t48.5 -4.5q15 0 26.5 1t19.5 3q9 2 15 5q-32 -56 -44.5 -118t-7.5 -111h-9q0 39 -17.5 70t-47 52.5t-68 33.5t-81.5 12q-14 0 -34 -6t-38 -20t-31 -37t-13 -57q0 -45 18 -81.5t47 -68t67 -58.5l76 -54 q40 -27 77.5 -55.5t66.5 -61.5t47 -72t18 -88q0 -57 -16 -100t-41.5 -74t-58 -51t-66.5 -32t-66 -16.5t-56 -4.5q-30 0 -53.5 1.5t-42.5 3.5l-35 4q-15 1 -30 1q-8 0 -17 -2.5t-17 -4.5q-10 -3 -18 -6q21 21 32 57q10 31 11.5 81.5t-17.5 125.5h16q0 -36 23 -72.5 t60.5 -66.5t84.5 -48.5t94 -18.5q24 0 49 4.5t45.5 18t33.5 39.5t13 70t-18 79.5t-48 65t-67 55.5l-78 52q-40 26 -77.5 54t-67.5 62t-48 76t-18 95z" />
<glyph unicode="T" horiz-adv-x="635" d="M266 580q0 74 -2.5 131t-5.5 96q-4 46 -8 80q-63 0 -103 -1.5t-66 -9.5t-42.5 -25.5t-32.5 -50.5l-6 2q17 28 30 63t21 66q10 36 17 73l11 -3l-3 -16q138 0 238.5 -5t167.5 -6.5t102.5 4t44.5 26.5l6 -3q-12 -19 -23 -46q-10 -23 -21 -58.5t-21 -84.5h-7q4 22 0.5 37.5 t-23 24.5t-59 12.5t-108.5 0.5q-2 -45 -4 -98q-2 -45 -2.5 -103t-0.5 -121q0 -110 5 -209t11 -174q7 -88 17 -164l65 -9l3 -10q-16 1 -36 3q-17 1 -41 2t-53 1q-38 0 -67 -1t-49 -2q-23 -2 -40 -3v6l69 13q4 63 8 147q3 72 5.5 176t2.5 239z" />
<glyph unicode="U" horiz-adv-x="834" d="M734 9q-26 6 -54 7t-54 -1t-48.5 -6t-37.5 -9q2 18 4 42q2 20 3 49t2 64q-12 -21 -33 -47.5t-53 -50.5t-74.5 -40.5t-97.5 -16.5q-89 0 -131.5 34.5t-58 103t-13.5 171.5t2 240q0 93 -4 171t-9 136q-5 68 -12 123l-62 9l-3 11q17 -3 38 -6q18 -2 43.5 -3.5t57.5 -1.5 q33 0 57 1.5t40 3.5q18 3 32 6v-11l-54 -9q-10 -79 -17 -161l-6 -74q-3 -38 -5 -77.5t-3.5 -78.5t-1.5 -75q0 -55 -0.5 -107.5t4 -99.5t16.5 -86.5t36 -68.5t63 -45t98 -16q40 0 66 10.5t43 28t27.5 39.5t18.5 45q5 88 8.5 193.5t3.5 207.5q0 106 -5 176t-11 112 q-7 49 -15 77l-75 9v11q17 -3 36 -6q17 -2 39.5 -3.5t48.5 -1.5q35 0 58.5 1.5t37.5 3.5q17 3 26 6v-11l-29 -9q-9 -60 -15 -139q-6 -68 -10.5 -165.5t-4.5 -222.5q0 -75 -0.5 -143.5t1.5 -124.5t8 -96t18 -57l61 -12v-10z" />
<glyph unicode="V" horiz-adv-x="725" d="M0 991v9q12 -3 29 -5q14 -2 36 -3t51 -1q34 0 59.5 1t42.5 3q20 2 35 5v-9l-47 -10q-2 -15 2.5 -50.5t14 -84.5t23.5 -109l28 -123q16 -64 34 -128l34 -124q17 -59 33 -109t30 -84q17 50 36 120.5t36.5 149t33.5 160.5t27.5 155t18 132.5t5.5 94.5l-52 10v9q15 -3 33 -5 q15 -2 34 -3t39 -1q29 0 49 1t34 3q16 2 26 5v-9l-32 -10l-133 -416l-55 -168l-55 -161l-48 -138q-23 -62 -39 -99q-16 33 -36 91l-43 131l-46 156l-48 165l-46 158l-42 136q-20 60 -35 99t-25 46z" />
<glyph unicode="W" horiz-adv-x="1029" d="M900 989q34 0 58 1.5t40 3.5q18 2 31 5v-10l-39 -10q-11 -24 -24.5 -70t-29.5 -107l-32 -132l-35 -148l-37 -151l-36 -145q-19 -69 -37.5 -127.5t-36.5 -99.5q-27 61 -54 146t-52.5 180.5t-48.5 192.5l-42 184l-25 -106l-32 -133l-36 -144l-36 -137q-17 -63 -32.5 -111 t-25.5 -69q-10 16 -24.5 61.5t-32.5 110.5l-39 144l-42 162l-42 164l-42 148q-20 68 -37.5 118.5t-30.5 72.5l-48 6v10q14 -3 32 -5q16 -2 38.5 -3.5t51.5 -1.5q33 0 60 1.5t47 3.5q23 2 42 5v-10l-64 -10q0 -14 5 -47.5t14 -80l21 -103.5l25 -116l28 -119l28 -113 q14 -53 26.5 -96t22.5 -70q8 11 19.5 47t24.5 86t26 109l25 114l22 105l15 78q-19 83 -34 138.5t-27 67.5l-38 10v10q11 -3 27 -5q14 -2 34 -3.5t48 -1.5q29 0 51.5 1.5t38.5 3.5q18 2 33 5v-10l-46 -10q-1 -30 4.5 -76.5t14.5 -102t21.5 -118t26.5 -124.5l29 -120 q14 -59 27.5 -107.5t25 -83.5t19.5 -51q9 38 20.5 104.5t23.5 145t22.5 162.5t17.5 158t8 131t-5 82l-64 10v10q18 -3 37 -5q17 -2 36.5 -3.5t39.5 -1.5z" />
<glyph unicode="X" horiz-adv-x="876" d="M776 0l-34 5q-17 2 -42.5 4t-59.5 2q-30 0 -56 -2t-45 -4q-23 -3 -41 -5v11l58 8l-66 144l-66 140l-72 150q-39 -76 -72 -153t-57 -140l-52 -141l66 -12v-7l-120 7l-117 -7v7l58 12l89 147l89 149l100 171l-10 22q-4 10 -10 20l-147 294l-79 158l-61 11v9q17 -3 36 -5 q17 -2 38.5 -3t45.5 -1q38 0 65 1t46 3q21 2 37 5v-9l-48 -11q12 -38 33 -93q18 -47 47 -116l71 -163q37 70 66 136.5t49 119.5q24 62 41 116l-75 11v9q18 -3 38 -5q17 -2 38 -3t41 -1q28 0 49.5 1t36.5 3q18 2 30 5v-7l-44 -13l-83 -133l-81 -133l-86 -145 q53 -109 108 -209l99 -175l103 -166l46 -8v-11z" />
<glyph unicode="Y" horiz-adv-x="777" d="M328 488l-34 60l-42 74l-46 82l-45 81l-109 196l-52 10v9q15 -3 33 -5q16 -2 38 -3t49 -1q32 0 58 1t46 3q23 2 42 5v-9l-62 -10l77 -162l35 -71l37 -72l38 -70q19 -35 37 -63q15 31 29 67l27 72l24 74l21 69q23 77 42 156l-68 10v9q19 -3 37 -5q16 -2 34 -3t33 -1 q32 0 54 1t37 3q17 2 29 5v-9l-39 -10l-71 -137l-74 -148l-89 -179q-8 -131 -6 -225.5t7 -156.5q5 -72 15 -121l65 -10v-6q-20 1 -43 3q-20 1 -46.5 2t-56.5 1q-27 0 -51.5 -1t-43.5 -2q-22 -2 -41 -3v9l72 7q7 80 11 162q3 70 2.5 153t-10.5 159z" />
<glyph unicode="Z" horiz-adv-x="600" d="M268 542l52 128l40 112q20 57 36 108q-24 -2 -60 -2h-78q-41 0 -82 -1t-75.5 -5t-57.5 -13t-27 -24l-3 -48h-13l8 80q2 32 3.5 66.5t-2.5 56.5q2 -5 35.5 -8.5t82.5 -5t108 -2t112.5 1t95 5t57.5 9.5q-14 -27 -36 -80l-51 -120l-59 -144l-62 -153l-154 -389q76 -3 143 -3 q28 0 57 1t54.5 3t46 5.5t32.5 9.5l6 45h9l-18 -174q-15 5 -45.5 7.5t-70 3t-85 0t-92 -1.5t-90 -3t-79.5 -3q46 55 108 189z" />
<glyph unicode="[" horiz-adv-x="416" d="M316 -13l-70 -57q-22 0 -64.5 5.5t-63.5 5.5q-24 0 -44 -6l-6 -13l-68 -53q13 99 13 243q0 93 -6.5 282t-6.5 282q0 60 1 178l1 179l65 52q43 -23 96 -23q34 0 53 11q10 7 48 39q-4 -7 -4 -12q0 -7 2.5 -5.5t2.5 -5.5q0 -2 -1 -2q-56 -50 -78 -62q-33 -20 -74 -20 q-18 0 -44 3v-46v-96v-143q0 -93 6.5 -283t6.5 -284q0 -119 -11 -207q38 30 54 38q22 11 57 11q23 0 68 -5.5t67 -5.5z" />
<glyph unicode="\" horiz-adv-x="564" d="M76 1000q105 -307 150 -419q138 -335 238 -555l-62 -27q-132 355 -192 492l-210 469z" />
<glyph unicode="]" horiz-adv-x="416" d="M0 994l70 57q22 0 64.5 -5.5t63.5 -5.5q24 0 44 6l6 13l68 53q-13 -99 -13 -243q0 -93 6.5 -282t6.5 -282q0 -60 -1 -178l-1 -179l-65 -52q-43 23 -96 23q-34 0 -53 -11q-10 -7 -48 -39q4 7 4 12q0 7 -2.5 5.5t-2.5 5.5q0 2 1 2q56 50 78 62q33 20 74 20q18 0 44 -3v46 v96v143q0 93 -6.5 283t-6.5 284q0 119 11 207q-38 -30 -54 -38q-22 -11 -57 -11q-23 0 -68 5.5t-67 5.5z" />
<glyph unicode="^" horiz-adv-x="481" d="M159 705q-19 -34 -73 -70q-82 -54 -86 -58l45 79l84 55q48 32 68 71q28 -51 80 -79q4 -2 104 -43l-40 -70l-102 42q-53 28 -80 73z" />
<glyph unicode="_" horiz-adv-x="1075" d="M975 -10l-107 -75q-175 -32 -273 -32q-100 0 -202 24q-43 10 -110 10q-173 0 -283 -39l115 80q88 30 255 30q73 0 113 -9q105 -24 202 -24q100 0 290 35z" />
<glyph unicode="`" horiz-adv-x="300" d="M200 868q-49 -5 -115 40q-60 40 -85 88q72 -14 92 -7q12 -33 44.5 -69t63.5 -52z" />
<glyph unicode="a" horiz-adv-x="655" d="M441 320l23 -56l32 -75q16 -38 32 -67t27 -31q-30 -17 -62.5 -41t-56.5 -50q-5 22 -18 61.5t-35 86.5q-19 -19 -48 -44.5t-62 -48.5t-68.5 -39t-67.5 -16q-23 0 -47.5 6.5t-44.5 19t-32.5 30.5t-12.5 41q0 28 29 60t72 63.5t93 61.5l92 56q-31 39 -58.5 56.5t-60.5 17.5 q-14 0 -36.5 -8t-43.5 -18q-26 -11 -52 -25q56 38 108 69q22 13 45 25t44.5 22t40 16t31.5 6q25 0 46.5 -21.5t39 -51t30 -59.5t21.5 -47zM245 97q24 0 46 7t38.5 20t26.5 31t10 39l-17 28l-17 30q-8 18 -16.5 34.5t-17.5 27.5q-22 -8 -53.5 -22.5t-60.5 -34t-49.5 -42.5 t-20.5 -48q0 -14 10.5 -26.5t28 -22t41.5 -15.5t51 -6z" />
<glyph unicode="b" horiz-adv-x="623" d="M346 505q31 0 63 -13.5t57 -39.5t41 -63t16 -83q0 -34 -15.5 -70t-42.5 -70.5t-62 -64.5t-74 -53t-79.5 -36t-77.5 -13q-57 0 -99.5 15t-62.5 32q8 17 10.5 62.5t2 108t-2 136.5t-1.5 149q0 152 -5.5 281t-13.5 216q63 0 107 15.5t77 38.5l-19 -35q-8 -16 -13 -29 q-12 -33 -18 -85t-9 -116t-3.5 -137t-0.5 -149q0 -149 5.5 -237t7.5 -131q76 -36 127.5 -41.5t83.5 10t46 48t14 74.5q0 49 -15.5 84.5t-40 59t-54.5 34.5t-59 11q-21 0 -38.5 -4.5t-31.5 -9.5q-16 -6 -29 -13q36 33 73 59q32 22 68 40.5t68 18.5z" />
<glyph unicode="c" horiz-adv-x="587" d="M272 500q12 -14 33 -28t44 -25.5t45.5 -19t39.5 -7.5q-15 -10 -34 -20l-34 -20l-30 -17q-12 -7 -17 -11q-14 -2 -36 3t-45.5 14t-44.5 19t-32 18q-9 -6 -18.5 -17t-17.5 -26t-13 -33t-5 -38q0 -45 22.5 -79t55 -56.5t69 -34t65.5 -11.5q39 0 70 7.5t53 17.5q26 11 45 25 q-21 -19 -48.5 -46.5t-60 -53t-71 -43.5t-82.5 -18q-50 0 -91.5 18.5t-71 49t-46 69.5t-16.5 81q0 38 16.5 70t42 59t57 49.5t62.5 41.5l55 34q25 15 39 28z" />
<glyph unicode="d" horiz-adv-x="611" d="M-157 762q0 36 28.5 71.5t73 67t98.5 56.5t104 40q-38 -12 -73 -31t-62 -41.5t-43.5 -47t-16.5 -47.5q0 -27 17.5 -57t45 -60.5t62 -59.5t69 -53.5t65 -44t51.5 -29.5q20 -10 46 -20.5t53.5 -24t54.5 -31t48 -41.5t34 -55t13 -72q0 -33 -10 -61t-27 -52t-38.5 -44.5 t-45.5 -39.5q-48 -38 -92 -62t-91 -24q-39 0 -72 16t-56 41.5t-36 57t-13 62.5q0 44 10 73.5t26.5 49.5t37.5 34t43 27q20 16 40.5 28t44.5 20l-70 36q-34 19 -60 39l-46 31l-54.5 39.5t-57 46.5t-51 51.5t-36.5 54.5t-14 56zM399 221q0 31 -12.5 56.5t-33.5 47t-49 39.5 t-59 34q-18 -3 -37.5 -13.5t-35 -27.5t-26 -39.5t-10.5 -49.5q0 -32 12 -62.5t35 -54.5t56.5 -38.5t77.5 -14.5q34 0 51.5 8.5t24 24.5t6.5 39v51z" />
<glyph unicode="e" horiz-adv-x="591" d="M351 108q29 0 54.5 7.5t44.5 17.5q22 11 41 25q-27 -45 -65 -80q-32 -30 -80.5 -54.5t-112.5 -24.5q-46 0 -88 16t-74.5 46t-51.5 73.5t-19 97.5q0 49 15.5 86.5t40.5 65.5t56 46.5t61 30.5q96 39 131 39q37 0 64.5 -12.5t47.5 -27.5q22 -18 39 -40l-330 -133 q7 -42 20 -75t38 -56t65 -35.5t103 -12.5zM189 442q-14 0 -27 -7.5t-23.5 -19.5t-16 -27t-4.5 -30q0 -16 0.5 -31t3.5 -30l168 77q-10 19 -25 34q-13 13 -32 23.5t-44 10.5z" />
<glyph unicode="f" horiz-adv-x="388" d="M454 1199q32 0 52 -5.5t32 -9.5q-16 -20 -35 -48t-23 -56q-12 11 -30 21q-16 8 -41.5 14.5t-62.5 6.5q-51 0 -85 -9.5t-55 -25.5t-32 -35.5t-15 -39.5q-4 -14 -8 -53.5t-7.5 -93t-6.5 -115.5t-5 -121t-2 -109t3 -80q31 -12 67 -16t66 -4q35 0 70 4q-34 -13 -69 -24 q-30 -9 -65.5 -17t-68.5 -10q0 -30 -1 -101t-3 -166l-5 -206l-4 -224q-5 -263 -12 -577q-12 327 -21 595q-3 76 -5 152l-6 146q-2 71 -4 134t-3 113t-2 85t-1 49q-18 0 -38 4.5t-37 10.5q-20 7 -39 16q21 -2 41 1q17 2 37 7.5t36 17.5q-1 34 -4 80l-6 100l-8 111l-8 111 l-6 104q-3 49 -4 87q13 0 26.5 5t30.5 15.5t39 26.5l54 41q62 47 129 67.5t145 20.5z" />
<glyph unicode="g" horiz-adv-x="606" d="M322 167q-12 -8 -27 -23t-33 -29.5t-40 -25.5t-47 -11q-28 0 -58 14t-55 38.5t-41 58.5t-16 74q0 33 12 59.5t31 47.5t43.5 39t50.5 35q41 26 75 41t57 15q28 0 58.5 -9.5t65 -17.5t72.5 -9t80 15q-14 -14 -29 -22t-30 -14l-29 -12q-15 -6 -29 -16q-11 -106 -2.5 -191.5 t30 -155.5t52.5 -127t65 -107l68 -94q33 -44 60 -88.5t43.5 -91t16.5 -101.5q0 -67 -30.5 -131.5t-88 -115t-140 -81.5t-185.5 -31q-84 0 -144 14.5t-100 32.5q-47 21 -78 48q36 -24 84 -42q42 -16 101 -29t137 -13q66 0 129.5 14.5t113.5 46t81 81.5t31 121q0 57 -23.5 107 t-59.5 101l-80 106q-44 56 -83.5 125t-69.5 155.5t-39 198.5zM317 252q0 47 2.5 79.5t18.5 67.5q-12 6 -33 12.5t-46.5 11t-54 6t-56.5 -2.5q-24 -8 -33 -29t-9 -45q0 -53 22.5 -90.5t55.5 -59.5t70.5 -28t67.5 4q0 16 -2.5 35t-2.5 39z" />
<glyph unicode="h" horiz-adv-x="557" d="M278 462q32 0 64 -11t57.5 -34t41.5 -59t16 -85q0 -67 -20 -117t-43 -84q-28 -40 -63 -67q11 16 21 41q8 21 14.5 52t6.5 75q0 57 -19.5 98t-49.5 67.5t-66 38.5t-69 12q-32 0 -46.5 -27.5t-19.5 -74t-4 -107.5t1 -128q-20 -8 -42 -24.5t-42 -27.5q3 39 3 96t-0.5 123.5 t-1.5 138.5t-1 141q0 139 -2 265t-14 232q59 0 100.5 16.5t73.5 36.5q-17 -16 -25 -31t-12 -27q-10 -32 -15 -86.5t-7.5 -122t-3 -141t-0.5 -142.5v-110q22 20 48 36q23 14 53.5 25.5t65.5 11.5z" />
<glyph unicode="i" horiz-adv-x="361" d="M161 626l-26 -21l-25 -23q-13 -13 -24 -27q-11 18 -23 31t-23 22q-12 11 -24 18q13 10 25 21q11 10 23 23t22 28q11 -17 24 -30.5t24 -22.5q13 -11 27 -19zM0 420q24 10 45.5 17.5t41 16t38 19t36.5 26.5q8 -27 7 -65.5t-4.5 -81t-4.5 -85.5t7.5 -78t30 -58.5t64.5 -27.5 q-43 -28 -73 -53l-61 -51l-20 9q-11 5 -21 14.5t-17.5 24t-8.5 37.5q1 68 3 129.5t-2 108t-17.5 73t-43.5 25.5z" />
<glyph unicode="j" horiz-adv-x="337" d="M187 628l-24 -21q-11 -10 -22.5 -23.5t-22.5 -29.5q-13 18 -26.5 31.5t-24.5 23.5q-13 11 -25 19q13 8 27 19q11 9 24.5 21.5t24.5 27.5q11 -15 22.5 -27.5t22.5 -21.5q12 -11 24 -19zM175 -94q0 -113 -11 -208t-28.5 -172.5t-40 -139.5t-46.5 -109q-55 -111 -125 -176 q49 64 88 163q16 42 32 96.5t29 121t20.5 146.5t7.5 174q0 48 -2 109.5t-6 126.5t-9 127.5t-10 112t-10.5 81.5t-9.5 35q-5 4 -14 8l-16 9q-10 4 -20 9q28 3 59 13q26 8 59 23.5t65 41.5q-7 -29 -9.5 -81.5t-3 -127.5t0 -171.5t0.5 -211.5z" />
<glyph unicode="k" horiz-adv-x="534" d="M279 267q27 -34 62.5 -72t71.5 -69.5t66.5 -52t47.5 -19.5q-33 -9 -70.5 -25.5t-65.5 -32.5q-13 9 -31 26l-41 37l-45 45l-46 50l-42 47l-36 41q-8 -2 -16.5 -1t-16.5 1q3 -41 4 -88.5t3 -85.5q-11 -6 -27 -14l-33 -17q-17 -9 -33.5 -19t-27.5 -20q1 28 3.5 81t4.5 121 t4 145.5t2 152.5q0 73 -1 149.5t-3 144.5t-5 122t-8 83q63 0 110 17.5t86 42.5q-21 -20 -32 -41l-17 -31q-12 -35 -19 -88t-10 -117.5t-3.5 -136.5t-0.5 -145v-55v-21q0 -5 -0.5 -1t-0.5 9v8q0 2 0 -6.5t0.5 -31.5t0.5 -68q20 21 50.5 46t65 49t71 43t69.5 28q25 -7 43 -33 t18 -66q0 -18 -12 -35.5t-33 -35t-48.5 -33t-58.5 -28.5zM117 257q55 -3 94 5t62 22.5t31.5 33t3.5 37.5q-2 9 -6 20t-9.5 20.5t-12.5 16.5t-15 8q-18 4 -39 -8.5t-41.5 -33t-38.5 -46t-29 -47.5v-28z" />
<glyph unicode="l" horiz-adv-x="316" d="M17 501v193q0 82 -1 140.5t-5 97.5t-11 67q69 0 116.5 25.5t87.5 59.5q-20 -29 -34 -52t-19 -39q-11 -35 -17 -88t-9 -118t-3.5 -138t-0.5 -148q0 -76 -3 -128.5t-4.5 -90t0 -63t10.5 -47.5q7 -14 15 -27t19 -24.5t25 -19t33 -8.5q-38 -27 -67.5 -50t-53.5 -46 q-19 10 -34 25.5t-25.5 32.5t-17 34t-8.5 30q-2 38 -1 74t3 79t3.5 98t1.5 131z" />
<glyph unicode="m" horiz-adv-x="952" d="M659 500q43 0 78.5 -17.5t61 -47.5t39.5 -69t14 -82q0 -69 -23 -121.5t-51 -88.5q-33 -42 -73 -74q16 25 28 55q11 26 19.5 60t8.5 72q0 45 -17.5 87t-47.5 74.5t-69 52t-82 19.5q-17 0 -33 -4t-29 -13q35 -52 35 -119q0 -69 -23 -121.5t-51 -88.5q-33 -42 -74 -74 q16 25 28 55q11 26 20 60t9 72q0 45 -17.5 87t-47.5 74.5t-69 52t-82 19.5q-21 0 -41 -5.5t-33 -22.5q0 -19 -1.5 -54t-1.5 -80t2.5 -98.5t11.5 -108.5q-15 -2 -32 -7t-34 -12t-32.5 -15t-26.5 -17q1 20 3.5 57t4.5 81t2 91t-4 86t-12 66.5t-22 33.5q-17 7 -31 7 q-7 0 -14 -2l64 40q26 15 51 27.5t38 12.5t20 -2t10 -10t3.5 -24t0.5 -44q43 35 91.5 57.5t96.5 22.5q47 0 85 -22.5t68 -57.5q38 35 85.5 57.5t95.5 22.5z" />
<glyph unicode="n" horiz-adv-x="629" d="M529 285q0 -71 -23.5 -124.5t-51.5 -89.5q-33 -42 -75 -72q16 25 29 55q11 26 20 59t9 70q0 45 -18 87t-48 74.5t-69.5 52.5t-82.5 20q-21 0 -41 -5t-33 -18q0 -21 -1.5 -56.5t-1.5 -81.5t2.5 -100t11.5 -112q-35 0 -69.5 -14t-55.5 -31l3 55q2 37 3 81.5t0.5 91.5 t-4.5 86.5t-11.5 66.5t-20.5 31q-17 7 -34 7q-9 0 -17 -1q34 22 65 40q26 15 53 27.5t42 12.5q13 0 20 -2t10.5 -10t4 -24t0.5 -44q43 39 91.5 59.5t91.5 20.5q45 0 82 -18t63.5 -47.5t41 -67.5t14.5 -79z" />
<glyph unicode="o" horiz-adv-x="603" d="M87 310q0 -30 11.5 -66.5t38.5 -68t70.5 -53t106.5 -21.5q33 0 52 9t28 22.5t11.5 28.5t2.5 28q0 43 -16.5 85t-45.5 75t-68.5 53t-85.5 20q-30 0 -50 -11.5t-32.5 -29t-17.5 -37t-5 -34.5zM307 500q30 0 64.5 -13t64 -39t48.5 -66.5t19 -94.5q0 -31 -14.5 -64t-38 -65 t-54 -60.5t-63 -50t-65 -34.5t-59.5 -13q-41 0 -78.5 17t-66.5 46t-46.5 66.5t-17.5 79.5q0 57 31 109.5t77 93t99.5 64.5t99.5 24z" />
<glyph unicode="p" horiz-adv-x="576" d="M266 499q32 2 69 -11.5t68.5 -40t52 -64.5t20.5 -85q0 -54 -29.5 -103t-79 -89t-113 -68.5t-132.5 -41.5q0 -1 -2 -40.5t-6 -102.5t-8 -143l-10 -165l-25 -446q-13 191 -23 363l-8 150q-4 77 -7 149t-5 134t-2 106v200q0 60 -5.5 97.5t-13.5 59.5t-17 32.5t-16 16.5 q-9 8 -21.5 11t-24.5 3q-14 0 -28 -4q28 10 55 23q23 11 48 26t45 33q41 0 58 -47q10 -17 10 -73l34 29l39 32l39 32q20 16 38 27zM122 12q43 9 86 28.5t77.5 49.5t56 70.5t21.5 92.5q0 39 -20.5 67t-49 46t-58.5 26.5t-49 8.5q-22 0 -38.5 -14t-25.5 -31q2 -30 2.5 -68 t0 -82t-1.5 -93t-1 -101z" />
<glyph unicode="q" horiz-adv-x="592" d="M476 -2q-3 -42 -6 -102l-8 -132l-8 -147l-8 -150q-9 -172 -17 -364q-15 201 -26 378q-5 75 -9.5 152t-8 146.5t-5.5 126.5t-2 92v135q-47 -47 -87 -81t-79 -54q-47 6 -85.5 26.5t-67 51.5t-44 70.5t-15.5 84.5q0 33 9 57t24.5 43.5t36.5 36.5l44 34q47 43 101 70.5 t101 27.5q38 0 81.5 -9t94.5 -32q-8 -109 -12 -228.5t-4 -232.5zM300 112q23 0 42 12l36 24q0 90 -2.5 154t-2.5 84q-32 23 -74.5 32.5t-81.5 9.5q-4 0 -23.5 -2t-42 -13.5t-40.5 -37t-18 -72.5q0 -42 22 -77.5t54.5 -60.5t68 -39t62.5 -14z" />
<glyph unicode="r" horiz-adv-x="413" d="M303 496q15 0 32 -1t28 -6q-11 -15 -21 -38t-18 -44q-10 -26 -18 -52q-7 4 -18 8q-9 3 -22.5 6t-32.5 3q-30 0 -49.5 -16.5t-31.5 -43t-18.5 -58.5t-9.5 -62q0 -58 1.5 -90t1.5 -52q-13 -3 -28.5 -8.5t-31.5 -13.5l-31 -14q-16 -8 -28 -15q5 45 8.5 93t5 94t0 87.5t-6 73 t-11.5 51t-17 21.5q-5 1 -11 1h-12q-7 0 -14 -1q27 9 54 21l51 26q28 14 54 33q3 -13 5 -35.5t4 -51t3 -60.5t3 -63q15 34 35 70.5t43 67t49 50t52 19.5z" />
<glyph unicode="s" horiz-adv-x="518" d="M184 224q-19 0 -46.5 4t-53 16.5t-43.5 35.5t-18 61q0 30 15.5 53.5t39.5 41.5t54 30t58 20t51.5 11.5t35.5 3.5q9 0 22.5 -0.5t26.5 -2.5l26 -2q13 -2 19 -5q-4 -13 -8.5 -29.5t-8.5 -34t-6.5 -35t-2.5 -32.5q-7 15 -19 32.5t-28.5 33t-37.5 25.5t-46 10q-19 0 -33.5 -6 t-25 -16t-16 -21.5t-5.5 -22.5q0 -23 11 -40.5t29 -29.5t41.5 -18t48.5 -6q41 0 70.5 -8t48 -21t27 -29.5t8.5 -32.5q0 -53 -29.5 -92.5t-72 -65.5t-89 -39t-80.5 -13q-51 0 -91 13t-56 27q11 17 19 48t11 72q13 -25 35 -45.5t49 -34.5t57.5 -22t62.5 -8q11 0 25 3t26 10 t20.5 19t8.5 31q0 18 -9 37.5t-26 36t-41 27t-54 10.5z" />
<glyph unicode="t" horiz-adv-x="448" d="M86 591q32 13 64 33l68 43q-5 -18 -9 -44t-7 -52.5t-5 -48.5t-2 -32q40 -11 81.5 -9t67.5 2q-13 -12 -32.5 -20.5t-40.5 -15.5t-41.5 -12t-35.5 -9q2 -37 -0.5 -75t-2.5 -73.5t6 -67t24.5 -55.5t53 -39.5t92.5 -18.5q-17 -14 -34 -31t-35 -31.5t-37 -24t-39 -9.5 t-40.5 7.5t-37 23t-28 39t-12.5 55.5q-4 80 -6 159t-2 143q-26 2 -43.5 4.5t-29.5 4.5q-14 2 -23 4l30 13l29 14q16 8 31 19q3 31 2.5 56t-6.5 48z" />
<glyph unicode="u" horiz-adv-x="660" d="M515 130l13 -20q6 -11 15 -18.5t22.5 -10t33.5 4.5q-45 -26 -88.5 -46.5t-77.5 -41.5q-27 13 -33.5 44.5t-6.5 84.5q-19 -15 -40 -36.5t-46 -41.5t-55 -34.5t-67 -14.5q-11 0 -26.5 4.5t-31.5 14t-30 25t-23 37.5q-2 12 -3 29l-2 34q-1 18 -1.5 35t-0.5 29q0 42 1 76 t-1 60t-9 43t-23 25q-12 5 -24 7q-6 1 -11 2q22 7 47 18q21 9 46.5 23.5t51.5 34.5q19 -5 25.5 -27.5t6.5 -56t-3 -74t-3 -80.5q0 -32 5.5 -60.5t19 -50t37 -34.5t60.5 -13q30 0 56.5 14t43.5 29q3 23 3.5 44t0.5 44q0 38 1 69t-0.5 54t-6 37.5t-15.5 19.5q-6 3 -14 4l-17 2 q-10 1 -19 1q35 10 68 23q28 11 58.5 26t51.5 33q0 -12 -1 -41t-1.5 -67t-1 -80.5t1 -79.5t4.5 -65t9 -38z" />
<glyph unicode="v" horiz-adv-x="621" d="M6 410l-12 4q-6 1 -10 3l-8 2q-4 0 7.5 5.5t30 16t39.5 25.5t36 35q13 -35 32 -69l42 -74q27 32 58 58.5t60 45t55 29t43 10.5q21 0 43 -6t41 -15t34.5 -20t23.5 -22q-1 -17 -17.5 -49.5t-41.5 -73.5l-56 -87l-60 -89l-56 -79l-44 -60q-12 28 -32.5 69t-45.5 86l-51 90 q-26 45 -49 81t-39.5 59t-22.5 25zM299 443q-12 0 -29 -10t-35 -25t-34 -32t-27 -30l64 -115q30 -56 73 -112q25 28 47.5 63.5t37.5 70.5t20.5 66.5t-3.5 51.5q-4 12 -14 25t-25 23.5t-34 17t-41 6.5z" />
<glyph unicode="w" horiz-adv-x="795" d="M611 495q16 0 37 -6t40.5 -15t35 -20t21.5 -22q-15 -46 -43 -97t-62 -105l-74 -112l-74 -114q-30 43 -52 84l-45 80q-15 -17 -35 -36l-40 -40q-21 -21 -41.5 -44.5t-37.5 -48.5q-10 24 -31 64l-45 87l-52 94l-51 87q-23 39 -40.5 64t-22.5 26h-23q-4 0 8 6t31 16.5t39 25 t33 31.5q6 -15 15.5 -33.5l20.5 -38.5l22 -38l20 -36l26 28l39 41l45 43t42 34q4 -13 13 -31t20 -38l23 -41l22 -36q15 16 40.5 40.5t55 46.5t61 38t59.5 16zM317 106q26 26 62 79q-6 17 -23 53.5t-37.5 73.5t-41 65t-33.5 28q-6 0 -15 -6.5t-18.5 -16t-18.5 -20t-16 -19.5 q29 -55 66 -118.5t75 -118.5zM531 117l29 39q19 27 38 59.5t32.5 66.5t13.5 61t-14.5 46.5t-34.5 31.5t-41 17.5t-34 5.5q-11 0 -29 -13.5t-36.5 -31t-33.5 -34t-19 -22.5l26 -51l36 -66l36 -64q18 -30 31 -45z" />
<glyph unicode="x" horiz-adv-x="694" d="M537 121q15 0 29.5 1t27.5 9l-34 -29l-42 -37l-41 -37l-35 -29q-14 7 -34 26.5t-44 46.5l-52 60l-54 65q-28 -42 -52 -74l-41 -54l-21 -23q-11 -14 -30 -25.5t-46.5 -17t-67.5 -0.5q15 25 22.5 58t7.5 70q15 -5 37 -7.5t41 -2.5q38 0 69.5 24t66.5 69q-10 10 -18 20 l-18 23l-51 63l-45 52q-21 23 -36.5 36.5t-23.5 13.5h-35l53 26l49 24l49 27q12 -8 29 -25t37 -40.5l42 -51.5l43 -57q24 41 41 73.5t39.5 55t55.5 34.5t89 12q-17 -32 -27.5 -68.5t-15.5 -66.5q-13 10 -31 13.5t-41 3.5q-42 0 -96 -70q2 -5 5 -9.5t8 -6.5l52 -68 q26 -32 50 -55.5t46 -37.5t43 -14z" />
<glyph unicode="y" horiz-adv-x="676" d="M408 437q42 14 82 26q35 11 72 20.5t64 14.5q-71 -115 -135 -236.5t-121 -241.5l-107 -235l-91 -218q-97 -241 -172 -471l115 377l47 153l48 149l42 129l34 97l-42 81l-48 86l-48 83q-25 40 -46.5 70.5t-38.5 49t-26 18.5q-7 0 -13.5 -1t-11.5 -3q-6 -2 -12 -3 q12 18 28 39.5t33 40t32.5 31t25.5 12.5q12 0 33 -25.5t51 -74.5t68 -120l83 -161l54 106q27 53 44 95.5t20 71t-16 33.5q-8 2 -16.5 3.5t-15.5 2.5q-9 1 -16 1z" />
<glyph unicode="z" horiz-adv-x="449" d="M176 326q40 -1 72 -11.5t54.5 -28.5t34.5 -42.5t12 -52.5q0 -48 -22 -83.5t-54 -59.5t-68.5 -36t-65.5 -12q-31 0 -64 10t-61 22q-33 14 -64 32q21 -6 47 -10q23 -4 53.5 -6.5t67.5 -2.5q27 0 49 9.5t37.5 24.5t23.5 33.5t8 35.5q0 20 -8.5 38t-23.5 31.5t-34.5 21.5 t-41.5 8q-30 0 -52 -7l-41 -13l46 43l57 54l53 55t33 40q-38 2 -89.5 0.5t-96.5 -4.5q40 35 70.5 67t52.5 63q-8 -18 -3 -27.5t16 -14t25 -5t25 -0.5q26 2 56.5 1t63.5 1l-48 -48l-52 -50l-43 -46q-19 -20 -25 -30z" />
<glyph unicode="{" horiz-adv-x="258" d="M158 -56l-53 -29h-13q-40 0 -60 74q-17 57 -17 130q0 81 20.5 161t55.5 135q-61 25 -91 58q6 8 15 19l53 57q11 12 21 20q1 2 1 8q0 1 -17 55q-50 157 -50 289q0 96 38 118l64 40q1 -4 1 -8q0 -9 -2 -22q0 -4 -2 -11l-39 -33q-9 -15 -9 -49q0 -126 64 -297q5 -16 5 -31 q0 -34 -17 -53q-12 -17 -43 -49q-5 -1 -16 -8q25 -16 85 -45q-38 -52 -60.5 -136t-22.5 -166q0 -76 19 -137q11 -37 14 -42q10 -24 24 -24q13 0 32 24v-48z" />
<glyph unicode="|" horiz-adv-x="190" d="M90 1015q-14 -245 -25 -519q-6 -145 -3 -561h-62q14 285 21 634q3 114 -8 453z" />
<glyph unicode="}" horiz-adv-x="258" d="M0 1050l53 29h13q40 0 60 -74q17 -57 17 -130q0 -81 -20.5 -161t-55.5 -135q61 -25 91 -58q-6 -8 -15 -19l-53 -57q-11 -12 -21 -20q-1 -2 -1 -8q0 -1 17 -55q50 -157 50 -289q0 -96 -38 -118l-64 -40q-1 4 -1 8q0 9 2 22q0 4 2 11l39 33q9 15 9 49q0 126 -64 297 q-5 16 -5 31q0 34 17 53q12 17 43 49q5 1 16 8q-25 16 -85 45q38 52 60.5 136t22.5 166q0 76 -19 137q-11 37 -14 42q-10 24 -24 24q-13 0 -32 -24v48z" />
<glyph unicode="~" horiz-adv-x="490" d="M390 1001l-43 -75q-70 -32 -109 -32q-40 0 -81 24q-17 10 -44 10q-69 0 -113 -39l46 80q35 30 102 30q29 0 45 -9q42 -24 81 -24q40 0 116 35z" />
<glyph unicode="&#xa2;" horiz-adv-x="585" d="M324 548q-9 -38 -17 -78q15 -10 32 -19t34 -16t33 -11t28 -4q-15 -10 -34 -20l-34 -20l-30 -17q-12 -7 -17 -11q-7 -2 -16 0l-20 3q-10 -51 -19 -103q-8 -43 -18 -128q20 -7 38.5 -10t34.5 -3q35 0 64 6.5t50.5 15t34.5 16t17 10.5q-21 -18 -47 -44.5t-57.5 -51.5 t-68.5 -43t-79 -20q-4 -34 -7 -72l-69 7l14 71q-39 9 -70.5 29.5t-54 49t-34.5 63t-12 70.5q0 47 25 85.5t61.5 70t77.5 56.5l70 43q3 40 5 88zM107 292q0 -50 26 -85.5t63 -58.5q12 72 23 151q5 26 9 73q-21 8 -39 17.5t-28 16.5q-9 -6 -18.5 -17t-17.5 -26t-13 -33t-5 -38 z" />
<glyph unicode="&#xa3;" horiz-adv-x="731" d="M347 606q-29 -13 -52 -21v-52q0 -130 2 -217t4 -141q3 -63 7 -100q64 0 121 4q24 1 49.5 3t48.5 5t42.5 6t32.5 8l19 73l10 -3l-16 -62q-7 -26 -14 -56t-12 -54q-37 6 -76.5 7.5t-79 1.5t-78 -1.5t-73.5 -1.5q-47 0 -78 -1t-51 -2q-23 -2 -37 -3v6l43 10q8 32 14 96 q5 55 10 150.5t5 245.5v76q-16 6 -31 15q-17 10 -44 10q-69 0 -113 -39l46 80q35 30 102 30q24 0 39 -6q-2 90 -5 149t-5 94l-6 63l-61 10v10q15 -3 33 -5q16 -2 39 -3.5t53 -1.5q37 0 66 1.5t49 3.5q24 2 41 5v-10l-54 -10q-8 -43 -16 -95q-7 -45 -13.5 -105t-9.5 -131 q36 7 92 33z" />
<glyph unicode="&#xa5;" horiz-adv-x="827" d="M588 225q-88 -31 -137 -31q2 -47 5.5 -80t6.5 -56l7 -44l65 -10v-6q-20 1 -43 3q-20 1 -46.5 2t-56.5 1q-27 0 -51.5 -1t-43.5 -2q-22 -2 -41 -3v9l72 7q2 27 5 60q2 28 4 65.5t4 81.5q-19 6 -46 6q-87 0 -142 -38l58 78q44 29 129 29h2q0 21 -0.5 42.5t-1.5 42.5 q-19 6 -45 6q-87 0 -142 -38l58 78q42 28 123 29q-1 8 -1.5 16t-1.5 16l-34 60l-42 74l-46 82l-45 81l-109 196l-52 10v9q15 -3 33 -5q16 -2 38 -3t49 -1q32 0 58 1t46 3q23 2 42 5v-9l-62 -10l77 -162l35 -71l37 -72l38 -70q19 -35 37 -63q15 31 29 67l27 72l24 74l21 69 q23 77 42 156l-68 10v9q19 -3 37 -5q16 -2 34 -3t33 -1q32 0 54 1t37 3q17 2 29 5v-9l-39 -10l-71 -137l-74 -148l-89 -179q-2 -23 -2.5 -45.5t-1.5 -43.5q23 -4 45 -4q51 0 147 34l-54 -73q-89 -31 -138 -31h-2v-85q24 -5 47 -5q51 0 147 34z" />
<glyph unicode="&#xa9;" horiz-adv-x="613" d="M275 899q7 -9 19.5 -18.5t26 -17t27 -12t23.5 -4.5l-20 -13l-21 -13l-16 -11q-8 -4 -11 -6q-8 -2 -21.5 1.5t-27.5 9.5l-26 12q-12 6 -19 11q-11 -8 -21.5 -27t-10.5 -45q0 -29 13 -51t32.5 -36.5t41 -21.5t39.5 -7q23 0 41 5t31 11q15 7 27 16l-28 -30 q-17 -17 -36.5 -33.5t-42.5 -28t-49 -11.5q-30 0 -54.5 11.5t-42 31t-27 44.5t-9.5 52q0 36 21 64.5t48 50.5t54 38t39 28zM268 508q43 0 70.5 18t43.5 50t22 76t6 95q0 30 -9 71t-29 78.5t-52.5 63.5t-78.5 26q-36 0 -62.5 -20t-44 -53.5t-25.5 -77.5t-8 -91q0 -27 8 -67.5 t27 -78t51 -64t81 -26.5zM0 735q0 56 21.5 104.5t57 84t81.5 55.5t95 20q59 0 106.5 -19t81.5 -52t52 -77t18 -94q0 -66 -20.5 -115.5t-55.5 -82t-81.5 -49t-98.5 -16.5q-82 0 -132.5 23.5t-78 59t-37 78t-9.5 80.5z" />
<glyph unicode="&#xad;" d="M415 351l-43 -75q-70 -32 -109 -32q-40 0 -81 24q-17 10 -44 10q-69 0 -113 -39l46 80q35 30 102 30q29 0 45 -9q42 -24 81 -24q40 0 116 35z" />
<glyph unicode="&#xae;" horiz-adv-x="573" d="M0 736q0 55 20 102.5t52.5 82.5t75 55t87.5 20q54 0 98 -19t75 -51.5t48 -75.5t17 -92q0 -65 -19 -114t-51 -81t-74.5 -48t-90.5 -16q-76 0 -122.5 23t-72 58.5t-34.5 77t-9 78.5zM248 512q39 0 64.5 18t40.5 49.5t20.5 75t5.5 93.5q0 29 -8.5 69.5t-27 77t-48 62.5 t-72.5 26q-34 0 -58.5 -20t-40.5 -53t-23.5 -76t-7.5 -89q0 -17 2.5 -39.5t9 -46.5t16.5 -48.5t25 -44.5q4 44 5 90t-0.5 84t-6 63t-12.5 27q-5 2 -11.5 1t-8.5 -1q1 0 10 4l21 10q13 7 28 17t29 22q1 -9 2.5 -24t2.5 -34t1.5 -40t1.5 -42q8 22 19.5 46.5t24 45t27 33.5 t28.5 13q8 0 18 -0.5t16 -4.5q-7 -10 -12 -25l-10 -29l-10 -35l-10 5q-5 2 -12.5 4t-17.5 2q-17 0 -27.5 -11t-17.5 -28.5t-10.5 -39t-5.5 -41.5q0 -39 1 -60.5t1 -34.5q-12 -3 -27 -11t-29 -17q17 -19 40.5 -31t53.5 -12z" />
<glyph unicode="&#xb4;" horiz-adv-x="300" d="M0 871q31 15 63.5 51.5t44.5 68.5q20 -6 92 8q-25 -48 -85 -89q-66 -44 -115 -39z" />
<glyph unicode="&#x2000;" horiz-adv-x="666" />
<glyph unicode="&#x2001;" horiz-adv-x="1333" />
<glyph unicode="&#x2002;" horiz-adv-x="666" />
<glyph unicode="&#x2003;" horiz-adv-x="1333" />
<glyph unicode="&#x2004;" horiz-adv-x="444" />
<glyph unicode="&#x2005;" horiz-adv-x="333" />
<glyph unicode="&#x2006;" horiz-adv-x="222" />
<glyph unicode="&#x2007;" horiz-adv-x="222" />
<glyph unicode="&#x2008;" horiz-adv-x="166" />
<glyph unicode="&#x2009;" horiz-adv-x="266" />
<glyph unicode="&#x200a;" horiz-adv-x="74" />
<glyph unicode="&#x2010;" d="M415 351l-43 -75q-70 -32 -109 -32q-40 0 -81 24q-17 10 -44 10q-69 0 -113 -39l46 80q35 30 102 30q29 0 45 -9q42 -24 81 -24q40 0 116 35z" />
<glyph unicode="&#x2011;" d="M415 351l-43 -75q-70 -32 -109 -32q-40 0 -81 24q-17 10 -44 10q-69 0 -113 -39l46 80q35 30 102 30q29 0 45 -9q42 -24 81 -24q40 0 116 35z" />
<glyph unicode="&#x2013;" horiz-adv-x="832" d="M707 351l-75 -75q-123 -32 -191 -32q-70 0 -142 24q-29 10 -77 10q-120 0 -197 -39l80 80q61 30 179 30q50 0 78 -9q74 -24 142 -24q70 0 203 35z" />
<glyph unicode="&#x2014;" horiz-adv-x="1125" d="M1000 350l-107 -75q-175 -32 -273 -32q-100 0 -202 24q-43 10 -110 10q-173 0 -283 -39l115 80q88 30 255 30q73 0 113 -9q105 -24 202 -24q100 0 290 35z" />
<glyph unicode="&#x2018;" horiz-adv-x="250" d="M150 870q-31 -31 -36 -35q-24 -19 -45 -20q-29 -1 -49 31q-16 26 -20 59l127 145q-19 -44 -20 -113q0 -44 43 -67z" />
<glyph unicode="&#x2019;" horiz-adv-x="250" d="M23 760q21 47 20 90q-1 69 -43 90q15 17 36 35q24 21 45 20q30 -1 50 -32q16 -25 19 -58z" />
<glyph unicode="&#x201c;" horiz-adv-x="392" d="M292 867q0 -6 -45 -31q-37 -21 -63 -23q-27 0 -48 27q-52 -27 -74 -27q-21 0 -43 31q-15 27 -19 59l127 145q-19 -48 -19 -78q-2 -46 7 -66l127 145q-24 -60 -24 -91q0 -23 9 -51q11 -36 29 -36q7 0 16.5 2.5t13.5 2.5q6 0 6 -9z" />
<glyph unicode="&#x201d;" horiz-adv-x="392" d="M165 763q24 59 23 98q0 28 -11 49l-127 -148q24 61 24 92q0 27 -10 53q-14 33 -37 33l-9 -2q-6 -3 -12 -3t-6 8q0 12 48 33.5t64 21.5q25 0 44 -27q54 27 67 27q29 -1 50 -31q16 -27 19 -59z" />
<glyph unicode="&#x2022;" horiz-adv-x="367" d="M267 386q0 -6 -8 -12q-43 -30 -67 -45q-47 -27 -74 -28q-36 -2 -55.5 61t-25.5 63q-7 0 -13 -2t-11 -4q-13 0 -13 12q0 14 91 56l39 16q5 2 17 3q31 0 47 -54.5t34 -57.5q6 0 12 1l12 3q13 0 15 -12z" />
<glyph unicode="&#x2026;" horiz-adv-x="818" d="M178 31q0 -4 -5 -8q-29 -20 -45 -30q-31 -18 -49 -19q-24 -1 -37 41t-17 42q-5 0 -9 -1.5t-7 -2.5q-9 0 -9 8q0 9 61 37q9 4 26 11q3 1 11 2q21 0 31.5 -36.5t22.5 -38.5q4 0 8 1l8 2q9 0 10 -8zM448 31q0 -4 -5 -8q-29 -20 -45 -30q-31 -18 -49 -19q-24 -1 -37 41 t-17 42q-5 0 -9 -1.5t-7 -2.5q-9 0 -9 8q0 9 61 37q9 4 26 11q3 1 11 2q21 0 31.5 -36.5t22.5 -38.5q4 0 8 1l8 2q9 0 10 -8zM718 31q0 -4 -5 -8q-29 -20 -45 -30q-31 -18 -49 -19q-24 -1 -37 41t-17 42q-5 0 -9 -1.5t-7 -2.5q-9 0 -9 8q0 9 61 37q9 4 26 11q3 1 11 2 q21 0 31.5 -36.5t22.5 -38.5q4 0 8 1l8 2q9 0 10 -8z" />
<glyph unicode="&#x202f;" horiz-adv-x="266" />
<glyph unicode="&#x205f;" horiz-adv-x="333" />
<glyph unicode="&#x20ac;" horiz-adv-x="779" d="M347 410q-22 -10 -40 -17q12 -62 32 -120.5t49 -104t67.5 -73t86.5 -27.5q37 0 60.5 10.5t37.5 24.5q16 16 23 36l11 -11q-17 -36 -47 -63q-26 -24 -66.5 -43.5t-100.5 -19.5q-38 0 -84 16.5t-87 60t-72 119t-39 193.5l-21 11q-17 10 -44 10q-69 0 -113 -39l46 80 q35 30 102 30q16 0 27 -3q0 14 0.5 26.5t1.5 24.5l-20 11q-17 10 -44 10q-69 0 -113 -39l46 80q35 30 102 30q24 0 39 -6q15 93 49 164.5t80.5 120t103 73.5t117.5 25l93 -6q27 0 36 3q5 1 8 3h5q-8 -21 -15 -42.5t-13 -45.5t-10 -52t-6 -63h-11q0 19 -9 46t-29 52t-54 42.5 t-83 17.5q-81 0 -119 -93t-40 -271q38 5 100 34l-43 -75q-31 -14 -56 -22q1 -37 6 -76q37 7 93 33z" />
<glyph unicode="&#x2122;" horiz-adv-x="1135" d="M187 705q0 52 -2 92.5t-4 68.5l-5 56q-44 0 -72.5 -1t-46.5 -7t-30 -18.5t-23 -35.5l-4 2q12 20 21 44.5t15 46.5q7 26 12 51l8 -2l-2 -11q97 0 167.5 -3.5t118 -4.5t72.5 2.5t31 18.5l4 -2q-8 -13 -16 -32q-7 -17 -14.5 -42t-14.5 -59h-5q3 15 0.5 26t-16.5 17.5 t-42 8.5t-76 1q-2 -33 -3 -70q-1 -32 -1.5 -72.5t-0.5 -84.5q0 -78 3 -147t8 -123q5 -62 12 -116l46 -6l2 -7q-11 1 -25 2q-12 1 -29.5 1.5t-37.5 0.5q-27 0 -47 -0.5t-34 -1.5q-16 -1 -28 -2v4l48 9q2 44 5 104q2 51 4 124t2 168zM1035 298l-21 3q-11 2 -26 3t-35 1t-35 -1 t-26 -3l-21 -3v7l28 4q0 77 -2 168l-5 179q-2 101 -7 213l-21 -95q-13 -57 -33 -130t-47 -158t-62 -177q-19 40 -41.5 107t-44.5 144l-45 154l-40 140q-2 -41 -2.5 -86t0 -91t2 -91t3.5 -86q4 -96 10 -191l44 -4v-9l-24 4q-11 2 -25 3.5t-29 1.5q-19 0 -28.5 -1t-13.5 -3 q-5 -2 -5 -3v7l3 4q8 28 17 99q4 30 8.5 73t8.5 101l10 133q6 75 11 169q-16 46 -27 74t-18 30q-8 2 -12.5 3t-6.5 2q-3 1 -3 2v6q9 -2 20 -3q18 -3 40 -3q11 0 23.5 0.5t24.5 2.5q13 1 28 3q4 -30 12 -70l20 -85q10 -46 22 -94l25 -94q28 -107 62 -225l43 160l42 163 l46 184q-2 16 -2.5 31t-2.5 30q4 -2 12 -3q12 -3 41 -3q35 0 56 3q12 1 22 3v-6l-34 -7q-4 -35 -5 -82.5t0.5 -101.5t4.5 -112t7 -113q9 -129 23 -270l31 -6v-5z" />
</font>
</defs>
</svg>
