<svg width="48" height="48" viewBox="0 0 48 48" xmlns="http://www.w3.org/2000/svg"><defs><g id="icon" fill-rule="evenodd"><path d="M24 48c13.255 0 24-10.745 24-24S37.255 0 24 0 0 10.745 0 24s10.745 24 24 24z" fill="#FFF"/><g transform="translate(12.986 13.88)"><ellipse cx="8.247" cy="6.497" rx="1.833" ry="1.856"/><path d="M21.075 0H.915C.412 0 0 .415 0 .928v18.564c0 .514.41.93.916.93h20.16c.505 0 .915-.416.915-.93V.928c0-.513-.41-.928-.915-.928zm-.916 1.856v11.14l-4.583-4.642-5.498 6.497-4.582-3.71-3.665 3.71V1.857H20.16z"/></g></g></defs></svg>
