<svg width="48" height="48" viewBox="0 0 48 48" xmlns="http://www.w3.org/2000/svg"><defs><g id="icon" fill-rule="evenodd"><circle fill="#FFF" cx="24" cy="24" r="24"/><path d="M34.86 26.097L22.903 14.14c-.09-.09-.21-.14-.338-.14H15.87c-.128 0-.25.05-.34.14l-2.39 2.39c-.09.09-.14.213-.14.34v6.695c0 .127.05.25.14.338L25.097 35.86c.093.093.215.14.338.14.122 0 .245-.047.338-.14l9.087-9.087c.187-.187.187-.49 0-.676zm-16.12-4.923c-.793 0-1.436-.642-1.436-1.435s.643-1.436 1.435-1.436 1.434.643 1.434 1.435-.642 1.434-1.435 1.434z"/></g></defs></svg>
