<svg width="48" height="48" viewBox="0 0 48 48" xmlns="http://www.w3.org/2000/svg"><defs><g id="icon" fill-rule="evenodd"><circle fill="#FFF" cx="24" cy="24" r="24"/><path d="M21.707 32.29l3.885-3.146c2.143-1.735 2.474-4.89.74-7.032-.35-.43-.978-.495-1.407-.148-.43.348-.496.977-.148 1.407 1.04 1.286.842 3.18-.443 4.22l-3.886 3.147c-1.285 1.04-3.18.842-4.22-.444-1.04-1.285-.84-3.178.444-4.22l1.554-1.258c.43-.347.496-.977.148-1.406-.348-.43-.977-.497-1.406-.15l-1.555 1.26c-2.142 1.735-2.474 4.89-.74 7.032 1.736 2.142 4.89 2.474 7.034.74zm4.586-16.58l-3.885 3.146c-2.143 1.735-2.474 4.89-.74 7.032.35.43.978.495 1.407.148.43-.348.496-.977.148-1.407-1.04-1.286-.842-3.18.443-4.22l3.886-3.147c1.285-1.04 3.18-.842 4.22.444 1.04 1.285.84 3.178-.444 4.22l-1.554 1.258c-.43.347-.496.977-.148 1.406.348.43.977.497 1.406.15l1.555-1.26c2.142-1.735 2.474-4.89.74-7.032-1.736-2.142-4.89-2.474-7.034-.74z"/></g></defs></svg>
