<svg width="48" height="48" viewBox="0 0 48 48" xmlns="http://www.w3.org/2000/svg"><defs><g id="icon" fill-rule="evenodd"><circle cx="24" cy="24" r="24" fill="#FFF"/><path d="M30.526 25.474c-.262 0-.473.21-.473.473v7.106H13.947V16.947h7.106c.262 0 .473-.21.473-.473 0-.262-.21-.474-.473-.474h-7.58c-.26 0-.473.212-.473.474v17.052c0 .262.212.474.474.474h17.052c.262 0 .474-.212.474-.474v-7.58c0-.26-.212-.472-.474-.472z"/><path d="M28.093 14l-8.957 8.957c-.087.087-.136.205-.136.33v3.25c0 .255.208.463.464.463h3.25c.124 0 .242-.05.33-.136L32 17.907 28.094 14zM34.853 15.647l-3.5-3.5c-.195-.196-.51-.196-.707 0L29 13.793 33.207 18l1.646-1.646c.196-.196.196-.512 0-.707z"/></g></defs></svg>
