<svg width="48" height="48" viewBox="0 0 48 48" xmlns="http://www.w3.org/2000/svg"><defs><g id="icon" fill-rule="evenodd"><path d="M24 48c13.255 0 24-10.745 24-24S37.255 0 24 0 0 10.745 0 24s10.745 24 24 24z" fill="#FFF"/><path d="M34.4 21.314l-9.143-9.143c-.228-.227-.57-.227-.8 0l-1.143 1.144c-.228.23-.228.572 0 .8l9.143 9.143c.114.114.286.172.4.172.114 0 .286-.06.4-.173l1.143-1.143c.23-.228.23-.57 0-.8zM30.686 23.086l-7.2-7.2c-.172-.172-.457-.23-.686-.115l-6.23 3.087c-.17.057-.284.23-.284.4l-1.943 10.686c-.114.57.57.914.97.514l5.258-5.257c-.627-1.03-.34-2.4.8-3.086.744-.457 1.66-.457 2.4 0 1.316.8 1.43 2.572.46 3.6-.744.743-1.887.857-2.744.343l-5.257 5.257c-.4.4-.06 1.086.513.972l10.514-2c.172-.057.343-.172.4-.286l3.086-6.23c.114-.227.114-.513-.057-.684zM32.857 36H14.57c-.34 0-.57-.23-.57-.57 0-.344.23-.573.57-.573h18.287c.343 0 .572.23.572.572 0 .34-.23.57-.573.57z"/></g></defs></svg>
