<svg width="48px" height="48px" viewBox="0 0 48 48" version="1.1" xmlns="http://www.w3.org/2000/svg">
<title>8DC95CA6-8975-4C29-A14F-11AC6C619DA0</title>
<defs>
    <symbol id="expand-icon">
        <g transform="translate(-256.000000, -211.000000)">
            <g transform="translate(256.500000, 211.000000)">
                <ellipse id="Oval-2" fill="#FFFFFF" cx="24" cy="24" rx="24" ry="24"/>
                <g id="expand" transform="translate(14.000000, 12.000000)">
                    <path d="M20.4,9.31428571 L11.2571429,0.171428571 C11.0285714,-0.0571428571 10.6857143,-0.0571428571 10.4571429,0.171428571 L9.31428571,1.31428571 C9.08571429,1.54285714 9.08571429,1.88571429 9.31428571,2.11428571 L18.4571429,11.2571429 C18.5714286,11.3714286 18.7428571,11.4285714 18.8571429,11.4285714 C18.9714286,11.4285714 19.1428571,11.3714286 19.2571429,11.2571429 L20.4,10.1142857 C20.6285714,9.88571429 20.6285714,9.54285714 20.4,9.31428571 L20.4,9.31428571 Z"
                          id="Shape"/>
                    <path d="M16.6857143,11.0857143 L9.48571429,3.88571429 C9.31428571,3.71428571 9.02857143,3.65714286 8.8,3.77142857 L2.57142857,6.85714286 C2.4,6.91428571 2.28571429,7.08571429 2.28571429,7.25714286 L0.342857143,17.9428571 C0.228571429,18.5142857 0.914285714,18.8571429 1.31428571,18.4571429 L6.57142857,13.2 C5.94285714,12.1714286 6.22857143,10.8 7.37142857,10.1142857 C8.11428571,9.65714286 9.02857143,9.65714286 9.77142857,10.1142857 C11.0857143,10.9142857 11.2,12.6857143 10.2285714,13.7142857 C9.48571429,14.4571429 8.34285714,14.5714286 7.48571429,14.0571429 L2.22857143,19.3142857 C1.82857143,19.7142857 2.17142857,20.4 2.74285714,20.2857143 L13.2571429,18.2857143 C13.4285714,18.2285714 13.6,18.1142857 13.6571429,18 L16.7428571,11.7714286 C16.8571429,11.5428571 16.8571429,11.2571429 16.6857143,11.0857143 L16.6857143,11.0857143 Z"
                          id="Shape"/>
                    <path d="M18.8571429,24 L0.571428571,24 C0.228571429,24 0,23.7714286 0,23.4285714 C0,23.0857143 0.228571429,22.8571429 0.571428571,22.8571429 L18.8571429,22.8571429 C19.2,22.8571429 19.4285714,23.0857143 19.4285714,23.4285714 C19.4285714,23.7714286 19.2,24 18.8571429,24 L18.8571429,24 Z"
                          id="Shape"/>
                </g>
            </g>
        </g>
    </symbol>
</defs>
</svg>
