<svg width="24" height="24" xmlns="http://www.w3.org/2000/svg">
  <path d="M10.6 17.4C10.6 17.6 10.5 17.9 10.3 18.1L9.4 18.8 1.8 11.6 1.8 8.8 10.2 16.7C10.3 16.8 10.6 17.1 10.6 17.4L10.6 17.4ZM22.2 9L22.2 11.6 12.7 20.8C12.5 21 12.4 21 12.2 21 12 21 11.8 21 11.6 20.8L10.8 20 22.2 9ZM15 13.7L12.3 16.2 4 8.2C3.6 7.9 3.3 7.3 3.3 6.7 3.3 6.2 3.6 5.6 4 5.2L6.6 2.7 15 10.7C15.8 11.5 15.8 12.9 15 13.7L15 13.7ZM13.4 6.8L16.1 4.2C16.6 3.8 17.1 3.5 17.7 3.5 18.3 3.5 18.9 3.8 19.3 4.2L22.1 6.9 17.8 11 16.2 9.5 13.4 6.8ZM23.9 6.4L17.7 0.3 17.6 0.2 17.5 0.3 12.1 5.5 7.2 0.9 7.2 0.9 7.2 0.9 6.6 0.4 6.5 0.3 6.4 0.4 0.1 6.3 0 6.4 0 6.5 0 12.3 0 12.4 0.1 12.4 11.9 23.6 12 23.8 12.1 23.6 23.9 12.4 24 12.4 24 12.3 24 6.5 24 6.4 23.9 6.4Z" fill="#7c848c"/>
</svg>