<svg width="24" height="24" viewBox="0 0 24 24" xmlns="http://www.w3.org/2000/svg"><path d="M20.482 3.5C18.187 1.2 15.193 0 12 0 8.807 0 5.813 1.2 3.518 3.5c-4.69 4.7-4.69 12.3 0 17C5.813 22.8 8.807 24 12 24c3.193 0 6.187-1.2 8.482-3.5 4.69-4.7 4.69-12.3 0-17zm.4 13.1l-3.094-3.1c.1-.5.2-1 .2-1.5s-.1-1-.2-1.5l3.093-3.1a9.985 9.985 0 0 1 0 9.2zM3.118 7.4l3.093 3.1c-.1.5-.2 1-.2 1.5s.1 1 .2 1.5L3.12 16.6a9.985 9.985 0 0 1 0-9.2zm6.087 7.4c-.799-.7-1.198-1.7-1.198-2.8 0-1.1.4-2.1 1.198-2.8C9.904 8.4 10.902 8 12 8s2.096.4 2.794 1.2c.799.7 1.198 1.7 1.198 2.8 0 1.1-.4 2.1-1.198 2.8-1.497 1.5-4.091 1.5-5.588 0zM16.59 3.1l-3.093 3.1c-.5-.1-.998-.2-1.497-.2-.499 0-.998.1-1.597.2L7.41 3.1A10.35 10.35 0 0 1 12 2c1.597 0 3.193.4 4.59 1.1zM7.41 20.9l3.093-3.1c.5.1.998.2 1.597.2s.998-.1 1.596-.2l3.094 3.1A10.35 10.35 0 0 1 12.2 22c-1.597 0-3.393-.4-4.79-1.1z" fill-rule="evenodd" fill-opacity="100"/></svg>