<svg width="48" height="48" viewBox="0 0 48 48" xmlns="http://www.w3.org/2000/svg"><defs><g id="icon" fill-rule="evenodd"><circle fill="#FFF" cx="24" cy="24" r="24"/><path d="M16 19c1.654 0 3-1.346 3-3s-1.346-3-3-3-3 1.346-3 3 1.346 3 3 3M16 27c1.654 0 3-1.346 3-3s-1.346-3-3-3-3 1.346-3 3 1.346 3 3 3M16 35c1.654 0 3-1.346 3-3s-1.346-3-3-3-3 1.346-3 3 1.346 3 3 3M34 15H22c-.553 0-1 .447-1 1 0 .553.447 1 1 1h12c.553 0 1-.447 1-1 0-.553-.447-1-1-1M34 23H22c-.553 0-1 .447-1 1 0 .553.447 1 1 1h12c.553 0 1-.447 1-1 0-.553-.447-1-1-1M35 32c0-.553-.447-1-1-1H22c-.553 0-1 .447-1 1 0 .553.447 1 1 1h12c.553 0 1-.447 1-1"/></g></defs></svg>
