<svg width="48" height="48" viewBox="0 0 48 48" xmlns="http://www.w3.org/2000/svg"><defs><g id="icon" fill-rule="evenodd"><ellipse fill="#FFF" cx="24" cy="24" rx="24" ry="24"/><path d="M34.522 29.217H13.478c-.264 0-.478.215-.478.48v3.825c0 .264.214.478.478.478h21.044c.264 0 .478-.214.478-.478v-3.826c0-.264-.214-.48-.478-.48zM26.21 27.304v-1.14l1.733-.19-1.14-3.452h-5.9l-1.12 3.45 1.713.19v1.142h-4.863v-1.12l.91-.233c.338-.083.443-.147.527-.4L22.72 12h2.454l4.735 13.57c.083.255.252.297.507.36l.95.233v1.14H26.21zM23.885 13.65l-2.494 7.437h4.946l-2.45-7.438z"/></g></defs></svg>
