<svg width="24" height="24" viewBox="0 0 24 24" xmlns="http://www.w3.org/2000/svg"><title>0688B43B-9331-448A-9E79-EE4BEE54C812</title><g fill="#1A5EB8" fill-rule="evenodd"><path d="M21.747 20.524l-4.872-4.87c-.337-.34-.885-.34-1.222 0-.338.336-.338.884 0 1.22l4.87 4.873c.34.337.886.337 1.224 0 .337-.338.337-.885 0-1.223z"/><path d="M3.848 10.763c0-3.82 3.095-6.915 6.915-6.915s6.915 3.095 6.915 6.915-3.096 6.915-6.915 6.915c-3.82 0-6.915-3.096-6.915-6.915zm-1.73 0c0 4.774 3.87 8.644 8.645 8.644 4.774 0 8.644-3.87 8.644-8.644s-3.87-8.644-8.644-8.644S2.12 5.99 2.12 10.762z"/></g></svg>