<svg xmlns="http://www.w3.org/2000/svg" xmlns:xlink="http://www.w3.org/1999/xlink" x="0px" y="0px" viewBox="0 0 18 19" style="enable-background:new 0 0 18 19;" xml:space="preserve"><style type="text/css">.st0{fill-rule:evenodd;clip-rule:evenodd;fill:#666F79;}</style><path class="st0" d="M11.2,12.6c0.8-0.8,1.4-2.1,2-3.6c0.4-0.9,0.4-4.7,0.2-5.4c-0.7-2.3-2.4-3-4.4-3c0,0,0,0,0,0s0,0,0,0c-2,0-3.7,0.6-4.4,3C4.4,4.3,4.5,8.1,4.8,9c0.6,1.5,1.2,2.8,2,3.6c-3,0.5-6.1,2.9-6.1,2.9v2.8l8.3,0l8.3,0v-2.8C17.3,15.5,14.2,13.1,11.2,12.6z"/></svg>