<?xml version="1.0" encoding="UTF-8" standalone="no"?>
<svg width="30px" height="30px" viewBox="0 0 30 30" version="1.1" xmlns="http://www.w3.org/2000/svg" xmlns:xlink="http://www.w3.org/1999/xlink">
    <!-- Generator: sketchtool 3.7.2 (28276) - http://www.bohemiancoding.com/sketch -->
    <title>F83E2CDA-56CD-487D-AD35-46312A3FD7AA</title>
    <desc>Created with sketchtool.</desc>
    <defs></defs>
    <g id="Page-1" stroke="none" stroke-width="1" fill="none" fill-rule="evenodd">
        <g id="MVP-entry-point-theming" transform="translate(-196.000000, -234.000000)">
            <g id="right-rail-walking-dead" transform="translate(61.000000, 234.000000)">
                <g id="logo-[-]-copy-2" transform="translate(135.000000, 0.000000)">
                    <circle id="bckgr" fill="#101B2E" cx="15" cy="15" r="15"></circle>
                    <path d="M9.84818182,6 C8.55102273,6 7.5,7.04355682 7.5,8.33045455 C7.5,9.61723295 8.55102273,10.6602102 9.84818182,10.6602102 C11.1458523,10.6602102 12.196875,9.61723295 12.196875,8.33045455 C12.196875,7.04355682 11.1458523,6 9.84818182,6" id="Fill-5" fill="#FFFFFF"></path>
                    <polyline id="Fill-6" fill="#FFFFFF" points="13.3852841 14.5327841 13.3852841 11.9829545 7.5 11.9829545 7.5 24.0809318 13.3852841 24.0809318 13.3852841 21.5427443 11.5411364 21.5427443 11.5411364 14.5327841 13.3852841 14.5327841"></polyline>
                    <path d="M17.7954545,8.33045455 C17.7954545,9.61723295 18.8471591,10.6602102 20.1444886,10.6602102 C21.4416477,10.6602102 22.4931818,9.61723295 22.4931818,8.33045455 C22.4931818,7.04355682 21.4416477,6 20.1444886,6 C18.8471591,6 17.7954545,7.04355682 17.7954545,8.33045455" id="Fill-7" fill="#FFFFFF"></path>
                    <polyline id="Fill-8" fill="#FFFFFF" points="18.44625 21.5427443 16.6022727 21.5427443 16.6022727 24.0809318 22.4884091 24.0809318 22.4884091 11.9829545 16.6022727 11.9829545 16.6022727 14.5327841 18.44625 14.5327841 18.44625 21.5427443"></polyline>
                </g>
            </g>
        </g>
    </g>
</svg>