<svg width="30" height="30" viewBox="0 0 30 30" xmlns="http://www.w3.org/2000/svg"><title>F83E2CDA-56CD-487D-AD35-46312A3FD7AA</title><g fill="none" fill-rule="evenodd"><circle fill="#101B2E" cx="15" cy="15" r="15"/><path d="M9.848 6C8.55 6 7.5 7.044 7.5 8.33c0 1.287 1.05 2.33 2.348 2.33 1.298 0 2.35-1.043 2.35-2.33 0-1.286-1.052-2.33-2.35-2.33M13.385 14.533v-2.55H7.5V24.08h5.885v-2.537H11.54v-7.01h1.845M17.795 8.33c0 1.287 1.052 2.33 2.35 2.33 1.297 0 2.348-1.043 2.348-2.33 0-1.286-1.05-2.33-2.35-2.33-1.296 0-2.348 1.044-2.348 2.33M18.446 21.543h-1.844v2.538h5.886V11.984h-5.886v2.55h1.844v7.01" fill="#FFF"/></g></svg>