<svg id="Layer_4_copy_2" data-name="Layer 4 copy 2" xmlns="http://www.w3.org/2000/svg" viewBox="0 0 28 28"><defs><style>.cls-1{fill:#fff;opacity:0.4;}.cls-2{fill:#231f20;}</style></defs><title>close_button</title><circle class="cls-1" cx="14.09" cy="14.09" r="13.74"/><path class="cls-2" d="M16,2.93A13.07,13.07,0,1,1,2.93,16,13.08,13.08,0,0,1,16,2.93M16,2A14,14,0,1,0,30,16,14,14,0,0,0,16,2Z" transform="translate(-2 -2)"/><g id="Page-1"><g id="STICKERSHEET"><g id="Icons"><g id="Cross"><path id="Close" class="cls-2" d="M22.29,8.29,16,14.59,9.71,8.29A1,1,0,0,0,8.29,9.71L14.59,16,8.29,22.29a1,1,0,1,0,1.41,1.41L16,17.41l6.29,6.29a1,1,0,1,0,1.41-1.41L17.41,16l6.29-6.29a1,1,0,0,0-1.41-1.41Z" transform="translate(-2 -2)"/></g></g></g></g></svg>