<svg xmlns="http://www.w3.org/2000/svg" width="22" height="14" style=""><rect id="backgroundrect" width="100%" height="100%" x="0" y="0" fill="none" stroke="none"/><g class="currentLayer" style=""><title>Layer 1</title><path d="M8.45.17L4.664 4.28H1.036C.256 4.28 0 4.74 0 5.175v3.522c0 .436.256.985 1.036.985h3.646l3.785 4.176c.165.092.35.143.533.143a.964.964 0 0 0 .5-.136c.33-.185.5-.526.5-.897V1.013c0-.37-.17-.713-.5-.898-.33-.186-.72-.13-1.05.054zM18.413 7l3.294-3.294a1 1 0 0 0-1.412-1.413L17 5.588l-3.294-3.295a.998.998 0 1 0-1.413 1.413L15.588 7l-3.295 3.295a.998.998 0 1 0 1.413 1.412L17 8.413l3.295 3.294a.996.996 0 0 0 1.412 0 1 1 0 0 0 0-1.412L18.413 7z" id="svg_1" class="" fill="#ffffff" fill-opacity="1"/></g></svg>
