<svg id="Layer_4_copy_3" data-name="Layer 4 copy 3" xmlns="http://www.w3.org/2000/svg" viewBox="0 0 28 28"><defs><style>.cls-1{fill:#fff;opacity:0.4;}.cls-2{fill:#231f20;}</style></defs><title>replay_button</title><circle class="cls-1" cx="14.07" cy="14.03" r="13.77"/><path class="cls-2" d="M16,2.93A13.07,13.07,0,1,1,2.93,16,13.08,13.08,0,0,1,16,2.93M16,2A14,14,0,1,0,30,16,14,14,0,0,0,16,2Z" transform="translate(-2 -2)"/><g id="Page-1"><g id="STICKERSHEET"><g id="Icons"><g id="Refresh"><path class="cls-2" d="M16,24.47a8.42,8.42,0,0,0,8.47-8.34.77.77,0,0,0-1.54,0,6.91,6.91,0,1,1-1.56-4.29l-2.92-.39a.76.76,0,1,0-.2,1.5l4.58.6h.1a.77.77,0,0,0,.76-.66l.61-4.51a.77.77,0,0,0-1.53-.2l-.34,2.53a8.48,8.48,0,0,0-14.9,5.41A8.42,8.42,0,0,0,16,24.47" transform="translate(-2 -2)"/></g></g></g></g></svg>