<?xml version="1.0" standalone="no"?>
<!DOCTYPE svg PUBLIC "-//W3C//DTD SVG 1.1//EN" "http://www.w3.org/Graphics/SVG/1.1/DTD/svg11.dtd">
<svg xmlns="http://www.w3.org/2000/svg">
<metadata>Generated by Fontastic.me</metadata>
<defs>
<font id="styleguide-icons" horiz-adv-x="512">
<font-face font-family="styleguide-icons" units-per-em="512" ascent="480" descent="-32"/>
<missing-glyph horiz-adv-x="512" />

<glyph unicode="&#61441;" d="M155 225l25 0 0-25-25 0z m0 115l25 0 0-25-25 0z m38-153l26 0 0-26-26 0z m39 0l115 0 0-26-115 0z m-40 38l155 0 0-25-155 0z m1 39l26 0 0-26-26 0z m0 38l26 0 0-26-26 0z m39-38l115 0 0-26-115 0z m0 38l115 0 0-26-115 0z m-40 38l155 0 0-25-155 0z"/>
<glyph unicode="&#61442;" d="M207 178l-44-18c-3-1-3 0-3 3l18 44c1 3 2 3 4 2l27-27c1-2 1-4-2-4z m85 146l32-32-103-102-31 31z m59-7l-12-11-4-4-3 4-25 24-4 4 4 4 12 11c2 3 6 3 7 0l25-24c1-1 1-5 0-8z"/>
<glyph unicode="&#61443;" d="M351 271l-5 20 14 15-11 17-20-6-14 15 6 20-16 10-14-15-20 5-5 20-20 0-5-20-20-5-14 15-16-10 5-20-14-15-21 7-10-17 15-15-5-19-20-5 0-21 20-6 5-20-15-14 10-16 21 5 14-14-7-21 17-10 15 15 20-5 5-20 19 0 6 20 20 5 14-15 16 10-5 21 14 14 21-7 10 17-15 15 5 20 20 5 0 20z m-95-64c-27 0-49 22-49 49 0 27 22 49 49 49 27 0 49-22 49-49 0-27-22-49-49-49z"/>
<glyph unicode="&#61445;" d="M316 339l-23 0c-18 0-22-9-22-22l0-29 44 0-5-46-37 0 0-117-46 0 0 117-39 0 0 46 39 0 0 33c0 39 23 60 56 60 15 0 29-1 33-1z"/>
<glyph unicode="&#61446;" d="M357 298c0-2 0-4 0-6 0-63-47-135-134-135-27 0-51 8-73 22 4 0 7-1 11-1 22 0 43 8 59 20-20 0-38 14-43 34 2 0 6-2 9-2 3 0 5 0 10 2-23 5-42 24-42 47 0-4 16-5 24-6-13 9-19 23-19 39 0 9 2 17 7 25 23-29 59-48 98-50-2 4-2 7-2 10 0 26 22 47 48 47 14 0 25-5 34-15 11 3 21 6 30 11-4-11-12-20-21-25 9 1 19 4 27 8-6-9-14-18-23-25z"/>
<glyph unicode="&#61444;" d="M361 177l-202 0 0 149 84 0c-11-5-22-18-25-21l-39 0 0-107 160 0 0 23 22 16z m-53 53l0 50c-2 0-5 0-10 0-5 0-10-1-16-1-7-1-12-3-18-4-7-1-13-4-20-7-6-3-12-7-17-12-6-5-11-10-15-17 2 16 7 29 15 41 3 5 7 11 11 16 5 5 10 10 18 14 6 4 14 7 23 10 9 3 18 4 29 5l0 45 91-70z"/>
<glyph unicode="&#61447;" d="M397 262c0 20-16 34-33 34-12 0-21-5-27-13-20 11-44 19-71 20l14 46 40-9c1-14 13-25 28-25 16 0 28 13 28 28 0 15-12 28-28 28-11 0-20-6-25-15l-48 11c-4 2-7-1-9-5l-18-56c-28-1-55-9-74-21-6 8-15 13-27 13-16-1-32-16-32-36 0-14 9-26 22-32 0-1 0-2 0-3 0-43 52-77 119-77 65 0 119 34 119 77 0 1 0 2 0 3 12 6 22 18 22 32z m-48 93c8 0 13-7 13-13 0-8-6-13-13-13-7 0-12 6-12 13 0 7 5 13 12 13z m-208-109c-7 2-10 9-10 16 0 11 7 18 17 18 6 0 11-2 15-6-11-8-18-17-22-28z m54-4c0 10 9 19 19 19 10 0 19-9 19-19 0-10-9-19-19-19-10 0-19 9-19 19z m106-54c-9-9-25-14-45-14-20 0-35 5-45 14-2 3-2 5 0 8 3 2 5 2 8 0 8-8 19-10 37-10 18 0 29 3 37 10 3 2 5 2 8 0 1-3 1-7 0-8z m-3 35c-10 0-19 9-19 19 0 10 9 19 19 19 10 0 19-9 19-19 0-10-9-19-19-19z m72 23c-4 10-12 20-22 28 4 4 8 6 14 6 10 0 18-7 18-18 1-7-4-14-10-16z"/>
<glyph unicode="&#61448;" d="M287 200c-16 0-31 9-36 18 0 0-9-34-10-40-7-23-25-46-27-47-2-2-4-2-4 1 0 2-5 32 0 55 2 11 19 79 19 79 0 0-5 9-5 23 0 22 13 37 28 37 13 0 19-10 19-21 0-13-9-34-12-52-4-15 7-28 23-28 28 0 46 36 46 78 0 32-22 57-60 57-45 0-72-34-72-71 0-13 4-21 10-28 3-2 3-4 3-8-2-2-3-9-3-11-1-4-4-5-8-4-20 8-29 31-29 55 0 41 35 91 104 91 55 0 92-40 92-83 1-58-31-101-78-101z"/>
<glyph unicode="&#61449;" d="M279 142c-50-1-69 36-69 62l0 75-23 0 0 29c34 13 43 45 46 63 0 1 1 1 1 1 0 0 35 0 35 0l0-58 46 0 0-35-46 0 0-72c0-10 4-23 22-23 6 0 14 3 19 4l11-33c-6-5-25-13-42-13z"/>
<glyph unicode="&#61450;" d="M413 259l-34 0 0-34-19 0 0 34-34 0 0 19 34 0 0 33 19 0 0-33 34 0z m-133-21l-11 9c-1 1-4 4-5 5-3 3-3 5-3 9 0 4 1 7 3 9 1 3 4 5 5 6 4 3 6 7 9 9 2 3 5 7 7 9 6 7 8 17 8 29 0 6-1 11-2 16-2 5-4 9-7 13-2 4-5 6-8 9-2 3-3 5-6 5l21 0 19 13-64 0c-9 0-18-1-28-3-11-2-20-7-30-15-14-13-20-28-20-44 0-12 5-24 14-34 9-10 22-17 39-17 4 0 7 0 11 0 0-1-2-4-3-5-1-1-1-4-1-8 0-5 1-9 4-12 1-4 4-7 6-11-8 0-17-1-28-2-12-3-23-7-33-12-9-5-16-11-20-19-3-8-5-14-5-20 0-13 5-23 17-32 11-9 28-14 51-14 27 0 48 6 63 19 14 13 20 25 20 42 0 12-2 20-7 27-3 8-9 14-16 19z m-41 37c-6 0-12 3-18 7-5 3-9 9-12 15-7 13-11 26-11 37 0 9 3 17 8 24 6 7 13 11 22 11 6 0 13-3 18-7 5-4 9-9 11-15 7-13 11-26 11-39 0-2 0-6-2-11-1-4-2-9-5-13-6-5-13-9-22-9z m34-120c-8-7-20-10-35-10-17 0-31 3-41 11-10 8-15 17-15 28 0 7 1 11 4 16 2 4 5 7 7 10 3 2 7 5 9 6 3 2 5 3 7 3 6 2 14 4 20 5 7 0 12 1 13 0 2 0 5 0 8 0 11-9 20-15 26-22 6-6 8-13 8-22 0-10-4-19-11-25z"/>
<glyph unicode="&#61451;" d="M197 325c3 4 5 7 10 8 4 1 9 2 13 2 8 0 17 0 24 0 4 0 8 0 13-1 8-1 12-5 12-13 0-5 0-11 0-16 0-5-1-12-1-17 0-4 0-8 0-12 0-5 0-8 3-14 3-3 4-3 8-1 3 1 4 4 6 7 12 15 22 32 29 49 1 2 1 4 2 6 3 5 7 7 13 7 5 0 10 0 15 0 8 0 16 0 23 0 4 0 7 0 11-1 3-1 6-4 5-8-2-6-4-11-8-18-6-10-13-19-20-28-6-6-9-11-13-18-2-1-2-2-3-4-2-6-2-11 3-16 5-5 10-10 15-16 8-7 15-15 21-25 1-3 2-5 3-8 2-4 0-6-3-8-4-2-8-2-12-2-8 0-17 0-24 0-4 0-8 0-13-1-1 0-3 0-4 0-8 1-14 6-20 11-5 5-11 12-16 17-1 2-4 4-6 6-1 1-4 3-5 3-4 0-8-2-9-5-1-4-1-7-3-11 0-3 0-6-1-10-1-6-3-9-12-10-6-1-12 0-20 0-9 1-18 2-27 6-13 5-24 13-34 23-11 11-20 23-27 35-13 18-23 38-32 59-3 5-5 11-8 18 0 2-1 4-1 6 0 1 0 3 1 3 3 1 5 2 8 2 6 0 12 0 19 0 5 0 11 0 16 0 2 0 3 0 4 0 4 0 5-2 8-5 1-2 3-6 5-9 7-15 15-29 24-43 3-3 4-7 7-9 1-2 2-3 5-4 3-1 5 0 6 2 2 3 3 6 3 8 1 12 1 24 1 36 0 2-1 5-1 8-1 3-4 6-8 7-2 2-4 2-6 3 2 1 2 1 1 1z"/>
<glyph unicode="&#61452;" d="M387 292c-20-18-39-36-58-54-3-2-4-5-3-9 0-2 2-5 2-8-11 0-21 0-31 2-10 0-22 1-32 1-6 0-14 1-21 1-1 0-2 0-2 2 2 2 6 3 9 6 25 18 51 36 77 54 0 0 1 0 1 1 0 1-1 0-1 0-17 4-34 5-50 6-18 2-37 0-55-1-14-1-28-4-44-6-2 0-5-2-6-2 0 0 1 0 1 0 14 0 28-1 42-1 16-1 32-1 48-4 5 0 10-1 16-2 0 0 2 0 2 0 0 0 0-2-2-2-1 0-1-1-2-1-27-19-55-38-82-59 0 0 0-1 0-1 1 0 2 0 2 0 17-3 34-3 50-4 18 0 36 0 54 3 13 1 24 2 36 5 1 0 2 1 4 1 1 0 4 1 4 1-4-3-9-5-13-6-4-1-4-1-3-5 0 0 0-1 0-1 2-7 3-13 4-20 1-3 1-9 3-12 0-4 1-7 1-11 1-6 2-11 4-18 0-1 0-2 0-2-2-3-3-4-5-4-2 0-3 1-4 1-23 13-45 27-68 40-5 3-9 3-14 0-23-13-46-27-68-40-4-1-4-2-5-2-4-1-8 2-6 6 1 5 1 9 2 14 0 4 1 7 3 11 0 1 0 2 1 3 1 5 1 9 2 14 2 7 3 12 4 18 2 5 3 12 3 17 0 3 1 4 1 6 1 3 1 6-2 8-20 18-40 37-59 55-2 1-3 3-4 5 0 3 1 5 5 5 5 2 12 2 17 3 7 1 14 1 21 2 8 2 14 2 22 3 7 1 14 1 21 3 3 0 6 2 7 6 5 12 11 23 17 35 6 12 13 26 19 39 1 2 1 3 3 4 2 3 5 3 6 0 1-1 1-2 3-4 11-25 23-51 34-77 2-3 5-5 9-5 9-1 19-1 28-2 9-2 18-2 27-3 8-1 17-1 25-2 2 0 5-2 5-4-2-5-3-7-5-9z"/>
<glyph unicode="&#61453;" d="M384 157l-26-25-98 98-99-98-25 25 98 99-98 99 25 25 99-98 98 98 26-25-99-99z"/>
<glyph unicode="&#61469;" d="M256 499c-134 0-243-109-243-243 0-134 109-243 243-243 134 0 243 109 243 243 0 134-109 243-243 243z m128-342l-26-25-98 98-99-98-25 25 98 99-98 99 25 25 99-98 98 98 26-25-99-99z"/>
<glyph unicode="&#61468;" d="M256 499c-134 0-243-109-243-243 0-134 109-243 243-243 134 0 243 109 243 243 0 134-109 243-243 243z m131-207c-20-18-39-36-58-54-3-2-4-5-3-9 0-2 2-5 2-8-11 0-21 0-31 2-10 0-22 1-32 1-6 0-14 1-21 1-1 0-2 0-2 2 2 2 6 3 9 6 25 18 51 36 77 54 0 0 1 0 1 1 0 1-1 0-1 0-17 4-34 5-50 6-18 2-37 0-55-1-14-1-28-4-44-6-2 0-5-2-6-2 0 0 1 0 1 0 14 0 28-1 42-1 16-1 32-1 48-4 5 0 10-1 16-2 0 0 2 0 2 0 0 0 0-2-2-2-1 0-1-1-2-1-27-19-55-38-82-59 0 0 0-1 0-1 1 0 2 0 2 0 17-3 34-3 50-4 18 0 36 0 54 3 13 1 24 2 36 5 1 0 2 1 4 1 1 0 4 1 4 1-4-3-9-5-13-6-4-1-4-1-3-5 0 0 0-1 0-1 2-7 3-13 4-20 1-3 1-9 3-12 0-4 1-7 1-11 1-6 2-11 4-18 0-1 0-2 0-2-2-3-3-4-5-4-2 0-3 1-4 1-23 13-45 27-68 40-5 3-9 3-14 0-23-13-46-27-68-40-4-1-4-2-5-2-4-1-8 2-6 6 1 5 1 9 2 14 0 4 1 7 3 11 0 1 0 2 1 3 1 5 1 9 2 14 2 7 3 12 4 18 2 5 3 12 3 17 0 3 1 4 1 6 1 3 1 6-2 8-20 18-40 37-59 55-2 1-3 3-4 5 0 3 1 5 5 5 5 2 12 2 17 3 7 1 14 1 21 2 8 2 14 2 22 3 7 1 14 1 21 3 3 0 6 2 7 6 5 12 11 23 17 35 6 12 13 26 19 39 1 2 1 3 3 4 2 3 5 3 6 0 1-1 1-2 3-4 11-25 23-51 34-77 2-3 5-5 9-5 9-1 19-1 28-2 9-2 18-2 27-3 8-1 17-1 25-2 2 0 5-2 5-4-2-5-3-7-5-9z"/>
<glyph unicode="&#61467;" d="M256 499c-134 0-243-109-243-243 0-134 109-243 243-243 134 0 243 109 243 243 0 134-109 243-243 243z m122-319c-4-2-8-2-12-2-8 0-17 0-24 0-4 0-8 0-13-1-1 0-3 0-4 0-8 1-14 6-20 11-5 5-11 12-16 17-1 2-4 4-6 6-1 1-4 3-5 3-4 0-8-2-9-5-1-4-1-7-3-11 0-3 0-6-1-10-1-6-3-9-12-10-6-1-12 0-20 0-9 1-18 2-27 6-13 5-24 13-34 23-11 11-20 23-27 35-13 18-23 38-32 59-3 5-5 11-8 18 0 2-1 4-1 6 0 1 0 3 1 3 3 1 5 2 8 2 6 0 12 0 19 0 5 0 11 0 16 0 2 0 3 0 4 0 4 0 5-2 8-5 1-2 3-6 5-9 7-15 15-29 24-43 3-3 4-7 7-9 1-2 2-3 5-4 3-1 5 0 6 2 2 3 3 6 3 8 1 12 1 24 1 36 0 2-1 5-1 8-1 3-4 6-8 7-2 2-4 2-6 3 0 0-1 0-1 1 2 4 5 7 10 8 4 1 9 2 13 2 7 0 16 0 24 0 4 0 8 0 13-1 7-1 11-5 11-13 0-5 0-11 0-16 0-5-1-12-1-17 0-4 0-8 0-12 0-5 0-8 4-14 2-3 4-3 7-1 3 1 4 4 7 7 11 15 22 32 28 49 1 2 1 4 3 6 2 5 6 7 12 7 6 0 11 0 16 0 7 0 15 0 23 0 4 0 6 0 10-1 4-1 6-4 5-8-1-6-4-11-8-18-6-10-12-19-20-28-5-6-9-11-13-18-1-1-1-2-2-4-3-6-3-11 2-16 5-5 10-10 16-16 7-7 15-15 20-25 1-3 3-5 4-8 2-4 1-6-1-8z"/>
<glyph unicode="&#61466;" d="M244 362c-5 4-11 5-17 7-9 0-17-4-22-11-5-7-8-15-8-24 0-11 4-24 10-37 4-6 8-12 13-15 5-4 12-7 18-7 9 0 15 4 22 9 2 4 5 9 5 13 0 4 1 8 1 11 0 13-4 26-10 39-3 6-6 11-12 15z m-1-139c-1 0-6 0-13 0-6-2-14-3-20-5-1 0-4-2-6-3-3-1-7-4-9-6-3-3-6-7-8-11-3-3-4-9-4-15 0-11 5-20 15-28 11-8 23-12 41-12 16 0 27 4 35 11 8 6 11 15 11 25 0 8-2 16-7 22-5 6-14 13-27 22-3 0-5 0-8 0z m13 276c-134 0-243-109-243-243 0-134 109-243 243-243 134 0 243 109 243 243 0 134-109 243-243 243z m23-137c3-2 5-5 8-9 2-4 4-7 6-13 1-5 3-10 3-16 0-12-3-21-8-28-3-4-5-7-8-9-2-3-6-7-9-9-2-3-3-4-5-7-2-2-2-5-2-9 0-3 1-6 2-9 2-2 4-3 5-5l12-9c6-5 13-11 18-19 5-6 7-15 7-27 0-15-6-29-20-42-14-13-36-19-63-19-23 0-39 5-51 14-11 9-17 19-17 32 0 6 2 13 6 20 3 8 10 14 19 20 10 6 22 10 33 11 12 1 21 3 28 3-2 2-4 6-6 10-3 4-4 8-4 13 0 2 0 5 1 7 2 3 2 4 3 6-4 0-8 0-10 0-18 0-31 5-40 16-9 10-14 22-14 35 0 16 6 30 20 43 9 8 19 13 30 16 10 2 19 2 28 2l64 0-19-13-21 0c-1 0 1-2 4-5z m134-103l-34 0 0-34-19 0 0 34-34 0 0 20 34 0 0 33 19 0 0-33 34 0z"/>
<glyph unicode="&#61465;" d="M256 499c-134 0-243-109-243-243 0-134 109-243 243-243 134 0 243 109 243 243 0 134-109 243-243 243z m23-357c-50-1-69 36-69 62l0 75-23 0 0 29c34 13 43 45 46 63 0 1 1 1 1 1 0 0 35 0 35 0l0-58 46 0 0-35-46 0 0-72c0-10 4-23 22-23 6 0 14 3 19 4l11-33c-6-5-25-13-42-13z"/>
<glyph unicode="&#61464;" d="M256 499c-134 0-243-109-243-243 0-134 109-243 243-243 134 0 243 109 243 243 0 134-109 243-243 243z m31-299c-16 0-31 9-36 18 0 0-9-34-10-40-7-23-25-46-27-47-2-2-4-2-4 1 0 2-5 32 0 55 2 11 19 79 19 79 0 0-5 9-5 23 0 22 13 37 28 37 13 0 19-10 19-21 0-13-9-34-12-52-4-15 7-28 23-28 28 0 46 36 46 78 0 32-22 57-60 57-45 0-72-34-72-71 0-13 4-21 10-28 3-2 3-4 3-8-2-2-3-9-3-11-1-4-4-5-8-4-20 8-29 31-29 55 0 41 35 91 104 91 55 0 92-40 92-83 1-58-31-101-78-101z"/>
<glyph unicode="&#61463;" d="M131 262c0-7 3-12 10-16 4 10 11 20 22 28-4 4-8 6-15 6-8 2-17-7-17-18z m231 80c0-7-5-13-13-13-7 0-12 6-12 13 0 7 5 13 12 13 8 0 13-6 13-13z m-129-100c0 10-9 19-19 19-10 0-19-9-19-19 0-10 9-19 19-19 11 0 19 9 19 19z m23 257c-134 0-243-109-243-243 0-134 109-243 243-243 134 0 243 109 243 243 0 134-109 243-243 243z m118-269c0-1 0-2 0-3 0-43-53-77-119-77-66 0-119 34-119 77 0 1 0 2 0 3-13 6-22 17-22 32 0 20 15 34 33 34 10 0 21-5 27-13 19 11 46 19 74 20l18 57c2 4 5 6 9 5l48-12c5 9 14 16 25 16 16 0 28-13 28-29 0-15-12-28-28-28-15 0-27 12-28 26l-40 9-14-46c27-1 51-9 71-21 6 8 15 13 27 13 19 0 33-15 33-33 0-12-10-24-23-30z m-10 52c-6 0-11-3-15-7 11-7 17-18 22-28 7 3 12 9 12 17-2 9-11 18-19 18z m-71-87c-8-8-19-11-37-11-18 0-29 4-37 11-3 2-5 2-8 0-2-3-2-6 0-8 9-9 25-14 45-14 20 0 35 5 45 14 2 2 2 5 0 8-3 2-5 2-8 0z m5 66c-10 0-19-9-19-19 0-10 9-19 19-19 10 0 19 9 19 19 0 10-9 19-19 19z"/>
<glyph unicode="&#61460;" d="M256 499c-134 0-243-109-243-243 0-134 109-243 243-243 134 0 243 109 243 243 0 134-109 243-243 243z m105-322l-202 0 0 149 84 0c-11-5-22-18-25-21l-39 0 0-107 160 0 0 23 22 16z m-53 53l0 50c-2 0-5 0-10 0-5 0-10-1-16-1-7-1-12-3-18-4-7-1-13-4-20-7-6-3-12-7-17-12-6-5-11-10-15-17 2 16 7 29 15 41 3 5 7 11 11 16 5 5 10 10 18 14 6 4 14 7 23 10 9 3 18 4 29 5l0 45 91-70z"/>
<glyph unicode="&#61462;" d="M256 499c-134 0-243-109-243-243 0-134 109-243 243-243 134 0 243 109 243 243 0 134-109 243-243 243z m101-201c0-2 0-4 0-6 0-63-47-135-134-135-27 0-51 8-73 22 4 0 7-1 11-1 22 0 43 8 59 20-20 0-38 14-43 34 2 0 6-2 9-2 3 0 5 0 10 2-23 5-42 24-42 47 0-4 16-5 24-6-13 9-19 23-19 39 0 9 2 17 7 25 23-29 59-48 98-50-2 4-2 7-2 10 0 26 22 47 48 47 14 0 25-5 34-15 11 3 21 6 30 11-4-11-12-20-21-25 9 1 19 4 27 8-6-9-14-18-23-25z"/>
<glyph unicode="&#61461;" d="M256 499c-134 0-243-109-243-243 0-134 109-243 243-243 134 0 243 109 243 243 0 134-109 243-243 243z m60-160l-23 0c-18 0-22-9-22-22l0-29 44 0-5-46-37 0 0-117-46 0 0 117-39 0 0 46 39 0 0 33c0 39 23 60 56 60 15 0 29-1 33-1z"/>
<glyph unicode="&#61459;" d="M256 499c-134 0-243-109-243-243 0-134 109-243 243-243 134 0 243 109 243 243 0 134-109 243-243 243z m115-253l-20-5-5-20 15-15-10-17-21 7-14-14 5-21-16-10-14 15-20-5-6-20-19 0-5 20-20 5-15-15-17 10 7 21-14 14-21-5-10 16 15 14-5 20-20 6 0 21 20 5 5 19-15 15 10 17 21-7 14 15-5 20 16 10 14-15 20 5 5 20 20 0 5-20 20-5 14 15 16-10-6-20 14-15 20 6 11-17-14-15 5-20 20-5z m-115 59c-27 0-49-22-49-49 0-27 22-49 49-49 27 0 49 22 49 49 0 27-22 49-49 49z"/>
<glyph unicode="&#61458;" d="M256 499c-134 0-243-109-243-243 0-134 109-243 243-243 134 0 243 109 243 243 0 134-109 243-243 243z m-49-321l-44-18c-3-1-3 0-3 3l18 44c1 3 2 3 4 2l27-27c1-2 1-4-2-4z m14 11l-32 32 103 103 32-32z m130 128l-12-11-4-4-3 4-25 24-4 4 4 4 12 11c2 3 6 3 7 0l25-24c1-1 1-5 0-8z"/>
<glyph unicode="&#61457;" d="M256 499c-134 0-243-109-243-243 0-134 109-243 243-243 134 0 243 109 243 243 0 134-109 243-243 243z m-76-299l-25 0 0 25 25 0z m0 115l-25 0 0 25 25 0z m39-154l-26 0 0 26 26 0z m128 0l-115 0 0 26 115 0z m0 39l-155 0 0 25 155 0z m-128 64l0-26-26 0 0 26z m-26 12l0 26 26 0 0-26z m154-38l-115 0 0 26 115 0z m0 38l-115 0 0 26 115 0z m0 39l-155 0 0 25 155 0z"/>
<glyph unicode="&#61472;" d="M256 284c-26 0-45-20-45-45 0-25 21-44 45-44 26 0 45 20 45 44 1 25-19 45-45 45z m131 105l-15 28c-3 8-12 13-21 13l-186 0c-8 0-18-6-22-13l-14-28-116 0 0-11c0-2 0-2 0-3l0-276c0-2 0-3 0-3l0-12 486 0 0 305z m-131-265c-63 0-115 51-115 115 0 63 51 114 115 114 64 0 115-51 115-114 0-64-51-115-115-115z"/>
<glyph unicode="&#61473;" d="M201 214c-3-7-9-12-15-12l-107 0c-9 0-16 8-16 17l0 73c0 9 7 16 16 16l107 0c7 0 14-5 15-11l51 0c-2 35-32 61-66 61l-107 0c-37 0-66-29-66-66l0-73c0-37 29-67 66-67l107 0c34 0 64 27 66 62z m298 6l0 73c0 37-29 67-66 67l-107 0c-35 0-64-27-66-62l51 0c3 7 9 12 15 12l107 0c9 0 16-8 16-17l0-73c0-9-7-16-16-16l-107 0c-7 0-12 5-15 11l-51 0c2-35 32-61 66-61l107 0c37-2 66 29 66 66z m-377 36c0-14 11-26 25-26l217 0c14 0 25 12 25 26 0 14-11 26-25 26l-217 0c-15-2-25-12-25-26z"/>
<glyph unicode="&#61474;" d="M13 471l0-431 486 0 0 431z m429-114l-57 0 0 58 57 0z m-85-87l-201 0 0 145 202 0 0-145z m-230 0l-57 0 0 59 57 0z m0-28l0-58-57 0 0 58z m29 0l202 0 0-143-202 0z m231 0l56 0 0-58-56 0z m0 28l0 59 56 0 0-59z m-260 145l0-57-57 0 0 57z m-57-260l57 0 0-58-57 0z m317-58l0 58 56 0 0-58z"/>
<glyph unicode="&#61475;" d="M148 46l-135 0 0 420 135 0 0-70-65 0 0-280 65 0z m351 0l-135 0 0 70 65 0 0 280-65 0 0 70 135 0z"/>
<glyph unicode="&#61476;" d="M417 448c16-20 22-45 22-74 0-30-8-54-23-72-6-10-19-20-36-28 24-9 44-23 56-44 13-19 20-43 20-71 0-30-8-55-22-78-9-16-21-29-35-39-15-11-33-20-55-24-20-4-43-6-69-6l-219 0 0 487 236 0c59-1 101-18 125-51z m-263-33l0-108 117 0c22 0 39 4 52 12 12 7 19 21 19 42 0 23-9 37-26 45-15 5-34 7-57 7l-105 0z m0-188l0-130 117 0c21 0 37 3 49 9 22 10 32 31 32 60 0 26-10 43-31 53-11 5-28 8-48 8z"/>
<glyph unicode="&#61477;" d="M477 454l0 45-311 0 0-45 109 0-138-396-102 0 0-45 311 0 0 45-107 0 139 396z"/>
<glyph unicode="&#61478;" d="M493 266c-3 5-77 128-237 128-160 0-234-123-237-128l-6-10 6-10c3-5 77-128 237-128 160 0 234 123 237 128l6 10z m-237-106c-111 0-174 69-193 96 15 22 59 69 130 88-19-18-32-42-32-70 0-53 43-95 95-95 47 0 86 35 93 80l-67 15 65 28c-5 17-15 32-28 44 73-20 115-67 130-89-19-28-82-97-193-97z"/>
<glyph unicode="&#61479;" d="M280 351l-89 0 0 78-178-103 178-102 0 78 89 0c116 0 169-101 169-169l0-49 50 0 0 49c0 104-83 218-219 218z"/>
<glyph unicode="&#61480;" d="M133 59l-114-46c-6-3-6 1-6 7l46 114c2 7 6 7 9 3l68-68c4-4 4-10-3-10z m215 370l81-81-260-260-81 82z m149-16l-40-39-9 10-72 72 11 10 19 19 10 10c6 7 17 7 19 0l62-61c3-4 3-14 0-21z"/>
<glyph unicode="&#61481;" d="M155 225l25 0 0-25-25 0z m0 115l25 0 0-25-25 0z m38-153l26 0 0-26-26 0z m39 0l115 0 0-26-115 0z m-40 38l155 0 0-25-155 0z m1 39l26 0 0-26-26 0z m0 38l26 0 0-26-26 0z m39-38l115 0 0-26-115 0z m0 38l115 0 0-26-115 0z m-40 38l155 0 0-25-155 0z"/>
<glyph unicode="&#61488;" d="M256 284c-26 0-45-20-45-45 0-25 21-44 45-44 26 0 45 20 45 44 1 25-19 45-45 45z m131 105l-15 28c-3 8-12 13-21 13l-186 0c-8 0-18-6-22-13l-14-28-116 0 0-11c0-2 0-2 0-3l0-276c0-2 0-3 0-3l0-12 486 0 0 305z m-131-265c-63 0-115 51-115 115 0 63 51 114 115 114 64 0 115-51 115-114 0-64-51-115-115-115z"/>
<glyph unicode="&#61489;" d="M201 214c-3-7-9-12-15-12l-107 0c-9 0-16 8-16 17l0 73c0 9 7 16 16 16l107 0c7 0 14-5 15-11l51 0c-2 35-32 61-66 61l-107 0c-37 0-66-29-66-66l0-73c0-37 29-67 66-67l107 0c34 0 64 27 66 62z m298 6l0 73c0 37-29 67-66 67l-107 0c-35 0-64-27-66-62l51 0c3 7 9 12 15 12l107 0c9 0 16-8 16-17l0-73c0-9-7-16-16-16l-107 0c-7 0-12 5-15 11l-51 0c2-35 32-61 66-61l107 0c37-2 66 29 66 66z m-377 36c0-14 11-26 25-26l217 0c14 0 25 12 25 26 0 14-11 26-25 26l-217 0c-15-2-25-12-25-26z"/>
<glyph unicode="&#61490;" d="M411 81l-175 175 175 175-67 68-243-243 243-243z"/>
<glyph unicode="&#61491;" d="M101 81l175 175-175 175 67 68 243-243-243-243z"/>
<glyph unicode="&#61492;" d="M207 178l-44-18c-3-1-3 0-3 3l18 44c1 3 2 3 4 2l27-27c1-2 1-4-2-4z m85 146l32-32-103-102-31 31z m59-7l-12-11-4-4-3 4-25 24-4 4 4 4 12 11c2 3 6 3 7 0l25-24c1-1 1-5 0-8z"/>
<glyph unicode="&#61493;" d="M351 271l-5 20 14 15-11 17-20-6-14 15 6 20-16 10-14-15-20 5-5 20-20 0-5-20-20-5-14 15-16-10 5-20-14-15-21 7-10-17 15-15-5-19-20-5 0-21 20-6 5-20-15-14 10-16 21 5 14-14-7-21 17-10 15 15 20-5 5-20 19 0 6 20 20 5 14-15 16 10-5 21 14 14 21-7 10 17-15 15 5 20 20 5 0 20z m-95-64c-27 0-49 22-49 49 0 27 22 49 49 49 27 0 49-22 49-49 0-27-22-49-49-49z"/>
<glyph unicode="&#61494;" d="M13 471l0-431 486 0 0 431z m429-114l-57 0 0 58 57 0z m-85-87l-201 0 0 145 202 0 0-145z m-230 0l-57 0 0 59 57 0z m0-28l0-58-57 0 0 58z m29 0l202 0 0-143-202 0z m231 0l56 0 0-58-56 0z m0 28l0 59 56 0 0-59z m-260 145l0-57-57 0 0 57z m-57-260l57 0 0-58-57 0z m317-58l0 58 56 0 0-58z"/>
<glyph unicode="&#61495;" d="M497 60l-45-43c-4-4-10-4-14 0l-122 121c-31-19-66-32-106-32-109 0-197 89-197 196 0 109 88 197 197 197 109 0 197-88 197-197 0-40-11-75-32-106l122-122c3-4 3-10 0-14z m-154 242c0 74-60 134-134 134-75 0-135-60-135-134 0-74 60-134 135-134 74 1 134 61 134 134z"/>
<glyph unicode="&#61496;" d="M256 499c-134 0-243-109-243-243 0-134 109-243 243-243 134 0 243 109 243 243 0 134-109 243-243 243z m5-459c-69 0-130 33-170 83 1 0 1 1 2 1 27 12 67 42 126 54-15 17-27 41-39 72-6 18-5 32-5 53 0 16-2 41 2 54 12 46 46 60 84 60 39 0 72-13 85-59 3-14 1-38 1-55 0-21 1-35-5-53-12-31-23-55-39-72 59-10 100-41 127-54 1 0 1-1 3-1-41-50-103-83-172-83z"/>
<glyph unicode="&#61497;" d="M148 46l-135 0 0 420 135 0 0-70-65 0 0-280 65 0z m351 0l-135 0 0 70 65 0 0 280-65 0 0 70 135 0z"/>
<glyph unicode="&#61504;" d="M316 339l-23 0c-18 0-22-9-22-22l0-29 44 0-5-46-37 0 0-117-46 0 0 117-39 0 0 46 39 0 0 33c0 39 23 60 56 60 15 0 29-1 33-1z"/>
<glyph unicode="&#61505;" d="M357 298c0-2 0-4 0-6 0-63-47-135-134-135-27 0-51 8-73 22 4 0 7-1 11-1 22 0 43 8 59 20-20 0-38 14-43 34 2 0 6-2 9-2 3 0 5 0 10 2-23 5-42 24-42 47 0-4 16-5 24-6-13 9-19 23-19 39 0 9 2 17 7 25 23-29 59-48 98-50-2 4-2 7-2 10 0 26 22 47 48 47 14 0 25-5 34-15 11 3 21 6 30 11-4-11-12-20-21-25 9 1 19 4 27 8-6-9-14-18-23-25z"/>
<glyph unicode="&#61506;" d="M417 448c16-20 22-45 22-74 0-30-8-54-23-72-6-10-19-20-36-28 24-9 44-23 56-44 13-19 20-43 20-71 0-30-8-55-22-78-9-16-21-29-35-39-15-11-33-20-55-24-20-4-43-6-69-6l-219 0 0 487 236 0c59-1 101-18 125-51z m-263-33l0-108 117 0c22 0 39 4 52 12 12 7 19 21 19 42 0 23-9 37-26 45-15 5-34 7-57 7l-105 0z m0-188l0-130 117 0c21 0 37 3 49 9 22 10 32 31 32 60 0 26-10 43-31 53-11 5-28 8-48 8z"/>
<glyph unicode="&#61507;" d="M256 499c-134 0-243-109-243-243 0-134 109-243 243-243 134 0 243 109 243 243 0 134-109 243-243 243z m-93-368l0 249 249-124z"/>
<glyph unicode="&#61508;" d="M256 364c-60 0-108-49-108-108 0-60 49-108 108-108 59 0 108 49 108 108 1 59-48 108-108 108z m0-180c-38 0-70 32-70 71 0 38 32 70 70 70 38 0 70-32 70-70 0-39-30-71-70-71z m-20 315l42 0 0-74-42 0z m0-412l42 0 0-74-42 0z m189 191l74 0 0-42-74 0z m-412 0l74 0 0-42-74 0z m401 165l30-30-52-53-30 30z m-315-374l-30 29 53 53 30-30z m315 0l-53 53 30 30 52-53z m-315 375l53-52-30-30-53 52z"/>
<glyph unicode="&#61509;" d="M477 454l0 45-311 0 0-45 109 0-138-396-102 0 0-45 311 0 0 45-107 0 139 396z"/>
<glyph unicode="&#61510;" d="M361 177l-202 0 0 149 84 0c-11-5-22-18-25-21l-39 0 0-107 160 0 0 23 22 16z m-53 53l0 50c-2 0-5 0-10 0-5 0-10-1-16-1-7-1-12-3-18-4-7-1-13-4-20-7-6-3-12-7-17-12-6-5-11-10-15-17 2 16 7 29 15 41 3 5 7 11 11 16 5 5 10 10 18 14 6 4 14 7 23 10 9 3 18 4 29 5l0 45 91-70z"/>
<glyph unicode="&#61511;" d="M397 262c0 20-16 34-33 34-12 0-21-5-27-13-20 11-44 19-71 20l14 46 40-9c1-14 13-25 28-25 16 0 28 13 28 28 0 15-12 28-28 28-11 0-20-6-25-15l-48 11c-4 2-7-1-9-5l-18-56c-28-1-55-9-74-21-6 8-15 13-27 13-16-1-32-16-32-36 0-14 9-26 22-32 0-1 0-2 0-3 0-43 52-77 119-77 65 0 119 34 119 77 0 1 0 2 0 3 12 6 22 18 22 32z m-48 93c8 0 13-7 13-13 0-8-6-13-13-13-7 0-12 6-12 13 0 7 5 13 12 13z m-208-109c-7 2-10 9-10 16 0 11 7 18 17 18 6 0 11-2 15-6-11-8-18-17-22-28z m54-4c0 10 9 19 19 19 10 0 19-9 19-19 0-10-9-19-19-19-10 0-19 9-19 19z m106-54c-9-9-25-14-45-14-20 0-35 5-45 14-2 3-2 5 0 8 3 2 5 2 8 0 8-8 19-10 37-10 18 0 29 3 37 10 3 2 5 2 8 0 1-3 1-7 0-8z m-3 35c-10 0-19 9-19 19 0 10 9 19 19 19 10 0 19-9 19-19 0-10-9-19-19-19z m72 23c-4 10-12 20-22 28 4 4 8 6 14 6 10 0 18-7 18-18 1-7-4-14-10-16z"/>
<glyph unicode="&#61512;" d="M493 266c-3 5-77 128-237 128-160 0-234-123-237-128l-6-10 6-10c3-5 77-128 237-128 160 0 234 123 237 128l6 10z m-237-106c-111 0-174 69-193 96 15 22 59 69 130 88-19-18-32-42-32-70 0-53 43-95 95-95 47 0 86 35 93 80l-67 15 65 28c-5 17-15 32-28 44 73-20 115-67 130-89-19-28-82-97-193-97z"/>
<glyph unicode="&#61513;" d="M225 334c0 64 25 122 64 165 0 0 0 0-1 0-132 0-238-109-238-243 0-134 106-243 238-243 69 0 131 29 174 78-130 0-237 109-237 243z"/>
<glyph unicode="&#61520;" d="M280 351l-89 0 0 78-178-103 178-102 0 78 89 0c116 0 169-101 169-169l0-49 50 0 0 49c0 104-83 218-219 218z"/>
<glyph unicode="&#61521;" d="M287 200c-16 0-31 9-36 18 0 0-9-34-10-40-7-23-25-46-27-47-2-2-4-2-4 1 0 2-5 32 0 55 2 11 19 79 19 79 0 0-5 9-5 23 0 22 13 37 28 37 13 0 19-10 19-21 0-13-9-34-12-52-4-15 7-28 23-28 28 0 46 36 46 78 0 32-22 57-60 57-45 0-72-34-72-71 0-13 4-21 10-28 3-2 3-4 3-8-2-2-3-9-3-11-1-4-4-5-8-4-20 8-29 31-29 55 0 41 35 91 104 91 55 0 92-40 92-83 1-58-31-101-78-101z"/>
<glyph unicode="&#61522;" d="M279 142c-50-1-69 36-69 62l0 75-23 0 0 29c34 13 43 45 46 63 0 1 1 1 1 1 0 0 35 0 35 0l0-58 46 0 0-35-46 0 0-72c0-10 4-23 22-23 6 0 14 3 19 4l11-33c-6-5-25-13-42-13z"/>
<glyph unicode="&#61523;" d="M133 59l-114-45c-6-4-6 0-6 6l45 114c3 7 7 7 10 3l68-68c4-2 4-10-3-10z m215 370l81-81-260-260-81 82z m149-16l-40-39-9 10-72 72 11 10 19 19 10 10c6 7 17 7 19 0l62-61c2-5 2-14 0-21z"/>
<glyph unicode="&#61524;" d="M421 159c-23 10-50 27-89 37-3 5-6 11-8 19 37 6 73 17 73 26 0 14-53 114-53 131 0 0 0 0 0 2 0 2 0 5 0 6 0 49-38 74-88 74-51 0-90-25-90-74 0-1 0-4 0-5 0-1 0-1 0-3 0-17-51-117-51-131 0-8 36-18 72-26-3-8-7-14-8-20-39-11-65-27-87-38-59-25-78-65-78-65l0-34 486 0 0 34c-1 1-20 41-79 67z m-248 179c-16-24-41-90-41-95 0-1-1-2-3-2-1 0-2 1-2 2-2 8 28 77 41 97 10 17 25 26 46 29 7 0 19-3 25-4 2 0 4-1 4-1 1 0 4 0 7 0l3 0c6 0 11 1 17 2 10 1 21 4 26 4 20-1 37-12 48-30 13-20 43-89 41-98 0-3-2-4-5-4-1 0-2 1-2 1-2 2-2 3-2 4 0 5-25 71-39 94-14 23-35 24-41 24-2 0-3 0-4 0-5 0-16 0-36-3-1 0-1 0-1 0-12 0-12 0-12 0 0 0-18 6-28 4-6 2-27 0-42-24z m93-56l-22 0 0 10c0 6 6 10 12 10 6 0 12-5 12-10l0-10z m-74 33c-3 9 0 18 6 27 7 7 14 13 22 13l1 0c12 0 27-11 29-12l0-27c0 0-8-5-25-5-28-1-32 4-33 4z m20-87c-3 0-6 2-6 6 0 4 3 7 6 7 4 0 7-3 7-7 0-2-3-6-7-6z m15 11l-9 0 9 14z m12 0l-7 0 0 22 7 13z m14 0l-7 0 0 36 7 0z m13 0l-7 0 0 36 7 0z m13 0l-8 0 0 35 8-13z m5 0l0 14 9-14z m16-11c-4 0-7 2-7 6 0 4 3 7 7 7 3 0 6-3 6-7 0-2-3-6-6-6z m20 88c-1-1-5-5-33-5-17 0-23 5-25 5l0 27c2 0 17 12 29 12l1 0c6 0 15-6 22-13 6-8 9-17 6-26z"/>
<glyph unicode="&#61525;" d="M413 259l-34 0 0-34-19 0 0 34-34 0 0 19 34 0 0 33 19 0 0-33 34 0z m-133-21l-11 9c-1 1-4 4-5 5-3 3-3 5-3 9 0 4 1 7 3 9 1 3 4 5 5 6 4 3 6 7 9 9 2 3 5 7 7 9 6 7 8 17 8 29 0 6-1 11-2 16-2 5-4 9-7 13-2 4-5 6-8 9-2 3-3 5-6 5l21 0 19 13-64 0c-9 0-18-1-28-3-11-2-20-7-30-15-14-13-20-28-20-44 0-12 5-24 14-34 9-10 22-17 39-17 4 0 7 0 11 0 0-1-2-4-3-5-1-1-1-4-1-8 0-5 1-9 4-12 1-4 4-7 6-11-8 0-17-1-28-2-12-3-23-7-33-12-9-5-16-11-20-19-3-8-5-14-5-20 0-13 5-23 17-32 11-9 28-14 51-14 27 0 48 6 63 19 14 13 20 25 20 42 0 12-2 20-7 27-3 8-9 14-16 19z m-41 37c-6 0-12 3-18 7-5 3-9 9-12 15-7 13-11 26-11 37 0 9 3 17 8 24 6 7 13 11 22 11 6 0 13-3 18-7 5-4 9-9 11-15 7-13 11-26 11-39 0-2 0-6-2-11-1-4-2-9-5-13-6-5-13-9-22-9z m34-120c-8-7-20-10-35-10-17 0-31 3-41 11-10 8-15 17-15 28 0 7 1 11 4 16 2 4 5 7 7 10 3 2 7 5 9 6 3 2 5 3 7 3 6 2 14 4 20 5 7 0 12 1 13 0 2 0 5 0 8 0 11-9 20-15 26-22 6-6 8-13 8-22 0-10-4-19-11-25z"/>
<glyph unicode="&#61526;" d="M197 325c3 4 5 7 10 8 4 1 9 2 13 2 8 0 17 0 24 0 4 0 8 0 13-1 8-1 12-5 12-13 0-5 0-11 0-16 0-5-1-12-1-17 0-4 0-8 0-12 0-5 0-8 3-14 3-3 4-3 8-1 3 1 4 4 6 7 12 15 22 32 29 49 1 2 1 4 2 6 3 5 7 7 13 7 5 0 10 0 15 0 8 0 16 0 23 0 4 0 7 0 11-1 3-1 6-4 5-8-2-6-4-11-8-18-6-10-13-19-20-28-6-6-9-11-13-18-2-1-2-2-3-4-2-6-2-11 3-16 5-5 10-10 15-16 8-7 15-15 21-25 1-3 2-5 3-8 2-4 0-6-3-8-4-2-8-2-12-2-8 0-17 0-24 0-4 0-8 0-13-1-1 0-3 0-4 0-8 1-14 6-20 11-5 5-11 12-16 17-1 2-4 4-6 6-1 1-4 3-5 3-4 0-8-2-9-5-1-4-1-7-3-11 0-3 0-6-1-10-1-6-3-9-12-10-6-1-12 0-20 0-9 1-18 2-27 6-13 5-24 13-34 23-11 11-20 23-27 35-13 18-23 38-32 59-3 5-5 11-8 18 0 2-1 4-1 6 0 1 0 3 1 3 3 1 5 2 8 2 6 0 12 0 19 0 5 0 11 0 16 0 2 0 3 0 4 0 4 0 5-2 8-5 1-2 3-6 5-9 7-15 15-29 24-43 3-3 4-7 7-9 1-2 2-3 5-4 3-1 5 0 6 2 2 3 3 6 3 8 1 12 1 24 1 36 0 2-1 5-1 8-1 3-4 6-8 7-2 2-4 2-6 3 2 1 2 1 1 1z"/>
<glyph unicode="&#61527;" d="M256 499c-134 0-243-109-243-243 0-134 109-243 243-243 134 0 243 109 243 243 0 134-109 243-243 243z m0-447c-113 0-204 91-204 204 0 113 91 204 204 204 113 0 204-91 204-204 0-113-91-204-204-204z m150 251c0 2 0 2 0 2 0 0 0 0 0 1 0 0 0 0 0 1 0 0 0 0 0 1 0 0 0 0-2 2 0 0 0 0-1 0l-139 94c-4 3-11 3-14 0l-139-92c0 0 0 0-1 0 0 0 0 0 0-1 0 0 0 0 0-1 0 0 0 0 0-2 0 0 0 0 0-1 0 0 0-1 0-1 0 0 0-1 0-1l0-93c0 0 0-1 0-1 0 0 0-1 0-1 0 0 0 0 0-1 0 0 0 0 0-2 0 0 0 0 0-1 0 0 0 0 0-1 0 0 0 0 1 0l137-92c3-2 5-3 8-3 3 0 5 1 8 3l137 92c0 0 0 0 1 0 0 0 0 0 1 1 0 0 0 0 0 1 0 0 0 0 0 2 0 0 0 0 0 1 0 0 0 1 0 1 0 0 0 1 0 1l0 93c3-3 3-2 3-2z m-137 67l101-68-45-31-56 37z m-26 0l0-60-56-37-45 30z m-111-92l32-22-32-22z m111-136l-101 68 45 31 56-37z m13 83l-46 31 46 31 46-31z m13-83l0 60 56 37 45-30z m111 92l-32 22 32 22z"/>
<glyph unicode="&#61528;" d="M235 192l0 131 30 0 0-74 8 10 17 20 43 0-36-35 38-52-40 0-20 33-10-10 0-23z m-168 87l-15-60-11 60-31 0 23-87 40 0 11 45 11-45 41 0 23 87-32 0-11-60-15 60z m433-25l2 25-27 0-2-10c-6 7-15 12-29 12-25 0-38-16-38-46 0-30 14-46 39-46 13 0 21 5 28 12l2-10 27 0-1 26 0 37z m-29-30c-4-5-10-8-17-8-10 0-16 6-16 20 0 13 7 19 16 19 7 0 13-3 17-8z m-280 99c-10 0-17-8-17-17 0-10 7-17 17-17 9 0 17 7 17 17 0 9-8 17-17 17z m26-62l0 18-43 0 0-87 43 0 0 18-14 0 0 51z m140 45c0-10 8-17 18-17 9 0 17 7 17 17 0 9-8 17-17 17-10 0-18-8-18-17z m5-45l0-51-13 0 0-18 43 0 0 87-43 0 0-18z"/>
<glyph unicode="&#61529;" d="M387 292c-20-18-39-36-58-54-3-2-4-5-3-9 0-2 2-5 2-8-11 0-21 0-31 2-10 0-22 1-32 1-6 0-14 1-21 1-1 0-2 0-2 2 2 2 6 3 9 6 25 18 51 36 77 54 0 0 1 0 1 1 0 1-1 0-1 0-17 4-34 5-50 6-18 2-37 0-55-1-14-1-28-4-44-6-2 0-5-2-6-2 0 0 1 0 1 0 14 0 28-1 42-1 16-1 32-1 48-4 5 0 10-1 16-2 0 0 2 0 2 0 0 0 0-2-2-2-1 0-1-1-2-1-27-19-55-38-82-59 0 0 0-1 0-1 1 0 2 0 2 0 17-3 34-3 50-4 18 0 36 0 54 3 13 1 24 2 36 5 1 0 2 1 4 1 1 0 4 1 4 1-4-3-9-5-13-6-4-1-4-1-3-5 0 0 0-1 0-1 2-7 3-13 4-20 1-3 1-9 3-12 0-4 1-7 1-11 1-6 2-11 4-18 0-1 0-2 0-2-2-3-3-4-5-4-2 0-3 1-4 1-23 13-45 27-68 40-5 3-9 3-14 0-23-13-46-27-68-40-4-1-4-2-5-2-4-1-8 2-6 6 1 5 1 9 2 14 0 4 1 7 3 11 0 1 0 2 1 3 1 5 1 9 2 14 2 7 3 12 4 18 2 5 3 12 3 17 0 3 1 4 1 6 1 3 1 6-2 8-20 18-40 37-59 55-2 1-3 3-4 5 0 3 1 5 5 5 5 2 12 2 17 3 7 1 14 1 21 2 8 2 14 2 22 3 7 1 14 1 21 3 3 0 6 2 7 6 5 12 11 23 17 35 6 12 13 26 19 39 1 2 1 3 3 4 2 3 5 3 6 0 1-1 1-2 3-4 11-25 23-51 34-77 2-3 5-5 9-5 9-1 19-1 28-2 9-2 18-2 27-3 8-1 17-1 25-2 2 0 5-2 5-4-2-5-3-7-5-9z"/>
<glyph unicode="&#61536;" d="M384 157l-26-25-98 98-99-98-25 25 98 99-98 99 25 25 99-98 98 98 26-25-99-99z"/>
<glyph unicode="&#61537;" d="M430 499l-207 0-85-84 0-28-56-57 0-317 292 0 0 83 56 0z m-90-453l-225 0 0 251 22 0 0-201 202 0z m57 85l-225 0 0 250 84 0 0 85 141 0z"/>
<glyph unicode="&#61538;" d="M499 342l-71 0 0-72-21 0 0 72-72 0 0 20 72 0 0 72 21 0 0-72 71 0z m-133-31l-73 0-10 22c-3 5-10 10-15 10l-141 0c-7 0-13-4-17-10l-10-22-77 0c-6 0-11-5-11-11l0-210c0-7 5-12 11-12l342 0c6 0 11 5 11 12l0 210c2 6-4 11-10 11z m-171-200c-48 0-86 39-86 87 0 49 38 87 86 87 47 0 85-38 85-87 0-48-37-87-85-87z m0 133c-27 0-48-21-48-48 0-27 22-49 48-49 25 0 47 22 47 49 0 27-21 48-47 48z"/>
</font>
</defs>
</svg>
