<?xml version="1.0" encoding="iso-8859-1"?>
<!DOCTYPE svg PUBLIC "-//W3C//DTD SVG 1.1//EN" "http://www.w3.org/Graphics/SVG/1.1/DTD/svg11.dtd">
<svg version="1.1" xmlns="http://www.w3.org/2000/svg" xmlns:xlink="http://www.w3.org/1999/xlink" x="0px" y="0px" width="24" height="24" viewBox="0, 0, 24, 24">
  <g id="align-center" style="opacity:0.75;">
    <path d="M9,9 L15,9 C15.554,9 16,9.446 16,10 L16,15 C16,15.554 15.554,16 15,16 L9,16 C8.446,16 8,15.554 8,15 L8,10 C8,9.446 8.446,9 9,9 z"/>
    <path d="M3.5,18 L20.5,18 C20.777,18 21,18.223 21,18.5 C21,18.777 20.777,19 20.5,19 L3.5,19 C3.223,19 3,18.777 3,18.5 C3,18.223 3.223,18 3.5,18 z"/>
    <path d="M3.5,6 L20.5,6 C20.777,6 21,6.223 21,6.5 C21,6.777 20.777,7 20.5,7 L3.5,7 C3.223,7 3,6.777 3,6.5 C3,6.223 3.223,6 3.5,6 z"/>
  </g>
</svg>
