<?xml version="1.0" encoding="iso-8859-1"?>
<!DOCTYPE svg PUBLIC "-//W3C//DTD SVG 1.1//EN" "http://www.w3.org/Graphics/SVG/1.1/DTD/svg11.dtd">
<svg version="1.1" xmlns="http://www.w3.org/2000/svg" xmlns:xlink="http://www.w3.org/1999/xlink" x="0px" y="0px" width="24px"
    height="24px" viewBox="0 0 24 24" style="enable-background:new 0 0 24 24;" xml:space="preserve">
<g id="bold-geor-man" style="opacity:0.75;">
   <path id="geor-man" style="fill-rule:evenodd;clip-rule:evenodd;" d="m 13.832215,14.060721 c 0,-1.715364 -0.393909,-2.573048 -1.18171,-2.573054 -0.868096,0 -1.302142,0.779258 -1.302139,2.33776 -0.01004,1.62429 0.421498,2.436435 1.294612,2.436433 0.792819,0 1.189231,-0.733711 1.189237,-2.201139 m 2.167722,0 C 16,16.686908 14.883453,18 12.650505,18 10.216833,18 9,16.613537 9,13.840607 c 0,-2.737501 1.2168327,-4.1062536 3.6505047,-4.1062616 0.841487,0 1.18171,0.6299806 1.18171,0.6299806 l 0,-1.5787473 c 0,-0.7893639 -0.449105,-1.1840505 -1.347301,-1.1840606 -0.57204,0 -0.858059,0.3744563 -0.858056,1.1233396 l -2.3408388,0 c 0.00501,-1.8165609 1.0637868,-2.7248458 3.1763148,-2.7248576 2.368431,0 3.547631,0.9462474 3.537603,2.8387096"/>
</g>
</svg>
