<?xml version="1.0" encoding="iso-8859-1"?>
<!DOCTYPE svg PUBLIC "-//W3C//DTD SVG 1.1//EN" "http://www.w3.org/Graphics/SVG/1.1/DTD/svg11.dtd">
<svg version="1.1" xmlns="http://www.w3.org/2000/svg" xmlns:xlink="http://www.w3.org/1999/xlink" x="0px" y="0px" width="24px"
	 height="24px" viewBox="0 0 24 24" style="enable-background:new 0 0 24 24;" xml:space="preserve">
<g id="bold-arab-ain" style="opacity:0.75;">
	<path id="arab-ain" style="fill-rule:evenodd;clip-rule:evenodd;" d="m 9.3370268,13.616371 c -2e-6,1.348807 1.3862692,2.101402 4.1588182,2.257789 L 15.682364,15.844843 16,15.888824 c -0.02955,0.127058 -0.251163,0.344529 -0.66482,0.652413 -0.0394,0.02932 -0.06895,0.05131 -0.08864,0.06598 -1.23608,0.928523 -2.422906,1.392786 -3.56048,1.392792 -1.14251,-6e-6 -2.0461711,-0.329877 -2.7109887,-0.989615 -0.6500472,-0.659747 -0.9750699,-1.558953 -0.9750692,-2.697618 0.00492,-1.353696 0.5663268,-2.572999 1.6842105,-3.657911 l 0,-0.04398 C 9.2951658,10.2639 9.0932577,10.080637 9.0784857,10.061087 8.9307464,9.8802714 8.8568775,9.6701311 8.8568791,9.4306661 8.8568775,8.9419706 9.0957201,8.3213238 9.5734073,7.5687237 10.223451,6.522914 10.875958,6.0024503 11.530932,6.0073311 c 0.886422,0.00489 1.617724,0.4202868 2.193907,1.2461819 0.325016,0.4789293 -0.02955,0.552234 -1.063712,0.2199144 -0.842111,-0.3274231 -1.526628,-0.051309 -2.053556,0.8283445 l 0.01478,0.073304 1.122807,0.8649969 0.05171,0.00733 c 1.403503,-0.4984693 2.417967,-0.740375 3.043398,-0.7257177 -0.05911,0.1172913 -0.140358,0.3616404 -0.243768,0.7330482 -0.103424,0.3567527 -0.204378,0.6841806 -0.302862,0.9822843 l -0.125577,0.373855 -0.384118,0.05131 c -1.743311,0.239464 -2.991693,0.715945 -3.745153,1.429444 -0.4629137,0.464263 -0.6968316,0.97251 -0.7017542,1.52474"/>
</g>
</svg>
