<?xml version="1.0" encoding="iso-8859-1"?>
<!DOCTYPE svg PUBLIC "-//W3C//DTD SVG 1.1//EN" "http://www.w3.org/Graphics/SVG/1.1/DTD/svg11.dtd">
<svg version="1.1" xmlns="http://www.w3.org/2000/svg" xmlns:xlink="http://www.w3.org/1999/xlink" x="0px" y="0px" width="24px"
   height="24px" viewBox="0 0 24 24" style="enable-background:new 0 0 24 24;" xml:space="preserve">
<g id="italic-s" style="opacity:0.75;">
  <path id="s" style="fill-rule:evenodd;clip-rule:evenodd;" d="M 16.4745,6.5887672 16.172369,8.1149131 C 15.650734,7.8360334 15.13169,7.6268664 14.615236,7.4874114 14.103931,7.3428125 13.608128,7.2705078 13.127824,7.2704973 c -0.934802,1.05e-5 -1.678506,0.2040129 -2.231116,0.6120078 -0.552618,0.4080146 -0.828926,0.9502994 -0.828922,1.626856 -4e-6,0.3718607 0.100707,0.6584969 0.30213,0.8599099 0.206581,0.196263 0.733372,0.408012 1.580374,0.635248 l 0.937379,0.232408 c 1.058741,0.273732 1.794699,0.622343 2.207876,1.045836 0.413162,0.41834 0.619746,1.007106 0.619755,1.766301 -9e-6,1.167207 -0.45966,2.117497 -1.378954,2.850872 C 13.422201,17.633312 12.216263,18 10.718528,18 10.103935,18 9.4867631,17.938025 8.867011,17.814074 8.2472549,17.695288 7.6249186,17.511944 7,17.264042 l 0.3176243,-1.611363 c 0.5732721,0.356361 1.1465446,0.624921 1.7198192,0.805681 0.578435,0.180763 1.1542895,0.271144 1.7275665,0.271143 0.976108,10e-7 1.758548,-0.216913 2.347321,-0.650742 0.58876,-0.433826 0.883143,-0.999352 0.88315,-1.696579 -7e-6,-0.464812 -0.118793,-0.816006 -0.356359,-1.053583 C 13.406707,13.085867 12.903157,12.866371 12.12847,12.67011 L 11.191091,12.429955 C 10.122011,12.151071 9.3912176,11.830865 8.9987088,11.469335 8.6113604,11.102654 8.4176873,10.591357 8.4176888,9.9354424 8.4176873,8.7837406 8.8592621,7.841198 9.7424144,7.1078117 10.630726,6.3692821 11.785018,6.000012 13.205294,6.0000002 c 0.552607,1.18e-5 1.100057,0.049076 1.64235,0.1471918 0.542276,0.098139 1.084561,0.2453309 1.626856,0.4415752"/>
</g>
</svg>
