<?xml version="1.0" encoding="iso-8859-1"?>
<!DOCTYPE svg PUBLIC "-//W3C//DTD SVG 1.1//EN" "http://www.w3.org/Graphics/SVG/1.1/DTD/svg11.dtd">
<svg version="1.1" xmlns="http://www.w3.org/2000/svg" xmlns:xlink="http://www.w3.org/1999/xlink" x="0px" y="0px" width="24px"
   height="24px" viewBox="0 0 24 24" style="enable-background:new 0 0 24 24;" xml:space="preserve">
<g id="italic-arab-meem" style="opacity:0.75;fill:white;">
  <path id="arab-meem" style="fill-rule:evenodd;clip-rule:evenodd;" d="m 16,9.729378 c -8e-6,2.3e-6 -0.310009,0.729994 -0.930003,2.189979 l -4.663072,0 c -0.479188,0 -0.8574152,0.122174 -1.1346836,0.366524 l -0.06098,0.109957 C 9.027705,14.411715 8.7093782,15.954168 8.2562805,17.0232 7.984421,17.66461 7.6236809,18.275482 7.1740591,18.855817 c -0.1772589,0.226016 -0.2191298,0.18631 -0.1256126,-0.11912 0.045368,-0.146616 0.09261,-0.314606 0.1417255,-0.503969 0.049113,-0.189377 0.105884,-0.412345 0.1703033,-0.668906 0.069018,-0.250463 0.1470781,-0.540629 0.2341806,-0.870494 l 0.00209,-0.0092 c 0.04645,-0.256571 0.1137669,-0.604768 0.2019519,-1.044593 0.073848,-0.40318 0.1600039,-0.87355 0.2584674,-1.411116 0.097072,-0.531461 0.2148002,-1.166768 0.3531835,-1.905923 0.1907451,-0.311545 0.4239029,-0.638362 0.6994736,-0.980451 0.275568,-0.342088 0.5889505,-0.705557 0.9401487,-1.090408 0.128683,-0.09163 0.696921,-0.180205 1.70472,-0.2657293 1.049721,-0.085521 1.638017,-0.1832597 1.76489,-0.2932189 l 0.06516,-0.1282832 C 13.591797,9.4544877 13.573788,9.3231503 13.530707,9.1704295 13.487612,9.0177142 13.410459,8.8436156 13.299247,8.6481333 13.079163,8.220526 12.861308,8.0067208 12.64568,8.0067168 c -0.293506,4e-6 -0.914765,0.2687877 -1.863779,0.8063521 -0.358773,0.2076996 -0.375931,0.1252319 -0.05147,-0.2474035 1.557538,-1.7104387 2.707677,-2.5656597 3.45042,-2.5656656 0.383341,5.9e-6 0.670891,0.1313434 0.86265,0.3940128 0.13517,0.1954847 0.25,0.5986603 0.344494,1.2095281 0.0854,0.5192457 0.153005,0.919367 0.202825,1.200365 C 15.696848,9.3903462 15.833243,9.6988366 16,9.729378"/>
</g>
</svg>
