<?xml version="1.0" encoding="iso-8859-1"?>
<!DOCTYPE svg PUBLIC "-//W3C//DTD SVG 1.1//EN" "http://www.w3.org/Graphics/SVG/1.1/DTD/svg11.dtd">
<svg version="1.1" xmlns="http://www.w3.org/2000/svg" xmlns:xlink="http://www.w3.org/1999/xlink" x="0px" y="0px" width="24px"
    height="24px" viewBox="0 0 24 24" style="enable-background:new 0 0 24 24;" xml:space="preserve">
<g id="italic-d" style="opacity:0.75;">
   <path id="d" style="fill-rule:evenodd;clip-rule:evenodd;" d="m 7,18 2.4623263,-12 3.5566937,0 c 0.852955,0 1.504746,0.062768 1.955377,0.1882673 0.643736,0.1691795 1.193601,0.4720442 1.649598,0.9085949 0.455975,0.4311155 0.799305,0.9713606 1.029992,1.6207367 0.230664,0.6493947 0.346002,1.3779069 0.346014,2.1855389 0,0.9659 -0.144855,1.847208 -0.434529,2.643929 -0.284332,0.791273 -0.65985,1.489771 -1.126555,2.095499 -0.46136,0.600274 -0.946851,1.072306 -1.456473,1.416097 -0.504276,0.338336 -1.102422,0.589359 -1.794441,0.75307 -0.525732,0.125512 -1.172159,0.188268 -1.939283,0.188268 l -4.24872,0 m 1.858815,-1.3588 1.866862,0 c 0.842228,0 1.590581,-0.07912 2.245062,-0.23738 0.407699,-0.09823 0.756394,-0.242837 1.046086,-0.433834 0.380875,-0.245564 0.726888,-0.570257 1.03804,-0.974079 0.407696,-0.534785 0.73225,-1.143243 0.973664,-1.825376 0.246759,-0.687579 0.370144,-1.467934 0.370154,-2.341064 C 16.398673,9.8581257 16.232373,9.1132423 15.89978,8.594816 15.56717,8.0709515 15.143371,7.7244307 14.628383,7.5552525 14.247493,7.4297515 13.654711,7.3669958 12.850037,7.3669852 l -1.850037,0 -1.9070959,9.2742158"/>
</g>
</svg>
