<?xml version="1.0" encoding="iso-8859-1"?>
<!DOCTYPE svg PUBLIC "-//W3C//DTD SVG 1.1//EN" "http://www.w3.org/Graphics/SVG/1.1/DTD/svg11.dtd">
<svg version="1.1" xmlns="http://www.w3.org/2000/svg" xmlns:xlink="http://www.w3.org/1999/xlink" x="0px" y="0px" width="24px"
	 height="24px" viewBox="0 0 24 24" style="enable-background:new 0 0 24 24;" xml:space="preserve">
<g id="language" style="opacity:0.75;">
	<path id="japanese" d="M17.533,9.81l0.271-0.59l1.041,0.407l-0.18,0.363c0.661,0.271,1.101,0.468,1.312,0.589
		c0.331,0.211,0.618,0.514,0.86,0.905c0.211,0.393,0.316,0.846,0.316,1.358c0,0.786-0.302,1.479-0.905,2.083
		c-0.604,0.634-1.66,1.057-3.169,1.268c-0.121-0.361-0.258-0.679-0.408-0.95c0.965-0.151,1.645-0.333,2.037-0.545
		c0.454-0.21,0.785-0.481,0.998-0.813c0.21-0.303,0.314-0.663,0.314-1.087c0-0.482-0.136-0.905-0.407-1.269
		c-0.331-0.331-0.8-0.589-1.402-0.77c-0.333,0.634-0.649,1.117-0.951,1.449c-0.242,0.332-0.694,0.906-1.358,1.721
		c0.09,0.393,0.181,0.709,0.272,0.951l-1.042,0.362l-0.091-0.498c-0.423,0.361-0.801,0.617-1.133,0.77
		c-0.361,0.15-0.664,0.226-0.905,0.226c-0.303,0-0.574-0.136-0.814-0.407c-0.243-0.301-0.362-0.68-0.362-1.132
		c0-0.604,0.136-1.147,0.407-1.63c0.241-0.453,0.603-0.89,1.086-1.313c0.272-0.241,0.725-0.528,1.359-0.86
		c0-0.271,0.03-0.799,0.09-1.585c-0.514,0.03-0.921,0.045-1.222,0.045c-0.393,0-0.711-0.015-0.951-0.045l-0.046-1.041
		c0.725,0.091,1.494,0.135,2.31,0.135c0-0.149,0.075-0.738,0.227-1.766l1.177,0.183c-0.151,0.542-0.256,1.041-0.316,1.493
		c0.242-0.029,0.543-0.075,0.906-0.136c0.362-0.061,0.573-0.091,0.634-0.091s0.648-0.15,1.766-0.453L19.3,8.178
		c-0.967,0.243-2.145,0.439-3.532,0.591c-0.062,0.663-0.092,1.086-0.092,1.266C16.339,9.884,16.96,9.81,17.533,9.81z
		 M14.861,13.703c-0.061-0.481-0.136-1.252-0.227-2.31c-0.573,0.424-1.041,0.86-1.403,1.313c-0.303,0.423-0.452,0.875-0.452,1.358
		c0,0.241,0.044,0.438,0.136,0.588c0.09,0.092,0.195,0.137,0.316,0.137C13.594,14.79,14.138,14.428,14.861,13.703z M15.632,10.94
		c0,0.483,0.029,1.088,0.09,1.811c0.604-0.905,1.057-1.599,1.359-2.082C16.507,10.729,16.023,10.82,15.632,10.94z"/>
	<path id="english" style="fill-rule:evenodd;clip-rule:evenodd;" d="M9.497,15.981h1.851L8.264,7.032h-1.85l-3.081,8.949h1.85
		L5.74,14h3.209L9.497,15.981z M6.008,12.604l1.331-3.782l1.344,3.782H6.008z"/>
</g>
</svg>
