<?xml version="1.0" encoding="iso-8859-1"?>
<!DOCTYPE svg PUBLIC "-//W3C//DTD SVG 1.1//EN" "http://www.w3.org/Graphics/SVG/1.1/DTD/svg11.dtd">
<svg version="1.1" xmlns="http://www.w3.org/2000/svg" xmlns:xlink="http://www.w3.org/1999/xlink" x="0px" y="0px" width="24px"
	 height="24px" viewBox="0 0 24 24" style="enable-background:new 0 0 24 24;" xml:space="preserve">
<g id="superscript" style="opacity:0.75;">
	<path id="x_3_" d="M13,9l-2.354,3.406L13,16h-1.199L10,13.25L8.199,16H7l2.403-3.662L7,9h1.188l1.857,2.494L11.797,9H13z"/>
	<path id="_x32__2_" d="M15.578,11H18v1h-4v-1l2.006-1.507c0.18-0.145,0.312-0.285,0.396-0.424c0.086-0.137,0.129-0.281,0.129-0.43
		c0-0.229-0.088-0.414-0.262-0.555c-0.17-0.14-0.398-0.203-0.685-0.21C14.922,7.859,14,8,14,8l0.016-0.656
		c0.316-0.094,0.641-0.207,0.95-0.256c0.311-0.05,0.615-0.075,0.913-0.075c0.655,0,1.198,0.166,1.561,0.424
		c0.364,0.258,0.545,0.618,0.545,1.079c0,0.268-0.077,0.517-0.23,0.748c-0.154,0.231-0.514,0.501-1.007,0.89L15.578,11z"/>
</g>
</svg>
