<?xml version="1.0" encoding="UTF-8" standalone="no"?>
<!-- Created with Inkscape (http://www.inkscape.org/) -->

<svg
   xmlns:dc="http://purl.org/dc/elements/1.1/"
   xmlns:cc="http://creativecommons.org/ns#"
   xmlns:rdf="http://www.w3.org/1999/02/22-rdf-syntax-ns#"
   xmlns:svg="http://www.w3.org/2000/svg"
   xmlns="http://www.w3.org/2000/svg"
   xmlns:xlink="http://www.w3.org/1999/xlink"
   xmlns:sodipodi="http://sodipodi.sourceforge.net/DTD/sodipodi-0.dtd"
   xmlns:inkscape="http://www.inkscape.org/namespaces/inkscape"
   width="744.09448819"
   height="1052.3622047"
   id="svg2"
   sodipodi:version="0.32"
   inkscape:version="0.47 r22583"
   sodipodi:docname="desc.svg"
   version="1.1"
   inkscape:export-filename="/Users/tparscal/Desktop/imageMap.png"
   inkscape:export-xdpi="90"
   inkscape:export-ydpi="90">
  <defs
     id="defs4">
    <linearGradient
       id="linearGradient3615">
      <stop
         style="stop-color:#50a3ff;stop-opacity:1;"
         offset="0"
         id="stop3617" />
      <stop
         style="stop-color:#0051ab;stop-opacity:1;"
         offset="1"
         id="stop3619" />
    </linearGradient>
    <linearGradient
       id="linearGradient5219">
      <stop
         style="stop-color:#8b8b8b;stop-opacity:1;"
         offset="0"
         id="stop5221" />
      <stop
         style="stop-color:#999999;stop-opacity:1;"
         offset="1"
         id="stop5223" />
    </linearGradient>
    <linearGradient
       id="linearGradient5183">
      <stop
         style="stop-color:#1282ff;stop-opacity:1;"
         offset="0"
         id="stop5185" />
      <stop
         style="stop-color:#0a7eff;stop-opacity:0.184;"
         offset="1"
         id="stop5187" />
    </linearGradient>
    <linearGradient
       id="linearGradient5140">
      <stop
         style="stop-color:#008bff;stop-opacity:1;"
         offset="0"
         id="stop5142" />
      <stop
         style="stop-color:#003452;stop-opacity:0;"
         offset="1"
         id="stop5144" />
    </linearGradient>
    <linearGradient
       id="linearGradient2904">
      <stop
         style="stop-color:#ffffff;stop-opacity:1;"
         offset="0"
         id="stop2906" />
      <stop
         style="stop-color:#ffffff;stop-opacity:0;"
         offset="1"
         id="stop2908" />
    </linearGradient>
    <inkscape:perspective
       sodipodi:type="inkscape:persp3d"
       inkscape:vp_x="0 : 526.18109 : 1"
       inkscape:vp_y="0 : 1000 : 0"
       inkscape:vp_z="744.09448 : 526.18109 : 1"
       inkscape:persp3d-origin="372.04724 : 350.78739 : 1"
       id="perspective13" />
    <inkscape:perspective
       id="perspective2832"
       inkscape:persp3d-origin="0.5 : 0.33333333 : 1"
       inkscape:vp_z="1 : 0.5 : 1"
       inkscape:vp_y="0 : 1000 : 0"
       inkscape:vp_x="0 : 0.5 : 1"
       sodipodi:type="inkscape:persp3d" />
    <inkscape:perspective
       id="perspective2857"
       inkscape:persp3d-origin="0.5 : 0.33333333 : 1"
       inkscape:vp_z="1 : 0.5 : 1"
       inkscape:vp_y="0 : 1000 : 0"
       inkscape:vp_x="0 : 0.5 : 1"
       sodipodi:type="inkscape:persp3d" />
    <inkscape:perspective
       id="perspective2882"
       inkscape:persp3d-origin="0.5 : 0.33333333 : 1"
       inkscape:vp_z="1 : 0.5 : 1"
       inkscape:vp_y="0 : 1000 : 0"
       inkscape:vp_x="0 : 0.5 : 1"
       sodipodi:type="inkscape:persp3d" />
    <inkscape:perspective
       id="perspective2882-0"
       inkscape:persp3d-origin="0.5 : 0.33333333 : 1"
       inkscape:vp_z="1 : 0.5 : 1"
       inkscape:vp_y="0 : 1000 : 0"
       inkscape:vp_x="0 : 0.5 : 1"
       sodipodi:type="inkscape:persp3d" />
    <radialGradient
       inkscape:collect="always"
       xlink:href="#linearGradient5183"
       id="radialGradient5191"
       cx="421.42856"
       cy="694.62939"
       fx="421.42856"
       fy="694.62939"
       r="311.18631"
       gradientTransform="matrix(2.2098429,-3.3268405e-8,2.0370692e-8,1.31418,-509.86238,-221.41781)"
       gradientUnits="userSpaceOnUse" />
    <linearGradient
       inkscape:collect="always"
       xlink:href="#linearGradient2904"
       id="linearGradient5203"
       x1="421.42856"
       y1="770.5788"
       x2="421.42856"
       y2="157.00269"
       gradientUnits="userSpaceOnUse" />
    <linearGradient
       inkscape:collect="always"
       xlink:href="#linearGradient2904"
       id="linearGradient5207"
       gradientUnits="userSpaceOnUse"
       x1="421.42856"
       y1="770.5788"
       x2="421.42856"
       y2="157.00269" />
    <linearGradient
       inkscape:collect="always"
       xlink:href="#linearGradient2904"
       id="linearGradient5210"
       gradientUnits="userSpaceOnUse"
       x1="421.42856"
       y1="770.5788"
       x2="421.42856"
       y2="157.00269" />
    <linearGradient
       inkscape:collect="always"
       xlink:href="#linearGradient2904"
       id="linearGradient5212"
       gradientUnits="userSpaceOnUse"
       x1="421.42856"
       y1="770.5788"
       x2="421.42856"
       y2="157.00269"
       gradientTransform="matrix(1.014493,0,0,1.029412,-127.53624,-175.0696)" />
    <linearGradient
       inkscape:collect="always"
       xlink:href="#linearGradient2904"
       id="linearGradient5217"
       gradientUnits="userSpaceOnUse"
       gradientTransform="matrix(1.014493,0,0,1.029412,-107.53624,-157.92674)"
       x1="421.42856"
       y1="770.5788"
       x2="421.42856"
       y2="157.00269" />
    <linearGradient
       inkscape:collect="always"
       xlink:href="#linearGradient5219"
       id="linearGradient5225"
       x1="421.42856"
       y1="768.92761"
       x2="421.42856"
       y2="158.65387"
       gradientUnits="userSpaceOnUse" />
    <radialGradient
       inkscape:collect="always"
       xlink:href="#linearGradient3615"
       id="radialGradient3621"
       cx="421.42856"
       cy="463.79074"
       fx="421.42856"
       fy="463.79074"
       r="303.84723"
       gradientTransform="matrix(1,0,0,1.0042444,0,-1.968506)"
       gradientUnits="userSpaceOnUse" />
    <filter
       inkscape:collect="always"
       id="filter3631"
       x="-0.1165843"
       width="1.2331686"
       y="-0.065459239"
       height="1.1309185">
      <feGaussianBlur
         inkscape:collect="always"
         stdDeviation="10.301636"
         id="feGaussianBlur3633" />
    </filter>
  </defs>
  <sodipodi:namedview
     id="base"
     pagecolor="#ffffff"
     bordercolor="#666666"
     borderopacity="1.0"
     gridtolerance="10000"
     guidetolerance="10"
     objecttolerance="10"
     inkscape:pageopacity="0.0"
     inkscape:pageshadow="2"
     inkscape:zoom="0.35"
     inkscape:cx="108.91681"
     inkscape:cy="358.30213"
     inkscape:document-units="px"
     inkscape:current-layer="layer3"
     inkscape:window-width="1920"
     inkscape:window-height="1075"
     inkscape:window-x="1440"
     inkscape:window-y="0"
     showgrid="false"
     inkscape:window-maximized="0" />
  <metadata
     id="metadata7">
    <rdf:RDF>
      <cc:Work
         rdf:about="">
        <dc:format>image/svg+xml</dc:format>
        <dc:type
           rdf:resource="http://purl.org/dc/dcmitype/StillImage" />
        <dc:title />
      </cc:Work>
    </rdf:RDF>
  </metadata>
  <g
     inkscape:label="Base"
     inkscape:groupmode="layer"
     id="layer1"
     style="display:inline"
     sodipodi:insensitive="true">
    <path
       sodipodi:type="arc"
       style="fill:url(#radialGradient3621);fill-opacity:1;stroke:url(#linearGradient5225);stroke-width:27.61747932;stroke-miterlimit:4;stroke-opacity:1;stroke-dasharray:none"
       id="path1872"
       sodipodi:cx="421.42856"
       sodipodi:cy="463.79074"
       sodipodi:rx="295.71429"
       sodipodi:ry="291.42856"
       d="m 717.14285,463.79074 a 295.71429,291.42856 0 1 1 -591.42859,0 295.71429,291.42856 0 1 1 591.42859,0 z"
       transform="matrix(1.014493,0,0,1.029412,-107.53624,-157.92674)" />
  </g>
  <g
     inkscape:groupmode="layer"
     id="layer4"
     inkscape:label="Refraction"
     style="display:inline"
     sodipodi:insensitive="true">
    <path
       transform="matrix(1.014493,0,0,1.029412,-107.53624,-157.92674)"
       d="m 717.14285,463.79074 a 295.71429,291.42856 0 1 1 -591.42859,0 295.71429,291.42856 0 1 1 591.42859,0 z"
       sodipodi:ry="291.42856"
       sodipodi:rx="295.71429"
       sodipodi:cy="463.79074"
       sodipodi:cx="421.42856"
       id="path5180"
       style="opacity:0.79111113;fill:url(#radialGradient5191);fill-opacity:1;stroke:none;display:inline"
       sodipodi:type="arc" />
  </g>
  <g
     inkscape:groupmode="layer"
     id="layer5"
     inkscape:label="Reflection"
     style="display:inline"
     sodipodi:insensitive="true">
    <path
       style="opacity:0.3288889;fill:url(#linearGradient5217);fill-opacity:1;stroke:none;display:inline"
       d="m 320,19.517857 c -165.68547,0 -300,134.314543 -300,300.000003 0,21.41886 2.264366,42.28957 6.53125,62.4375 C 106.0102,338.98527 208.33367,313.11161 320,313.11161 c 111.66633,0 213.9898,25.87366 293.46875,68.84375 C 617.73563,361.80743 620,340.93672 620,319.51786 620,153.8324 485.68547,19.517857 320,19.517857 z"
       id="path5193" />
  </g>
  <g
     inkscape:groupmode="layer"
     id="layer3"
     inkscape:label="Italic &quot;i&quot;"
     style="display:inline">
    <path
       id="path2820"
       style="font-size:144px;font-style:italic;font-variant:normal;font-weight:bold;font-stretch:normal;text-align:start;line-height:125%;writing-mode:lr-tb;text-anchor:start;opacity:0.17777782;fill:#000000;fill-opacity:1;stroke:none;filter:url(#filter3631);font-family:Times New Roman"
       d="m 370.95661,140.65523 c 15.48657,3.7e-4 28.47549,3.8263 38.96675,11.4778 10.7406,7.65219 16.111,16.9056 16.11127,27.76025 -2.7e-4,10.85529 -5.37067,20.10867 -16.11127,27.76025 -10.74102,7.65215 -23.72994,11.47807 -38.96675,11.47777 -14.98738,3e-4 -27.85138,-3.82562 -38.59209,-11.47777 -10.74096,-7.65158 -16.11137,-16.90496 -16.11127,-27.76025 -10e-5,-10.85465 5.24545,-20.10806 15.73661,-27.76025 10.7407,-7.6515 23.72961,-11.47743 38.96675,-11.4778 m 23.23015,122.78572 -76.80945,189.78403 c -4.24645,10.85499 -6.36966,17.973 -6.36955,21.35404 -1.1e-4,1.95747 1.12395,3.82596 3.37211,5.60542 2.248,1.60157 4.62096,2.40236 7.11894,2.40232 4.24624,4e-5 8.49265,-1.33457 12.7391,-4.00388 11.24028,-6.58411 24.72877,-18.50676 40.46547,-35.76801 l 12.73917,5.33852 c -37.71796,46.80095 -77.80871,70.20137 -120.27237,70.20141 -16.23624,-4e-5 -29.2251,-3.20315 -38.96676,-9.60932 -9.49195,-6.58418 -14.23788,-14.85885 -14.23788,-24.8241 0,-6.5841 2.12321,-14.94779 6.36955,-25.09098 l 52.08058,-127.59039 c 4.99569,-12.27837 7.49356,-21.53179 7.49361,-27.76026 -5e-5,-3.91468 -2.37302,-7.3847 -7.11894,-10.41007 -4.74598,-3.02494 -11.24044,-4.53753 -19.48338,-4.53775 -3.74682,2.2e-4 -8.24299,0.0892 -13.48849,0.26688 l 4.87088,-10.67703 127.01659,-14.68091 22.48082,0"
       transform="matrix(1.0936445,0,0,1.0936445,-29.966243,-30.856327)" />
    <path
       d="m 369.16654,116.40862 c 16.9368,4.1e-4 31.14206,4.18461 42.61577,12.55264 11.7464,8.36877 17.61971,18.48871 17.62,30.35984 -2.9e-4,11.87183 -5.8736,21.99174 -17.62,30.35984 -11.74686,8.36874 -25.95212,12.55293 -42.61577,12.5526 -16.39086,3.3e-4 -30.45951,-4.18386 -42.20603,-12.5526 -11.74679,-8.3681 -17.62011,-18.48801 -17.62,-30.35984 -1.1e-4,-11.87113 5.73666,-21.99107 17.21026,-30.35984 11.74651,-8.36803 25.95176,-12.55223 42.61577,-12.55264 m 25.40553,134.28393 -84.00224,207.55626 c -4.6441,11.8715 -6.96614,19.65607 -6.96602,23.35372 -1.2e-4,2.14078 1.2292,4.18424 3.68789,6.13034 2.45851,1.75155 5.05369,2.62733 7.78559,2.62728 4.64388,5e-5 9.28794,-1.45954 13.93205,-4.37882 12.29287,-7.20067 27.04448,-20.23981 44.25483,-39.11748 l 13.93213,5.83844 c -41.25004,51.1836 -85.09507,76.77534 -131.53522,76.77538 -17.75667,-4e-5 -31.96187,-3.5031 -42.61578,-10.50918 -10.38082,-7.20075 -15.57118,-16.2503 -15.57118,-27.14874 0,-7.20066 2.32204,-16.34756 6.96603,-27.44061 l 56.95764,-139.53852 c 5.4635,-13.42818 8.19529,-23.54813 8.19534,-30.35986 -5e-5,-4.28127 -2.59524,-8.07624 -7.78559,-11.38492 -5.19041,-3.3082 -12.29304,-4.96244 -21.30789,-4.96268 -4.09769,2.4e-4 -9.0149,0.0976 -14.75161,0.29187 l 5.32701,-11.67687 138.91099,-16.0557 24.58603,0"
       style="font-size:144px;font-style:italic;font-variant:normal;font-weight:bold;font-stretch:normal;text-align:start;line-height:125%;writing-mode:lr-tb;text-anchor:start;fill:#ffffff;fill-opacity:1;stroke:none;font-family:Times New Roman"
       id="path5215" />
  </g>
</svg>
