<?xml version="1.0" encoding="iso-8859-1"?>
<!DOCTYPE svg PUBLIC "-//W3C//DTD SVG 1.1//EN" "http://www.w3.org/Graphics/SVG/1.1/DTD/svg11.dtd">
<svg version="1.1" xmlns="http://www.w3.org/2000/svg" xmlns:xlink="http://www.w3.org/1999/xlink" x="0px" y="0px" width="48px" height="24px" viewBox="0 0 48 24" enable-background="new 0 0 48 24" xml:space="preserve">
<g style="opacity:0.5;">
	<path d="M34,1H14.1C8,1,5,4,5,10v4c0,6,3,9,9,9h20c6,0,9-4.3,9-9v-4C43,4,40,1,34,1z M34,21H14c-5,0-7-2.9-7-7v-4c0-4,2-7,7-7h20c5,0,7,3,7,7v4C41,18,39,21,34,21z"/>
	<rect x="14" y="7" width="20" height="2"/>
	<rect x="14" y="11" width="20" height="2"/>
	<rect x="14" y="15" width="20" height="2"/>
</g>
</svg>
