<?xml version="1.0" encoding="iso-8859-1"?>
<!DOCTYPE svg PUBLIC "-//W3C//DTD SVG 1.1//EN" "http://www.w3.org/Graphics/SVG/1.1/DTD/svg11.dtd">
<svg version="1.1" xmlns="http://www.w3.org/2000/svg" xmlns:xlink="http://www.w3.org/1999/xlink" x="0px" y="0px" width="36px" height="18px" viewBox="0 0 36 18" enable-background="new 0 0 36 18" xml:space="preserve">
<g style="opacity:0.75;">
	<path d="M30,2c1.1,0,2,0.9,2,2v10c0,1.1-0.9,2-2,2H6c-1.1,0-2-0.9-2-2V4c0-1.1,0.9-2,2-2H30 M30,0H6
		C3.8,0,2,1.8,2,4v10c0,2.2,1.8,4,4,4h24c2.2,0,4-1.8,4-4V4C34,1.8,32.2,0,30,0L30,0z"/>
	<rect x="8" y="4" width="20" height="2"/>
	<rect x="8" y="8" width="20" height="2"/>
	<rect x="8" y="12" width="20" height="2"/>
</g>
</svg>
