<?xml version="1.0" encoding="UTF-8" standalone="no"?>
<svg xmlns="http://www.w3.org/2000/svg" xmlns:xlink="http://www.w3.org/1999/xlink" xmlns:sketch="http://www.bohemiancoding.com/sketch/ns" width="17" height="15" viewBox="0 0 17 15" version="1.1">
  <g id="Page-1" stroke="none" stroke-width="1" fill="none" fill-rule="evenodd" sketch:type="MSPage">
    <g id="VE-simpleVersion-Copy" sketch:type="MSArtboardGroup" transform="translate(-600.000000, -492.000000)" fill="#333333">
      <g id="2" sketch:type="MSLayerGroup" transform="translate(273.000000, 476.000000)">
        <g id="Toolset" sketch:type="MSShapeGroup">
          <g id="Image" transform="translate(327.996000, 16.000000)">
            <path d="M14.67 7.91L11.76 5.49C11.48 5.26 11.06 5.29 10.83 5.57L7.25 9.74 4.42 7.48C4.17 7.29 3.83 7.29 3.58 7.48L1.33 9.28 1.33 1.33 14.67 1.33 14.67 7.91ZM15.33 0L0.67 0C0.3 0 0 0.3 0 0.67L0 14C0 14.37 0.3 14.67 0.67 14.67L15.33 14.67C15.7 14.67 16 14.37 16 14L16 0.67C16 0.3 15.7 0 15.33 0L15.33 0Z" id="Fill-1011"/>
            <path d="M6.27 7.2C7.37 7.2 8.27 6.3 8.27 5.2 8.27 4.1 7.37 3.2 6.27 3.2 5.16 3.2 4.27 4.1 4.27 5.2 4.27 6.3 5.16 7.2 6.27 7.2" id="Fill-1012"/>
          </g>
        </g>
      </g>
    </g>
  </g>
</svg>
