<svg xmlns="http://www.w3.org/2000/svg" width="17" height="15" viewBox="0 0 17 15" version="1.1">
  <g stroke="none" stroke-width="1" fill="none" fill-rule="evenodd">
    <g transform="translate(-600.000000, -492.000000)" fill="#333333">
      <g transform="translate(273.000000, 476.000000)">
        <g transform="translate(327.996000, 16.000000)">
          <path d="M14.7 7.9L11.8 5.5C11.5 5.3 11.1 5.3 10.8 5.6L7.3 9.7 4.4 7.5C4.2 7.3 3.8 7.3 3.6 7.5L1.3 9.3 1.3 1.3 14.7 1.3 14.7 7.9ZM15.3 0L0.7 0C0.3 0 0 0.3 0 0.7L0 14C0 14.4 0.3 14.7 0.7 14.7L15.3 14.7C15.7 14.7 16 14.4 16 14L16 0.7C16 0.3 15.7 0 15.3 0L15.3 0ZM6.3 7.2C7.4 7.2 8.3 6.3 8.3 5.2 8.3 4.1 7.4 3.2 6.3 3.2 5.2 3.2 4.3 4.1 4.3 5.2 4.3 6.3 5.2 7.2 6.3 7.2"/>
        </g>
      </g>
    </g>
  </g>
</svg>
