<svg xmlns="http://www.w3.org/2000/svg" width="17" height="15" viewBox="0 0 17 15" version="1"><g style="fill-rule:evenodd;fill:none;stroke-width:1;stroke:none"><g style="fill:white;opacity:0.8"><path d="M15.7 7.9L12.8 5.5C12.5 5.3 12.1 5.3 11.8 5.6L8.3 9.7 5.4 7.5C5.2 7.3 4.8 7.3 4.6 7.5L2.3 9.3 2.3 1.3 15.7 1.3 15.7 7.9ZM16.3 0L1.7 0C1.3 0 1 0.3 1 0.7L1 14C1 14.4 1.3 14.7 1.7 14.7L16.3 14.7C16.7 14.7 17 14.4 17 14L17 0.7C17 0.3 16.7 0 16.3 0L16.3 0ZM7.3 7.2C8.4 7.2 9.3 6.3 9.3 5.2 9.3 4.1 8.4 3.2 7.3 3.2 6.2 3.2 5.3 4.1 5.3 5.2 5.3 6.3 6.2 7.2 7.3 7.2"/></g></g></svg>