<?xml version="1.0" encoding="iso-8859-1"?>
<!DOCTYPE svg PUBLIC "-//W3C//DTD SVG 1.1//EN" "http://www.w3.org/Graphics/SVG/1.1/DTD/svg11.dtd">
<svg version="1.1" xmlns="http://www.w3.org/2000/svg" xmlns:xlink="http://www.w3.org/1999/xlink" x="0px" y="0px" width="24px" height="24px" viewBox="0 0 24 24" style="enable-background:new 0 0 24 24;" xml:space="preserve">

<defs>
	<mask id="brackets">
		<polygon fill="white" points="0,0 24,0 24,24 0,24"/>
		<!-- Left -->
		<circle cx="9.4" cy="6.3" r="1.1"/>
		<polygon points="10.9,9.1 10,9.1 10,12.2 10.9,12.2 10.9,13.4 8.3,13.4 8.3,7.9 10.9,7.9"/>
		<!-- Right -->
		<circle cx="14.7" cy="6.3" r="1.1"/>
		<polygon points="15.7,13.4 13.1,13.4 13.1,12.2 14,12.2 14,9.1 13.1,9.1 13.1,7.9 15.7,7.9"/>
	</mask>
</defs>

<g style="opacity:0.75;fill:white;">
	<path d="M14.1,2.3H9.9C7.8,2.3,6,4.1,6,6v8.1c0,1.1,0.3,1.9,0.9,2.6l1.7,1.9h6.8l1.7-1.9c0.6-0.6,0.9-1.5,0.9-2.6V6 C18,4.1,16.3,2.3,14.1,2.3z" mask="url(#brackets)"/>
	<polygon points="12,22.3 14.7,19.3 9.3,19.3 "/>
</g>

</svg>