<?xml version="1.0" encoding="iso-8859-1"?>
<!DOCTYPE svg PUBLIC "-//W3C//DTD SVG 1.1//EN" "http://www.w3.org/Graphics/SVG/1.1/DTD/svg11.dtd">
<svg version="1.0" xmlns="http://www.w3.org/2000/svg" xmlns:xlink="http://www.w3.org/1999/xlink" x="0px" y="0px"
	 viewBox="0 0 24 24" enable-background="new 0 0 24 24" xml:space="preserve">
<g style="opacity:0.75; fill:white;">
	<polygon points="12,22.6 14.7,19.6 9.3,19.6 	"/>
	<path d="M14.1,2.1H9.9c-2.2,0-4,1.6-4,3.6v8.9c0,0.8,0.3,1.8,0.9,2.4l1.7,1.9h6.9l1.7-1.9c0.6-0.6,0.9-1.5,0.9-2.4v-9
		C18.2,3.6,16.4,2.1,14.1,2.1z M9.3,5.7c0.6,0,1.1,0.5,1.1,1.1S9.9,8,9.3,8C8.7,8,8.1,7.5,8.1,6.9S8.7,5.7,9.3,5.7z M10.9,9.7H9.9
		v3.3h0.9v1.2H8.2v-0.1v-1.9v-1.8V8.5h1.9H11L10.9,9.7L10.9,9.7z M15.8,10.4v1.8v1.9v0.1h-2.7v-1.3H14V9.7h-0.9V8.5h0.8h1.9V10.4z
		 M14.7,7.9c-0.6,0-1.1-0.5-1.1-1.1s0.5-1.1,1.1-1.1c0.6,0,1.1,0.5,1.1,1.1C15.8,7.4,15.3,7.9,14.7,7.9z"/>
</g>
</svg>