<?xml version="1.0" encoding="iso-8859-1"?>
<!DOCTYPE svg PUBLIC "-//W3C//DTD SVG 1.1//EN" "http://www.w3.org/Graphics/SVG/1.1/DTD/svg11.dtd">
<svg version="1.0" xmlns="http://www.w3.org/2000/svg" xmlns:xlink="http://www.w3.org/1999/xlink" x="0px" y="0px"
	 viewBox="0 0 28 28" enable-background="new 0 0 28 28" xml:space="preserve">
<g style="opacity:0.75; fill:white;">
	<polygon points="14,26.4 17.1,22.9 10.9,22.9 	"/>
	<path d="M16.5,2.4h-4.9c-2.6,0-4.7,1.9-4.7,4.2V17c0,0.9,0.4,2.1,1.1,2.8l2,2.2H18l2-2.2c0.7-0.7,1.1-1.8,1.1-2.8V6.5
		C21.2,4.2,19.1,2.4,16.5,2.4z M10.8,6.7c0.7,0,1.3,0.6,1.3,1.3c0,0.7-0.6,1.3-1.3,1.3c-0.7,0-1.3-0.6-1.3-1.3
		C9.5,7.3,10.1,6.7,10.8,6.7z M12.7,11.3h-1.1v3.8h1.1v1.4H9.6v-0.1v-2.2v-2.1V9.9h2.2h1V11.3z M18.4,12.1v2.1v2.2v0.1h-3.1V15h1
		v-3.7h-1V9.9h0.9h2.2V12.1z M17.1,9.2c-0.7,0-1.3-0.6-1.3-1.3c0-0.7,0.6-1.3,1.3-1.3c0.7,0,1.3,0.6,1.3,1.3
		C18.4,8.6,17.8,9.2,17.1,9.2z"/>
</g>
</svg>
