<?xml version="1.0" encoding="iso-8859-1"?>
<!DOCTYPE svg PUBLIC "-//W3C//DTD SVG 1.1//EN" "http://www.w3.org/Graphics/SVG/1.1/DTD/svg11.dtd">
<svg version="1.1" id="Layer_1" xmlns="http://www.w3.org/2000/svg" xmlns:xlink="http://www.w3.org/1999/xlink" x="0px" y="0px"
	 width="24px" height="24px" viewBox="0 0 24 24" enable-background="new 0 0 24 24" xml:space="preserve">
<g style="opacity:0.75;fill:white;">
	<path d="M19.572,11.752c0-0.129,0.021-0.237,0.021-0.365c0-3.334-2.656-6.023-5.934-6.023
		c-2.344,0-4.378,1.398-5.332,3.42C7.871,8.418,7.29,8.203,6.647,8.203c-1.515,0-2.739,1.248-2.739,2.775
		c0,0.28,0.041,0.559,0.125,0.839C2.85,12.527,2,13.839,2,15.323C2.021,17.56,3.079,18.957,5.153,19h0.934H11v-4
		c-0.207,0-0.618,0-0.826,0H8.307c-0.394,0-1.223-0.642-0.249-1.675l3.464-4.216c0.477-0.293,0.664,0.062,0.913,0.364l3.464,4.194
		C16.333,14.275,16.045,15,15.651,15h-1.826c-0.207,0-0.617,0-0.825,0v4h4.87c0.062,0,0.436,0,0.498,0
		c2.158,0,3.631-1.419,3.631-3.613C21.999,13.753,21.004,12.355,19.572,11.752z"/>
</g>
</svg>
