<?xml version="1.0" encoding="UTF-8" standalone="no"?>
<svg xmlns="http://www.w3.org/2000/svg" xmlns:xlink="http://www.w3.org/1999/xlink" xmlns:sketch="http://www.bohemiancoding.com/sketch/ns" width="14" height="14" viewBox="0 0 14 14" version="1.1">
  <g id="Page-1" stroke="none" stroke-width="1" fill="none" fill-rule="evenodd" sketch:type="MSPage">
    <g id="VE-simpleVersion-Copy" sketch:type="MSArtboardGroup" transform="translate(-2174.000000, -522.000000)" fill="#333333" opacity="0.75">
      <g id="Dropdown-menu-Copy" sketch:type="MSLayerGroup" transform="translate(2162.000000, 513.000000)">
        <g id="Gallery" sketch:type="MSShapeGroup">
          <path d="M21.66 16.49L18.16 18.82C18.06 18.88 17.95 18.92 17.83 18.92 17.74 18.92 17.64 18.89 17.56 18.85 17.37 18.75 17.25 18.55 17.25 18.33L17.25 13.67C17.25 13.45 17.37 13.25 17.56 13.15 17.75 13.05 17.98 13.06 18.16 13.18L21.66 15.51C21.82 15.62 21.92 15.8 21.92 16 21.92 16.19 21.82 16.38 21.66 16.49M19 9C15.14 9 12 12.14 12 16 12 19.86 15.14 23 19 23 22.86 23 26 19.86 26 16 26 12.14 22.86 9 19 9" id="Play-Button"/>
        </g>
      </g>
    </g>
  </g>
</svg>
