<svg xmlns="http://www.w3.org/2000/svg" xmlns:xlink="http://www.w3.org/1999/xlink" version="1.1" id="Layer_1" x="0px" y="0px" viewBox="0 0 67.6 38" enable-background="new 0 0 67.6 38" xml:space="preserve"><rect x="0" fill="#092140" width="67.6" height="38"/><radialGradient id="SVGID_1_" cx="33.8" cy="19" r="27.4" gradientUnits="userSpaceOnUse"><stop offset="0.2096" style="stop-color:#124280"/><stop offset="1" style="stop-color:#092140;stop-opacity:0"/></radialGradient><rect x="0" fill="url(#SVGID_1_)" width="67.6" height="38"/><g><polygon fill="#FFFFFF" points="36.2,26.7 36.2,25.4 37.2,25.4 38.1,25.4 38.1,21.7 38.1,17.9 37.2,17.9 36.2,17.9 36.2,16.6 36.2,15.2 39.3,15.2 42.4,15.2 42.4,21.7 42.4,28.1 39.3,28.1 36.2,28.1"/><polygon fill="#FFFFFF" points="25.2,21.7 25.2,15.2 28.3,15.2 31.4,15.2 31.4,16.6 31.4,17.9 30.4,17.9 29.4,17.9 29.4,21.7 29.4,25.4 30.4,25.4 31.4,25.4 31.4,26.7 31.4,28.1 28.3,28.1 25.2,28.1"/><circle fill="#FFFFFF" cx="27.6" cy="11.4" r="2.5"/><circle fill="#FFFFFF" cx="39.9" cy="11.4" r="2.5"/></g></svg>
