<?xml version="1.0" encoding="utf-8"?>
<svg xmlns="http://www.w3.org/2000/svg" width="24" height="24" viewBox="0 0 24 24">
    <g id="creative-commons">
        <path id="circle" d="m 12,5 c -3.865993,0 -7,3.1340068 -7,7 0,3.865993 3.134007,7 7,7 3.865993,0 7,-3.134007 7,-7 0,-3.8659932 -3.134007,-7 -7,-7 z m 0,1.25 c 3.174708,0 5.75,2.5752917 5.75,5.75 0,3.174708 -2.575292,5.75 -5.75,5.75 C 8.825292,17.75 6.25,15.174708 6.25,12 6.25,8.8252917 8.825292,6.25 12,6.25 z" />
        <path id="cc" d="m 11.924809,10.837895 -0.937888,0.488082 c -0.0998,-0.207809 -0.222851,-0.354099 -0.367772,-0.4375 -0.146289,-0.0834 -0.281643,-0.124417 -0.40605,-0.124417 -0.624805,0 -0.937888,0.412888 -0.937888,1.237305 0,0.375981 0.07929,0.674018 0.237889,0.899611 0.158595,0.225592 0.392385,0.337694 0.7,0.337694 0.40879,0 0.695901,-0.200981 0.862694,-0.600194 l 0.861324,0.437499 c -0.183208,0.341793 -0.4375,0.609761 -0.762888,0.806643 -0.325388,0.196883 -0.683595,0.293949 -1.074611,0.293949 -0.624805,0 -1.129292,-0.191404 -1.51348,-0.575582 -0.384188,-0.384178 -0.575582,-0.916015 -0.575582,-1.59961 0,-0.665821 0.192773,-1.19492 0.58105,-1.587305 0.388277,-0.392385 0.877739,-0.5878878 1.468355,-0.5878878 0.869542,0 1.490238,0.3363248 1.864848,1.0117128 z m 4.037303,0 -0.925582,0.488082 c -0.0998,-0.207809 -0.222852,-0.354099 -0.369142,-0.4375 -0.146289,-0.0834 -0.285741,-0.124417 -0.418356,-0.124417 -0.624805,0 -0.937887,0.412888 -0.937887,1.237305 0,0.375981 0.07929,0.674018 0.237888,0.899611 0.158595,0.225592 0.391015,0.337694 0.7,0.337694 0.40879,0 0.695901,-0.200981 0.861324,-0.600194 l 0.875,0.437499 c -0.191405,0.341793 -0.449806,0.61113 -0.773824,0.806643 -0.325389,0.196873 -0.679497,0.293949 -1.062305,0.293949 -0.633003,0 -1.140239,-0.191404 -1.517579,-0.575582 -0.380079,-0.384178 -0.568745,-0.917385 -0.568745,-1.59961 0,-0.667191 0.192774,-1.19492 0.581051,-1.587305 0.386917,-0.392385 0.876369,-0.5878878 1.468355,-0.5878878 0.866792,0 1.483401,0.3363248 1.849803,1.0117128 z" />
    </g>
</svg>
