<?xml version="1.0" encoding="utf-8"?>
<svg xmlns="http://www.w3.org/2000/svg" width="24" height="24" viewBox="0 0 24 24">
    <g id="gallery" style="opacity:0.75;fill:white;">
        <path d="m 4,8 10,0 c 2,-0.007 3,1 3,3 l 0,7 c 0.014,2 -1,2.988 -3,3 L 4,21 C 2,20.988 1.006,20.006 1,18 L 1,11 C 1.006,9 2,7.993 4,8 z m -1,11 12,0 0,-9 -12,0 z m 11,-3.055 -2.917,-2.723 -1.94,1.799 1.094,0.851 -0.73,1.024 L 6.083,14 4,15.556 4,18 14,18 z M 14,14.778 11.07,11.546 8.532,14.013 6.083,12.445 4,14 4,11 14,11 z M 17,5 7,5 C 5.99,5.009 4.866,5.372 4.279,6.276 4.119,6.522 4.093,6.722 4,7 l 14,0 0,11 c 1.559,-0.373 1.898,-1.53 1.986,-3 L 20,8 C 20,6 19,4.993 17,5 z M 20,2 10,2 C 8.99,2.009 7.866,2.261 7.279,3.165 7.119,3.411 7.093,3.722 7,4 l 14,0 0,11 c 1.559,-0.373 1.912,-1.531 2,-3 L 23,5 C 23,3 22,1.993 20,2 z"/>
    </g>
</svg>
