<?xml version="1.0" encoding="utf-8"?>
<svg xmlns="http://www.w3.org/2000/svg" width="24" height="24" viewBox="0 0 24 24">
    <g id="gallery" style="opacity:0.75;">
        <path d="M 20,8 10,8 C 8,7.993 7,9 7,11 l 0,7 c -0.014,2 1,2.988 3,3 l 10,0 c 2,-0.012 2.994,-0.994 3,-3 l 0,-7 C 22.994,9 22,7.993 20,8 z m 1,11 -12,0 0,-9 12,0 z m -11,-3.055 2.917,-2.723 1.94,1.799 -1.094,0.851 0.73,1.024 L 17.917,14 20,15.556 20,18 10,18 z m 0,-1.167 2.93,-3.232 2.538,2.467 2.449,-1.568 L 20,14 20,11 10,11 z M 7,5 17,5 c 1.01,0.009 2.134,0.372 2.721,1.276 C 19.881,6.522 19.907,6.722 20,7 L 6,7 6,18 C 4.441,17.627 4.102,16.47 4.014,15 L 4,8 C 4,6 5,4.993 7,5 z M 4,2 14,2 c 1.01,0.009 2.134,0.261 2.721,1.165 C 16.881,3.411 16.907,3.722 17,4 L 3,4 3,15 C 1.441,14.627 1.088,13.469 1,12 L 1,5 C 1,3 2,1.993 4,2 z"/>
    </g>
</svg>
