<?xml version="1.0" encoding="utf-8"?>
<!DOCTYPE svg PUBLIC "-//W3C//DTD SVG 1.1//EN" "http://www.w3.org/Graphics/SVG/1.1/DTD/svg11.dtd">
<svg version="1.1" id="Layer_1" xmlns="http://www.w3.org/2000/svg" xmlns:xlink="http://www.w3.org/1999/xlink" x="0px" y="0px"
    width="24px" height="24px" viewBox="0 0 24 24" enable-background="new 0 0 24 24" xml:space="preserve">
<g id="hiero" opacity="0.75">
   <path id="ankh" d="m 9.0045786,8.4037839 c 0.408197,1.3287357 1.4031084,2.8056531 2.2058904,3.7584441 L 6.969,11.969103 c 0.1279068,0.414647 0.1155421,0.82887 0,1.243515 L 11.210469,13.028527 10.924165,19 c 0.569216,-0.151198 1.0357,-0.09337 1.484575,0 l -0.261619,-5.971473 3.821884,0.184091 c -0.103706,-0.414645 -0.138812,-0.828868 0,-1.243515 l -3.821884,0.193125 C 12.857348,11.130195 13.853548,9.7831196 14.211705,8.2738643 14.935527,5.2236985 13.022035,5.0015265 11.603171,5 10.184306,4.9984831 8.1310072,5.5601434 9.0045786,8.4037839 z M 11.584645,6 c 1.520843,-0.010056 3.080433,1.9804496 0.11698,5.577337 C 8.581706,8.0207315 10.063806,6.0100704 11.584645,6 z"/>
</g>
</svg>
