<svg xmlns="http://www.w3.org/2000/svg" height="24" width="24" viewBox="0 0 39 48">
	<g style="opacity:0.75;">
		<path d="M0,3 L0,3 L3,0 L3,48 L0,45 L39,45 L36,48 L36,0 L39,3 L0,3 Z M0,0 L39,0 L39,48 L0,48 L0,0 L0,0 Z"></path>
		<path d="M34.0975188,22 L37,22 L38,22 L38,24 L37,24 L3,24 L2,24 L2,22 L3,22 L5.74176569,22 L12.9356869,12.3322798 L18.2261449,17.6645595 L26.1618318,7 L34.0975189,17.6645594 L34.0975188,22 Z"></path>
		<path d="M7,30 L32,30 L33,30 L33,28 L32,28 L7,28 L6,28 L6,30 L7,30 L7,30 Z"></path>
		<path d="M7,35 L32,35 L33,35 L33,33 L32,33 L7,33 L6,33 L6,35 L7,35 L7,35 Z"></path>
		<ellipse cx="8.95516219" cy="7.97061802" rx="2.94731905" ry="2.97061802"></ellipse>
		<path d="M7,40 L17,40 L18,40 L18,38 L17,38 L7,38 L6,38 L6,40 L7,40 L7,40 Z"></path>
		<path d="M23,40 L32.0498753,40 L33.0498753,40 L33.0498753,38 L32.0498753,38 L23,38 L22,38 L22,40 L23,40 L23,40 Z"></path>
	</g>
</svg>
