<?xml version="1.0" encoding="utf-8"?>
<svg xmlns="http://www.w3.org/2000/svg" width="24" height="24" viewBox="0 0 24 24">
    <g id="parameter-set">
        <path id="offset-front" d="M16.504 11.019h-3.987c-.998 0-1.496.498-1.496 1.494v2.991c0 .998.498 1.496 1.496 1.496h3.987c.998 0 1.496-.498 1.496-1.496v-2.991c0-.996-.498-1.494-1.496-1.494zm.498 4.485c0 .234-.259.498-.498.498h-2.991v-4.002h2.991c.239 0 .498.279.498.513v2.991z"/>
        <path id="box-middle" d="M9.516 11.513c0-.996.504-1.513 1.502-1.513h3.912c-.153-.655-.616-1-1.426-1h-3.987c-.998 0-1.496.498-1.496 1.494v2.991c0 .998.498 1.496 1.496 1.496l-.001-3.468z"/>
        <path id="box-back" d="M6.516 9.513c0-.996.504-1.513 1.502-1.513h3.912c-.153-.655-.616-1-1.426-1h-3.987c-.998 0-1.496.498-1.496 1.494v2.991c0 .998.498 1.496 1.496 1.496l-.001-3.468z"/>
    </g>
</svg>
