<?xml version="1.0" encoding="utf-8"?>
<svg xmlns="http://www.w3.org/2000/svg" width="24" height="24" viewBox="0 0 24 24">
    <g id="profile">
        <path id="face" d="m 17.143529,18.98908 c 1.761959,0 1.845555,-1.670806 1.845555,-1.758191 L 19,5 H 6.8673952 C 5.1054368,5 5,6.6926423 5,6.7800276 L 5.0218408,19 17.143529,18.98908 z M 14.084987,9.147306 c 0.520184,0 0.940796,0.4211577 0.940796,0.941342 0,0.520195 -0.419793,0.939431 -0.939977,0.939431 -0.520195,0 -0.939977,-0.42142 -0.939977,-0.941615 0,-0.5201844 0.418963,-0.939158 0.939158,-0.939158 z m -4.170789,0.00246 c 0.520184,0 0.94298,0.4211577 0.94298,0.941342 0,0.520195 -0.422796,0.936974 -0.94298,0.936974 -0.5201952,0 -0.9391579,-0.397122 -0.9391579,-0.917317 0,-0.5201845 0.4189627,-0.961 0.9391579,-0.961 z m 5.95164,5.012482 c -2.027282,1.788626 -5.85661,1.735225 -7.786274,-0.163807 -0.2329985,-0.218419 -0.229362,-0.596954 -0.01092,-0.829953 0.2184197,-0.232977 0.6,-0.232638 0.8299534,-0.01092 1.5397816,1.485179 4.7394706,1.4961 6.2901726,0.02184 0.231448,-0.220035 0.596977,-0.189294 0.829954,0.04368 0.274988,0.293301 0.142796,0.721546 -0.152886,0.939158 z" />
    </g>
</svg>
