<?xml version="1.0" encoding="utf-8"?>
<svg xmlns="http://www.w3.org/2000/svg" width="24" height="24" viewBox="0 0 24 24">
    <g id="public-domain">
		<path id="struck-circle" d="M 12 5 C 8.134007 5 5 8.1340068 5 12 C 5 15.865993 8.134007 19 12 19 C 15.865993 19 19 15.865993 19 12 C 19 8.1340068 15.865993 5 12 5 z M 12 6.25 C 13.253108 6.25 14.398931 6.6627956 15.34375 7.34375 L 7.34375 15.34375 C 6.6627955 14.398931 6.25 13.253108 6.25 12 C 6.25 8.8252917 8.825292 6.25 12 6.25 z M 16.65625 8.65625 C 17.337204 9.6010687 17.75 10.746892 17.75 12 C 17.75 15.174708 15.174708 17.75 12 17.75 C 10.738129 17.75 9.5733933 17.3459 8.625 16.65625 L 16.65625 8.65625 z" />
		<path id="c" d="m 13.474437,10.87884 c -0.03906,-0.292478 -0.136703,-0.545958 -0.292935,-0.760442 -0.21482,-0.3119761 -0.566342,-0.4679642 -1.035039,-0.4679642 -0.663986,0 -1.132683,0.3314747 -1.38656,0.9944242 -0.136704,0.350973 -0.195291,0.818938 -0.195291,1.403893 0,0.565457 0.05859,0.994424 0.195291,1.345397 0.234348,0.623953 0.683515,0.955427 1.347502,0.955427 0.468697,0 0.80069,-0.116991 0.995981,-0.370471 0.19529,-0.253481 0.312464,-0.584956 0.351522,-0.974926 h 2.031019 c -0.03906,0.604454 -0.273407,1.169911 -0.663987,1.715869 -0.624929,0.877433 -1.542793,1.3064 -2.773122,1.3064 -1.230328,0 -2.128664,-0.370471 -2.695005,-1.091916 -0.585871,-0.721445 -0.859277,-1.657374 -0.859277,-2.827285 0,-1.3064 0.312464,-2.3203226 0.956922,-3.0417675 0.644458,-0.721445 1.523264,-1.0919167 2.636418,-1.0919167 0.956923,0 1.738084,0.2144836 2.343483,0.6434509 0.6054,0.4289673 0.976452,1.1894092 1.074097,2.2618273 h -2.031019 z" />
	</g>
</svg>
