<?xml version="1.0" encoding="utf-8"?>
<svg xmlns="http://www.w3.org/2000/svg" width="24" height="24" viewBox="0 0 24 24">
    <g id="cite-book">
        <path id="book" d="M14.25 4c-1.033 0-1.875 1.109-2.261 1.822-.411-.713-1.241-1.822-2.26-1.822h-7.729v15h7c.938 0 1.844 1.422 2 2h2c.203-.609.938-2 2-2h7v-15h-7.75zm-3.25 14c-.25-.469-1.203-1-2-1l-4.016.016.008-11.024 4.43-.008c.94 0 1.578 1.178 1.578 2.016v10zm8.016-.984l-4.016-.016c-.734 0-1.719.445-2 1v-10c0-.839.63-2.031 1.594-2.031l4.422.016v11.031z"/>
    </g>
</svg>
