<?xml version="1.0" encoding="iso-8859-1"?>
<!DOCTYPE svg PUBLIC "-//W3C//DTD SVG 1.1//EN" "http://www.w3.org/Graphics/SVG/1.1/DTD/svg11.dtd">
<svg version="1.1" xmlns="http://www.w3.org/2000/svg" xmlns:xlink="http://www.w3.org/1999/xlink" x="0px" y="0px" width="24" height="24" viewBox="0, 0, 24, 24">
<g id="journal" style="opacity:0.75;">
	<g id="book" style="stroke:white;fill-opacity:0;">
		<path d="M15.5,6.5 C16.052,6.5 16.5,6.948 16.5,7.5 L16.5,15.5 C16.5,16.052 16.052,16.5 15.5,16.5 L8.5,16.5 C7.948,16.5 7.5,16.052 7.5,15.5 L7.5,7.5 C7.5,6.948 7.948,6.5 8.5,6.5 L15.5,6.5 z"/>
		<path d="M9,14.5 L15,14.5"/>
		<path d="M12.5,10.5 L14.5,10.5 L14.5,12.5 L12.5,12.5 L12.5,10.5 z"/>
		<path d="M9,12.5 L11,12.5"/>
		<path d="M9,10.5 L11,10.5"/>
		<path d="M7.5,14.5 L6,14.5"/>
		<path d="M7.5,12.5 L6,12.5"/>
		<path d="M7.5,10.5 L6,10.5"/>
		<path d="M7.5,8.5 L6,8.5"/>
		<path d="M9,8.5 L15,8.5"/>
	</g>
	<g id="brackets" style="fill:white;">
		<path d="M17,5 L17,4 L20,4 L20,19 L17,19 L17,18 L19,18 L19,5 z"/>
		<path d="M6,18 L6,19 L3,19 L3,4 L6,4 L6,5 L4,5 L4,18 z"/>
	</g>
</g>
</svg>
