<?xml version="1.0" encoding="iso-8859-1"?>
<!DOCTYPE svg PUBLIC "-//W3C//DTD SVG 1.1//EN" "http://www.w3.org/Graphics/SVG/1.1/DTD/svg11.dtd">
<svg version="1.1" xmlns="http://www.w3.org/2000/svg" xmlns:xlink="http://www.w3.org/1999/xlink" x="0px" y="0px" width="24" height="24" viewBox="0, 0, 24, 24">
<g id="news" style="opacity:0.75;">
	<g id="paper" style="stroke:white;fill-opacity:0;">
		<path d="M5.5,14 L5.5,8.5 L7.5,8.5 L7.5,6.5 C7.5,6.5 17.5,6.5 17.5,6.5 L17.5,15.5 C17.5,16.052 17.052,16.5 16.5,16.5 L8,16.5 C6.5,16.5 5.5,15.5 5.5,14 z"/>
		<path d="M9,8.5 L16,8.5"/>
		<path d="M7.5,8.5 L7.5,14"/>
		<path d="M9,10.5 L12,10.5"/>
		<path d="M9,12.5 L12,12.5"/>
		<path d="M13.5,10.5 L15.5,10.5 L15.5,12.5 L13.5,12.5 z"/>
		<path d="M9,14.5 L16,14.5"/>
	</g>
	<g id="brackets" style="fill:white;">
		<path d="M17,5 L17,4 L20,4 L20,19 L17,19 L17,18 L19,18 L19,5 z"/>
		<path d="M6,18 L6,19 L3,19 L3,4 L6,4 L6,5 L4,5 L4,18 z"/>
	</g>
</g>
</svg>
