<?xml version="1.0" encoding="iso-8859-1"?>
<!DOCTYPE svg PUBLIC "-//W3C//DTD SVG 1.1//EN" "http://www.w3.org/Graphics/SVG/1.1/DTD/svg11.dtd">
<svg version="1.1" xmlns="http://www.w3.org/2000/svg" xmlns:xlink="http://www.w3.org/1999/xlink" x="0px" y="0px" width="24" height="24" viewBox="0, 0, 24, 24">
<g id="book" style="opacity:0.75;">
	<path d="M17,5 L17,4 L20,4 L20,19 L17,19 L17,18 L19,18 L19,5 z"/>
	<path d="M6,18 L6,19 L3,19 L3,4 L6,4 L6,5 L4,5 L4,18 z"/>
	<path d="M15,6 C15,6 15,7 15,7 L9,7 C9,7 8,6.953 8,7.5 C8,8 9,8 9,8 C9,8 16,8 16,8 C16,8 16,17 16,17 L9,17 C7.5,17 7,16.053 7,15.5 L7,7.5 C7,6.947 7,6 9.5,6 z z M14,10 L10,10 L10,11 L14,11 z M13,12 L11,12 L11,13 L13,13 z"/>
</g>
</svg>
