<?xml version="1.0" encoding="iso-8859-1"?>
<!DOCTYPE svg PUBLIC "-//W3C//DTD SVG 1.1//EN" "http://www.w3.org/Graphics/SVG/1.1/DTD/svg11.dtd">
<svg version="1.1" xmlns="http://www.w3.org/2000/svg" xmlns:xlink="http://www.w3.org/1999/xlink" x="0px" y="0px" width="24px"
	 height="24px" viewBox="0 0 24 24" style="enable-background:new 0 0 24 24;" xml:space="preserve">
<g id="reference" style="opacity:0.75;">
	<path id="book" d="M7,6.5C7,5.953,8,6,8,6h9c0-0.276-0.447-1-1-1H8C6.667,5,6,5.447,6,6v12c0,0.553,0.447,1,1,1h10c0.553,0,1-0.447,1-1V8
		c0,0,0-1-1-1s-2.158,0-4,0v7l-2.001-2L9,14V7H8C8,7,7,7,7,6.5z"/>
</g>
</svg>
