<svg xmlns="http://www.w3.org/2000/svg" xmlns:xlink="http://www.w3.org/1999/xlink" version="1.1" x="0px" y="0px" width="24px" height="24px" viewBox="0 0 24 24" enable-background="new 0 0 24 24" xml:space="preserve"><g><path fill="#3A3A3A" d="M8.5 17.7L5.2 19C5 19.1 5 19 5 18.8l1.3-3.3c0.1-0.2 0.2-0.2 0.3-0.1l2 2C8.6 17.5 8.6 17.7 8.5 17.7z"/><rect x="10.4" y="6.6" transform="matrix(0.7071 0.7071 -0.7071 0.7071 11.9604 -5.0357)" fill="#3A3A3A" width="3.3" height="10.6"/><path fill="#3A3A3A" d="M18.9 7.5l-0.3 0.3L18 8.4l-0.3 0.3l-0.3-0.3l-1.8-1.8l-0.3-0.3L15.8 6l0.6-0.6l0.3-0.3 c0.2-0.2 0.5-0.2 0.6 0l1.8 1.8C19 7 19 7.3 18.9 7.5z"/></g></svg>