<svg xmlns="http://www.w3.org/2000/svg" xmlns:xlink="http://www.w3.org/1999/xlink" version="1.1" x="0px" y="0px" width="24px" height="24px" viewBox="0 0 24 24" enable-background="new 0 0 24 24" xml:space="preserve"><path fill="#3A3A3A" d="M5 6.7v0.7C5 7.7 5.4 8 6 8h12c0.6 0 1-0.3 1-0.7V6.7C19 6.3 18.6 6 18 6H6C5.4 6.1 5 6.3 5 6.7z M5 11.7 v0.7C5 12.7 5.4 13 6 13h12c0.6 0 1-0.3 1-0.7v-0.6c0-0.4-0.4-0.7-1-0.7H6C5.4 11.1 5 11.3 5 11.7z M5 16.7v0.7C5 17.7 5.4 18 6 18 h12c0.6 0 1-0.3 1-0.7v-0.6c0-0.4-0.4-0.7-1-0.7H6C5.4 16.1 5 16.3 5 16.7z"/></svg>