<svg xmlns="http://www.w3.org/2000/svg" xmlns:xlink="http://www.w3.org/1999/xlink" width="24" height="22" viewBox="0 0 24 22" version="1.1">
	<g stroke="none" stroke-width="1" fill="none" fill-rule="evenodd">
		<g transform="translate(-1161.000000, -1384.000000)" fill="#2F3742">
			<g transform="translate(1157.000000, 1379.000000)">
				<path d="M17.2 19.7L15 19.7 14.3 10.9 17.9 10.9 17.2 19.7ZM16.1 23.7C15.2 23.7 14.6 23.1 14.6 22.2 14.6 21.4 15.2 20.7 16.1 20.7 17 20.7 17.6 21.4 17.6 22.2 17.6 23.1 17 23.7 16.1 23.7L16.1 23.7ZM27.4 22.1L18.5 6.8C17.1 4.4 14.9 4.4 13.5 6.8L4.6 22.1C3.2 24.5 4.3 26.4 7.1 26.4L24.9 26.4C27.7 26.4 28.8 24.5 27.4 22.1L27.4 22.1Z"/>
			</g>
		</g>
	</g>
</svg>
