<?xml version="1.0" encoding="UTF-8" standalone="no"?>
<svg width="24px" height="22px" viewBox="0 0 24 22" version="1.1" xmlns="http://www.w3.org/2000/svg" xmlns:xlink="http://www.w3.org/1999/xlink" xmlns:sketch="http://www.bohemiancoding.com/sketch/ns">
    <g id="Page-1" stroke="none" stroke-width="1" fill="none" fill-rule="evenodd" sketch:type="MSPage">
        <g id="EBS-notification_spec" sketch:type="MSArtboardGroup" transform="translate(-1161.000000, -1384.000000)" fill="#2F3742">
            <g id="bounds-+-Page-1" sketch:type="MSLayerGroup" transform="translate(1157.000000, 1379.000000)">
                <path d="M17.1840067,19.7122743 L15.0115766,19.7122743 L14.279984,10.8672965 L17.9155992,10.8672965 L17.1840067,19.7122743 Z M16.0977916,23.7472073 C15.244463,23.7472073 14.565211,23.0685435 14.565211,22.2146267 C14.565211,21.3612981 15.244463,20.6820461 16.0977916,20.6820461 C16.9511203,20.6820461 17.6303722,21.3612981 17.6303722,22.2146267 C17.6303722,23.0685435 16.9511203,23.7472073 16.0977916,23.7472073 L16.0977916,23.7472073 Z M27.4086599,22.1099455 L18.5313367,6.78943237 C17.1493089,4.40469932 14.886312,4.40352312 13.5019318,6.78590379 L4.5934395,22.1134741 C3.20905933,24.4964428 4.33056017,26.445396 7.08638239,26.445396 L24.9110122,26.445396 C27.6662463,26.445396 28.7906877,24.4946785 27.4086599,22.1099455 L27.4086599,22.1099455 Z" id="Page-1" sketch:type="MSShapeGroup"></path>
            </g>
        </g>
    </g>
</svg>
